<?xml version="1.0" encoding="UTF-8"?><svg id="Layer_2" xmlns="http://www.w3.org/2000/svg" viewBox="0 0 468 313.82"><defs><style>.cls-1{fill:#fff;}.cls-2{fill:#c8e6ff;}.cls-3{fill:#a2c52e;}.cls-4,.cls-5{fill:#7850c8;}.cls-5,.cls-6,.cls-7{stroke:#fff;stroke-miterlimit:10;}.cls-6{fill:#6e28aa;}.cls-7{fill:none;}</style></defs><g id="Layer_1-2"><g><g><path class="cls-2" d="M166.5,117h0c0-4.97-4.03-9-9-9h-58.5c-2.49,0-4.5-2.01-4.5-4.5h0c0-2.49,2.01-4.5,4.5-4.5h22.5c4.97,0,9-4.03,9-9h0c0-4.97-4.03-9-9-9H40.5c-4.97,0-9,4.03-9,9h0c0,4.97,4.03,9,9,9h22.5c2.49,0,4.5,2.01,4.5,4.5h0c0,2.49-2.01,4.5-4.5,4.5H13.5c-4.97,0-9,4.03-9,9h0c0,4.97,4.03,9,9,9h22.5c2.49,0,4.5,2.01,4.5,4.5h0c0,2.49-2.01,4.5-4.5,4.5h-4.5c-4.97,0-9,4.03-9,9h0c0,4.97,4.03,9,9,9h45c4.97,0,9-4.03,9-9h0c0-4.97-4.03-9-9-9h-4.5c-2.49,0-4.5-2.01-4.5-4.5h0c0-2.49,2.01-4.5,4.5-4.5h85.5c4.97,0,9-4.03,9-9Z"/><path class="cls-2" d="M292.5,36h0c0-4.97-4.03-9-9-9h-40.5c-2.49,0-4.5-2.01-4.5-4.5h0c0-2.49,2.01-4.5,4.5-4.5h22.5c4.97,0,9-4.03,9-9h0c0-4.97-4.03-9-9-9h-90c-4.97,0-9,4.03-9,9h0c0,4.97,4.03,9,9,9h13.5c2.49,0,4.5,2.01,4.5,4.5h0c0,2.49-2.01,4.5-4.5,4.5h-49.5c-4.97,0-9,4.03-9,9h0c0,4.97,4.03,9,9,9h40.5c2.49,0,4.5,2.01,4.5,4.5h0c0,2.49-2.01,4.5-4.5,4.5h-13.5c-4.97,0-9,4.03-9,9h0c0,4.97,4.03,9,9,9h54c4.97,0,9-4.03,9-9h0c0-4.97-4.03-9-9-9h-4.5c-2.49,0-4.5-2.01-4.5-4.5h0c0-2.49,2.01-4.5,4.5-4.5h67.5c4.97,0,9-4.03,9-9Zm-76.5-18h0c2.49,0,4.5,2.01,4.5,4.5h0c0,2.49-2.01,4.5-4.5,4.5h0c-2.49,0-4.5-2.01-4.5-4.5h0c0-2.49,2.01-4.5,4.5-4.5Z"/><path class="cls-2" d="M463.5,117h0c0-4.97-4.03-9-9-9h-22.5c-2.49,0-4.5-2.01-4.5-4.5h0c0-2.49,2.01-4.5,4.5-4.5h13.5c4.97,0,9-4.03,9-9h0c0-4.97-4.03-9-9-9h-40.5c-2.49,0-4.5-2.01-4.5-4.5h0c0-2.49,2.01-4.5,4.5-4.5h4.5c4.97,0,9-4.03,9-9h0c0-4.97-4.03-9-9-9h-72c-4.97,0-9,4.03-9,9h0c0,4.97,4.03,9,9,9h31.5c2.49,0,4.5,2.01,4.5,4.5h0c0,2.49-2.01,4.5-4.5,4.5h-13.5c-4.97,0-9,4.03-9,9h0c0,4.97,4.03,9,9,9h40.5c2.49,0,4.5,2.01,4.5,4.5h0c0,2.49-2.01,4.5-4.5,4.5h-76.5c-4.97,0-9,4.03-9,9h0c0,4.97,4.03,9,9,9h13.5c2.49,0,4.5,2.01,4.5,4.5h0c0,2.49-2.01,4.5-4.5,4.5h-22.5c-4.97,0-9,4.03-9,9h0c0,4.97,4.03,9,9,9h108c4.97,0,9-4.03,9-9h0c0-4.97-4.03-9-9-9h-4.5c-2.49,0-4.5-2.01-4.5-4.5h0c0-2.49,2.01-4.5,4.5-4.5h40.5c4.97,0,9-4.03,9-9Zm-76.5,18h-27c-2.49,0-4.5-2.01-4.5-4.5h0c0-2.49,2.01-4.5,4.5-4.5h27c2.49,0,4.5,2.01,4.5,4.5h0c0,2.49-2.01,4.5-4.5,4.5Z"/><rect class="cls-2" x="49.5" y="27" width="54" height="18" rx="9" ry="9"/><rect class="cls-2" x="184.5" y="135" width="54" height="18" rx="9" ry="9"/><rect class="cls-2" x="364.5" y="18" width="36" height="18" rx="9" ry="9"/></g><g><g><path d="M169.24,68.51h11.5v25.82h-11.5v15.42h-29.25v-15.42h-39.41l-3.3-19.46,19.7-49.56h32.43l-16.64,42.22,7.71,.61v-15.79l28.76-.12v16.28Z"/><path d="M359.21,68.51h11.5v25.82h-11.5v15.42h-29.25v-15.42h-39.41l-3.3-19.46,19.7-49.56h32.43l-16.64,42.22,7.71,.61v-15.79l28.76-.12v16.28Z"/><path class="cls-1" d="M272.25,89.62c2.1-3.64,4.64-6.26,6.22-6.58,1.69-4.86,2.63-10.07,2.63-15.51s-.93-10.65-2.63-15.51c-1.58-.32-4.11-2.93-6.22-6.58-2.1-3.63-3.09-7.13-2.59-8.66-6.81-7.89-16.2-13.5-26.86-15.52-1.07,1.21-4.6,2.09-8.8,2.09s-7.73-.89-8.8-2.09c-10.66,2.02-20.04,7.62-26.86,15.52,.5,1.53-.49,5.03-2.59,8.66-2.1,3.64-4.64,6.26-6.22,6.58-1.69,4.86-2.63,10.07-2.63,15.51s.93,10.65,2.63,15.51c1.58,.32,4.11,2.93,6.22,6.58,2.1,3.63,3.09,7.13,2.59,8.66,6.81,7.89,16.2,13.5,26.86,15.52,1.07-1.21,4.6-2.09,8.8-2.09s7.73,.89,8.8,2.09c10.66-2.02,20.04-7.62,26.86-15.52-.5-1.53,.49-5.03,2.59-8.66Z"/><path class="cls-3" d="M272.25,89.62c2.1-3.64,4.64-6.26,6.22-6.58,1.69-4.86,2.63-10.07,2.63-15.51s-.93-10.65-2.63-15.51c-1.58-.32-4.11-2.93-6.22-6.58-2.1-3.63-3.09-7.13-2.59-8.66-6.81-7.89-16.2-13.5-26.86-15.52-1.07,1.21-4.6,2.09-8.8,2.09s-7.73-.89-8.8-2.09c-10.66,2.02-20.04,7.62-26.86,15.52,.5,1.53-.49,5.03-2.59,8.66-2.1,3.64-4.64,6.26-6.22,6.58-1.69,4.86-2.63,10.07-2.63,15.51s.93,10.65,2.63,15.51c1.58,.32,4.11,2.93,6.22,6.58,2.1,3.63,3.09,7.13,2.59,8.66,6.81,7.89,16.2,13.5,26.86,15.52,1.07-1.21,4.6-2.09,8.8-2.09s7.73,.89,8.8,2.09c10.66-2.02,20.04-7.62,26.86-15.52-.5-1.53,.49-5.03,2.59-8.66Zm-30.17-54.35c2.07-3.58,7.28-4.43,11.66-1.91,4.37,2.52,6.24,7.47,4.17,11.05-2.07,3.58-7.28,4.43-11.66,1.91-4.37-2.52-6.24-7.47-4.17-11.05Zm-27.81-1.91c4.37-2.52,9.59-1.67,11.66,1.91,2.07,3.58,.2,8.53-4.17,11.05-4.37,2.52-9.59,1.67-11.66-1.91-2.07-3.58-.2-8.53,4.17-11.05Zm-12.25,43.31c-4.13,0-7.48-4.09-7.48-9.14s3.35-9.14,7.48-9.14,7.48,4.09,7.48,9.14-3.35,9.14-7.48,9.14Zm23.9,23.13c-2.07,3.58-7.28,4.43-11.66,1.91-4.37-2.52-6.24-7.47-4.17-11.05,2.07-3.58,7.28-4.43,11.66-1.91,4.37,2.52,6.24,7.47,4.17,11.05Zm8.08-23.13c-5.05,0-9.14-4.09-9.14-9.14s4.09-9.14,9.14-9.14,9.14,4.09,9.14,9.14-4.09,9.14-9.14,9.14Zm19.73,25.04c-4.37,2.52-9.59,1.67-11.66-1.91s-.2-8.53,4.17-11.05c4.37-2.52,9.59-1.67,11.66,1.91,2.07,3.58,.2,8.53-4.17,11.05Zm12.25-25.04c-4.13,0-7.48-4.09-7.48-9.14s3.35-9.14,7.48-9.14,7.48,4.09,7.48,9.14-3.35,9.14-7.48,9.14Z"/></g><g><path d="M81.92,166.17v-27.6h12.28c6.4,0,10.32,4.48,10.32,10.32,0,6.76-4.64,10.88-10.32,10.88h-1.96v6.4h-10.32Zm10.32-14.96h.32c1.44,0,2.32-.44,2.32-1.76s-.76-1.72-2.32-1.72h-.32v3.48Z"/><path d="M105.24,160.61c0-3.68,2.92-5.28,7-5.28,3.2,0,4.76,1.12,5.08,2.52h.2v-2.4c0-1.2-.32-2.4-2.12-2.4-1.56,0-2.28,.56-2.24,1.68h-.4l-7.36-1.36c-.6-5.24,2.44-9.04,10.52-9.04,5.84,0,10.68,2.72,10.68,8.96v3.76l.72,9.12h-8.6l-.84-5.44h-.24c0,4.16-2.48,5.92-6.28,5.92-4.28,0-6.12-2.76-6.12-6.04Zm12.48-1.2c0-.6-.56-.88-1.6-.88-.96,0-1.56,.28-1.56,.88,0,.64,.6,.92,1.56,.92,1.16,0,1.6-.4,1.6-.92Z"/><path d="M144.08,161.29c4.92,0,7.6,1.28,7.6,5.32s-2.68,7.76-12.6,7.76c-6.8,0-10.48-1.36-10.48-4.88,0-2.16,1.48-3.36,4.48-3.72v-.4c-2.96-.24-4.68-1.4-4.68-3.48,0-2.2,2.24-3.16,4.8-3.36-2.64-1.04-3.72-3.4-3.72-6.12,0-5.36,4.36-8.08,10.16-8.08,1.4,0,3.92,.32,5.64,.92l6.32-2.88v7.68l-3.56,.76v.16c1.52,.6,1.84,2.04,1.84,3.32,0,4.04-4.8,6.04-10.32,5.96-.76,0-2.32-.16-3.2-.36-.28,.04-.56,.28-.56,.64,0,.6,1.12,.76,2,.76h6.28Zm-1.56,4.76c0-.6-.56-.68-1.52-.68h-5.36c-.04,.08-.08,.28-.08,.4,0,1.16,1.64,1.36,3.16,1.36,2.48,0,3.8-.32,3.8-1.08Zm-5.32-13.2c0,1,.76,1.36,2.28,1.36,1.36,0,2.48-.28,2.48-1.36,0-1-1.12-1.28-2.48-1.28s-2.28,.28-2.28,1.28Z"/><path d="M170.52,156.49l3.56,6.12c-1.48,2.12-4.6,4.04-9.92,4.04-7.92,0-11.88-4.52-11.88-11.24,0-7.76,5.04-11.08,11.44-11.08s10.36,3.2,10.36,8.72c0,.92-.12,1.92-.24,2.96h-12.28c.04,1.2,.8,2.16,3.52,2.16,2.56,0,3.92-.64,5.08-1.68h.36Zm-8.96-2.84l3.68-.04c-.12-1.12-.76-1.72-1.76-1.72-.88,0-1.72,.52-1.92,1.76Z"/><path d="M183.88,166.17v-12.48l-.8-8.92h9.12l.6,7.44h.28c.56-7,4.12-7.88,6.6-7.88,4,0,6.04,2.92,6.04,6.96v14.88h-9.6v-11c0-1.2-.24-1.88-1.04-1.88-1.16,0-1.6,1.12-1.6,3.12v9.76h-9.6Z"/><path d="M207.48,155.45c0-6.52,3.84-11.12,11-11.12s11,4.6,11,11.12-3.84,11.2-11,11.2-11-4.68-11-11.2Zm13.28,0c0-1.44-.64-2.24-2.28-2.24s-2.36,.8-2.36,2.24,.68,2.28,2.32,2.28,2.32-.8,2.32-2.28Z"/><path d="M233.68,158.01v-4.84l-2.96,.2v-8.48l3.28,.24,.08-4.84h9.36l-.08,4.96,5.4-.44v8.56l-5.4-.32v3.12c0,1.16,.48,1.84,1.4,1.84,.8,0,2-.84,2.72-1.56h.2l2.12,6.76c-1.44,2.12-4.52,3.4-8.2,3.4-5.52,0-7.92-2.64-7.92-8.6Z"/><path d="M262.44,166.17v-13.08l-3.36,.2v-7.8l3.36,.24v-.32c0-5.96,4.76-8.24,9.04-8.24,1.64,0,3.44,.24,5.4,.88v6.84h-.32c-.72-.2-2-.56-3.08-.56-1.72,0-2,.64-2,1.32v.32l5.36-.56v8.2l-4.8-.52v13.08h-9.6Z"/><path d="M277.56,155.45c0-6.52,3.84-11.12,11-11.12s11,4.6,11,11.12-3.84,11.2-11,11.2-11-4.68-11-11.2Zm13.28,0c0-1.44-.64-2.24-2.28-2.24s-2.36,.8-2.36,2.24,.68,2.28,2.32,2.28,2.32-.8,2.32-2.28Z"/><path d="M301.52,159.69v-14.92h9.6v11.04c0,1.2,.24,1.88,1.04,1.88,1.16,0,1.6-1.12,1.6-3.12v-9.8h9.6v12.52l1.04,8.88h-9.4l-.56-7.4h-.28c-.56,7-4.12,7.88-6.6,7.88-4,0-6.04-2.92-6.04-6.96Z"/><path d="M326.88,166.17v-12.48l-.8-8.92h9.12l.6,7.44h.28c.56-7,4.12-7.88,6.6-7.88,4,0,6.04,2.92,6.04,6.96v14.88h-9.6v-11c0-1.2-.24-1.88-1.04-1.88-1.16,0-1.6,1.12-1.6,3.12v9.76h-9.6Z"/><path d="M350.64,155.53c0-8.2,3.6-11.24,7.52-11.24,2.72,0,5.36,1.4,6.04,7.6h.56c-.68-4.24-.68-7.4-.68-8.12v-5.2h9.6v18.48l.8,9.12h-9.08l-.6-7.44h-.4c-.12,6.2-3.12,7.92-6.52,7.92-4.32,0-7.24-3.44-7.24-11.12Zm13.48-.08c0-1.24-.84-1.92-2.16-1.92-1,0-2,.44-1.96,1.92,0,1.48,.96,1.92,2,1.92,1.32,0,2.12-.68,2.12-1.92Z"/><path d="M379.44,155.49l-3.4-16.92h10.04l-3.36,16.92h-3.28Zm-3.36,6.12c0-2.92,1.96-5,4.96-5s5,2.08,5,5-2,4.96-5,4.96-4.96-2.08-4.96-4.96Z"/></g></g><g><path class="cls-4" d="M0,313.82H468c-30-43.17-60-86.34-90-129.51H90C60,227.48,30,270.65,0,313.82Z"/><path class="cls-5" d="M361.4,243.75c-6.03-12.62-12.06-25.24-18.09-37.86h-74.53c1.92,12.62,3.84,25.24,5.76,37.86h86.86Z"/><path class="cls-6" d="M281.91,292.24c-2.19-14.39-4.38-28.78-6.56-43.17l-6.56-43.17h-34.78c0,28.78,0,57.56,0,86.34h47.91Z"/><path class="cls-5" d="M281.91,292.24h102.66c-7.72-16.16-15.44-32.32-23.16-48.49h-86.86c2.46,16.16,4.91,32.32,7.37,48.49Z"/><path class="cls-6" d="M186.09,292.24h47.91c0-28.78,0-57.56,0-86.34h-34.78l-6.56,43.17c-2.19,14.39-4.38,28.78-6.56,43.17Z"/><path class="cls-5" d="M106.6,243.75c-7.72,16.16-15.44,32.32-23.16,48.49h102.66c2.46-16.16,4.91-32.32,7.37-48.49H106.6Z"/><path class="cls-5" d="M193.46,243.75c1.92-12.62,3.84-25.24,5.76-37.86H124.69c-6.03,12.62-12.06,25.24-18.09,37.86h86.86Z"/><line class="cls-7" x1="234" y1="292.24" x2="234" y2="193.31"/></g></g></g></svg>