<?xml version="1.0" encoding="UTF-8"?><svg id="Layer_2" xmlns="http://www.w3.org/2000/svg" xmlns:xlink="http://www.w3.org/1999/xlink" viewBox="0 0 84.56 84.56"><defs><style>.cls-1{fill:url(#linear-gradient);}.cls-2{fill:#fff;}</style><linearGradient id="linear-gradient" x1="6.28" y1="42.28" x2="78.28" y2="42.28" gradientTransform="translate(84.56) rotate(90)" gradientUnits="userSpaceOnUse"><stop offset="0" stop-color="#6a35ff"/><stop offset="1" stop-color="#e83e39"/></linearGradient></defs><g id="Layer_1-2"><g><circle class="cls-2" cx="42.28" cy="42.28" r="42.28"/><path class="cls-1" d="M25.4,71.52c2.79,1.61,4.78,3.55,5.03,4.75,3.71,1.29,7.7,2.01,11.85,2.01s8.14-.71,11.85-2.01c.24-1.21,2.24-3.15,5.03-4.75,2.78-1.6,5.45-2.37,6.62-1.98,6.04-5.21,10.32-12.38,11.86-20.53-.92-.82-1.6-3.52-1.6-6.73s.68-5.91,1.6-6.73c-1.54-8.15-5.83-15.32-11.86-20.53-1.17,.38-3.84-.38-6.62-1.98-2.79-1.61-4.78-3.55-5.03-4.75-3.71-1.29-7.7-2.01-11.85-2.01s-8.14,.71-11.85,2.01c-.24,1.21-2.24,3.15-5.03,4.75-2.78,1.6-5.45,2.37-6.62,1.98-6.04,5.21-10.32,12.38-11.86,20.53,.92,.82,1.6,3.52,1.6,6.73s-.68,5.91-1.6,6.73c1.54,8.15,5.83,15.32,11.86,20.53,1.17-.38,3.84,.38,6.62,1.98Zm41.55-23.07c2.74,1.58,3.39,5.57,1.46,8.91-1.93,3.34-5.71,4.77-8.45,3.19-2.74-1.58-3.39-5.57-1.46-8.91,1.93-3.34,5.71-4.77,8.45-3.19Zm1.46-21.26c1.93,3.34,1.28,7.33-1.46,8.91-2.74,1.58-6.52,.15-8.45-3.19-1.93-3.34-1.28-7.33,1.46-8.91,2.74-1.58,6.52-.15,8.45,3.19Zm-33.11-9.36c0-3.16,3.13-5.72,6.99-5.72s6.99,2.56,6.99,5.72-3.13,5.72-6.99,5.72-6.99-2.56-6.99-5.72Zm-17.68,18.27c-2.74-1.58-3.39-5.57-1.46-8.91,1.93-3.34,5.71-4.77,8.45-3.19,2.74,1.58,3.39,5.57,1.46,8.91-1.93,3.34-5.71,4.77-8.45,3.19Zm17.68,6.17c0-3.86,3.13-6.99,6.99-6.99s6.99,3.13,6.99,6.99-3.13,6.99-6.99,6.99-6.99-3.13-6.99-6.99Zm-19.14,15.08c-1.93-3.34-1.28-7.33,1.46-8.91s6.52-.15,8.45,3.19c1.93,3.34,1.28,7.33-1.46,8.91-2.74,1.58-6.52,.15-8.45-3.19Zm19.14,9.36c0-3.16,3.13-5.72,6.99-5.72s6.99,2.56,6.99,5.72-3.13,5.72-6.99,5.72-6.99-2.56-6.99-5.72Z"/></g></g></svg>