<?xml version="1.0" encoding="UTF-8"?><svg id="Layer_2" xmlns="http://www.w3.org/2000/svg" xmlns:xlink="http://www.w3.org/1999/xlink" viewBox="0 0 73.83 5.96"><defs><style>.cls-1{fill:url(#linear-gradient);}.cls-2{fill:url(#linear-gradient-8);}.cls-3{fill:url(#linear-gradient-9);}.cls-4{fill:url(#linear-gradient-3);}.cls-5{fill:url(#linear-gradient-4);}.cls-6{fill:url(#linear-gradient-2);}.cls-7{fill:url(#linear-gradient-6);}.cls-8{fill:url(#linear-gradient-7);}.cls-9{fill:url(#linear-gradient-5);}.cls-10{fill:url(#linear-gradient-10);}</style><linearGradient id="linear-gradient" x1="-1.3" y1="3.1" x2="74.46" y2="3.1" gradientUnits="userSpaceOnUse"><stop offset="0" stop-color="#ee4036"/><stop offset="1" stop-color="#652d90"/></linearGradient><linearGradient id="linear-gradient-2" x2="74.46" xlink:href="#linear-gradient"/><linearGradient id="linear-gradient-3" x2="74.46" xlink:href="#linear-gradient"/><linearGradient id="linear-gradient-4" x2="74.46" xlink:href="#linear-gradient"/><linearGradient id="linear-gradient-5" x2="74.46" xlink:href="#linear-gradient"/><linearGradient id="linear-gradient-6" x2="74.46" xlink:href="#linear-gradient"/><linearGradient id="linear-gradient-7" x2="74.46" xlink:href="#linear-gradient"/><linearGradient id="linear-gradient-8" x2="74.46" xlink:href="#linear-gradient"/><linearGradient id="linear-gradient-9" y1="1.56" x2="74.46" y2="1.56" xlink:href="#linear-gradient"/><linearGradient id="linear-gradient-10" y1="3.11" x2="74.46" y2="3.11" xlink:href="#linear-gradient"/></defs><g id="Layer_1-2"><g><path class="cls-1" d="M0,5.86V.34H2.33c1.28,0,2.05,.84,2.05,2.02,0,1.33-.93,2.09-2.05,2.09h-.63v1.42H0ZM1.7,2.93h.4c.42,0,.67-.13,.67-.5s-.24-.48-.66-.48h-.41v.98Z"/><path class="cls-6" d="M6.51,5.86V.34h3.89v1.7h-2.19v.57l1.73-.15v1.16s-1.73-.1-1.73-.1v.65h2.24v1.7h-3.94Z"/><path class="cls-4" d="M13.75,5.86V2.08h-1.2V.34h4.11v1.74h-1.21v3.78h-1.7Z"/><path class="cls-5" d="M18.86,5.86V.34h3.89v1.7h-2.19v.57l1.73-.15v1.16s-1.73-.1-1.73-.1v.65h2.24v1.7h-3.94Z"/><path class="cls-9" d="M25.09,5.86V.34h2.52c1.28,0,2.02,.59,2.02,1.66,0,.74-.37,1.27-1.1,1.46,.52,.1,.74,.43,.86,.89l.44,1.51h-1.82l-.38-1.44c-.07-.26-.23-.44-.48-.5l-.37-.05v1.98h-1.7Zm1.7-3.07h.53c.37,0,.59-.15,.59-.46s-.28-.4-.61-.4h-.51v.86Z"/><path class="cls-1" d="M35.14,5.86V.34h2.33c1.28,0,2.05,.84,2.05,2.02,0,1.33-.93,2.09-2.05,2.09h-.63v1.42h-1.7Zm1.7-2.93h.4c.42,0,.67-.13,.67-.5s-.24-.48-.66-.48h-.41v.98Z"/><path class="cls-7" d="M41.66,5.86V.34h1.7V5.86h-1.7Z"/><path class="cls-1" d="M45.83,5.86V.34h2.33c1.28,0,2.05,.84,2.05,2.02,0,1.33-.93,2.09-2.05,2.09h-.63v1.42h-1.7Zm1.7-2.93h.4c.42,0,.67-.13,.67-.5s-.24-.48-.66-.48h-.41v.98Z"/><path class="cls-8" d="M52.34,5.86V.34h3.89v1.7h-2.19v.57l1.73-.15v1.16s-1.73-.1-1.73-.1v.65h2.24v1.7h-3.94Z"/><path class="cls-2" d="M58.57,5.86V.34h2.52c1.28,0,2.02,.59,2.02,1.66,0,.74-.37,1.27-1.09,1.46,.52,.1,.74,.43,.86,.89l.44,1.51h-1.82l-.38-1.44c-.07-.26-.23-.44-.48-.5l-.37-.05v1.98h-1.7Zm1.7-3.07h.53c.37,0,.59-.15,.59-.46s-.28-.4-.61-.4h-.51v.86Z"/><path class="cls-3" d="M65.13,3.11l.49-1.4c-.19-.23-.29-.5-.29-.77,0-.5,.31-.94,.9-.94s.84,.42,.84,.87c0,.23-.05,.45-.18,.73l-.65,1.51h-1.11Z"/><path class="cls-10" d="M68.93,4.49l1.13-.78h.07c.14,.52,.59,.69,1.22,.69,.42,0,.77-.11,.77-.38,0-.23-.38-.29-.88-.35-.82-.1-2.02-.21-2.02-1.6,0-1.06,.77-1.8,2.29-1.8,1.27,0,2.21,.4,2.29,1.46l-1.06,.66h-.09c-.08-.42-.46-.58-1-.58-.44,0-.73,.11-.73,.34,0,.29,.51,.34,.98,.38,.8,.08,1.93,.18,1.93,1.52,0,1.23-.93,1.92-2.37,1.92-1.2,0-2.16-.3-2.53-1.47Z"/></g></g></svg>