<?xml version="1.0" encoding="UTF-8"?><svg id="Layer_2" xmlns="http://www.w3.org/2000/svg" viewBox="0 0 288 216"><defs><style>.cls-1{fill:#010101;}.cls-2{fill:#eeebe4;}.cls-3{fill:#398060;}</style></defs><g id="Layer_1-2"><g><rect class="cls-3" width="288" height="216"/><g><path class="cls-2" d="M64.28,121.71c0,1.7-2.6,4.71-7.77,4.71-2.35,0-4.51-1.1-5.86-3.16-1.8,1.5-5.06,3.36-9.42,3.36-5.76,0-9.22-3.26-9.22-7.92s3.76-8.32,10.77-8.32c2.35,0,4.21,.3,5.46,.65l-.05-.5c-.45-3.26-2.4-4.91-4.91-4.91-2.2,0-3.86,.65-5.26,1.25-.9,.4-1.75,.85-2.4,.85-.7,0-1.5-.6-1.5-1.65,0-1.25,1.25-2.51,2.15-3.21,2.25-1.75,5.56-2.96,10.12-2.96,6.11,0,10.47,2.36,11.27,8.32l1.1,8.07c.4,2.96,1.55,3.66,4.46,4.21,.55,.1,1.05,.5,1.05,1.2Zm-14.78-1.7l-.75-5.36c-.6-.15-1.45-.25-2.5-.25-2.4,0-4.31,.9-4.31,3.21s1.65,3.66,3.71,3.66c1.5,0,3.01-.65,3.86-1.25Z"/><path class="cls-2" d="M93.84,102.12c0,2.1-2.35,1.35-3.91,5.06l-7.01,16.58c-.65,1.5-1.1,2.76-5.16,2.76s-4.51-1.05-5.26-2.76l-7.11-16.58c-1.65-3.86-3.86-2.96-3.86-5.06,0-1,.85-1.6,1.9-1.6,1.3,0,3.06,.15,6.21,.15s4.61-.15,6.11-.15c1.6,0,2.35,.65,2.35,1.6,0,2-2.15,1.6-2.15,3.91,0,1,.3,1.9,.85,3.31l3.41,9.02,3.46-9.02c.6-1.6,.9-2.51,.9-3.41,0-1.95-2.25-1.8-2.25-3.81,0-.95,.7-1.6,2.3-1.6,1.05,0,2.25,.15,3.61,.15,1.25,0,2.81-.15,3.71-.15,1.1,0,1.9,.65,1.9,1.6Z"/><path class="cls-2" d="M93.49,113.79c0-8.17,6.76-14.23,16.53-14.23s15.23,6.01,15.23,13.38c0,8.37-7.06,14.18-16.48,14.18s-15.28-6.01-15.28-13.33Zm21.24,1.4c0-4.21-2.2-11.02-6.36-11.02-2.91,0-4.36,2.35-4.36,7.36,0,4.11,2.15,10.97,6.36,10.97,2.96,0,4.36-2.36,4.36-7.31Z"/><path class="cls-2" d="M127.45,113.89c0-8.87,7.21-14.28,14.78-14.28,6.51,0,11.42,4.06,11.42,7.01,0,1.35-1,3.16-4.11,5.21-.95,.65-1.5,.75-1.95,.75-1.1,0-1.75-.85-1.95-1.8-.55-2.75-1.25-7.36-4.46-7.36-2.35,0-3.71,2.45-3.71,6.36,0,7.06,4.46,10.92,8.62,10.92,3.06,0,5.01-1.55,6.46-2.61,.55-.4,.85-.55,1.25-.55,.8,0,1.25,.75,1.25,1.35,0,.45-.15,.95-.4,1.55-1.2,2.75-5.41,6.66-12.98,6.66-8.12,0-14.23-5.11-14.23-13.23Z"/><path class="cls-2" d="M188.57,121.71c0,1.7-2.6,4.71-7.77,4.71-2.35,0-4.51-1.1-5.86-3.16-1.8,1.5-5.06,3.36-9.42,3.36-5.76,0-9.22-3.26-9.22-7.92s3.76-8.32,10.77-8.32c2.35,0,4.21,.3,5.46,.65l-.05-.5c-.45-3.26-2.4-4.91-4.91-4.91-2.2,0-3.86,.65-5.26,1.25-.9,.4-1.75,.85-2.4,.85-.7,0-1.5-.6-1.5-1.65,0-1.25,1.25-2.51,2.15-3.21,2.25-1.75,5.56-2.96,10.12-2.96,6.11,0,10.47,2.36,11.27,8.32l1.1,8.07c.4,2.96,1.55,3.66,4.46,4.21,.55,.1,1.05,.5,1.05,1.2Zm-14.78-1.7l-.75-5.36c-.6-.15-1.45-.25-2.5-.25-2.4,0-4.31,.9-4.31,3.21s1.65,3.66,3.71,3.66c1.5,0,3.01-.65,3.86-1.25Z"/><path class="cls-2" d="M222.64,121.76c0,1.5-1.5,2.1-6.01,3.61-3.61,1.2-4.51,1.4-5.06,1.4-1.7,0-1.9-1.65-1.9-2.96v-1.95c-1.9,2.8-4.96,5.06-9.42,5.06-6.36,0-11.37-4.81-11.37-13.03s6.06-14.08,13.98-14.08c2.86,0,5.11,.75,6.81,2.05v-4.41c0-3.26-3.76-1.9-3.76-4.51,0-1.3,1.55-2,6.26-3.86,3.96-1.55,4.66-1.55,5.31-1.55,1.55,0,1.9,1.35,1.9,2.86v26.7c0,3.26,3.26,2.46,3.26,4.66Zm-12.98-7.97v-.7c0-4.61-2.35-8.67-5.91-8.67-2.56,0-4.56,2.15-4.56,6.76,0,5.51,2.76,9.17,5.76,9.17s4.71-2.86,4.71-6.56Z"/><path class="cls-2" d="M255.98,112.28c0,10.45-7.09,16.18-15.85,16.18s-15.85-5.74-15.85-16.18c0-16.12,8.89-24.74,15.85-24.74s15.85,8.62,15.85,24.74Z"/><circle class="cls-1" cx="240.13" cy="111.22" r="6.79"/></g></g></g></svg>