<?xml version="1.0" encoding="UTF-8"?><svg id="Layer_2" xmlns="http://www.w3.org/2000/svg" viewBox="0 0 288 216"><defs><style>.cls-1{fill:#00010c;}.cls-2{fill:#007d75;}.cls-3{fill:#fff;}.cls-4{fill:#fefefe;}.cls-5{fill:#bbbdc0;}.cls-6{fill:#153640;}.cls-7{fill:#0ca39a;}</style></defs><g id="Layer_1-2"><g><rect class="cls-3" width="288" height="216"/><g><g><g><path class="cls-6" d="M240.96,62.68c-14.96,41.11-29.92,82.21-44.88,123.32-.53,.9-1.24,1.6-2.22,2-1.19,.49-2.34,.31-3.52-.12-26.92-9.81-53.85-19.6-80.77-29.4-.21-.08-.43-.16-.64-.25-2.23-.97-3.19-3.19-2.36-5.46,14.83-40.74,29.65-81.47,44.48-122.21,.1-.28,.21-.56,.37-.81,1.05-1.61,2.55-2.24,4.43-1.99,27.72,10.09,55.44,20.18,83.16,30.27,1.58,1.16,2.28,2.68,1.95,4.64Zm-84.99-28.75c-14.51,39.86-28.99,79.65-43.47,119.44,26.31,9.58,52.58,19.14,78.85,28.7,14.5-39.84,28.98-79.62,43.47-119.44-26.3-9.57-52.55-19.13-78.85-28.7Z"/><path class="cls-7" d="M155.98,33.93c26.3,9.57,52.55,19.13,78.85,28.7-14.49,39.82-28.97,79.6-43.47,119.44-26.27-9.56-52.54-19.12-78.85-28.7,14.48-39.79,28.96-79.58,43.47-119.44Zm13.89,57.74c-.31,.86-.57,1.74-.95,2.56-.46,.98-1.28,1.49-2.38,1.36-.58-.07-1.15-.26-1.7-.47-1.82-.73-3.67-1.37-5.61-1.7-5.08-.85-9.95-.17-14.53,2.19-6.63,3.41-10.75,8.82-12.34,16.07-1.27,5.76-.43,11.3,2.54,16.42,3.77,6.5,9.45,10.38,16.81,11.68,5.55,.98,10.8-.12,15.63-3,5.52-3.29,9.11-8.08,10.71-14.33,.22-.85,.71-1.45,1.5-1.84,.97-.47,1.86-.19,2.74,.25,1.52,.75,3.13,1.24,4.78,1.6,5.46,1.17,10.72,.53,15.65-2.07,7.09-3.74,11.23-9.66,12.44-17.58,1.91-12.53-6.77-24.41-19.32-26.51-12.13-2.03-22.78,5.49-25.97,15.37Z"/><path class="cls-4" d="M169.87,91.68c3.2-9.89,13.84-17.41,25.97-15.37,12.55,2.1,21.24,13.98,19.32,26.51-1.21,7.92-5.34,13.84-12.44,17.58-4.93,2.6-10.19,3.24-15.65,2.07-1.65-.35-3.26-.85-4.78-1.6-.88-.43-1.77-.72-2.74-.25-.79,.38-1.28,.99-1.5,1.84-1.6,6.25-5.19,11.03-10.71,14.33-4.83,2.88-10.08,3.98-15.63,3-7.36-1.29-13.05-5.18-16.81-11.68-2.97-5.12-3.81-10.66-2.54-16.42,1.59-7.25,5.71-12.66,12.34-16.07,4.58-2.36,9.45-3.04,14.53-2.19,1.94,.33,3.79,.97,5.61,1.7,.54,.22,1.12,.4,1.7,.47,1.09,.13,1.92-.38,2.38-1.36,.38-.82,.64-1.7,.95-2.56Zm36.03,7.15c.04-.32,.08-.54,.09-.77,.06-1.3-.24-2.53-.76-3.71-.98-2.22-2.51-4.01-4.43-5.46-2.99-2.26-6.34-3.4-10.11-2.82-5.42,.82-10.76,4.77-11.78,12.12-.07,.49-.27,.7-.68,.89-1.62,.74-3.22,1.51-4.82,2.28-2.82,1.34-5.64,2.68-8.46,4.03-.26,.12-.44,.1-.69-.05-1.9-1.1-3.88-2.02-6.01-2.55-2.29-.57-4.59-.69-6.88-.03-6.24,1.8-11.25,8.23-10.17,15.9,.88,6.24,5.64,11.08,11.91,12.07,3.81,.6,7.4-.1,10.57-2.41,2.33-1.7,3.76-4.08,4.69-6.74,.6-1.71,.97-3.51,1.38-5.28,.1-.43,.25-.66,.65-.84,4.04-1.87,8.06-3.75,12.09-5.63,.16-.08,.33-.14,.48-.2,7.67,6.41,15.84,3.6,19.54-.65l-9.93-3.61c1.23-3.38,2.43-6.69,3.65-10.04,3.21,1.17,6.38,2.32,9.66,3.52Z"/><path class="cls-7" d="M205.89,98.82c-3.29-1.2-6.45-2.35-9.66-3.52-1.22,3.35-2.42,6.66-3.65,10.04l9.93,3.61c-3.7,4.24-11.88,7.06-19.54,.65-.15,.06-.32,.12-.48,.2-4.03,1.88-8.06,3.76-12.09,5.63-.39,.18-.55,.41-.65,.84-.41,1.77-.78,3.57-1.38,5.28-.93,2.66-2.37,5.04-4.69,6.74-3.17,2.31-6.76,3.01-10.57,2.41-6.28-.98-11.03-5.82-11.91-12.07-1.08-7.67,3.93-14.1,10.17-15.9,2.29-.66,4.59-.54,6.88,.03,2.14,.54,4.12,1.45,6.01,2.55,.25,.14,.43,.17,.69,.05,2.82-1.35,5.64-2.69,8.46-4.03,1.61-.76,3.21-1.53,4.82-2.28,.41-.19,.61-.4,.68-.89,1.02-7.35,6.36-11.3,11.78-12.12,3.77-.57,7.11,.56,10.11,2.82,1.92,1.45,3.45,3.23,4.43,5.46,.52,1.18,.82,2.41,.76,3.71,0,.22-.05,.44-.09,.77Zm-56.73,14.74c-.03,.25-.05,.41-.06,.57-.15,1.74-.29,3.49-.47,5.23-.05,.51,.06,.83,.51,1.12,1.44,.95,2.86,1.94,4.25,2.96,.46,.34,.83,.32,1.3,.11,1.85-.82,3.71-1.62,5.58-2.41,.31-.13,.39-.29,.41-.6,.15-1.97,.33-3.94,.51-5.91,.03-.34-.08-.54-.36-.74-1.64-1.14-3.28-2.29-4.91-3.45-.24-.17-.43-.18-.68-.05-1.91,.97-3.82,1.92-5.73,2.89-.15,.08-.27,.2-.36,.27Z"/><path class="cls-4" d="M149.16,113.56c.09-.07,.21-.2,.36-.27,1.91-.97,3.82-1.92,5.73-2.89,.25-.13,.43-.12,.68,.05,1.63,1.16,3.26,2.31,4.91,3.45,.28,.19,.39,.4,.36,.74-.18,1.97-.35,3.94-.51,5.91-.02,.31-.11,.48-.41,.6-1.87,.78-3.73,1.59-5.58,2.41-.47,.21-.84,.23-1.3-.11-1.39-1.03-2.81-2.01-4.25-2.96-.45-.3-.56-.61-.51-1.12,.18-1.74,.32-3.49,.47-5.23,.01-.16,.03-.32,.06-.57Z"/></g><g><path class="cls-6" d="M141.86,170.24h0c-10.76-3.92-21.53-7.84-32.29-11.76,10.76,3.92,21.53,7.84,32.29,11.76Z"/><path class="cls-1" d="M112.5,153.37c12.1-33.24,24.2-66.48,36.31-99.76-1.02-2.82-2.05-5.63-3.07-8.45-13.06,35.87-26.11,71.74-39.17,107.61-.83,2.27,.14,4.49,2.36,5.46,.21,.09,.42,.17,.64,.25,10.76,3.92,21.53,7.84,32.29,11.76,2.83-1.03,5.66-2.06,8.49-3.09-12.61-4.59-25.22-9.18-37.85-13.78Z"/><path class="cls-2" d="M150.35,167.15c10.22-3.72,20.44-7.44,30.67-11.16,1.17-.43,2.17-1.03,2.77-2.17,.5-.94,.59-1.93,.42-2.96-2.77-7.61-5.54-15.22-8.31-22.84-1.95,3.6-4.8,6.53-8.55,8.76-4.83,2.88-10.08,3.98-15.63,3-7.36-1.29-13.05-5.18-16.81-11.68-2.97-5.12-3.81-10.66-2.54-16.42,1.59-7.25,5.71-12.66,12.34-16.07,4.58-2.36,9.45-3.04,14.53-2.19,1.56,.26,3.06,.73,4.54,1.29-4.99-13.7-9.97-27.4-14.96-41.09-12.11,33.28-24.21,66.52-36.31,99.76,12.63,4.6,25.24,9.19,37.85,13.78Z"/><path class="cls-5" d="M170.39,115.44c-.39,.18-.55,.41-.65,.84-.41,1.77-.78,3.57-1.38,5.28-.93,2.66-2.37,5.04-4.69,6.74-3.17,2.31-6.76,3.01-10.57,2.41-6.28-.98-11.03-5.82-11.91-12.07-1.08-7.67,3.93-14.1,10.17-15.9,2.29-.66,4.59-.54,6.88,.03,2.14,.54,4.12,1.45,6.01,2.55,.25,.14,.43,.17,.69,.05,.77-.37,1.54-.73,2.31-1.1-1.16-3.19-2.32-6.38-3.48-9.56-1.48-.55-2.98-1.02-4.54-1.29-5.08-.85-9.95-.17-14.53,2.19-6.63,3.41-10.75,8.82-12.34,16.07-1.27,5.76-.43,11.3,2.54,16.42,3.77,6.5,9.45,10.38,16.81,11.68,5.55,.98,10.8-.12,15.63-3,3.75-2.24,6.6-5.16,8.55-8.76-1.57-4.32-3.14-8.63-4.71-12.95-.26,.12-.53,.25-.79,.37Z"/><path class="cls-2" d="M164.25,105.33c-1.9-1.1-3.88-2.02-6.01-2.55-2.29-.57-4.59-.69-6.88-.03-6.24,1.8-11.25,8.23-10.17,15.9,.88,6.24,5.64,11.08,11.91,12.07,3.81,.6,7.4-.1,10.57-2.41,2.33-1.7,3.76-4.08,4.69-6.74,.6-1.71,.97-3.51,1.38-5.28,.1-.43,.25-.66,.65-.84,.26-.12,.53-.25,.79-.37-1.31-3.6-2.62-7.2-3.93-10.8-.77,.37-1.54,.73-2.31,1.1-.26,.12-.44,.1-.69-.05Zm-3.56,15.22c-.02,.31-.11,.48-.41,.6-1.87,.78-3.73,1.59-5.58,2.41-.47,.21-.84,.23-1.3-.11-1.39-1.03-2.81-2.01-4.25-2.96-.45-.3-.56-.61-.51-1.12,.18-1.74,.32-3.49,.47-5.23,.01-.16,.03-.32,.06-.57,.09-.07,.21-.2,.36-.27,1.91-.97,3.82-1.92,5.73-2.89,.25-.13,.43-.12,.68,.05,1.63,1.16,3.26,2.31,4.91,3.45,.28,.19,.39,.4,.36,.74-.18,1.97-.35,3.94-.51,5.91Z"/></g></g><g><path class="cls-6" d="M136.75,30.02c14.96,41.11,29.92,82.21,44.88,123.32,.17,1.03,.08,2.02-.42,2.96-.6,1.14-1.59,1.75-2.77,2.17-26.93,9.79-53.85,19.59-80.77,29.39-.21,.08-.43,.16-.65,.22-2.33,.69-4.49-.39-5.32-2.66-14.83-40.74-29.65-81.47-44.48-122.21-.1-.28-.2-.56-.24-.85-.24-1.91,.51-3.35,2.12-4.38,27.72-10.09,55.44-20.18,83.16-30.27,1.95-.13,3.47,.59,4.48,2.3ZM53.17,62.63c14.51,39.86,28.99,79.65,43.47,119.44,26.31-9.58,52.58-19.14,78.85-28.7-14.5-39.84-28.98-79.62-43.47-119.44-26.3,9.57-52.55,19.13-78.85,28.7Z"/><path class="cls-7" d="M53.17,62.63c26.3-9.57,52.55-19.13,78.85-28.7,14.49,39.82,28.97,79.6,43.47,119.44-26.27,9.56-52.54,19.12-78.85,28.7-14.48-39.79-28.96-79.58-43.47-119.44Zm47.76,35.31c.31,.86,.68,1.69,.92,2.57,.28,1.04-.03,1.97-.95,2.57-.49,.32-1.05,.55-1.6,.73-1.87,.61-3.7,1.31-5.39,2.31-4.44,2.61-7.73,6.27-9.72,11.02-2.89,6.87-2.56,13.67,.88,20.24,2.74,5.23,6.94,8.93,12.5,10.95,7.06,2.56,13.91,1.88,20.38-1.86,4.88-2.82,8.2-7.03,10.04-12.34,2.11-6.07,1.78-12.04-1.01-17.86-.38-.79-.39-1.57-.03-2.37,.44-.99,1.3-1.34,2.26-1.58,1.65-.41,3.2-1.06,4.69-1.85,4.94-2.61,8.55-6.48,10.66-11.64,3.03-7.42,2.39-14.62-1.77-21.46-6.59-10.83-20.87-14.34-31.84-7.89-10.6,6.24-13.92,18.84-10.01,28.47Z"/><path class="cls-4" d="M100.93,97.93c-3.91-9.63-.59-22.23,10.01-28.47,10.97-6.46,25.26-2.94,31.84,7.89,4.16,6.84,4.8,14.04,1.77,21.46-2.11,5.16-5.72,9.03-10.66,11.64-1.5,.79-3.04,1.44-4.69,1.85-.96,.24-1.82,.59-2.26,1.58-.36,.8-.35,1.58,.03,2.37,2.79,5.81,3.12,11.79,1.01,17.86-1.85,5.31-5.17,9.53-10.04,12.34-6.47,3.74-13.32,4.42-20.38,1.86-5.56-2.01-9.77-5.72-12.5-10.95-3.44-6.58-3.76-13.37-.88-20.24,2-4.75,5.28-8.41,9.72-11.02,1.7-1,3.53-1.69,5.39-2.31,.56-.18,1.12-.41,1.6-.73,.92-.6,1.23-1.53,.95-2.57-.23-.88-.61-1.71-.92-2.57Zm32.19-17.68c-.18-.27-.29-.47-.43-.64-.79-1.03-1.81-1.78-2.97-2.36-2.18-1.08-4.5-1.46-6.9-1.33-3.75,.19-7.04,1.47-9.56,4.33-3.62,4.12-5.18,10.57-1.24,16.86,.26,.42,.24,.71,.05,1.12-.76,1.61-1.49,3.23-2.23,4.84-1.3,2.84-2.6,5.68-3.89,8.52-.12,.26-.27,.36-.56,.41-2.16,.37-4.27,.95-6.25,1.91-2.12,1.03-3.96,2.42-5.29,4.4-3.63,5.39-3.33,13.54,2.43,18.72,4.68,4.22,11.44,4.87,16.88,1.59,3.3-1.99,5.61-4.84,6.55-8.64,.69-2.8,.26-5.54-.73-8.18-.64-1.7-1.51-3.31-2.33-4.93-.2-.39-.23-.67-.04-1.06,1.89-4.02,3.76-8.06,5.64-12.09,.08-.16,.17-.32,.24-.46,9.99-.02,14.45-7.43,14.55-13.06-3.33,1.21-6.63,2.41-9.93,3.61l-3.65-10.04c3.21-1.17,6.38-2.32,9.66-3.52Z"/><path class="cls-7" d="M133.12,80.25c-3.29,1.2-6.45,2.35-9.66,3.52l3.65,10.04c3.3-1.2,6.6-2.4,9.93-3.61-.11,5.63-4.56,13.04-14.55,13.06-.08,.14-.17,.3-.24,.46-1.88,4.03-3.75,8.06-5.64,12.09-.18,.39-.16,.66,.04,1.06,.82,1.62,1.69,3.24,2.33,4.93,1,2.64,1.43,5.38,.73,8.18-.94,3.81-3.25,6.65-6.55,8.64-5.44,3.28-12.2,2.63-16.88-1.59-5.75-5.18-6.05-13.33-2.43-18.72,1.33-1.98,3.17-3.37,5.29-4.4,1.98-.96,4.09-1.54,6.25-1.91,.28-.05,.44-.15,.56-.41,1.29-2.84,2.59-5.68,3.89-8.52,.74-1.62,1.47-3.24,2.23-4.84,.19-.4,.21-.7-.05-1.12-3.94-6.29-2.39-12.74,1.24-16.86,2.52-2.86,5.81-4.14,9.56-4.33,2.4-.12,4.72,.26,6.9,1.33,1.16,.57,2.18,1.32,2.97,2.36,.13,.18,.25,.37,.43,.64Zm-33.98,47.76c.14,.21,.23,.34,.32,.47,1,1.43,2.02,2.86,3,4.31,.29,.43,.58,.59,1.11,.53,1.72-.19,3.44-.36,5.16-.46,.57-.03,.84-.29,1.07-.75,.89-1.82,1.8-3.63,2.73-5.43,.15-.3,.11-.47-.07-.73-1.15-1.61-2.28-3.23-3.41-4.86-.19-.28-.41-.36-.75-.33-1.99,.18-3.98,.36-5.98,.51-.3,.02-.44,.14-.55,.4-.84,1.97-1.69,3.93-2.53,5.9-.07,.15-.08,.33-.1,.44Z"/><path class="cls-4" d="M99.14,128.01c.02-.11,.03-.28,.1-.44,.84-1.97,1.69-3.93,2.53-5.9,.11-.26,.25-.37,.55-.4,1.99-.15,3.99-.33,5.98-.51,.33-.03,.55,.06,.75,.33,1.13,1.63,2.26,3.25,3.41,4.86,.18,.25,.22,.43,.07,.73-.93,1.8-1.83,3.61-2.73,5.43-.23,.46-.5,.72-1.07,.75-1.72,.1-3.44,.27-5.16,.46-.53,.06-.82-.1-1.11-.53-.98-1.45-2-2.87-3-4.31-.09-.13-.18-.26-.32-.47Z"/></g></g></g></g></svg>