<?xml version="1.0" encoding="UTF-8"?><svg id="Layer_2" xmlns="http://www.w3.org/2000/svg" viewBox="0 0 288 216"><defs><style>.cls-1{fill:#001a00;}.cls-2{fill:#fff;}.cls-3{fill:#fff5e4;}.cls-4{fill:#806a50;}.cls-5{fill:#a09b93;}.cls-6{fill:#1e432a;}.cls-7{fill:#231f20;}.cls-8{fill:#0b311a;}.cls-9{fill:#3f3120;}.cls-10{fill:#808285;}.cls-11{fill:#5c5d60;}.cls-12{fill:#393839;}</style></defs><g id="Layer_1-2"><g><rect class="cls-2" width="288" height="216"/><g><path class="cls-1" d="M50.85,100.09l5.98,1.77,1.04,27.06-11.13-7.71-1.16-15.85c0-2.91,2.36-5.27,5.27-5.27Z"/><path class="cls-1" d="M237.15,100.09l-5.98,1.77-1.04,27.06,11.13-7.71,1.16-15.85c0-2.91-2.36-5.27-5.27-5.27Z"/><path class="cls-6" d="M237.9,99.88h-6.65l.76-19.72H55.99l.76,19.72h-6.65c-2.72,0-4.94,2.22-4.94,4.94v12.77c0,2.72,2.22,4.94,4.94,4.94h7.51v-.35l1.94,50.34H228.45l1.94-50.34v.35h7.51c2.72,0,4.94-2.22,4.94-4.94v-12.77c0-2.72-2.22-4.94-4.94-4.94ZM50.1,120.55c-1.63,0-2.96-1.33-2.96-2.96v-12.77c0-1.63,1.33-2.96,2.96-2.96h6.73l.72,18.7h-7.45Zm190.76-2.96c0,1.63-1.33,2.96-2.96,2.96h-7.45l.72-18.7h6.73c1.63,0,2.96,1.33,2.96,2.96v12.77Z"/><polygon class="cls-8" points="226.24 137.6 61.76 137.6 61.51 131.18 226.49 131.18 226.24 137.6"/><polygon class="cls-8" points="227.2 112.6 60.8 112.6 60.55 106.19 227.45 106.19 227.2 112.6"/><path class="cls-1" d="M221.34,134.22c-.05-.23-.11-.46-.17-.69,0-.02,0-.03-.01-.05,0-.02,0-.03-.01-.05,0-.02,0-.03-.01-.05,0-.02,0-.03-.01-.05,0-.02,0-.03-.01-.05,0-.02,0-.03-.01-.05,0-.02,0-.03-.01-.05,0-.02,0-.03-.01-.05,0-.02,0-.03-.01-.05,0-.02,0-.03-.01-.05,0-.02,0-.03-.01-.05,0-.02,0-.03-.01-.05,0-.02,0-.03-.01-.05,0-.02,0-.03-.01-.05,0-.02,0-.03-.01-.05,0-.02,0-.03-.01-.05,0-.02,0-.03-.01-.05,0-.02,0-.03-.01-.05,0-.02,0-.03-.01-.05,0-.02,0-.03-.01-.05,0-.02,0-.03-.01-.05,0-.02,0-.03-.01-.05,0-.02,0-.03-.01-.05,0-.02,0-.03-.01-.05,0-.02,0-.03-.01-.05,0-.02,0-.03-.01-.05,0-.02,0-.03-.01-.05,0-.02,0-.03-.01-.05,0-.02,0-.03-.01-.05,0-.02,0-.03-.01-.05,0-.02,0-.03-.01-.05,0-.02,0-.03-.01-.05,0-.02,0-.03-.01-.05,0-.02,0-.03-.01-.05,0-.02,0-.03-.01-.05,0-.02,0-.03-.01-.05,0-.02,0-.03-.01-.05,0-.02,0-.03-.01-.05,0-.02,0-.03-.01-.05,0-.02,0-.03-.01-.05,0-.02,0-.03-.01-.05,0-.02,0-.03-.01-.05,0-.02,0-.03-.01-.05,0-.02,0-.03-.01-.05,0-.02,0-.03-.01-.05,0-.02,0-.03-.01-.05,0-.02,0-.03-.01-.05,0-.02,0-.03-.01-.05-.06-.23-.13-.46-.21-.68-.14-.42-.3-.83-.49-1.24-1.62-3.46-4.79-6.04-9.4-7.67h3.23c.43,0,.83-.24,1.04-.62,.16-.29,.18-.63,.08-.94,0-.02,0-.03-.01-.05,0-.02,0-.03-.01-.05,0-.02,0-.03-.01-.05,0-.02,0-.03-.01-.05,0-.02,0-.03-.01-.05,0-.02,0-.03-.01-.05,0-.02,0-.03-.01-.05,0-.02,0-.03-.01-.05,0-.02,0-.03-.01-.05,0-.02,0-.03-.01-.05,0-.02,0-.03-.01-.05,0-.02,0-.03-.01-.05,0-.02,0-.03-.01-.05,0-.02,0-.03-.01-.05,0-.02,0-.03-.01-.05,0-.02,0-.03-.01-.05,0-.02,0-.03-.01-.05,0-.02,0-.03-.01-.05,0-.02,0-.03-.01-.05,0-.02,0-.03-.01-.05,0-.02,0-.03-.01-.05,0-.02,0-.03-.01-.05,0-.02,0-.03-.01-.05,0-.02,0-.03-.01-.05,0-.02,0-.03-.01-.05,0-.02,0-.03-.01-.05,0-.02,0-.03-.01-.05,0-.02,0-.03-.01-.05,0-.02,0-.03-.01-.05,0-.02,0-.03-.01-.05,0-.02,0-.03-.01-.05,0-.02,0-.03-.01-.05,0-.02,0-.03-.01-.05,0-.02,0-.03-.01-.05,0-.02,0-.03-.01-.05,0-.02,0-.03-.01-.05,0-.02,0-.03-.01-.05,0-.02,0-.03-.01-.05,0-.02,0-.03-.01-.05,0-.02,0-.03-.01-.05,0-.02,0-.03-.01-.05,0-.02,0-.03-.01-.05,0-.02,0-.03-.01-.05,0-.02,0-.03-.01-.05,0-.02,0-.03-.01-.05,0-.02,0-.03-.01-.05,0-.02,0-.03-.01-.05,0-.02,0-.03-.01-.05,0-.02,0-.03-.01-.05,0-.02,0-.03-.01-.05-.03-.11-.08-.22-.14-.32l-2.18-3.34c.72-.9,1.1-2.11,1.1-3.57v-2.82c0-.66-.07-1.26-.22-1.81,0-.02,0-.03-.01-.05,0-.02,0-.03-.01-.05,0-.02,0-.03-.01-.05,0-.02,0-.03-.01-.05,0-.02,0-.03-.01-.05,0-.02,0-.03-.01-.05,0-.02,0-.03-.01-.05,0-.02,0-.03-.01-.05,0-.02,0-.03-.01-.05,0-.02,0-.03-.01-.05,0-.02,0-.03-.01-.05,0-.02,0-.03-.01-.05,0-.02,0-.03-.01-.05,0-.02,0-.03-.01-.05,0-.02,0-.03-.01-.05,0-.02,0-.03-.01-.05,0-.02,0-.03-.01-.05,0-.02,0-.03-.01-.05,0-.02,0-.03-.01-.05,0-.02,0-.03-.01-.05,0-.02,0-.03-.01-.05,0-.02,0-.03-.01-.05,0-.02,0-.03-.01-.05,0-.02,0-.03-.01-.05,0-.02,0-.03-.01-.05,0-.02,0-.03-.01-.05,0-.02,0-.03-.01-.05,0-.02,0-.03-.01-.05,0-.02,0-.03-.01-.05,0-.02,0-.03-.01-.05,0-.02,0-.03-.01-.05,0-.02,0-.03-.01-.05,0-.02,0-.03-.01-.05,0-.02,0-.03-.01-.05,0-.02,0-.03-.01-.05,0-.02,0-.03-.01-.05,0-.02,0-.03-.01-.05,0-.02,0-.03-.01-.05,0-.02,0-.03-.01-.05,0-.02,0-.03-.01-.05,0-.02,0-.03-.01-.05,0-.02,0-.03-.01-.05,0-.02,0-.03-.01-.05,0-.02,0-.03-.01-.05,0-.02,0-.03-.01-.05,0-.02,0-.03-.01-.05,0-.02,0-.03-.01-.05,0-.02,0-.03-.01-.05,0-.02,0-.03-.01-.05,0-.02,0-.03-.01-.05-.59-2.33-2.43-3.63-5.25-3.63h-9.52c-.65,0-1.18,.53-1.18,1.18v17.06c0,.1,.02,.19,.04,.28,0,.02,0,.03,.01,.05,0,.02,0,.03,.01,.05,0,.02,0,.03,.01,.05,0,.02,0,.03,.01,.05,0,.02,0,.03,.01,.05,0,.02,0,.03,.01,.05,0,.02,0,.03,.01,.05,0,.02,0,.03,.01,.05,0,.02,0,.03,.01,.05,0,.02,0,.03,.01,.05,0,.02,0,.03,.01,.05,0,.02,0,.03,.01,.05,0,.02,0,.03,.01,.05,0,.02,0,.03,.01,.05,0,.02,0,.03,.01,.05,0,.02,0,.03,.01,.05,0,.02,0,.03,.01,.05,0,.02,0,.03,.01,.05,0,.02,0,.03,.01,.05,0,.02,0,.03,.01,.05,0,.02,0,.03,.01,.05,0,.02,0,.03,.01,.05,0,.02,0,.03,.01,.05,0,.02,0,.03,.01,.05,0,.02,0,.03,.01,.05,0,.02,0,.03,.01,.05,0,.02,0,.03,.01,.05,0,.02,0,.03,.01,.05,0,.02,0,.03,.01,.05,0,0,0,0,0,0-.27,0-.54,.01-.82,.02v-3.29c0-.1-.02-.19-.04-.28,0-.02,0-.03-.01-.05,0-.02,0-.03-.01-.05,0-.02,0-.03-.01-.05,0-.02,0-.03-.01-.05,0-.02,0-.03-.01-.05,0-.02,0-.03-.01-.05,0-.02,0-.03-.01-.05,0-.02,0-.03-.01-.05,0-.02,0-.03-.01-.05,0-.02,0-.03-.01-.05,0-.02,0-.03-.01-.05,0-.02,0-.03-.01-.05,0-.02,0-.03-.01-.05,0-.02,0-.03-.01-.05,0-.02,0-.03-.01-.05,0-.02,0-.03-.01-.05,0-.02,0-.03-.01-.05,0-.02,0-.03-.01-.05,0-.02,0-.03-.01-.05,0-.02,0-.03-.01-.05,0-.02,0-.03-.01-.05,0-.02,0-.03-.01-.05,0-.02,0-.03-.01-.05,0-.02,0-.03-.01-.05,0-.02,0-.03-.01-.05,0-.02,0-.03-.01-.05,0-.02,0-.03-.01-.05,0-.02,0-.03-.01-.05,0-.02,0-.03-.01-.05,0-.02,0-.03-.01-.05,0-.02,0-.03-.01-.05,0-.02,0-.03-.01-.05,0-.02,0-.03-.01-.05,0-.02,0-.03-.01-.05,0-.02,0-.03-.01-.05,0-.02,0-.03-.01-.05,0-.02,0-.03-.01-.05,0-.02,0-.03-.01-.05,0-.02,0-.03-.01-.05,0-.02,0-.03-.01-.05,0-.02,0-.03-.01-.05,0-.02,0-.03-.01-.05,0-.02,0-.03-.01-.05,0-.02,0-.03-.01-.05,0-.02,0-.03-.01-.05,0-.02,0-.03-.01-.05,0-.02,0-.03-.01-.05,0-.02,0-.03-.01-.05,0-.02,0-.03-.01-.05,0-.02,0-.03-.01-.05-.04-.2-.14-.39-.27-.54v-3.42c0-.13-.02-.25-.06-.36,0-.02,0-.03-.01-.05,0-.02,0-.03-.01-.05,0-.02,0-.03-.01-.05,0-.02,0-.03-.01-.05,0-.02,0-.03-.01-.05,0-.02,0-.03-.01-.05,0-.02,0-.03-.01-.05,0-.02,0-.03-.01-.05,0-.02,0-.03-.01-.05,0-.02,0-.03-.01-.05,0-.02,0-.03-.01-.05,0-.02,0-.03-.01-.05,0-.02,0-.03-.01-.05,0-.02,0-.03-.01-.05,0-.01,0-.02,0-.03h.08c.65,0,1.18-.53,1.18-1.18v-4.06c0-.1-.02-.19-.04-.28,0-.02,0-.03-.01-.05,0-.02,0-.03-.01-.05,0-.02,0-.03-.01-.05,0-.02,0-.03-.01-.05,0-.02,0-.03-.01-.05,0-.02,0-.03-.01-.05,0-.02,0-.03-.01-.05,0-.02,0-.03-.01-.05,0-.02,0-.03-.01-.05,0-.02,0-.03-.01-.05,0-.02,0-.03-.01-.05,0-.02,0-.03-.01-.05,0-.02,0-.03-.01-.05,0-.02,0-.03-.01-.05,0-.02,0-.03-.01-.05,0-.02,0-.03-.01-.05,0-.02,0-.03-.01-.05,0-.02,0-.03-.01-.05,0-.02,0-.03-.01-.05,0-.02,0-.03-.01-.05,0-.02,0-.03-.01-.05,0-.02,0-.03-.01-.05,0-.02,0-.03-.01-.05,0-.02,0-.03-.01-.05,0-.02,0-.03-.01-.05,0-.02,0-.03-.01-.05,0-.02,0-.03-.01-.05,0-.02,0-.03-.01-.05,0-.02,0-.03-.01-.05,0-.02,0-.03-.01-.05,0-.02,0-.03-.01-.05,0-.02,0-.03-.01-.05,0-.02,0-.03-.01-.05,0-.02,0-.03-.01-.05,0-.02,0-.03-.01-.05,0-.02,0-.03-.01-.05,0-.02,0-.03-.01-.05,0-.02,0-.03-.01-.05,0-.02,0-.03-.01-.05,0-.02,0-.03-.01-.05,0-.02,0-.03-.01-.05,0-.02,0-.03-.01-.05,0-.02,0-.03-.01-.05,0-.02,0-.03-.01-.05,0-.02,0-.03-.01-.05,0-.02,0-.03-.01-.05,0-.02,0-.03-.01-.05,0-.02,0-.03-.01-.05,0-.02,0-.03-.01-.05,0-.02,0-.03-.01-.05-.11-.54-.59-.95-1.16-.95h-12.17c-.65,0-1.18,.53-1.18,1.18v1.16s0-.02,0-.03c0-.02,0-.03-.01-.05,0-.02,0-.03-.01-.05,0-.02,0-.03-.01-.05,0-.02,0-.03-.01-.05,0-.02,0-.03-.01-.05,0-.02,0-.03-.01-.05,0-.02,0-.03-.01-.05,0-.02,0-.03-.01-.05,0-.02,0-.03-.01-.05,0-.02,0-.03-.01-.05,0-.02,0-.03-.01-.05,0-.02,0-.03-.01-.05,0-.02,0-.03-.01-.05,0-.02,0-.03-.01-.05,0-.02,0-.03-.01-.05,0-.02,0-.03-.01-.05,0-.02,0-.03-.01-.05,0-.02,0-.03-.01-.05,0-.02,0-.03-.01-.05,0-.02,0-.03-.01-.05,0-.02,0-.03-.01-.05,0-.02,0-.03-.01-.05,0-.02,0-.03-.01-.05,0-.02,0-.03-.01-.05,0-.02,0-.03-.01-.05,0-.02,0-.03-.01-.05,0-.02,0-.03-.01-.05,0-.02,0-.03-.01-.05-.11-.54-.59-.95-1.16-.95h-14.08c-.65,0-1.18,.53-1.18,1.18v3.23s0,0,0,0c0-.02,0-.03-.01-.05,0-.02,0-.03-.01-.05,0-.02,0-.03-.01-.05,0-.02,0-.03-.01-.05,0-.02,0-.03-.01-.05,0-.02,0-.03-.01-.05,0-.02,0-.03-.01-.05,0-.02,0-.03-.01-.05,0-.02,0-.03-.01-.05,0-.02,0-.03-.01-.05,0-.02,0-.03-.01-.05,0-.02,0-.03-.01-.05,0-.02,0-.03-.01-.05,0-.02,0-.03-.01-.05,0-.02,0-.03-.01-.05,0-.02,0-.03-.01-.05,0-.02,0-.03-.01-.05,0-.02,0-.03-.01-.05,0-.02,0-.03-.01-.05,0-.02,0-.03-.01-.05,0-.02,0-.03-.01-.05-.59-2.33-2.43-3.63-5.25-3.63h-5.58c-3.44,0-5.43,1.94-5.45,5.32,0-.01,0-.02-.01-.04,0-.02,0-.03-.01-.05,0-.02,0-.03-.01-.05,0-.02,0-.03-.01-.05,0-.02,0-.03-.01-.05,0-.02,0-.03-.01-.05,0-.02,0-.03-.01-.05,0-.02,0-.03-.01-.05,0-.02,0-.03-.01-.05,0-.02,0-.03-.01-.05,0-.02,0-.03-.01-.05,0-.02,0-.03-.01-.05,0-.02,0-.03-.01-.05,0-.02,0-.03-.01-.05,0-.02,0-.03-.01-.05,0-.02,0-.03-.01-.05,0-.02,0-.03-.01-.05,0-.02,0-.03-.01-.05,0-.02,0-.03-.01-.05,0-.02,0-.03-.01-.05,0-.02,0-.03-.01-.05,0-.02,0-.03-.01-.05,0-.02,0-.03-.01-.05,0-.02,0-.03-.01-.05,0-.02,0-.03-.01-.05,0-.02,0-.03-.01-.05,0-.02,0-.03-.01-.05,0-.02,0-.03-.01-.05,0-.02,0-.03-.01-.05,0-.02,0-.03-.01-.05-.59-2.33-2.43-3.63-5.25-3.63h-9.45c-.65,0-1.18,.53-1.18,1.18v17.06c0,.1,.02,.19,.04,.28,0,.02,0,.03,.01,.05,0,.02,0,.03,.01,.05,0,.02,0,.03,.01,.05,0,.02,0,.03,.01,.05,0,.02,0,.03,.01,.05,0,.02,0,.03,.01,.05,0,.02,0,.03,.01,.05,0,.02,0,.03,.01,.05,0,.02,0,.03,.01,.05,0,.02,0,.03,.01,.05,0,.02,0,.03,.01,.05,0,.02,0,.03,.01,.05,0,.02,0,.03,.01,.05,0,.02,0,.03,.01,.05,0,.02,0,.03,.01,.05,0,.02,0,.03,.01,.05,0,.02,0,.03,.01,.05,0,.02,0,.03,.01,.05,0,.02,0,.03,.01,.05,0,.02,0,.03,.01,.05,0,.02,0,.03,.01,.05,0,.02,0,.03,.01,.05,0,.02,0,.03,.01,.05,0,.02,0,.03,.01,.05,0,.02,0,.03,.01,.05,0,.02,0,.03,.01,.05,0,.02,0,.03,.01,.05,0,.02,0,.03,.01,.05,0,.02,0,.03,.01,.05,0,.02,0,.03,.01,.05,0,.02,0,.03,.01,.05,0,.02,0,.03,.01,.05,0,.02,0,.03,.01,.05,0,.02,0,.03,.01,.05,0,.02,0,.03,.01,.05,0,.02,0,.03,.01,.05,0,.02,0,.03,.01,.05,0,.02,0,.03,.01,.05,0,.02,0,.03,.01,.05,0,.02,0,.03,.01,.05,0,.02,0,.03,.01,.05,0,.02,0,.03,.01,.05,0,.02,0,.03,.01,.05,0,.02,0,.03,.01,.05,0,.02,0,.03,.01,.05,0,.02,0,.03,.01,.05,0,.02,0,.03,.01,.05,0,0,0,0,0,.01-.48,0-.96,.02-1.45,.03,0-.04,.01-.09,.01-.13v-17.06c0-.1-.02-.19-.04-.28,0-.02,0-.03-.01-.05,0-.02,0-.03-.01-.05,0-.02,0-.03-.01-.05,0-.02,0-.03-.01-.05,0-.02,0-.03-.01-.05,0-.02,0-.03-.01-.05,0-.02,0-.03-.01-.05,0-.02,0-.03-.01-.05,0-.02,0-.03-.01-.05,0-.02,0-.03-.01-.05,0-.02,0-.03-.01-.05,0-.02,0-.03-.01-.05,0-.02,0-.03-.01-.05,0-.02,0-.03-.01-.05,0-.02,0-.03-.01-.05,0-.02,0-.03-.01-.05,0-.02,0-.03-.01-.05,0-.02,0-.03-.01-.05,0-.02,0-.03-.01-.05,0-.02,0-.03-.01-.05,0-.02,0-.03-.01-.05,0-.02,0-.03-.01-.05,0-.02,0-.03-.01-.05,0-.02,0-.03-.01-.05,0-.02,0-.03-.01-.05,0-.02,0-.03-.01-.05,0-.02,0-.03-.01-.05,0-.02,0-.03-.01-.05,0-.02,0-.03-.01-.05,0-.02,0-.03-.01-.05,0-.02,0-.03-.01-.05,0-.02,0-.03-.01-.05,0-.02,0-.03-.01-.05,0-.02,0-.03-.01-.05,0-.02,0-.03-.01-.05,0-.02,0-.03-.01-.05,0-.02,0-.03-.01-.05,0-.02,0-.03-.01-.05,0-.02,0-.03-.01-.05,0-.02,0-.03-.01-.05,0-.02,0-.03-.01-.05,0-.02,0-.03-.01-.05,0-.02,0-.03-.01-.05,0-.02,0-.03-.01-.05,0-.02,0-.03-.01-.05,0-.02,0-.03-.01-.05,0-.02,0-.03-.01-.05,0-.02,0-.03-.01-.05,0-.02,0-.03-.01-.05,0-.02,0-.03-.01-.05-.11-.54-.59-.95-1.16-.95h-4.6c-.41,0-.79,.21-1,.56l-3.32,5.3-3.34-5.3c-.22-.34-.6-.55-1-.55h-4.6c-.65,0-1.18,.53-1.18,1.18v17.06c0,.1,.02,.19,.04,.28,0,.02,0,.03,.01,.05,0,.02,0,.03,.01,.05,0,.02,0,.03,.01,.05,0,.02,0,.03,.01,.05,0,.02,0,.03,.01,.05,0,.02,0,.03,.01,.05,0,.02,0,.03,.01,.05,0,.02,0,.03,.01,.05,0,.02,0,.03,.01,.05,0,.02,0,.03,.01,.05,0,.02,0,.03,.01,.05,0,.02,0,.03,.01,.05,0,.02,0,.03,.01,.05,0,.02,0,.03,.01,.05,0,.02,0,.03,.01,.05,0,.02,0,.03,.01,.05,0,.02,0,.03,.01,.05,0,.02,0,.03,.01,.05,0,.02,0,.03,.01,.05,0,.02,0,.03,.01,.05,0,.02,0,.03,.01,.05,0,.02,0,.03,.01,.05,0,.02,0,.03,.01,.05,0,.02,0,.03,.01,.05,0,.02,0,.03,.01,.05,0,.02,0,.03,.01,.05,0,.02,0,.03,.01,.05,0,.02,0,.03,.01,.05,0,.02,0,.03,.01,.05,0,.02,0,.03,.01,.05,0,.02,0,.03,.01,.05,0,.02,0,.03,.01,.05,0,.02,0,.03,.01,.05,0,.02,0,.03,.01,.05,0,.02,0,.03,.01,.05,0,.02,0,.03,.01,.05,0,.02,0,.03,.01,.05,0,.02,0,.03,.01,.05,0,.02,0,.03,.01,.05,0,.02,0,.03,.01,.05,0,.02,0,.03,.01,.05,0,.02,0,.03,.01,.05,0,.02,0,.03,.01,.05,0,.02,0,.03,.01,.05,0,.02,0,.03,.01,.05,0,0,0,0,0,.01-.7-.02-1.4-.04-2.1-.06-.01,0-.03,0-.04,0-.29,0-.57,.11-.78,.3-.01-.01-.03-.02-.04-.03,1.07-.92,1.65-2.33,1.65-4.17v-13.1c0-.1-.02-.19-.04-.28,0-.02,0-.03-.01-.05,0-.02,0-.03-.01-.05,0-.02,0-.03-.01-.05,0-.02,0-.03-.01-.05,0-.02,0-.03-.01-.05,0-.02,0-.03-.01-.05,0-.02,0-.03-.01-.05,0-.02,0-.03-.01-.05,0-.02,0-.03-.01-.05,0-.02,0-.03-.01-.05,0-.02,0-.03-.01-.05,0-.02,0-.03-.01-.05,0-.02,0-.03-.01-.05,0-.02,0-.03-.01-.05,0-.02,0-.03-.01-.05,0-.02,0-.03-.01-.05,0-.02,0-.03-.01-.05,0-.02,0-.03-.01-.05,0-.02,0-.03-.01-.05,0-.02,0-.03-.01-.05,0-.02,0-.03-.01-.05,0-.02,0-.03-.01-.05,0-.02,0-.03-.01-.05,0-.02,0-.03-.01-.05,0-.02,0-.03-.01-.05,0-.02,0-.03-.01-.05,0-.02,0-.03-.01-.05,0-.02,0-.03-.01-.05,0-.02,0-.03-.01-.05,0-.02,0-.03-.01-.05,0-.02,0-.03-.01-.05,0-.02,0-.03-.01-.05,0-.02,0-.03-.01-.05,0-.02,0-.03-.01-.05,0-.02,0-.03-.01-.05,0-.02,0-.03-.01-.05,0-.02,0-.03-.01-.05,0-.02,0-.03-.01-.05,0-.02,0-.03-.01-.05,0-.02,0-.03-.01-.05,0-.02,0-.03-.01-.05,0-.02,0-.03-.01-.05,0-.02,0-.03-.01-.05,0-.02,0-.03-.01-.05,0-.02,0-.03-.01-.05,0-.02,0-.03-.01-.05,0-.02,0-.03-.01-.05,0-.02,0-.03-.01-.05,0-.02,0-.03-.01-.05,0-.02,0-.03-.01-.05-.11-.54-.59-.95-1.16-.95h-4.77c-.65,0-1.18,.53-1.18,1.18v12.06h-1.33v-9.57c0-.1-.02-.19-.04-.28,0-.02,0-.03-.01-.05,0-.02,0-.03-.01-.05,0-.02,0-.03-.01-.05,0-.02,0-.03-.01-.05,0-.02,0-.03-.01-.05,0-.02,0-.03-.01-.05,0-.02,0-.03-.01-.05,0-.02,0-.03-.01-.05,0-.02,0-.03-.01-.05,0-.02,0-.03-.01-.05,0-.02,0-.03-.01-.05,0-.02,0-.03-.01-.05,0-.02,0-.03-.01-.05,0-.02,0-.03-.01-.05,0-.02,0-.03-.01-.05,0-.02,0-.03-.01-.05,0-.02,0-.03-.01-.05,0-.02,0-.03-.01-.05,0-.02,0-.03-.01-.05,0-.02,0-.03-.01-.05,0-.02,0-.03-.01-.05,0-.02,0-.03-.01-.05,0-.02,0-.03-.01-.05,0-.02,0-.03-.01-.05,0-.02,0-.03-.01-.05,0-.02,0-.03-.01-.05,0-.02,0-.03-.01-.05,0-.02,0-.03-.01-.05,0-.02,0-.03-.01-.05,0-.02,0-.03-.01-.05,0-.02,0-.03-.01-.05,0-.02,0-.03-.01-.05,0-.02,0-.03-.01-.05,0-.02,0-.03-.01-.05,0-.02,0-.03-.01-.05,0-.02,0-.03-.01-.05,0-.02,0-.03-.01-.05,0-.02,0-.03-.01-.05,0-.02,0-.03-.01-.05,0-.02,0-.03-.01-.05,0-.02,0-.03-.01-.05,0-.02,0-.03-.01-.05,0-.02,0-.03-.01-.05,0-.02,0-.03-.01-.05,0-.02,0-.03-.01-.05,0-.02,0-.03-.01-.05,0-.02,0-.03-.01-.05,0-.02,0-.03-.01-.05,0-.02,0-.03-.01-.05,0-.02,0-.03-.01-.05-.11-.54-.59-.95-1.16-.95h-4.77c-.65,0-1.18,.53-1.18,1.18v13.1c0,.66,.07,1.26,.22,1.81,0,.02,0,.03,.01,.05,0,.02,0,.03,.01,.05,0,.02,0,.03,.01,.05,0,.02,0,.03,.01,.05,0,.02,0,.03,.01,.05,0,.02,0,.03,.01,.05,0,.02,0,.03,.01,.05,0,.02,0,.03,.01,.05,0,.02,0,.03,.01,.05,0,.02,0,.03,.01,.05,0,.02,0,.03,.01,.05,0,.02,0,.03,.01,.05,0,.02,0,.03,.01,.05,0,.02,0,.03,.01,.05,0,.02,0,.03,.01,.05,0,.02,0,.03,.01,.05,0,.02,0,.03,.01,.05,0,.02,0,.03,.01,.05,0,.02,0,.03,.01,.05,0,.02,0,.03,.01,.05,0,.02,0,.03,.01,.05,0,.02,0,.03,.01,.05,0,.02,0,.03,.01,.05,0,.02,0,.03,.01,.05,0,.02,0,.03,.01,.05,0,.02,0,.03,.01,.05,0,.02,0,.03,.01,.05,0,.02,0,.03,.01,.05,0,.02,0,.03,.01,.05,0,.02,0,.03,.01,.05,0,.02,0,.03,.01,.05,0,.02,0,.03,.01,.05,0,.02,0,.03,.01,.05,0,.02,0,.03,.01,.05,0,.02,0,.03,.01,.05,0,.02,0,.03,.01,.05,0,.02,0,.03,.01,.05,0,.02,0,.03,.01,.05,0,.02,0,.03,.01,.05,0,.02,0,.03,.01,.05,0,.02,0,.03,.01,.05,0,.02,0,.03,.01,.05,0,.02,0,.03,.01,.05,0,.02,0,.03,.01,.05,0,.02,0,.03,.01,.05,0,.02,0,.03,.01,.05,0,.02,0,.03,.01,.05,0,.02,0,.03,.01,.05,0,.02,0,.03,.01,.05,0,.02,0,.03,.01,.05,.22,.88,.63,1.61,1.19,2.18-.25,.03-.5,.13-.69,.3-.24,.22-.38,.54-.38,.87v9.86c-2.12,.08-4.19,.15-6.24,.15-1.24,0-2.38-.03-3.44-.08v-7.44c0-.1-.02-.19-.04-.29,0-.02,0-.03-.01-.05,0-.02,0-.03-.01-.05,0-.02,0-.03-.01-.05,0-.02,0-.03-.01-.05,0-.02,0-.03-.01-.05,0-.02,0-.03-.01-.05,0-.02,0-.03-.01-.05,0-.02,0-.03-.01-.05,0-.02,0-.03-.01-.05,0-.02,0-.03-.01-.05,0-.02,0-.03-.01-.05,0-.02,0-.03-.01-.05,0-.02,0-.03-.01-.05,0-.02,0-.03-.01-.05,0-.02,0-.03-.01-.05,0-.02,0-.03-.01-.05,0-.02,0-.03-.01-.05,0-.02,0-.03-.01-.05,0-.02,0-.03-.01-.05,0-.02,0-.03-.01-.05,0-.02,0-.03-.01-.05,0-.02,0-.03-.01-.05,0-.02,0-.03-.01-.05,0-.02,0-.03-.01-.05,0-.02,0-.03-.01-.05,0-.02,0-.03-.01-.05,0-.02,0-.03-.01-.05,0-.02,0-.03-.01-.05,0-.02,0-.03-.01-.05,0-.02,0-.03-.01-.05,0-.02,0-.03-.01-.05,0-.02,0-.03-.01-.05,0-.02,0-.03-.01-.05,0-.02,0-.03-.01-.05,0-.02,0-.03-.01-.05,0-.02,0-.03-.01-.05,0-.02,0-.03-.01-.05,0-.02,0-.03-.01-.05,0-.02,0-.03-.01-.05,0-.02,0-.03-.01-.05,0-.02,0-.03-.01-.05,0-.02,0-.03-.01-.05,0-.02,0-.03-.01-.05,0-.02,0-.03-.01-.05,0,0,0-.02,0-.02h3.35c3.47,0,5.46-1.96,5.46-5.38v-8.66c0-.66-.07-1.26-.22-1.81,0-.02,0-.03-.01-.05,0-.02,0-.03-.01-.05,0-.02,0-.03-.01-.05,0-.02,0-.03-.01-.05,0-.02,0-.03-.01-.05,0-.02,0-.03-.01-.05,0-.02,0-.03-.01-.05,0-.02,0-.03-.01-.05,0-.02,0-.03-.01-.05,0-.02,0-.03-.01-.05,0-.02,0-.03-.01-.05,0-.02,0-.03-.01-.05,0-.02,0-.03-.01-.05,0-.02,0-.03-.01-.05,0-.02,0-.03-.01-.05,0-.02,0-.03-.01-.05,0-.02,0-.03-.01-.05,0-.02,0-.03-.01-.05,0-.02,0-.03-.01-.05,0-.02,0-.03-.01-.05,0-.02,0-.03-.01-.05,0-.02,0-.03-.01-.05,0-.02,0-.03-.01-.05,0-.02,0-.03-.01-.05,0-.02,0-.03-.01-.05,0-.02,0-.03-.01-.05,0-.02,0-.03-.01-.05,0-.02,0-.03-.01-.05,0-.02,0-.03-.01-.05,0-.02,0-.03-.01-.05,0-.02,0-.03-.01-.05,0-.02,0-.03-.01-.05,0-.02,0-.03-.01-.05,0-.02,0-.03-.01-.05,0-.02,0-.03-.01-.05,0-.02,0-.03-.01-.05,0-.02,0-.03-.01-.05,0-.02,0-.03-.01-.05,0-.02,0-.03-.01-.05,0-.02,0-.03-.01-.05,0-.02,0-.03-.01-.05,0-.02,0-.03-.01-.05,0-.02,0-.03-.01-.05,0-.02,0-.03-.01-.05,0-.02,0-.03-.01-.05,0-.02,0-.03-.01-.05,0-.02,0-.03-.01-.05,0-.02,0-.03-.01-.05,0-.02,0-.03-.01-.05,0-.02,0-.03-.01-.05-.59-2.33-2.43-3.63-5.25-3.63h-9.52c-.65,0-1.18,.53-1.18,1.18v17.06c0,.1,.02,.19,.04,.28,0,.02,0,.03,.01,.05,0,.02,0,.03,.01,.05,0,.02,0,.03,.01,.05,0,.02,0,.03,.01,.05,0,.02,0,.03,.01,.05,0,.02,0,.03,.01,.05,0,.02,0,.03,.01,.05,0,.02,0,.03,.01,.05,0,.02,0,.03,.01,.05,0,.02,0,.03,.01,.05,0,.02,0,.03,.01,.05,0,.02,0,.03,.01,.05,0,.02,0,.03,.01,.05,0,.02,0,.03,.01,.05,0,.02,0,.03,.01,.05,0,.02,0,.03,.01,.05,0,.02,0,.03,.01,.05,0,.02,0,.03,.01,.05,0,.02,0,.03,.01,.05,0,.02,0,.03,.01,.05,0,.02,0,.03,.01,.05,0,.02,0,.03,.01,.05,0,.02,0,.03,.01,.05,0,.02,0,.03,.01,.05,0,.02,0,.03,.01,.05,0,.02,0,.03,.01,.05,0,.02,0,.03,.01,.05,0,.02,0,.03,.01,.05,0,.02,0,.03,.01,.05,0,.02,0,.03,.01,.05,0,.02,0,.03,.01,.05,0,.02,0,.03,.01,.05,0,.02,0,.03,.01,.05,0,.02,0,.03,.01,.05,0,.02,0,.03,.01,.05,0,.02,0,.03,.01,.05,0,.02,0,.03,.01,.05,0,.02,0,.03,.01,.05,0,.02,0,.03,.01,.05,0,.02,0,.03,.01,.05,0,.02,0,.03,.01,.05,0,.02,0,.03,.01,.05,0,.02,0,.03,.01,.05,0,.02,0,.03,.01,.05,0,.02,0,.03,.01,.05,0,.02,0,.03,.01,.05,0,.02,0,.03,.01,.05,0,.02,0,.03,.01,.05,0,.02,0,.03,.01,.05,0,.02,0,.03,.01,.05,0,.03,.02,.05,.02,.08-.13,0-.26,0-.38,0-2.01,0-3.99-.11-5.86-.33-.05,0-.09,0-.14,0-.3,0-.6,.12-.82,.33-.26,.25-.39,.59-.36,.95,.72,9.08,.72,17.92,0,26.28-.02,.18,.01,.35,.07,.52,0,.02,0,.03,.01,.05,0,.02,0,.03,.01,.05,0,.02,0,.03,.01,.05,0,.02,0,.03,.01,.05,0,.02,0,.03,.01,.05,0,.02,0,.03,.01,.05,0,.02,0,.03,.01,.05,0,.02,0,.03,.01,.05,0,.02,0,.03,.01,.05,0,.02,0,.03,.01,.05,0,.02,0,.03,.01,.05,0,.02,0,.03,.01,.05,0,.02,0,.03,.01,.05,0,.02,0,.03,.01,.05,0,.02,0,.03,.01,.05,0,.02,0,.03,.01,.05,0,.02,0,.03,.01,.05,0,.02,0,.03,.01,.05,0,.02,0,.03,.01,.05,0,.02,0,.03,.01,.05,0,.02,0,.03,.01,.05,0,.02,0,.03,.01,.05,0,.02,0,.03,.01,.05,0,.02,0,.03,.01,.05,0,.02,0,.03,.01,.05,0,.02,0,.03,.01,.05,0,.02,0,.03,.01,.05,0,.02,0,.03,.01,.05,0,.02,0,.03,.01,.05,0,.02,0,.03,.01,.05,0,.02,0,.03,.01,.05,0,.02,0,.03,.01,.05,0,.02,0,.03,.01,.05,0,.02,0,.03,.01,.05,0,.02,0,.03,.01,.05,0,.02,0,.03,.01,.05,0,.02,0,.03,.01,.05,0,.02,0,.03,.01,.05,0,.02,0,.03,.01,.05,0,.02,0,.03,.01,.05,0,.02,0,.03,.01,.05,0,.02,0,.03,.01,.05,0,.02,0,.03,.01,.05,0,.02,0,.03,.01,.05,0,.02,0,.03,.01,.05,0,.02,0,.03,.01,.05,0,.02,0,.03,.01,.05,0,.02,0,.03,.01,.05,0,.02,0,.03,.01,.05,0,.02,0,.03,.01,.05,.06,.18,.15,.34,.29,.48,.22,.22,.52,.34,.83,.34,.04,0,.08,0,.12,0,2.09-.21,4.08-.31,6.08-.31s3.93,.1,6.15,.31c.04,0,.07,0,.11,0,.29,0,.58-.11,.8-.31,.25-.22,.39-.54,.39-.88v-9.37c1.73-.06,3.48-.09,5.2-.09,1.49,0,2.99,.03,4.49,.07v6.87c0,.1,.02,.19,.04,.28,0,.02,0,.03,.01,.05,0,.02,0,.03,.01,.05,0,.02,0,.03,.01,.05,0,.02,0,.03,.01,.05,0,.02,0,.03,.01,.05,0,.02,0,.03,.01,.05,0,.02,0,.03,.01,.05,0,.02,0,.03,.01,.05,0,.02,0,.03,.01,.05,0,.02,0,.03,.01,.05,0,.02,0,.03,.01,.05,0,.02,0,.03,.01,.05,0,.02,0,.03,.01,.05,0,.02,0,.03,.01,.05,0,.02,0,.03,.01,.05,0,.02,0,.03,.01,.05,0,.02,0,.03,.01,.05,0,.02,0,.03,.01,.05,0,.02,0,.03,.01,.05,0,.02,0,.03,.01,.05,0,.02,0,.03,.01,.05,0,.02,0,.03,.01,.05,0,.02,0,.03,.01,.05,0,.02,0,.03,.01,.05,0,.02,0,.03,.01,.05,0,.02,0,.03,.01,.05,0,.02,0,.03,.01,.05,0,.02,0,.03,.01,.05,0,.02,0,.03,.01,.05,0,.02,0,.03,.01,.05,0,.02,0,.03,.01,.05,0,.02,0,.03,.01,.05,0,.02,0,.03,.01,.05,0,.02,0,.03,.01,.05,0,.02,0,.03,.01,.05,0,.02,0,.03,.01,.05,0,.02,0,.03,.01,.05,0,.02,0,.03,.01,.05,0,.02,0,.03,.01,.05,0,.02,0,.03,.01,.05,0,.02,0,.03,.01,.05,0,.02,0,.03,.01,.05,0,.02,0,.03,.01,.05,0,.02,0,.03,.01,.05,0,.02,0,.03,.01,.05,0,.02,0,.03,.01,.05,0,.02,0,.03,.01,.05,0,.02,0,.03,.01,.05,0,.02,0,.03,.01,.05,0,.02,0,.03,.01,.05,.05,.24,.17,.46,.35,.63,.22,.21,.51,.32,.81,.32,.03,0,.05,0,.08,0,1.8-.12,3.69-.18,5.63-.18,2.12,0,4.31,.07,6.68,.21,.02,0,.05,0,.07,0,.29,0,.56-.11,.78-.3,.21,.17,.47,.27,.75,.27,.02,0,.03,0,.05,0,5.02-.21,10.08-.32,15.04-.32s9.98,.11,14.93,.32c.02,0,.03,0,.05,0,.3,0,.6-.12,.82-.33,.03-.03,.06-.07,.09-.1,.16,.08,.34,.13,.53,.13,.01,0,.03,0,.04,0,4.01-.14,8.19-.21,12.78-.21,.35,0,.68-.15,.91-.42s.32-.62,.26-.96c-.44-2.6-.57-5.06-.4-7.85h2.22c1.27,0,2.45,.24,3.52,.72,2.45,1.09,3.72,2.62,5.33,4.55,1.37,1.64,2.91,3.5,5.47,5.36,2.8,2.03,6.18,3.15,9.52,3.15,4.03,0,7.34-1.6,8.64-4.17,.14-.27,.16-.58,.07-.87,3.85,.88,7.6,1.06,9.94,1.06,3.27,0,8.1-.31,12.56-1.78,4.99-1.65,8.36-4.36,10.02-8.05,0,0,0-.01,0-.02,.69-1.62,1.04-3.29,1.04-4.97v-.03c0-.91-.1-1.79-.29-2.66Zm-139.59-25.62h1.17v4.09h-1.17v-4.09Zm93.05,32.07c-.14-.13-.29-.26-.44-.38-.7-.62-1.38-1.21-2.04-1.76,.55-.42,1.06-.88,1.5-1.39,0,.02,0,.05,.01,.07,.05,.24,.11,.47,.17,.71,0,.02,0,.03,.01,.05,0,.02,0,.03,.01,.05,0,.02,0,.03,.01,.05,0,.02,0,.03,.01,.05,0,.02,0,.03,.01,.05,0,.02,0,.03,.01,.05,0,.02,0,.03,.01,.05,0,.02,0,.03,.01,.05,0,.02,0,.03,.01,.05,0,.02,0,.03,.01,.05,0,.02,0,.03,.01,.05,0,.02,0,.03,.01,.05,0,.02,0,.03,.01,.05,0,.02,0,.03,.01,.05,0,.02,0,.03,.01,.05,0,.02,0,.03,.01,.05,0,.02,0,.03,.01,.05,0,.02,0,.03,.01,.05,0,.02,0,.03,.01,.05,0,.02,0,.03,.01,.05,0,.02,0,.03,.01,.05,0,.02,0,.03,.01,.05,0,.02,0,.03,.01,.05,0,.02,0,.03,.01,.05,0,.02,0,.03,.01,.05,0,.02,0,.03,.01,.05,0,.02,0,.03,.01,.05,0,.02,0,.03,.01,.05,0,.02,0,.03,.01,.05,0,.02,0,.03,.01,.05,0,.02,0,.03,.01,.05,0,.02,0,.03,.01,.05,0,.02,0,.03,.01,.05,0,.02,0,.03,.01,.05,0,.02,0,.03,.01,.05,0,.02,0,.03,.01,.05,0,.02,0,.03,.01,.05,0,.02,0,.03,.01,.05,0,.02,0,.03,.01,.05,0,.02,0,.03,.01,.05,0,.02,0,.03,.01,.05,0,.02,0,.03,.01,.05,0,.02,0,.03,.01,.05,0,.02,0,.03,.01,.05,0,.02,0,.03,.01,.05,0,.02,0,.03,.01,.05,0,.02,0,.03,.01,.05,0,.02,0,.03,.01,.05,.04,.14,.08,.27,.12,.4Zm-19.37-8.47h-2.03v-2.33h2.74c2.02,0,3.15,.28,3.79,.7-.3,1.02-1.39,1.63-4.51,1.63Zm-33.6,8.54c2.09-.11,4.01-.16,5.85-.16,2.13,0,4.17,.08,6.06,.23,.03,0,.06,0,.09,0,.3,0,.58-.11,.8-.31,.24-.22,.38-.54,.38-.87v-4.97c0-.1-.02-.19-.04-.28,0-.02,0-.03-.01-.05,0-.02,0-.03-.01-.05,0-.02,0-.03-.01-.05,0-.02,0-.03-.01-.05,0-.02,0-.03-.01-.05,0-.02,0-.03-.01-.05,0-.02,0-.03-.01-.05,0-.02,0-.03-.01-.05,0-.02,0-.03-.01-.05,0-.02,0-.03-.01-.05,0-.02,0-.03-.01-.05,0-.02,0-.03-.01-.05,0-.02,0-.03-.01-.05,0-.02,0-.03-.01-.05,0-.02,0-.03-.01-.05,0-.02,0-.03-.01-.05,0-.02,0-.03-.01-.05,0-.02,0-.03-.01-.05,0-.02,0-.03-.01-.05,0-.02,0-.03-.01-.05,0-.02,0-.03-.01-.05,0-.02,0-.03-.01-.05,0-.02,0-.03-.01-.05,0-.02,0-.03-.01-.05,0-.02,0-.03-.01-.05,0-.02,0-.03-.01-.05,0-.02,0-.03-.01-.05,0-.02,0-.03-.01-.05,0-.02,0-.03-.01-.05,0-.02,0-.03-.01-.05,0-.02,0-.03-.01-.05,0-.02,0-.03-.01-.05,0-.02,0-.03-.01-.05,0-.02,0-.03-.01-.05,0-.02,0-.03-.01-.05,0-.02,0-.03-.01-.05,0-.02,0-.03-.01-.05,0-.02,0-.03-.01-.05,0-.02,0-.03-.01-.05,0-.02,0-.03-.01-.05,0-.02,0-.03-.01-.05,0-.02,0-.03-.01-.05,0-.02,0-.03-.01-.05,0-.02,0-.03-.01-.05,0-.02,0-.03-.01-.05,0-.02,0-.03-.01-.05,0-.02,0-.03-.01-.05,0-.02,0-.03-.01-.05,0-.02,0-.03-.01-.05,0-.02,0-.03-.01-.05-.05-.24-.16-.45-.34-.62-.22-.21-.52-.33-.82-.33-.02,0-.03,0-.05,0-2.15,.09-4.35,.14-6.52,.14-1.56,0-3.15-.03-4.72-.07v-.83c2.41,.07,4.89,.1,7.39,.1,2.93,0,5.97-.05,9.03-.14,.11,0,.2-.02,.3-.05,.18,4.06,.12,8.07-.19,12.07-.2-.19-.47-.32-.77-.34-2.55-.12-5.25-.18-8.04-.18-2.46,0-5.01,.05-7.73,.14v-1.08Zm84.04-6.41c0,.09,0,.17,.03,.26-.09,5.28-2.69,7.55-8.65,7.55-4.12,0-6.67-1.11-7.87-3.5-.07-.51-.1-1.05-.1-1.63,0-5.44,2.68-7.86,8.68-7.86,4.08,0,6.61,1.11,7.81,3.51,.07,.53,.11,1.08,.11,1.68Zm-67.38-18.48h3.49c3.47,0,5.46-1.96,5.46-5.38v-.45s0,.03,.01,.05c0,.02,0,.03,.01,.05,0,.02,0,.03,.01,.05,0,.02,0,.03,.01,.05,0,.02,0,.03,.01,.05,0,.02,0,.03,.01,.05,0,.02,0,.03,.01,.05,0,.02,0,.03,.01,.05,0,.02,0,.03,.01,.05,0,.02,0,.03,.01,.05,0,.02,0,.03,.01,.05,0,.02,0,.03,.01,.05,0,.02,0,.03,.01,.05,0,.02,0,.03,.01,.05,0,.02,0,.03,.01,.05,0,.02,0,.03,.01,.05,0,.02,0,.03,.01,.05,0,.02,0,.03,.01,.05,0,.02,0,.03,.01,.05,0,.02,0,.03,.01,.05,0,.02,0,.03,.01,.05,0,.02,0,.03,.01,.05,0,.02,0,.03,.01,.05,0,.02,0,.03,.01,.05,0,.02,0,.03,.01,.05,0,.02,0,.03,.01,.05,0,.02,0,.03,.01,.05,.09,.39,.23,.73,.39,1.04l-.28,.03c-.45,.05-.84,.37-.98,.8-.09,.25-.09,.41-.09,.76,0,.66,.07,1.26,.22,1.81,0,.02,0,.03,.01,.05,0,.02,0,.03,.01,.05,0,.02,0,.03,.01,.05,0,.02,0,.03,.01,.05,0,.02,0,.03,.01,.05,0,.02,0,.03,.01,.05,0,.02,0,.03,.01,.05,0,.02,0,.03,.01,.05,0,.02,0,.03,.01,.05,0,.02,0,.03,.01,.05,0,.02,0,.03,.01,.05,0,.02,0,.03,.01,.05,0,.02,0,.03,.01,.05,0,.02,0,.03,.01,.05,0,.02,0,.03,.01,.05,0,.02,0,.03,.01,.05,0,.02,0,.03,.01,.05,0,.02,0,.03,.01,.05,0,.02,0,.03,.01,.05,0,.02,0,.03,.01,.05,0,.02,0,.03,.01,.05,0,.02,0,.03,.01,.05,0,.02,0,.03,.01,.05,0,.02,0,.03,.01,.05,0,.02,0,.03,.01,.05,0,.02,0,.03,.01,.05,0,.02,0,.03,.01,.05,0,.02,0,.03,.01,.05,0,.02,0,.03,.01,.05,0,.02,0,.03,.01,.05,0,.02,0,.03,.01,.05,0,.02,0,.03,.01,.05,0,.02,0,.03,.01,.05,0,.02,0,.03,.01,.05,0,.02,0,.03,.01,.05,0,.02,0,.03,.01,.05,0,.02,0,.03,.01,.05,0,.02,0,.03,.01,.05,0,.02,0,.03,.01,.05,0,.02,0,.03,.01,.05,0,.02,0,.03,.01,.05,0,.02,0,.03,.01,.05,0,.02,0,.03,.01,.05,0,.02,0,.03,.01,.05,0,.02,0,.03,.01,.05,0,.02,0,.03,.01,.05,0,.02,0,.03,.01,.05,0,.02,0,.03,.01,.05,0,.02,0,.03,.01,.05,0,.02,0,.03,.01,.05,.18,.7,.47,1.3,.86,1.81h-9.66c-.17,0-.34,.04-.49,.11v-4.28Zm42.07,2.99s0,.03,.01,.05c0,.02,0,.03,.01,.05,0,.02,0,.03,.01,.05,0,.02,0,.03,.01,.05,0,.02,0,.03,.01,.05,0,.02,0,.03,.01,.05,0,.02,0,.03,.01,.05,0,.02,0,.03,.01,.05,0,.02,0,.03,.01,.05,0,.02,0,.03,.01,.05,0,.02,0,.03,.01,.05,0,.02,0,.03,.01,.05,0,.02,0,.03,.01,.05,0,.02,0,.03,.01,.05,0,.02,0,.03,.01,.05,0,.02,0,.03,.01,.05,0,.02,0,.03,.01,.05,0,.02,0,.03,.01,.05,0,.02,0,.03,.01,.05,0,.02,0,.03,.01,.05,0,.02,0,.03,.01,.05,0,.02,0,.03,.01,.05,0,.02,0,.03,.01,.05,0,.02,0,.03,.01,.05,0,.02,0,.03,.01,.05,0,.02,0,.03,.01,.05,0,.02,0,.03,.01,.05,0,.02,0,.03,.01,.05,0,.02,0,.03,.01,.05,0,.02,0,.03,.01,.05,0,.02,0,.03,.01,.05,0,.02,0,.03,.01,.05,0,.02,0,.03,.01,.05,0,.02,0,.03,.01,.05,0,.02,0,.03,.01,.05,0,.02,0,.03,.01,.05,0,.02,0,.03,.01,.05,.11,.54,.59,.95,1.16,.95h1.95c-4.28,1.51-7.33,3.84-9.08,6.91,0-.01,0-.03-.01-.04,0-.02,0-.03-.01-.05,0-.02,0-.03-.01-.05,0-.02,0-.03-.01-.05,0-.02,0-.03-.01-.05,0-.02,0-.03-.01-.05,0-.02,0-.03-.01-.05,0-.02,0-.03-.01-.05,0-.02,0-.03-.01-.05,0-.02,0-.03-.01-.05,0-.02,0-.03-.01-.05,0-.02,0-.03-.01-.05,0-.02,0-.03-.01-.05,0-.02,0-.03-.01-.05,0-.02,0-.03-.01-.05,0-.01,0-.03-.01-.04-.48-2-1.62-3.77-3.18-4.79-2.23-1.5-5.46-2.24-8.85-2.61,.88-.92,1.36-2.23,1.36-3.9v-2.53c0-.65-.07-1.24-.21-1.76,0-.02,0-.03-.01-.05,0-.02,0-.03-.01-.05,0-.02,0-.03-.01-.05,0-.02,0-.03-.01-.05,0-.02,0-.03-.01-.05,0-.02,0-.03-.01-.05,0-.02,0-.03-.01-.05,0-.02,0-.03-.01-.05,0-.02,0-.03-.01-.05,0-.02,0-.03-.01-.05,0-.02,0-.03-.01-.05,0-.02,0-.03-.01-.05,0-.02,0-.03-.01-.05,0-.02,0-.03-.01-.05,0-.02,0-.03-.01-.05,0-.02,0-.03-.01-.05,0-.02,0-.03-.01-.05,0-.02,0-.03-.01-.05,0-.02,0-.03-.01-.05,0-.02,0-.03-.01-.05,0-.02,0-.03-.01-.05,0-.02,0-.03-.01-.05,0-.02,0-.03-.01-.05,0-.02,0-.03-.01-.05,0-.02,0-.03-.01-.05,0-.02,0-.03-.01-.05,0-.02,0-.03-.01-.05,0-.02,0-.03-.01-.05,0-.02,0-.03-.01-.05,0-.02,0-.03-.01-.05,0-.02,0-.03-.01-.05,0-.02,0-.03-.01-.05,0-.02,0-.03-.01-.05,0-.02,0-.03-.01-.05,0-.02,0-.03-.01-.05,0-.02,0-.03-.01-.05,0-.02,0-.03-.01-.05,0-.02,0-.03-.01-.05,0-.02,0-.03-.01-.05,0-.02,0-.03-.01-.05,0-.02,0-.03-.01-.05,0-.02,0-.03-.01-.05,0-.02,0-.03-.01-.05,0-.02,0-.03-.01-.05,0-.02,0-.03-.01-.05,0-.02,0-.03-.01-.05,0-.02,0-.03-.01-.05,0-.02,0-.03-.01-.05,0-.02,0-.03-.01-.05,0-.02,0-.03-.01-.05-.08-.3-.19-.58-.32-.84h.09c.49-.07,.89-.42,1.01-.9,.06-.24,.06-.37,.06-.67,0-.03,0-.05,0-.08,0,0,0,0,0,.01,0,.02,0,.03,.01,.05,0,.02,0,.03,.01,.05,0,.02,0,.03,.01,.05,0,.02,0,.03,.01,.05,0,.02,0,.03,.01,.05,0,.02,0,.03,.01,.05,0,.02,0,.03,.01,.05,0,.02,0,.03,.01,.05,.11,.54,.59,.95,1.16,.95h2.76v9.33c0,.1,.02,.19,.04,.28,0,.02,0,.03,.01,.05,0,.02,0,.03,.01,.05,0,.02,0,.03,.01,.05,0,.02,0,.03,.01,.05,0,.02,0,.03,.01,.05,0,.02,0,.03,.01,.05,0,.02,0,.03,.01,.05,0,.02,0,.03,.01,.05,0,.02,0,.03,.01,.05,0,.02,0,.03,.01,.05,0,.02,0,.03,.01,.05,0,.02,0,.03,.01,.05,0,.02,0,.03,.01,.05,0,.02,0,.03,.01,.05,0,.02,0,.03,.01,.05,0,.02,0,.03,.01,.05,0,.02,0,.03,.01,.05,0,.02,0,.03,.01,.05,0,.02,0,.03,.01,.05,0,.02,0,.03,.01,.05,0,.02,0,.03,.01,.05,0,.02,0,.03,.01,.05,0,.02,0,.03,.01,.05,0,.02,0,.03,.01,.05,0,.02,0,.03,.01,.05,0,.02,0,.03,.01,.05,0,.02,0,.03,.01,.05,0,.02,0,.03,.01,.05,0,.02,0,.03,.01,.05,0,.02,0,.03,.01,.05,0,.02,0,.03,.01,.05,0,.02,0,.03,.01,.05,0,.02,0,.03,.01,.05,0,.02,0,.03,.01,.05,0,.02,0,.03,.01,.05,0,.02,0,.03,.01,.05,0,.02,0,.03,.01,.05,0,.02,0,.03,.01,.05,0,.02,0,.03,.01,.05,0,.02,0,.03,.01,.05,0,.02,0,.03,.01,.05,0,.02,0,.03,.01,.05,0,.02,0,.03,.01,.05,0,.02,0,.03,.01,.05,0,.02,0,.03,.01,.05,0,.02,0,.03,.01,.05,0,.02,0,.03,.01,.05,0,.02,0,.03,.01,.05,0,.02,0,.03,.01,.05,0,.02,0,.03,.01,.05,.11,.54,.59,.95,1.16,.95h4.77c.65,0,1.18-.53,1.18-1.18v-11.82h3.47c.33,0,.63-.14,.85-.36v9.69c0,.1,.02,.19,.04,.28,0,.02,0,.03,.01,.05,0,.02,0,.03,.01,.05,0,.02,0,.03,.01,.05,0,.02,0,.03,.01,.05,0,.02,0,.03,.01,.05,0,.02,0,.03,.01,.05,0,.02,0,.03,.01,.05,0,.02,0,.03,.01,.05,0,.02,0,.03,.01,.05,0,.02,0,.03,.01,.05,0,.02,0,.03,.01,.05,0,.02,0,.03,.01,.05,0,.02,0,.03,.01,.05Zm-58.06,1.76c-1.9,0-3.8-.02-5.71-.04,0-.05,.02-.1,.02-.15v-5l1.15,1.83c.22,.35,.6,.55,1,.55h1.65c.41,0,.79-.21,1-.55l.44-.7v1.38c0,.1,.02,.19,.04,.28,0,.02,0,.03,.01,.05,0,.02,0,.03,.01,.05,0,.02,0,.03,.01,.05,0,.02,0,.03,.01,.05,0,.02,0,.03,.01,.05,0,.02,0,.03,.01,.05,0,.02,0,.03,.01,.05,0,.02,0,.03,.01,.05,0,.02,0,.03,.01,.05,0,.02,0,.03,.01,.05,0,.02,0,.03,.01,.05,0,.02,0,.03,.01,.05,0,.02,0,.03,.01,.05,0,.02,0,.03,.01,.05,0,.02,0,.03,.01,.05,0,.02,0,.03,.01,.05,0,.02,0,.03,.01,.05,0,.02,0,.03,.01,.05,0,.02,0,.03,.01,.05,0,.02,0,.03,.01,.05,0,.02,0,.03,.01,.05,0,.02,0,.03,.01,.05,0,.02,0,.03,.01,.05,0,.02,0,.03,.01,.05,0,.02,0,.03,.01,.05,0,.02,0,.03,.01,.05,0,.02,0,.03,.01,.05,0,.02,0,.03,.01,.05,0,.02,0,.03,.01,.05,0,.02,0,.03,.01,.05,0,.02,0,.03,.01,.05,0,.02,0,.03,.01,.05,0,.02,0,.03,.01,.05,0,.02,0,.03,.01,.05,0,.02,0,.03,.01,.05,0,.02,0,.03,.01,.05,0,.02,0,.03,.01,.05,0,.02,0,.03,.01,.05,0,.02,0,.03,.01,.05,0,.02,0,.03,.01,.05,0,.02,0,.03,.01,.05,0,.02,0,.03,.01,.05,0,.02,0,.03,.01,.05,0,.02,0,.03,.01,.05,0,.02,0,.03,.01,.05,0,.02,0,.03,.01,.05,0,.02,0,.03,.01,.05,0,.02,0,.03,.01,.05,0,.02,0,.03,.01,.05,0,0,0,0,0,0-.09,0-.18,0-.27,0Zm81.32-4.57l2.95,4.54c-.99-.22-1.98-.39-2.95-.52v-4.02Z"/><g><g><path class="cls-3" d="M88.87,105.06v8.66c0,2.74-1.48,4.2-4.27,4.2h-9.52v-17.06h9.52c2.79,0,4.27,1.46,4.27,4.2Zm-4.77,.79c0-.69-.24-.93-.95-.93h-3.29v8.95h3.29c.72,0,.95-.24,.95-.93v-7.09Z"/><path class="cls-3" d="M106.41,113.96c0,2.74-1.48,4.2-4.27,4.2h-5.42c-2.79,0-4.27-1.46-4.27-4.2v-13.1h4.77v12.31c0,.69,.24,.93,.95,.93h2.5c.72,0,.95-.24,.95-.93v-12.31h4.77v13.1Z"/><path class="cls-3" d="M128,100.87v17.06h-4.77v-9.11l-3.34,5.32h-1.65l-3.34-5.32v9.11h-4.77v-17.06h4.6l4.34,6.89,4.32-6.89h4.6Z"/><path class="cls-3" d="M145.54,105.06v2.91c0,2.74-1.48,4.2-4.27,4.2h-4.68v5.75h-4.77v-17.06h9.45c2.79,0,4.27,1.46,4.27,4.2Zm-4.77,.79c0-.69-.24-.93-.95-.93h-3.22v3.2h3.22c.72,0,.95-.24,.95-.93v-1.34Z"/><path class="cls-3" d="M148.05,113.96c0-.29,0-.31,.02-.38l4.75-.57v.17c0,.69,.24,.93,.95,.93h2.82c.72,0,.95-.24,.95-.93v-.48c0-.6-.24-.72-1.5-.91l-3.82-.55c-2.96-.43-4.1-1.5-4.1-3.91v-2.51c0-2.74,1.48-4.2,4.27-4.2h5.58c2.79,0,4.27,1.46,4.27,4.2,0,.26,0,.29-.02,.38l-4.75,.57v-.17c0-.69-.24-.93-.95-.93h-2.62c-.74,0-1,.26-1,.93v.41c0,.62,.17,.72,1.53,.91l3.82,.55c2.98,.43,4.08,1.5,4.08,3.96v2.53c0,2.74-1.48,4.2-4.27,4.2h-5.73c-2.79,0-4.27-1.46-4.27-4.2Z"/><path class="cls-3" d="M178.78,104.92h-4.65v13h-4.77v-13h-4.65v-4.06h14.08v4.06Z"/><path class="cls-3" d="M186.29,104.92v2.27h6.39v4.06h-6.39v2.62h7.4v4.06h-12.17v-17.06h12.17v4.06h-7.4Z"/><path class="cls-3" d="M203.57,112.08h-1.65v5.85h-4.77v-17.06h9.52c2.79,0,4.27,1.46,4.27,4.2v2.82c0,1.91-.72,3.2-2.1,3.79l4.08,6.25h-5.56l-3.79-5.85Zm-1.65-4.06h3.29c.72,0,.95-.24,.95-.93v-1.24c0-.69-.24-.93-.95-.93h-3.29v3.1Z"/></g><g><path class="cls-3" d="M93.49,137.53c-4.26-.18-8.5-.18-12.76,0v10.51c-3.56-.34-7.49-.49-12.46,0,.76-8.8,.7-17.67,0-26.47,4.11,.49,8.29,.43,12.46,0v11c3.99,.34,8.35,.18,12.76,0v-11c4.17,.34,8.35,.34,12.46,0-.76,8.8-.85,17.67,0,26.47-4.11-.24-8.29-.3-12.46-.03v-10.48Z"/><path class="cls-3" d="M119.94,126.53v5.64c4.42,.18,8.83,.18,13.19,0v4.97c-4.23-.33-8.65-.27-13.19,0v5.94c5.94-.24,11.82-.3,17.61-.03v4.97c-9.96-.43-19.95-.43-30.07,0,.61-8.62,.61-17.42,0-26.47,9.99,.34,20.04,.34,30.04,0v4.97c-6.12,.18-12,.18-17.61,0l.03,.03Z"/><path class="cls-3" d="M166.26,136.91c4.14-.37,7.69-3.73,7.69-7.09,0-2.28-1.04-4.66-2.89-5.88-3.81-2.56-11.24-2.74-15.66-2.74h-16.42c1.13,8.77,1.19,17.58,0,26.5,4.26-.15,8.5-.21,12.82-.21-.58-3.41-.58-6.34-.34-9.23h3.32c1.38,0,2.74,.26,4,.82,4.94,2.2,5.63,6.12,11.02,10.04,6.3,4.58,14.43,3.32,16.4-.59-10.36-2.22-14.51-11.62-19.94-11.62Zm-10.83-3.52h-3.93v-7.19h3.93c2.74,0,5.79,.43,5.79,3.59s-3.08,3.59-5.79,3.59Z"/><path class="cls-3" d="M219.73,134.42c0,1.55-.34,3.08-.94,4.51-3.41,7.59-14.26,9.14-21.51,9.14s-18.06-1.52-21.54-8.86c-.67-1.46-1.01-3.02-1.01-4.63,0-1.52,.27-3.05,.88-4.48,3.41-7.68,14.32-9.29,21.66-9.29s17.97,1.55,21.45,8.96c.67,1.46,1.01,3.02,1.01,4.63v.03Zm-12.67-.09c0-6.31-3.59-8.86-9.81-8.86s-9.87,2.65-9.87,9.05,3.66,8.8,9.87,8.8,9.84-2.62,9.84-9.02l-.03,.03Z"/></g></g><path d="M51.39,77.38v2.01c0,.43,.34,.77,.77,.77h91.84v-3.55H52.16c-.43,0-.77,.34-.77,.77Z"/><path d="M232.01,80.16l4.33-47.78c.15-1.62-1.13-3.01-2.75-3.01h-86.82c-1.53,0-2.76,1.24-2.76,2.76v48.03h88.01Z"/><path class="cls-12" d="M144,69.46H58.15c-1.67,0-3.12,1.17-3.48,2.81l-.94,4.35h90.27v-7.15Z"/><path class="cls-11" d="M142.13,71.25H56.75l.3-.34c.26-.29,.63-.45,1.01-.45h84.06v.79Z"/><path class="cls-11" d="M63.74,73.79h-.22c-.38,0-.71-.26-.8-.63l-.56-2.31h2.94l-.56,2.31c-.09,.37-.42,.63-.8,.63Z"/><path class="cls-11" d="M75.99,73.79h-.22c-.38,0-.71-.26-.8-.63l-.56-2.31h2.94l-.56,2.31c-.09,.37-.42,.63-.8,.63Z"/><path class="cls-11" d="M88.23,73.79h-.22c-.38,0-.71-.26-.8-.63l-.56-2.31h2.94l-.56,2.31c-.09,.37-.42,.63-.8,.63Z"/><path class="cls-11" d="M100.48,73.79h-.22c-.38,0-.71-.26-.8-.63l-.56-2.31h2.94l-.56,2.31c-.09,.37-.42,.63-.8,.63Z"/><path class="cls-11" d="M112.72,73.79h-.22c-.38,0-.71-.26-.8-.63l-.56-2.31h2.94l-.56,2.31c-.09,.37-.42,.63-.8,.63Z"/><path class="cls-11" d="M124.97,73.79h-.22c-.38,0-.71-.26-.8-.63l-.56-2.31h2.94l-.56,2.31c-.09,.37-.42,.63-.8,.63Z"/><path class="cls-11" d="M137.21,73.79h-.22c-.38,0-.71-.26-.8-.63l-.56-2.31h2.94l-.56,2.31c-.09,.37-.42,.63-.8,.63Z"/><polygon class="cls-8" points="231.76 86.58 56.24 86.58 55.99 80.16 232.01 80.16 231.76 86.58"/><polygon class="cls-8" points="225.03 168.96 62.97 168.96 62.72 162.54 225.28 162.54 225.03 168.96"/><path class="cls-5" d="M151.5,80.16c1.22-12.92,21.81-20.13,28.16-16.53,6.35,3.6,9.09,16.53,9.09,16.53h-37.25Z"/><path class="cls-5" d="M173.82,61.4c-2.25,.52-5.49-2.4-6.35-4.29,2.65,0,3.17-1.97,3.17-1.97l-.53-2.49c3.44-.51,5.41,.69,5.41,.69,.51,6.26,.51,7.55-1.72,8.06Z"/><path class="cls-4" d="M210.28,80.16c2.49-11.47,15.69-25.48,30.18-21.54-1.14,3.05-3.27,6.76-10.01,11.83-5.39,4.06-12.13,7.29-12.97,9.71h-7.21Z"/><g><path class="cls-9" d="M213.33,72.52c-.58,1-1.09,2.01-1.53,3.03,3.76,.04,5.71,.84,6.98,2.94,.61-.55,1.38-1.13,2.28-1.75-.92-2.69-4.3-5.11-7.72-4.21Z"/><path class="cls-9" d="M219.3,64.99c-1.09,1.03-2.11,2.13-3.05,3.28,3.7-1.89,8.9,1.84,8.84,5.83,.99-.64,2.01-1.3,3.03-1.99,.35-4.67-5.12-8.89-8.81-7.13Z"/><path class="cls-9" d="M229.86,58.75c-1.55,.45-3.05,1.07-4.48,1.84,3.67-.69,8.29,3.36,7.78,7.7,1-.86,1.87-1.68,2.62-2.47,.51-3.41-2.76-6.91-5.92-7.08Z"/></g><path class="cls-10" d="M228.51,186.64H59.49c-2.97,0-4.96-3.03-3.79-5.76h0c.65-1.51,2.14-2.49,3.79-2.49H228.51c1.65,0,3.14,.98,3.79,2.49h0c1.17,2.72-.82,5.76-3.79,5.76Z"/><g><g><path class="cls-12" d="M80.35,173.22h-3c-1.59,0-2.88,2.31-2.88,5.16s1.29,5.16,2.88,5.16h3c1.59,0,2.88-2.31,2.88-5.16s-1.29-5.16-2.88-5.16Z"/><path class="cls-7" d="M77.35,173.93c-1.03,0-2.17,1.83-2.17,4.45s1.14,4.45,2.17,4.45,2.17-1.83,2.17-4.45-1.14-4.45-2.17-4.45Z"/><path class="cls-11" d="M76.64,177.06c-.36,0-.75,.54-.75,1.32s.4,1.32,.75,1.32,.75-.54,.75-1.32-.4-1.32-.75-1.32Z"/></g><g><path class="cls-12" d="M207.65,173.22h3c1.59,0,2.88,2.31,2.88,5.16s-1.29,5.16-2.88,5.16h-3c-1.59,0-2.88-2.31-2.88-5.16s1.29-5.16,2.88-5.16Z"/><path class="cls-7" d="M210.65,173.93c1.03,0,2.17,1.83,2.17,4.45s-1.14,4.45-2.17,4.45-2.17-1.83-2.17-4.45,1.14-4.45,2.17-4.45Z"/><path class="cls-11" d="M211.36,177.06c.36,0,.75,.54,.75,1.32s-.4,1.32-.75,1.32-.75-.54-.75-1.32,.4-1.32,.75-1.32Z"/></g></g></g></g></g></svg>