<?xml version="1.0" encoding="UTF-8"?><svg id="Layer_2" xmlns="http://www.w3.org/2000/svg" viewBox="0 0 498.52 670.59"><defs><style>.cls-1{fill:#004272;}.cls-2{fill:#c7dbd7;}</style></defs><g id="art_2"><g><path class="cls-2" d="M249.26,0C69.17,0,0,99.88,0,335.29H0c0,235.42,69.17,335.29,249.26,335.29,180.09,0,249.26-99.88,249.26-335.29C498.52,99.88,429.35,0,249.26,0Z"/><g><path class="cls-1" d="M396.62,241.47c11.85-17.41,12.81-38.07,2.75-59.91-8.95-19.43-26.64-39.89-51.15-59.17-24.49-19.27-57.81-31.07-91.4-32.39-27.03-1.06-66.77,4.16-102.63,35.04-30.57,26.33-46.75,51.4-48.07,74.5-.9,15.65,5.21,26.91,11.16,34.07-3.5,7.11-6.2,13.08-17.39,9.9-14.84-4.22-12.38,31.93,3.26,49.95-20.42,89.92,12.6,281.05,139,287.13,117.74,5.66,152.9-194.61,149.86-231.53,8.46-11.15,7.45-41.78,13.36-54.41,9.08-19.4-3.96-43.04-8.76-53.19ZM116.11,200.11c1.14-20,16.57-43.34,44.61-67.49,33.39-28.76,70.47-33.62,95.71-32.63,31.53,1.24,62.73,12.27,85.61,30.26,23.28,18.31,39.96,37.5,48.25,55.5,8.23,17.88,8,34.04-.66,48.13,1.31-24.13-27.65-73.07-52.77-78.98-29.54-6.95-55.67-45.18-89.52-37.79-33.85,7.38-41.67,26.06-72.94,40.83-31.28,14.77-46.91,49.09-45.18,61.68-2.62,1.33-4.65,3.02-6.3,4.9-3.97-5.68-7.42-13.77-6.81-24.4Zm72.84,246.91c14.33-10.43,33.18-15.2,41.97-12.27,8.8,2.93,15.64,1.99,22.32-.63s34.37,7.58,38.93,19.42c-16.17,18.52-75.58,26.01-103.22-6.52Zm134.66,19.98c-4.24-27.69-21.5-42.35-61.03-57.99l-20.85,10.43-12.81-12.81c-26.28,0-77.97,22.81-70.81,46.91-30.62-5.65-50.82-101.21-50.82-101.21l37.79-133.57c28.67,3.91,65.16-51.47,121.85-28.02,48.87-33.88,64.11,38.83,93.18,45.61,19.55,4.56,23.46,123.15,23.46,123.15,0,0-17.59,97.09-59.95,107.51Z"/><path class="cls-1" d="M210.83,390.48c-.8-2.51,3.54-8.07,6.71-12.14,3.25-4.16,6.6-8.47,7.98-12.88l-9.54-2.98c-.84,2.67-3.62,6.25-6.32,9.71-5.04,6.47-10.76,13.8-8.35,21.34,1.65,5.15,6.66,8.9,15.32,11.48l2.85-9.58c-7.24-2.16-8.45-4.33-8.64-4.94Z"/><path class="cls-1" d="M270,377.14c6.54,12.36,6.56,17.67,5.43,19.95-.91,1.82-3.38,3.07-7.35,3.72l1.61,9.87c7.33-1.2,12.28-4.27,14.7-9.14,4.23-8.51-.75-20.01-5.55-29.08l-8.84,4.68Z"/><path class="cls-1" d="M252.86,393.83c-3.68,2.98-6.13,4.79-9.8,4.27-4.47-.63-5.83-2.27-8.56-5.55-1.69-2.03-3.79-4.56-6.98-7.09l-6.21,7.84c2.38,1.88,3.96,3.79,5.5,5.64,3.23,3.88,6.56,7.89,14.85,9.06,.91,.13,1.79,.19,2.64,.19,6.71,0,11.35-3.76,14.85-6.59,1.91-1.55,3.72-3.01,5.19-3.34l-2.14-9.77c-3.78,.83-6.73,3.22-9.34,5.33Z"/><path class="cls-1" d="M273.89,319.85l4.21,9.07c7.76-3.6,14.55-5.75,20.69-6.67-.43,1.16-.68,2.4-.68,3.71,0,5.88,4.77,10.65,10.65,10.65s10.65-4.77,10.65-10.65c0-.64-.07-1.27-.18-1.88,6.61,2.37,12.75,6.4,19.13,11.6l6.31-7.76c-19.22-15.63-38.61-22.99-70.79-8.07Z"/><path class="cls-1" d="M281.42,295.55l.98,9.95c50.36-4.97,67.14-1.94,72.35,1.48l5.49-8.36c-9.81-6.44-34.85-7.42-78.82-3.08Z"/><path class="cls-1" d="M188.35,296.56c9.55,1.24,19.43,2.52,27.74,3.09l.68-9.98c-8.01-.55-17.73-1.81-27.13-3.03-23.36-3.03-38.01-4.72-44.61-1.42l4.47,8.94c4.2-2.1,24.23,.5,38.85,2.39Z"/><path class="cls-1" d="M187.66,329.33c5.88,0,10.65-4.77,10.65-10.65,0-.27-.02-.53-.04-.79,6.5,1.92,12.62,5.32,18.55,10.24l6.38-7.7c-20.36-16.88-43.23-18.86-71.99-6.24l4.02,9.16c7.89-3.46,15.16-5.7,21.97-6.7-.13,.66-.2,1.33-.2,2.03,0,5.88,4.77,10.65,10.65,10.65Z"/><path class="cls-1" d="M280.24,335.67l-8.49,5.28c9.25,14.86,36.08,26.25,37.22,26.73l3.87-9.22c-6.93-2.91-26.3-12.68-32.6-22.79Z"/><path class="cls-1" d="M220.29,336.8l-7.72-6.35c-5.12,6.23-18.58,20.82-32.96,21.78l.67,9.98c17.61-1.17,32.63-16.42,40.02-25.4Z"/><path class="cls-1" d="M240.17,444.96c-4.54-1.01-22.07-4.37-40.64-.86l1.86,9.83c18.9-3.57,37.26,.94,37.44,.99l1.1,.28,1.11-.22c12.15-2.43,32.84,0,38.43,2.85l4.54-8.91c-8.97-4.57-31.72-6.01-43.83-3.95Z"/></g></g></g></svg>