<?xml version="1.0" encoding="UTF-8"?><svg id="Layer_2" xmlns="http://www.w3.org/2000/svg" viewBox="0 0 66.91 66.87"><g id="Layer_1-2"><g id="_3m7vql"><g><path d="M0,47.41C0,37.22,0,27.03,0,16.84c.03-.22,.07-.44,.09-.66C.77,8.34,6.29,2.06,13.99,.4c.8-.17,1.61-.27,2.41-.4,11.38,0,22.76,0,34.14,0,.2,.03,.4,.06,.6,.1,1.23,.26,2.51,.41,3.69,.81,7.34,2.46,12.08,9.11,12.08,16.86,0,10.3,0,20.6-.01,30.9,0,.96-.06,1.93-.18,2.89-1.03,8.65-8.55,15.31-17.27,15.3-10.65,0-21.31-.02-31.96-.04-7.9-.01-14.88-5.46-16.87-13.11C.09,51.63,.12,49.52,0,47.41Zm61.03-13.5c0-3.98,0-7.96,0-11.93,0-.72-.05-1.45-.14-2.17-.95-7.3-7.45-13-14.81-13-8.12,0-16.25-.02-24.37,.02-1.25,0-2.53,.2-3.74,.52-6.1,1.63-11.16,7.3-11.14,14.89,.02,7.81-.04,15.62,0,23.42,.04,8.79,6.72,15.37,15.51,15.36,7.58,0,15.17,0,22.75-.01,.74,0,1.49-.03,2.23-.09,7.52-.59,13.7-7.25,13.71-14.79,0-4.07,0-8.14,0-12.21Z"/><path d="M33.89,10.7c4.03,0,8.07,0,12.1,0,6.1,0,11.13,5.02,11.13,11.11,0,8.03,0,16.06,0,24.09,0,6.16-5,11.21-11.16,11.23-8.01,.02-16.03,.02-24.04-.01-6.36-.02-11.25-5.09-11.25-11.61,0-7.75,0-15.5,0-23.26,0-3.37,1.15-6.26,3.62-8.57,2.11-1.97,4.64-2.98,7.54-3,4.02-.02,8.03,0,12.05,0,0,0,0,.01,0,.02Zm14.34,24.79c0-7.82-6.32-14.15-14.15-14.17-7.69-.02-14.02,6.3-14.15,13.89-.13,7.51,5.9,14.38,14.13,14.42,7.78,.04,14.17-6.34,14.18-14.15Zm.61-18.97c-1.43,0-2.55,1.11-2.55,2.53,0,1.4,1.11,2.53,2.5,2.56,1.39,.02,2.57-1.13,2.59-2.53,.02-1.42-1.11-2.56-2.53-2.56Z"/><path d="M44.33,35.49c.04,5.67-4.54,10.25-10.27,10.28-5.55,.03-10.24-4.54-10.28-10.01-.04-5.88,4.43-10.53,10.17-10.57,5.77-.03,10.34,4.49,10.39,10.29Z"/></g></g></g></svg>