<?xml version="1.0" encoding="UTF-8"?><svg id="Layer_2" xmlns="http://www.w3.org/2000/svg" viewBox="0 0 68.57 66.87"><g id="Layer_1-2"><g id="LtlQEP"><path d="M35.5,0c.53,.04,1.06,.09,1.6,.13,5.25,.42,10.14,1.97,14.66,4.66,5.54,3.31,9.84,7.82,12.87,13.53,1.83,3.46,3.03,7.13,3.57,11.01,.38,2.69,.51,5.4,.25,8.11-.53,5.54-2.27,10.66-5.29,15.34-3.53,5.48-8.24,9.64-14.11,12.47-1.18,.57-2.42,1.04-3.65,1.49-.38,.14-.84,.15-1.24,.09-.78-.11-1.27-.76-1.27-1.61,0-1.8,.02-3.59,.02-5.39,0-1.69,.04-3.37-.04-5.05-.08-1.78-.57-3.45-1.76-4.85-.14-.16-.28-.31-.46-.49,.76-.12,1.47-.22,2.18-.34,2.25-.39,4.43-1.02,6.44-2.15,3.31-1.87,5.3-4.73,6.26-8.35,.64-2.43,.85-4.9,.66-7.4-.22-2.92-1.33-5.48-3.24-7.7-.09-.11-.18-.31-.14-.42,.91-2.67,.77-5.33-.08-7.99-.01-.04-.03-.08-.04-.13-.31-.91-.38-.95-1.36-.87-1.32,.1-2.56,.49-3.76,1.01-1.53,.65-2.97,1.48-4.35,2.42-.18,.12-.34,.16-.55,.1-3.04-.82-6.13-1.16-9.27-1.07-2.41,.07-4.78,.4-7.1,1.03-.35,.1-.6,.04-.89-.15-1.62-1.06-3.29-2.01-5.12-2.67-1.14-.41-2.3-.72-3.53-.64-.25,.02-.39,.09-.49,.35-1.01,2.76-1.29,5.55-.37,8.39,.11,.34,.05,.52-.17,.78-2.04,2.4-3.11,5.18-3.18,8.33-.06,2.49,.18,4.94,.91,7.34,1.26,4.08,3.89,6.89,7.82,8.51,1.88,.77,3.85,1.18,5.85,1.47,.31,.04,.61,.09,.97,.14-.67,.65-1.2,1.34-1.5,2.17-.25,.69-.41,1.41-.62,2.11-.04,.13-.11,.32-.22,.36-1.71,.73-3.47,1.07-5.32,.64-1.9-.44-3.25-1.61-4.27-3.21-.72-1.13-1.55-2.16-2.66-2.93-1.12-.77-2.34-1.06-3.68-.83-.12,.02-.24,.05-.35,.1-.38,.17-.52,.49-.25,.81,.35,.41,.73,.84,1.19,1.1,.89,.5,1.53,1.22,2.1,2.02,.75,1.06,1.38,2.18,1.87,3.39,.8,1.94,2.31,3.07,4.28,3.63,1.82,.52,3.68,.49,5.54,.25,.51-.07,1.01-.14,1.54-.21,0,.11,.02,.21,.02,.31,.01,2.01,.02,4.02,.03,6.03,0,1.03-.7,1.74-1.74,1.69-.45-.03-.91-.13-1.33-.28-9.55-3.57-16.32-10.05-20.25-19.46C1.01,43.6,.24,39.93,.06,36.13c0-.12-.04-.24-.06-.36,0-1.18,0-2.37,0-3.55,.07-.7,.13-1.39,.22-2.09,.53-4.28,1.81-8.33,3.87-12.12,3.05-5.6,7.32-10.03,12.8-13.27C21.4,2.07,26.27,.54,31.49,.13,32.02,.08,32.56,.04,33.09,0c.8,0,1.61,0,2.41,0Z"/></g></g></svg>