<?xml version="1.0" encoding="UTF-8"?><svg id="Layer_2" xmlns="http://www.w3.org/2000/svg" viewBox="0 0 66.88 66.87"><g id="Layer_1-2"><g id="_1AxB4Q"><path d="M66.87,33.44c0,9.49,0,18.98,0,28.47,0,2.35-1.43,4.23-3.65,4.79-.41,.1-.85,.16-1.27,.16-19.02,0-38.04,0-57.05,0-2.76,0-4.89-2.11-4.89-4.87C0,42.94,0,23.88,0,4.83,0,2.04,2.12,0,4.98,0c15.41,0,30.81,0,46.22,0,3.59,0,7.19,0,10.78,0,2.24,0,4.15,1.39,4.7,3.47,.15,.55,.19,1.14,.19,1.72,.01,9.42,0,18.83,0,28.25Zm-31.27-4.22c0-1.19-.02-2.39,.01-3.58,.01-.52-.16-.67-.67-.67-2.77,.02-5.54,.02-8.31,0-.51,0-.67,.14-.67,.67,.01,10.26,.01,20.52,0,30.77,0,.51,.13,.67,.66,.67,2.85-.02,5.69-.01,8.54-.01q.86,0,.86-.85c0-5.02,0-10.03,0-15.05,0-1.56,.08-3.1,.6-4.59,.57-1.65,1.62-2.81,3.34-3.27,.45-.12,.92-.18,1.38-.22,2.58-.23,4.57,.78,5.19,3.37,.31,1.28,.44,2.62,.46,3.94,.05,5.28,.02,10.56,.02,15.84q0,.84,.81,.84c2.85,0,5.69,0,8.54,0q.8,0,.8-.8c0-5.48,0-10.97,0-16.45,0-2.6-.12-5.2-.78-7.74-.59-2.24-1.57-4.27-3.48-5.68-2.96-2.18-6.35-2.52-9.85-2.01-3.16,.47-5.63,2.11-7.44,4.83Zm-15.74,11.86c0-5.13,0-10.25,.01-15.38,0-.56-.15-.74-.73-.74-2.88,.03-5.76,.02-8.64,0-.52,0-.71,.11-.71,.68,.02,10.25,.01,20.51,0,30.76,0,.5,.12,.68,.65,.67,2.88-.03,5.76-.01,8.64-.01,.77,0,.77,0,.77-.77,0-5.07,0-10.14,0-15.21Zm.84-26.16c0-3.18-2.69-5.86-5.88-5.85-3.2,0-5.8,2.63-5.81,5.84,0,3.25,2.59,5.88,5.82,5.88,3.2,0,5.86-2.65,5.87-5.86Z"/></g></g></svg>