<?xml version="1.0" encoding="UTF-8"?><svg id="Layer_2" xmlns="http://www.w3.org/2000/svg" viewBox="0 0 288 216"><defs><style>.cls-1{fill:#f05b41;}.cls-2{fill:#fff4e4;}.cls-3{fill:#1e323c;}</style></defs><g id="Layer_1-2"><g><rect class="cls-3" width="288" height="216"/><g><g><path class="cls-2" d="M220.45,78.85l-72.27-13.14c-2.77-.5-5.6-.5-8.37,0l-72.27,13.14c-3.03,.55-5.23,3.19-5.23,6.27v44.36c0,3.08,2.2,5.72,5.23,6.27l72.27,13.14c2.77,.5,5.6,.5,8.37,0l72.27-13.14c3.03-.55,5.23-3.19,5.23-6.27v-44.36c0-3.08-2.2-5.72-5.23-6.27Z"/><g><path class="cls-1" d="M82.38,104.89c-1.79,.13-3.16,1.69-3.16,3.48v10.18c0,1.78,1.37,3.3,3.15,3.34,1.9,.05,3.48-1.54,3.48-3.42v-10.38c0-1.88-1.57-3.34-3.47-3.2Z"/><path class="cls-1" d="M191.63,103.04c0-2.52,0-5.04,0-7.56,0-.97-.76-1.7-1.72-1.68,0,0-.01,0-.01,.01,0,3.72,0,7.44,0,11.15,0,0,0,.01,.01,0,.95-.12,1.72-.96,1.72-1.93Z"/><path class="cls-1" d="M157.63,122.87c-.12-.05-.26-.07-.42-.07-.16,0-.31,0-.47,.02l-1.11,.14v1.75l1-.12c.15-.02,.31-.04,.48-.08,.17-.03,.32-.08,.46-.15,.14-.07,.25-.17,.34-.3,.09-.13,.14-.29,.14-.5,0-.2-.04-.35-.12-.45-.08-.11-.18-.18-.3-.23Z"/><path class="cls-1" d="M147.52,127.18c-.14-.04-.29-.06-.44-.06-.16,0-.31,0-.44,.02l-1.28,.16v1.75l1.52-.19c.13-.02,.26-.05,.4-.09,.13-.05,.25-.11,.36-.2,.11-.09,.2-.19,.27-.31,.07-.12,.1-.27,.1-.43,0-.18-.05-.32-.14-.42-.09-.1-.2-.17-.34-.21Z"/><path class="cls-1" d="M146.96,125.62c.13-.04,.24-.11,.34-.18,.1-.08,.18-.17,.24-.29,.06-.12,.09-.25,.09-.4s-.03-.29-.1-.38c-.07-.1-.16-.17-.27-.21-.11-.04-.23-.07-.37-.08-.14,0-.27,0-.4,.01l-1.15,.14v1.64l1.23-.15c.13-.02,.26-.05,.38-.09Z"/><path class="cls-1" d="M178.85,106.01c.92-.21,1.58-1.1,1.58-2.02v-7.42c0-.93-.66-1.69-1.58-1.71-1.1-.03-2.04,.93-2.04,2v7.56c0,1.07,.94,1.84,2.04,1.59Z"/><path class="cls-1" d="M202.16,117.41c-.12-.05-.26-.07-.42-.07-.16,0-.31,0-.47,.02l-1.11,.14v1.75l1-.12c.15-.02,.31-.04,.48-.08,.17-.03,.32-.08,.46-.15,.14-.07,.25-.17,.34-.3,.09-.13,.14-.3,.14-.5,0-.2-.04-.35-.12-.45-.08-.11-.18-.18-.3-.23Z"/><path class="cls-1" d="M103.27,113.27v-7.56c0-1-.81-1.74-1.8-1.66,0,0-.01,0-.01,.01v11.16s0,0,.01,0c.99-.09,1.8-.97,1.8-1.96Z"/><path class="cls-1" d="M220.45,78.85l-72.27-13.14c-2.77-.5-5.6-.5-8.37,0l-72.27,13.14c-3.03,.55-5.23,3.19-5.23,6.27v44.36c0,3.08,2.2,5.72,5.23,6.27l72.27,13.14c2.77,.5,5.6,.5,8.37,0l72.27-13.14c3.03-.55,5.23-3.19,5.23-6.27v-44.36c0-3.08-2.2-5.72-5.23-6.27Zm.95,49.13c0,2.26-1.62,4.18-3.86,4.55l-69.94,11.62c-1.19,.2-2.4,.3-3.61,.3s-2.42-.1-3.61-.3l-69.94-11.62c-2.23-.37-3.85-2.28-3.85-4.55v-41.36c0-2.26,1.62-4.18,3.85-4.55l69.94-11.62c2.38-.4,4.84-.4,7.21,0l69.94,11.62c2.23,.37,3.85,2.29,3.85,4.55v41.36Z"/><path class="cls-1" d="M217.07,84.9l-69.94-11.62c-1.03-.17-2.09-.26-3.14-.26s-2.1,.09-3.14,.26l-69.94,11.62c-.85,.14-1.46,.87-1.46,1.72v41.36c0,.86,.61,1.58,1.46,1.72l69.94,11.62c2.07,.34,4.21,.34,6.27,0l69.94-11.62c.85-.14,1.46-.86,1.46-1.72v-41.36c0-.86-.61-1.58-1.46-1.72Zm-119.56,15.52s0-.01,0-.01c1.31-.09,2.61-.2,3.92-.3,3.18-.26,5.76,2.06,5.76,5.25v7.54c0,3.18-2.58,6.01-5.76,6.27-1.31,.11-2.62,.21-3.93,.3v-19.05Zm-7.91,17.89c0,3.97-3.29,7.36-7.28,7.34-3.84-.01-6.85-3.28-6.85-7.13v-10.07c0-3.85,3.01-7.1,6.86-7.31,3.99-.21,7.27,2.82,7.27,6.79v10.38Zm29.93-16.21s0,.01,0,.01c-2.1,.25-4.2,.48-6.3,.71,0,0,0,0,0,.01v10.96s0,.01,.01,0c.39-.19,.78-.37,1.19-.53,.97-.39,1.93-.77,2.9-1.16,0,0,.01,0,.01,0,0,1.3,0,2.59,0,3.89-.62,.25-1.25,.5-1.87,.75-.78,.31-1.52,.69-2.24,1.14v1.81c2.11-.23,4.21-.46,6.32-.71v3.75c-2.11,.25-4.21,.48-6.32,.71-.63,.07-1.25,.13-1.88,.2-.63,.06-1.25,.13-1.88,.19v-2.95c-2.75,2.18-6.01,3.53-9.32,3.79-1.65,.13-3.3,.25-4.95,.36-.06,0-.13,0-.19,.01-1.25,.08-2.5,.16-3.75,.23v-24.38s0,0,0-.01c1.31-.07,2.61-.15,3.92-.24,0,0,0,0,0,0,0,6.88,0,13.75,0,20.63,1.65-.11,3.3-.23,4.95-.36,2.94-.23,5.83-1.56,8.14-3.73,.02-.02,.04-.04,.07-.06,.36-.34,.73-.66,1.11-.96v-16.71s0-.01,0-.01c.62-.06,1.24-.13,1.87-.19,.63-.06,1.25-.13,1.88-.2,2.1-.23,4.21-.46,6.31-.71,0,0,0,0,0,0v3.73Zm20.48,11.22v6.79c-1.31,.18-2.63,.35-3.94,.52v-3.14c0-.78-.34-1.47-.94-1.9-1.9-1.37-3.59-1.75-5.31-1.73v7.59c-1.31,.17-2.63,.34-3.94,.5v-7.82c-2.35,.27-3.95,.66-3.99,.67v-3.95s0,0,0-.01c.2-.05,1.45-.35,3.97-.65,0,0,.01,0,.01-.01v-12.6s0-.01,0-.01c1.31-.16,2.61-.33,3.92-.5,0,0,0,0,0,0v12.82s0,0,0,0c1.96-.05,4.53,.26,6.22,1.71,0,0,.02,0,.02,0v-15.35s0-.01,0-.01c1.31-.17,2.61-.35,3.92-.52,0,0,0,0,0,0v17.5s.02,0,.04,.01c-.01,.03-.02,.05-.04,.08Zm32.85-16.04c0-3.04,2.36-5.79,5.35-6.3,3.38-.58,6.15,1.92,6.15,5.3v7.41c0,3.04-2.36,5.73-5.35,6.24-3.38,.57-6.15-1.85-6.15-5.24v-7.41Zm-31.17-1.77s0-.01,0-.01c1.31-.18,2.61-.35,3.92-.53,0,0,0,0,0,0,0,8.13,0,16.25,0,24.38-1.31,.18-2.63,.35-3.94,.53v-24.38Zm7.74,33.34c-.17,.29-.4,.54-.67,.74-.27,.2-.58,.36-.93,.47-.34,.11-.69,.19-1.02,.23l-3.14,.39v-7.68l2.86-.35c.33-.04,.67-.06,1-.05,.34,0,.64,.06,.91,.17,.27,.11,.48,.28,.65,.51,.17,.23,.25,.56,.25,.98s-.12,.81-.36,1.12c-.24,.32-.56,.56-.96,.73v.02c.25,0,.48,.05,.69,.13,.21,.08,.38,.19,.53,.34,.15,.14,.26,.32,.34,.53,.08,.21,.12,.43,.12,.68,0,.4-.09,.75-.26,1.05Zm1.82-10.89c-2.91-1.17-4.33-4.74-4.33-10.94s1.42-10.16,4.33-12.1c1.53-1.02,3.38-1.36,5.36-.97,1.33,.26,1.54,.86,1.65,.93,0,0,0,0,0,0v4.02s0,.01-.01,.01c-.25-.13-3.74-1.91-5.24-.9-1.48,.99-2.33,4.09-2.33,8.5s.85,7.29,2.34,7.89c1.56,.62,5.23-2.26,5.25-2.27,0,1.35,0,2.69,0,4.04-.12,.1-1.6,1.76-4.19,2.1-.92,.12-1.89,.06-2.82-.31Zm6.83,10.95l-1.6-2.87-.83,.1v3.07l-1.69,.21v-7.68l2.97-.36c.39-.05,.76-.06,1.11-.02,.35,.03,.66,.12,.92,.27,.26,.15,.47,.36,.63,.64,.16,.28,.23,.65,.23,1.09,0,.54-.14,1.02-.42,1.43-.28,.41-.69,.7-1.24,.87l1.95,3-2.03,.25Zm11.62-1.43l-5.41,.66v-7.68l5.21-.64v1.56l-3.52,.43v1.43l3.33-.41v1.56l-3.33,.41v1.56l3.72-.46v1.56Zm-6.05-15.56v5.09c-1.31,.16-2.63,.33-3.94,.49v-24.38s0-.01,0-.01c1.31-.17,2.61-.33,3.92-.49,0,0,0,0,0,0v10.61s.01,.01,.02,0c1.62-3.74,3.24-7.47,4.86-11.2,0,0,0,0,0,0,1.44-.17,2.88-.34,4.32-.5,0,0,.01,0,0,.01-2.41,5.54-4.83,11.09-7.24,16.66,0,0,0,.01,0,.01,1.43,.39,3.5,1.19,6.53,2.47,8.04,3.4,12.15-2.6,12.2-2.64v4.3c-.2,.14-1.06,2.45-7.07,3.06-2.18,.23-4.63,.03-7.07-1.07-3.41-1.54-5.48-2.15-6.57-2.41Zm18.5,14.03l-1.51,.19-1.69-5.1h-.02s-1.69,5.52-1.69,5.52l-1.45,.18-2.28-7.4,1.84-.23,1.22,4.77h.02s1.61-5.12,1.61-5.12l1.57-.19,1.59,4.86h.02s1.29-5.21,1.29-5.21l1.71-.21-2.24,7.95Zm3.83-35.78s0-.01,0-.01c1.31-.11,2.62-.21,3.93-.31h0c3.13-.18,5.67,2.23,5.67,5.38v7.56c0,2.12-1.15,4.04-2.86,5.15,2.27,1.12,5.07,1.88,7.94,1.76,1.84-.08,3.35-.57,4.55-1.5-3.79-.05-6.83-3.49-6.83-7.89v-10.97s0,0,0-.01c1.31-.06,2.61-.12,3.92-.17,0,0,0,0,0,0v10.97c0,2.29,1.44,4.17,3.14,4.13,1.7-.04,3.14-2,3.14-4.29v-10.97s0,0,0,0c1.31-.02,2.61-.03,3.92-.03,0,0,0,0,0,0v10.97c0,.51-.04,1.01-.12,1.5h0c-.03,.61-.25,3.18-1.53,5.77-1.4,2.83-4.31,6.18-10.22,6.43-4.13,.18-7.9-1.03-10.74-2.59,0,1.07,0,2.13,0,3.2-1.31,.1-2.63,.2-3.94,.31,0-8.13,0-16.25,0-24.38Zm7.9,34.34l-5.41,.66v-7.68l5.21-.64v1.56l-3.52,.43v1.43l3.33-.41v1.56l-3.33,.41v1.56l3.72-.46v1.56Zm8.74-1.07l-1.6-2.87-.83,.1v3.07l-1.69,.21v-7.68l2.97-.36c.39-.05,.76-.06,1.11-.02,.35,.03,.66,.12,.92,.27,.26,.15,.47,.36,.63,.64,.16,.28,.23,.65,.23,1.09,0,.54-.14,1.02-.42,1.43-.28,.41-.69,.7-1.24,.87l1.95,3-2.03,.25Zm9.32-4.42v3.27l-1.69,.21v-3.27l-2.88-4.05,2.1-.26,1.63,2.67,1.72-3.09,2.01-.25-2.88,4.76Z"/></g></g><g><path class="cls-2" d="M103.83,163.24l-1.74-.33-.45,2.42-2.14-.4,1.19-6.36,2.13,.4-.4,2.16,1.74,.33,.4-2.16,2.15,.4-1.19,6.36-2.14-.4,.45-2.42Z"/><path class="cls-2" d="M110.48,160.28l2.17,.32-.94,6.4-2.17-.32,.94-6.4Z"/><path class="cls-2" d="M115.8,164.3c.06-.52,.2-.97,.43-1.37s.52-.73,.86-.99c.35-.26,.74-.45,1.19-.56,.44-.11,.91-.14,1.39-.09,.5,.05,.96,.19,1.38,.4,.42,.21,.77,.47,1.04,.77l-1.5,1.45c-.1-.17-.24-.31-.41-.41-.17-.1-.37-.17-.6-.19-.18-.02-.35,0-.52,.04-.16,.05-.31,.12-.44,.23-.13,.11-.24,.24-.33,.41-.09,.17-.14,.35-.16,.57-.02,.21,0,.4,.04,.58,.05,.17,.13,.33,.23,.46,.1,.13,.23,.24,.38,.32s.31,.13,.49,.15c.25,.03,.47,0,.66-.08,.19-.08,.34-.19,.46-.32l1.15,1.74c-.32,.26-.71,.45-1.15,.58s-.93,.16-1.47,.1c-.48-.05-.93-.19-1.34-.4-.41-.21-.75-.48-1.04-.82s-.49-.72-.63-1.15-.18-.91-.12-1.42Z"/><path class="cls-2" d="M127.25,166.06h-.02s-.18,2.57-.18,2.57l-2.11-.14,.44-6.46,2.1,.14-.16,2.38h.02s1.89-2.26,1.89-2.26l2.55,.17-2.63,2.79,2.31,3.68-2.66-.18-1.55-2.69Z"/><path class="cls-2" d="M134.13,165.78c.01-.52,.12-.98,.31-1.4,.19-.41,.45-.76,.78-1.04s.71-.5,1.16-.65c.44-.15,.92-.21,1.43-.2,.51,.01,.98,.11,1.42,.28,.43,.17,.81,.41,1.12,.71s.56,.66,.73,1.08,.25,.89,.24,1.41c-.01,.52-.12,.99-.31,1.41-.19,.42-.46,.78-.79,1.07-.33,.29-.72,.52-1.16,.67-.44,.15-.92,.22-1.43,.21-.51-.01-.99-.11-1.42-.28-.43-.18-.81-.42-1.12-.73s-.55-.68-.73-1.11c-.17-.43-.25-.91-.24-1.42Zm2.31,.06c0,.21,.02,.41,.08,.59s.14,.33,.25,.46c.11,.13,.24,.23,.4,.31s.33,.11,.51,.12c.18,0,.35-.03,.51-.09,.16-.07,.3-.16,.41-.29,.12-.12,.21-.27,.28-.45,.07-.17,.11-.37,.11-.58,0-.21-.02-.4-.08-.57s-.15-.32-.26-.45c-.11-.12-.25-.22-.4-.29-.15-.07-.32-.11-.5-.11-.18,0-.35,.02-.51,.09-.16,.06-.3,.15-.41,.27s-.21,.26-.28,.43c-.07,.17-.11,.36-.11,.57Z"/><path class="cls-2" d="M144.93,162.77l2.79-.04c.32,0,.63,.02,.95,.08,.32,.06,.6,.17,.85,.33s.45,.37,.61,.64c.16,.27,.24,.61,.24,1.02,0,.4-.09,.75-.28,1.05s-.47,.54-.83,.71l1.68,2.6-2.5,.04-1.28-2.29h-.06s.04,2.31,.04,2.31l-2.11,.03-.1-6.47Zm2.14,2.7h.43c.07,0,.15-.01,.24-.03s.17-.04,.24-.08c.07-.04,.14-.1,.19-.17,.05-.07,.07-.16,.07-.28,0-.12-.02-.21-.07-.27s-.1-.12-.17-.15-.14-.05-.22-.06c-.08,0-.15-.01-.22-.01h-.52s.02,1.05,.02,1.05Z"/><path class="cls-2" d="M158.1,168.82l-2.17,.12-.15-2.65-2.65-3.68,2.62-.14,1.13,1.84,.87-1.95,2.56-.14-2.36,3.96,.15,2.65Z"/><path class="cls-2" d="M162.79,169.6l.5-2.92,1.99-.17-.79,2.94-1.69,.15Z"/><path class="cls-2" d="M173.16,160.92l2.14-.31,2.3,2.98h.04s-.56-3.24-.56-3.24l2.04-.3,.93,6.41-2.2,.32-2.22-2.8h-.04s.54,3.05,.54,3.05l-2.05,.3-.93-6.41Z"/><path class="cls-2" d="M183.2,162.64c-.1-.51-.1-.99,0-1.43,.1-.45,.28-.85,.53-1.2s.58-.65,.97-.89c.39-.24,.83-.41,1.3-.5,.49-.09,.97-.11,1.44-.03,.47,.07,.87,.22,1.22,.43l-1.01,1.83c-.15-.13-.32-.22-.52-.27-.2-.05-.4-.05-.62,0-.18,.03-.34,.1-.48,.19s-.26,.21-.36,.35c-.09,.14-.16,.3-.19,.49-.03,.18-.03,.38,.01,.59,.04,.21,.11,.39,.21,.54,.1,.15,.22,.28,.36,.37,.14,.1,.29,.16,.46,.2,.17,.03,.34,.03,.51,0,.25-.05,.45-.14,.6-.27,.16-.14,.27-.28,.35-.44l1.61,1.32c-.23,.34-.54,.64-.93,.89-.39,.25-.85,.43-1.38,.53-.48,.09-.94,.1-1.4,.02-.45-.08-.86-.24-1.23-.47-.37-.24-.68-.54-.94-.92-.26-.38-.44-.81-.53-1.32Z"/></g><g><path class="cls-2" d="M104.55,49.69l4.39-.73,.3,1.79-2.37,.39,.09,.55,2.23-.37,.28,1.67-2.23,.37,.1,.6,2.53-.42,.3,1.79-4.55,.76-1.06-6.39Z"/><path class="cls-2" d="M115.76,54.73c-.26,.03-.52,.04-.77,.03s-.51-.05-.75-.11-.48-.13-.7-.22c-.22-.09-.42-.2-.6-.32l1.14-1.59c.17,.14,.39,.26,.66,.36,.27,.1,.53,.13,.8,.09,.12-.02,.23-.05,.32-.11,.1-.06,.13-.14,.12-.26,0-.06-.03-.11-.07-.15-.04-.04-.1-.07-.19-.11-.09-.04-.21-.07-.37-.11-.15-.04-.35-.08-.58-.12-.23-.05-.45-.11-.66-.18s-.4-.18-.58-.3c-.17-.13-.32-.29-.43-.48s-.19-.43-.23-.71c-.05-.4-.01-.75,.12-1.05,.13-.3,.31-.55,.54-.77s.51-.38,.82-.5,.62-.2,.94-.24c.42-.05,.86-.03,1.32,.08,.46,.11,.87,.3,1.25,.56l-1.17,1.54c-.17-.16-.36-.28-.59-.35-.22-.07-.42-.09-.59-.07-.16,.02-.28,.06-.37,.12-.09,.06-.13,.14-.12,.24,.01,.1,.07,.16,.18,.2,.11,.04,.27,.08,.51,.12,.24,.04,.49,.1,.76,.16,.27,.06,.52,.16,.75,.29,.23,.13,.43,.29,.6,.5,.17,.21,.27,.48,.31,.81,.05,.39,.01,.73-.1,1.04-.12,.31-.29,.57-.52,.79s-.49,.4-.79,.53c-.3,.13-.62,.22-.94,.26Z"/><path class="cls-2" d="M124.95,53.58l-2.17,.19-.41-4.62-1.58,.14-.16-1.83,5.34-.47,.16,1.83-1.58,.14,.41,4.62Z"/><path class="cls-2" d="M131.61,46.64l-.76,2.63-1.5,.09,.53-2.61,1.73-.1Z"/><path class="cls-2" d="M135.59,52.93l-.15-6.47,2.41-.06c.51-.01,1,.03,1.47,.12,.47,.09,.88,.25,1.25,.49s.65,.56,.88,.96c.22,.4,.34,.92,.36,1.54,.01,.57-.08,1.06-.27,1.48-.19,.42-.46,.76-.79,1.04-.33,.27-.72,.48-1.17,.62-.44,.14-.9,.21-1.39,.22l-2.6,.06Zm1.99-4.67l.06,2.75h.4c.51-.02,.9-.14,1.17-.37,.27-.23,.4-.59,.39-1.1,0-.42-.15-.74-.43-.97-.28-.23-.65-.34-1.1-.33h-.48Z"/><path class="cls-2" d="M152.55,48.78l-1.12,.71-.96-1.63,2.35-1.37,2.01,.08-.25,6.47-2.19-.08,.16-4.17Z"/><path class="cls-2" d="M161.5,51.42c-.28-.02-.55-.09-.8-.21-.26-.11-.48-.27-.67-.47-.19-.2-.34-.44-.44-.71-.1-.28-.14-.59-.11-.94,.03-.41,.14-.76,.31-1.05,.18-.3,.4-.54,.68-.72,.28-.19,.59-.32,.94-.39,.35-.08,.71-.1,1.09-.07,.38,.03,.73,.11,1.06,.23,.33,.13,.62,.3,.87,.52,.25,.22,.43,.49,.56,.81s.18,.68,.14,1.1c-.03,.41-.14,.78-.33,1.12-.19,.34-.4,.65-.64,.94l-1.64,1.95-2.63-.21,1.68-1.85,.05-.05h-.1Zm.74-1.49c.19,.01,.36-.03,.49-.15,.13-.11,.21-.26,.22-.44,.01-.19-.04-.35-.15-.49-.11-.14-.27-.21-.46-.23-.21-.02-.38,.03-.51,.15-.13,.12-.21,.27-.22,.46-.01,.18,.04,.34,.15,.47,.11,.13,.28,.21,.48,.23Z"/><path class="cls-2" d="M170.54,52.29c-.28-.03-.54-.11-.8-.24-.25-.12-.47-.29-.65-.5-.18-.21-.32-.45-.41-.73-.09-.28-.12-.59-.08-.94,.05-.4,.17-.75,.36-1.04,.19-.29,.42-.52,.71-.69,.29-.17,.6-.29,.95-.36,.35-.06,.71-.07,1.09-.03,.37,.05,.73,.14,1.05,.28,.33,.14,.61,.33,.84,.56s.41,.51,.53,.83c.11,.32,.15,.69,.1,1.1-.05,.41-.17,.78-.38,1.11s-.43,.64-.68,.91l-1.72,1.88-2.62-.31,1.75-1.78,.05-.05h-.1Zm.8-1.46c.19,.02,.36-.02,.5-.13,.14-.11,.22-.25,.24-.43,.02-.19-.02-.35-.13-.49-.11-.14-.26-.22-.45-.25-.21-.02-.38,.02-.52,.13-.14,.11-.22,.26-.24,.45-.02,.18,.02,.34,.13,.48,.11,.14,.27,.22,.47,.24Z"/><path class="cls-2" d="M181.99,56l-1.95-.32,.18-1.13-3.08-.5,.29-1.75,2.99-3.11,2.6,.43-.59,3.58,.87,.14-.28,1.68-.86-.14-.18,1.13Zm-1.23-4.74l-1.33,1.44,1.1,.18,.26-1.61h-.04Z"/></g></g></g></g></svg>