<?xml version="1.0" encoding="UTF-8"?><svg id="Layer_2" xmlns="http://www.w3.org/2000/svg" viewBox="0 0 288 216"><defs><style>.cls-1{fill:#003231;}.cls-2{fill:#fdce8b;}.cls-3{fill:#f05a28;}</style></defs><g id="Layer_1-2"><g><rect class="cls-3" width="288" height="216"/><g><g><path class="cls-1" d="M247.54,31.99c-1.69-4.11-9.5-6.04-19.37-6.04-14.63,0-33.79,4.25-44.34,12v.02c-12.29-5.25-26.15-7.16-39.83-7.16s-27.54,1.92-39.84,7.16v-.02c-10.54-7.75-29.7-12-44.33-12-9.87,0-17.67,1.94-19.37,6.04-4.21,10.19,4.21,36.92,24.61,46.13l.03-.03c-13.34,16.45-22.62,48.36-17.11,77.7,.6-.1,1.2-.15,1.81-.15,5.94,0,12.38,4.72,18.53,9.25-2.71,.88-7.01,2.01-11.33,2.01,0,0,10.37,6.89,21.05,6.89,1.89,0,3.79-.22,5.64-.72-2.18,8.12,.95,18.79,10.82,18.79,.22,0,.44,0,.66-.02,10.39-.49,32.56-9.92,37.18-14.86,2.2,3.63,6.79,5.4,10.61,5.4,.35,0,.69-.01,1.02-.04,.33,.03,.67,.04,1.02,.04,3.82,0,8.41-1.77,10.61-5.4,4.63,4.93,26.79,14.37,37.18,14.86,.22,.01,.45,.02,.66,.02,9.87,0,13.01-10.67,10.82-18.79,1.85,.51,3.75,.72,5.64,.72,10.68,0,21.05-6.89,21.05-6.89-4.31,0-8.62-1.13-11.33-2.01,6.15-4.53,12.59-9.25,18.53-9.25,.61,0,1.21,.05,1.81,.15,5.5-29.34-3.77-61.25-17.11-77.7l.03,.03c20.4-9.21,28.82-35.93,24.61-46.13Z"/><path class="cls-3" d="M247.53,56.82c4.42-9.75,5.64-19.99,3.12-26.11-2.77-6.71-13.75-8.12-22.48-8.12-13.41,0-32.75,3.63-44.76,11.56-11.2-4.45-24.45-6.71-39.4-6.71s-28.2,2.26-39.4,6.71c-12.01-7.93-31.35-11.56-44.76-11.56-8.73,0-19.71,1.41-22.48,8.12-2.52,6.11-1.3,16.36,3.12,26.11,2.67,5.89,8.6,16.12,19.52,22.47-12.04,17.23-20.79,47.92-15.31,77.12,.3,1.61,1.71,2.74,3.3,2.74,.19,0,.39-.02,.58-.05,.39-.07,.81-.1,1.23-.1,3.13,0,6.81,1.89,10.49,4.31-1.08,.14-2.19,.22-3.29,.22-1.48,0-2.79,.97-3.22,2.39s.12,2.95,1.36,3.77c.46,.3,11.35,7.45,22.91,7.45,.55,0,1.1-.02,1.64-.05-.2,4.75,1.06,9.41,3.6,12.72,2.71,3.53,6.59,5.4,11.23,5.4,.27,0,.54,0,.82-.02,8.6-.4,27.96-7.41,36.61-13.51,3.28,2.94,7.71,4.06,11.02,4.06,.34,0,.68-.01,1.02-.03,.33,.02,.68,.03,1.02,.03,3.31,0,7.74-1.12,11.02-4.06,8.65,6.1,28.02,13.11,36.61,13.51,.28,.01,.55,.02,.82,.02,4.64,0,8.52-1.87,11.23-5.4,2.53-3.31,3.8-7.97,3.6-12.72,.54,.03,1.09,.05,1.64,.05,11.57,0,22.46-7.14,22.91-7.45,1.24-.82,1.79-2.35,1.36-3.77-.43-1.42-1.74-2.39-3.22-2.39-1.1,0-2.21-.08-3.29-.22,3.68-2.42,7.36-4.31,10.49-4.31,.42,0,.84,.03,1.23,.1,.2,.03,.39,.05,.58,.05,1.59,0,3-1.13,3.3-2.74,5.48-29.2-3.28-59.9-15.31-77.12,10.93-6.35,16.85-16.58,19.52-22.47Zm-24.6,21.3l-.03-.03c13.34,16.45,22.62,48.36,17.11,77.7-.6-.1-1.2-.15-1.81-.15-5.94,0-12.38,4.72-18.53,9.25,2.71,.88,7.01,2.01,11.33,2.01,0,0-10.37,6.89-21.05,6.89-1.89,0-3.79-.22-5.64-.72,2.18,8.12-.95,18.79-10.82,18.79-.22,0-.44,0-.66-.02-10.39-.49-32.56-9.92-37.18-14.86-2.21,3.63-6.79,5.4-10.61,5.4-.35,0-.69-.01-1.02-.04-.33,.03-.67,.04-1.02,.04-3.82,0-8.41-1.77-10.61-5.4-4.63,4.93-26.79,14.37-37.18,14.86-.22,.01-.44,.02-.66,.02-9.87,0-13.01-10.67-10.82-18.79-1.85,.51-3.75,.72-5.64,.72-10.68,0-21.05-6.89-21.05-6.89,4.31,0,8.62-1.13,11.33-2.01-6.15-4.53-12.59-9.25-18.53-9.25-.61,0-1.21,.05-1.81,.15-5.5-29.34,3.77-61.25,17.11-77.7l-.03,.03c-20.4-9.21-28.82-35.93-24.61-46.13,1.7-4.11,9.5-6.04,19.37-6.04,14.63,0,33.79,4.25,44.34,12v.02c12.29-5.25,26.15-7.16,39.83-7.16s27.54,1.92,39.84,7.16v-.02c10.54-7.75,29.7-12,44.33-12,9.87,0,17.67,1.94,19.37,6.04,4.21,10.19-4.21,36.92-24.61,46.13Z"/></g><g><path class="cls-2" d="M117.88,144.16c-1-.73-4.4-6.24-4.38-9.71-1.81-2.11-3.89-4.33-4.36-7.62-3.29,5.66-25.78,11.85-31.26,10.94-8.04-23.93,8.04-48.95,19-56.99,2.59-1.9,5.61-3.37,8.77-4.68-.98,1.53-1.56,3.35-1.56,5.3,0,5.45,4.42,9.86,9.86,9.86s9.86-4.42,9.86-9.86c0-4.51-3.03-8.31-7.17-9.48,6.48-2.57,12.19-5.62,14.57-11.42,4.84-11.78-23.38-6.76-48.77,8.22-25.39,14.98-32.43,50.69-30.42,81.38,10.96,0,21.06,6.93,30.86,2.37,0,0,.18-7.13,6.32-11.06,8.01-5.11,22.82-.91,28.67,2.74Z"/><path class="cls-2" d="M114.82,110.83c-.97-.56-1.99-1.04-3.01-1.44-2.5-.98-5.12-1.55-7.77-1.87-2.65-.28-5.33-.32-7.97,.02-2.63,.32-5.27,.99-7.6,2.26,2.61-.38,5.16-.52,7.71-.52,2.55,.03,5.09,.16,7.61,.47,2.52,.27,5.02,.71,7.49,1.31,1.06,.28,2.12,.59,3.16,.95-.16,.53-.3,1.06-.42,1.6-.2,.86-.35,1.69-.46,2.5-1.28-.44-2.6-.78-3.92-1.06-2.7-.58-5.46-.83-8.22-.9-2.76-.02-5.54,.15-8.26,.72-2.71,.55-5.42,1.43-7.71,3,2.66-.71,5.29-1.05,7.95-1.27,2.65-.2,5.32-.26,7.98-.21,2.67,.02,5.33,.18,8,.39,1.35,.12,2.69,.26,4.04,.43-.11,1.12-.15,2.19-.1,3.2-.81-.16-1.63-.3-2.45-.41-2.58-.34-5.2-.39-7.8-.24-2.6,.21-5.21,.62-7.71,1.44-2.49,.8-4.94,1.96-6.87,3.73,2.41-.96,4.83-1.58,7.29-2.04,2.46-.43,4.94-.74,7.44-.89,2.5-.19,5.01-.23,7.54-.25,.89,0,1.78,.02,2.67,.03,1.22,10.95,11.36,15.03,18.35,12.99,8.21-2.4,9.18-7.42,9.18-9.62,0-7.16-12.13-3.96-14.08-8.17-1.94-4.21,1.43-14.28,17.14-14.28s19.08,10.08,17.14,14.28c-1.94,4.21-14.08,1-14.08,8.17,0,2.2,.97,7.22,9.18,9.62,6.99,2.05,17.13-2.03,18.35-12.99,.89-.01,1.78-.03,2.67-.03,2.53,.02,5.04,.06,7.54,.25,2.5,.16,4.98,.46,7.44,.89,2.46,.46,4.88,1.07,7.29,2.04-1.93-1.76-4.38-2.93-6.87-3.73-2.5-.81-5.11-1.23-7.71-1.44-2.61-.16-5.22-.11-7.8,.24-.82,.11-1.64,.25-2.45,.41,.04-1.01,0-2.08-.1-3.2,1.35-.18,2.69-.31,4.04-.43,2.67-.21,5.33-.36,8-.39,2.66-.06,5.33,0,7.98,.21,2.66,.22,5.29,.56,7.95,1.27-2.28-1.56-5-2.44-7.71-3-2.72-.57-5.5-.74-8.26-.72-2.76,.06-5.52,.32-8.22,.9-1.32,.28-2.63,.62-3.92,1.06-.12-.81-.26-1.64-.46-2.5-.13-.54-.27-1.07-.42-1.6,1.04-.36,2.09-.68,3.16-.95,2.46-.6,4.96-1.04,7.49-1.31,2.52-.31,5.06-.44,7.61-.47,2.55,0,5.1,.14,7.71,.52-2.33-1.27-4.97-1.93-7.6-2.26-2.65-.34-5.32-.3-7.97-.02-2.64,.32-5.27,.89-7.77,1.87-1.02,.4-2.04,.88-3.01,1.44-5.38-15.5-23.84-25.6-29.18-25.6s-23.8,10.1-29.18,25.6Z"/><path class="cls-2" d="M205.56,68.72c-25.39-14.98-53.61-20-48.77-8.22,2.38,5.8,8.09,8.85,14.57,11.42-4.14,1.17-7.17,4.97-7.17,9.48,0,5.45,4.42,9.86,9.86,9.86s9.86-4.42,9.86-9.86c0-1.95-.58-3.77-1.56-5.3,3.16,1.3,6.17,2.78,8.77,4.68,10.96,8.04,27.03,33.06,19,56.99-5.48,.91-27.97-5.27-31.26-10.94-.47,3.3-2.55,5.51-4.36,7.62,.02,3.47-3.38,8.98-4.38,9.71,5.85-3.65,20.66-7.85,28.67-2.74,6.15,3.92,6.32,11.06,6.32,11.06,9.81,4.56,19.9-2.37,30.86-2.37,2.01-30.69-5.03-66.4-30.42-81.38Z"/><path class="cls-2" d="M169.47,137c-2.52,2.36-11.95,3.1-15.25,1.9-3.29-1.21-4.73,3.73-10.22,3.73s-6.93-4.93-10.22-3.73c-3.29,1.21-12.72,.46-15.25-1.9,1.94,4.45,8.63,12.13,25.47,12.13s23.53-7.68,25.47-12.13Z"/></g><g><path class="cls-2" d="M70.16,68.37c-5.99-3.59-15.89-12.33-17.54-22.08,0,0,10.91,12.84,21.07,16.04,.82,.26,1.69-.08,2.16-.8,0-.01,.01-.02,.02-.03,.63-.97,.22-2.27-.85-2.73-4.03-1.72-7.81-4.13-10.38-7.4,0,0,6.96,2.68,14.69,3.87,.64,.1,1.27-.15,1.69-.64,2.49-2.89,5.19-5.46,8.05-7.74,1.03-.82,.91-2.42-.22-3.08-15.39-9.01-37.54-11.03-41.36-5.23-3.86,5.87,6.2,27.28,20.66,33.7,.96,.43,2.08-.03,2.5-.99,.07-.17,.15-.34,.22-.5,.39-.87,.09-1.89-.73-2.38Z"/><path class="cls-2" d="M208.67,55.24c7.74-1.19,14.69-3.87,14.69-3.87-2.58,3.27-6.35,5.68-10.38,7.4-1.07,.46-1.48,1.75-.85,2.73,0,.01,.01,.02,.02,.03,.46,.72,1.34,1.05,2.16,.8,10.16-3.2,21.07-16.04,21.07-16.04-1.65,9.75-11.55,18.5-17.54,22.08-.82,.49-1.12,1.51-.73,2.38,.07,.17,.15,.33,.22,.5,.42,.97,1.54,1.42,2.5,.99,14.46-6.42,24.52-27.83,20.66-33.7-3.82-5.81-25.97-3.78-41.36,5.23-1.13,.66-1.25,2.26-.22,3.08,2.87,2.28,5.56,4.85,8.05,7.74,.42,.49,1.06,.74,1.69,.64Z"/></g><g><path class="cls-3" d="M92.22,145.62c-6.85,5.66-5.21,18.04,2.38,27.86-2.51,.09-5.75-2.03-5.75-2.03-2.38,4.38-2.65,14.9,6.35,15.45,8.99,.55,30.08-8.22,34.87-13.52-2.8-8.02-3.23-16.2,.43-19.54-7.49-4.93-31.41-13.88-38.26-8.22Zm5.47,1.45c3.23-2.52,13.99,1.09,19.7,3.23-4.37,.71-22.93-.71-19.7-3.23Z"/><path class="cls-3" d="M195.78,145.62c-6.85-5.66-30.78,3.29-38.26,8.22,3.65,3.35,3.23,11.53,.43,19.54,4.78,5.3,25.88,14.06,34.87,13.52,8.99-.55,8.18-16.7,.51-25.35,0,0,4.58,.86,5.88,1.97,1.11-2.76,3.43-12.24-3.42-17.9Zm-25.17,4.68c5.7-2.15,16.47-5.75,19.7-3.23,3.23,2.52-15.33,3.94-19.7,3.23Z"/><path class="cls-3" d="M144,153.66c-5.57,0-11.33,1.37-11.33,8.68s2.1,15.62,11.33,15.53c9.23,.09,11.33-8.22,11.33-15.53s-5.76-8.68-11.33-8.68Z"/></g><g><g><circle class="cls-1" cx="113.95" cy="81.4" r="6.97"/><circle class="cls-1" cx="174.05" cy="81.4" r="6.97"/></g><g><path class="cls-1" d="M171.2,67.9c4.75-2.61,14.82-1.79,21.11-5.35-2.06,4.66-14.38,10.76-20.98,7.88-1.08-.47-1.17-1.97-.14-2.54Z"/><path class="cls-1" d="M116.85,67.15c-4.01,3.65-13.99,5.22-19.27,10.16,.91-5.02,11.45-13.84,18.54-12.59,1.16,.2,1.6,1.64,.73,2.43Z"/></g></g></g></g></g></svg>