<?xml version="1.0" encoding="UTF-8"?><svg id="Layer_2" xmlns="http://www.w3.org/2000/svg" viewBox="0 0 288 216"><defs><style>.cls-1{fill:#004a44;}.cls-2{fill:#fff1e2;}.cls-3{fill:#226e6b;}.cls-4{fill:#3e9394;}.cls-5{fill:#5bb9bc;}</style></defs><g id="Layer_1-2"><g><rect class="cls-2" width="288" height="216"/><g id="kcm_primary_darktext"><g><path class="cls-5" d="M100.07,144.68c-2.99-6.3-6.81-12.13-11.33-17.34-16.71,10.96-36.69,17.34-58.16,17.34H100.07Z"/><path class="cls-5" d="M100.07,71.45H30.58c21.47,0,41.46,6.38,58.16,17.34,4.51-5.21,8.33-11.04,11.33-17.34Z"/><path class="cls-4" d="M88.74,88.79c-16.71-10.96-36.69-17.34-58.16-17.34v14.65c17.27,0,33.42,4.79,47.21,13.1,3.98-3.1,7.66-6.59,10.96-10.4Z"/><path class="cls-4" d="M88.74,127.34c-3.3-3.82-6.97-7.3-10.96-10.4-13.78,8.31-29.93,13.1-47.21,13.1v14.65c21.47,0,41.46-6.38,58.16-17.34Z"/><path class="cls-1" d="M30.58,100.74v14.65c11.73,0,22.84-2.63,32.78-7.32-9.94-4.69-21.05-7.32-32.78-7.32Z"/><path class="cls-3" d="M63.36,108.06c-9.94,4.69-21.05,7.32-32.78,7.32v14.65c17.27,0,33.42-4.79,47.21-13.1-4.44-3.46-9.28-6.44-14.42-8.87Z"/><path class="cls-3" d="M77.78,99.19c-13.78-8.31-29.93-13.1-47.21-13.1v14.65c11.73,0,22.84,2.63,32.78,7.32,5.15-2.43,9.98-5.41,14.42-8.87Z"/></g><g><path class="cls-1" d="M116.56,82.02v8.68h-4.57v-19.15h4.57v8.42l5.9-8.42h5.29l-6.75,9.09,7.44,10.06h-5.8l-6.08-8.68Z"/><path class="cls-1" d="M134.09,90.69h-4.24v-14.73h4.03v1.8c.9-1.08,2.57-2.18,4.83-2.18,3.03,0,5.29,2.08,5.29,5.47v9.65h-4.26v-8.37c0-2.18-1.23-3-2.77-3-1.33,0-2.87,1.03-2.87,2.75v8.62Z"/><path class="cls-1" d="M162.82,83.33c0,4.52-3.7,8.09-8.68,8.09s-8.65-3.57-8.65-8.09,3.7-8.09,8.65-8.09,8.68,3.57,8.68,8.09Zm-12.89,0c0,2.49,1.8,4.44,4.21,4.44s4.24-1.98,4.24-4.44-1.8-4.44-4.24-4.44-4.21,1.98-4.21,4.44Z"/><path class="cls-1" d="M170.08,85.66l-3.52,5.03h-4.44l5.44-7.65-4.85-7.08h4.72l3.03,4.83,3.29-4.83h4.47l-5.21,7.16,4.9,7.57h-4.49l-3.34-5.03Z"/><path class="cls-1" d="M189.8,90.69h-5.13l-6.06-14.73h4.75l3.93,10.4,4.08-10.4h4.44l-6.01,14.73Z"/><path class="cls-1" d="M201.15,74.09h-4.31v-3.41h4.31v3.41Zm-.05,16.61h-4.24v-14.73h4.24v14.73Z"/><path class="cls-1" d="M207.49,90.69h-4.24v-20.02h4.24v20.02Z"/><path class="cls-1" d="M213.88,90.69h-4.24v-20.02h4.24v20.02Z"/><path class="cls-1" d="M224.43,91.41c-5.6,0-8.96-3.41-8.96-8.09s3.36-8.09,8.19-8.09c4.54,0,7.98,3.41,7.98,8.11v1.1h-11.65c.36,2.31,1.9,3.54,4.49,3.54,2.11,0,3.54-.72,4.67-1.72l2.39,2.54c-1.62,1.46-3.88,2.59-7.11,2.59Zm-4.31-9.81h6.98c-.46-1.82-1.67-2.9-3.49-2.9s-3.03,1.08-3.49,2.9Z"/><path class="cls-1" d="M125.9,103.17c-1.08-.69-2.41-1.03-3.82-1.03-3.47,0-6.16,2.7-6.16,5.88s2.7,5.98,6.16,5.98c1.41,0,2.75-.33,3.82-1.03v4.39c-1.23,.59-2.62,.85-4.11,.85-6.06,0-10.47-4.54-10.47-10.16s4.42-10.11,10.47-10.11c1.49,0,2.87,.28,4.11,.87v4.36Z"/><path class="cls-1" d="M144.54,110.28c0,4.52-3.7,8.09-8.68,8.09s-8.65-3.57-8.65-8.09,3.7-8.09,8.65-8.09,8.68,3.57,8.68,8.09Zm-12.89,0c0,2.49,1.8,4.44,4.21,4.44s4.24-1.98,4.24-4.44-1.8-4.44-4.24-4.44-4.21,1.98-4.21,4.44Z"/><path class="cls-1" d="M150.34,117.65h-4.26v-14.73h4.08v2.16c.67-1.13,2.11-2.54,4.34-2.54,1.95,0,3.54,1.03,4.31,2.8,.59-1.15,2.03-2.8,4.57-2.8,2.93,0,4.93,2.08,4.93,5.47v9.65h-4.26v-8.37c0-2.21-.9-3-2.31-3-1.23,0-2.41,.87-2.41,2.9v8.47h-4.26v-8.37c0-2.21-.95-3-2.34-3s-2.39,1.03-2.39,2.75v8.62Z"/><path class="cls-1" d="M174.58,117.65h-4.26v-14.73h4.08v2.16c.67-1.13,2.11-2.54,4.34-2.54,1.95,0,3.54,1.03,4.31,2.8,.59-1.15,2.03-2.8,4.57-2.8,2.93,0,4.93,2.08,4.93,5.47v9.65h-4.26v-8.37c0-2.21-.9-3-2.31-3-1.23,0-2.41,.87-2.41,2.9v8.47h-4.26v-8.37c0-2.21-.95-3-2.34-3s-2.39,1.03-2.39,2.75v8.62Z"/><path class="cls-1" d="M204.61,115.85c-.9,1.08-2.57,2.18-4.83,2.18-3.03,0-5.26-2.08-5.26-5.47v-9.65h4.24v8.37c0,2.18,1.23,3,2.77,3,1.36,0,2.87-1.03,2.87-2.75v-8.62h4.24v14.73h-4.03v-1.8Z"/><path class="cls-1" d="M214.93,117.65h-4.24v-14.73h4.03v1.8c.9-1.08,2.57-2.18,4.83-2.18,3.03,0,5.29,2.08,5.29,5.47v9.65h-4.26v-8.37c0-2.18-1.23-3-2.77-3-1.33,0-2.87,1.03-2.87,2.75v8.62Z"/><path class="cls-1" d="M231.19,101.04h-4.31v-3.41h4.31v3.41Zm-.05,16.61h-4.24v-14.73h4.24v14.73Z"/><path class="cls-1" d="M238.5,106.49v11.17h-4.24v-11.17h-1.72v-3.57h1.72v-3.57l4.24-.77v4.34h1.72v3.57h-1.72Z"/><path class="cls-1" d="M249.77,123.3h-4.36l1.9-5.26-6.78-15.12h4.8l4.06,10.19,3.62-10.19h4.42l-7.65,20.38Z"/><path class="cls-1" d="M116.51,144.61h-4.52v-19.15h4.7l5.83,8.29,5.52-8.29h4.65v19.15h-4.52v-10.73l.03-.9-5.52,7.96h-.44l-5.75-8.03,.03,.95v10.75Z"/><path class="cls-1" d="M143.36,145.33c-5.6,0-8.96-3.41-8.96-8.09s3.36-8.09,8.19-8.09c4.54,0,7.98,3.41,7.98,8.11v1.1h-11.65c.36,2.31,1.9,3.54,4.49,3.54,2.11,0,3.54-.72,4.67-1.72l2.39,2.54c-1.62,1.46-3.88,2.59-7.11,2.59Zm-4.31-9.81h6.98c-.46-1.82-1.67-2.9-3.49-2.9s-3.03,1.08-3.49,2.9Z"/><path class="cls-1" d="M164.38,142.5c-1.31,1.59-3.26,2.59-5.67,2.59-4.08,0-7.19-3.36-7.19-7.78s3.11-7.93,7.19-7.93c2.21,0,4.13,.92,5.42,2.41v-7.21h4.24v20.02h-3.98v-2.1Zm-4.31-9.45c-2.36,0-4.11,1.87-4.11,4.16s1.75,4.21,4.11,4.21,4.18-1.93,4.18-4.18-1.82-4.18-4.18-4.18Z"/><path class="cls-1" d="M174.76,128h-4.31v-3.41h4.31v3.41Zm-.05,16.61h-4.24v-14.73h4.24v14.73Z"/><path class="cls-1" d="M185.31,143.25c-.92,1.05-2.34,1.87-4.29,1.87-2.88,0-4.85-2-4.85-4.75s1.95-4.77,5.21-4.77c1.51,0,2.72,.41,3.59,1.05v-.69c0-2.39-1.08-3.03-3.13-3.03-.92,0-1.87,.15-3.65,.49l-.08-3.46c1.8-.36,2.88-.46,4.49-.46,4.42,0,6.6,2,6.6,5.34v9.78h-3.9v-1.36Zm-.31-2.98c0-1.21-.87-2.23-2.23-2.23s-2.23,1.03-2.23,2.23c0,1.31,.87,2.39,2.23,2.39s2.23-1.05,2.23-2.39Z"/></g></g></g></g></svg>