<?xml version="1.0" encoding="UTF-8"?><svg id="Layer_2" xmlns="http://www.w3.org/2000/svg" viewBox="0 0 288 216"><defs><style>.cls-1{fill:#002a41;}.cls-2{fill:#a4c7cf;}</style></defs><g id="Layer_1-2"><g><rect class="cls-2" width="288" height="216"/><g><g><path class="cls-1" d="M171.33,94.1c-5.56,0-9.47,3.11-7.33,10.76,2.99,10.7,4.22,17.43-1.07,17.43-3.48,0-4.64-5.72-1.18-9.95-7.49,0-10.13,13.06,.5,13.06,7.57,0,10.35-6.56,9.41-11.33-1.67-8.5-8.02-15.55-.69-17.14-.38,2.24-.48,5.31,.81,5.31,1.37,0,9.06-8.14-.44-8.14Z"/><path class="cls-1" d="M235.34,97.2c-3.22-.47-5.78,.88-7.86,2.94,.74-1.79,1.42-3.23,2.01-4.18,.95-1.54-4.67-.16-4.96,.65-1.21,1.96-4.79,5.25-8.73,7.56-.07-4.19-1.38-7.4-4.64-8-7.31-1.34-11.63,4.83-13.71,11.65-.51,1.68-.85,3.54-.98,5.38-2.15,3.82-4.5,6.99-5.7,6.99-1.88,0,3.54-17.5,5.59-22.92,1.14-3.02-7.18-6.78-13.61,3.76,4.68-14.48,10.84-28.39,10.39-28.84-.56-.56-2.69-.36-4.45,1.4-1.21,1.21-15.97,37.6-15.97,49.4,0,1.5,4.97,3.29,4.97,1.91,0-2.22,.28-4.75,.76-7.47,3.24-13.76,11.66-19.69,12.54-18.81s-11.36,25.61-.72,25.61c2.24,0,4.6-3.03,6.42-6.34,.63,3.72,2.48,6.66,6.01,6.97,6.54,.58,10.47-5.54,12.2-13.01,.31-1.32,.54-2.64,.7-3.91,2.1-.86,4.3-2.28,6.36-4.57-1.58,3.16-9.63,27.25-9.63,34.51,0,2.16,4.17,3.31,4.17,1.87,0-2.76,1.93-11.05,4.42-19.77h0c2.98,5.34,9.99,3.89,14.63-4.45,4.24-7.62,4.95-17.56-.19-18.31Zm-23.8,4.43c.27,1.22,.35,2.75,.24,4.45-.75,.26-1.48,.49-2.19,.59-3.95,.54-5.19-2.14-4.82-4.28,.3-1.72,1.47-2.47,2.55-2.93,.02,0,.03-.01,.05-.02,1.77-.73,3.76,.31,4.17,2.18Zm-.65,10c-1.6,6.25-4.61,10.47-7.48,10.2-2.26-.21-3.38-5.38-2.08-12.68,.24-1.36,.61-2.6,1.06-3.7,1.02,3.03,4.21,3.7,6.92,3.7,.66,0,1.37-.04,2.13-.13-.14,.86-.33,1.73-.55,2.61Zm14.8,8.34c-2.25,0-2-2.85-1.01-4.88,.99-2.04,2.73-3.26,2.66-3.46-.5-1.22-3.84-.28-3.84-.27,0,0,0,0,0,0,.95-2.92,4.63-10.07,9.73-10.07s-2.05,18.69-7.55,18.69Z"/><path class="cls-1" d="M61.35,110.46c5.63,7.78,26.44,3.44,32.38-19.1,5.39-20.45-9.55-27.76-20.67-27.76-10.54,0-20.99,6.21-23.6,17-1.92,7.94,3.58,9.3,5.99,9.3,1.61,0,.12-2.03,.61-7.68,.18-2.12,2.75-15.81,17-15.81s19.12,13.29,15.14,25.11c-5.36,15.93-16.51,18.9-19.94,18.3-2.93-.51-4.1-2.89-2.39-7.48,2.4-6.44,6.82-5.77,6.82-6.37,0-1-2.36-1.88-4.87-1.43"/><path class="cls-1" d="M122.03,85.54c-.85,2.14-.63,4.31,.76,4.96s3.3-.53,4.27-2.62c.89-1.93,.67-3.95-.45-4.77,8.52-2.8,21,1.87,31.38,4.71-2.19,5.76-4.59,12.5-6.48,18.74h0c-2.36,5.89-7.05,13.64-8.93,13.64s3.54-17.5,5.59-22.92c1.14-3.03-7.22-6.8-13.67,3.85,1.31-3.91,2.3-6.57,2.02-6.85-.56-.56-2.69-.36-4.45,1.4-.6,.6-2.48,5.28-4.21,10.87-2.36,5.89-7.05,13.64-8.93,13.64-1.67,0-1.29-3.9-.76-6.49,.55-2.48,1.21-4.91,1.88-7.15,2.02-6.74,4.15-11.87,3.75-12.27-.56-.56-2.69-.36-4.45,1.4-.6,.6-2.48,5.28-4.21,10.87h0s0,0,0,0c-2.36,5.89-7.05,13.64-8.93,13.64s2.86-17.8,5.59-22.92c1.21-2.27-6.34,.78-10.1-.05,.67-1.91,2.02-4.99,1.85-5.16-.56-.56-4.92-2.98-7.22,.2-2.17,3,.04,5.08,.59,5.38-2.18,5.07-6.52,18.37-6.52,25.34,0,1.5,4.97,3.29,4.97,1.91,0-8.61,3.28-18.66,5.37-24.84,1.24,.6,3.49,1.22,4.55,1.22-6.75,17.45-3.62,22.94,.41,22.94,2.66,0,5.49-4.28,7.4-8.22,0,.36,.02,.73,.04,1.14,.26,3.88,1.24,7.09,5.28,7.09,2.36,0,4.85-3.36,6.71-6.87-.38,2.09-.61,4.03-.61,5.63,0,1.5,4.97,3.29,4.97,1.91,0-2,.18-4.09,.48-6.18,3-14.68,11.92-21.01,12.82-20.11,.9,.9-11.36,25.61-.72,25.61,2.32,0,4.78-3.26,6.63-6.71-.41,2.13-.64,3.99-.64,5.47s4.97,3.29,4.97,1.91c0-9.38,5-24.4,9.32-36.01,3.37,.74,6.38,1.09,8.76,.66,1.6-.29,5.37-4.89,3.85-4.58-3.23,.65-6.96,.33-10.98-.41,2.71-7.07,4.77-12.1,4.5-12.37-.56-.56-2.69-.36-4.45,1.4-.39,.39-2.17,4.4-4.42,10.06-17.82-4.69-34.31-6.35-37.58,1.88Z"/><path class="cls-1" d="M60.41,125.15c0,1.38-4.99-.41-4.99-1.92,0-11.85,14.83-48.41,16.05-49.62,1.77-1.77,3.91-1.96,4.47-1.4,.73,.73-15.53,36-15.53,52.95Z"/></g><g><g><circle class="cls-1" cx="191.74" cy="142.58" r="2.08"/><path class="cls-1" d="M191.74,134.95l-8.66-.97c-4.78,0-8.66,3.88-8.66,8.66s3.88,8.66,8.66,8.66l8.66-.97c4.23,0,7.62-3.46,7.62-7.62,.07-4.37-3.4-7.76-7.62-7.76Zm-8.59,10.74c.62,0,1.18-.14,1.66-.49l1.52,2.36c-.97,.62-2.01,.9-3.19,.9-3.26,0-5.89-2.63-5.89-5.89s2.63-5.89,5.89-5.89c1.11,0,2.22,.35,3.19,.9l-1.52,2.36c-.49-.35-1.04-.49-1.66-.49-1.66,0-3.05,1.39-3.05,3.05-.07,1.8,1.32,3.19,3.05,3.19Zm8.59,1.8c-2.7,0-4.85-2.22-4.85-4.85s2.22-4.85,4.85-4.85,4.85,2.22,4.85,4.85-2.15,4.85-4.85,4.85Z"/></g><g><path class="cls-1" d="M111.05,142.07v-.11c1.92-.83,2.81-2.49,2.81-4.21,0-1.35-.43-2.63-1.46-3.49-1.35-1.15-3.09-1.37-4.9-1.37-1.63,0-3.12,.11-4.27,.37v18.96c.86,.11,2.06,.2,3.49,.2,3.24,0,5.18-.69,6.33-1.95,.92-.95,1.43-2.18,1.43-3.78,0-2.12-1.2-3.98-3.44-4.61Zm-4.07-6.27c.23-.09,.57-.11,.97-.11,1.55,0,2.21,1.09,2.21,2.49,0,1.58-1.03,2.72-2.38,2.72h-.8v-5.1Zm.83,13.72c-.34,0-.6,0-.83-.06v-5.78h.8c1.49,.03,2.81,1.03,2.81,2.95s-1.26,2.89-2.78,2.89Z"/><polygon class="cls-1" points="126.54 143.79 130.95 143.79 130.95 140.67 126.54 140.67 126.54 136.23 131.17 136.23 131.17 132.97 122.79 132.97 122.79 152.27 131.52 152.27 131.52 149 126.54 149 126.54 143.79"/><polygon class="cls-1" points="143.54 143.79 147.95 143.79 147.95 140.67 143.54 140.67 143.54 136.23 148.18 136.23 148.18 132.97 139.79 132.97 139.79 152.27 148.53 152.27 148.53 149 143.54 149 143.54 143.79"/><path class="cls-1" d="M166.93,147.03c-.37-2.06-1.03-3.29-2.35-3.81v-.06c1.98-.92,2.98-2.78,2.98-4.84,0-1.66-.34-2.95-1.52-4.01-1.26-1.15-3.09-1.43-5.15-1.43-1.43,0-2.92,.14-4.09,.37v19.01h3.75v-7.7c1.26,0,2.41,.69,2.75,3.09,.29,2.12,.72,4.07,.95,4.61h3.92c-.34-.72-.86-3.09-1.23-5.24Zm-5.73-5.35h-.66v-5.76c.2-.09,.57-.11,.89-.11,1.69,.06,2.35,1.23,2.35,2.86s-.95,3.01-2.58,3.01Z"/></g></g></g></g></g></svg>