<?xml version="1.0" encoding="UTF-8"?><svg xmlns="http://www.w3.org/2000/svg" xmlns:xlink="http://www.w3.org/1999/xlink" viewBox="0 0 288 216"><defs><style>.cls-1{fill:url(#radial-gradient-7);}.cls-1,.cls-2,.cls-3,.cls-4,.cls-5,.cls-6,.cls-7,.cls-8,.cls-9,.cls-10,.cls-11{mix-blend-mode:multiply;}.cls-12{fill:url(#linear-gradient);}.cls-13{fill:url(#linear-gradient-21);}.cls-13,.cls-14{mix-blend-mode:hard-light;}.cls-13,.cls-15{opacity:.7;}.cls-14{fill:url(#radial-gradient-2);}.cls-16{fill:url(#radial-gradient-10);}.cls-17{fill:url(#radial-gradient-11);}.cls-15{fill:url(#radial-gradient-3);}.cls-3{fill:url(#linear-gradient-22);}.cls-3,.cls-6,.cls-7,.cls-18{opacity:.5;}.cls-4{fill:url(#linear-gradient-3);opacity:.4;}.cls-19{fill:url(#radial-gradient-6);}.cls-20{fill:url(#radial-gradient-9);}.cls-21{fill:url(#radial-gradient-8);}.cls-22{fill:url(#linear-gradient-8);}.cls-23{fill:url(#linear-gradient-9);}.cls-24{fill:url(#linear-gradient-4);}.cls-25{fill:url(#linear-gradient-6);}.cls-26{fill:url(#linear-gradient-7);}.cls-27{fill:url(#linear-gradient-5);}.cls-5{fill:url(#radial-gradient);}.cls-28{mix-blend-mode:lighten;opacity:.8;}.cls-6{fill:url(#radial-gradient-4);}.cls-7{fill:url(#radial-gradient-5);}.cls-18{fill:url(#linear-gradient-2);mix-blend-mode:overlay;}.cls-29{fill:url(#linear-gradient-14);}.cls-30{fill:url(#linear-gradient-20);}.cls-31{fill:url(#linear-gradient-15);}.cls-32{fill:url(#linear-gradient-19);}.cls-33{fill:url(#linear-gradient-16);}.cls-34{fill:url(#linear-gradient-17);}.cls-35{fill:url(#linear-gradient-13);}.cls-36{fill:url(#linear-gradient-12);}.cls-37{fill:url(#linear-gradient-10);}.cls-38{fill:url(#linear-gradient-11);}.cls-39{fill:url(#linear-gradient-27);}.cls-40{fill:url(#linear-gradient-25);}.cls-41{fill:url(#linear-gradient-28);}.cls-42{isolation:isolate;}.cls-8{fill:url(#linear-gradient-23);}.cls-9{fill:url(#linear-gradient-18);}.cls-10{fill:url(#linear-gradient-26);}.cls-11{fill:url(#linear-gradient-24);}</style><linearGradient id="linear-gradient" x1="144" y1="216" x2="144" y2="0" gradientUnits="userSpaceOnUse"><stop offset="0" stop-color="#39300e"/><stop offset=".6" stop-color="#cccd91"/><stop offset="1" stop-color="#7b6348"/></linearGradient><linearGradient id="linear-gradient-2" x1="94.98" y1="0" x2="94.98" y2="110.62" gradientUnits="userSpaceOnUse"><stop offset="0" stop-color="#ddcc8b"/><stop offset=".12" stop-color="#dac685" stop-opacity=".91"/><stop offset=".38" stop-color="#d3b976" stop-opacity=".67"/><stop offset=".74" stop-color="#c9a35f" stop-opacity=".3"/><stop offset="1" stop-color="#c1934d" stop-opacity="0"/></linearGradient><linearGradient id="linear-gradient-3" x1="144" y1="216" x2="144" y2="111" gradientUnits="userSpaceOnUse"><stop offset="0" stop-color="#315109"/><stop offset="1" stop-color="#2e500a" stop-opacity="0"/></linearGradient><linearGradient id="linear-gradient-4" x1="193.84" y1="41.5" x2="231.38" y2="33.52" gradientUnits="userSpaceOnUse"><stop offset="0" stop-color="#353005"/><stop offset="1" stop-color="#a9995f"/></linearGradient><linearGradient id="linear-gradient-5" x1="218.27" y1="33.08" x2="224.18" y2="43.31" gradientUnits="userSpaceOnUse"><stop offset="0" stop-color="#353005"/><stop offset=".14" stop-color="#3a3509"/><stop offset=".32" stop-color="#4a4315"/><stop offset=".53" stop-color="#655b2a"/><stop offset=".75" stop-color="#8a7d47"/><stop offset=".91" stop-color="#a9995f"/></linearGradient><linearGradient id="linear-gradient-6" x1="222.11" y1="37.88" x2="227.26" y2="46.81" gradientUnits="userSpaceOnUse"><stop offset="0" stop-color="#353005"/><stop offset=".13" stop-color="#3b350a"/><stop offset=".31" stop-color="#4d4618"/><stop offset=".53" stop-color="#6b612f"/><stop offset=".76" stop-color="#94864f"/><stop offset=".87" stop-color="#a9995f"/></linearGradient><linearGradient id="linear-gradient-7" x1="226.03" y1="42.69" x2="230.18" y2="49.87" gradientUnits="userSpaceOnUse"><stop offset="0" stop-color="#353005"/><stop offset=".15" stop-color="#393408"/><stop offset=".31" stop-color="#474013"/><stop offset=".49" stop-color="#5d5524"/><stop offset=".67" stop-color="#7d713d"/><stop offset=".86" stop-color="#a5965c"/><stop offset=".87" stop-color="#a9995f"/></linearGradient><linearGradient id="linear-gradient-8" x1="229.51" y1="47.33" x2="232.86" y2="53.14" gradientUnits="userSpaceOnUse"><stop offset="0" stop-color="#353005"/><stop offset=".19" stop-color="#50481a"/><stop offset=".83" stop-color="#a9995f"/></linearGradient><linearGradient id="linear-gradient-9" x1="205.81" y1="13.02" x2="215.13" y2="29.16" gradientUnits="userSpaceOnUse"><stop offset="0" stop-color="#353005"/><stop offset=".29" stop-color="#373206"/><stop offset=".47" stop-color="#3f390d"/><stop offset=".61" stop-color="#4e4618"/><stop offset=".74" stop-color="#625928"/><stop offset=".86" stop-color="#7c703c"/><stop offset=".96" stop-color="#9c8d55"/><stop offset="1" stop-color="#a9995f"/></linearGradient><linearGradient id="linear-gradient-10" x1="214.71" y1="28.21" x2="221.38" y2="39.75" gradientUnits="userSpaceOnUse"><stop offset="0" stop-color="#353005"/><stop offset=".17" stop-color="#393408"/><stop offset=".36" stop-color="#474013"/><stop offset=".56" stop-color="#5e5525"/><stop offset=".78" stop-color="#7e723e"/><stop offset=".99" stop-color="#a7975e"/><stop offset="1" stop-color="#a9995f"/></linearGradient><linearGradient id="linear-gradient-11" x1="208.47" y1="18.2" x2="216.82" y2="32.66" xlink:href="#linear-gradient-9"/><linearGradient id="linear-gradient-12" x1="211.44" y1="23.25" x2="218.92" y2="36.2" xlink:href="#linear-gradient-9"/><linearGradient id="linear-gradient-13" x1="196.85" y1="171.59" x2="218.65" y2="165.3" gradientUnits="userSpaceOnUse"><stop offset="0" stop-color="#7a5e36"/><stop offset="1" stop-color="#754d41"/></linearGradient><linearGradient id="linear-gradient-14" x1="190.25" y1="114.75" x2="212.1" y2="114.75" gradientUnits="userSpaceOnUse"><stop offset="0" stop-color="#b96334"/><stop offset="1" stop-color="#edc5a6"/></linearGradient><linearGradient id="linear-gradient-15" x1="108.28" y1="103.18" x2="130.53" y2="103.18" xlink:href="#linear-gradient-14"/><linearGradient id="linear-gradient-16" x1="39.03" y1="92.61" x2="255.25" y2="92.61" gradientUnits="userSpaceOnUse"><stop offset="0" stop-color="#939598"/><stop offset=".03" stop-color="#bcbec0"/><stop offset="1" stop-color="#a7a9ac"/></linearGradient><linearGradient id="linear-gradient-17" x1="67.22" y1="116.03" x2="235.18" y2="116.03" gradientUnits="userSpaceOnUse"><stop offset="0" stop-color="#e6e7e8"/><stop offset="1" stop-color="#a7a9ac"/></linearGradient><linearGradient id="linear-gradient-18" x1="139.28" y1="9.13" x2="160.11" y2="178.8" gradientUnits="userSpaceOnUse"><stop offset="0" stop-color="#f1f2f2"/><stop offset="1" stop-color="#bcbec0"/></linearGradient><radialGradient id="radial-gradient" cx="69.43" cy="55.01" fx="69.43" fy="55.01" r="40.63" gradientTransform="translate(0 16.81) scale(1 .69)" gradientUnits="userSpaceOnUse"><stop offset="0" stop-color="#414042"/><stop offset="1" stop-color="#fff"/></radialGradient><linearGradient id="linear-gradient-19" x1="40.41" y1="52.13" x2="124.41" y2="52.13" gradientUnits="userSpaceOnUse"><stop offset=".4" stop-color="#bcbec0"/><stop offset="1" stop-color="#939598"/></linearGradient><linearGradient id="linear-gradient-20" y1="50.46" x2="100.57" y2="50.46" xlink:href="#linear-gradient-19"/><radialGradient id="radial-gradient-2" cx="137.02" cy="139.29" fx="137.02" fy="139.29" r="155.09" gradientTransform="translate(0 35.4) scale(1 .75)" gradientUnits="userSpaceOnUse"><stop offset=".61" stop-color="#f7b374"/><stop offset=".65" stop-color="#e9aa6c"/><stop offset=".73" stop-color="#c79358"/><stop offset=".84" stop-color="#8f6e39"/><stop offset=".96" stop-color="#423b0d"/><stop offset="1" stop-color="#2b2c00"/></radialGradient><radialGradient id="radial-gradient-3" cx="138.14" cy="129.17" fx="138.14" fy="129.17" r="155.09" gradientTransform="translate(0 32.83) scale(1 .75)" gradientUnits="userSpaceOnUse"><stop offset=".91" stop-color="#fff" stop-opacity="0"/><stop offset=".94" stop-color="#fff" stop-opacity="0"/><stop offset=".95" stop-color="#fff" stop-opacity=".03"/><stop offset=".96" stop-color="#fff" stop-opacity=".08"/><stop offset=".97" stop-color="#fff" stop-opacity=".15"/><stop offset=".98" stop-color="#fff" stop-opacity=".23"/><stop offset=".98" stop-color="#fff" stop-opacity=".34"/><stop offset=".99" stop-color="#fff" stop-opacity=".47"/><stop offset=".99" stop-color="#fff" stop-opacity=".61"/><stop offset="1" stop-color="#fff" stop-opacity=".78"/><stop offset="1" stop-color="#fff" stop-opacity=".96"/><stop offset="1" stop-color="#fff"/></radialGradient><linearGradient id="linear-gradient-21" x1="147.14" y1="95.74" x2="147.14" y2="173.37" gradientUnits="userSpaceOnUse"><stop offset="0" stop-color="#231f20" stop-opacity="0"/><stop offset=".33" stop-color="#231f20" stop-opacity=".12"/><stop offset=".68" stop-color="#231f20" stop-opacity=".48"/><stop offset="1" stop-color="#231f20"/></linearGradient><linearGradient id="linear-gradient-22" x1="79.65" y1="31.7" x2="88.8" y2="81.41" gradientUnits="userSpaceOnUse"><stop offset=".37" stop-color="#fff"/><stop offset="1" stop-color="#e09288"/></linearGradient><radialGradient id="radial-gradient-4" cx="101.45" cy="58.27" fx="101.45" fy="58.27" r="26.57" gradientTransform="translate(-11.33 56) rotate(-24.78) scale(1 .85)" gradientUnits="userSpaceOnUse"><stop offset="0" stop-color="#3a3305" stop-opacity=".8"/><stop offset=".33" stop-color="#3a3305" stop-opacity=".75"/><stop offset=".6" stop-color="#3a3305" stop-opacity=".58"/><stop offset=".83" stop-color="#3a3305" stop-opacity=".29"/><stop offset="1" stop-color="#3a3305" stop-opacity="0"/></radialGradient><radialGradient id="radial-gradient-5" cx="83.55" cy="55.04" fx="83.55" fy="55.04" r="18.47" gradientTransform="translate(58.49 159.99) rotate(-115.82) scale(1 1.24)" xlink:href="#radial-gradient-4"/><radialGradient id="radial-gradient-6" cx="52.72" cy="61.62" fx="52.72" fy="61.62" r="14.48" gradientTransform="translate(0 21.08) scale(1 .66)" gradientUnits="userSpaceOnUse"><stop offset="0" stop-color="#973c25"/><stop offset="1" stop-color="#350500"/></radialGradient><radialGradient id="radial-gradient-7" cx="48.02" cy="47.44" fx="48.02" fy="47.44" r="18.36" gradientUnits="userSpaceOnUse"><stop offset=".56" stop-color="#231f20"/><stop offset="1" stop-color="#231f20" stop-opacity="0"/></radialGradient><radialGradient id="radial-gradient-8" cx="55.31" cy="60.6" fx="55.31" fy="60.6" r="29.7" gradientTransform="translate(0 28.67) scale(1 .53)" gradientUnits="userSpaceOnUse"><stop offset=".2" stop-color="#cf9b50"/><stop offset=".32" stop-color="#c1914a"/><stop offset=".52" stop-color="#9f773d"/><stop offset=".8" stop-color="#684e28"/><stop offset=".91" stop-color="#503c1f"/></radialGradient><radialGradient id="radial-gradient-9" cx="48.28" cy="58.77" fx="48.28" fy="58.77" r="28.93" gradientTransform="translate(8.83 12.18) rotate(12) scale(1 .64)" gradientUnits="userSpaceOnUse"><stop offset="0" stop-color="#e4b476"/><stop offset=".14" stop-color="#d6a96e"/><stop offset=".41" stop-color="#b48e5a"/><stop offset=".76" stop-color="#7d613a"/><stop offset="1" stop-color="#544123"/></radialGradient><radialGradient id="radial-gradient-10" cx="67.5" cy="39.67" fx="67.5" fy="39.67" r="4.48" gradientUnits="userSpaceOnUse"><stop offset="0" stop-color="#2f3b15"/><stop offset="1" stop-color="#9c8427"/></radialGradient><linearGradient id="linear-gradient-23" x1="215.93" y1="161.09" x2="244.49" y2="137.12" gradientUnits="userSpaceOnUse"><stop offset="0" stop-color="#fff"/><stop offset=".16" stop-color="#fdfcfb"/><stop offset=".29" stop-color="#f8f4f0"/><stop offset=".42" stop-color="#efe7de"/><stop offset=".55" stop-color="#e3d4c5"/><stop offset=".67" stop-color="#d4bca4"/><stop offset=".79" stop-color="#c1a07d"/><stop offset=".82" stop-color="#bc9771"/></linearGradient><radialGradient id="radial-gradient-11" cx="67.5" cy="39.6" fx="67.5" fy="39.6" r="2.06" gradientUnits="userSpaceOnUse"><stop offset="0" stop-color="#2f3b15"/><stop offset="1" stop-color="#2f3b15"/></radialGradient><linearGradient id="linear-gradient-24" x1="161.26" y1="82.89" x2="138.7" y2="62.25" gradientUnits="userSpaceOnUse"><stop offset="0" stop-color="#fff"/><stop offset="1" stop-color="#bc9771"/></linearGradient><linearGradient id="linear-gradient-25" x1="130.8" y1="73.72" x2="175.44" y2="73.72" xlink:href="#linear-gradient-14"/><linearGradient id="linear-gradient-26" x1="230.3" y1="108.59" x2="214.83" y2="90.15" xlink:href="#linear-gradient-24"/><linearGradient id="linear-gradient-27" x1="207.1" y1="98.38" x2="241.39" y2="98.38" xlink:href="#linear-gradient-14"/><linearGradient id="linear-gradient-28" x1="226.81" y1="138.39" x2="243.97" y2="152.78" xlink:href="#linear-gradient-14"/></defs><g class="cls-42"><g id="Layer_2"><g id="Layer_1-2"><g><rect class="cls-12" width="288" height="216"/><path class="cls-18" d="M0,0V110.62H56.44c4.98,0,9.01-4.03,9.01-9.01s4.03-9.01,9.01-9.01h22.62c6.9,0,12.49-5.59,12.49-12.49v-21.27c0-6.9,5.59-12.49,12.49-12.49h5.76c6.9,0,12.49-5.59,12.49-12.49h0c0-6.9-5.59-12.49-12.49-12.49h-62.29c-3.93,0-7.12-3.19-7.12-7.12h0c0-3.93,3.19-7.12,7.12-7.12h115.63c4.33,0,7.94-3.05,8.8-7.13H0Z"/><path class="cls-4" d="M288,111h-2.49c-6.06,0-19.53,4.92-19.53,10.98h0c0,6.06-4.92,10.98-10.98,10.98h-33.24c-5.49,0-9.94,4.45-9.94,9.94h0c0,5.49,4.45,9.94,9.94,9.94h25.91c4.19,0,7.59,3.4,7.59,7.59s-3.4,7.59-7.59,7.59h-61.14c-5.9,0-10.69,4.79-10.69,10.69h0c0,5.9-4.79,10.69-10.69,10.69h-34.64c-3.78,0-6.84-3.06-6.84-6.84h0c0-3.78-3.06-6.84-6.84-6.84H50.16c-7.55,0-13.67,6.12-13.67,13.67h0c0,7.55-6.12,13.67-13.67,13.67H0v12.94H64.27c.76-1.65,1.19-3.48,1.19-5.41h0c0-7.14,5.79-12.94,12.94-12.94h25.04c4.03,0,7.3,3.27,7.3,7.3h0c0,4.03,3.27,7.3,7.3,7.3h72.46c5.9,0,10.69-4.79,10.69-10.69v-2.78c0-5.9,4.79-10.69,10.69-10.69h76.13V111Z"/><path class="cls-24" d="M233.75,55.95c3.1-1.58,4.41-5.44,4.22-8.91s-1.54-6.76-2.43-10.12c-1.93-7.28-2.18-14.32,.21-21.47-17.75,1.84-35.49,3.68-53.24,5.52,16.25,12.77,32.97,25.35,51.24,34.98Z"/><g><path class="cls-27" d="M208.94,40.73l26.88-2.78c-.1-.34-.19-.68-.28-1.02-.1-.39-.2-.78-.29-1.16l-29.09,3.01c.93,.65,1.86,1.3,2.79,1.95Z"/><path class="cls-25" d="M214.72,44.63l22.4-2.32c-.2-.73-.42-1.45-.64-2.17l-24.67,2.56c.96,.65,1.93,1.3,2.9,1.94Z"/><path class="cls-26" d="M220.25,48.18l17.66-1.83c-.06-.62-.15-1.23-.27-1.83l-19.92,2.06c.84,.54,1.68,1.07,2.53,1.6Z"/><path class="cls-22" d="M227.19,52.34l10.24-1.06c.27-.86,.44-1.76,.51-2.67l-14.53,1.51c1.25,.75,2.51,1.49,3.78,2.22Z"/><path class="cls-23" d="M235.07,17.78l-50.02,5.18c.84,.66,1.69,1.32,2.54,1.98l46.98-4.87c.14-.76,.3-1.53,.5-2.29Z"/><path class="cls-37" d="M203.38,36.8l31.39-3.25c-.14-.73-.27-1.47-.37-2.2l-33.72,3.49c.9,.66,1.8,1.31,2.7,1.96Z"/><path class="cls-38" d="M192.74,28.91l41.32-4.28c.03-.75,.09-1.5,.17-2.26l-44.06,4.57c.86,.66,1.71,1.32,2.57,1.97Z"/><path class="cls-36" d="M197.99,32.86l36.16-3.75c-.06-.74-.1-1.49-.11-2.23l-38.67,4.01c.87,.66,1.75,1.31,2.62,1.97Z"/></g><path class="cls-35" d="M224.32,170.92c-10.44,12.33-18.49,23.57-28.93,35.9-.64-14.92,2.68-29.75,8.92-43.33-2.37-8.98-4.81-17.79-7.18-26.78,7.68,1.74,15.72,1.86,23.44,.35l3.75,33.85Z"/><path class="cls-29" d="M212.1,108.88c-1.69,6.44-3.34,12.4-5.03,18.83-4.54-3.06-9.16-6.2-12.52-10.52-3.36-4.32-5.31-10.12-3.74-15.36,7.54-.4,15.31,2.45,21.29,7.05Z"/><path class="cls-31" d="M108.28,87.06c6.62,10.88,13.24,21.76,19.85,32.64,1.27-4.85,2.43-9.47,2.4-14.49-.04-5.02-1.54-10.22-5.13-13.73-4.6-4.51-10.78-5.51-17.12-4.42Z"/><path class="cls-33" d="M224.32,170.92c10.24-10.23,19.87-21.01,25.3-34.42,9.64-23.84,6.62-51.73-6.77-73.68-9.19-15.07-22.32-28.21-38.28-36.28-18.41-9.31-39.89-11.37-60.21-12.11-34.76-1.26-69.94,6.79-100.33,23.84-1.74,.98-3.55,2.07-4.5,3.83s-.58,4.37,1.25,5.19c1.27-.51,2.68,.27,3.89,.9s2.2,1.61,3.12,2.62c3.62,3.96,6.46,8.62,8.34,13.65-.78,2.08-4.24,1.46-6.45,1.3s-4.95-.11-5.99,1.85c-.73,1.39-.15,3.18,.95,4.29s2.61,1.71,4.08,2.27c43.05,16.26,89.26,21.01,134.45,28.11,7.58,1.19,15.29,2.42,22.2,5.74s13.06,9.1,14.94,16.54c1.31,5.17-.55,9.61-3.75,13.88-7.09,9.46-.5,24.02,7.75,32.48Z"/><g class="cls-28"><path class="cls-34" d="M222.43,156.59c10.15-7.28,14.15-21.84,12.32-33.75-2.53-16.51-14.49-24.33-28.61-30.8-17.01-7.8-34.76-14.42-53.54-16.04-18.51-1.6-37.3,.84-55.49,2.94-9.74,1.13-20.01,2.48-29.89,1.47,37.64,11.39,77.17,15.76,115.95,21.85,7.58,1.19,15.29,2.42,22.2,5.74,6.87,3.3,12.97,9.02,14.9,16.38,1.31,2.48,2.35,5.1,3.08,7.81,2.13,7.91,2.12,16.79-.92,24.39Z"/></g><path class="cls-9" d="M251.97,83.71c-2.09-7.32-5.14-14.37-9.13-20.9-9.19-15.07-22.32-28.21-38.28-36.28-18.41-9.31-39.89-11.37-60.21-12.11-34.76-1.26-69.94,6.79-100.33,23.84-1.74,.98-3.55,2.07-4.5,3.83-.94,1.76-.58,4.37,1.25,5.19,1.27-.51,2.68,.27,3.89,.9s2.2,1.61,3.12,2.62c1.95,2.14,3.67,4.48,5.15,6.97,1.26,2.13,2.33,4.36,3.19,6.68-.78,2.08-4.24,1.46-6.45,1.3-2.21-.16-4.95-.11-5.99,1.85-.73,1.39-.15,3.18,.95,4.29,1.1,1.12,2.61,1.71,4.08,2.27,43.05,16.26,89.26,21.01,134.45,28.11,7.58,1.19,15.29,2.42,22.2,5.74,6.92,3.32,13.06,9.1,14.94,16.54,1.31,5.17-.55,9.61-3.75,13.88-7.09,9.46-.5,24.02,7.75,32.48,10.24-10.23,19.87-21.01,25.3-34.42,6.77-16.75,7.29-35.5,2.36-52.78Z"/><path class="cls-5" d="M86.51,78.98c8.79,.19,17.84-1.52,25.19-6.35,7.35-4.83,12.74-13.1,12.7-21.89-.03-7.36-3.88-14.48-9.65-19.05-5.78-4.57-13.31-6.67-20.67-6.4-11.3-.08-22.55,1.68-33.08,5.78-5.19,2.02-10.69,4.99-15.63,7.56-1.44,.75-2.92,1.53-3.93,2.79-1.01,1.27-1.43,3.16-.54,4.52l.26,1.23c1.17-.24,2.42,.44,3.52,1.01,1.21,.63,2.2,1.61,3.12,2.62,3.62,3.96,6.46,8.62,8.34,13.65-.78,2.08-4.24,1.46-6.45,1.3-1.49-.1-3.22-.12-4.5,.48l.49,2.33c-.16,.1-.32,.2-.49,.3,.3,.99,1.41,1.46,2.39,1.8,4.2,1.45,8.63,3.04,12.95,4.08,8.55,2.06,17.19,4.04,25.99,4.23Z"/><path class="cls-32" d="M86.51,78.98c8.79,.19,17.84-1.52,25.19-6.35,7.35-4.83,12.74-13.1,12.7-21.89-.03-7.36-3.88-14.48-9.65-19.05-5.78-4.57-13.31-6.67-20.67-6.4-11.3-.08-22.55,1.68-33.08,5.78-5.19,2.02-10.69,4.99-15.63,7.56-1.44,.75-2.92,1.53-3.93,2.79-1.01,1.27-1.43,3.16-.54,4.52l.26,1.23c1.17-.24,2.42,.44,3.52,1.01,1.21,.63,2.2,1.61,3.12,2.62,3.62,3.96,6.46,8.62,8.34,13.65-.78,2.08-4.24,1.46-6.45,1.3-1.49-.1-3.22-.12-4.5,.48l.49,2.33c-.16,.1-.32,.2-.49,.3,.3,.99,1.41,1.46,2.39,1.8,4.2,1.45,8.63,3.04,12.95,4.08,8.55,2.06,17.19,4.04,25.99,4.23Z"/><path class="cls-30" d="M83.83,29.87c-5.36-1.39-11-1.72-16.49-.96-2.13,.63-4.25,1.35-6.33,2.16-5.19,2.02-10.69,4.99-15.63,7.56-1.44,.75-2.92,1.53-3.93,2.79-1.01,1.27-1.43,3.16-.54,4.52l.26,1.23c1.17-.24,2.42,.44,3.52,1.01,1.21,.63,2.2,1.61,3.12,2.62,3.62,3.96,6.46,8.62,8.34,13.65-.78,2.08-4.24,1.46-6.45,1.3-1.13-.08-2.39-.1-3.49,.15,.58,.35,1.15,.71,1.71,1.07,7.88,5.11,18.16,6.06,27.36,5.15,4.9-.48,9.76-1.79,14.08-4.18,5.78-3.2,10.37-7.47,11.09-14.38,1.19-11.31-5.68-20.86-16.61-23.69Z"/><path class="cls-14" d="M224.32,170.92c10.24-10.23,19.87-21.01,25.3-34.42,9.64-23.84,6.62-51.73-6.77-73.68-9.19-15.07-22.32-28.21-38.28-36.28-18.41-9.31-39.89-11.37-60.21-12.11-34.76-1.26-69.94,6.79-100.33,23.84-1.74,.98-3.55,2.07-4.5,3.83s-.58,4.37,1.25,5.19c1.27-.51,2.68,.27,3.89,.9s2.2,1.61,3.12,2.62c3.62,3.96,6.46,8.62,8.34,13.65-.78,2.08-4.24,1.46-6.45,1.3s-4.95-.11-5.99,1.85c-.73,1.39-.15,3.18,.95,4.29s2.61,1.71,4.08,2.27c43.05,16.26,89.26,21.01,134.45,28.11,7.58,1.19,15.29,2.42,22.2,5.74s13.06,9.1,14.94,16.54c1.31,5.17-.55,9.61-3.75,13.88-7.09,9.46-.5,24.02,7.75,32.48Z"/><path class="cls-15" d="M224.32,170.92c10.24-10.23,19.87-21.01,25.3-34.42,9.64-23.84,6.62-51.73-6.77-73.68-9.19-15.07-22.32-28.21-38.28-36.28-18.41-9.31-39.89-11.37-60.21-12.11-34.76-1.26-69.94,6.79-100.33,23.84-1.74,.98-3.55,2.07-4.5,3.83s-.58,4.37,1.25,5.19c1.27-.51,2.68,.27,3.89,.9s2.2,1.61,3.12,2.62c3.62,3.96,6.46,8.62,8.34,13.65-.78,2.08-4.24,1.46-6.45,1.3s-4.95-.11-5.99,1.85c-.73,1.39-.15,3.18,.95,4.29s2.61,1.71,4.08,2.27c43.05,16.26,89.26,21.01,134.45,28.11,7.58,1.19,15.29,2.42,22.2,5.74s13.06,9.1,14.94,16.54c1.31,5.17-.55,9.61-3.75,13.88-7.09,9.46-.5,24.02,7.75,32.48Z"/><path class="cls-13" d="M224.32,170.92c10.24-10.23,19.87-21.01,25.3-34.42,9.64-23.84,6.62-51.73-6.77-73.68-9.19-15.07-22.32-28.21-38.28-36.28-18.41-9.31-39.89-11.37-60.21-12.11-34.76-1.26-69.94,6.79-100.33,23.84-1.74,.98-3.55,2.07-4.5,3.83s-.58,4.37,1.25,5.19c1.27-.51,2.68,.27,3.89,.9s2.2,1.61,3.12,2.62c3.62,3.96,6.46,8.62,8.34,13.65-.78,2.08-4.24,1.46-6.45,1.3s-4.95-.11-5.99,1.85c-.73,1.39-.15,3.18,.95,4.29s2.61,1.71,4.08,2.27c43.05,16.26,89.26,21.01,134.45,28.11,7.58,1.19,15.29,2.42,22.2,5.74s13.06,9.1,14.94,16.54c1.31,5.17-.55,9.61-3.75,13.88-7.09,9.46-.5,24.02,7.75,32.48Z"/><path class="cls-3" d="M114.76,31.69c-5.78-4.57-13.31-6.67-20.67-6.4-11.3-.08-22.55,1.68-33.08,5.78-5.19,2.02-10.69,4.99-15.63,7.56-1.44,.75-2.92,1.53-3.93,2.79-1.01,1.27-1.43,3.16-.54,4.52l.26,1.23c1.17-.24,2.42,.44,3.52,1.01,1.21,.63,2.2,1.61,3.12,2.62,3.62,3.96,6.46,8.62,8.34,13.65-.78,2.08-4.24,1.46-6.45,1.3l-4.01,2.82c-.16,.1-.32,.2-.49,.3,.3,.99,1.41,1.46,2.39,1.8,4.2,1.45,8.63,3.04,12.95,4.08,8.55,2.06,17.19,4.04,25.99,4.23s17.84-1.52,25.19-6.35c7.35-4.83,12.74-13.1,12.7-21.89-.03-7.36-3.88-14.48-9.65-19.05Z"/><g class="cls-2"><path class="cls-6" d="M128.01,49.38c-1.11-6.82-5.06-11.92-10.4-15.06,4.16,4.45,6.78,10.35,6.8,16.42,.03,8.79-5.35,17.06-12.7,21.89-7.35,4.83-16.4,6.55-25.19,6.35-3.45-.08-6.88-.43-10.29-.95,4.5,2.1,9.61,3.28,14.83,3.56,19.49,1.04,40.49-10.37,36.95-32.21Z"/><path class="cls-7" d="M89.12,31.61c-.41-.11-.83-.21-1.24-.3,8.53,3.91,13.59,12.41,12.56,22.25-.73,6.91-5.31,11.18-11.09,14.38-4.32,2.39-9.18,3.7-14.08,4.18-5.69,.56-11.79,.41-17.48-1,7.05,2.98,15.27,3.47,22.77,2.74,4.9-.48,9.76-1.79,14.08-4.18,5.78-3.2,10.37-7.47,11.09-14.38,1.19-11.31-5.68-20.86-16.61-23.69Z"/></g><path class="cls-19" d="M50.89,69.07c4.31-.3,8.59-1,12.78-2.07,3.58-.92,7.29-2.33,9.54-5.27-3.94-5.72-9.26-10.48-15.38-13.75-2.84-1.52-5.89-2.73-9.09-3.03-2.96-.28-6.08,.3-8.54,1.95,.18,.14,.37,.27,.59,.36,1.27-.51,2.68,.27,3.89,.9s2.2,1.61,3.12,2.62c3.62,3.96,6.46,8.62,8.34,13.65-.78,2.08-4.24,1.46-6.45,1.3-1.3-.09-2.78-.11-3.99,.28-.02,.04-.05,.08-.07,.12-.24,.51-.28,1.13,0,1.62,.28,.49,.81,.74,1.35,.58,1.07,.83,2.56,.81,3.91,.72Z"/><path class="cls-1" d="M66.92,57.3c.26-.77,.41-1.57,.48-2.36-2.86-2.73-6.09-5.08-9.58-6.95-2.84-1.52-5.89-2.73-9.09-3.03-1.56-.14-3.16-.05-4.69,.31,.4,.3,.84,.57,1.2,.82,1.82,1.24,3.5,2.68,5.03,4.26,2.99,3.12,5.37,6.84,6.88,10.89,.86,2.29,2.49,2.58,4.2,1.89,2.39-.97,4.91-3.87,5.57-5.84Z"/><path class="cls-21" d="M61.16,64.98c1.96-1.22,3.7-2.78,5.74-3.88s4.53-1.68,6.65-.76c1.27,.55,2.37,1.79,2.22,3.16-.15,1.47-1.57,2.43-2.9,3.09-5.17,2.57-10.97,3.64-16.73,4.02-3.33,.22-6.75,.2-9.91-.88-.41-.14-.82-.3-1.13-.61s-.48-.78-.3-1.18c.16-.36,.56-.57,.95-.61s.78,.05,1.17,.13c4.83,1.02,10.04,.11,14.23-2.49Z"/><path class="cls-20" d="M52.76,47.85c7.59,3.28,12.27,11.62,20.11,14.23,.84,.28,1.78,.49,2.61,.16,1.26-.49,1.79-2.08,1.5-3.4-.29-1.32-1.19-2.41-2.12-3.39-6.07-6.43-14.43-10.65-23.21-11.7-2.43-.29-4.92-.34-7.29,.28-1.69,.44-3.32,1.27-4.6,2.45,.24,.3,.53,.55,.89,.73,3.94-1.2,8.31-1,12.09,.64Z"/><path class="cls-16" d="M71.89,38.72c-.16-.74-.5-1.43-1-2-1.24-1.43-3.44-1.93-5.18-1.18s-2.88,2.71-2.68,4.59c.17,1.61,1.28,3.09,2.79,3.7s3.33,.32,4.57-.73,1.84-2.79,1.5-4.38Z"/><path class="cls-8" d="M237.08,157.03c.87-3.76,1.62-7.68,2.03-11.41,.68-6.27,.05-12.84-2.93-18.4-1.22,10.74-5.53,20.39-12.81,28.4-.44,.49-3.42,3.59-5.89,6.01,1.88,3.46,4.27,6.66,6.83,9.29,4.47-4.47,8.83-9.04,12.77-13.88Z"/><path class="cls-17" d="M65.83,38.38c-.58,.8-.48,2.02,.23,2.71s1.93,.76,2.71,.16,1.02-1.81,.54-2.66c-.34-.6-1-1.01-1.68-1.05s-1.39,.29-1.79,.85Z"/><path class="cls-11" d="M175.44,71.79c-14.88-1.88-29.76-3.76-44.65-5.63,1.23,6.59,3.67,13.81,7.63,19.27,5.47,7.55,16.01,12.12,25.28,11.09,10.55-1.18,13.26-15.98,11.73-24.72Z"/><path class="cls-40" d="M175.44,71.79c-14.88-1.88-29.76-3.76-44.65-5.63,1.19,6.38,6.1,11.79,12.21,13.97,5.35,1.91,11.34,1.28,16.69-.62s10.97-4.66,15.75-7.72Z"/><path class="cls-10" d="M207.1,94.19c11.41-3.25,24.13-1.55,34.29,4.57-.48,9.46-13.65,22.51-21.65,20.3,.84-4.31-7.97-21.75-12.64-24.87Z"/><path class="cls-39" d="M207.1,94.19c11.41-3.25,24.13-1.55,34.29,4.57-6.87,1.81-13.74,3.62-20.62,5.43-4.67-3.12-9-6.88-13.67-9.99Z"/><path class="cls-41" d="M236.19,127.22c2.97,5.56,3.61,12.13,2.93,18.4-.68,6.27-2.61,12.32-4.52,18.33-.32-4.35-.63-8.69-.95-13.04-.57-7.87,1.66-15.85,2.54-23.69Z"/></g></g></g></g></svg>