<?xml version="1.0" encoding="UTF-8"?><svg id="Layer_2" xmlns="http://www.w3.org/2000/svg" viewBox="0 0 288 216"><defs><style>.cls-1{fill:#00131d;}.cls-2{fill:#f26f21;}.cls-3{fill:#ec1c24;}.cls-4{fill:#fff;}.cls-5{fill:#fcb813;}</style></defs><g id="Layer_1-2"><g><rect class="cls-1" width="288" height="216"/><g><g><g><path class="cls-4" d="M87.56,78.13h-6.66l-1.07,3.12h-4.97l6.83-17.94h5.09l6.83,17.94h-4.97l-1.07-3.12Zm-1.24-3.55l-2.09-5.97-2.09,5.97h4.19Z"/><path class="cls-4" d="M102.7,63.3v13.99h5.59v3.95h-10.26v-17.94h4.66Z"/><path class="cls-4" d="M117.74,63.3v13.99h5.59v3.95h-10.26v-17.94h4.66Z"/><path class="cls-4" d="M132.78,63.3v17.94h-4.66v-17.94h4.66Z"/><path class="cls-4" d="M149.91,78.13h-6.66l-1.07,3.12h-4.97l6.83-17.94h5.09l6.83,17.94h-4.97l-1.07-3.12Zm-1.24-3.55l-2.09-5.97-2.09,5.97h4.19Z"/><path class="cls-4" d="M160.39,81.24v-17.94h4.66l8.62,10.97v-10.97h4.64v17.94h-4.64l-8.62-10.97v10.97h-4.66Z"/><path class="cls-4" d="M197.61,69.3c-1.08-1.32-2.41-1.98-4-1.98-.7,0-1.34,.13-1.94,.38-.6,.25-1.11,.6-1.54,1.04-.43,.44-.77,.96-1.01,1.56-.25,.6-.37,1.25-.37,1.95s.12,1.37,.37,1.98c.25,.6,.59,1.13,1.02,1.57,.44,.44,.95,.79,1.53,1.05,.59,.25,1.22,.38,1.9,.38,1.49,0,2.83-.63,4.02-1.9v5.52l-.48,.17c-.71,.25-1.38,.44-2,.56s-1.23,.18-1.83,.18c-1.24,0-2.42-.23-3.56-.7-1.13-.47-2.13-1.13-3-1.98-.86-.85-1.56-1.86-2.08-3.02-.52-1.17-.79-2.44-.79-3.82s.26-2.65,.77-3.8c.52-1.15,1.21-2.14,2.07-2.97,.86-.83,1.87-1.48,3.01-1.95,1.14-.47,2.34-.7,3.59-.7,.71,0,1.42,.08,2.11,.23,.69,.15,1.42,.39,2.18,.7v5.57Z"/><path class="cls-4" d="M213.15,67.25h-5.55v3h5.24v3.95h-5.24v3.09h5.55v3.95h-10.21v-17.94h10.21v3.95Z"/></g><g><path class="cls-4" d="M74.85,87.47h6.95c1.65,0,2.9,.4,3.76,1.19s1.29,1.94,1.29,3.43c0,.9-.16,1.65-.49,2.25-.33,.59-.82,1.1-1.49,1.51,.67,.13,1.23,.32,1.7,.58,.47,.26,.85,.58,1.14,.96s.5,.81,.63,1.28c.13,.48,.19,.98,.19,1.52,0,.84-.15,1.59-.44,2.24-.29,.65-.71,1.2-1.24,1.64-.53,.44-1.18,.78-1.94,1-.76,.22-1.62,.33-2.57,.33h-7.5v-17.94Zm4.66,7.04h.86c1.46,0,2.19-.58,2.19-1.74s-.73-1.74-2.19-1.74h-.86v3.47Zm0,7.28h1.02c1.17,0,2.01-.15,2.52-.45,.51-.3,.76-.79,.76-1.45s-.25-1.15-.76-1.45c-.51-.3-1.35-.45-2.52-.45h-1.02v3.81Z"/><path class="cls-4" d="M108.04,105.41h-5.81l-4.45-6.9v6.9h-4.66v-17.94h7.26c1,0,1.87,.15,2.62,.44,.75,.29,1.36,.69,1.84,1.2,.48,.51,.85,1.09,1.09,1.76,.25,.67,.37,1.38,.37,2.14,0,1.36-.33,2.47-.99,3.32-.66,.85-1.63,1.42-2.92,1.73l5.64,7.35Zm-10.26-9.92h.88c.92,0,1.63-.19,2.12-.57,.49-.38,.74-.93,.74-1.64s-.25-1.26-.74-1.64c-.49-.38-1.2-.57-2.12-.57h-.88v4.43Z"/><path class="cls-4" d="M122.83,91.42h-5.55v3h5.24v3.95h-5.24v3.09h5.55v3.95h-10.21v-17.94h10.21v3.95Z"/><path class="cls-4" d="M132.29,87.47l3.09,11.59,3.81-11.59h3.71l3.81,11.59,3.09-11.59h4.88l-5.36,17.94h-4.76l-3.52-10.4-3.52,10.4h-4.76l-5.35-17.94h4.88Z"/><path class="cls-4" d="M164.2,87.47v17.94h-4.66v-17.94h4.66Z"/><path class="cls-4" d="M170.73,105.41v-17.94h4.66l8.62,10.97v-10.97h4.64v17.94h-4.64l-8.62-10.97v10.97h-4.66Z"/><path class="cls-4" d="M203.89,95.37h9.26c0,.95-.04,1.82-.12,2.59-.08,.78-.24,1.5-.48,2.17-.33,.94-.79,1.77-1.36,2.49-.57,.72-1.24,1.32-2.01,1.81s-1.61,.85-2.53,1.11c-.92,.25-1.89,.38-2.9,.38-1.4,0-2.67-.23-3.82-.69-1.15-.46-2.14-1.11-2.96-1.94-.83-.83-1.47-1.83-1.93-3-.46-1.17-.69-2.45-.69-3.87s.23-2.68,.68-3.84c.45-1.17,1.09-2.16,1.93-2.99,.83-.83,1.84-1.47,3.01-1.93,1.17-.46,2.48-.69,3.93-.69,1.87,0,3.51,.4,4.93,1.21,1.41,.81,2.53,2.06,3.36,3.76l-4.43,1.83c-.41-.98-.95-1.69-1.61-2.12-.66-.43-1.41-.64-2.25-.64-.7,0-1.33,.13-1.9,.39-.57,.26-1.06,.64-1.46,1.12-.4,.48-.72,1.07-.95,1.75-.23,.68-.34,1.44-.34,2.28,0,.76,.1,1.47,.3,2.12,.2,.65,.5,1.21,.89,1.69,.4,.48,.89,.84,1.48,1.11,.59,.26,1.27,.39,2.05,.39,.46,0,.9-.05,1.33-.15,.43-.1,.81-.27,1.15-.5s.62-.53,.85-.89c.22-.36,.37-.81,.45-1.33h-3.83v-3.62Z"/></g><g><path class="cls-4" d="M88.58,117.63c-1.08-1.32-2.41-1.98-4-1.98-.7,0-1.34,.13-1.94,.38-.6,.25-1.11,.6-1.54,1.04-.43,.44-.77,.96-1.01,1.56-.25,.6-.37,1.25-.37,1.95s.12,1.37,.37,1.98c.25,.6,.59,1.13,1.02,1.57,.44,.44,.95,.79,1.53,1.05,.59,.25,1.22,.38,1.9,.38,1.49,0,2.83-.63,4.02-1.9v5.52l-.48,.17c-.71,.25-1.38,.44-2,.56s-1.23,.18-1.83,.18c-1.24,0-2.42-.23-3.56-.7-1.13-.47-2.13-1.13-3-1.98-.86-.85-1.56-1.86-2.08-3.02s-.79-2.44-.79-3.82,.26-2.65,.77-3.8c.52-1.15,1.21-2.14,2.07-2.97,.86-.83,1.87-1.48,3.01-1.95,1.14-.47,2.34-.7,3.59-.7,.71,0,1.42,.08,2.11,.23,.69,.15,1.42,.39,2.18,.7v5.57Z"/><path class="cls-4" d="M93.37,120.61c0-1.33,.25-2.57,.74-3.72,.49-1.15,1.17-2.15,2.05-3.01,.87-.86,1.92-1.53,3.13-2.01s2.55-.73,4.01-.73,2.78,.24,4,.73c1.22,.48,2.27,1.15,3.15,2.01s1.57,1.86,2.06,3.01c.49,1.15,.74,2.39,.74,3.72s-.25,2.57-.74,3.72c-.49,1.15-1.18,2.15-2.06,3.01s-1.93,1.53-3.15,2.01c-1.22,.48-2.55,.73-4,.73s-2.8-.24-4.01-.73c-1.21-.48-2.26-1.15-3.13-2.01-.87-.86-1.56-1.86-2.05-3.01-.49-1.15-.74-2.39-.74-3.72Zm4.88,0c0,.71,.13,1.37,.4,1.98,.27,.6,.63,1.13,1.09,1.57,.46,.44,1,.79,1.61,1.04,.61,.25,1.26,.37,1.94,.37s1.33-.12,1.94-.37c.61-.25,1.15-.59,1.62-1.04,.47-.44,.84-.97,1.11-1.57s.4-1.26,.4-1.98-.14-1.37-.4-1.98c-.27-.6-.64-1.13-1.11-1.57-.47-.44-1.01-.79-1.62-1.04-.61-.25-1.26-.37-1.94-.37s-1.33,.12-1.94,.37c-.61,.25-1.15,.59-1.61,1.04-.46,.44-.83,.97-1.09,1.57-.27,.6-.4,1.26-.4,1.98Z"/></g></g><path class="cls-2" d="M152.7,111.13l-4.13,19.11c-1.46,6.74-7.42,11.55-14.31,11.55h-59.4v3.86h89.87c5.17,0,9.63-3.6,10.72-8.65l5.6-25.87h-28.34Z"/><path class="cls-5" d="M120.59,111.13l-2.5,11.57c-1.46,6.74-7.42,11.55-14.31,11.55h-28.93v3.86h59.4c5.17,0,9.63-3.6,10.72-8.65l3.97-18.33h-28.34Z"/><path class="cls-3" d="M184.8,111.13l-5.76,26.65c-1.46,6.74-7.42,11.55-14.31,11.55H74.85v3.86h120.34c5.17,0,9.63-3.6,10.72-8.65l7.23-33.41h-28.34Z"/></g></g></g></svg>