<?xml version="1.0" encoding="UTF-8"?><svg id="Layer_2" xmlns="http://www.w3.org/2000/svg" viewBox="0 0 288 216"><defs><style>.cls-1{fill:#000900;}.cls-2{fill:#0b100c;}.cls-3{fill:#4ec4de;}</style></defs><g id="Layer_1-2"><g><rect class="cls-1" width="288" height="216"/><g id="primary_logo"><path class="cls-3" d="M244.62,108c.01,10.52-7.76,19.68-18.48,21.12l-137.28,18.6c-21.94,2.97-42.13-12.4-45.11-34.34-.25-1.81-.36-3.61-.37-5.38,0-1.78,.12-3.57,.37-5.38,2.97-21.94,23.17-37.32,45.11-34.34l137.28,18.6c10.71,1.44,18.49,10.6,18.48,21.12Z"/><g><path class="cls-2" d="M110,116.42h-4.39v-4.39h-14.89v4.39h-4.39v-16.85h18.37c2.93,0,5.31,2.38,5.31,5.31v1.83c0,1.28-.61,2.38-1.53,3.11,.92,.73,1.53,1.83,1.53,3.11v3.48Zm-4.39-8.79v-3.66h-14.89v3.66h14.89Z"/><path class="cls-2" d="M135.64,111.11c0,2.93-2.38,5.31-5.31,5.31h-13.06c-2.93,0-5.31-2.38-5.31-5.31v-6.23c0-2.93,2.38-5.31,5.31-5.31h13.06c2.93,0,5.31,2.38,5.31,5.31v6.23Zm-4.39,.92v-8.06h-14.89v8.06h14.89Z"/><path class="cls-2" d="M161.27,106.72c0,2.93-2.38,5.31-5.31,5.31h-13.98v4.39h-4.39v-16.85h18.37c2.93,0,5.31,2.38,5.31,5.31v1.83Zm-4.39,.92v-3.66h-14.89v3.66h14.89Z"/><path class="cls-2" d="M175.68,116.42h-4.39v-16.85h4.39v16.85Z"/><path class="cls-2" d="M201.49,99.58v12.82c0,2.44-1.95,4.39-4.39,4.39-1.22,0-2.32-.49-3.11-1.28l-11.96-11.9v12.82h-4.39v-12.82c0-2.44,1.98-4.39,4.39-4.39,1.22,0,2.29,.52,3.11,1.31l11.96,11.87v-12.82h4.39Z"/><path class="cls-2" d="M227.31,99.58v12.82c0,2.44-1.95,4.39-4.39,4.39-1.22,0-2.32-.49-3.11-1.28l-11.96-11.9v12.82h-4.39v-12.82c0-2.44,1.98-4.39,4.39-4.39,1.22,0,2.29,.52,3.11,1.31l11.96,11.87v-12.82h4.39Z"/><g><path class="cls-2" d="M77.27,82.41c0-.26-.63-.48-1.27-.55,2.05-.63,4.06-1.02,5.73-1.2,.24-.02,.33-.22,.33-.48,0-.63-.55-1.64-1.2-1.64-3.4,0-9.79,3.14-12.54,5.19-.13,.11-.2,.26-.2,.46,0,.39,.24,.85,.54,.85,.07,0,.11-.02,.17-.07,1.74-1.09,3.77-1.98,5.8-2.68-2.2,4.23-4.8,9.68-4.8,11.56,0,.68,.74,1.61,1.18,1.61,.11,0,.22-.09,.26-.24,1.53-4.67,4.25-9.88,5.95-12.73,.02-.04,.02-.07,.02-.09Z"/><path class="cls-2" d="M91.47,93.24c-.22,0-.41,.15-1.02,.37-.39,.15-.85,.24-1.26,.24-.5,0-.94-.13-1.16-.48,1.59-.35,3.51-1.24,3.51-2.62,0-.85-.65-1.33-1.79-1.33-1.23,0-2.72,.8-3.52,1.91-1.01,.73-2.43,1.67-3.81,2.14,.28-1.09,1.09-2.16,1.09-3.12,0-.44-.48-.87-.89-.87-.83,0-2.86,1.64-4.47,3.25,.35-.65,.85-1.83,1.24-2.53,2.03-2.59,5.41-8.29,5.41-9.59,0-.46-.26-1.11-.68-1.11-.61,0-2.7,3.07-5.17,7.59-1.16,2.14-3.42,6.69-3.42,7.41,0,.37,.46,.76,.83,.76,.61,0,2.7-2.31,4.34-3.4-.22,.59-.81,1.72-.81,2.36s.31,.96,.85,.96c1.13,0,2.89-.86,4.93-2.17,.03,1.56,1.02,2.17,2.59,2.17,1.09,0,2.46-.46,3.21-.89,.31-.17,.35-.33,.35-.61,0-.31-.15-.44-.35-.44Zm-2.05-2.73c.24,0,.37,.17,.37,.39,0,.46-.52,1.13-1.83,1.4,.15-1.09,.79-1.79,1.46-1.79Z"/></g><path class="cls-2" d="M84.37,111.11c0,2.93-2.38,5.31-5.31,5.31h-18.37v-16.85h18.37c2.93,0,5.31,2.38,5.31,5.31v6.23Zm-4.39,.92v-2.46c-6.92,0-9.68-5.6-14.89-5.6v8.06s14.89,0,14.89,0Z"/></g></g></g></g></svg>