<?xml version="1.0" encoding="UTF-8"?><svg id="Layer_2" xmlns="http://www.w3.org/2000/svg" viewBox="0 0 288 216"><defs><style>.cls-1{fill:#000904;}.cls-2{fill:#ec1c24;}.cls-3{fill:#fff;}.cls-4{fill:#ffc121;}.cls-5{fill:#4394d0;}</style></defs><g id="Layer_1-2"><g><rect class="cls-1" width="288" height="216"/><g><g><path class="cls-3" d="M118.89,58.65h5.18v10.38l9.73-10.38h6.8l-10.34,10.36,10.87,14.83h-6.77l-7.76-11-2.53,2.57v8.43h-5.18v-25.19Z"/><path class="cls-3" d="M160.46,66.28c1.22,1.01,1.83,2.68,1.83,5.02v12.54h-4.99v-11.33c0-.98-.13-1.73-.39-2.26-.48-.96-1.38-1.44-2.71-1.44-1.64,0-2.77,.7-3.38,2.1-.32,.74-.48,1.69-.48,2.84v10.08h-4.87v-18.6h4.72v2.72c.62-.96,1.21-1.65,1.77-2.07,1-.75,2.26-1.13,3.79-1.13,1.92,0,3.49,.5,4.71,1.51Z"/><path class="cls-3" d="M184.1,81.56c-1.57,1.94-3.96,2.91-7.16,2.91s-5.59-.97-7.16-2.91c-1.57-1.94-2.36-4.28-2.36-7.01s.79-5.01,2.36-6.98c1.57-1.97,3.96-2.95,7.16-2.95s5.59,.99,7.16,2.95c1.57,1.97,2.36,4.3,2.36,6.98s-.79,5.07-2.36,7.01Zm-3.9-2.69c.76-1.01,1.15-2.45,1.15-4.32s-.38-3.3-1.15-4.31c-.76-1.01-1.86-1.51-3.28-1.51s-2.52,.5-3.29,1.51c-.77,1.01-1.15,2.44-1.15,4.31s.38,3.31,1.15,4.32c.77,1.01,1.87,1.52,3.29,1.52s2.52-.51,3.28-1.52Z"/><path class="cls-3" d="M189.84,83.84l6.36-9.43-6.08-9.16h5.96l3.11,5.4,3.04-5.4h5.79l-6.12,9.08,6.36,9.52h-6.07l-3.21-5.6-3.24,5.6h-5.91Z"/></g><g><path class="cls-3" d="M137.59,97.81c.77,1.07,1.16,2.35,1.16,3.85s-.39,2.77-1.17,3.71c-.43,.52-1.08,1-1.92,1.44,1.29,.47,2.26,1.21,2.91,2.22,.65,1.01,.98,2.25,.98,3.69s-.37,2.83-1.12,4.02c-.48,.79-1.07,1.45-1.78,1.98-.8,.62-1.75,1.04-2.85,1.26-1.09,.23-2.28,.34-3.56,.34h-11.35v-25.19h12.17c3.07,.05,5.25,.94,6.53,2.68Zm-13.68,1.69v5.55h6.12c1.09,0,1.98-.21,2.66-.62,.68-.42,1.02-1.15,1.02-2.21,0-1.17-.45-1.95-1.35-2.32-.78-.26-1.77-.39-2.98-.39h-5.48Zm0,9.72v6.72h6.12c1.09,0,1.94-.15,2.55-.44,1.1-.55,1.66-1.59,1.66-3.14,0-1.31-.54-2.21-1.61-2.7-.6-.27-1.44-.42-2.52-.43h-6.2Z"/><path class="cls-3" d="M155.78,101.25c.06,0,.2,.02,.42,.03v4.99c-.31-.03-.58-.06-.82-.07-.24-.01-.43-.02-.58-.02-1.96,0-3.28,.64-3.95,1.91-.38,.72-.56,1.82-.56,3.32v8.9h-4.91v-18.63h4.65v3.25c.75-1.24,1.41-2.09,1.97-2.55,.91-.76,2.1-1.15,3.55-1.15,.09,0,.17,0,.23,0Z"/><path class="cls-3" d="M172.95,102.06c1.3,.58,2.37,1.5,3.22,2.76,.76,1.11,1.26,2.39,1.48,3.85,.13,.86,.18,2.09,.16,3.7h-13.57c.08,1.87,.72,3.18,1.95,3.93,.74,.47,1.64,.7,2.69,.7,1.11,0,2.01-.28,2.7-.85,.38-.31,.71-.73,1-1.28h4.97c-.13,1.11-.73,2.23-1.81,3.37-1.67,1.81-4,2.72-7.01,2.72-2.48,0-4.67-.76-6.56-2.29s-2.84-4.01-2.84-7.46c0-3.23,.86-5.7,2.57-7.42,1.71-1.72,3.93-2.58,6.66-2.58,1.62,0,3.08,.29,4.38,.87Zm-7.29,4.21c-.69,.71-1.12,1.67-1.3,2.88h8.39c-.09-1.29-.52-2.27-1.3-2.94s-1.74-1-2.89-1c-1.25,0-2.22,.35-2.91,1.06Z"/><path class="cls-3" d="M190.81,101.68h4.94l2.84,13.42,2.91-13.42h5.08l-5.4,18.63h-5.01l-2.92-13.57-2.96,13.57h-5.06l-5.23-18.63h5.23l2.91,13.37,2.68-13.37Z"/></g><g><path class="cls-3" d="M118.89,156.79v-25.19h5.23v9.61h9.79v-9.61h5.23v25.19h-5.23v-11.25h-9.79v11.25h-5.23Z"/><path class="cls-3" d="M150.41,138.16v11.23c0,1.06,.12,1.86,.37,2.39,.44,.95,1.31,1.42,2.6,1.42,1.66,0,2.79-.67,3.4-2.02,.32-.73,.48-1.69,.48-2.89v-10.13h4.94v18.63h-4.73v-2.63c-.05,.06-.16,.23-.34,.51-.18,.29-.4,.54-.65,.75-.76,.68-1.5,1.15-2.21,1.4-.71,.25-1.54,.38-2.5,.38-2.75,0-4.6-.99-5.56-2.97-.53-1.09-.8-2.71-.8-4.84v-11.23h4.99Z"/><path class="cls-3" d="M184.59,140.4c1.39,1.77,2.09,4.05,2.09,6.84s-.69,5.29-2.06,7.2c-1.37,1.9-3.29,2.85-5.75,2.85-1.55,0-2.79-.31-3.73-.92-.56-.36-1.17-1-1.82-1.91v2.34h-4.8v-25.16h4.87v8.96c.62-.87,1.3-1.53,2.05-1.98,.88-.57,2.01-.85,3.37-.85,2.47,0,4.39,.88,5.79,2.65Zm-4.07,11.35c.7-1.01,1.05-2.35,1.05-4,0-1.32-.17-2.42-.52-3.28-.65-1.64-1.86-2.46-3.62-2.46s-3,.8-3.67,2.41c-.34,.85-.52,1.96-.52,3.32,0,1.6,.36,2.92,1.07,3.97,.71,1.05,1.8,1.57,3.26,1.57,1.26,0,2.25-.51,2.95-1.52Z"/></g><circle class="cls-5" cx="95.11" cy="71.56" r="15.38"/><circle class="cls-2" cx="95.11" cy="108.03" r="15.38"/><circle class="cls-4" cx="95.11" cy="144.44" r="15.38"/></g></g></g></svg>