<?xml version="1.0" encoding="UTF-8"?><svg id="Layer_2" xmlns="http://www.w3.org/2000/svg" xmlns:xlink="http://www.w3.org/1999/xlink" viewBox="0 0 288 216"><defs><style>.cls-1{fill:url(#linear-gradient);}.cls-2{fill:#fff;}.cls-3{fill:url(#linear-gradient-8);}.cls-4{fill:url(#linear-gradient-9);}.cls-5{fill:url(#linear-gradient-3);}.cls-6{fill:url(#linear-gradient-4);}.cls-7{fill:url(#linear-gradient-2);}.cls-8{fill:url(#linear-gradient-6);}.cls-9{fill:url(#linear-gradient-7);}.cls-10{fill:url(#linear-gradient-5);}.cls-11{fill:url(#linear-gradient-12);}.cls-12{fill:url(#linear-gradient-10);}.cls-13{fill:url(#linear-gradient-11);}</style><linearGradient id="linear-gradient" x1="28.55" y1="74.22" x2="272.27" y2="155.17" gradientUnits="userSpaceOnUse"><stop offset="0" stop-color="#60489d"/><stop offset=".5" stop-color="#faac65"/><stop offset="1" stop-color="#e5839a"/></linearGradient><linearGradient id="linear-gradient-2" x1="32.61" y1="62" x2="276.33" y2="142.95" xlink:href="#linear-gradient"/><linearGradient id="linear-gradient-3" x1="36.48" y1="50.36" x2="280.2" y2="131.3" xlink:href="#linear-gradient"/><linearGradient id="linear-gradient-4" x1="39.69" y1="40.69" x2="283.41" y2="121.63" xlink:href="#linear-gradient"/><linearGradient id="linear-gradient-5" x1="43.02" y1="30.67" x2="286.73" y2="111.62" xlink:href="#linear-gradient"/><linearGradient id="linear-gradient-6" x1="13.39" y1="119.87" x2="257.11" y2="200.82" xlink:href="#linear-gradient"/><linearGradient id="linear-gradient-7" x1="16.83" y1="109.54" x2="260.54" y2="190.49" xlink:href="#linear-gradient"/><linearGradient id="linear-gradient-8" x1="19.52" y1="101.43" x2="263.23" y2="182.38" xlink:href="#linear-gradient"/><linearGradient id="linear-gradient-9" x1="23.58" y1="89.21" x2="267.29" y2="170.15" xlink:href="#linear-gradient"/><linearGradient id="linear-gradient-10" x1="26.9" y1="79.19" x2="270.62" y2="160.14" xlink:href="#linear-gradient"/><linearGradient id="linear-gradient-11" x1="32.82" y1="61.37" x2="276.54" y2="142.32" xlink:href="#linear-gradient"/><linearGradient id="linear-gradient-12" x1="33.41" y1="59.59" x2="277.13" y2="140.54" xlink:href="#linear-gradient"/></defs><g id="Layer_1-2"><g><rect class="cls-2" width="288" height="216"/><g><g><path class="cls-1" d="M57.94,102.54v-31.84h13.47c7.38,0,11.86,4.84,11.86,11.63,0,7.7-5.35,12.04-11.86,12.04h-3.65v8.17h-9.83Zm9.83-16.93h2.31c2.45,0,3.88-.74,3.88-2.86s-1.38-2.77-3.83-2.77h-2.35v5.63Z"/><path class="cls-7" d="M95.5,102.54v-31.84h22.47v9.78h-12.64v3.27l9.97-.88-.05,6.69-9.92-.55v3.74h12.92v9.78h-22.75Z"/><path class="cls-5" d="M137.26,102.54v-21.82h-6.92v-10.01h23.72v10.01h-6.97v21.82h-9.83Z"/><path class="cls-6" d="M166.75,102.54v-31.84h22.47v9.78h-12.64v3.27l9.97-.88-.05,6.69-9.92-.55v3.74h12.92v9.78h-22.75Z"/><path class="cls-10" d="M202.66,102.54v-31.84h14.53c7.38,0,11.67,3.41,11.67,9.6,0,4.29-2.12,7.34-6.32,8.4,3,.6,4.24,2.49,4.98,5.12l2.54,8.72h-10.52l-2.17-8.31c-.42-1.47-1.34-2.54-2.77-2.86l-2.12-.28v11.44h-9.83Zm9.83-17.72h3.05c2.12,0,3.42-.88,3.42-2.63s-1.61-2.31-3.51-2.31h-2.95v4.94Z"/></g><g><path class="cls-8" d="M32.42,144.74v-31.84h13.47c7.38,0,11.86,4.84,11.86,11.63,0,7.7-5.35,12.04-11.86,12.04h-3.65v8.17h-9.83Zm9.83-16.93h2.31c2.45,0,3.88-.74,3.88-2.86s-1.38-2.77-3.83-2.77h-2.35v5.63Z"/><path class="cls-9" d="M69.98,144.74v-31.84h9.83v31.84h-9.83Z"/><path class="cls-3" d="M94.07,144.74v-31.84h13.47c7.38,0,11.86,4.84,11.86,11.63,0,7.7-5.35,12.04-11.86,12.04h-3.65v8.17h-9.83Zm9.83-16.93h2.31c2.45,0,3.88-.74,3.88-2.86s-1.38-2.77-3.83-2.77h-2.35v5.63Z"/><path class="cls-4" d="M131.64,144.74v-31.84h22.47v9.78h-12.64v3.27l9.97-.88-.05,6.69-9.92-.55v3.74h12.92v9.78h-22.75Z"/><path class="cls-12" d="M167.54,144.74v-31.84h14.53c7.38,0,11.67,3.41,11.67,9.6,0,4.29-2.12,7.34-6.32,8.4,3,.6,4.24,2.49,4.98,5.12l2.54,8.72h-10.52l-2.17-8.31c-.42-1.47-1.34-2.54-2.77-2.86l-2.12-.28v11.44h-9.83Zm9.83-17.72h3.05c2.12,0,3.42-.88,3.42-2.63s-1.61-2.31-3.51-2.31h-2.95v4.94Z"/><path class="cls-13" d="M205.38,128.87l2.81-8.08c-1.11-1.34-1.66-2.91-1.66-4.43,0-2.86,1.8-5.44,5.17-5.44s4.84,2.44,4.84,5.03c0,1.34-.28,2.58-1.02,4.2l-3.74,8.72h-6.41Z"/><path class="cls-11" d="M227.3,136.81l6.51-4.52h.41c.83,3,3.41,3.97,7.06,3.97,2.4,0,4.43-.65,4.43-2.22,0-1.34-2.22-1.66-5.08-2.03-4.75-.6-11.67-1.2-11.67-9.23,0-6.14,4.43-10.38,13.24-10.38,7.34,0,12.78,2.3,13.2,8.39l-6.14,3.83h-.51c-.46-2.4-2.68-3.32-5.77-3.32-2.54,0-4.2,.65-4.2,1.94,0,1.66,2.95,1.94,5.63,2.21,4.61,.46,11.17,1.02,11.17,8.77,0,7.11-5.4,11.07-13.66,11.07-6.92,0-12.46-1.71-14.63-8.49Z"/></g></g></g></g></svg>