<?xml version="1.0" encoding="UTF-8"?><svg id="Layer_2" xmlns="http://www.w3.org/2000/svg" viewBox="0 0 238.44 238.44"><defs><style>.cls-1{fill:#0066b2;}</style></defs><g id="Layer_1-2"><g><g><path class="cls-1" d="M101.11,87.31v21.45c0,20.22-10.9,30.95-31.48,30.95H35.17v42.38H0V56.36H69.63c20.57,0,31.48,10.73,31.48,30.95Zm-35.17,5.8c0-5.1-1.76-6.86-7.03-6.86h-23.74v23.56h23.74c5.28,0,7.03-1.76,7.03-6.86v-9.85Z"/><path class="cls-1" d="M169.51,139h-12.13v43.08h-35.17V56.36h70.16c20.57,0,31.48,10.73,31.48,30.95v20.75c0,14.07-5.28,23.56-15.47,27.96l30.07,46.07h-40.97l-27.96-43.08Zm-12.13-29.89h24.27c5.28,0,7.03-1.76,7.03-6.86v-9.14c0-5.1-1.76-6.86-7.03-6.86h-24.27v22.86Z"/></g><path class="cls-1" d="M101.64-101.64h0c19.41,0,35.17,15.76,35.17,35.17V101.64c0,19.41-15.76,35.17-35.17,35.17h0V-101.64h0Z" transform="translate(101.64 136.81) rotate(-90)"/><path class="cls-1" d="M136.81,101.64h0v238.44h0c-19.41,0-35.17-15.76-35.17-35.17V136.81c0-19.41,15.76-35.17,35.17-35.17Z" transform="translate(-101.64 340.08) rotate(-90)"/></g></g></svg>