<?xml version="1.0" encoding="UTF-8"?><svg id="Layer_2" xmlns="http://www.w3.org/2000/svg" viewBox="0 0 288 216"><defs><style>.cls-1{fill:#f3eee5;}.cls-2{fill:#fff;}.cls-3{fill:#c8ab30;}</style></defs><g id="Layer_1-2"><g><rect class="cls-2" width="288" height="216"/><g><circle class="cls-3" cx="144" cy="108" r="79.53"/><g id="Layer_1-2"><path class="cls-1" d="M198.01,78.23c.92-.92,1.2-2.31,.7-3.52-.5-1.21-1.68-2-2.98-2h-21.27l9.6-9.6c1.26-1.26,1.26-3.31,0-4.57-1.26-1.26-3.31-1.26-4.57,0l-14.17,14.17h-58.52c-1.3,0-2.49,.79-2.98,2-.5,1.21-.23,2.6,.7,3.52l37.2,37.2c1.26,1.26,3.31,1.26,4.57,0l27.32-27.32c.92-.92,1.2-2.31,.7-3.52-.5-1.21-1.68-2-2.98-2h-6.74l3.42-3.42h19.93l-41.28,41.28c-.61,.61-.94,1.43-.94,2.29v28.38c0,1.22,.69,2.34,1.78,2.89l11.02,5.51h-29.03l11.02-5.51c1.09-.55,1.78-1.67,1.78-2.89v-28.38c0-.86-.34-1.68-.94-2.29l-46.79-46.8c-1.26-1.26-3.31-1.26-4.57,0-1.26,1.26-1.26,3.31,0,4.57l45.84,45.85v25.05l-21.47,10.73c-1.34,.67-2.04,2.17-1.7,3.63s1.65,2.49,3.15,2.49h56.39c1.5,0,2.8-1.03,3.15-2.49s-.36-2.96-1.7-3.63l-21.47-10.73v-25.05l45.84-45.84Zm-54.02,30.35l-29.41-29.41h44.28l-3.42,3.42h-24.24c-1.3,0-2.49,.79-2.98,2s-.23,2.6,.7,3.52l12.79,12.79c1.26,1.26,3.31,1.26,4.57,0l11.85-11.85h5.4s-19.53,19.53-19.53,19.53Zm4.99-19.53l-4.99,4.99-4.99-4.99h9.99Z"/></g></g></g></g></svg>