<?xml version="1.0" encoding="UTF-8"?><svg id="Layer_2" xmlns="http://www.w3.org/2000/svg" viewBox="0 0 288 216"><defs><style>.cls-1{fill:#e2dddb;}.cls-2{fill:#54166e;}</style></defs><g id="Layer_1-2"><g><rect class="cls-2" width="288" height="216"/><g><g><path class="cls-1" d="M156.88,129.49c0,15.27-12.88,26.54-29.78,26.54s-29.78-11.26-29.78-26.54,12.88-26.54,29.78-26.54,29.78,11.26,29.78,26.54Zm-38.14,0c0,5.21,3.67,8.79,8.36,8.79s8.36-3.58,8.36-8.79-3.67-8.7-8.36-8.7-8.36,3.67-8.36,8.7Z"/><path class="cls-1" d="M183.66,122.15v31.83h-20.48v-31.83h-4.69v-17.15h4.69v-11.86l20.48-2.56v14.42h4.69v17.15h-4.69Z"/><path class="cls-1" d="M221.89,156.03c-20.99,0-31.91-10.66-31.91-26.54s11.09-26.54,28.93-26.54c14.93,0,26.88,11.09,26.88,26.71v5.72h-33.7c1.45,4.44,5.29,5.63,10.58,5.63s8.87-1.62,12.54-4.01l10.58,11.52c-5.21,4.35-13.99,7.51-23.89,7.51Zm-9.81-31.74h12.71c-.94-3.67-2.99-5.63-6.31-5.63s-5.46,1.88-6.4,5.63Z"/></g><polygon class="cls-1" points="87.42 41.97 73.06 117.7 65.42 74.88 42.22 74.88 58.14 154.1 58.24 154.59 87.98 154.59 110.61 41.97 87.42 41.97"/></g></g></g></svg>