<?xml version="1.0" encoding="UTF-8"?><svg id="Layer_2" xmlns="http://www.w3.org/2000/svg" viewBox="0 0 219.84 45.16"><defs><style>.cls-1{fill:#008bc0;}.cls-2{fill:#d93a37;}.cls-3{fill:#54166e;}</style></defs><g id="Layer_1-2"><g><g><path class="cls-1" d="M109.92,16.93c4.18,0,7.82,2.27,9.77,5.64,.96-1.66,1.51-3.59,1.51-5.64,0-6.23-5.05-11.29-11.29-11.29s-11.29,5.05-11.29,11.29c0,2.06,.55,3.98,1.51,5.64,1.95-3.37,5.6-5.64,9.77-5.64Z"/><path class="cls-2" d="M121.21,28.22c0-2.06-.55-3.98-1.51-5.64-1.95,3.37-5.6,5.64-9.77,5.64s-7.82-2.27-9.77-5.64c-.96,1.66-1.51,3.59-1.51,5.64,0,6.23,5.05,11.29,11.29,11.29s11.29-5.05,11.29-11.29Z"/><path class="cls-3" d="M109.92,28.22c4.18,0,7.82-2.27,9.77-5.64-1.95-3.37-5.6-5.64-9.77-5.64s-7.82,2.27-9.77,5.64c1.95,3.37,5.6,5.64,9.77,5.64Z"/></g><g><path class="cls-1" d="M85.26,15.52c4.74,0,8.79,2.92,10.47,7.06,.53-1.31,.82-2.74,.82-4.23,0-6.23-5.05-11.29-11.29-11.29s-11.29,5.05-11.29,11.29c0,1.5,.29,2.93,.82,4.23,1.68-4.14,5.73-7.06,10.47-7.06Z"/><path class="cls-2" d="M96.55,26.81c0-1.5-.29-2.93-.82-4.23-1.68,4.14-5.73,7.06-10.47,7.06s-8.79-2.92-10.47-7.06c-.53,1.31-.82,2.74-.82,4.23,0,6.23,5.05,11.29,11.29,11.29s11.29-5.05,11.29-11.29Z"/><path class="cls-3" d="M85.26,29.63c4.74,0,8.79-2.92,10.47-7.06-1.68-4.14-5.73-7.06-10.47-7.06s-8.79,2.92-10.47,7.06c1.68,4.14,5.73,7.06,10.47,7.06Z"/></g><g><path class="cls-1" d="M134.58,18.34c3.56,0,6.74,1.65,8.81,4.23,1.55-1.93,2.48-4.39,2.48-7.06,0-6.23-5.05-11.29-11.29-11.29s-11.29,5.05-11.29,11.29c0,2.67,.93,5.12,2.48,7.06,2.07-2.58,5.25-4.23,8.81-4.23Z"/><path class="cls-2" d="M145.87,29.63c0-2.67-.93-5.12-2.48-7.06-2.07,2.58-5.25,4.23-8.81,4.23s-6.74-1.65-8.81-4.23c-1.55,1.93-2.48,4.39-2.48,7.06,0,6.23,5.05,11.29,11.29,11.29s11.29-5.05,11.29-11.29Z"/><path class="cls-3" d="M134.58,26.81c3.56,0,6.74-1.65,8.81-4.23-2.07-2.58-5.25-4.23-8.81-4.23s-6.74,1.65-8.81,4.23c2.07,2.58,5.25,4.23,8.81,4.23Z"/></g><g><path class="cls-1" d="M60.61,14.11c5.26,0,9.68,3.6,10.93,8.47,.23-.9,.36-1.85,.36-2.82,0-6.23-5.05-11.29-11.29-11.29s-11.29,5.05-11.29,11.29c0,.97,.12,1.92,.36,2.82,1.25-4.87,5.67-8.47,10.93-8.47Z"/><path class="cls-2" d="M71.89,25.4c0-.97-.12-1.92-.36-2.82-1.25,4.87-5.67,8.47-10.93,8.47s-9.68-3.6-10.93-8.47c-.23,.9-.36,1.85-.36,2.82,0,6.23,5.05,11.29,11.29,11.29s11.29-5.05,11.29-11.29Z"/><path class="cls-3" d="M60.61,31.04c5.26,0,9.68-3.6,10.93-8.47-1.25-4.87-5.67-8.47-10.93-8.47s-9.68,3.6-10.93,8.47c1.25,4.87,5.67,8.47,10.93,8.47Z"/></g><g><path class="cls-1" d="M35.95,12.7c5.76,0,10.5,4.31,11.2,9.88,.06-.46,.09-.93,.09-1.41,0-6.23-5.05-11.29-11.29-11.29s-11.29,5.05-11.29,11.29c0,.48,.03,.95,.09,1.41,.69-5.57,5.44-9.88,11.2-9.88Z"/><path class="cls-2" d="M47.24,23.99c0-.48-.03-.95-.09-1.41-.69,5.57-5.44,9.88-11.2,9.88s-10.5-4.31-11.2-9.88c-.06,.46-.09,.93-.09,1.41,0,6.23,5.05,11.29,11.29,11.29s11.29-5.05,11.29-11.29Z"/><path class="cls-3" d="M35.95,32.46c5.76,0,10.5-4.31,11.2-9.88-.69-5.57-5.44-9.88-11.2-9.88s-10.5,4.31-11.2,9.88c.69,5.57,5.44,9.88,11.2,9.88Z"/></g><circle class="cls-3" cx="11.29" cy="22.58" r="11.29"/><g><path class="cls-1" d="M189.36,22.58c3.47-1.93,5.82-5.63,5.82-9.88,0-6.23-5.05-11.29-11.29-11.29s-11.29,5.05-11.29,11.29c0,4.25,2.35,7.95,5.82,9.88,1.62-.9,3.48-1.41,5.47-1.41s3.85,.51,5.47,1.41Z"/><path class="cls-2" d="M195.19,32.46c0-4.25-2.35-7.95-5.82-9.88-1.62,.9-3.48,1.41-5.47,1.41s-3.85-.51-5.47-1.41c-3.47,1.93-5.82,5.63-5.82,9.88,0,6.23,5.05,11.29,11.29,11.29s11.29-5.05,11.29-11.29Z"/><path class="cls-3" d="M189.36,22.58c-1.62-.9-3.48-1.41-5.47-1.41s-3.85,.51-5.47,1.41c1.62,.9,3.48,1.41,5.47,1.41s3.85-.51,5.47-1.41Z"/></g><g><path class="cls-1" d="M166.7,22.58c2.35-2.07,3.83-5.09,3.83-8.47,0-6.23-5.05-11.29-11.29-11.29s-11.29,5.05-11.29,11.29c0,3.37,1.48,6.4,3.83,8.47,1.99-1.76,4.6-2.82,7.46-2.82s5.47,1.07,7.46,2.82Z"/><path class="cls-2" d="M170.53,31.04c0-3.37-1.48-6.4-3.83-8.47-1.99,1.76-4.6,2.82-7.46,2.82s-5.47-1.07-7.46-2.82c-2.35,2.07-3.83,5.09-3.83,8.47,0,6.23,5.05,11.29,11.29,11.29s11.29-5.05,11.29-11.29Z"/><path class="cls-3" d="M166.7,22.58c-1.99-1.76-4.6-2.82-7.46-2.82s-5.47,1.07-7.46,2.82c1.99,1.76,4.6,2.82,7.46,2.82s5.47-1.07,7.46-2.82Z"/></g><g><circle class="cls-1" cx="208.55" cy="11.29" r="11.29"/><circle class="cls-2" cx="208.55" cy="33.87" r="11.29"/></g></g></g></svg>