<?xml version="1.0" encoding="UTF-8"?><svg id="Layer_2" xmlns="http://www.w3.org/2000/svg" viewBox="0 0 816.26 471.31"><defs><style>.cls-1{letter-spacing:.1em;}.cls-2{letter-spacing:.1em;}.cls-3{letter-spacing:.1em;}.cls-4{fill:none;stroke:#e2dddb;stroke-miterlimit:10;stroke-width:3px;}.cls-5{letter-spacing:.1em;}.cls-6{letter-spacing:.1em;}.cls-7{font-family:HossSharp-Black, 'Hoss Sharp';font-size:24px;font-weight:800;}.cls-7,.cls-8{fill:#e2dddb;}.cls-9{fill:#005a8c;}.cls-10{fill:#008cbd;}.cls-11{fill:#bab7b6;}.cls-12{fill:#d63c3c;}.cls-13{fill:#0c0024;}.cls-14{fill:#320046;}.cls-15{fill:#531b6c;}.cls-16{letter-spacing:.08em;}.cls-17{letter-spacing:.09em;}.cls-18{letter-spacing:.06em;}.cls-19{letter-spacing:.1em;}.cls-20{letter-spacing:.11em;}.cls-21{letter-spacing:.09em;}.cls-22{letter-spacing:.09em;}.cls-23{letter-spacing:.09em;}.cls-24{letter-spacing:.08em;}.cls-25{letter-spacing:.08em;}.cls-26{letter-spacing:.1em;}</style></defs><g id="Layer_1-2"><g><g><rect class="cls-14" x="0" y="430.17" width="816.26" height="41.13" rx="20.57" ry="20.57"/><path class="cls-14" d="M297.38,434.49v-109.97c0-10.94,4.35-21.43,12.08-29.17l16.4-16.4c7.74-7.74,12.08-18.23,12.08-29.17v-35.11l10.46,10.46h20.02l10.46-10.46v80.43l24.74-7.58v-20.82h0c-3.6,0-6.53-2.92-6.53-6.53v-2.98c0-3.6,2.92-6.53,6.53-6.53h8.56c3.6,0,6.53,2.92,6.53,6.53v36.59c0,5.42-2.23,10.61-6.16,14.35l-33.67,31.97v99"/><path class="cls-14" d="M434.45,325.43h-10.63c-4.07,0-7.37-3.3-7.37-7.37v-10.63l3.01,6.02c.91,1.82,2.78,2.98,4.82,2.98h10.17c2.88-2.88,6.79-4.5,10.86-4.5h9.98c4.07,0,7.98,1.62,10.86,4.5h0s10.17,0,10.17,0c2.04,0,3.9-1.15,4.82-2.98l3.01-6.02v10.63c0,4.07-3.3,7.37-7.37,7.37h-4.6c-1.54,0-2.04,2.07-.68,2.78l9.46,4.9c3.54,1.83,7.46,2.79,11.45,2.79h133.06l22.28,103.2h-190.37v-28.93c0-6.45-2.56-12.64-7.13-17.21l-8.77-8.77c-4.58-4.58-7.14-10.79-7.13-17.26l.09-41.51Z"/><polyline class="cls-14" points="372.66 347.83 425.44 347.83 425.44 390.38 403.61 390.38 403.61 436.77 394.61 436.77 394.61 390.38 364.52 390.38"/><rect class="cls-14" x="409.63" y="393.85" width="43.59" height="26.06"/><rect class="cls-14" x="418.63" y="415.43" width="2.27" height="19.22"/><rect class="cls-14" x="441.96" y="415.43" width="2.27" height="19.22"/><path class="cls-14" d="M35.98,241.16l15.14-6.66c9.69-4.27,21.03-1.76,28.03,6.18l82.59,93.76-59.64,113.31-46.21-63.99c-7.48-10.36-11.51-22.82-11.51-35.6v-84c0-5.61-4.55-10.16-10.16-10.16h-14.6l1.47-1.73c4.06-4.78,9.15-8.58,14.89-11.11Z"/><rect class="cls-14" x="475.05" y="205.28" width="147.01" height="87.89"/><rect class="cls-14" x="505.4" y="278.05" width="7.64" height="64.82"/><rect class="cls-14" x="584.07" y="278.05" width="7.64" height="64.82"/><circle class="cls-14" cx="89.72" cy="197.11" r="13.85"/><circle class="cls-14" cx="148.98" cy="197.11" r="13.85"/><circle class="cls-14" cx="135.12" cy="208.83" r="19.96"/><circle class="cls-14" cx="176.57" cy="196.76" r="20.47"/><circle class="cls-14" cx="120.82" cy="185.28" r="25.42"/><circle class="cls-14" cx="278.14" cy="132.85" r="13.85"/><circle class="cls-14" cx="337.4" cy="132.85" r="13.85"/><circle class="cls-14" cx="323.54" cy="144.57" r="19.96"/><circle class="cls-14" cx="364.99" cy="132.5" r="20.47"/><circle class="cls-14" cx="309.23" cy="121.02" r="25.42"/><circle class="cls-14" cx="193.23" cy="25.26" r="13.85"/><circle class="cls-14" cx="260.83" cy="32.27" r="19.96"/><circle class="cls-14" cx="229.22" cy="27.28" r="25.42"/><circle class="cls-14" cx="679.45" cy="45.53" r="13.85"/><circle class="cls-14" cx="566.2" cy="39.93" r="13.85"/><circle class="cls-14" cx="620.19" cy="31.68" r="13.85"/><circle class="cls-14" cx="634.04" cy="19.96" r="19.96"/><circle class="cls-14" cx="592.6" cy="32.03" r="20.47"/><circle class="cls-14" cx="648.35" cy="43.52" r="25.42"/></g><g><g><path class="cls-8" d="M404.34,142.18c-.46,1.11-.71,2.32-.71,3.56v1.05c0,4.71,4.18,8.34,8.83,7.65,100.39-14.93,202.48-14.48,302.77,1.35v-13.5c-102.99-16.26-207.89-16.29-310.88-.11Z"/><path class="cls-13" d="M403.8,121.14c-.06,0-.11,.02-.17,.02v24.57c0-1.24,.25-2.45,.71-3.56,.75-1.8,2.06-3.35,3.79-4.39,2.17-1.3,3.68-3.43,4.24-5.84,.16-.69,.26-1.39,.26-2.11v-1.05c0-4.71-4.18-8.34-8.83-7.65Z"/><path class="cls-10" d="M412.37,131.95c-.57,2.41-2.07,4.53-4.24,5.84-1.73,1.04-3.04,2.59-3.79,4.39,103-16.18,207.9-16.15,310.88,.11v-9c-100.31-15.84-202.44-16.28-302.85-1.34Z"/><path class="cls-10" d="M412.63,61.49v9c100.33-14.9,202.37-14.45,302.6,1.38v-9c-100.23-15.82-202.26-16.28-302.6-1.38Z"/><path class="cls-8" d="M412.63,47.99v13.5c100.33-14.9,202.37-14.45,302.6,1.38v-13.5c-100.23-15.82-202.26-16.28-302.6-1.38Z"/><path class="cls-8" d="M412.63,70.49v59.35c0,.72-.1,1.43-.26,2.11,100.42-14.94,202.54-14.5,302.85,1.34,0-20.47,0-40.95,0-61.42-100.23-15.82-202.26-16.28-302.6-1.38Z"/><path class="cls-8" d="M403.8,37.22c-100.39,14.93-202.48,14.48-302.77-1.35,0,20.47,0,40.95,0,61.42,100.28,15.83,202.38,16.28,302.77,1.35,4.66-.69,8.83,2.94,8.83,7.65V44.87c0-4.71-4.18-8.34-8.83-7.65Z"/><path class="cls-8" d="M412.63,128.79v-13.5c0-4.71-4.18-8.34-8.83-7.65-100.39,14.93-202.48,14.48-302.77-1.35v13.5c100.23,15.82,202.26,16.28,302.6,1.38v0c.06,0,.11-.02,.17-.02,4.66-.69,8.83,2.94,8.83,7.65Z"/><path class="cls-8" d="M403.8,28.22c4.66-.69,8.83,2.94,8.83,7.65v-13.5c0-4.71-4.18-8.34-8.83-7.65-100.39,14.93-202.48,14.48-302.77-1.35v13.5c100.28,15.83,202.38,16.28,302.77,1.35Z"/><path class="cls-10" d="M403.8,37.22c4.66-.69,8.83,2.94,8.83,7.65v-9c0-4.71-4.18-8.34-8.83-7.65-100.39,14.93-202.48,14.48-302.77-1.35v9c100.28,15.83,202.38,16.28,302.77,1.35Z"/><path class="cls-10" d="M403.8,107.64c4.66-.69,8.83,2.94,8.83,7.65v-9c0-4.71-4.18-8.34-8.83-7.65-100.39,14.93-202.48,14.48-302.77-1.35v9c100.28,15.83,202.38,16.28,302.77,1.35Z"/></g><g><path class="cls-12" d="M148.09,90.07v-10.97c-3.74-8.22-7.47-16.47-11.2-24.73,4.53,.55,9.06,1.06,13.59,1.55,1.3,4,2.59,7.99,3.89,11.98,.1,.01,.2,.02,.3,.03,1.3-3.72,2.59-7.45,3.89-11.18,4.54,.45,9.08,.87,13.62,1.25-3.74,7.5-7.48,14.97-11.22,22.43v10.97c-4.29-.41-8.57-.85-12.86-1.32Z"/><path class="cls-12" d="M168.38,78.72c0-8.14,4.79-13.42,13.73-12.74,8.94,.66,13.74,6.67,13.74,14.8,0,8.12-4.8,13.7-13.74,13.03-8.94-.68-13.72-6.97-13.73-15.09Zm16.57,1.33c0-1.8-.8-2.85-2.85-3-2.1-.16-2.95,.77-2.95,2.57,0,1.85,.85,2.91,2.9,3.06,2.1,.16,2.9-.78,2.9-2.63Z"/><path class="cls-12" d="M198.29,86.21v-18.61c4,.23,8,.45,12,.63v13.77c0,1.5,.3,2.36,1.3,2.4,1.45,.07,2-1.31,2-3.8v-12.22c4,.17,8,.32,12,.45v15.61c.43,3.7,.87,7.41,1.3,11.11-3.92-.12-7.84-.26-11.75-.42-.23-3.09-.47-6.17-.7-9.26-.12,0-.23,0-.35-.01-.7,8.7-5.15,9.6-8.25,9.44-5-.26-7.55-4.06-7.55-9.09Z"/><path class="cls-12" d="M229.99,95.65v-15.56c-.33-3.72-.67-7.43-1-11.15,3.8,.11,7.6,.19,11.41,.25,.28,3.2,.57,6.39,.85,9.59,.32,0,.63,0,.95,.01-.3-7.89,2.6-9.88,6.45-9.85,1.55,.01,2.05,.26,2.05,.26,0,4.36,0,8.71,0,13.07-.6-.1-1.75-.26-2.85-.27-4.95-.05-5.85,1.67-5.85,4.12v9.78c-4-.06-8-.14-12.01-.25Z"/><path class="cls-12" d="M283.32,61.24c4.69-.12,9.37-.28,14.05-.47-3.48,11.61-6.97,23.21-10.45,34.79-5.2,.16-10.4,.27-15.61,.35-3.49-11.42-6.97-22.86-10.46-34.32,4.69-.02,9.37-.07,14.06-.16,1.4,6.74,2.8,13.48,4.2,20.22,1.4-6.8,2.8-13.6,4.2-20.4Z"/><path class="cls-12" d="M295.83,81.88c0-8.14,4.8-14.03,13.75-14.5,8.95-.48,13.74,4.91,13.74,13.05,0,8.12-4.79,14.31-13.74,14.79-8.95,.47-13.75-5.21-13.75-13.33Zm16.6-.79c0-1.8-.8-2.75-2.85-2.64-2.1,.11-2.95,1.15-2.95,2.94,0,1.85,.85,2.8,2.9,2.69,2.1-.11,2.9-1.16,2.9-3Z"/><path class="cls-12" d="M328.57,83.25v-6.04c-1.23,.17-2.46,.34-3.7,.51v-10.57c1.37,0,2.73,.01,4.1,.01,.03-2.01,.07-4.03,.1-6.04,3.9-.28,7.79-.59,11.68-.92-.03,2.06-.07,4.13-.1,6.19,2.25-.37,4.49-.75,6.74-1.14,0,3.56,0,7.12,0,10.67-2.24,.07-4.49,.13-6.74,.19v3.89c0,1.45,.6,2.24,1.75,2.15,1-.09,2.49-1.26,3.39-2.24,.08,0,.17-.01,.25-.02,.88,2.73,1.76,5.46,2.64,8.19-1.8,2.81-5.64,4.76-10.23,5.13-6.89,.56-9.89-2.54-9.89-9.96Z"/><path class="cls-12" d="M372.35,77.24c1.48,2.37,2.95,4.74,4.43,7.11-1.84,2.86-5.72,5.73-12.35,6.45-9.86,1.06-14.8-4.15-14.8-12.52,0-9.68,6.29-14.39,14.26-15.25,7.67-.83,12.9,2.51,12.9,9.4,0,1.15-.15,2.41-.3,3.73-5.09,.61-10.19,1.19-15.29,1.72,.05,1.49,1,2.59,4.38,2.22,3.19-.35,4.88-1.34,6.32-2.81,.15-.02,.3-.03,.45-.05Zm-11.16-2.31c1.53-.18,3.06-.36,4.58-.54-.15-1.38-.95-2.04-2.19-1.91-1.1,.12-2.14,.88-2.39,2.45Z"/></g><g><path class="cls-12" d="M451.38,113.42v-34.42c5.41-.59,10.83-1.13,16.25-1.63,1.48,5.07,2.96,10.14,4.44,15.21,1.45-5.33,2.89-10.66,4.34-15.98,5.46-.45,10.92-.86,16.38-1.23v34.37c-4,.27-7.99,.56-11.98,.87v-15.91s-.07,0-.1,0c-1.53,5.44-3.06,10.89-4.59,16.34-2.69,.23-5.39,.46-8.08,.71-1.53-5.18-3.06-10.36-4.59-15.53-.03,0-.07,0-.1,0v15.96c-3.99,.39-7.98,.79-11.96,1.23Z"/><path class="cls-12" d="M495.59,102.67c0-4.59,3.65-6.82,8.74-7.11,4-.22,5.95,1.09,6.35,2.81,.08,0,.17,0,.25-.01v-2.99c0-1.5-.4-2.97-2.65-2.86-1.95,.1-2.85,.85-2.8,2.24-.17,0-.33,.02-.5,.03-3.07-.4-6.13-.78-9.19-1.15-.75-6.48,3.05-11.5,13.14-12.02,7.3-.37,13.35,2.81,13.35,10.59v4.69c.3,3.78,.6,7.56,.9,11.34-3.58,.13-7.17,.28-10.75,.45-.35-2.24-.7-4.49-1.05-6.73-.1,0-.2,0-.3,.01,0,5.19-3.1,7.53-7.85,7.79-5.35,.3-7.65-2.98-7.65-7.07Zm15.59-2.37c0-.75-.7-1.06-2-1-1.2,.06-1.95,.45-1.95,1.2,0,.8,.75,1.11,1.95,1.05,1.45-.07,2-.6,2-1.25Z"/><path class="cls-12" d="M528.49,97.87v-6.04c-1.23,.12-2.47,.25-3.7,.37v-10.57c1.37,.05,2.73,.11,4.1,.17,.03-2.01,.07-4.03,.1-6.04,3.9-.12,7.8-.22,11.71-.29-.03,2.06-.07,4.12-.1,6.19,2.25-.23,4.5-.44,6.75-.65v10.67c-2.25-.11-4.5-.2-6.75-.29v3.89c0,1.45,.6,2.28,1.75,2.26,1-.02,2.5-1.09,3.4-2,.08,0,.17,0,.25,0,.88,2.8,1.77,5.6,2.65,8.4-1.8,2.66-5.65,4.31-10.26,4.4-6.9,.15-9.9-3.03-9.9-10.47Z"/><path class="cls-12" d="M553.85,97.4v-6.04c-1.23,.09-2.47,.18-3.7,.28v-10.57c1.37,.09,2.74,.18,4.1,.27,.03-2.01,.07-4.02,.1-6.04,3.9-.02,7.81-.02,11.71,0-.03,2.06-.07,4.12-.1,6.18,2.25-.17,4.5-.33,6.75-.48v10.67c-2.25-.16-4.5-.32-6.75-.47v3.89c0,1.45,.6,2.3,1.75,2.31,1,0,2.5-1.02,3.4-1.91,.08,0,.17,0,.25,0,.88,2.82,1.77,5.64,2.65,8.46-1.8,2.62-5.65,4.16-10.26,4.14-6.9-.02-9.91-3.28-9.91-10.72Z"/><path class="cls-12" d="M597.78,96.23c1.48,2.6,2.97,5.21,4.45,7.81-1.85,2.57-5.75,4.79-12.4,4.58-9.9-.29-14.86-5.97-14.86-14.36,0-9.67,6.3-13.73,14.31-13.49,7.7,.23,12.95,4.46,12.95,11.35,0,1.15-.15,2.39-.3,3.68-5.12-.22-10.23-.4-15.35-.54,.05,1.5,1,2.72,4.4,2.82,3.2,.1,4.9-.63,6.35-1.87,.15,0,.3,.01,.45,.02Zm-11.2-3.91c1.53,.03,3.07,.05,4.6,.09-.15-1.4-.95-2.18-2.2-2.21-1.1-.03-2.15,.59-2.4,2.13Z"/><path class="cls-12" d="M604.98,108.6v-15.56c-.33-3.72-.67-7.45-1-11.17,3.8,.17,7.6,.36,11.4,.57,.28,3.21,.57,6.42,.85,9.63,.32,.02,.63,.04,.95,.05-.3-7.9,2.6-9.78,6.45-9.53,1.55,.1,2.05,.38,2.05,.38v13.07c-.6-.14-1.75-.36-2.85-.43-4.95-.31-5.85,1.39-5.85,3.84v9.78c-4-.23-8-.44-12-.62Z"/><path class="cls-12" d="M626.02,103.9c2.03-1.38,4.06-2.75,6.09-4.11,.12,0,.23,.02,.35,.03,1.25,1.79,2.75,2.34,6.49,2.64,1.55,.12,2.9-.01,2.9-.81,0-.8-2.1-1.12-4.04-1.37-5.24-.71-10.24-2.3-10.24-8.73,0-5.28,4.1-8.62,12.63-7.93,6.69,.54,11.83,2.88,12.27,7.81-2.03,1.16-4.06,2.32-6.09,3.49-.18-.02-.37-.03-.55-.05-.5-1.54-3.24-1.97-4.89-2.11-1.85-.15-2.35,.46-2.35,.86,0,1.3,3.39,1.37,5.04,1.56,5.49,.66,9.33,2.33,9.33,8.17,0,6.09-6.03,8.65-12.77,8.11-6.84-.55-11.78-1.74-14.18-7.53Z"/><path class="cls-12" d="M659.21,99.24c-1.41-7.17-2.83-14.35-4.24-21.52,4.17,.4,8.34,.83,12.51,1.28-1.39,6.88-2.79,13.77-4.18,20.65-1.36-.14-2.72-.28-4.09-.42Zm-4.19,7.22c0-3.64,2.44-6,6.18-5.62,3.74,.38,6.23,3.25,6.23,6.89,0,3.59-2.49,5.91-6.23,5.53-3.74-.38-6.18-3.21-6.18-6.8Z"/></g></g><line class="cls-4" x1="720.63" y1="49.37" x2="720.63" y2="448.17"/><g><polygon class="cls-8" points="620.04 299.61 656.77 299.61 656.77 283.54 620.04 289.05 620.04 299.61"/><path class="cls-13" d="M637.7,216.21c14.08,0,14.08-16.29,14.08-26.06h-64.69s-1.35,2.92-1.76,6.93h12.62c14.99,0,25.41,19.14,39.75,19.14Zm-1.63-17.81c2.29,0,4.14,1.85,4.14,4.14s-1.85,4.14-4.14,4.14-4.14-1.85-4.14-4.14,1.85-4.14,4.14-4.14Z"/><path class="cls-12" d="M566.2,297.33c0-19.07-15.46-34.53-34.53-34.53h-16.29c9.39,9.39,14.66,22.12,14.66,35.39v51.04c0,17.61,13.19,32.14,30.23,34.26l5.93-17.34v-68.81Z"/><path class="cls-12" d="M617.86,254.87h47.91l-.49-64.72h-13.5c0,9.77,0,26.06-14.08,26.06s-24.76-19.14-39.75-19.14h-12.62c-.32,3.08-.08,6.8,1.76,10.34,4.24,8.14,29,12.71,12.75,60.33,2.63-7.7,9.87-12.88,18.01-12.88Z"/><path class="cls-13" d="M656.77,435.86c0,2.49-2.01,4.5-4.5,4.5s-4.5,2.01-4.5,4.5,2.01,4.5,4.5,4.5h37.59l4.5,4.5v-4.5l4.5,4.5v-4.5l4.5,4.5v-7.65c0-3.23-2.62-5.85-5.85-5.85h-27.24c-2.49,0-4.5-2.01-4.5-4.5v-5.68h-9v5.68Z"/><path class="cls-13" d="M536.13,440.36h-27.17c-3.23,0-5.85,2.62-5.85,5.85v7.65l4.5-4.5v4.5l4.5-4.5v4.5l4.5-4.5h37.59c2.49,0,4.5-2.01,4.5-4.5h0c0-2.49-2.01-4.5-4.5-4.5h0c-2.2,0-3.73-2.17-3-4.24l2.1-5.94h-9l-2.08,5.87c-.91,2.58-3.35,4.31-6.09,4.31Z"/><path class="cls-8" d="M665.77,282.18v34.37h9.41c5.19,0,10.24-1.65,14.43-4.71l22.11-16.14v-20.42l-45.95,6.9Z"/><path class="cls-8" d="M602.58,299.61h1.81c5.34,0,9.67-4.33,9.67-9.67h0l-7.42,1.11,7.42-1.11v0l5.98-.9v0l36.72-5.51v0l54.95-8.25v-20.42h-93.86c-8.14,0-15.38,5.18-18.01,12.88l-6.93,20.27v1.92c0,5.34,4.33,9.67,9.67,9.67Z"/><path class="cls-10" d="M656.77,283.54v16.08h-36.72v-10.57l-5.98,.9c0,5.34-4.33,9.67-9.67,9.67h-1.81c-5.34,0-9.67-4.33-9.67-9.67v-1.92l-26.71,78.12-5.93,17.34-15.97,46.69h49.46l20.57-46.41,6.43,46.41h45v-147.99l-9,1.35Z"/><path class="cls-8" d="M680.92,182.33h0c0-4.32-3.5-7.82-7.82-7.82s-7.82,3.5-7.82,7.82v7.82h7.82c4.32,0,7.82-3.5,7.82-7.82Z"/><path class="cls-8" d="M639.2,182.33c0-4.32-3.5-7.82-7.82-7.82s-7.82,3.5-7.82,7.82h0c0,4.32,3.5,7.82,7.82,7.82h7.82v-7.82Z"/><path class="cls-12" d="M724.23,254.87h-12.51v20.42h12.51c4.37,0,7.91-3.54,7.91-7.91v-4.6c0-4.37-3.54-7.91-7.91-7.91h0Z"/><path class="cls-12" d="M711.72,295.7h12.51c4.37,0,7.91-3.54,7.91-7.91v-4.6c0-4.37-3.54-7.91-7.91-7.91h-12.51v20.42Z"/><circle class="cls-10" cx="636.07" cy="202.54" r="4.14"/><path class="cls-11" d="M606.64,291.06h7.35c.04-.37,.07-.74,.07-1.11l-7.42,1.11Z"/><polygon class="cls-11" points="656.77 291.06 656.77 283.54 620.04 289.05 620.04 291.06 656.77 291.06"/><polygon class="cls-9" points="656.77 283.54 656.77 291.06 665.77 291.06 665.77 282.18 656.77 283.54"/><path class="cls-9" d="M620.04,289.05l-2.98,.45-3.01,.45c0,.38-.03,.75-.07,1.11h6.05v-2.01Z"/><polygon class="cls-11" points="614.06 289.94 614.06 289.94 617.07 289.49 614.06 289.94"/><g><path class="cls-13" d="M536.14,368.82h29.15l.91-2.68v-9.16h-35.28c.99,4.31,2.79,8.31,5.22,11.84Z"/><rect class="cls-13" x="530.04" y="330.48" width="36.16" height="11.84"/><rect class="cls-13" x="530.04" y="303.97" width="36.16" height="11.84"/><path class="cls-13" d="M525.53,277.47c1.71,3.77,2.96,7.74,3.7,11.84h36.02c-1.03-4.32-2.87-8.32-5.35-11.84h-34.37Z"/></g><path class="cls-11" d="M665.77,291.06v-8.87l45.95-6.9-25.42,12.82c-3.85,1.94-8.1,2.95-12.42,2.95h-8.12Z"/><rect class="cls-9" x="620.04" y="303.74" width="36.72" height="7.38"/></g><g><rect class="cls-8" x="678.34" y="362.87" width="20.8" height="20.8"/><polygon class="cls-15" points="688.73 381.95 686.14 381.95 681.07 371.82 683.67 370.52 687.44 378.06 694.18 364.58 696.77 365.88 688.73 381.95"/></g><g><rect class="cls-8" x="113.7" y="243.59" width="20.8" height="20.8"/><polygon class="cls-15" points="124.1 262.68 121.5 262.68 116.43 252.55 119.03 251.25 122.8 258.79 129.54 245.31 132.13 246.61 124.1 262.68"/></g><g><rect class="cls-8" x="461.68" y="362.87" width="20.8" height="20.8"/><polygon class="cls-15" points="472.08 381.95 469.48 381.95 464.41 371.82 467.01 370.52 470.78 378.06 477.52 364.58 480.11 365.88 472.08 381.95"/></g><g><rect class="cls-8" x="554.85" y="154.13" width="20.8" height="20.8"/><polygon class="cls-15" points="565.24 173.22 562.65 173.22 557.58 163.09 560.18 161.79 563.94 169.33 570.68 155.85 573.28 157.15 565.24 173.22"/></g><g><rect class="cls-8" x="739.52" y="198.76" width="20.8" height="20.8"/><polygon class="cls-15" points="749.91 217.84 747.32 217.84 742.25 207.71 744.85 206.41 748.62 213.95 755.36 200.47 757.95 201.77 749.91 217.84"/></g><g><rect class="cls-8" x="54.63" y="27.08" width="20.8" height="20.8"/><polygon class="cls-15" points="65.03 46.17 62.43 46.17 57.36 36.03 59.96 34.73 63.73 42.27 70.47 28.79 73.06 30.09 65.03 46.17"/></g><g><rect class="cls-8" x="14.62" y="383.45" width="20.8" height="20.8"/><polygon class="cls-15" points="25.01 402.54 22.41 402.54 17.35 392.41 19.94 391.11 23.71 398.65 30.45 385.17 33.05 386.47 25.01 402.54"/></g><polygon class="cls-10" points="749.92 100.95 752.99 110.39 762.91 110.39 754.88 116.22 757.95 125.65 749.92 119.82 741.9 125.65 744.96 116.22 736.94 110.39 746.86 110.39 749.92 100.95"/><polygon class="cls-10" points="444.23 5.48 447.29 14.91 457.21 14.91 449.19 20.74 452.25 30.18 444.23 24.35 436.2 30.18 439.27 20.74 431.24 14.91 441.16 14.91 444.23 5.48"/><polygon class="cls-10" points="513.05 162.16 516.11 171.6 526.03 171.6 518.01 177.43 521.07 186.86 513.05 181.03 505.02 186.86 508.09 177.43 500.06 171.6 509.98 171.6 513.05 162.16"/><polygon class="cls-10" points="176.95 137.46 180.02 146.9 189.94 146.9 181.91 152.73 184.98 162.16 176.95 156.33 168.93 162.16 171.99 152.73 163.97 146.9 173.89 146.9 176.95 137.46"/><polygon class="cls-10" points="361.19 305.89 364.26 315.32 374.18 315.32 366.15 321.15 369.22 330.58 361.19 324.75 353.17 330.58 356.23 321.15 348.21 315.32 358.13 315.32 361.19 305.89"/><polygon class="cls-10" points="14.62 132.22 17.68 141.65 27.6 141.65 19.58 147.49 22.64 156.92 14.62 151.09 6.59 156.92 9.66 147.49 1.63 141.65 11.55 141.65 14.62 132.22"/><rect class="cls-8" x="65.03" y="362.9" width="223.84" height="90.96"/><polygon class="cls-10" points="288.87 362.9 333.87 326.9 333.87 417.86 288.87 453.86 288.87 362.9"/><polygon class="cls-9" points="333.87 326.9 110.03 326.9 65.03 362.9 288.87 362.9 333.87 326.9"/><rect class="cls-13" x="116.65" y="341.97" width="165.61" height="5.86" rx="2.93" ry="2.93"/><path class="cls-8" d="M131.95,347.83h135v-32.07c0-8.28,3.29-16.21,9.14-22.07l17.72-17.72c5.85-5.85,9.14-13.79,9.14-22.07v-59.07H167.95v59.07c0,8.28-3.29,16.21-9.14,22.07l-17.72,17.72c-5.85,5.85-9.14,13.79-9.14,22.07v32.07Z"/><rect class="cls-11" x="131.95" y="344.9" width="135" height="2.93"/><g><g><path class="cls-11" d="M184.98,208.58c0-2.69,1.73-4.28,4.13-4.28s4.13,1.6,4.13,4.28-1.73,4.28-4.13,4.28-4.13-1.6-4.13-4.28Zm5.17,0c0-.68-.36-1.09-1.04-1.09s-1.04,.41-1.04,1.09,.36,1.09,1.04,1.09,1.04-.41,1.04-1.09Z"/><path class="cls-11" d="M196.02,212.72v-3.92l-1.01,.06v-2.34l1.01,.07v-.1c0-1.79,1.43-2.47,2.71-2.47,.49,0,1.03,.07,1.62,.26v2.05h-.1c-.22-.06-.6-.17-.92-.17-.52,0-.6,.19-.6,.4v.1l1.61-.17v2.46l-1.44-.16v3.92h-2.88Z"/><path class="cls-11" d="M203.13,212.72v-3.92l-1.01,.06v-2.34l1.01,.07v-.1c0-1.79,1.43-2.47,2.71-2.47,.49,0,1.03,.07,1.62,.26v2.05h-.1c-.22-.06-.6-.17-.92-.17-.52,0-.6,.19-.6,.4v.1l1.61-.17v2.46l-1.44-.16v3.92h-2.88Z"/><path class="cls-11" d="M209.8,212.72v-3.55h-.65v-2.87h3.53v6.42h-2.88Zm-.14-7.76c0-.61,.34-1.13,1.52-1.13s1.54,.49,1.54,1.1-.37,1.15-1.54,1.15-1.52-.52-1.52-1.13Z"/><path class="cls-11" d="M214.45,209.49c0-2.06,1.13-3.32,3.25-3.32,1.31,0,2.19,.48,2.7,.98l-1.04,2.16h-.07c-.31-.34-.68-.47-1.16-.47-.5,0-.88,.17-.88,.65s.42,.7,.95,.7c.47,0,.82-.08,1.16-.43h.07l.89,2.06c-.47,.66-1.48,1.04-2.55,1.04-2.17,0-3.31-1.19-3.31-3.37Z"/><path class="cls-11" d="M222.5,212.72v-3.55h-.65v-2.87h3.53v6.42h-2.88Zm-.14-7.76c0-.61,.34-1.13,1.52-1.13s1.54,.49,1.54,1.1-.37,1.15-1.54,1.15-1.52-.52-1.52-1.13Z"/><path class="cls-11" d="M227.26,211.05c0-1.1,.88-1.58,2.1-1.58,.96,0,1.43,.34,1.52,.76h.06v-.72c0-.36-.1-.72-.64-.72-.47,0-.68,.17-.67,.5h-.12l-2.21-.41c-.18-1.57,.73-2.71,3.15-2.71,1.75,0,3.2,.82,3.2,2.69v1.13l.22,2.73h-2.58l-.25-1.63h-.07c0,1.25-.74,1.78-1.88,1.78-1.28,0-1.83-.83-1.83-1.81Zm3.74-.36c0-.18-.17-.26-.48-.26-.29,0-.47,.08-.47,.26,0,.19,.18,.28,.47,.28,.35,0,.48-.12,.48-.28Z"/><path class="cls-11" d="M235.24,204.44h3.53v8.28h-2.88v-5.41h-.65v-2.87Z"/><path class="cls-11" d="M244.47,212.72v-8.28h4.34c2.34,0,2.87,1.33,2.87,2.24,0,.78-.43,1.61-1.33,1.88,1.02,.16,1.54,.83,1.54,1.83s-.74,2.31-2.85,2.31h-4.56Zm3.08-4.68h.34c.37,0,.74-.05,.74-.42,0-.43-.42-.42-.91-.42h-.17v.84Zm0,2.05h.52c.48,0,.74-.16,.74-.49,0-.26-.29-.44-.62-.44h-.64v.94Z"/><path class="cls-11" d="M253.36,211.05c0-1.1,.88-1.58,2.1-1.58,.96,0,1.43,.34,1.52,.76h.06v-.72c0-.36-.1-.72-.64-.72-.47,0-.68,.17-.67,.5h-.12l-2.21-.41c-.18-1.57,.73-2.71,3.15-2.71,1.75,0,3.2,.82,3.2,2.69v1.13l.22,2.73h-2.58l-.25-1.63h-.07c0,1.25-.74,1.78-1.88,1.78-1.28,0-1.83-.83-1.83-1.81Zm3.74-.36c0-.18-.17-.26-.48-.26-.29,0-.47,.08-.47,.26,0,.19,.18,.28,.47,.28,.35,0,.48-.12,.48-.28Z"/><path class="cls-11" d="M261.34,204.44h3.53v8.28h-2.88v-5.41h-.65v-2.87Z"/><path class="cls-11" d="M266.72,204.44h3.53v8.28h-2.88v-5.41h-.65v-2.87Z"/><path class="cls-11" d="M272.04,209.5c0-1.95,1.15-3.33,3.3-3.33s3.3,1.38,3.3,3.33-1.15,3.36-3.3,3.36-3.3-1.4-3.3-3.36Zm3.98,0c0-.43-.19-.67-.68-.67s-.71,.24-.71,.67,.2,.68,.7,.68,.7-.24,.7-.68Z"/><path class="cls-11" d="M281.1,210.27v-1.45l-.89,.06v-2.54l.98,.07,.02-1.45h2.81l-.02,1.49,1.62-.13v2.57l-1.62-.1v.94c0,.35,.14,.55,.42,.55,.24,0,.6-.25,.82-.47h.06l.64,2.03c-.43,.64-1.35,1.02-2.46,1.02-1.66,0-2.37-.79-2.37-2.58Z"/></g><rect class="cls-11" x="184.98" y="215.76" width="100.95" height="2.93"/><rect class="cls-11" x="184.98" y="254" width="100.95" height="2.93"/><g><rect class="cls-11" x="184.98" y="225.86" width="55.95" height="2.93"/><rect class="cls-11" x="184.98" y="231.26" width="46.95" height="2.93"/><rect class="cls-11" x="184.98" y="236.66" width="55.95" height="2.93"/><rect class="cls-11" x="184.98" y="242.06" width="37.95" height="2.93"/><rect class="cls-11" x="277.6" y="225.86" width="8.33" height="8.33"/><rect class="cls-11" x="277.6" y="236.66" width="8.33" height="8.33"/></g><g><rect class="cls-11" x="148.98" y="316.77" width="55.95" height="2.93"/><rect class="cls-11" x="148.98" y="322.17" width="46.95" height="2.93"/><rect class="cls-11" x="148.98" y="327.57" width="55.95" height="2.93"/><rect class="cls-11" x="148.98" y="332.97" width="37.95" height="2.93"/><rect class="cls-11" x="241.6" y="316.77" width="8.33" height="8.33"/><rect class="cls-11" x="241.6" y="327.57" width="8.33" height="8.33"/></g><g><polygon class="cls-11" points="229.56 278.9 173.61 278.9 176.54 275.97 232.49 275.97 229.56 278.9"/><polygon class="cls-11" points="215.16 284.3 168.21 284.3 171.14 281.37 218.09 281.37 215.16 284.3"/><polygon class="cls-11" points="218.76 289.7 162.81 289.7 165.74 286.77 221.69 286.77 218.76 289.7"/><polygon class="cls-11" points="195.36 295.1 157.41 295.1 160.34 292.17 198.29 292.17 195.36 295.1"/><polygon class="cls-11" points="269.16 284.3 260.83 284.3 269.16 275.97 277.49 275.97 269.16 284.3"/><polygon class="cls-11" points="258.36 295.1 250.03 295.1 258.36 286.77 266.69 286.77 258.36 295.1"/></g></g><rect class="cls-11" x="167.95" y="183.26" width="135" height="11.57"/><text class="cls-7" transform="translate(334.81 205.67)"><tspan class="cls-18" x="0" y="0">V</tspan><tspan class="cls-17" x="17.23" y="0">o</tspan><tspan class="cls-21" x="33.67" y="0">t</tspan><tspan class="cls-6" x="46.75" y="0">i</tspan><tspan class="cls-2" x="56.9" y="0">n</tspan><tspan class="cls-6" x="73.68" y="0">g has</tspan><tspan class="cls-19" x="-2.29" y="28.8">n</tspan><tspan class="cls-25" x="14.56" y="28.8">e</tspan><tspan class="cls-16" x="30.61" y="28.8">v</tspan><tspan class="cls-5" x="45.68" y="28.8">er </tspan><tspan class="cls-1" x="81.75" y="28.8">b</tspan><tspan class="cls-26" x="99.18" y="28.8">e</tspan><tspan class="cls-23" x="115.76" y="28.8">e</tspan><tspan class="cls-3" x="132.03" y="28.8">n</tspan><tspan class="cls-20" x="21.01" y="57.6">E</tspan><tspan class="cls-24" x="37.55" y="57.6">A</tspan><tspan class="cls-3" x="55.45" y="57.6">SI</tspan><tspan class="cls-22" x="82.83" y="57.6">E</tspan><tspan class="cls-5" x="99.03" y="57.6">R!</tspan></text><g><path class="cls-12" d="M97.94,416.66v-16.56h7.51c4.61,0,5.62,2.57,5.62,4.49,0,1.75-.94,3.24-2.98,3.79,2.38,.26,3.5,1.54,3.5,3.7s-1.51,4.58-5.66,4.58h-7.99Zm4.15-9.55h2.74c1.32,0,2.06-.43,2.06-1.46s-.89-1.3-2.21-1.3h-2.59v2.76Zm0,5.38h3.02c1.56,0,2.23-.58,2.23-1.49s-.77-1.39-1.87-1.39h-3.38v2.88Z"/><path class="cls-12" d="M125.88,416.66l-.84-3.41h-5.16l-.84,3.41h-4.42l4.94-16.56h5.81l4.9,16.56h-4.39Zm-3.1-12.07h-.62l-1.34,4.94h3.29l-1.32-4.94Z"/><path class="cls-12" d="M134.18,416.66v-16.56h4.18v12.19h5.86v4.37h-10.03Z"/><path class="cls-12" d="M148.58,416.66v-16.56h4.18v12.19h5.86v4.37h-10.03Z"/><path class="cls-12" d="M161.74,408.38c0-5.38,3.36-8.57,8.21-8.57s8.23,3.19,8.23,8.57-3.36,8.57-8.23,8.57-8.21-3.19-8.21-8.57Zm12.22,0c0-2.64-1.37-4.13-4.01-4.13s-3.98,1.49-3.98,4.13,1.37,4.13,3.98,4.13,4.01-1.51,4.01-4.13Z"/><path class="cls-12" d="M185.02,416.66v-12.12h-3.89v-4.44h11.98v4.44h-3.89v12.12h-4.2Z"/><path class="cls-12" d="M204.89,416.66v-16.56h7.51c4.61,0,5.62,2.57,5.62,4.49,0,1.75-.94,3.24-2.98,3.79,2.38,.26,3.5,1.54,3.5,3.7s-1.51,4.58-5.66,4.58h-7.99Zm4.15-9.55h2.74c1.32,0,2.06-.43,2.06-1.46s-.89-1.3-2.21-1.3h-2.59v2.76Zm0,5.38h3.02c1.56,0,2.23-.58,2.23-1.49s-.77-1.39-1.87-1.39h-3.38v2.88Z"/><path class="cls-12" d="M222,408.38c0-5.38,3.36-8.57,8.21-8.57s8.23,3.19,8.23,8.57-3.36,8.57-8.23,8.57-8.21-3.19-8.21-8.57Zm12.22,0c0-2.64-1.37-4.13-4.01-4.13s-3.98,1.49-3.98,4.13,1.37,4.13,3.98,4.13,4.01-1.51,4.01-4.13Z"/><path class="cls-12" d="M240.17,416.66l4.85-8.5-4.58-8.06h4.87l2.76,5.4,2.78-5.4h4.85l-4.61,7.99,4.87,8.57h-4.87l-3.02-5.78-3.12,5.78h-4.78Z"/></g><g><circle class="cls-12" cx="774.21" cy="343.76" r="9.12"/><g><polygon class="cls-12" points="780.67 357.79 777.06 361.02 774.44 348.57 779.52 346.72 785.52 357.95 780.67 357.79"/><polygon class="cls-12" points="767.75 357.79 771.37 361.02 773.98 348.57 768.91 346.72 762.91 357.95 767.75 357.79"/></g></g><g><circle class="cls-12" cx="302.95" cy="152.85" r="9.12"/><g><polygon class="cls-12" points="309.41 166.88 305.8 170.11 303.18 157.66 308.26 155.81 314.26 167.03 309.41 166.88"/><polygon class="cls-12" points="296.49 166.88 300.11 170.11 302.72 157.66 297.65 155.81 291.65 167.03 296.49 166.88"/></g></g><g><circle class="cls-12" cx="12.94" cy="287.5" r="9.12"/><g><polygon class="cls-12" points="19.4 301.54 15.78 304.77 13.16 292.31 18.24 290.46 24.24 301.69 19.4 301.54"/><polygon class="cls-12" points="6.48 301.54 10.09 304.77 12.71 292.31 7.63 290.46 1.63 301.69 6.48 301.54"/></g></g><g><circle class="cls-12" cx="379.54" cy="420.97" r="9.12"/><g><polygon class="cls-12" points="386 435.01 382.38 438.24 379.77 425.78 384.84 423.93 390.84 435.16 386 435.01"/><polygon class="cls-12" points="373.08 435.01 376.69 438.24 379.31 425.78 374.23 423.93 368.23 435.16 373.08 435.01"/></g></g></g></g></svg>