<?xml version="1.0" encoding="UTF-8"?><svg id="Layer_2" xmlns="http://www.w3.org/2000/svg" viewBox="0 0 1000 500"><defs><style>.cls-1{fill:none;stroke:#e2dddb;stroke-miterlimit:10;stroke-width:3px;}.cls-2{fill:#005a8c;}.cls-3{fill:#008cbd;}.cls-4{fill:#bab7b6;}.cls-5{fill:#d63c3c;}.cls-6{fill:#e2dddb;}.cls-7{fill:#0c0024;}.cls-8{fill:#320046;}.cls-9{fill:#531b6c;}</style></defs><g id="Layer_1-2"><g><rect class="cls-9" width="1000" height="500"/><g><g><rect class="cls-8" x="91.87" y="443.81" width="816.26" height="41.13" rx="20.57" ry="20.57"/><path class="cls-8" d="M389.25,448.12v-109.97c0-10.94,4.35-21.43,12.08-29.17l16.4-16.4c7.74-7.74,12.08-18.23,12.08-29.17v-35.11l10.46,10.46h20.02l10.46-10.46v80.43l24.74-7.58v-20.82h0c-3.6,0-6.53-2.92-6.53-6.53v-2.98c0-3.6,2.92-6.53,6.53-6.53h8.56c3.6,0,6.53,2.92,6.53,6.53v36.59c0,5.42-2.23,10.61-6.16,14.35l-33.67,31.97v99"/><path class="cls-8" d="M526.32,339.06h-10.63c-4.07,0-7.37-3.3-7.37-7.37v-10.63l3.01,6.02c.91,1.82,2.78,2.98,4.82,2.98h10.17c2.88-2.88,6.79-4.5,10.86-4.5h9.98c4.07,0,7.98,1.62,10.86,4.5h0s10.17,0,10.17,0c2.04,0,3.9-1.15,4.82-2.98l3.01-6.02v10.63c0,4.07-3.3,7.37-7.37,7.37h-4.6c-1.54,0-2.04,2.07-.68,2.78l9.46,4.9c3.54,1.83,7.46,2.79,11.45,2.79h133.06l22.28,103.2h-190.37v-28.93c0-6.45-2.56-12.64-7.13-17.21l-8.77-8.77c-4.58-4.58-7.14-10.79-7.13-17.26l.09-41.51Z"/><polyline class="cls-8" points="464.53 361.46 517.31 361.46 517.31 404.01 495.48 404.01 495.48 450.4 486.48 450.4 486.48 404.01 456.39 404.01"/><rect class="cls-8" x="501.5" y="407.48" width="43.59" height="26.06"/><rect class="cls-8" x="510.5" y="429.06" width="2.27" height="19.22"/><rect class="cls-8" x="533.83" y="429.06" width="2.27" height="19.22"/><path class="cls-8" d="M127.84,254.79l15.14-6.66c9.69-4.27,21.03-1.76,28.03,6.18l82.59,93.76-59.64,113.31-46.21-63.99c-7.48-10.36-11.51-22.82-11.51-35.6v-84c0-5.61-4.55-10.16-10.16-10.16h-14.6l1.47-1.73c4.06-4.78,9.15-8.58,14.89-11.11Z"/><rect class="cls-8" x="566.92" y="218.91" width="147.01" height="87.89"/><rect class="cls-8" x="597.27" y="291.68" width="7.64" height="64.82"/><rect class="cls-8" x="675.94" y="291.68" width="7.64" height="64.82"/><circle class="cls-8" cx="181.59" cy="210.75" r="13.85"/><circle class="cls-8" cx="240.85" cy="210.75" r="13.85"/><circle class="cls-8" cx="226.99" cy="222.46" r="19.96"/><circle class="cls-8" cx="268.44" cy="210.39" r="20.47"/><circle class="cls-8" cx="212.68" cy="198.91" r="25.42"/><circle class="cls-8" cx="370.01" cy="146.48" r="13.85"/><circle class="cls-8" cx="429.26" cy="146.48" r="13.85"/><circle class="cls-8" cx="415.41" cy="158.2" r="19.96"/><circle class="cls-8" cx="456.86" cy="146.13" r="20.47"/><circle class="cls-8" cx="401.1" cy="134.65" r="25.42"/><circle class="cls-8" cx="285.1" cy="38.89" r="13.85"/><circle class="cls-8" cx="352.7" cy="45.9" r="19.96"/><circle class="cls-8" cx="321.09" cy="40.91" r="25.42"/><circle class="cls-8" cx="771.32" cy="59.17" r="13.85"/><circle class="cls-8" cx="658.07" cy="53.56" r="13.85"/><circle class="cls-8" cx="712.06" cy="45.31" r="13.85"/><circle class="cls-8" cx="725.91" cy="33.59" r="19.96"/><circle class="cls-8" cx="684.47" cy="45.66" r="20.47"/><circle class="cls-8" cx="740.22" cy="57.15" r="25.42"/></g><g><g><path class="cls-6" d="M496.21,155.81c-.46,1.11-.71,2.32-.71,3.56v1.05c0,4.71,4.18,8.34,8.83,7.65,100.39-14.93,202.48-14.48,302.77,1.35v-13.5c-102.99-16.26-207.89-16.29-310.88-.11Z"/><path class="cls-7" d="M495.67,134.77c-.06,0-.11,.02-.17,.02v24.57c0-1.24,.25-2.45,.71-3.56,.75-1.8,2.06-3.35,3.79-4.39,2.17-1.3,3.68-3.43,4.24-5.84,.16-.69,.26-1.39,.26-2.11v-1.05c0-4.71-4.18-8.34-8.83-7.65Z"/><path class="cls-3" d="M504.24,145.58c-.57,2.41-2.07,4.53-4.24,5.84-1.73,1.04-3.04,2.59-3.79,4.39,103-16.18,207.9-16.15,310.88,.11v-9c-100.31-15.84-202.44-16.28-302.85-1.34Z"/><path class="cls-3" d="M504.5,75.12v9c100.33-14.9,202.37-14.45,302.6,1.38v-9c-100.23-15.82-202.26-16.28-302.6-1.38Z"/><path class="cls-6" d="M504.5,61.62v13.5c100.33-14.9,202.37-14.45,302.6,1.38v-13.5c-100.23-15.82-202.26-16.28-302.6-1.38Z"/><path class="cls-6" d="M504.5,84.12v59.35c0,.72-.1,1.43-.26,2.11,100.42-14.94,202.54-14.5,302.85,1.34,0-20.47,0-40.95,0-61.42-100.23-15.82-202.26-16.28-302.6-1.38Z"/><path class="cls-6" d="M495.67,50.85c-100.39,14.93-202.48,14.48-302.77-1.35,0,20.47,0,40.95,0,61.42,100.28,15.83,202.38,16.28,302.77,1.35,4.66-.69,8.83,2.94,8.83,7.65V58.5c0-4.71-4.18-8.34-8.83-7.65Z"/><path class="cls-6" d="M504.5,142.42v-13.5c0-4.71-4.18-8.34-8.83-7.65-100.39,14.93-202.48,14.48-302.77-1.35v13.5c100.23,15.82,202.26,16.28,302.6,1.38v0c.06,0,.11-.02,.17-.02,4.66-.69,8.83,2.94,8.83,7.65Z"/><path class="cls-6" d="M495.67,41.85c4.66-.69,8.83,2.94,8.83,7.65v-13.5c0-4.71-4.18-8.34-8.83-7.65-100.39,14.93-202.48,14.48-302.77-1.35v13.5c100.28,15.83,202.38,16.28,302.77,1.35Z"/><path class="cls-3" d="M495.67,50.85c4.66-.69,8.83,2.94,8.83,7.65v-9c0-4.71-4.18-8.34-8.83-7.65-100.39,14.93-202.48,14.48-302.77-1.35v9c100.28,15.83,202.38,16.28,302.77,1.35Z"/><path class="cls-3" d="M495.67,121.27c4.66-.69,8.83,2.94,8.83,7.65v-9c0-4.71-4.18-8.34-8.83-7.65-100.39,14.93-202.48,14.48-302.77-1.35v9c100.28,15.83,202.38,16.28,302.77,1.35Z"/></g><g><path class="cls-5" d="M239.95,103.7v-10.97c-3.74-8.22-7.47-16.47-11.2-24.73,4.53,.55,9.06,1.06,13.59,1.55,1.3,4,2.59,7.99,3.89,11.98,.1,.01,.2,.02,.3,.03,1.3-3.72,2.59-7.45,3.89-11.18,4.54,.45,9.08,.87,13.62,1.25-3.74,7.5-7.48,14.97-11.22,22.43v10.97c-4.29-.41-8.57-.85-12.86-1.32Z"/><path class="cls-5" d="M260.25,92.35c0-8.14,4.79-13.42,13.73-12.74,8.94,.66,13.74,6.67,13.74,14.8,0,8.12-4.8,13.7-13.74,13.03-8.94-.68-13.72-6.97-13.73-15.09Zm16.57,1.33c0-1.8-.8-2.85-2.85-3-2.1-.16-2.95,.77-2.95,2.57,0,1.85,.85,2.91,2.9,3.06,2.1,.16,2.9-.78,2.9-2.63Z"/><path class="cls-5" d="M290.16,99.84v-18.61c4,.23,8,.45,12,.63v13.77c0,1.5,.3,2.36,1.3,2.4,1.45,.07,2-1.31,2-3.8v-12.22c4,.17,8,.32,12,.45v15.61c.43,3.7,.87,7.41,1.3,11.11-3.92-.12-7.84-.26-11.75-.42-.23-3.09-.47-6.17-.7-9.26-.12,0-.23,0-.35-.01-.7,8.7-5.15,9.6-8.25,9.44-5-.26-7.55-4.06-7.55-9.09Z"/><path class="cls-5" d="M321.86,109.28v-15.56c-.33-3.72-.67-7.43-1-11.15,3.8,.11,7.6,.19,11.41,.25,.28,3.2,.57,6.39,.85,9.59,.32,0,.63,0,.95,.01-.3-7.89,2.6-9.88,6.45-9.85,1.55,.01,2.05,.26,2.05,.26,0,4.36,0,8.71,0,13.07-.6-.1-1.75-.26-2.85-.27-4.95-.05-5.85,1.67-5.85,4.12v9.78c-4-.06-8-.14-12.01-.25Z"/><path class="cls-5" d="M375.19,74.87c4.69-.12,9.37-.28,14.05-.47-3.48,11.61-6.97,23.21-10.45,34.79-5.2,.16-10.4,.27-15.61,.35-3.49-11.42-6.97-22.86-10.46-34.32,4.69-.02,9.37-.07,14.06-.16,1.4,6.74,2.8,13.48,4.2,20.22,1.4-6.8,2.8-13.6,4.2-20.4Z"/><path class="cls-5" d="M387.7,95.51c0-8.14,4.8-14.03,13.75-14.5,8.95-.48,13.74,4.91,13.74,13.05,0,8.12-4.79,14.31-13.74,14.79-8.95,.47-13.75-5.21-13.75-13.33Zm16.6-.79c0-1.8-.8-2.75-2.85-2.64-2.1,.11-2.95,1.15-2.95,2.94,0,1.85,.85,2.8,2.9,2.69,2.1-.11,2.9-1.16,2.9-3Z"/><path class="cls-5" d="M420.44,96.89v-6.04c-1.23,.17-2.46,.34-3.7,.51v-10.57c1.37,0,2.73,.01,4.1,.01,.03-2.01,.07-4.03,.1-6.04,3.9-.28,7.79-.59,11.68-.92-.03,2.06-.07,4.13-.1,6.19,2.25-.37,4.49-.75,6.74-1.14,0,3.56,0,7.12,0,10.67-2.24,.07-4.49,.13-6.74,.19v3.89c0,1.45,.6,2.24,1.75,2.15,1-.09,2.49-1.26,3.39-2.24,.08,0,.17-.01,.25-.02,.88,2.73,1.76,5.46,2.64,8.19-1.8,2.81-5.64,4.76-10.23,5.13-6.89,.56-9.89-2.54-9.89-9.96Z"/><path class="cls-5" d="M464.22,90.87c1.48,2.37,2.95,4.74,4.43,7.11-1.84,2.86-5.72,5.73-12.35,6.45-9.86,1.06-14.8-4.15-14.8-12.52,0-9.68,6.29-14.39,14.26-15.25,7.67-.83,12.9,2.51,12.9,9.4,0,1.15-.15,2.41-.3,3.73-5.09,.61-10.19,1.19-15.29,1.72,.05,1.49,1,2.59,4.38,2.22,3.19-.35,4.88-1.34,6.32-2.81,.15-.02,.3-.03,.45-.05Zm-11.16-2.31c1.53-.18,3.06-.36,4.58-.54-.15-1.38-.95-2.04-2.19-1.91-1.1,.12-2.14,.88-2.39,2.45Z"/></g><g><path class="cls-5" d="M543.25,127.06v-34.42c5.41-.59,10.83-1.13,16.25-1.63,1.48,5.07,2.96,10.14,4.44,15.21,1.45-5.33,2.89-10.66,4.34-15.98,5.46-.45,10.92-.86,16.38-1.23v34.37c-4,.27-7.99,.56-11.98,.87v-15.91s-.07,0-.1,0c-1.53,5.44-3.06,10.89-4.59,16.34-2.69,.23-5.39,.46-8.08,.71-1.53-5.18-3.06-10.36-4.59-15.53-.03,0-.07,0-.1,0v15.96c-3.99,.39-7.98,.79-11.96,1.23Z"/><path class="cls-5" d="M587.46,116.3c0-4.59,3.65-6.82,8.74-7.11,4-.22,5.95,1.09,6.35,2.81,.08,0,.17,0,.25-.01v-2.99c0-1.5-.4-2.97-2.65-2.86-1.95,.1-2.85,.85-2.8,2.24-.17,0-.33,.02-.5,.03-3.07-.4-6.13-.78-9.19-1.15-.75-6.48,3.05-11.5,13.14-12.02,7.3-.37,13.35,2.81,13.35,10.59v4.69c.3,3.78,.6,7.56,.9,11.34-3.58,.13-7.17,.28-10.75,.45-.35-2.24-.7-4.49-1.05-6.73-.1,0-.2,0-.3,.01,0,5.19-3.1,7.53-7.85,7.79-5.35,.3-7.65-2.98-7.65-7.07Zm15.59-2.37c0-.75-.7-1.06-2-1-1.2,.06-1.95,.45-1.95,1.2,0,.8,.75,1.11,1.95,1.05,1.45-.07,2-.6,2-1.25Z"/><path class="cls-5" d="M620.35,111.5v-6.04c-1.23,.12-2.47,.25-3.7,.37v-10.57c1.37,.05,2.73,.11,4.1,.17,.03-2.01,.07-4.03,.1-6.04,3.9-.12,7.8-.22,11.71-.29-.03,2.06-.07,4.12-.1,6.19,2.25-.23,4.5-.44,6.75-.65v10.67c-2.25-.11-4.5-.2-6.75-.29v3.89c0,1.45,.6,2.28,1.75,2.26,1-.02,2.5-1.09,3.4-2,.08,0,.17,0,.25,0,.88,2.8,1.77,5.6,2.65,8.4-1.8,2.66-5.65,4.31-10.26,4.4-6.9,.15-9.9-3.03-9.9-10.47Z"/><path class="cls-5" d="M645.72,111.04v-6.04c-1.23,.09-2.47,.18-3.7,.28v-10.57c1.37,.09,2.74,.18,4.1,.27,.03-2.01,.07-4.02,.1-6.04,3.9-.02,7.81-.02,11.71,0-.03,2.06-.07,4.12-.1,6.18,2.25-.17,4.5-.33,6.75-.48v10.67c-2.25-.16-4.5-.32-6.75-.47v3.89c0,1.45,.6,2.3,1.75,2.31,1,0,2.5-1.02,3.4-1.91,.08,0,.17,0,.25,0,.88,2.82,1.77,5.64,2.65,8.46-1.8,2.62-5.65,4.16-10.26,4.14-6.9-.02-9.91-3.28-9.91-10.72Z"/><path class="cls-5" d="M689.65,109.86c1.48,2.6,2.97,5.21,4.45,7.81-1.85,2.57-5.75,4.79-12.4,4.58-9.9-.29-14.86-5.97-14.86-14.36,0-9.67,6.3-13.73,14.31-13.49,7.7,.23,12.95,4.46,12.95,11.35,0,1.15-.15,2.39-.3,3.68-5.12-.22-10.23-.4-15.35-.54,.05,1.5,1,2.72,4.4,2.82,3.2,.1,4.9-.63,6.35-1.87,.15,0,.3,.01,.45,.02Zm-11.2-3.91c1.53,.03,3.07,.05,4.6,.09-.15-1.4-.95-2.18-2.2-2.21-1.1-.03-2.15,.59-2.4,2.13Z"/><path class="cls-5" d="M696.85,122.23v-15.56c-.33-3.72-.67-7.45-1-11.17,3.8,.17,7.6,.36,11.4,.57,.28,3.21,.57,6.42,.85,9.63,.32,.02,.63,.04,.95,.05-.3-7.9,2.6-9.78,6.45-9.53,1.55,.1,2.05,.38,2.05,.38v13.07c-.6-.14-1.75-.36-2.85-.43-4.95-.31-5.85,1.39-5.85,3.84v9.78c-4-.23-8-.44-12-.62Z"/><path class="cls-5" d="M717.89,117.53c2.03-1.38,4.06-2.75,6.09-4.11,.12,0,.23,.02,.35,.03,1.25,1.79,2.75,2.34,6.49,2.64,1.55,.12,2.9-.01,2.9-.81,0-.8-2.1-1.12-4.04-1.37-5.24-.71-10.24-2.3-10.24-8.73,0-5.28,4.1-8.62,12.63-7.93,6.69,.54,11.83,2.88,12.27,7.81-2.03,1.16-4.06,2.32-6.09,3.49-.18-.02-.37-.03-.55-.05-.5-1.54-3.24-1.97-4.89-2.11-1.85-.15-2.35,.46-2.35,.86,0,1.3,3.39,1.37,5.04,1.56,5.49,.66,9.33,2.33,9.33,8.17,0,6.09-6.03,8.65-12.77,8.11-6.84-.55-11.78-1.74-14.18-7.53Z"/><path class="cls-5" d="M751.08,112.87c-1.41-7.17-2.83-14.35-4.24-21.52,4.17,.4,8.34,.83,12.51,1.28-1.39,6.88-2.79,13.77-4.18,20.65-1.36-.14-2.72-.28-4.09-.42Zm-4.19,7.22c0-3.64,2.44-6,6.18-5.62,3.74,.38,6.23,3.25,6.23,6.89,0,3.59-2.49,5.91-6.23,5.53-3.74-.38-6.18-3.21-6.18-6.8Z"/></g></g><line class="cls-1" x1="812.5" y1="63" x2="812.5" y2="461.81"/><g><polygon class="cls-6" points="711.91 313.25 748.63 313.25 748.63 297.17 711.91 302.68 711.91 313.25"/><path class="cls-7" d="M729.57,229.84c14.08,0,14.08-16.29,14.08-26.06h-64.69s-1.35,2.92-1.76,6.93h12.62c14.99,0,25.41,19.14,39.75,19.14Zm-1.63-17.81c2.29,0,4.14,1.85,4.14,4.14s-1.85,4.14-4.14,4.14-4.14-1.85-4.14-4.14,1.85-4.14,4.14-4.14Z"/><path class="cls-5" d="M658.07,310.97c0-19.07-15.46-34.53-34.53-34.53h-16.29c9.39,9.39,14.66,22.12,14.66,35.39v51.04c0,17.61,13.19,32.14,30.23,34.26l5.93-17.34v-68.81Z"/><path class="cls-5" d="M709.73,268.5h47.91l-.49-64.72h-13.5c0,9.77,0,26.06-14.08,26.06s-24.76-19.14-39.75-19.14h-12.62c-.32,3.08-.08,6.8,1.76,10.34,4.24,8.14,29,12.71,12.75,60.33,2.63-7.7,9.87-12.88,18.01-12.88Z"/><path class="cls-7" d="M748.63,449.49c0,2.49-2.01,4.5-4.5,4.5s-4.5,2.01-4.5,4.5,2.01,4.5,4.5,4.5h37.59l4.5,4.5v-4.5l4.5,4.5v-4.5l4.5,4.5v-7.65c0-3.23-2.62-5.85-5.85-5.85h-27.24c-2.49,0-4.5-2.01-4.5-4.5v-5.68h-9v5.68Z"/><path class="cls-7" d="M628,453.99h-27.17c-3.23,0-5.85,2.62-5.85,5.85v7.65l4.5-4.5v4.5l4.5-4.5v4.5l4.5-4.5h37.59c2.49,0,4.5-2.01,4.5-4.5h0c0-2.49-2.01-4.5-4.5-4.5h0c-2.2,0-3.73-2.17-3-4.24l2.1-5.94h-9l-2.08,5.87c-.91,2.58-3.35,4.31-6.09,4.31Z"/><path class="cls-6" d="M757.63,295.82v34.37h9.41c5.19,0,10.24-1.65,14.43-4.71l22.11-16.14v-20.42l-45.95,6.9Z"/><path class="cls-6" d="M694.45,313.25h1.81c5.34,0,9.67-4.33,9.67-9.67h0l-7.42,1.11,7.42-1.11v0l5.98-.9v0l36.72-5.51v0l54.95-8.25v-20.42h-93.86c-8.14,0-15.38,5.18-18.01,12.88l-6.93,20.27v1.92c0,5.34,4.33,9.67,9.67,9.67Z"/><path class="cls-3" d="M748.63,297.17v16.08h-36.72v-10.57l-5.98,.9c0,5.34-4.33,9.67-9.67,9.67h-1.81c-5.34,0-9.67-4.33-9.67-9.67v-1.92l-26.71,78.12-5.93,17.34-15.97,46.69h49.46l20.57-46.41,6.43,46.41h45v-147.99l-9,1.35Z"/><path class="cls-6" d="M772.79,195.96h0c0-4.32-3.5-7.82-7.82-7.82s-7.82,3.5-7.82,7.82v7.82h7.82c4.32,0,7.82-3.5,7.82-7.82Z"/><path class="cls-6" d="M731.07,195.96c0-4.32-3.5-7.82-7.82-7.82s-7.82,3.5-7.82,7.82h0c0,4.32,3.5,7.82,7.82,7.82h7.82v-7.82Z"/><path class="cls-5" d="M816.1,268.5h-12.51v20.42h12.51c4.37,0,7.91-3.54,7.91-7.91v-4.6c0-4.37-3.54-7.91-7.91-7.91h0Z"/><path class="cls-5" d="M803.59,309.34h12.51c4.37,0,7.91-3.54,7.91-7.91v-4.6c0-4.37-3.54-7.91-7.91-7.91h-12.51v20.42Z"/><circle class="cls-3" cx="727.93" cy="216.18" r="4.14"/><path class="cls-4" d="M698.51,304.69h7.35c.04-.37,.07-.74,.07-1.11l-7.42,1.11Z"/><polygon class="cls-4" points="748.63 304.69 748.63 297.17 711.91 302.68 711.91 304.69 748.63 304.69"/><polygon class="cls-2" points="748.63 297.17 748.63 304.69 757.63 304.69 757.63 295.82 748.63 297.17"/><path class="cls-2" d="M711.91,302.68l-2.98,.45-3.01,.45c0,.38-.03,.75-.07,1.11h6.05v-2.01Z"/><polygon class="cls-4" points="705.93 303.58 705.93 303.58 708.93 303.12 705.93 303.58"/><g><path class="cls-7" d="M628.01,382.45h29.15l.91-2.68v-9.16h-35.28c.99,4.31,2.79,8.31,5.22,11.84Z"/><rect class="cls-7" x="621.9" y="344.11" width="36.16" height="11.84"/><rect class="cls-7" x="621.9" y="317.6" width="36.16" height="11.84"/><path class="cls-7" d="M617.4,291.1c1.71,3.77,2.96,7.74,3.7,11.84h36.02c-1.03-4.32-2.87-8.32-5.35-11.84h-34.37Z"/></g><path class="cls-4" d="M757.63,304.69v-8.87l45.95-6.9-25.42,12.82c-3.85,1.94-8.1,2.95-12.42,2.95h-8.12Z"/><rect class="cls-2" x="711.91" y="317.37" width="36.72" height="7.38"/></g><g><rect class="cls-6" x="770.21" y="376.5" width="20.8" height="20.8"/><polygon class="cls-9" points="780.6 395.59 778.01 395.59 772.94 385.45 775.54 384.16 779.3 391.69 786.04 378.21 788.64 379.51 780.6 395.59"/></g><g><rect class="cls-6" x="205.57" y="257.23" width="20.8" height="20.8"/><polygon class="cls-9" points="215.96 276.31 213.37 276.31 208.3 266.18 210.9 264.88 214.67 272.42 221.41 258.94 224 260.24 215.96 276.31"/></g><g><rect class="cls-6" x="553.55" y="376.5" width="20.8" height="20.8"/><polygon class="cls-9" points="563.94 395.59 561.35 395.59 556.28 385.45 558.88 384.16 562.65 391.69 569.39 378.21 571.98 379.51 563.94 395.59"/></g><g><rect class="cls-6" x="646.72" y="167.76" width="20.8" height="20.8"/><polygon class="cls-9" points="657.11 186.85 654.51 186.85 649.45 176.72 652.04 175.42 655.81 182.96 662.55 169.48 665.15 170.78 657.11 186.85"/></g><g><rect class="cls-6" x="831.39" y="212.39" width="20.8" height="20.8"/><polygon class="cls-9" points="841.78 231.47 839.19 231.47 834.12 221.34 836.72 220.04 840.49 227.58 847.23 214.1 849.82 215.4 841.78 231.47"/></g><g><rect class="cls-6" x="146.5" y="40.71" width="20.8" height="20.8"/><polygon class="cls-9" points="156.89 59.8 154.3 59.8 149.23 49.66 151.83 48.37 155.6 55.9 162.34 42.43 164.93 43.72 156.89 59.8"/></g><g><rect class="cls-6" x="106.48" y="397.08" width="20.8" height="20.8"/><polygon class="cls-9" points="116.88 416.17 114.28 416.17 109.21 406.04 111.81 404.74 115.58 412.28 122.32 398.8 124.92 400.1 116.88 416.17"/></g><polygon class="cls-3" points="841.79 114.58 844.86 124.02 854.78 124.02 846.75 129.85 849.82 139.28 841.79 133.45 833.77 139.28 836.83 129.85 828.81 124.02 838.73 124.02 841.79 114.58"/><polygon class="cls-3" points="536.1 19.11 539.16 28.54 549.08 28.54 541.05 34.37 544.12 43.81 536.1 37.98 528.07 43.81 531.14 34.37 523.11 28.54 533.03 28.54 536.1 19.11"/><polygon class="cls-3" points="604.92 175.79 607.98 185.23 617.9 185.23 609.88 191.06 612.94 200.49 604.92 194.66 596.89 200.49 599.96 191.06 591.93 185.23 601.85 185.23 604.92 175.79"/><polygon class="cls-3" points="268.82 151.09 271.89 160.53 281.81 160.53 273.78 166.36 276.85 175.79 268.82 169.96 260.8 175.79 263.86 166.36 255.84 160.53 265.76 160.53 268.82 151.09"/><polygon class="cls-3" points="453.06 319.52 456.13 328.95 466.05 328.95 458.02 334.78 461.09 344.22 453.06 338.39 445.04 344.22 448.1 334.78 440.08 328.95 450 328.95 453.06 319.52"/><polygon class="cls-3" points="106.48 145.85 109.55 155.29 119.47 155.29 111.44 161.12 114.51 170.55 106.48 164.72 98.46 170.55 101.53 161.12 93.5 155.29 103.42 155.29 106.48 145.85"/><rect class="cls-6" x="156.9" y="376.53" width="223.84" height="90.96"/><polygon class="cls-3" points="380.74 376.53 425.74 340.53 425.74 431.49 380.74 467.49 380.74 376.53"/><polygon class="cls-2" points="425.74 340.53 201.9 340.53 156.9 376.53 380.74 376.53 425.74 340.53"/><rect class="cls-7" x="208.52" y="355.6" width="165.61" height="5.86" rx="2.93" ry="2.93"/><path class="cls-6" d="M223.82,361.46h135v-32.07c0-8.28,3.29-16.21,9.14-22.07l17.72-17.72c5.85-5.85,9.14-13.79,9.14-22.07v-59.07h-135v59.07c0,8.28-3.29,16.21-9.14,22.07l-17.72,17.72c-5.85,5.85-9.14,13.79-9.14,22.07v32.07Z"/><rect class="cls-4" x="223.82" y="358.53" width="135" height="2.93"/><g><g><path class="cls-4" d="M276.85,222.21c0-2.69,1.73-4.28,4.13-4.28s4.13,1.6,4.13,4.28-1.73,4.28-4.13,4.28-4.13-1.6-4.13-4.28Zm5.17,0c0-.68-.36-1.09-1.04-1.09s-1.04,.41-1.04,1.09,.36,1.09,1.04,1.09,1.04-.41,1.04-1.09Z"/><path class="cls-4" d="M287.88,226.35v-3.92l-1.01,.06v-2.34l1.01,.07v-.1c0-1.79,1.43-2.47,2.71-2.47,.49,0,1.03,.07,1.62,.26v2.05h-.1c-.22-.06-.6-.17-.92-.17-.52,0-.6,.19-.6,.4v.1l1.61-.17v2.46l-1.44-.16v3.92h-2.88Z"/><path class="cls-4" d="M295,226.35v-3.92l-1.01,.06v-2.34l1.01,.07v-.1c0-1.79,1.43-2.47,2.71-2.47,.49,0,1.03,.07,1.62,.26v2.05h-.1c-.22-.06-.6-.17-.92-.17-.52,0-.6,.19-.6,.4v.1l1.61-.17v2.46l-1.44-.16v3.92h-2.88Z"/><path class="cls-4" d="M301.67,226.35v-3.55h-.65v-2.87h3.53v6.42h-2.88Zm-.14-7.76c0-.61,.34-1.13,1.52-1.13s1.54,.49,1.54,1.1-.37,1.15-1.54,1.15-1.52-.52-1.52-1.13Z"/><path class="cls-4" d="M306.32,223.12c0-2.06,1.13-3.32,3.25-3.32,1.31,0,2.19,.48,2.7,.98l-1.04,2.16h-.07c-.31-.34-.68-.47-1.16-.47-.5,0-.88,.17-.88,.65s.42,.7,.95,.7c.47,0,.82-.08,1.16-.43h.07l.89,2.06c-.47,.66-1.48,1.04-2.55,1.04-2.17,0-3.31-1.19-3.31-3.37Z"/><path class="cls-4" d="M314.37,226.35v-3.55h-.65v-2.87h3.53v6.42h-2.88Zm-.14-7.76c0-.61,.34-1.13,1.52-1.13s1.54,.49,1.54,1.1-.37,1.15-1.54,1.15-1.52-.52-1.52-1.13Z"/><path class="cls-4" d="M319.13,224.68c0-1.1,.88-1.58,2.1-1.58,.96,0,1.43,.34,1.52,.76h.06v-.72c0-.36-.1-.72-.64-.72-.47,0-.68,.17-.67,.5h-.12l-2.21-.41c-.18-1.57,.73-2.71,3.15-2.71,1.75,0,3.2,.82,3.2,2.69v1.13l.22,2.73h-2.58l-.25-1.63h-.07c0,1.25-.74,1.78-1.88,1.78-1.28,0-1.83-.83-1.83-1.81Zm3.74-.36c0-.18-.17-.26-.48-.26-.29,0-.47,.08-.47,.26,0,.19,.18,.28,.47,.28,.35,0,.48-.12,.48-.28Z"/><path class="cls-4" d="M327.11,218.07h3.53v8.28h-2.88v-5.41h-.65v-2.87Z"/><path class="cls-4" d="M336.34,226.35v-8.28h4.34c2.34,0,2.87,1.33,2.87,2.24,0,.78-.43,1.61-1.33,1.88,1.02,.16,1.54,.83,1.54,1.83s-.74,2.31-2.85,2.31h-4.56Zm3.08-4.68h.34c.37,0,.74-.05,.74-.42,0-.43-.42-.42-.91-.42h-.17v.84Zm0,2.05h.52c.48,0,.74-.16,.74-.49,0-.26-.29-.44-.62-.44h-.64v.94Z"/><path class="cls-4" d="M345.23,224.68c0-1.1,.88-1.58,2.1-1.58,.96,0,1.43,.34,1.52,.76h.06v-.72c0-.36-.1-.72-.64-.72-.47,0-.68,.17-.67,.5h-.12l-2.21-.41c-.18-1.57,.73-2.71,3.15-2.71,1.75,0,3.2,.82,3.2,2.69v1.13l.22,2.73h-2.58l-.25-1.63h-.07c0,1.25-.74,1.78-1.88,1.78-1.28,0-1.83-.83-1.83-1.81Zm3.74-.36c0-.18-.17-.26-.48-.26-.29,0-.47,.08-.47,.26,0,.19,.18,.28,.47,.28,.35,0,.48-.12,.48-.28Z"/><path class="cls-4" d="M353.21,218.07h3.53v8.28h-2.88v-5.41h-.65v-2.87Z"/><path class="cls-4" d="M358.59,218.07h3.53v8.28h-2.88v-5.41h-.65v-2.87Z"/><path class="cls-4" d="M363.9,223.14c0-1.95,1.15-3.33,3.3-3.33s3.3,1.38,3.3,3.33-1.15,3.36-3.3,3.36-3.3-1.4-3.3-3.36Zm3.98,0c0-.43-.19-.67-.68-.67s-.71,.24-.71,.67,.2,.68,.7,.68,.7-.24,.7-.68Z"/><path class="cls-4" d="M372.96,223.9v-1.45l-.89,.06v-2.54l.98,.07,.02-1.45h2.81l-.02,1.49,1.62-.13v2.57l-1.62-.1v.94c0,.35,.14,.55,.42,.55,.24,0,.6-.25,.82-.47h.06l.64,2.03c-.43,.64-1.35,1.02-2.46,1.02-1.66,0-2.37-.79-2.37-2.58Z"/></g><rect class="cls-4" x="276.85" y="229.4" width="100.95" height="2.93"/><rect class="cls-4" x="276.85" y="267.63" width="100.95" height="2.93"/><g><rect class="cls-4" x="276.85" y="239.49" width="55.95" height="2.93"/><rect class="cls-4" x="276.85" y="244.89" width="46.95" height="2.93"/><rect class="cls-4" x="276.85" y="250.29" width="55.95" height="2.93"/><rect class="cls-4" x="276.85" y="255.69" width="37.95" height="2.93"/><rect class="cls-4" x="369.47" y="239.49" width="8.33" height="8.33"/><rect class="cls-4" x="369.47" y="250.29" width="8.33" height="8.33"/></g><g><rect class="cls-4" x="240.85" y="330.4" width="55.95" height="2.93"/><rect class="cls-4" x="240.85" y="335.8" width="46.95" height="2.93"/><rect class="cls-4" x="240.85" y="341.2" width="55.95" height="2.93"/><rect class="cls-4" x="240.85" y="346.6" width="37.95" height="2.93"/><rect class="cls-4" x="333.47" y="330.4" width="8.33" height="8.33"/><rect class="cls-4" x="333.47" y="341.2" width="8.33" height="8.33"/></g><g><polygon class="cls-4" points="321.43 292.54 265.48 292.54 268.41 289.6 324.36 289.6 321.43 292.54"/><polygon class="cls-4" points="307.03 297.94 260.08 297.94 263.01 295 309.96 295 307.03 297.94"/><polygon class="cls-4" points="310.63 303.34 254.68 303.34 257.61 300.4 313.56 300.4 310.63 303.34"/><polygon class="cls-4" points="287.23 308.74 249.28 308.74 252.21 305.8 290.16 305.8 287.23 308.74"/><polygon class="cls-4" points="361.03 297.94 352.7 297.94 361.03 289.6 369.36 289.6 361.03 297.94"/><polygon class="cls-4" points="350.23 308.74 341.9 308.74 350.23 300.4 358.56 300.4 350.23 308.74"/></g></g><rect class="cls-4" x="259.82" y="196.89" width="135" height="11.57"/><g><path class="cls-6" d="M431.94,219.3l-5.14-16.56h4.54l3.29,11.95h.05l3.26-11.98,4.56,.02-5.18,16.56h-5.38Z"/><path class="cls-6" d="M444.63,212.87c0-3.91,2.18-6.65,6.46-6.65s6.46,2.74,6.46,6.65-2.18,6.72-6.46,6.72-6.46-2.81-6.46-6.72Zm9.14-.02c0-1.78-.91-2.59-2.66-2.59s-2.71,.82-2.71,2.59,.91,2.71,2.69,2.71,2.69-.86,2.69-2.71Z"/><path class="cls-6" d="M462.97,214.98v-4.51l-1.99,.14v-4.03l2.09,.12,.05-2.83h3.96l-.07,2.86,3.43-.17v4.06l-3.41-.17v3.55c0,.98,.43,1.39,1.03,1.39,.72,0,1.44-.5,1.82-.91h.17l.91,3.65c-.79,.89-2.5,1.46-3.96,1.46-2.33,0-4.03-1.2-4.03-4.61Z"/><path class="cls-6" d="M475.79,219.3v-8.47h-1.58v-4.3h5.64v12.77h-4.06Zm-.5-15.75c0-1.2,.7-2.06,2.35-2.06s2.38,.86,2.38,2.04-.74,2.06-2.38,2.06-2.35-.89-2.35-2.04Z"/><path class="cls-6" d="M484.98,219.3v-8.23l-.31-4.54h3.82l.24,3.5h.17c.41-2.98,2.35-3.82,4.1-3.82,2.47,0,3.96,1.56,3.96,4.42v8.66h-4.06v-7.27c0-1.08-.46-1.73-1.58-1.73-1.27,0-2.28,.86-2.28,1.99v7.01h-4.06Z"/><path class="cls-6" d="M510.3,216.18c2.62,0,4.13,1.08,4.13,3.43s-1.71,4.61-7.11,4.61c-4.06,0-6.29-.67-6.29-2.93,0-1.32,1.06-2.09,2.66-2.16v-.26c-1.85-.17-2.54-1.15-2.54-2.23,0-1.54,1.18-2.11,2.59-2.28-1.37-.62-2.04-2.06-2.04-3.6,0-2.88,2.33-4.54,5.76-4.54,.86,0,2.28,.17,3.24,.53l3.6-1.32v3.67l-2.57-.1-.05,.22c1.2,.29,1.61,1.22,1.61,2.11,0,2.76-2.74,3.94-5.66,3.91-1.08,0-2.02-.12-2.76-.41-.29,.14-.5,.46-.5,.77,0,.34,.38,.58,1.13,.58h4.8Zm.24,3.53c0-.6-.67-.62-1.39-.62h-4.32c-.19,.05-.46,.19-.46,.46,0,.98,1.25,1.18,2.88,1.18,1.97,0,3.29-.34,3.29-1.01Zm-5.45-8.83c0,.94,.89,1.27,2.35,1.27,1.13,0,2.42-.22,2.42-1.27,0-.94-1.13-1.25-2.42-1.25-1.37,0-2.35,.29-2.35,1.25Z"/><path class="cls-6" d="M526.09,219.3v-16.56h4.03v3.26c0,.77-.19,2.78-.41,4.06h.26c.43-3,2.35-3.84,4.1-3.84,2.47,0,3.96,1.58,3.96,4.42v8.66h-4.06v-7.27c0-1.08-.46-1.73-1.58-1.73-1.27,0-2.28,.86-2.28,1.99v7.01h-4.03Z"/><path class="cls-6" d="M542.29,215.61c0-2.21,1.68-3.53,4.46-3.53,2.23,0,3.19,1.03,3.55,1.87h.07v-1.82c0-1.2-.86-1.85-2.23-1.85-1.22,0-1.94,.36-1.94,1.49h-.19l-3.41-.6c-.26-3.12,1.92-4.9,5.86-4.9,3.46,0,5.9,1.42,5.9,5.26v3.82l.38,3.96h-3.89l-.31-2.78h-.17c-.38,1.94-1.9,3.05-4.3,3.05-2.28-.05-3.79-1.39-3.79-3.96Zm8.21-.38c0-.67-.96-.98-2.14-.98s-2.11,.29-2.11,1.06,.89,.98,2.11,.98c1.08,0,2.14-.31,2.14-1.06Z"/><path class="cls-6" d="M558.46,215.94l2.66-1.51h.17c.22,1.25,1.44,1.61,3,1.61,1.2,0,2.3-.19,2.3-1.03,0-.72-1.51-.74-2.88-.86-2.45-.19-4.87-.72-4.87-3.77,0-2.62,2.06-4.15,5.52-4.15,2.9,0,5.38,.74,5.74,3.36l-2.62,1.82h-.17c-.1-1.27-1.46-1.63-2.83-1.63-1.18,0-1.92,.34-1.92,.89,0,.77,1.3,.86,2.71,.96,2.4,.17,5.04,.58,5.04,3.5s-2.69,4.46-5.81,4.46-5.59-.6-6.05-3.65Z"/><path class="cls-6" d="M425.78,248.1v-8.23l-.31-4.54h3.82l.24,3.5h.17c.41-2.98,2.35-3.82,4.1-3.82,2.47,0,3.96,1.56,3.96,4.42v8.66h-4.06v-7.27c0-1.08-.46-1.73-1.58-1.73-1.27,0-2.28,.86-2.28,1.99v7.01h-4.06Z"/><path class="cls-6" d="M452.64,242.92l2.06,2.71c-1.2,1.63-3.02,2.76-6.07,2.76-4.1,0-6.67-2.45-6.67-6.62s2.74-6.7,6.53-6.7c4.01,0,6.22,2.09,6.22,6.07,0,.38-.02,.79-.07,1.2h-8.69c.17,1.49,1.51,2.09,3.02,2.09s2.69-.43,3.48-1.51h.19Zm-6.67-2.3l4.82-.07c-.02-1.1-.86-1.92-2.33-1.92-1.25,0-2.3,.58-2.5,1.99Z"/><path class="cls-6" d="M461.44,248.1l-4.22-12.77h4.27l2.38,8.59,2.4-8.59h4.25l-4.22,12.77h-4.85Z"/><path class="cls-6" d="M483.77,242.92l2.06,2.71c-1.2,1.63-3.02,2.76-6.07,2.76-4.1,0-6.67-2.45-6.67-6.62s2.74-6.7,6.53-6.7c4.01,0,6.22,2.09,6.22,6.07,0,.38-.02,.79-.07,1.2h-8.69c.17,1.49,1.51,2.09,3.02,2.09s2.69-.43,3.48-1.51h.19Zm-6.67-2.3l4.82-.07c-.02-1.1-.86-1.92-2.33-1.92-1.25,0-2.3,.58-2.5,1.99Z"/><path class="cls-6" d="M490.22,248.1v-8.23l-.31-4.54h3.86l.22,3.86h.31c.24-2.98,1.54-4.06,3.67-4.06,.24,0,.34,.05,.36,.05l-.05,4.92c-.36-.1-.74-.17-1.15-.17-1.8,0-2.83,.62-2.83,1.99v6.17h-4.08Z"/><path class="cls-6" d="M509.56,248.13l.22-4.68v-11.91h4.06v3.82c0,.94-.1,2.26-.34,3.74h.29c.5-2.69,2.26-4.06,4.3-4.06,2.78,0,4.66,1.8,4.66,6.5s-2.28,6.79-4.61,6.79c-2.16,0-3.86-1.03-4.13-3.98h-.34l-.17,3.74-3.94,.02Zm9.15-6.5c0-1.8-.98-2.35-2.42-2.35-1.82,0-2.59,.74-2.59,2.38,0,1.51,.82,2.38,2.62,2.38,1.44,0,2.42-.62,2.4-2.4Z"/><path class="cls-6" d="M537.26,242.92l2.06,2.71c-1.2,1.63-3.02,2.76-6.07,2.76-4.1,0-6.67-2.45-6.67-6.62s2.74-6.7,6.53-6.7c4.01,0,6.22,2.09,6.22,6.07,0,.38-.02,.79-.07,1.2h-8.69c.17,1.49,1.51,2.09,3.02,2.09s2.69-.43,3.48-1.51h.19Zm-6.67-2.3l4.82-.07c-.02-1.1-.86-1.92-2.33-1.92-1.25,0-2.3,.58-2.5,1.99Z"/><path class="cls-6" d="M553.84,242.92l2.06,2.71c-1.2,1.63-3.02,2.76-6.07,2.76-4.1,0-6.67-2.45-6.67-6.62s2.74-6.7,6.53-6.7c4.01,0,6.22,2.09,6.22,6.07,0,.38-.02,.79-.07,1.2h-8.69c.17,1.49,1.51,2.09,3.02,2.09s2.69-.43,3.48-1.51h.19Zm-6.67-2.3l4.82-.07c-.02-1.1-.86-1.92-2.33-1.92-1.25,0-2.3,.58-2.5,1.99Z"/><path class="cls-6" d="M560.11,248.1v-8.23l-.31-4.54h3.82l.24,3.5h.17c.41-2.98,2.35-3.82,4.1-3.82,2.47,0,3.96,1.56,3.96,4.42v8.66h-4.06v-7.27c0-1.08-.46-1.73-1.58-1.73-1.27,0-2.28,.86-2.28,1.99v7.01h-4.06Z"/><path class="cls-6" d="M449.21,276.9v-16.56h11.38v4.37h-7.2v2.26l5.9-.36v3.41l-5.9-.24v2.76h7.34v4.37h-11.52Z"/><path class="cls-6" d="M475.6,276.9l-.84-3.41h-5.16l-.84,3.41h-4.42l4.94-16.56h5.81l4.9,16.56h-4.39Zm-3.1-12.07h-.62l-1.34,4.94h3.29l-1.32-4.94Z"/><path class="cls-6" d="M482.56,272.34l3.17-1.85h.22c.31,1.94,1.94,2.62,3.89,2.62,1.49,0,2.86-.5,2.86-1.66,0-.94-1.22-1.13-2.83-1.3-2.69-.31-6.53-.5-6.53-4.83,0-3.26,2.5-5.28,6.67-5.28,3.86,0,6.58,1.34,6.79,4.56l-2.93,1.73h-.24c-.17-1.56-1.61-2.21-3.43-2.21-1.58,0-2.66,.48-2.66,1.37,0,1.08,1.44,1.3,3,1.44,2.69,.26,6.41,.38,6.41,4.61,0,3.84-3.05,5.64-6.98,5.64-3.62,0-6.55-1.06-7.39-4.85Z"/><path class="cls-6" d="M501.45,276.9v-16.56h4.18v16.56h-4.18Z"/><path class="cls-6" d="M511.03,276.9v-16.56h11.38v4.37h-7.2v2.26l5.91-.36v3.41l-5.91-.24v2.76h7.34v4.37h-11.52Z"/><path class="cls-6" d="M527.23,276.9v-16.56h7.01c3.84,0,6.02,1.78,6.02,4.94,0,1.97-.96,3.79-3.14,4.49,1.25,.36,1.85,1.27,2.23,2.47l1.49,4.66h-4.51l-1.25-4.25c-.29-.89-.89-1.39-1.82-1.51l-1.87-.22v5.98h-4.15Zm4.15-9.14h2.33c1.42,0,2.35-.6,2.35-1.73s-1.08-1.56-2.38-1.56h-2.3v3.29Z"/><path class="cls-6" d="M545.73,271.26l-1.44-10.92h4.97l-1.44,10.92h-2.09Zm-1.32,3.38c0-1.44,.91-2.47,2.35-2.47s2.38,1.03,2.38,2.47-.94,2.42-2.38,2.42-2.35-1.01-2.35-2.42Z"/></g><g><path class="cls-5" d="M189.81,430.29v-16.56h7.51c4.61,0,5.62,2.57,5.62,4.49,0,1.75-.94,3.24-2.98,3.79,2.38,.26,3.5,1.54,3.5,3.7s-1.51,4.58-5.66,4.58h-7.99Zm4.15-9.55h2.74c1.32,0,2.06-.43,2.06-1.46s-.89-1.3-2.21-1.3h-2.59v2.76Zm0,5.38h3.02c1.56,0,2.23-.58,2.23-1.49s-.77-1.39-1.87-1.39h-3.38v2.88Z"/><path class="cls-5" d="M217.75,430.29l-.84-3.41h-5.16l-.84,3.41h-4.42l4.94-16.56h5.81l4.9,16.56h-4.39Zm-3.1-12.07h-.62l-1.34,4.94h3.29l-1.32-4.94Z"/><path class="cls-5" d="M226.05,430.29v-16.56h4.18v12.19h5.86v4.37h-10.03Z"/><path class="cls-5" d="M240.45,430.29v-16.56h4.18v12.19h5.86v4.37h-10.03Z"/><path class="cls-5" d="M253.6,422.01c0-5.38,3.36-8.57,8.21-8.57s8.23,3.19,8.23,8.57-3.36,8.57-8.23,8.57-8.21-3.19-8.21-8.57Zm12.22,0c0-2.64-1.37-4.13-4.01-4.13s-3.98,1.49-3.98,4.13,1.37,4.13,3.98,4.13,4.01-1.51,4.01-4.13Z"/><path class="cls-5" d="M276.88,430.29v-12.12h-3.89v-4.44h11.98v4.44h-3.89v12.12h-4.2Z"/><path class="cls-5" d="M296.76,430.29v-16.56h7.51c4.61,0,5.62,2.57,5.62,4.49,0,1.75-.94,3.24-2.98,3.79,2.38,.26,3.5,1.54,3.5,3.7s-1.51,4.58-5.66,4.58h-7.99Zm4.15-9.55h2.74c1.32,0,2.06-.43,2.06-1.46s-.89-1.3-2.21-1.3h-2.59v2.76Zm0,5.38h3.02c1.56,0,2.23-.58,2.23-1.49s-.77-1.39-1.87-1.39h-3.38v2.88Z"/><path class="cls-5" d="M313.87,422.01c0-5.38,3.36-8.57,8.21-8.57s8.23,3.19,8.23,8.57-3.36,8.57-8.23,8.57-8.21-3.19-8.21-8.57Zm12.22,0c0-2.64-1.37-4.13-4.01-4.13s-3.98,1.49-3.98,4.13,1.37,4.13,3.98,4.13,4.01-1.51,4.01-4.13Z"/><path class="cls-5" d="M332.04,430.29l4.85-8.5-4.58-8.06h4.87l2.76,5.4,2.78-5.4h4.85l-4.61,7.99,4.87,8.57h-4.87l-3.02-5.78-3.12,5.78h-4.78Z"/></g><g><circle class="cls-5" cx="866.08" cy="357.39" r="9.12"/><g><polygon class="cls-5" points="872.54 371.42 868.93 374.66 866.31 362.2 871.38 360.35 877.39 371.58 872.54 371.42"/><polygon class="cls-5" points="859.62 371.42 863.23 374.66 865.85 362.2 860.78 360.35 854.78 371.58 859.62 371.42"/></g></g><g><circle class="cls-5" cx="394.82" cy="166.48" r="9.12"/><g><polygon class="cls-5" points="401.28 180.51 397.67 183.74 395.05 171.29 400.12 169.44 406.13 180.67 401.28 180.51"/><polygon class="cls-5" points="388.36 180.51 391.97 183.74 394.59 171.29 389.52 169.44 383.52 180.67 388.36 180.51"/></g></g><g><circle class="cls-5" cx="104.8" cy="301.14" r="9.12"/><g><polygon class="cls-5" points="111.26 315.17 107.65 318.4 105.03 305.94 110.11 304.1 116.11 315.32 111.26 315.17"/><polygon class="cls-5" points="98.34 315.17 101.96 318.4 104.58 305.94 99.5 304.1 93.5 315.32 98.34 315.17"/></g></g><g><circle class="cls-5" cx="471.41" cy="434.61" r="9.12"/><g><polygon class="cls-5" points="477.87 448.64 474.25 451.87 471.63 439.41 476.71 437.57 482.71 448.79 477.87 448.64"/><polygon class="cls-5" points="464.95 448.64 468.56 451.87 471.18 439.41 466.1 437.57 460.1 448.79 464.95 448.64"/></g></g></g></g></g></svg>