<?xml version="1.0" encoding="UTF-8"?><svg id="Layer_2" xmlns="http://www.w3.org/2000/svg" viewBox="0 0 172.65 138.12"><defs><style>.cls-1{fill:#008bc0;}.cls-2{fill:#d93a37;}.cls-3{fill:#54166e;}</style></defs><g id="Layer_1-2"><g><path class="cls-2" d="M34.53,69.06c0-32.18,22.01-59.22,51.79-66.88-5.52-1.42-11.3-2.18-17.26-2.18C30.92,0,0,30.92,0,69.06s30.92,69.06,69.06,69.06c5.96,0,11.75-.76,17.26-2.18-29.79-7.67-51.79-34.7-51.79-66.88Z"/><path class="cls-1" d="M103.59,0c-5.96,0-11.75,.76-17.26,2.18,29.79,7.67,51.79,34.7,51.79,66.88s-22.01,59.22-51.79,66.88c5.52,1.42,11.3,2.18,17.26,2.18,38.14,0,69.06-30.92,69.06-69.06S141.73,0,103.59,0Z"/><path class="cls-3" d="M138.12,69.06c0-32.18-22.01-59.22-51.79-66.88-29.79,7.67-51.79,34.7-51.79,66.88s22.01,59.22,51.79,66.88c29.79-7.67,51.79-34.7,51.79-66.88Z"/></g></g></svg>