<?xml version="1.0" encoding="UTF-8"?><svg id="Layer_2" xmlns="http://www.w3.org/2000/svg" viewBox="0 0 86.49 178.35"><defs><style>.cls-1{fill:#008bc0;}.cls-2{fill:#d93a37;}.cls-3{fill:#e2dddb;}.cls-4{fill:#0d0025;}.cls-5{fill:#54166e;}</style></defs><g id="Layer_1-2"><g><g><path class="cls-4" d="M73.16,0H13.32C5.98,0,0,5.98,0,13.32V165.03c0,7.35,5.98,13.32,13.32,13.32h59.84c7.35,0,13.32-5.98,13.32-13.32V13.32c0-7.35-5.98-13.32-13.32-13.32h0Z"/><path class="cls-5" d="M73.16,3.78h-13.58v2.44c0,2.59-2.1,4.69-4.69,4.69H31.6c-2.59,0-4.69-2.1-4.69-4.69V3.78H13.32C8.08,3.78,3.78,8.08,3.78,13.32V165.03c0,5.25,4.29,9.54,9.54,9.54h59.84c5.25,0,9.54-4.29,9.54-9.54V13.32c0-5.25-4.29-9.54-9.54-9.54Z"/></g><g><g><path class="cls-1" d="M21.05,96.89h6.4l-4.76,15.71h-7.1l-4.76-15.71h6.4l1.91,9.27,1.91-9.27Z"/><path class="cls-1" d="M27.01,104.74c0-5.1,3.28-8.13,7.83-8.13s7.83,3.03,7.83,8.13-3.28,8.13-7.83,8.13-7.83-3.03-7.83-8.13Zm9.81,0c0-1.3-.68-2.07-1.98-2.07s-1.98,.77-1.98,2.07,.68,2.07,1.98,2.07,1.98-.77,1.98-2.07Z"/><path class="cls-1" d="M46.38,112.6v-9.9h-3.12v-5.81h12.11v5.81h-3.12v9.9h-5.87Z"/><path class="cls-1" d="M56.97,112.6v-15.71h11.43v5.6h-5.56v1.02l4.08-.55v3.37l-4.08-.32v.98h5.69v5.6h-11.57Z"/><path class="cls-1" d="M71.88,106.52l-1.94-9.63h5.71l-1.91,9.63h-1.87Zm-1.91,3.48c0-1.66,1.12-2.85,2.82-2.85s2.85,1.18,2.85,2.85-1.14,2.82-2.85,2.82-2.82-1.18-2.82-2.82Z"/></g><g><path class="cls-2" d="M21.05,79.02h6.4l-4.76,15.71h-7.1l-4.76-15.71h6.4l1.91,9.27,1.91-9.27Z"/><path class="cls-2" d="M27.01,86.88c0-5.1,3.28-8.13,7.83-8.13s7.83,3.03,7.83,8.13-3.28,8.13-7.83,8.13-7.83-3.03-7.83-8.13Zm9.81,0c0-1.3-.68-2.07-1.98-2.07s-1.98,.77-1.98,2.07,.68,2.07,1.98,2.07,1.98-.77,1.98-2.07Z"/><path class="cls-2" d="M46.38,94.73v-9.9h-3.12v-5.81h12.11v5.81h-3.12v9.9h-5.87Z"/><path class="cls-2" d="M56.97,94.73v-15.71h11.43v5.6h-5.56v1.02l4.08-.55v3.37l-4.08-.32v.98h5.69v5.6h-11.57Z"/><path class="cls-2" d="M71.88,88.65l-1.94-9.63h5.71l-1.91,9.63h-1.87Zm-1.91,3.48c0-1.66,1.12-2.85,2.82-2.85s2.85,1.18,2.85,2.85-1.14,2.82-2.85,2.82-2.82-1.18-2.82-2.82Z"/></g><g><path class="cls-1" d="M21.05,61.16h6.4l-4.76,15.71h-7.1l-4.76-15.71h6.4l1.91,9.27,1.91-9.27Z"/><path class="cls-1" d="M27.01,69.01c0-5.1,3.28-8.13,7.83-8.13s7.83,3.03,7.83,8.13-3.28,8.13-7.83,8.13-7.83-3.03-7.83-8.13Zm9.81,0c0-1.3-.68-2.07-1.98-2.07s-1.98,.77-1.98,2.07,.68,2.07,1.98,2.07,1.98-.77,1.98-2.07Z"/><path class="cls-1" d="M46.38,76.86v-9.9h-3.12v-5.81h12.11v5.81h-3.12v9.9h-5.87Z"/><path class="cls-1" d="M56.97,76.86v-15.71h11.43v5.6h-5.56v1.02l4.08-.55v3.37l-4.08-.32v.98h5.69v5.6h-11.57Z"/><path class="cls-1" d="M71.88,70.79l-1.94-9.63h5.71l-1.91,9.63h-1.87Zm-1.91,3.48c0-1.66,1.12-2.85,2.82-2.85s2.85,1.18,2.85,2.85-1.14,2.82-2.85,2.82-2.82-1.18-2.82-2.82Z"/></g><g><path class="cls-2" d="M21.05,43.29h6.4l-4.76,15.71h-7.1l-4.76-15.71h6.4l1.91,9.27,1.91-9.27Z"/><path class="cls-2" d="M27.01,51.14c0-5.1,3.28-8.13,7.83-8.13s7.83,3.03,7.83,8.13-3.28,8.13-7.83,8.13-7.83-3.03-7.83-8.13Zm9.81,0c0-1.3-.68-2.07-1.98-2.07s-1.98,.77-1.98,2.07,.68,2.07,1.98,2.07,1.98-.77,1.98-2.07Z"/><path class="cls-2" d="M46.38,59v-9.9h-3.12v-5.81h12.11v5.81h-3.12v9.9h-5.87Z"/><path class="cls-2" d="M56.97,59v-15.71h11.43v5.6h-5.56v1.02l4.08-.55v3.37l-4.08-.32v.98h5.69v5.6h-11.57Z"/><path class="cls-2" d="M71.88,52.92l-1.94-9.63h5.71l-1.91,9.63h-1.87Zm-1.91,3.48c0-1.66,1.12-2.85,2.82-2.85s2.85,1.18,2.85,2.85-1.14,2.82-2.85,2.82-2.82-1.18-2.82-2.82Z"/></g><g><path class="cls-1" d="M21.05,25.42h6.4l-4.76,15.71h-7.1l-4.76-15.71h6.4l1.91,9.27,1.91-9.27Z"/><path class="cls-1" d="M27.01,33.28c0-5.1,3.28-8.13,7.83-8.13s7.83,3.03,7.83,8.13-3.28,8.13-7.83,8.13-7.83-3.03-7.83-8.13Zm9.81,0c0-1.3-.68-2.07-1.98-2.07s-1.98,.77-1.98,2.07,.68,2.07,1.98,2.07,1.98-.77,1.98-2.07Z"/><path class="cls-1" d="M46.38,41.13v-9.9h-3.12v-5.81h12.11v5.81h-3.12v9.9h-5.87Z"/><path class="cls-1" d="M56.97,41.13v-15.71h11.43v5.6h-5.56v1.02l4.08-.55v3.37l-4.08-.32v.98h5.69v5.6h-11.57Z"/><path class="cls-1" d="M71.88,35.05l-1.94-9.63h5.71l-1.91,9.63h-1.87Zm-1.91,3.48c0-1.66,1.12-2.85,2.82-2.85s2.85,1.18,2.85,2.85-1.14,2.82-2.85,2.82-2.82-1.18-2.82-2.82Z"/></g><g><path class="cls-2" d="M21.05,114.75h6.4l-4.76,15.71h-7.1l-4.76-15.71h6.4l1.91,9.27,1.91-9.27Z"/><path class="cls-2" d="M27.01,122.61c0-5.1,3.28-8.13,7.83-8.13s7.83,3.03,7.83,8.13-3.28,8.13-7.83,8.13-7.83-3.03-7.83-8.13Zm9.81,0c0-1.3-.68-2.07-1.98-2.07s-1.98,.77-1.98,2.07,.68,2.07,1.98,2.07,1.98-.77,1.98-2.07Z"/><path class="cls-2" d="M46.38,130.46v-9.9h-3.12v-5.81h12.11v5.81h-3.12v9.9h-5.87Z"/><path class="cls-2" d="M56.97,130.46v-15.71h11.43v5.6h-5.56v1.02l4.08-.55v3.37l-4.08-.32v.98h5.69v5.6h-11.57Z"/><path class="cls-2" d="M71.88,124.38l-1.94-9.63h5.71l-1.91,9.63h-1.87Zm-1.91,3.48c0-1.66,1.12-2.85,2.82-2.85s2.85,1.18,2.85,2.85-1.14,2.82-2.85,2.82-2.82-1.18-2.82-2.82Z"/></g><g><path class="cls-3" d="M21.05,123.68h6.4l-4.76,15.71h-7.1l-4.76-15.71h6.4l1.91,9.27,1.91-9.27Z"/><path class="cls-3" d="M27.01,131.54c0-5.1,3.28-8.13,7.83-8.13s7.83,3.03,7.83,8.13-3.28,8.13-7.83,8.13-7.83-3.03-7.83-8.13Zm9.81,0c0-1.3-.68-2.07-1.98-2.07s-1.98,.77-1.98,2.07,.68,2.07,1.98,2.07,1.98-.77,1.98-2.07Z"/><path class="cls-3" d="M46.38,139.39v-9.9h-3.12v-5.81h12.11v5.81h-3.12v9.9h-5.87Z"/><path class="cls-3" d="M56.97,139.39v-15.71h11.43v5.6h-5.56v1.02l4.08-.55v3.37l-4.08-.32v.98h5.69v5.6h-11.57Z"/><path class="cls-3" d="M71.88,133.32l-1.94-9.63h5.71l-1.91,9.63h-1.87Zm-1.91,3.48c0-1.66,1.12-2.85,2.82-2.85s2.85,1.18,2.85,2.85-1.14,2.82-2.85,2.82-2.82-1.18-2.82-2.82Z"/></g><g><path class="cls-3" d="M21.05,105.82h6.4l-4.76,15.71h-7.1l-4.76-15.71h6.4l1.91,9.27,1.91-9.27Z"/><path class="cls-3" d="M27.01,113.67c0-5.1,3.28-8.13,7.83-8.13s7.83,3.03,7.83,8.13-3.28,8.13-7.83,8.13-7.83-3.03-7.83-8.13Zm9.81,0c0-1.3-.68-2.07-1.98-2.07s-1.98,.77-1.98,2.07,.68,2.07,1.98,2.07,1.98-.77,1.98-2.07Z"/><path class="cls-3" d="M46.38,121.53v-9.9h-3.12v-5.81h12.11v5.81h-3.12v9.9h-5.87Z"/><path class="cls-3" d="M56.97,121.53v-15.71h11.43v5.6h-5.56v1.02l4.08-.55v3.37l-4.08-.32v.98h5.69v5.6h-11.57Z"/><path class="cls-3" d="M71.88,115.45l-1.94-9.63h5.71l-1.91,9.63h-1.87Zm-1.91,3.48c0-1.66,1.12-2.85,2.82-2.85s2.85,1.18,2.85,2.85-1.14,2.82-2.85,2.82-2.82-1.18-2.82-2.82Z"/></g><g><path class="cls-3" d="M21.05,87.95h6.4l-4.76,15.71h-7.1l-4.76-15.71h6.4l1.91,9.27,1.91-9.27Z"/><path class="cls-3" d="M27.01,95.81c0-5.1,3.28-8.13,7.83-8.13s7.83,3.03,7.83,8.13-3.28,8.13-7.83,8.13-7.83-3.03-7.83-8.13Zm9.81,0c0-1.3-.68-2.07-1.98-2.07s-1.98,.77-1.98,2.07,.68,2.07,1.98,2.07,1.98-.77,1.98-2.07Z"/><path class="cls-3" d="M46.38,103.66v-9.9h-3.12v-5.81h12.11v5.81h-3.12v9.9h-5.87Z"/><path class="cls-3" d="M56.97,103.66v-15.71h11.43v5.6h-5.56v1.02l4.08-.55v3.37l-4.08-.32v.98h5.69v5.6h-11.57Z"/><path class="cls-3" d="M71.88,97.58l-1.94-9.63h5.71l-1.91,9.63h-1.87Zm-1.91,3.48c0-1.66,1.12-2.85,2.82-2.85s2.85,1.18,2.85,2.85-1.14,2.82-2.85,2.82-2.82-1.18-2.82-2.82Z"/></g><g><path class="cls-3" d="M21.05,70.09h6.4l-4.76,15.71h-7.1l-4.76-15.71h6.4l1.91,9.27,1.91-9.27Z"/><path class="cls-3" d="M27.01,77.94c0-5.1,3.28-8.13,7.83-8.13s7.83,3.03,7.83,8.13-3.28,8.13-7.83,8.13-7.83-3.03-7.83-8.13Zm9.81,0c0-1.3-.68-2.07-1.98-2.07s-1.98,.77-1.98,2.07,.68,2.07,1.98,2.07,1.98-.77,1.98-2.07Z"/><path class="cls-3" d="M46.38,85.8v-9.9h-3.12v-5.81h12.11v5.81h-3.12v9.9h-5.87Z"/><path class="cls-3" d="M56.97,85.8v-15.71h11.43v5.6h-5.56v1.02l4.08-.55v3.37l-4.08-.32v.98h5.69v5.6h-11.57Z"/><path class="cls-3" d="M71.88,79.72l-1.94-9.63h5.71l-1.91,9.63h-1.87Zm-1.91,3.48c0-1.66,1.12-2.85,2.82-2.85s2.85,1.18,2.85,2.85-1.14,2.82-2.85,2.82-2.82-1.18-2.82-2.82Z"/></g><g><path class="cls-3" d="M21.05,52.22h6.4l-4.76,15.71h-7.1l-4.76-15.71h6.4l1.91,9.27,1.91-9.27Z"/><path class="cls-3" d="M27.01,60.08c0-5.1,3.28-8.13,7.83-8.13s7.83,3.03,7.83,8.13-3.28,8.13-7.83,8.13-7.83-3.03-7.83-8.13Zm9.81,0c0-1.3-.68-2.07-1.98-2.07s-1.98,.77-1.98,2.07,.68,2.07,1.98,2.07,1.98-.77,1.98-2.07Z"/><path class="cls-3" d="M46.38,67.93v-9.9h-3.12v-5.81h12.11v5.81h-3.12v9.9h-5.87Z"/><path class="cls-3" d="M56.97,67.93v-15.71h11.43v5.6h-5.56v1.02l4.08-.55v3.37l-4.08-.32v.98h5.69v5.6h-11.57Z"/><path class="cls-3" d="M71.88,61.85l-1.94-9.63h5.71l-1.91,9.63h-1.87Zm-1.91,3.48c0-1.66,1.12-2.85,2.82-2.85s2.85,1.18,2.85,2.85-1.14,2.82-2.85,2.82-2.82-1.18-2.82-2.82Z"/></g><g><path class="cls-3" d="M21.05,34.36h6.4l-4.76,15.71h-7.1l-4.76-15.71h6.4l1.91,9.27,1.91-9.27Z"/><path class="cls-3" d="M27.01,42.21c0-5.1,3.28-8.13,7.83-8.13s7.83,3.03,7.83,8.13-3.28,8.13-7.83,8.13-7.83-3.03-7.83-8.13Zm9.81,0c0-1.3-.68-2.07-1.98-2.07s-1.98,.77-1.98,2.07,.68,2.07,1.98,2.07,1.98-.77,1.98-2.07Z"/><path class="cls-3" d="M46.38,50.07v-9.9h-3.12v-5.81h12.11v5.81h-3.12v9.9h-5.87Z"/><path class="cls-3" d="M56.97,50.07v-15.71h11.43v5.6h-5.56v1.02l4.08-.55v3.37l-4.08-.32v.98h5.69v5.6h-11.57Z"/><path class="cls-3" d="M71.88,43.99l-1.94-9.63h5.71l-1.91,9.63h-1.87Zm-1.91,3.48c0-1.66,1.12-2.85,2.82-2.85s2.85,1.18,2.85,2.85-1.14,2.82-2.85,2.82-2.82-1.18-2.82-2.82Z"/></g><g><path class="cls-3" d="M21.05,16.49h6.4l-4.76,15.71h-7.1l-4.76-15.71h6.4l1.91,9.27,1.91-9.27Z"/><path class="cls-3" d="M27.01,24.35c0-5.1,3.28-8.13,7.83-8.13s7.83,3.03,7.83,8.13-3.28,8.13-7.83,8.13-7.83-3.03-7.83-8.13Zm9.81,0c0-1.3-.68-2.07-1.98-2.07s-1.98,.77-1.98,2.07,.68,2.07,1.98,2.07,1.98-.77,1.98-2.07Z"/><path class="cls-3" d="M46.38,32.2v-9.9h-3.12v-5.81h12.11v5.81h-3.12v9.9h-5.87Z"/><path class="cls-3" d="M56.97,32.2v-15.71h11.43v5.6h-5.56v1.02l4.08-.55v3.37l-4.08-.32v.98h5.69v5.6h-11.57Z"/><path class="cls-3" d="M71.88,26.12l-1.94-9.63h5.71l-1.91,9.63h-1.87Zm-1.91,3.48c0-1.66,1.12-2.85,2.82-2.85s2.85,1.18,2.85,2.85-1.14,2.82-2.85,2.82-2.82-1.18-2.82-2.82Z"/></g></g><rect class="cls-4" x="11.84" y="152.07" width="64.82" height="11.84"/><rect class="cls-1" x="10.82" y="151.05" width="64.82" height="11.84"/><g><path class="cls-3" d="M18.95,159.32c-1.39,0-2.49-1.05-2.49-2.35s1.1-2.34,2.49-2.34c.63,0,1.23,.23,1.64,.57l-.77,.97c-.2-.2-.53-.35-.87-.35-.67,0-1.19,.51-1.19,1.16s.52,1.16,1.18,1.16c.37,0,.67-.22,.83-.56h-.85l.37-.97h1.89v.32c0,1.38-.99,2.4-2.24,2.4Z"/><path class="cls-3" d="M22.43,154.76h2.74v1.16h-1.44v.54h1.28v.97h-1.28v.59h1.49v1.16h-2.79v-4.41Z"/><path class="cls-3" d="M27.09,155.94h-.72v-1.17h2.73v1.17h-.72v3.24h-1.29v-3.24Z"/><path class="cls-3" d="M34.8,155.91c-.24-.14-.6-.22-.92-.22-.26,0-.41,.09-.41,.24,0,.16,.21,.33,.56,.6,.73,.59,1.01,.89,1.01,1.45,0,.87-.85,1.27-1.73,1.28-.42,0-.89-.06-1.16-.19v-1.08c.32,.15,.68,.26,1.07,.26,.27,0,.47-.11,.47-.27,0-.18-.27-.37-.69-.69-.74-.55-.93-.86-.93-1.37,0-.64,.56-1.23,1.69-1.23,.32,0,.73,.03,1.04,.17v1.06Z"/><path class="cls-3" d="M36.75,155.94h-.72v-1.17h2.73v1.17h-.72v3.24h-1.29v-3.24Z"/><polygon class="cls-3" points="69.74 156.05 67.95 154.27 67.04 155.18 68.18 156.32 63.7 156.32 63.7 157.62 68.18 157.62 67.04 158.76 67.95 159.67 69.74 157.89 70.01 157.62 70.01 156.32 69.74 156.05"/><path class="cls-3" d="M42.52,158.62h-1.59l-.2,.56h-1.34l1.72-4.41h1.27l1.73,4.41h-1.4l-.19-.56Zm-.32-.96l-.46-1.35-.47,1.35h.93Z"/><path class="cls-3" d="M46.61,157.8h-.04v1.37h-1.3v-4.41h1.41c.92,0,2,.19,2,1.56,0,.56-.35,.95-.8,1.19l1.11,1.66h-1.53l-.85-1.37Zm-.04-1.94v1.05h.2c.39,0,.64-.17,.64-.56s-.27-.49-.65-.49h-.19Z"/><path class="cls-3" d="M50.38,155.94h-.72v-1.17h2.73v1.17h-.72v3.24h-1.29v-3.24Z"/><path class="cls-3" d="M53.6,154.76h2.74v1.16h-1.44v.54h1.28v.97h-1.28v.59h1.49v1.16h-2.79v-4.41Z"/><path class="cls-3" d="M57.75,154.76h1.44c1.27,0,2.42,.59,2.42,2.2s-1.1,2.21-2.38,2.21h-1.48v-4.41Zm1.3,3.23h.25c.55,0,1.01-.32,1.01-1.03s-.46-1.02-1.01-1.02h-.25v2.06Z"/></g></g></g></svg>