<?xml version="1.0" encoding="UTF-8"?><svg id="Layer_2" xmlns="http://www.w3.org/2000/svg" viewBox="0 0 167.01 93.57"><defs><style>.cls-1{fill:#54166e;}</style></defs><g id="Layer_1-2"><g><g><path class="cls-1" d="M94.07,71.8c0,12.53-10.57,21.77-24.43,21.77s-24.43-9.24-24.43-21.77,10.57-21.77,24.43-21.77,24.43,9.24,24.43,21.77Zm-31.29,0c0,4.27,3.01,7.21,6.86,7.21s6.86-2.94,6.86-7.21-3.01-7.14-6.86-7.14-6.86,3.01-6.86,7.14Z"/><path class="cls-1" d="M116.05,65.78v26.11h-16.8v-26.11h-3.85v-14.07h3.85v-9.73l16.8-2.1v11.83h3.85v14.07h-3.85Z"/><path class="cls-1" d="M147.41,93.57c-17.22,0-26.18-8.75-26.18-21.77s9.1-21.77,23.73-21.77c12.25,0,22.05,9.1,22.05,21.91v4.69h-27.65c1.19,3.64,4.34,4.62,8.68,4.62s7.28-1.33,10.29-3.29l8.68,9.45c-4.27,3.57-11.48,6.16-19.6,6.16Zm-8.05-26.04h10.43c-.77-3.01-2.45-4.62-5.18-4.62s-4.48,1.54-5.25,4.62Z"/></g><polygon class="cls-1" points="37.08 0 25.3 62.13 19.03 27 0 27 13.06 91.99 13.14 92.39 37.54 92.39 56.11 0 37.08 0"/></g></g></svg>