<?xml version="1.0" encoding="UTF-8"?><svg id="Layer_2" xmlns="http://www.w3.org/2000/svg" viewBox="0 0 1288.57 724.82"><defs><style>.cls-1{letter-spacing:-.01em;}.cls-2{letter-spacing:-.02em;}.cls-3{font-family:NiveauGroteskBold, 'Niveau Grotesk';font-size:26px;}.cls-3,.cls-4,.cls-5,.cls-6{fill:#eeeae3;}.cls-7{letter-spacing:-.02em;}.cls-8{letter-spacing:0em;}.cls-9{letter-spacing:0em;}.cls-10{letter-spacing:0em;}.cls-11{letter-spacing:0em;}.cls-12,.cls-13{fill:#fff;}.cls-14{fill:#95d8f6;}.cls-15,.cls-16{fill:#387f5f;}.cls-17{letter-spacing:0em;}.cls-18{letter-spacing:0em;}.cls-19,.cls-16,.cls-5{font-family:NiveauGroteskBlack, 'Niveau Grotesk';}.cls-19,.cls-5{font-size:30px;}.cls-20{letter-spacing:-.01em;}.cls-21{letter-spacing:0em;}.cls-22{letter-spacing:-.01em;}.cls-23{letter-spacing:-.01em;}.cls-24{letter-spacing:-.02em;}.cls-25{letter-spacing:-.02em;}.cls-26{letter-spacing:0em;}.cls-27,.cls-13,.cls-6{font-family:NiveauGroteskMedium, 'Niveau Grotesk';font-size:20px;}.cls-28{letter-spacing:0em;}.cls-29{letter-spacing:0em;}.cls-16{font-size:40px;}.cls-30{letter-spacing:0em;}.cls-31{letter-spacing:-.02em;}.cls-32{letter-spacing:-.02em;}.cls-33{stroke-width:2px;}.cls-33,.cls-34{fill:none;stroke:#eeeae3;stroke-miterlimit:10;}.cls-35{letter-spacing:-.01em;}.cls-34{stroke-width:4px;}.cls-36{letter-spacing:0em;}.cls-37{letter-spacing:0em;}.cls-38{letter-spacing:0em;}.cls-39{letter-spacing:0em;}.cls-40{letter-spacing:0em;}.cls-41{letter-spacing:-.01em;}.cls-42{letter-spacing:0em;}.cls-43{letter-spacing:0em;}.cls-44{letter-spacing:0em;}.cls-45{letter-spacing:0em;}.cls-46{letter-spacing:0em;}.cls-47{letter-spacing:-.02em;}.cls-48{letter-spacing:-.01em;}.cls-49{letter-spacing:0em;}.cls-50{letter-spacing:0em;}.cls-51{letter-spacing:0em;}.cls-52{letter-spacing:0em;}.cls-53{letter-spacing:0em;}</style></defs><g id="Layer_1-2"><g><rect class="cls-4" width="1288.57" height="724.82"/><text class="cls-19" transform="translate(337.02 138.29)"><tspan class="cls-37" x="0" y="0">U</tspan><tspan class="cls-9" x="19.41" y="0">pd</tspan><tspan class="cls-44" x="55.95" y="0">at</tspan><tspan x="80.73" y="0">e </tspan><tspan class="cls-41" x="102.78" y="0">M</tspan><tspan x="128.82" y="0">enu</tspan></text><text class="cls-27" transform="translate(337.02 184.17)"><tspan x="0" y="0">Click on an i</tspan><tspan class="cls-38" x="101.32" y="0">t</tspan><tspan x="107.46" y="0">em</tspan><tspan class="cls-8" x="134.98" y="0"> </tspan><tspan class="cls-38" x="139.34" y="0">t</tspan><tspan x="145.48" y="0">o upd</tspan><tspan class="cls-52" x="197.04" y="0">a</tspan><tspan class="cls-38" x="206.56" y="0">t</tspan><tspan x="212.7" y="0">e</tspan></text><rect class="cls-15" width="300" height="724.82"/><text class="cls-3" transform="translate(18.4 346)"><tspan class="cls-39" x="0" y="0">L</tspan><tspan x="12.3" y="0">ogou</tspan><tspan class="cls-26" x="72.57" y="0">t</tspan></text><text class="cls-3" transform="translate(18.4 132.7)"><tspan class="cls-47" x="0" y="0">R</tspan><tspan x="15.03" y="0">eporting</tspan></text><text class="cls-3" transform="translate(18.4 203.8)"><tspan class="cls-29" x="0" y="0">U</tspan><tspan x="16.85" y="0">pd</tspan><tspan class="cls-53" x="48.62" y="0">a</tspan><tspan class="cls-29" x="61.13" y="0">t</tspan><tspan x="69.52" y="0">e </tspan><tspan class="cls-49" x="89.02" y="0">M</tspan><tspan class="cls-51" x="111.49" y="0">enus</tspan></text><text class="cls-3" transform="translate(18.4 274.9)"><tspan class="cls-18" x="0" y="0">M</tspan><tspan x="22.49" y="0">anage </tspan><tspan class="cls-20" x="97.6" y="0">R</tspan><tspan class="cls-51" x="112.63" y="0">e</tspan><tspan class="cls-26" x="126.54" y="0">s</tspan><tspan class="cls-11" x="136.63" y="0">t</tspan><tspan x="145.03" y="0">au</tspan><tspan class="cls-22" x="172.09" y="0">r</tspan><tspan x="181.24" y="0">a</tspan><tspan class="cls-45" x="193.88" y="0">n</tspan><tspan x="208.1" y="0">ts</tspan></text><line class="cls-34" x1="0" y1="86.95" x2="300" y2="86.95"/><line class="cls-33" x1="281.6" y1="302.33" x2="18.4" y2="302.33"/><line class="cls-33" x1="281.6" y1="231.23" x2="18.4" y2="231.23"/><line class="cls-33" x1="281.6" y1="160.12" x2="18.4" y2="160.12"/><g><path class="cls-4" d="M54.41,56.92c0,1.9-2.91,5.26-8.67,5.26-2.63,0-5.03-1.23-6.54-3.52-2.01,1.68-5.65,3.75-10.51,3.75-6.43,0-10.29-3.64-10.29-8.84s4.19-9.28,12.02-9.28c2.63,0,4.7,.34,6.1,.73l-.06-.56c-.5-3.63-2.68-5.48-5.48-5.48-2.46,0-4.31,.73-5.87,1.4-1.01,.45-1.96,.95-2.68,.95-.78,0-1.68-.67-1.68-1.84,0-1.4,1.4-2.8,2.4-3.58,2.52-1.96,6.21-3.3,11.3-3.3,6.82,0,11.69,2.63,12.58,9.28l1.23,9c.45,3.3,1.73,4.08,4.98,4.7,.62,.11,1.17,.56,1.17,1.34Zm-16.5-1.9l-.84-5.98c-.67-.17-1.62-.28-2.8-.28-2.68,0-4.81,1.01-4.81,3.58s1.85,4.08,4.14,4.08c1.68,0,3.36-.73,4.31-1.4Z"/><path class="cls-4" d="M87.41,35.06c0,2.35-2.63,1.51-4.36,5.65l-7.83,18.51c-.73,1.68-1.23,3.08-5.76,3.08s-5.03-1.17-5.87-3.08l-7.94-18.51c-1.85-4.31-4.31-3.3-4.31-5.65,0-1.12,.95-1.79,2.13-1.79,1.45,0,3.41,.17,6.93,.17s5.14-.17,6.82-.17c1.79,0,2.63,.73,2.63,1.79,0,2.24-2.4,1.79-2.4,4.36,0,1.12,.34,2.13,.95,3.69l3.8,10.07,3.86-10.07c.67-1.79,1.01-2.8,1.01-3.8,0-2.18-2.52-2.01-2.52-4.25,0-1.06,.78-1.79,2.57-1.79,1.17,0,2.52,.17,4.03,.17,1.4,0,3.13-.17,4.14-.17,1.23,0,2.13,.73,2.13,1.79Z"/><path class="cls-4" d="M87.01,48.09c0-9.12,7.55-15.88,18.45-15.88s17,6.71,17,14.93c0,9.34-7.89,15.83-18.4,15.83s-17.06-6.71-17.06-14.88Zm23.71,1.57c0-4.7-2.46-12.3-7.1-12.3-3.24,0-4.87,2.63-4.87,8.22,0,4.59,2.4,12.25,7.1,12.25,3.3,0,4.87-2.63,4.87-8.16Z"/><path class="cls-4" d="M124.93,48.2c0-9.9,8.05-15.94,16.5-15.94,7.27,0,12.75,4.53,12.75,7.83,0,1.51-1.12,3.52-4.59,5.82-1.06,.73-1.68,.84-2.18,.84-1.23,0-1.96-.95-2.18-2.01-.62-3.08-1.4-8.22-4.98-8.22-2.63,0-4.14,2.74-4.14,7.1,0,7.89,4.98,12.19,9.62,12.19,3.41,0,5.59-1.73,7.21-2.91,.61-.45,.95-.61,1.4-.61,.9,0,1.4,.84,1.4,1.51,0,.5-.17,1.06-.45,1.73-1.34,3.08-6.04,7.44-14.48,7.44-9.06,0-15.88-5.7-15.88-14.76Z"/><path class="cls-4" d="M193.15,56.92c0,1.9-2.91,5.26-8.67,5.26-2.63,0-5.03-1.23-6.54-3.52-2.01,1.68-5.65,3.75-10.51,3.75-6.43,0-10.29-3.64-10.29-8.84s4.19-9.28,12.02-9.28c2.63,0,4.7,.34,6.1,.73l-.06-.56c-.5-3.63-2.68-5.48-5.48-5.48-2.46,0-4.31,.73-5.87,1.4-1.01,.45-1.96,.95-2.68,.95-.78,0-1.68-.67-1.68-1.84,0-1.4,1.4-2.8,2.4-3.58,2.52-1.96,6.21-3.3,11.3-3.3,6.82,0,11.69,2.63,12.58,9.28l1.23,9c.45,3.3,1.73,4.08,4.98,4.7,.62,.11,1.17,.56,1.17,1.34Zm-16.5-1.9l-.84-5.98c-.67-.17-1.62-.28-2.8-.28-2.68,0-4.81,1.01-4.81,3.58s1.85,4.08,4.14,4.08c1.68,0,3.36-.73,4.31-1.4Z"/><path class="cls-4" d="M231.18,56.98c0,1.68-1.68,2.35-6.71,4.03-4.03,1.34-5.03,1.57-5.65,1.57-1.9,0-2.13-1.85-2.13-3.3v-2.18c-2.13,3.13-5.54,5.65-10.51,5.65-7.1,0-12.69-5.37-12.69-14.54s6.77-15.71,15.6-15.71c3.19,0,5.7,.84,7.61,2.29v-4.92c0-3.63-4.19-2.13-4.19-5.03,0-1.45,1.73-2.24,6.99-4.31,4.42-1.73,5.2-1.73,5.93-1.73,1.73,0,2.13,1.51,2.13,3.19v29.81c0,3.64,3.64,2.74,3.64,5.2Zm-14.48-8.89v-.78c0-5.14-2.63-9.67-6.6-9.67-2.85,0-5.09,2.4-5.09,7.55,0,6.15,3.08,10.23,6.43,10.23s5.26-3.19,5.26-7.33Z"/><path class="cls-4" d="M268.4,46.4c0,11.66-7.92,18.07-17.69,18.07s-17.69-6.41-17.69-18.07c0-18,9.92-27.61,17.69-27.61s17.69,9.62,17.69,27.61Z"/><circle cx="250.71" cy="45.21" r="7.58"/></g><text class="cls-16" transform="translate(339.06 86.95)"><tspan class="cls-38" x="0" y="0">C</tspan><tspan x="22.24" y="0">o</tspan><tspan class="cls-36" x="45.04" y="0">r</tspan><tspan class="cls-23" x="60.04" y="0">e</tspan><tspan x="80.72" y="0">y’s </tspan><tspan class="cls-40" x="137.08" y="0">C</tspan><tspan x="159.32" y="0">ou</tspan><tspan class="cls-36" x="204.48" y="0">n</tspan><tspan x="226.56" y="0">tr</tspan><tspan class="cls-24" x="255.48" y="0">y</tspan><tspan class="cls-43" x="275.96" y="0" xml:space="preserve"> Ki</tspan><tspan class="cls-46" x="318.12" y="0">t</tspan><tspan x="331.68" y="0">chen</tspan></text><g><rect class="cls-12" x="337.02" y="203.68" width="250" height="100"/><rect class="cls-14" x="487.02" y="203.68" width="100" height="100"/><text class="cls-27" transform="translate(346.02 230.68)"><tspan class="cls-50" x="0" y="0">Ho</tspan><tspan class="cls-37" x="25.96" y="0">t</tspan><tspan x="32.12" y="0">dog</tspan></text><text class="cls-27" transform="translate(346.02 253.68)"><tspan x="0" y="0">$5</tspan><tspan class="cls-52" x="19.46" y="0">.</tspan><tspan x="24.36" y="0">00</tspan></text></g><g><rect class="cls-12" x="614.02" y="203.68" width="250" height="100"/><rect class="cls-14" x="764.02" y="203.68" width="100" height="100"/><text class="cls-27" transform="translate(623.02 230.68)"><tspan x="0" y="0">Chic</tspan><tspan class="cls-31" x="36.72" y="0">k</tspan><tspan class="cls-21" x="45.98" y="0">en Salad</tspan></text><text class="cls-27" transform="translate(623.02 253.68)"><tspan x="0" y="0">$5</tspan><tspan class="cls-52" x="19.46" y="0">.</tspan><tspan x="24.36" y="0">00</tspan></text></g><g><rect class="cls-12" x="337.02" y="457.68" width="250" height="100"/><rect class="cls-14" x="487.02" y="457.68" width="100" height="100"/><text class="cls-27" transform="translate(346.02 484.68)"><tspan class="cls-1" x="0" y="0">M</tspan><tspan x="17.18" y="0">e</tspan><tspan class="cls-52" x="28" y="0">a</tspan><tspan x="37.52" y="0">tlo</tspan><tspan class="cls-30" x="60.1" y="0">a</tspan><tspan class="cls-48" x="69.68" y="0">f</tspan></text><text class="cls-27" transform="translate(346.02 507.68)"><tspan x="0" y="0">$5</tspan><tspan class="cls-52" x="19.46" y="0">.</tspan><tspan x="24.36" y="0">00</tspan></text></g><g><rect class="cls-12" x="614.02" y="457.68" width="250" height="100"/><rect class="cls-14" x="764.02" y="457.68" width="100" height="100"/><text class="cls-27" transform="translate(623.02 484.68)"><tspan class="cls-25" x="0" y="0">P</tspan><tspan x="10.5" y="0">outine</tspan></text><text class="cls-27" transform="translate(623.02 507.68)"><tspan x="0" y="0">$5</tspan><tspan class="cls-52" x="19.46" y="0">.</tspan><tspan x="24.36" y="0">00</tspan></text></g><g><rect class="cls-12" x="337.02" y="584.68" width="250" height="100"/><rect class="cls-14" x="487.02" y="584.68" width="100" height="100"/><text class="cls-27" transform="translate(346.02 611.68)"><tspan class="cls-32" x="0" y="0">F</tspan><tspan class="cls-21" x="9.7" y="0">rui</tspan><tspan class="cls-28" x="32.44" y="0">t</tspan><tspan class="cls-10" x="38.62" y="0"> </tspan><tspan class="cls-28" x="43.1" y="0">C</tspan><tspan class="cls-21" x="54.98" y="0">up</tspan></text><text class="cls-27" transform="translate(346.02 634.68)"><tspan x="0" y="0">$5</tspan><tspan class="cls-52" x="19.46" y="0">.</tspan><tspan x="24.36" y="0">00</tspan></text></g><g><rect class="cls-12" x="614.02" y="584.68" width="250" height="100"/><rect class="cls-14" x="764.02" y="584.68" width="100" height="100"/><text class="cls-27" transform="translate(623.02 611.68)"><tspan x="0" y="0">Caesa</tspan><tspan class="cls-7" x="49.8" y="0">r</tspan><tspan x="56.4" y="0" xml:space="preserve"> Salad</tspan></text><text class="cls-27" transform="translate(623.02 634.68)"><tspan x="0" y="0">$5</tspan><tspan class="cls-52" x="19.46" y="0">.</tspan><tspan x="24.36" y="0">00</tspan></text></g><g><rect class="cls-12" x="337.02" y="330.68" width="250" height="100"/><rect class="cls-14" x="487.02" y="330.68" width="100" height="100"/><text class="cls-27" transform="translate(346.02 357.68)"><tspan class="cls-25" x="0" y="0">P</tspan><tspan x="10.5" y="0">oppers</tspan></text><text class="cls-27" transform="translate(346.02 380.68)"><tspan x="0" y="0">$5</tspan><tspan class="cls-52" x="19.46" y="0">.</tspan><tspan x="24.36" y="0">00</tspan></text></g><g><rect class="cls-12" x="614.02" y="330.68" width="250" height="100"/><rect class="cls-14" x="764.02" y="330.68" width="100" height="100"/><text class="cls-27" transform="translate(623.02 357.68)"><tspan class="cls-30" x="0" y="0">H</tspan><tspan x="14.78" y="0">ushpuppies</tspan></text><text class="cls-27" transform="translate(623.02 380.68)"><tspan x="0" y="0">$5</tspan><tspan class="cls-52" x="19.46" y="0">.</tspan><tspan x="24.36" y="0">00</tspan></text></g><rect class="cls-15" x="905.2" y="203.68" width="268.58" height="481"/><g><rect class="cls-12" x="921.17" y="302.95" width="234.25" height="27.37"/><rect class="cls-12" x="921.17" y="366.32" width="234.25" height="27.37"/><text class="cls-6" transform="translate(921.17 293.95)"><tspan x="0" y="0">dish</tspan></text><text class="cls-6" transform="translate(921.17 357.32)"><tspan x="0" y="0">pri</tspan><tspan class="cls-38" x="23.98" y="0">c</tspan><tspan x="32.86" y="0">e</tspan></text><rect class="cls-12" x="921.17" y="432.42" width="234.25" height="63.37"/><text class="cls-6" transform="translate(921.17 423.42)"><tspan x="0" y="0">descri</tspan><tspan class="cls-17" x="51.58" y="0">p</tspan><tspan x="63.66" y="0">tion</tspan></text><rect class="cls-12" x="921.17" y="534.52" width="234.25" height="27.37"/><text class="cls-6" transform="translate(921.17 525.52)"><tspan x="0" y="0">image url</tspan></text><rect class="cls-12" x="921.17" y="598.27" width="174.82" height="27.37"/><text class="cls-6" transform="translate(921.17 589.15)"><tspan x="0" y="0">meal</tspan></text><text class="cls-27" transform="translate(927.47 618.2)"><tspan x="0" y="0">b</tspan><tspan class="cls-35" x="12.26" y="0">r</tspan><tspan class="cls-21" x="18.98" y="0">eak</tspan><tspan class="cls-8" x="49" y="0">f</tspan><tspan x="55.48" y="0">a</tspan><tspan class="cls-30" x="65.1" y="0">s</tspan><tspan class="cls-28" x="72.8" y="0">t</tspan></text><polygon class="cls-15" points="1070.46 605.81 1088.38 605.81 1079.42 618.1 1070.46 605.81"/></g><g><rect x="991.23" y="638.99" width="94.12" height="27.37"/><text class="cls-13" transform="translate(999.79 658.93)"><tspan x="0" y="0">add i</tspan><tspan class="cls-38" x="43.34" y="0">t</tspan><tspan x="49.48" y="0">em</tspan></text></g><text class="cls-5" transform="translate(921.17 248.59)"><tspan class="cls-41" x="0" y="0">N</tspan><tspan class="cls-52" x="21.12" y="0">e</tspan><tspan class="cls-2" x="36.84" y="0">w</tspan><tspan class="cls-42" x="60.15" y="0"> </tspan><tspan class="cls-38" x="66.33" y="0">I</tspan><tspan class="cls-44" x="75.27" y="0">t</tspan><tspan class="cls-42" x="85.44" y="0">em</tspan></text></g></g></svg>