<?xml version="1.0" encoding="UTF-8"?><svg id="Layer_2" xmlns="http://www.w3.org/2000/svg" viewBox="0 0 1288.57 724.82"><defs><style>.cls-1{fill:#eeeae3;}.cls-2{fill:#fff;}.cls-3{fill:#95d8f6;}.cls-4{fill:#387f5f;}.cls-5{stroke-width:2px;}.cls-5,.cls-6{fill:none;stroke:#eeeae3;stroke-miterlimit:10;}.cls-6{stroke-width:4px;}</style></defs><g id="Layer_1-2"><g><rect class="cls-1" width="1288.57" height="724.82"/><g><path d="M354.81,117.89v12.54c0,5.19-3.09,8.19-7.98,8.19s-7.98-3-7.98-8.19v-12.54h5.1v12.96c0,1.65,1.08,2.82,2.88,2.82s2.88-1.17,2.88-2.82v-12.96h5.1Z"/><path d="M362.85,124.91c.99-1.44,2.4-2.04,4.11-2.04,4.17,0,7.02,3.42,7.02,7.86s-2.85,7.89-7.05,7.89c-1.68,0-3.09-.63-4.08-1.74v7.56h-4.89v-21.27h4.89v1.74Zm3.06,8.91c1.74,0,3-1.44,3-3.09s-1.26-3.06-3-3.06-3.06,1.41-3.06,3.06,1.26,3.09,3.06,3.09Z"/><path d="M386.55,136.88c-1.05,1.11-2.46,1.74-4.11,1.74-4.23,0-7.02-3.45-7.02-7.89s2.79-7.86,7.05-7.86c1.65,0,3.03,.6,4.08,1.74v-7.02h4.89v20.7h-4.89v-1.41Zm-3.03-9.21c-1.77,0-3.06,1.41-3.06,3.06s1.29,3.09,3.06,3.09,3.03-1.44,3.03-3.09-1.26-3.06-3.03-3.06Z"/><path d="M395.22,123.68c1.08-.42,2.85-.81,4.41-.81,4.38,0,6.72,2.07,6.72,6.6v8.82h-4.89v-.87c-.72,.75-1.77,1.2-3.09,1.2-3.36,0-4.83-2.4-4.83-4.86,0-2.64,1.89-4.8,4.92-4.8,1.11,0,2.22,.3,3,.78v-.39c0-1.53-.96-2.16-2.43-2.16-1.29,0-2.7,.42-3.81,1.05v-4.56Zm4.65,11.43c.9,0,1.53-.6,1.53-1.35s-.63-1.35-1.53-1.35-1.53,.6-1.53,1.35,.66,1.35,1.53,1.35Z"/><path d="M410.28,138.29v-10.95h-2.04v-4.17h2.34v-3.09l4.59-.99v4.08h2.34v4.17h-2.34v10.95h-4.89Z"/><path d="M423.36,132.2c.36,1.29,1.62,2.04,3.39,2.04s3.54-.39,4.98-1.2v4.59c-1.38,.66-3.3,.99-5.4,.99-4.53,0-7.86-3.12-7.86-7.89,0-4.44,3.18-7.86,7.56-7.86s6.96,3.3,6.96,7.08c0,.75-.12,1.71-.27,2.25h-9.36Zm-.03-3.63h5.01c-.09-.99-.99-1.68-2.34-1.68s-2.43,.78-2.67,1.68Z"/><path d="M450.78,138.29l-3.84-11.31v11.31h-5.1v-20.4h6.3l4.86,13.89,4.86-13.89h6.27v20.4h-5.1v-11.34l-3.84,11.34h-4.41Z"/><path d="M471.45,132.2c.36,1.29,1.62,2.04,3.39,2.04s3.54-.39,4.98-1.2v4.59c-1.38,.66-3.3,.99-5.4,.99-4.53,0-7.86-3.12-7.86-7.89,0-4.44,3.18-7.86,7.56-7.86s6.96,3.3,6.96,7.08c0,.75-.12,1.71-.27,2.25h-9.36Zm-.03-3.63h5.01c-.09-.99-.99-1.68-2.34-1.68s-2.43,.78-2.67,1.68Z"/><path d="M488.13,124.85c.78-1.14,1.95-1.98,3.69-1.98,3.12,0,5.16,2.37,5.16,5.52v9.9h-4.89v-8.46c0-1.35-.78-2.19-1.98-2.19s-1.92,.72-1.98,2.01v8.64h-4.89v-15.12h4.89v1.68Z"/><path d="M508.68,136.64c-.75,1.14-1.92,1.98-3.69,1.98-3.09,0-5.13-2.37-5.13-5.52v-9.93h4.89v8.46c0,1.38,.75,2.22,1.95,2.22s1.89-.75,1.98-2.01v-8.67h4.89v15.12h-4.89v-1.65Z"/></g><g><path d="M348.11,183.55c-.96,.52-2.1,.84-3.32,.84-3.98,0-7-3.04-7-7.02s3.02-7.02,7-7.02c1.22,0,2.36,.32,3.32,.84v2.64c-.82-.72-2-1.2-3.32-1.2-2.66,0-4.66,2.1-4.66,4.74s2,4.74,4.66,4.74c1.32,0,2.52-.48,3.32-1.18v2.62Z"/><path d="M352.51,184.17h-2.2v-13.8h2.2v13.8Z"/><path d="M356.13,169.96c.78,0,1.34,.62,1.34,1.36s-.56,1.36-1.34,1.36-1.36-.6-1.36-1.36,.58-1.36,1.36-1.36Zm1.1,14.2h-2.2v-9.84h2.2v9.84Z"/><path d="M366.69,183.81c-.6,.36-1.58,.58-2.36,.58-3.06,0-5.18-2.26-5.18-5.14s2.12-5.12,5.18-5.12c.78,0,1.76,.2,2.36,.54v2.36c-.56-.42-1.38-.76-2.36-.76-1.68,0-2.94,1.34-2.94,2.98s1.26,2.98,2.94,2.98c.96,0,1.8-.32,2.36-.76v2.34Z"/><path d="M368.78,170.36h2.2v8.14l3.32-4.18h2.58l-3.12,3.96,3.18,5.88h-2.56l-2.24-4.34-1.16,1.46v2.88h-2.2v-13.8Z"/><path d="M387.37,174.12c2.88,0,5.12,2.22,5.12,5.12s-2.24,5.14-5.12,5.14-5.12-2.26-5.12-5.14,2.22-5.12,5.12-5.12Zm0,8.1c1.66,0,2.88-1.34,2.88-2.98s-1.22-2.98-2.88-2.98-2.9,1.34-2.9,2.98,1.26,2.98,2.9,2.98Z"/><path d="M396.59,175.72c.52-.96,1.44-1.6,2.76-1.6,2.18,0,3.58,1.6,3.58,3.8v6.24h-2.2v-5.68c0-1.32-.78-2.22-2.08-2.22s-2.02,.84-2.06,2.1v5.8h-2.2v-9.84h2.2v1.4Z"/><path d="M410.18,174.74c.72-.34,1.76-.62,2.82-.62,2.44,0,4.02,1.18,4.02,3.96v6.08h-2.2v-.9c-.5,.66-1.36,1.12-2.4,1.12-2.16,0-3.34-1.52-3.34-3.24s1.38-3.22,3.38-3.22c.96,0,1.86,.42,2.36,.94v-.82c0-1.4-.96-1.96-2.06-1.96-.9,0-1.82,.3-2.58,.78v-2.12Zm2.84,7.98c.98,0,1.78-.7,1.78-1.58s-.8-1.6-1.78-1.6-1.76,.72-1.76,1.6,.8,1.58,1.76,1.58Z"/><path d="M421.64,175.72c.52-.96,1.44-1.6,2.76-1.6,2.18,0,3.58,1.6,3.58,3.8v6.24h-2.2v-5.68c0-1.32-.78-2.22-2.08-2.22s-2.02,.84-2.06,2.1v5.8h-2.2v-9.84h2.2v1.4Z"/><path d="M435.98,169.96c.78,0,1.34,.62,1.34,1.36s-.56,1.36-1.34,1.36-1.36-.6-1.36-1.36,.58-1.36,1.36-1.36Zm1.1,14.2h-2.2v-9.84h2.2v9.84Z"/><path d="M440.38,184.17v-7.96h-1.66v-1.88h1.78v-2.3l2.08-.48v2.78h1.78v1.88h-1.78v7.96h-2.2Z"/><path d="M447.36,179.98c.22,1.42,1.4,2.4,3,2.4,1.3,0,2.58-.48,3.44-1.08v2.18c-.84,.48-2.12,.9-3.6,.9-2.9,0-5.06-2.12-5.06-5.14s2.1-5.12,4.94-5.12,4.68,2.14,4.68,4.74c0,.38-.06,.84-.14,1.12h-7.26Zm-.02-1.7h5.3c-.04-1.38-1.14-2.32-2.58-2.32s-2.58,1.04-2.72,2.32Z"/><path d="M458.76,175.58c.52-.88,1.38-1.46,2.6-1.46,1.44,0,2.58,.68,3.1,1.9,.48-1.12,1.46-1.9,2.96-1.9,1.94,0,3.44,1.46,3.44,3.64v6.4h-2.2v-5.8c0-1.34-.78-2.1-1.9-2.1s-1.96,.76-1.96,2.1v5.8h-2.2v-5.8c0-1.34-.78-2.1-1.9-2.1s-1.9,.7-1.94,1.96v5.94h-2.2v-9.84h2.2v1.26Z"/><path d="M478.4,184.17v-7.96h-1.66v-1.88h1.78v-2.3l2.08-.48v2.78h1.78v1.88h-1.78v7.96h-2.2Z"/><path d="M488.28,174.12c2.88,0,5.12,2.22,5.12,5.12s-2.24,5.14-5.12,5.14-5.12-2.26-5.12-5.14,2.22-5.12,5.12-5.12Zm0,8.1c1.66,0,2.88-1.34,2.88-2.98s-1.22-2.98-2.88-2.98-2.9,1.34-2.9,2.98,1.26,2.98,2.9,2.98Z"/><path d="M506.06,182.79c-.52,.94-1.42,1.6-2.78,1.6-2.16,0-3.56-1.62-3.56-3.8v-6.26h2.2v5.66c0,1.34,.78,2.24,2.06,2.24s2.02-.84,2.08-2.1v-5.8h2.18v9.84h-2.18v-1.38Z"/><path d="M513,176.04c.68-1.24,1.88-1.92,3.36-1.92,2.78,0,4.78,2.22,4.78,5.12s-2,5.14-4.78,5.14c-1.48,0-2.68-.7-3.36-1.82v5.7h-2.2v-13.94h2.2v1.72Zm2.94,6.18c1.68,0,2.92-1.36,2.92-2.98s-1.24-2.96-2.92-2.96-2.94,1.32-2.94,2.96,1.24,2.98,2.94,2.98Z"/><path d="M530.62,182.56c-.72,1.12-1.92,1.82-3.38,1.82-2.8,0-4.78-2.26-4.78-5.14s1.98-5.12,4.8-5.12c1.46,0,2.64,.68,3.36,1.8v-5.56h2.18v13.8h-2.18v-1.6Zm-2.94-6.28c-1.68,0-2.94,1.32-2.94,2.96s1.26,2.98,2.94,2.98,2.94-1.36,2.94-2.98-1.26-2.96-2.94-2.96Z"/><path d="M535.68,174.74c.72-.34,1.76-.62,2.82-.62,2.44,0,4.02,1.18,4.02,3.96v6.08h-2.2v-.9c-.5,.66-1.36,1.12-2.4,1.12-2.16,0-3.34-1.52-3.34-3.24s1.38-3.22,3.38-3.22c.96,0,1.86,.42,2.36,.94v-.82c0-1.4-.96-1.96-2.06-1.96-.9,0-1.82,.3-2.58,.78v-2.12Zm2.84,7.98c.98,0,1.78-.7,1.78-1.58s-.8-1.6-1.78-1.6-1.76,.72-1.76,1.6,.8,1.58,1.76,1.58Z"/><path d="M545.62,184.17v-7.96h-1.66v-1.88h1.78v-2.3l2.08-.48v2.78h1.78v1.88h-1.78v7.96h-2.2Z"/><path d="M552.6,179.98c.22,1.42,1.4,2.4,3,2.4,1.3,0,2.58-.48,3.44-1.08v2.18c-.84,.48-2.12,.9-3.6,.9-2.9,0-5.06-2.12-5.06-5.14s2.1-5.12,4.94-5.12,4.68,2.14,4.68,4.74c0,.38-.06,.84-.14,1.12h-7.26Zm-.02-1.7h5.3c-.04-1.38-1.14-2.32-2.58-2.32s-2.58,1.04-2.72,2.32Z"/></g><rect class="cls-4" width="300" height="724.82"/><g><path class="cls-1" d="M20.35,346v-17.68h3.69v14.12h6.37v3.56h-10.06Z"/><path class="cls-1" d="M38.16,332.79c3.8,0,6.73,2.94,6.73,6.73s-2.94,6.76-6.73,6.76-6.73-2.96-6.73-6.76,2.94-6.73,6.73-6.73Zm0,10.04c1.82,0,3.12-1.51,3.12-3.3s-1.3-3.28-3.12-3.28-3.15,1.48-3.15,3.28,1.35,3.3,3.15,3.3Z"/><path class="cls-1" d="M60.08,333.05v11.39c0,4.76-2.7,7.15-7.2,7.15-1.82,0-3.48-.49-4.34-.96v-3.67c1.12,.73,2.83,1.3,4.37,1.3,2.11,0,3.64-1.25,3.64-3.35v-.91c-.88,1.12-2.29,1.9-4.08,1.9-3.56,0-6.08-2.81-6.08-6.53s2.52-6.58,6.06-6.58c1.82,0,3.22,.78,4.11,1.98v-1.72h3.54Zm-6.84,3.2c-1.74,0-3.07,1.4-3.07,3.09s1.33,3.09,3.07,3.09,3.09-1.38,3.09-3.09-1.3-3.09-3.09-3.09Z"/><path class="cls-1" d="M69.07,332.79c3.8,0,6.73,2.94,6.73,6.73s-2.94,6.76-6.73,6.76-6.73-2.96-6.73-6.76,2.94-6.73,6.73-6.73Zm0,10.04c1.82,0,3.12-1.51,3.12-3.3s-1.3-3.28-3.12-3.28-3.15,1.48-3.15,3.28,1.35,3.3,3.15,3.3Z"/><path class="cls-1" d="M85.89,344.39c-.65,1.12-1.77,1.9-3.41,1.9-2.73,0-4.52-2.08-4.52-4.86v-8.37h3.54v7.36c0,1.46,.83,2.42,2.18,2.42s2.13-.88,2.21-2.24v-7.54h3.54v12.95h-3.54v-1.61Z"/><path class="cls-1" d="M93.46,346v-9.93h-1.98v-3.02h2.18v-2.83l3.33-.75v3.59h2.18v3.02h-2.18v9.93h-3.54Z"/></g><g><path class="cls-1" d="M20.35,115.02h6.11c3.46,0,5.85,1.87,5.85,5.15,0,2.52-1.46,3.98-3.2,4.47,2.21,1.14,3.54,4.26,3.95,8.06h-3.82c-.62-3.85-2.13-6.58-4.29-6.58h-.91v6.58h-3.69v-17.68Zm6.11,3.56h-2.42v3.98h2.42c1.17,0,2.05-.7,2.05-1.98s-.88-2-2.05-2Z"/><path class="cls-1" d="M37.72,127.34c.31,1.48,1.61,2.44,3.43,2.44,1.61,0,3.22-.47,4.39-1.22v3.41c-1.14,.6-2.81,1.01-4.68,1.01-3.85,0-6.68-2.73-6.68-6.76,0-3.8,2.73-6.73,6.47-6.73s6.06,2.81,6.06,6.16c0,.55-.1,1.27-.21,1.69h-8.79Zm0-2.68h5.59c-.05-1.33-1.17-2.24-2.68-2.24s-2.73,1.01-2.91,2.24Z"/><path class="cls-1" d="M52.36,121.62c.88-1.43,2.26-2.13,3.98-2.13,3.61,0,6.16,2.94,6.16,6.73s-2.55,6.76-6.19,6.76c-1.69,0-3.07-.73-3.95-1.95v6.99h-3.54v-18.28h3.54v1.87Zm3.25,7.88c1.85,0,3.2-1.51,3.2-3.28s-1.35-3.25-3.2-3.25-3.25,1.48-3.25,3.25,1.38,3.28,3.25,3.28Z"/><path class="cls-1" d="M70.68,119.49c3.8,0,6.73,2.94,6.73,6.73s-2.94,6.76-6.73,6.76-6.73-2.96-6.73-6.76,2.94-6.73,6.73-6.73Zm0,10.04c1.82,0,3.12-1.51,3.12-3.3s-1.3-3.28-3.12-3.28-3.15,1.48-3.15,3.28,1.35,3.3,3.15,3.3Z"/><path class="cls-1" d="M83.17,121.16c.62-.96,1.61-1.66,3.07-1.66,.29,0,.73,.03,1.01,.08v3.77c-.49-.23-1.12-.39-1.9-.39-1.25,0-2.11,.86-2.18,2.24v7.51h-3.54v-12.95h3.54v1.4Z"/><path class="cls-1" d="M90.11,132.7v-9.93h-1.98v-3.02h2.18v-2.83l3.33-.75v3.59h2.18v3.02h-2.18v9.93h-3.54Z"/><path class="cls-1" d="M99.41,113.87c1.22,0,2.08,.94,2.08,2.11s-.86,2.08-2.08,2.08-2.08-.91-2.08-2.08,.88-2.11,2.08-2.11Zm1.77,18.83h-3.54v-12.95h3.54v12.95Z"/><path class="cls-1" d="M107.68,121.39c.7-1.12,1.79-1.9,3.41-1.9,2.78,0,4.58,2.08,4.58,4.86v8.35h-3.56v-7.36c0-1.43-.86-2.39-2.21-2.39s-2.13,.86-2.21,2.24v7.51h-3.54v-12.95h3.54v1.64Z"/><path class="cls-1" d="M131.47,119.75v11.39c0,4.76-2.71,7.15-7.2,7.15-1.82,0-3.48-.49-4.34-.96v-3.67c1.12,.73,2.83,1.3,4.37,1.3,2.11,0,3.64-1.25,3.64-3.35v-.91c-.88,1.12-2.29,1.9-4.08,1.9-3.56,0-6.08-2.81-6.08-6.53s2.52-6.58,6.06-6.58c1.82,0,3.22,.78,4.11,1.98v-1.72h3.54Zm-6.84,3.2c-1.74,0-3.07,1.4-3.07,3.09s1.33,3.09,3.07,3.09,3.09-1.38,3.09-3.09-1.3-3.09-3.09-3.09Z"/></g><g><path class="cls-1" d="M33.66,186.12v11.02c0,4.34-2.63,6.94-6.76,6.94s-6.73-2.6-6.73-6.94v-11.02h3.69v11.34c0,1.79,1.17,3.04,3.04,3.04s3.07-1.25,3.07-3.04v-11.34h3.69Z"/><path class="cls-1" d="M40.26,192.72c.88-1.43,2.26-2.13,3.98-2.13,3.61,0,6.16,2.94,6.16,6.73s-2.55,6.76-6.19,6.76c-1.69,0-3.07-.73-3.95-1.95v6.99h-3.54v-18.28h3.54v1.87Zm3.25,7.88c1.85,0,3.2-1.51,3.2-3.28s-1.35-3.25-3.2-3.25-3.25,1.48-3.25,3.25,1.38,3.28,3.25,3.28Z"/><path class="cls-1" d="M62,202.14c-.91,1.22-2.31,1.95-3.98,1.95-3.67,0-6.14-2.96-6.14-6.76s2.47-6.73,6.16-6.73c1.66,0,3.04,.7,3.95,1.92v-6.66h3.54v17.94h-3.54v-1.66Zm-3.22-8.06c-1.85,0-3.25,1.48-3.25,3.25s1.4,3.28,3.25,3.28,3.22-1.51,3.22-3.28-1.35-3.25-3.22-3.25Z"/><path class="cls-1" d="M69.05,191.35c.94-.39,2.39-.75,3.74-.75,3.48,0,5.51,1.66,5.51,5.43v7.77h-3.54v-.96c-.65,.75-1.64,1.25-2.89,1.25-2.89,0-4.26-2.03-4.26-4.21,0-2.31,1.69-4.16,4.32-4.16,1.09,0,2.18,.39,2.83,.94v-.7c0-1.56-1.04-2.21-2.39-2.21-1.14,0-2.37,.39-3.33,.96v-3.35Zm3.87,10.14c1.01,0,1.79-.7,1.79-1.61s-.78-1.61-1.79-1.61-1.82,.7-1.82,1.61,.81,1.61,1.82,1.61Z"/><path class="cls-1" d="M82.02,203.8v-9.93h-1.98v-3.02h2.18v-2.83l3.33-.75v3.59h2.18v3.02h-2.18v9.93h-3.54Z"/><path class="cls-1" d="M92.21,198.44c.31,1.48,1.61,2.44,3.43,2.44,1.61,0,3.22-.47,4.39-1.22v3.41c-1.14,.6-2.81,1.01-4.68,1.01-3.85,0-6.68-2.73-6.68-6.76,0-3.8,2.73-6.73,6.47-6.73s6.06,2.81,6.06,6.16c0,.55-.1,1.27-.21,1.69h-8.79Zm0-2.68h5.59c-.05-1.33-1.17-2.24-2.68-2.24s-2.73,1.01-2.91,2.24Z"/><path class="cls-1" d="M117.17,203.8l-4.11-11.02v11.02h-3.69v-17.68h4.52l4.91,12.97,4.89-12.97h4.5v17.68h-3.69v-11.02l-4.11,11.02h-3.22Z"/><path class="cls-1" d="M134.18,198.44c.31,1.48,1.61,2.44,3.43,2.44,1.61,0,3.22-.47,4.39-1.22v3.41c-1.14,.6-2.81,1.01-4.68,1.01-3.85,0-6.68-2.73-6.68-6.76,0-3.8,2.73-6.73,6.47-6.73s6.06,2.81,6.06,6.16c0,.55-.1,1.27-.21,1.69h-8.79Zm0-2.68h5.59c-.05-1.33-1.17-2.24-2.68-2.24s-2.73,1.01-2.91,2.24Z"/><path class="cls-1" d="M148.81,192.49c.7-1.12,1.79-1.9,3.41-1.9,2.78,0,4.58,2.08,4.58,4.86v8.35h-3.56v-7.36c0-1.43-.86-2.39-2.21-2.39s-2.13,.86-2.21,2.24v7.51h-3.54v-12.95h3.54v1.64Z"/><path class="cls-1" d="M167.51,202.19c-.65,1.12-1.77,1.9-3.41,1.9-2.73,0-4.52-2.08-4.52-4.86v-8.37h3.54v7.36c0,1.46,.83,2.42,2.18,2.42s2.13-.88,2.21-2.24v-7.54h3.54v12.95h-3.54v-1.61Z"/><path class="cls-1" d="M181.29,194.52c-.81-.49-1.95-.86-2.83-.86s-1.27,.44-1.27,.94c0,.42,.26,.62,.75,.94l1.87,1.09c1.56,.94,2.13,2.16,2.13,3.51,0,2.24-1.66,3.95-4.76,3.95-1.17,0-2.47-.26-3.38-.65v-3.54c.6,.52,2.08,1.14,3.12,1.14,.91,0,1.35-.42,1.35-.96,0-.42-.23-.75-.86-1.12l-2.03-1.17c-1.35-.78-1.87-2.05-1.87-3.33,0-2.29,1.77-3.87,4.81-3.87,.96,0,2.13,.18,2.96,.44v3.48Z"/></g><g><path class="cls-1" d="M28.15,274.9l-4.11-11.02v11.02h-3.69v-17.68h4.52l4.91,12.97,4.89-12.97h4.5v17.68h-3.69v-11.02l-4.11,11.02h-3.22Z"/><path class="cls-1" d="M42.92,262.45c.94-.39,2.39-.75,3.74-.75,3.48,0,5.51,1.66,5.51,5.43v7.77h-3.54v-.96c-.65,.75-1.64,1.25-2.89,1.25-2.89,0-4.26-2.03-4.26-4.21,0-2.31,1.69-4.16,4.32-4.16,1.09,0,2.18,.39,2.83,.94v-.7c0-1.56-1.04-2.21-2.39-2.21-1.14,0-2.37,.39-3.33,.96v-3.35Zm3.87,10.14c1.01,0,1.79-.7,1.79-1.61s-.78-1.61-1.79-1.61-1.82,.7-1.82,1.61,.81,1.61,1.82,1.61Z"/><path class="cls-1" d="M58.54,263.59c.7-1.12,1.79-1.9,3.41-1.9,2.78,0,4.58,2.08,4.58,4.86v8.35h-3.56v-7.36c0-1.43-.86-2.39-2.21-2.39s-2.13,.86-2.21,2.24v7.51h-3.54v-12.95h3.54v1.64Z"/><path class="cls-1" d="M69.9,262.45c.94-.39,2.39-.75,3.74-.75,3.48,0,5.51,1.66,5.51,5.43v7.77h-3.54v-.96c-.65,.75-1.64,1.25-2.89,1.25-2.89,0-4.26-2.03-4.26-4.21,0-2.31,1.69-4.16,4.32-4.16,1.09,0,2.18,.39,2.83,.94v-.7c0-1.56-1.04-2.21-2.39-2.21-1.14,0-2.37,.39-3.33,.96v-3.35Zm3.87,10.14c1.01,0,1.79-.7,1.79-1.61s-.78-1.61-1.79-1.61-1.82,.7-1.82,1.61,.81,1.61,1.82,1.61Z"/><path class="cls-1" d="M94.97,261.95v11.39c0,4.76-2.71,7.15-7.2,7.15-1.82,0-3.48-.49-4.34-.96v-3.67c1.12,.73,2.83,1.3,4.37,1.3,2.11,0,3.64-1.25,3.64-3.35v-.91c-.88,1.12-2.29,1.9-4.08,1.9-3.56,0-6.08-2.81-6.08-6.53s2.52-6.58,6.06-6.58c1.82,0,3.22,.78,4.11,1.98v-1.72h3.54Zm-6.84,3.2c-1.74,0-3.07,1.4-3.07,3.09s1.33,3.09,3.07,3.09,3.09-1.38,3.09-3.09-1.3-3.09-3.09-3.09Z"/><path class="cls-1" d="M100.79,269.54c.31,1.48,1.61,2.44,3.43,2.44,1.61,0,3.22-.47,4.39-1.22v3.41c-1.14,.6-2.81,1.01-4.68,1.01-3.85,0-6.68-2.73-6.68-6.76,0-3.8,2.73-6.73,6.47-6.73s6.06,2.81,6.06,6.16c0,.55-.1,1.27-.21,1.69h-8.79Zm0-2.68h5.59c-.05-1.33-1.17-2.24-2.68-2.24s-2.73,1.01-2.91,2.24Z"/><path class="cls-1" d="M117.95,257.22h6.11c3.46,0,5.85,1.87,5.85,5.15,0,2.52-1.46,3.98-3.2,4.47,2.21,1.14,3.54,4.26,3.95,8.06h-3.82c-.62-3.85-2.13-6.58-4.29-6.58h-.91v6.58h-3.69v-17.68Zm6.11,3.56h-2.42v3.98h2.42c1.17,0,2.05-.7,2.05-1.98s-.88-2-2.05-2Z"/><path class="cls-1" d="M135.32,269.54c.31,1.48,1.61,2.44,3.43,2.44,1.61,0,3.22-.47,4.39-1.22v3.41c-1.14,.6-2.81,1.01-4.68,1.01-3.85,0-6.68-2.73-6.68-6.76,0-3.8,2.73-6.73,6.47-6.73s6.06,2.81,6.06,6.16c0,.55-.1,1.27-.21,1.69h-8.79Zm0-2.68h5.59c-.05-1.33-1.17-2.24-2.68-2.24s-2.73,1.01-2.91,2.24Z"/><path class="cls-1" d="M153.65,265.62c-.81-.49-1.95-.86-2.83-.86s-1.27,.44-1.27,.94c0,.42,.26,.62,.75,.94l1.87,1.09c1.56,.94,2.13,2.16,2.13,3.51,0,2.24-1.66,3.95-4.76,3.95-1.17,0-2.47-.26-3.38-.65v-3.54c.6,.52,2.08,1.14,3.12,1.14,.91,0,1.35-.42,1.35-.96,0-.42-.23-.75-.86-1.12l-2.03-1.17c-1.35-.78-1.87-2.05-1.87-3.33,0-2.29,1.77-3.87,4.81-3.87,.96,0,2.13,.18,2.96,.44v3.48Z"/><path class="cls-1" d="M157.52,274.9v-9.93h-1.98v-3.02h2.18v-2.83l3.33-.75v3.59h2.18v3.02h-2.18v9.93h-3.54Z"/><path class="cls-1" d="M165.45,262.45c.94-.39,2.39-.75,3.74-.75,3.48,0,5.51,1.66,5.51,5.43v7.77h-3.54v-.96c-.65,.75-1.64,1.25-2.89,1.25-2.89,0-4.26-2.03-4.26-4.21,0-2.31,1.69-4.16,4.32-4.16,1.09,0,2.18,.39,2.83,.94v-.7c0-1.56-1.04-2.21-2.39-2.21-1.14,0-2.37,.39-3.33,.96v-3.35Zm3.87,10.14c1.01,0,1.79-.7,1.79-1.61s-.78-1.61-1.79-1.61-1.82,.7-1.82,1.61,.81,1.61,1.82,1.61Z"/><path class="cls-1" d="M185.42,273.29c-.65,1.12-1.77,1.9-3.41,1.9-2.73,0-4.52-2.08-4.52-4.86v-8.37h3.54v7.36c0,1.46,.83,2.42,2.18,2.42s2.13-.88,2.21-2.24v-7.54h3.54v12.95h-3.54v-1.61Z"/><path class="cls-1" d="M195.51,263.36c.62-.96,1.61-1.66,3.07-1.66,.29,0,.73,.03,1.01,.08v3.77c-.49-.23-1.12-.39-1.9-.39-1.25,0-2.11,.86-2.18,2.24v7.51h-3.54v-12.95h3.54v1.4Z"/><path class="cls-1" d="M201.67,262.45c.94-.39,2.39-.75,3.74-.75,3.48,0,5.51,1.66,5.51,5.43v7.77h-3.54v-.96c-.65,.75-1.64,1.25-2.89,1.25-2.89,0-4.26-2.03-4.26-4.21,0-2.31,1.69-4.16,4.32-4.16,1.09,0,2.18,.39,2.83,.94v-.7c0-1.56-1.04-2.21-2.39-2.21-1.14,0-2.37,.39-3.33,.96v-3.35Zm3.87,10.14c1.01,0,1.79-.7,1.79-1.61s-.78-1.61-1.79-1.61-1.82,.7-1.82,1.61,.81,1.61,1.82,1.61Z"/><path class="cls-1" d="M217.3,263.59c.7-1.12,1.79-1.9,3.41-1.9,2.78,0,4.58,2.08,4.58,4.86v8.35h-3.56v-7.36c0-1.43-.86-2.39-2.21-2.39s-2.13,.86-2.21,2.24v7.51h-3.54v-12.95h3.54v1.64Z"/><path class="cls-1" d="M229,274.9v-9.93h-1.98v-3.02h2.18v-2.83l3.33-.75v3.59h2.18v3.02h-2.18v9.93h-3.54Z"/><path class="cls-1" d="M243.76,265.62c-.81-.49-1.95-.86-2.83-.86s-1.27,.44-1.27,.94c0,.42,.26,.62,.75,.94l1.87,1.09c1.56,.94,2.13,2.16,2.13,3.51,0,2.24-1.66,3.95-4.76,3.95-1.17,0-2.47-.26-3.38-.65v-3.54c.6,.52,2.08,1.14,3.12,1.14,.91,0,1.35-.42,1.35-.96,0-.42-.23-.75-.86-1.12l-2.03-1.17c-1.35-.78-1.87-2.05-1.87-3.33,0-2.29,1.77-3.87,4.81-3.87,.96,0,2.13,.18,2.96,.44v3.48Z"/></g><line class="cls-6" x1="0" y1="86.95" x2="300" y2="86.95"/><line class="cls-5" x1="281.6" y1="302.33" x2="18.4" y2="302.33"/><line class="cls-5" x1="281.6" y1="231.23" x2="18.4" y2="231.23"/><line class="cls-5" x1="281.6" y1="160.12" x2="18.4" y2="160.12"/><g><path class="cls-1" d="M54.41,56.92c0,1.9-2.91,5.26-8.67,5.26-2.63,0-5.03-1.23-6.54-3.52-2.01,1.68-5.65,3.75-10.51,3.75-6.43,0-10.29-3.64-10.29-8.84s4.19-9.28,12.02-9.28c2.63,0,4.7,.34,6.1,.73l-.06-.56c-.5-3.63-2.68-5.48-5.48-5.48-2.46,0-4.31,.73-5.87,1.4-1.01,.45-1.96,.95-2.68,.95-.78,0-1.68-.67-1.68-1.84,0-1.4,1.4-2.8,2.4-3.58,2.52-1.96,6.21-3.3,11.3-3.3,6.82,0,11.69,2.63,12.58,9.28l1.23,9c.45,3.3,1.73,4.08,4.98,4.7,.62,.11,1.17,.56,1.17,1.34Zm-16.5-1.9l-.84-5.98c-.67-.17-1.62-.28-2.8-.28-2.68,0-4.81,1.01-4.81,3.58s1.85,4.08,4.14,4.08c1.68,0,3.36-.73,4.31-1.4Z"/><path class="cls-1" d="M87.41,35.06c0,2.35-2.63,1.51-4.36,5.65l-7.83,18.51c-.73,1.68-1.23,3.08-5.76,3.08s-5.03-1.17-5.87-3.08l-7.94-18.51c-1.85-4.31-4.31-3.3-4.31-5.65,0-1.12,.95-1.79,2.13-1.79,1.45,0,3.41,.17,6.93,.17s5.14-.17,6.82-.17c1.79,0,2.63,.73,2.63,1.79,0,2.24-2.4,1.79-2.4,4.36,0,1.12,.34,2.13,.95,3.69l3.8,10.07,3.86-10.07c.67-1.79,1.01-2.8,1.01-3.8,0-2.18-2.52-2.01-2.52-4.25,0-1.06,.78-1.79,2.57-1.79,1.17,0,2.52,.17,4.03,.17,1.4,0,3.13-.17,4.14-.17,1.23,0,2.13,.73,2.13,1.79Z"/><path class="cls-1" d="M87.01,48.09c0-9.12,7.55-15.88,18.45-15.88s17,6.71,17,14.93c0,9.34-7.89,15.83-18.4,15.83s-17.06-6.71-17.06-14.88Zm23.71,1.57c0-4.7-2.46-12.3-7.1-12.3-3.24,0-4.87,2.63-4.87,8.22,0,4.59,2.4,12.25,7.1,12.25,3.3,0,4.87-2.63,4.87-8.16Z"/><path class="cls-1" d="M124.93,48.2c0-9.9,8.05-15.94,16.5-15.94,7.27,0,12.75,4.53,12.75,7.83,0,1.51-1.12,3.52-4.59,5.82-1.06,.73-1.68,.84-2.18,.84-1.23,0-1.96-.95-2.18-2.01-.62-3.08-1.4-8.22-4.98-8.22-2.63,0-4.14,2.74-4.14,7.1,0,7.89,4.98,12.19,9.62,12.19,3.41,0,5.59-1.73,7.21-2.91,.61-.45,.95-.61,1.4-.61,.9,0,1.4,.84,1.4,1.51,0,.5-.17,1.06-.45,1.73-1.34,3.08-6.04,7.44-14.48,7.44-9.06,0-15.88-5.7-15.88-14.76Z"/><path class="cls-1" d="M193.15,56.92c0,1.9-2.91,5.26-8.67,5.26-2.63,0-5.03-1.23-6.54-3.52-2.01,1.68-5.65,3.75-10.51,3.75-6.43,0-10.29-3.64-10.29-8.84s4.19-9.28,12.02-9.28c2.63,0,4.7,.34,6.1,.73l-.06-.56c-.5-3.63-2.68-5.48-5.48-5.48-2.46,0-4.31,.73-5.87,1.4-1.01,.45-1.96,.95-2.68,.95-.78,0-1.68-.67-1.68-1.84,0-1.4,1.4-2.8,2.4-3.58,2.52-1.96,6.21-3.3,11.3-3.3,6.82,0,11.69,2.63,12.58,9.28l1.23,9c.45,3.3,1.73,4.08,4.98,4.7,.62,.11,1.17,.56,1.17,1.34Zm-16.5-1.9l-.84-5.98c-.67-.17-1.62-.28-2.8-.28-2.68,0-4.81,1.01-4.81,3.58s1.85,4.08,4.14,4.08c1.68,0,3.36-.73,4.31-1.4Z"/><path class="cls-1" d="M231.18,56.98c0,1.68-1.68,2.35-6.71,4.03-4.03,1.34-5.03,1.57-5.65,1.57-1.9,0-2.13-1.85-2.13-3.3v-2.18c-2.13,3.13-5.54,5.65-10.51,5.65-7.1,0-12.69-5.37-12.69-14.54s6.77-15.71,15.6-15.71c3.19,0,5.7,.84,7.61,2.29v-4.92c0-3.63-4.19-2.13-4.19-5.03,0-1.45,1.73-2.24,6.99-4.31,4.42-1.73,5.2-1.73,5.93-1.73,1.73,0,2.13,1.51,2.13,3.19v29.81c0,3.64,3.64,2.74,3.64,5.2Zm-14.48-8.89v-.78c0-5.14-2.63-9.67-6.6-9.67-2.85,0-5.09,2.4-5.09,7.55,0,6.15,3.08,10.23,6.43,10.23s5.26-3.19,5.26-7.33Z"/><path class="cls-1" d="M268.4,46.4c0,11.66-7.92,18.07-17.69,18.07s-17.69-6.41-17.69-18.07c0-18,9.92-27.61,17.69-27.61s17.69,9.62,17.69,27.61Z"/><circle cx="250.71" cy="45.21" r="7.58"/></g><g><path class="cls-4" d="M359.9,86.27c-1.72,.72-3.68,1.12-5.72,1.12-7.96,0-14-6.08-14-14.04s6.04-14.04,14-14.04c2.04,0,4,.4,5.72,1.12v7.8c-1.32-1.24-3.32-2.12-5.72-2.12-4,0-7,3.28-7,7.24s3,7.24,7,7.24c2.4,0,4.48-.88,5.72-2.04v7.72Z"/><path class="cls-4" d="M372.7,66.39c5.92,0,10.48,4.56,10.48,10.48s-4.56,10.52-10.48,10.52-10.48-4.6-10.48-10.52,4.56-10.48,10.48-10.48Zm0,14.64c2.28,0,3.88-1.92,3.88-4.16s-1.6-4.12-3.88-4.12-3.88,1.88-3.88,4.12,1.64,4.16,3.88,4.16Z"/><path class="cls-4" d="M392.66,68.71c.96-1.32,2.44-2.32,4.56-2.32,.4,0,1.08,.04,1.52,.12v6.88c-.84-.36-1.88-.64-3.2-.64-1.52,0-2.76,.96-2.88,2.68v11.52h-6.52v-20.16h6.52v1.92Z"/><path class="cls-4" d="M406.58,78.83c.48,1.72,2.16,2.72,4.52,2.72s4.72-.52,6.64-1.6v6.12c-1.84,.88-4.4,1.32-7.2,1.32-6.04,0-10.48-4.16-10.48-10.52,0-5.92,4.24-10.48,10.08-10.48s9.28,4.4,9.28,9.44c0,1-.16,2.28-.36,3h-12.48Zm-.04-4.84h6.68c-.12-1.32-1.32-2.24-3.12-2.24s-3.24,1.04-3.56,2.24Z"/><path class="cls-4" d="M426.94,85.43l-7.24-18.64h7.32l3.48,10.4,3.84-10.4h7.32l-11.84,28.35h-7.52l4.64-9.72Z"/><path class="cls-4" d="M442.86,71.63l1.08-11.88h7.2l-2.28,11.88h-6Z"/><path class="cls-4" d="M465.74,73.23c-1.24-.68-3.08-1.24-4.32-1.24-1,0-1.36,.48-1.36,.92s.32,.68,.88,1.04l2.6,1.48c2.32,1.4,3.24,3.4,3.24,5.56,0,3.52-2.52,6.4-7.64,6.4-1.68,0-3.76-.32-5.24-.88v-6.4c.88,.8,3.36,1.76,4.76,1.76,.96,0,1.4-.44,1.4-1,0-.44-.28-.84-1-1.24l-2.84-1.64c-2.12-1.2-2.88-3.28-2.88-5.32,0-3.76,2.88-6.28,7.8-6.28,1.32,0,3.24,.2,4.6,.56v6.28Z"/><path class="cls-4" d="M496.98,86.27c-1.72,.72-3.68,1.12-5.72,1.12-7.96,0-14-6.08-14-14.04s6.04-14.04,14-14.04c2.04,0,4,.4,5.72,1.12v7.8c-1.32-1.24-3.32-2.12-5.72-2.12-4,0-7,3.28-7,7.24s3,7.24,7,7.24c2.4,0,4.48-.88,5.72-2.04v7.72Z"/><path class="cls-4" d="M509.78,66.39c5.92,0,10.48,4.56,10.48,10.48s-4.56,10.52-10.48,10.52-10.48-4.6-10.48-10.52,4.56-10.48,10.48-10.48Zm0,14.64c2.28,0,3.88-1.92,3.88-4.16s-1.6-4.12-3.88-4.12-3.88,1.88-3.88,4.12,1.64,4.16,3.88,4.16Z"/><path class="cls-4" d="M534.9,84.75c-1,1.52-2.56,2.64-4.92,2.64-4.12,0-6.84-3.16-6.84-7.36v-13.24h6.52v11.28c0,1.84,1,2.96,2.6,2.96s2.52-1,2.64-2.68v-11.56h6.52v20.16h-6.52v-2.2Z"/><path class="cls-4" d="M552.1,69.03c1.04-1.52,2.6-2.64,4.92-2.64,4.16,0,6.88,3.16,6.88,7.36v13.2h-6.52v-11.28c0-1.8-1.04-2.92-2.64-2.92s-2.56,.96-2.64,2.68v11.52h-6.52v-20.16h6.52v2.24Z"/><path class="cls-4" d="M569.22,86.95v-14.6h-2.72v-5.56h3.12v-4.12l6.12-1.32v5.44h3.12v5.56h-3.12v14.6h-6.52Z"/><path class="cls-4" d="M587.94,68.71c.96-1.32,2.44-2.32,4.56-2.32,.4,0,1.08,.04,1.52,.12v6.88c-.84-.36-1.88-.64-3.2-.64-1.52,0-2.76,.96-2.88,2.68v11.52h-6.52v-20.16h6.52v1.92Z"/><path class="cls-4" d="M601.7,85.43l-7.24-18.64h7.32l3.48,10.4,3.84-10.4h7.32l-11.84,28.35h-7.52l4.64-9.72Z"/><path class="cls-4" d="M625.98,59.75h6.8v9.84l5.44-9.84h7.88l-6.84,11.16,7.24,16.04h-7.92l-4.24-10.2-1.56,2.52v7.68h-6.8v-27.2Z"/><path class="cls-4" d="M651.86,57.43c2.16,0,3.72,1.68,3.72,3.72s-1.56,3.72-3.72,3.72-3.72-1.6-3.72-3.72,1.6-3.72,3.72-3.72Zm3.28,29.51h-6.52v-20.16h6.52v20.16Z"/><path class="cls-4" d="M660.78,86.95v-14.6h-2.72v-5.56h3.12v-4.12l6.12-1.32v5.44h3.12v5.56h-3.12v14.6h-6.52Z"/><path class="cls-4" d="M686.5,86.63c-1,.48-2.96,.76-4.12,.76-6.48,0-10.68-4.6-10.68-10.52s4.2-10.48,10.68-10.48c1.16,0,3.12,.28,4.12,.72v6.84c-.92-.6-2.36-1.2-4.12-1.2-2.4,0-4.08,1.88-4.08,4.12s1.68,4.16,4.08,4.16c1.72,0,3.2-.6,4.12-1.2v6.8Z"/><path class="cls-4" d="M696.58,69.03c1.08-1.52,2.64-2.64,4.92-2.64,4.16,0,6.88,3.16,6.88,7.36v13.2h-6.52v-11.28c0-1.8-1.04-2.92-2.6-2.92s-2.6,.96-2.68,2.68v11.52h-6.52v-27.6h6.52v9.68Z"/><path class="cls-4" d="M717.74,78.83c.48,1.72,2.16,2.72,4.52,2.72s4.72-.52,6.64-1.6v6.12c-1.84,.88-4.4,1.32-7.2,1.32-6.04,0-10.48-4.16-10.48-10.52,0-5.92,4.24-10.48,10.08-10.48s9.28,4.4,9.28,9.44c0,1-.16,2.28-.36,3h-12.48Zm-.04-4.84h6.68c-.12-1.32-1.32-2.24-3.12-2.24s-3.24,1.04-3.56,2.24Z"/><path class="cls-4" d="M739.98,69.03c1.04-1.52,2.6-2.64,4.92-2.64,4.16,0,6.88,3.16,6.88,7.36v13.2h-6.52v-11.28c0-1.8-1.04-2.92-2.64-2.92s-2.56,.96-2.64,2.68v11.52h-6.52v-20.16h6.52v2.24Z"/></g><g><rect class="cls-2" x="337.02" y="203.68" width="250" height="100"/><rect class="cls-3" x="487.02" y="203.68" width="100" height="100"/><g><path d="M356.93,224.92h-6.98v5.76h-2.28v-13.6h2.28v5.66h6.98v-5.66h2.28v13.6h-2.28v-5.76Z"/><path d="M366.43,220.63c2.88,0,5.12,2.22,5.12,5.12s-2.24,5.14-5.12,5.14-5.12-2.26-5.12-5.14,2.22-5.12,5.12-5.12Zm0,8.1c1.66,0,2.88-1.34,2.88-2.98s-1.22-2.98-2.88-2.98-2.9,1.34-2.9,2.98,1.26,2.98,2.9,2.98Z"/><path d="M374.03,230.68v-7.96h-1.66v-1.88h1.78v-2.3l2.08-.48v2.78h1.78v1.88h-1.78v7.96h-2.2Z"/><path d="M386.97,229.08c-.72,1.12-1.92,1.82-3.38,1.82-2.8,0-4.78-2.26-4.78-5.14s1.98-5.12,4.8-5.12c1.46,0,2.64,.68,3.36,1.8v-5.56h2.18v13.8h-2.18v-1.6Zm-2.94-6.28c-1.68,0-2.94,1.32-2.94,2.96s1.26,2.98,2.94,2.98,2.94-1.36,2.94-2.98-1.26-2.96-2.94-2.96Z"/><path d="M396.19,220.63c2.88,0,5.12,2.22,5.12,5.12s-2.24,5.14-5.12,5.14-5.12-2.26-5.12-5.14,2.22-5.12,5.12-5.12Zm0,8.1c1.66,0,2.88-1.34,2.88-2.98s-1.22-2.98-2.88-2.98-2.9,1.34-2.9,2.98,1.26,2.98,2.9,2.98Z"/><path d="M412.93,220.83v8.88c0,3.4-2.06,5.26-5.3,5.26-1.44,0-2.72-.42-3.38-.8v-2.3c.8,.56,2.14,1.04,3.38,1.04,1.8,0,3.1-1.16,3.1-2.94v-1.14c-.7,1.04-1.88,1.76-3.4,1.76-2.72,0-4.7-2.14-4.7-4.96s1.98-5,4.68-5c1.54,0,2.72,.72,3.42,1.8v-1.6h2.2Zm-5.14,1.96c-1.62,0-2.82,1.24-2.82,2.82s1.2,2.84,2.82,2.84,2.82-1.24,2.82-2.84-1.2-2.82-2.82-2.82Z"/></g><g><path d="M354.33,243.03c-.72-.56-1.86-1.02-2.96-1.02v3.62l1.18,.74c1.74,1.04,2.4,2.14,2.4,3.62,0,1.84-1.18,3.54-3.58,3.84v2.18h-.9v-2.12c-1.36-.02-2.56-.38-3.36-.78v-2.56c.72,.58,1.98,1.18,3.3,1.18h.06v-3.76l-1.34-.82c-1.68-.98-2.22-2.08-2.22-3.52,0-1.64,.96-3.38,3.56-3.72v-1.8h.9v1.74h.04c1.1,0,2.12,.3,2.92,.7v2.48Zm-3.86,2.04v-2.94c-.74,.24-1.12,.76-1.12,1.42,0,.58,.38,1.06,1.12,1.52Zm.9,3.46v3.06c.74-.24,1.14-.82,1.14-1.48,0-.56-.34-1.08-1.14-1.58Z"/><path d="M360.07,242.25l-.36,2.76h.12c2.88,0,4.76,1.62,4.76,4.28,0,3.02-2.08,4.6-4.72,4.6-1.32,0-2.54-.44-3.34-.92v-2.8c.82,.78,1.86,1.44,3.22,1.44s2.48-.94,2.48-2.32c0-1.62-1.4-2.18-3.06-2.18h-1.82l.68-7.04h6.36v2.18h-4.32Z"/><path d="M367.96,250.74c.92,0,1.58,.68,1.58,1.58s-.66,1.56-1.58,1.56-1.54-.66-1.54-1.56,.66-1.58,1.54-1.58Z"/><path d="M381.03,244.63v4.48c0,2.74-2.02,4.78-4.76,4.78s-4.78-2.04-4.78-4.78v-4.48c0-2.76,2.02-4.78,4.78-4.78s4.76,2.02,4.76,4.78Zm-7.26,.06v4.36c0,1.48,.94,2.6,2.5,2.6s2.48-1.12,2.48-2.6v-4.36c0-1.5-.94-2.6-2.48-2.6s-2.5,1.1-2.5,2.6Z"/><path d="M392.77,244.63v4.48c0,2.74-2.02,4.78-4.76,4.78s-4.78-2.04-4.78-4.78v-4.48c0-2.76,2.02-4.78,4.78-4.78s4.76,2.02,4.76,4.78Zm-7.26,.06v4.36c0,1.48,.94,2.6,2.5,2.6s2.48-1.12,2.48-2.6v-4.36c0-1.5-.94-2.6-2.48-2.6s-2.5,1.1-2.5,2.6Z"/></g></g><g><rect class="cls-2" x="614.02" y="203.68" width="250" height="100"/><rect class="cls-3" x="764.02" y="203.68" width="100" height="100"/><g><path d="M634.11,230.06c-.96,.52-2.1,.84-3.32,.84-3.98,0-7-3.04-7-7.02s3.02-7.02,7-7.02c1.22,0,2.36,.32,3.32,.84v2.64c-.82-.72-2-1.2-3.32-1.2-2.66,0-4.66,2.1-4.66,4.74s2,4.74,4.66,4.74c1.32,0,2.52-.48,3.32-1.18v2.62Z"/><path d="M638.49,222.23c.54-.96,1.44-1.6,2.76-1.6,2.18,0,3.58,1.6,3.58,3.8v6.24h-2.2v-5.68c0-1.32-.78-2.22-2.06-2.22s-2.04,.84-2.08,2.1v5.8h-2.2v-13.8h2.2v5.36Z"/><path d="M648.34,216.47c.78,0,1.34,.62,1.34,1.36s-.56,1.36-1.34,1.36-1.36-.6-1.36-1.36,.58-1.36,1.36-1.36Zm1.1,14.2h-2.2v-9.84h2.2v9.84Z"/><path d="M658.91,230.32c-.6,.36-1.58,.58-2.36,.58-3.06,0-5.18-2.26-5.18-5.14s2.12-5.12,5.18-5.12c.78,0,1.76,.2,2.36,.54v2.36c-.56-.42-1.38-.76-2.36-.76-1.68,0-2.94,1.34-2.94,2.98s1.26,2.98,2.94,2.98c.96,0,1.8-.32,2.36-.76v2.34Z"/><path d="M661,216.87h2.2v8.14l3.32-4.18h2.58l-3.12,3.96,3.18,5.88h-2.56l-2.24-4.34-1.16,1.46v2.88h-2.2v-13.8Z"/><path d="M671.89,226.5c.22,1.42,1.4,2.4,3,2.4,1.3,0,2.58-.48,3.44-1.08v2.18c-.84,.48-2.12,.9-3.6,.9-2.9,0-5.06-2.12-5.06-5.14s2.1-5.12,4.94-5.12,4.68,2.14,4.68,4.74c0,.38-.06,.84-.14,1.12h-7.26Zm-.02-1.7h5.3c-.04-1.38-1.14-2.32-2.58-2.32s-2.58,1.04-2.72,2.32Z"/><path d="M683.28,222.23c.52-.96,1.44-1.6,2.76-1.6,2.18,0,3.58,1.6,3.58,3.8v6.24h-2.2v-5.68c0-1.32-.78-2.22-2.08-2.22s-2.02,.84-2.06,2.1v5.8h-2.2v-9.84h2.2v1.4Z"/><path d="M703.61,220.03c-.72-.56-1.86-1.02-2.96-1.02-1.3,0-2.02,.64-2.02,1.54,0,.58,.38,1.06,1.12,1.52l2.08,1.3c1.74,1.04,2.4,2.14,2.4,3.62,0,2.04-1.44,3.9-4.44,3.9-1.38,0-2.58-.38-3.4-.78v-2.56c.72,.58,1.98,1.18,3.3,1.18s2.1-.72,2.1-1.62c0-.6-.38-1.12-1.26-1.66l-2.12-1.3c-1.68-.98-2.22-2.08-2.22-3.52,0-1.82,1.2-3.78,4.5-3.78,1.1,0,2.12,.3,2.92,.7v2.48Z"/><path d="M706.6,221.25c.72-.34,1.76-.62,2.82-.62,2.44,0,4.02,1.18,4.02,3.96v6.08h-2.2v-.9c-.5,.66-1.36,1.12-2.4,1.12-2.16,0-3.34-1.52-3.34-3.24s1.38-3.22,3.38-3.22c.96,0,1.86,.42,2.36,.94v-.82c0-1.4-.96-1.96-2.06-1.96-.9,0-1.82,.3-2.58,.78v-2.12Zm2.84,7.98c.98,0,1.78-.7,1.78-1.58s-.8-1.6-1.78-1.6-1.76,.72-1.76,1.6,.8,1.58,1.76,1.58Z"/><path d="M718.08,230.68h-2.2v-13.8h2.2v13.8Z"/><path d="M720.96,221.25c.72-.34,1.76-.62,2.82-.62,2.44,0,4.02,1.18,4.02,3.96v6.08h-2.2v-.9c-.5,.66-1.36,1.12-2.4,1.12-2.16,0-3.34-1.52-3.34-3.24s1.38-3.22,3.38-3.22c.96,0,1.86,.42,2.36,.94v-.82c0-1.4-.96-1.96-2.06-1.96-.9,0-1.82,.3-2.58,.78v-2.12Zm2.84,7.98c.98,0,1.78-.7,1.78-1.58s-.8-1.6-1.78-1.6-1.76,.72-1.76,1.6,.8,1.58,1.76,1.58Z"/><path d="M737.78,229.08c-.72,1.12-1.92,1.82-3.38,1.82-2.8,0-4.78-2.26-4.78-5.14s1.98-5.12,4.8-5.12c1.46,0,2.64,.68,3.36,1.8v-5.56h2.18v13.8h-2.18v-1.6Zm-2.94-6.28c-1.68,0-2.94,1.32-2.94,2.96s1.26,2.98,2.94,2.98,2.94-1.36,2.94-2.98-1.26-2.96-2.94-2.96Z"/></g><g><path d="M631.33,243.03c-.72-.56-1.86-1.02-2.96-1.02v3.62l1.18,.74c1.74,1.04,2.4,2.14,2.4,3.62,0,1.84-1.18,3.54-3.58,3.84v2.18h-.9v-2.12c-1.36-.02-2.56-.38-3.36-.78v-2.56c.72,.58,1.98,1.18,3.3,1.18h.06v-3.76l-1.34-.82c-1.68-.98-2.22-2.08-2.22-3.52,0-1.64,.96-3.38,3.56-3.72v-1.8h.9v1.74h.04c1.1,0,2.12,.3,2.92,.7v2.48Zm-3.86,2.04v-2.94c-.74,.24-1.12,.76-1.12,1.42,0,.58,.38,1.06,1.12,1.52Zm.9,3.46v3.06c.74-.24,1.14-.82,1.14-1.48,0-.56-.34-1.08-1.14-1.58Z"/><path d="M637.07,242.25l-.36,2.76h.12c2.88,0,4.76,1.62,4.76,4.28,0,3.02-2.08,4.6-4.72,4.6-1.32,0-2.54-.44-3.34-.92v-2.8c.82,.78,1.86,1.44,3.22,1.44s2.48-.94,2.48-2.32c0-1.62-1.4-2.18-3.06-2.18h-1.82l.68-7.04h6.36v2.18h-4.32Z"/><path d="M644.96,250.74c.92,0,1.58,.68,1.58,1.58s-.66,1.56-1.58,1.56-1.54-.66-1.54-1.56,.66-1.58,1.54-1.58Z"/><path d="M658.03,244.63v4.48c0,2.74-2.02,4.78-4.76,4.78s-4.78-2.04-4.78-4.78v-4.48c0-2.76,2.02-4.78,4.78-4.78s4.76,2.02,4.76,4.78Zm-7.26,.06v4.36c0,1.48,.94,2.6,2.5,2.6s2.48-1.12,2.48-2.6v-4.36c0-1.5-.94-2.6-2.48-2.6s-2.5,1.1-2.5,2.6Z"/><path d="M669.77,244.63v4.48c0,2.74-2.02,4.78-4.76,4.78s-4.78-2.04-4.78-4.78v-4.48c0-2.76,2.02-4.78,4.78-4.78s4.76,2.02,4.76,4.78Zm-7.26,.06v4.36c0,1.48,.94,2.6,2.5,2.6s2.48-1.12,2.48-2.6v-4.36c0-1.5-.94-2.6-2.48-2.6s-2.5,1.1-2.5,2.6Z"/></g></g><g><rect class="cls-2" x="337.02" y="457.68" width="250" height="100"/><rect class="cls-3" x="487.02" y="457.68" width="100" height="100"/><g><path d="M353.73,484.68l-3.78-9.42v9.42h-2.28v-13.6h2.76l4.3,10.7,4.32-10.7h2.74v13.6h-2.28v-9.42l-3.78,9.42h-2Z"/><path d="M366.09,480.5c.22,1.42,1.4,2.4,3,2.4,1.3,0,2.58-.48,3.44-1.08v2.18c-.84,.48-2.12,.9-3.6,.9-2.9,0-5.06-2.12-5.06-5.14s2.1-5.12,4.94-5.12,4.68,2.14,4.68,4.74c0,.38-.06,.84-.14,1.12h-7.26Zm-.02-1.7h5.3c-.04-1.38-1.14-2.32-2.58-2.32s-2.58,1.04-2.72,2.32Z"/><path d="M375.64,475.25c.72-.34,1.76-.62,2.82-.62,2.44,0,4.02,1.18,4.02,3.96v6.08h-2.2v-.9c-.5,.66-1.36,1.12-2.4,1.12-2.16,0-3.34-1.52-3.34-3.24s1.38-3.22,3.38-3.22c.96,0,1.86,.42,2.36,.94v-.82c0-1.4-.96-1.96-2.06-1.96-.9,0-1.82,.3-2.58,.78v-2.12Zm2.84,7.98c.98,0,1.78-.7,1.78-1.58s-.8-1.6-1.78-1.6-1.76,.72-1.76,1.6,.8,1.58,1.76,1.58Z"/><path d="M385.58,484.68v-7.96h-1.66v-1.88h1.78v-2.3l2.08-.48v2.78h1.78v1.88h-1.78v7.96h-2.2Z"/><path d="M393.32,484.68h-2.2v-13.8h2.2v13.8Z"/><path d="M400.37,474.63c2.88,0,5.12,2.22,5.12,5.12s-2.24,5.14-5.12,5.14-5.12-2.26-5.12-5.14,2.22-5.12,5.12-5.12Zm0,8.1c1.66,0,2.88-1.34,2.88-2.98s-1.22-2.98-2.88-2.98-2.9,1.34-2.9,2.98,1.26,2.98,2.9,2.98Z"/><path d="M407.74,475.25c.72-.34,1.76-.62,2.82-.62,2.44,0,4.02,1.18,4.02,3.96v6.08h-2.2v-.9c-.5,.66-1.36,1.12-2.4,1.12-2.16,0-3.34-1.52-3.34-3.24s1.38-3.22,3.38-3.22c.96,0,1.86,.42,2.36,.94v-.82c0-1.4-.96-1.96-2.06-1.96-.9,0-1.82,.3-2.58,.78v-2.12Zm2.84,7.98c.98,0,1.78-.7,1.78-1.58s-.8-1.6-1.78-1.6-1.76,.72-1.76,1.6,.8,1.58,1.76,1.58Z"/><path d="M422.03,476.71h-2.18v7.96h-2.2v-7.96h-1.46v-1.88h1.46v-.86c0-2.14,1.34-3.3,3.38-3.3,.34,0,.86,.08,1.08,.14v2.22c-.2-.1-.64-.22-1-.22-.82,0-1.26,.52-1.26,1.28v.74h2.18v1.88Z"/></g><g><path d="M354.33,497.03c-.72-.56-1.86-1.02-2.96-1.02v3.62l1.18,.74c1.74,1.04,2.4,2.14,2.4,3.62,0,1.84-1.18,3.54-3.58,3.84v2.18h-.9v-2.12c-1.36-.02-2.56-.38-3.36-.78v-2.56c.72,.58,1.98,1.18,3.3,1.18h.06v-3.76l-1.34-.82c-1.68-.98-2.22-2.08-2.22-3.52,0-1.64,.96-3.38,3.56-3.72v-1.8h.9v1.74h.04c1.1,0,2.12,.3,2.92,.7v2.48Zm-3.86,2.04v-2.94c-.74,.24-1.12,.76-1.12,1.42,0,.58,.38,1.06,1.12,1.52Zm.9,3.46v3.06c.74-.24,1.14-.82,1.14-1.48,0-.56-.34-1.08-1.14-1.58Z"/><path d="M360.07,496.25l-.36,2.76h.12c2.88,0,4.76,1.62,4.76,4.28,0,3.02-2.08,4.6-4.72,4.6-1.32,0-2.54-.44-3.34-.92v-2.8c.82,.78,1.86,1.44,3.22,1.44s2.48-.94,2.48-2.32c0-1.62-1.4-2.18-3.06-2.18h-1.82l.68-7.04h6.36v2.18h-4.32Z"/><path d="M367.96,504.74c.92,0,1.58,.68,1.58,1.58s-.66,1.56-1.58,1.56-1.54-.66-1.54-1.56,.66-1.58,1.54-1.58Z"/><path d="M381.03,498.63v4.48c0,2.74-2.02,4.78-4.76,4.78s-4.78-2.04-4.78-4.78v-4.48c0-2.76,2.02-4.78,4.78-4.78s4.76,2.02,4.76,4.78Zm-7.26,.06v4.36c0,1.48,.94,2.6,2.5,2.6s2.48-1.12,2.48-2.6v-4.36c0-1.5-.94-2.6-2.48-2.6s-2.5,1.1-2.5,2.6Z"/><path d="M392.77,498.63v4.48c0,2.74-2.02,4.78-4.76,4.78s-4.78-2.04-4.78-4.78v-4.48c0-2.76,2.02-4.78,4.78-4.78s4.76,2.02,4.76,4.78Zm-7.26,.06v4.36c0,1.48,.94,2.6,2.5,2.6s2.48-1.12,2.48-2.6v-4.36c0-1.5-.94-2.6-2.48-2.6s-2.5,1.1-2.5,2.6Z"/></g></g><g><rect class="cls-2" x="614.02" y="457.68" width="250" height="100"/><rect class="cls-3" x="764.02" y="457.68" width="100" height="100"/><g><path d="M624.66,471.07h4.32c2.58,0,4.38,1.56,4.38,4.2s-1.8,4.18-4.38,4.18h-2.04v5.22h-2.28v-13.6Zm4.28,2.18h-2v4.02h2c1.18,0,2.06-.64,2.06-2s-.88-2.02-2.06-2.02Z"/><path d="M639.31,474.63c2.88,0,5.12,2.22,5.12,5.12s-2.24,5.14-5.12,5.14-5.12-2.26-5.12-5.14,2.22-5.12,5.12-5.12Zm0,8.1c1.66,0,2.88-1.34,2.88-2.98s-1.22-2.98-2.88-2.98-2.9,1.34-2.9,2.98,1.26,2.98,2.9,2.98Z"/><path d="M652.61,483.3c-.52,.94-1.42,1.6-2.78,1.6-2.16,0-3.56-1.62-3.56-3.8v-6.26h2.2v5.66c0,1.34,.78,2.24,2.06,2.24s2.02-.84,2.08-2.1v-5.8h2.18v9.84h-2.18v-1.38Z"/><path d="M658.13,484.68v-7.96h-1.66v-1.88h1.78v-2.3l2.08-.48v2.78h1.78v1.88h-1.78v7.96h-2.2Z"/><path d="M664.75,470.47c.78,0,1.34,.62,1.34,1.36s-.56,1.36-1.34,1.36-1.36-.6-1.36-1.36,.58-1.36,1.36-1.36Zm1.1,14.2h-2.2v-9.84h2.2v9.84Z"/><path d="M670.57,476.23c.52-.96,1.44-1.6,2.76-1.6,2.18,0,3.58,1.6,3.58,3.8v6.24h-2.2v-5.68c0-1.32-.78-2.22-2.08-2.22s-2.02,.84-2.06,2.1v5.8h-2.2v-9.84h2.2v1.4Z"/><path d="M680.95,480.5c.22,1.42,1.4,2.4,3,2.4,1.3,0,2.58-.48,3.44-1.08v2.18c-.84,.48-2.12,.9-3.6,.9-2.9,0-5.06-2.12-5.06-5.14s2.1-5.12,4.94-5.12,4.68,2.14,4.68,4.74c0,.38-.06,.84-.14,1.12h-7.26Zm-.02-1.7h5.3c-.04-1.38-1.14-2.32-2.58-2.32s-2.58,1.04-2.72,2.32Z"/></g><g><path d="M631.33,497.03c-.72-.56-1.86-1.02-2.96-1.02v3.62l1.18,.74c1.74,1.04,2.4,2.14,2.4,3.62,0,1.84-1.18,3.54-3.58,3.84v2.18h-.9v-2.12c-1.36-.02-2.56-.38-3.36-.78v-2.56c.72,.58,1.98,1.18,3.3,1.18h.06v-3.76l-1.34-.82c-1.68-.98-2.22-2.08-2.22-3.52,0-1.64,.96-3.38,3.56-3.72v-1.8h.9v1.74h.04c1.1,0,2.12,.3,2.92,.7v2.48Zm-3.86,2.04v-2.94c-.74,.24-1.12,.76-1.12,1.42,0,.58,.38,1.06,1.12,1.52Zm.9,3.46v3.06c.74-.24,1.14-.82,1.14-1.48,0-.56-.34-1.08-1.14-1.58Z"/><path d="M637.07,496.25l-.36,2.76h.12c2.88,0,4.76,1.62,4.76,4.28,0,3.02-2.08,4.6-4.72,4.6-1.32,0-2.54-.44-3.34-.92v-2.8c.82,.78,1.86,1.44,3.22,1.44s2.48-.94,2.48-2.32c0-1.62-1.4-2.18-3.06-2.18h-1.82l.68-7.04h6.36v2.18h-4.32Z"/><path d="M644.96,504.74c.92,0,1.58,.68,1.58,1.58s-.66,1.56-1.58,1.56-1.54-.66-1.54-1.56,.66-1.58,1.54-1.58Z"/><path d="M658.03,498.63v4.48c0,2.74-2.02,4.78-4.76,4.78s-4.78-2.04-4.78-4.78v-4.48c0-2.76,2.02-4.78,4.78-4.78s4.76,2.02,4.76,4.78Zm-7.26,.06v4.36c0,1.48,.94,2.6,2.5,2.6s2.48-1.12,2.48-2.6v-4.36c0-1.5-.94-2.6-2.48-2.6s-2.5,1.1-2.5,2.6Z"/><path d="M669.77,498.63v4.48c0,2.74-2.02,4.78-4.76,4.78s-4.78-2.04-4.78-4.78v-4.48c0-2.76,2.02-4.78,4.78-4.78s4.76,2.02,4.76,4.78Zm-7.26,.06v4.36c0,1.48,.94,2.6,2.5,2.6s2.48-1.12,2.48-2.6v-4.36c0-1.5-.94-2.6-2.48-2.6s-2.5,1.1-2.5,2.6Z"/></g></g><g><rect class="cls-2" x="337.02" y="584.68" width="250" height="100"/><rect class="cls-3" x="487.02" y="584.68" width="100" height="100"/><g><path d="M349.95,606.47v5.2h-2.28v-13.6h7.52v2.18h-5.24v4.04h4.84v2.18h-4.84Z"/><path d="M359.19,603.03c.46-.82,1.26-1.4,2.42-1.4,.26,0,.58,.02,.82,.06v2.34c-.36-.16-.82-.26-1.32-.26-1.2,0-1.88,.84-1.92,2.1v5.8h-2.2v-9.84h2.2v1.2Z"/><path d="M370.27,610.3c-.52,.94-1.42,1.6-2.78,1.6-2.16,0-3.56-1.62-3.56-3.8v-6.26h2.2v5.66c0,1.34,.78,2.24,2.06,2.24s2.02-.84,2.08-2.1v-5.8h2.18v9.84h-2.18v-1.38Z"/><path d="M376.11,597.47c.78,0,1.34,.62,1.34,1.36s-.56,1.36-1.34,1.36-1.36-.6-1.36-1.36,.58-1.36,1.36-1.36Zm1.1,14.2h-2.2v-9.84h2.2v9.84Z"/><path d="M380.51,611.68v-7.96h-1.66v-1.88h1.78v-2.3l2.08-.48v2.78h1.78v1.88h-1.78v7.96h-2.2Z"/><path d="M400.21,611.06c-.96,.52-2.1,.84-3.32,.84-3.98,0-7-3.04-7-7.02s3.02-7.02,7-7.02c1.22,0,2.36,.32,3.32,.84v2.64c-.82-.72-2-1.2-3.32-1.2-2.66,0-4.66,2.1-4.66,4.74s2,4.74,4.66,4.74c1.32,0,2.52-.48,3.32-1.18v2.62Z"/><path d="M408.55,610.3c-.52,.94-1.42,1.6-2.78,1.6-2.16,0-3.56-1.62-3.56-3.8v-6.26h2.2v5.66c0,1.34,.78,2.24,2.06,2.24s2.02-.84,2.08-2.1v-5.8h2.18v9.84h-2.18v-1.38Z"/><path d="M415.49,603.55c.68-1.24,1.88-1.92,3.36-1.92,2.78,0,4.78,2.22,4.78,5.12s-2,5.14-4.78,5.14c-1.48,0-2.68-.7-3.36-1.82v5.7h-2.2v-13.94h2.2v1.72Zm2.94,6.18c1.68,0,2.92-1.36,2.92-2.98s-1.24-2.96-2.92-2.96-2.94,1.32-2.94,2.96,1.24,2.98,2.94,2.98Z"/></g><g><path d="M354.33,624.03c-.72-.56-1.86-1.02-2.96-1.02v3.62l1.18,.74c1.74,1.04,2.4,2.14,2.4,3.62,0,1.84-1.18,3.54-3.58,3.84v2.18h-.9v-2.12c-1.36-.02-2.56-.38-3.36-.78v-2.56c.72,.58,1.98,1.18,3.3,1.18h.06v-3.76l-1.34-.82c-1.68-.98-2.22-2.08-2.22-3.52,0-1.64,.96-3.38,3.56-3.72v-1.8h.9v1.74h.04c1.1,0,2.12,.3,2.92,.7v2.48Zm-3.86,2.04v-2.94c-.74,.24-1.12,.76-1.12,1.42,0,.58,.38,1.06,1.12,1.52Zm.9,3.46v3.06c.74-.24,1.14-.82,1.14-1.48,0-.56-.34-1.08-1.14-1.58Z"/><path d="M360.07,623.25l-.36,2.76h.12c2.88,0,4.76,1.62,4.76,4.28,0,3.02-2.08,4.6-4.72,4.6-1.32,0-2.54-.44-3.34-.92v-2.8c.82,.78,1.86,1.44,3.22,1.44s2.48-.94,2.48-2.32c0-1.62-1.4-2.18-3.06-2.18h-1.82l.68-7.04h6.36v2.18h-4.32Z"/><path d="M367.96,631.74c.92,0,1.58,.68,1.58,1.58s-.66,1.56-1.58,1.56-1.54-.66-1.54-1.56,.66-1.58,1.54-1.58Z"/><path d="M381.03,625.63v4.48c0,2.74-2.02,4.78-4.76,4.78s-4.78-2.04-4.78-4.78v-4.48c0-2.76,2.02-4.78,4.78-4.78s4.76,2.02,4.76,4.78Zm-7.26,.06v4.36c0,1.48,.94,2.6,2.5,2.6s2.48-1.12,2.48-2.6v-4.36c0-1.5-.94-2.6-2.48-2.6s-2.5,1.1-2.5,2.6Z"/><path d="M392.77,625.63v4.48c0,2.74-2.02,4.78-4.76,4.78s-4.78-2.04-4.78-4.78v-4.48c0-2.76,2.02-4.78,4.78-4.78s4.76,2.02,4.76,4.78Zm-7.26,.06v4.36c0,1.48,.94,2.6,2.5,2.6s2.48-1.12,2.48-2.6v-4.36c0-1.5-.94-2.6-2.48-2.6s-2.5,1.1-2.5,2.6Z"/></g></g><g><rect class="cls-2" x="614.02" y="584.68" width="250" height="100"/><rect class="cls-3" x="764.02" y="584.68" width="100" height="100"/><g><path d="M634.11,611.06c-.96,.52-2.1,.84-3.32,.84-3.98,0-7-3.04-7-7.02s3.02-7.02,7-7.02c1.22,0,2.36,.32,3.32,.84v2.64c-.82-.72-2-1.2-3.32-1.2-2.66,0-4.66,2.1-4.66,4.74s2,4.74,4.66,4.74c1.32,0,2.52-.48,3.32-1.18v2.62Z"/><path d="M636.64,602.25c.72-.34,1.76-.62,2.82-.62,2.44,0,4.02,1.18,4.02,3.96v6.08h-2.2v-.9c-.5,.66-1.36,1.12-2.4,1.12-2.16,0-3.34-1.52-3.34-3.24s1.38-3.22,3.38-3.22c.96,0,1.86,.42,2.36,.94v-.82c0-1.4-.96-1.96-2.06-1.96-.9,0-1.82,.3-2.58,.78v-2.12Zm2.84,7.98c.98,0,1.78-.7,1.78-1.58s-.8-1.6-1.78-1.6-1.76,.72-1.76,1.6,.8,1.58,1.76,1.58Z"/><path d="M647.52,607.5c.22,1.42,1.4,2.4,3,2.4,1.3,0,2.58-.48,3.44-1.08v2.18c-.84,.48-2.12,.9-3.6,.9-2.9,0-5.06-2.12-5.06-5.14s2.1-5.12,4.94-5.12,4.68,2.14,4.68,4.74c0,.38-.06,.84-.14,1.12h-7.26Zm-.02-1.7h5.3c-.04-1.38-1.14-2.32-2.58-2.32s-2.58,1.04-2.72,2.32Z"/><path d="M662.05,604.25c-.64-.42-1.46-.7-2.22-.7-.84,0-1.28,.42-1.28,.96,0,.42,.26,.64,.74,.94l1.58,.94c1.22,.74,1.64,1.64,1.64,2.6,0,1.7-1.3,2.9-3.52,2.9-.94,0-1.9-.26-2.56-.56v-2.26c.5,.44,1.54,.92,2.44,.92s1.36-.44,1.36-1.02c0-.4-.22-.72-.84-1.08l-1.68-1c-1.02-.6-1.42-1.48-1.42-2.44,0-1.64,1.24-2.82,3.48-2.82,.82,0,1.66,.18,2.28,.4v2.22Z"/><path d="M664.82,602.25c.72-.34,1.76-.62,2.82-.62,2.44,0,4.02,1.18,4.02,3.96v6.08h-2.2v-.9c-.5,.66-1.36,1.12-2.4,1.12-2.16,0-3.34-1.52-3.34-3.24s1.38-3.22,3.38-3.22c.96,0,1.86,.42,2.36,.94v-.82c0-1.4-.96-1.96-2.06-1.96-.9,0-1.82,.3-2.58,.78v-2.12Zm2.84,7.98c.98,0,1.78-.7,1.78-1.58s-.8-1.6-1.78-1.6-1.76,.72-1.76,1.6,.8,1.58,1.76,1.58Z"/><path d="M676.28,603.03c.46-.82,1.26-1.4,2.42-1.4,.26,0,.58,.02,.82,.06v2.34c-.36-.16-.82-.26-1.32-.26-1.2,0-1.88,.84-1.92,2.1v5.8h-2.2v-9.84h2.2v1.2Z"/><path d="M692.25,601.03c-.72-.56-1.86-1.02-2.96-1.02-1.3,0-2.02,.64-2.02,1.54,0,.58,.38,1.06,1.12,1.52l2.08,1.3c1.74,1.04,2.4,2.14,2.4,3.62,0,2.04-1.44,3.9-4.44,3.9-1.38,0-2.58-.38-3.4-.78v-2.56c.72,.58,1.98,1.18,3.3,1.18s2.1-.72,2.1-1.62c0-.6-.38-1.12-1.26-1.66l-2.12-1.3c-1.68-.98-2.22-2.08-2.22-3.52,0-1.82,1.2-3.78,4.5-3.78,1.1,0,2.12,.3,2.92,.7v2.48Z"/><path d="M695.24,602.25c.72-.34,1.76-.62,2.82-.62,2.44,0,4.02,1.18,4.02,3.96v6.08h-2.2v-.9c-.5,.66-1.36,1.12-2.4,1.12-2.16,0-3.34-1.52-3.34-3.24s1.38-3.22,3.38-3.22c.96,0,1.86,.42,2.36,.94v-.82c0-1.4-.96-1.96-2.06-1.96-.9,0-1.82,.3-2.58,.78v-2.12Zm2.84,7.98c.98,0,1.78-.7,1.78-1.58s-.8-1.6-1.78-1.6-1.76,.72-1.76,1.6,.8,1.58,1.76,1.58Z"/><path d="M706.72,611.68h-2.2v-13.8h2.2v13.8Z"/><path d="M709.6,602.25c.72-.34,1.76-.62,2.82-.62,2.44,0,4.02,1.18,4.02,3.96v6.08h-2.2v-.9c-.5,.66-1.36,1.12-2.4,1.12-2.16,0-3.34-1.52-3.34-3.24s1.38-3.22,3.38-3.22c.96,0,1.86,.42,2.36,.94v-.82c0-1.4-.96-1.96-2.06-1.96-.9,0-1.82,.3-2.58,.78v-2.12Zm2.84,7.98c.98,0,1.78-.7,1.78-1.58s-.8-1.6-1.78-1.6-1.76,.72-1.76,1.6,.8,1.58,1.76,1.58Z"/><path d="M726.42,610.08c-.72,1.12-1.92,1.82-3.38,1.82-2.8,0-4.78-2.26-4.78-5.14s1.98-5.12,4.8-5.12c1.46,0,2.64,.68,3.36,1.8v-5.56h2.18v13.8h-2.18v-1.6Zm-2.94-6.28c-1.68,0-2.94,1.32-2.94,2.96s1.26,2.98,2.94,2.98,2.94-1.36,2.94-2.98-1.26-2.96-2.94-2.96Z"/></g><g><path d="M631.33,624.03c-.72-.56-1.86-1.02-2.96-1.02v3.62l1.18,.74c1.74,1.04,2.4,2.14,2.4,3.62,0,1.84-1.18,3.54-3.58,3.84v2.18h-.9v-2.12c-1.36-.02-2.56-.38-3.36-.78v-2.56c.72,.58,1.98,1.18,3.3,1.18h.06v-3.76l-1.34-.82c-1.68-.98-2.22-2.08-2.22-3.52,0-1.64,.96-3.38,3.56-3.72v-1.8h.9v1.74h.04c1.1,0,2.12,.3,2.92,.7v2.48Zm-3.86,2.04v-2.94c-.74,.24-1.12,.76-1.12,1.42,0,.58,.38,1.06,1.12,1.52Zm.9,3.46v3.06c.74-.24,1.14-.82,1.14-1.48,0-.56-.34-1.08-1.14-1.58Z"/><path d="M637.07,623.25l-.36,2.76h.12c2.88,0,4.76,1.62,4.76,4.28,0,3.02-2.08,4.6-4.72,4.6-1.32,0-2.54-.44-3.34-.92v-2.8c.82,.78,1.86,1.44,3.22,1.44s2.48-.94,2.48-2.32c0-1.62-1.4-2.18-3.06-2.18h-1.82l.68-7.04h6.36v2.18h-4.32Z"/><path d="M644.96,631.74c.92,0,1.58,.68,1.58,1.58s-.66,1.56-1.58,1.56-1.54-.66-1.54-1.56,.66-1.58,1.54-1.58Z"/><path d="M658.03,625.63v4.48c0,2.74-2.02,4.78-4.76,4.78s-4.78-2.04-4.78-4.78v-4.48c0-2.76,2.02-4.78,4.78-4.78s4.76,2.02,4.76,4.78Zm-7.26,.06v4.36c0,1.48,.94,2.6,2.5,2.6s2.48-1.12,2.48-2.6v-4.36c0-1.5-.94-2.6-2.48-2.6s-2.5,1.1-2.5,2.6Z"/><path d="M669.77,625.63v4.48c0,2.74-2.02,4.78-4.76,4.78s-4.78-2.04-4.78-4.78v-4.48c0-2.76,2.02-4.78,4.78-4.78s4.76,2.02,4.76,4.78Zm-7.26,.06v4.36c0,1.48,.94,2.6,2.5,2.6s2.48-1.12,2.48-2.6v-4.36c0-1.5-.94-2.6-2.48-2.6s-2.5,1.1-2.5,2.6Z"/></g></g><g><rect class="cls-2" x="337.02" y="330.68" width="250" height="100"/><rect class="cls-3" x="487.02" y="330.68" width="100" height="100"/><g><path d="M347.66,344.07h4.32c2.58,0,4.38,1.56,4.38,4.2s-1.8,4.18-4.38,4.18h-2.04v5.22h-2.28v-13.6Zm4.28,2.18h-2v4.02h2c1.18,0,2.06-.64,2.06-2s-.88-2.02-2.06-2.02Z"/><path d="M362.31,347.63c2.88,0,5.12,2.22,5.12,5.12s-2.24,5.14-5.12,5.14-5.12-2.26-5.12-5.14,2.22-5.12,5.12-5.12Zm0,8.1c1.66,0,2.88-1.34,2.88-2.98s-1.22-2.98-2.88-2.98-2.9,1.34-2.9,2.98,1.26,2.98,2.9,2.98Z"/><path d="M371.53,349.55c.68-1.24,1.88-1.92,3.36-1.92,2.78,0,4.78,2.22,4.78,5.12s-2,5.14-4.78,5.14c-1.48,0-2.68-.7-3.36-1.82v5.7h-2.2v-13.94h2.2v1.72Zm2.94,6.18c1.68,0,2.92-1.36,2.92-2.98s-1.24-2.96-2.92-2.96-2.94,1.32-2.94,2.96,1.24,2.98,2.94,2.98Z"/><path d="M383.79,349.55c.68-1.24,1.88-1.92,3.36-1.92,2.78,0,4.78,2.22,4.78,5.12s-2,5.14-4.78,5.14c-1.48,0-2.68-.7-3.36-1.82v5.7h-2.2v-13.94h2.2v1.72Zm2.94,6.18c1.68,0,2.92-1.36,2.92-2.98s-1.24-2.96-2.92-2.96-2.94,1.32-2.94,2.96,1.24,2.98,2.94,2.98Z"/><path d="M395.47,353.5c.22,1.42,1.4,2.4,3,2.4,1.3,0,2.58-.48,3.44-1.08v2.18c-.84,.48-2.12,.9-3.6,.9-2.9,0-5.06-2.12-5.06-5.14s2.1-5.12,4.94-5.12,4.68,2.14,4.68,4.74c0,.38-.06,.84-.14,1.12h-7.26Zm-.02-1.7h5.3c-.04-1.38-1.14-2.32-2.58-2.32s-2.58,1.04-2.72,2.32Z"/><path d="M406.87,349.03c.46-.82,1.26-1.4,2.42-1.4,.26,0,.58,.02,.82,.06v2.34c-.36-.16-.82-.26-1.32-.26-1.2,0-1.88,.84-1.92,2.1v5.8h-2.2v-9.84h2.2v1.2Z"/><path d="M416.99,350.25c-.64-.42-1.46-.7-2.22-.7-.84,0-1.28,.42-1.28,.96,0,.42,.26,.64,.74,.94l1.58,.94c1.22,.74,1.64,1.64,1.64,2.6,0,1.7-1.3,2.9-3.52,2.9-.94,0-1.9-.26-2.56-.56v-2.26c.5,.44,1.54,.92,2.44,.92s1.36-.44,1.36-1.02c0-.4-.22-.72-.84-1.08l-1.68-1c-1.02-.6-1.42-1.48-1.42-2.44,0-1.64,1.24-2.82,3.48-2.82,.82,0,1.66,.18,2.28,.4v2.22Z"/></g><g><path d="M354.33,370.03c-.72-.56-1.86-1.02-2.96-1.02v3.62l1.18,.74c1.74,1.04,2.4,2.14,2.4,3.62,0,1.84-1.18,3.54-3.58,3.84v2.18h-.9v-2.12c-1.36-.02-2.56-.38-3.36-.78v-2.56c.72,.58,1.98,1.18,3.3,1.18h.06v-3.76l-1.34-.82c-1.68-.98-2.22-2.08-2.22-3.52,0-1.64,.96-3.38,3.56-3.72v-1.8h.9v1.74h.04c1.1,0,2.12,.3,2.92,.7v2.48Zm-3.86,2.04v-2.94c-.74,.24-1.12,.76-1.12,1.42,0,.58,.38,1.06,1.12,1.52Zm.9,3.46v3.06c.74-.24,1.14-.82,1.14-1.48,0-.56-.34-1.08-1.14-1.58Z"/><path d="M360.07,369.25l-.36,2.76h.12c2.88,0,4.76,1.62,4.76,4.28,0,3.02-2.08,4.6-4.72,4.6-1.32,0-2.54-.44-3.34-.92v-2.8c.82,.78,1.86,1.44,3.22,1.44s2.48-.94,2.48-2.32c0-1.62-1.4-2.18-3.06-2.18h-1.82l.68-7.04h6.36v2.18h-4.32Z"/><path d="M367.96,377.74c.92,0,1.58,.68,1.58,1.58s-.66,1.56-1.58,1.56-1.54-.66-1.54-1.56,.66-1.58,1.54-1.58Z"/><path d="M381.03,371.63v4.48c0,2.74-2.02,4.78-4.76,4.78s-4.78-2.04-4.78-4.78v-4.48c0-2.76,2.02-4.78,4.78-4.78s4.76,2.02,4.76,4.78Zm-7.26,.06v4.36c0,1.48,.94,2.6,2.5,2.6s2.48-1.12,2.48-2.6v-4.36c0-1.5-.94-2.6-2.48-2.6s-2.5,1.1-2.5,2.6Z"/><path d="M392.77,371.63v4.48c0,2.74-2.02,4.78-4.76,4.78s-4.78-2.04-4.78-4.78v-4.48c0-2.76,2.02-4.78,4.78-4.78s4.76,2.02,4.76,4.78Zm-7.26,.06v4.36c0,1.48,.94,2.6,2.5,2.6s2.48-1.12,2.48-2.6v-4.36c0-1.5-.94-2.6-2.48-2.6s-2.5,1.1-2.5,2.6Z"/></g></g><g><rect class="cls-2" x="614.02" y="330.68" width="250" height="100"/><rect class="cls-3" x="764.02" y="330.68" width="100" height="100"/><g><path d="M633.93,351.92h-6.98v5.76h-2.28v-13.6h2.28v5.66h6.98v-5.66h2.28v13.6h-2.28v-5.76Z"/><path d="M645.35,356.3c-.52,.94-1.42,1.6-2.78,1.6-2.16,0-3.56-1.62-3.56-3.8v-6.26h2.2v5.66c0,1.34,.78,2.24,2.06,2.24s2.02-.84,2.08-2.1v-5.8h2.18v9.84h-2.18v-1.38Z"/><path d="M655.41,350.25c-.64-.42-1.46-.7-2.22-.7-.84,0-1.28,.42-1.28,.96,0,.42,.26,.64,.74,.94l1.58,.94c1.22,.74,1.64,1.64,1.64,2.6,0,1.7-1.3,2.9-3.52,2.9-.94,0-1.9-.26-2.56-.56v-2.26c.5,.44,1.54,.92,2.44,.92s1.36-.44,1.36-1.02c0-.4-.22-.72-.84-1.08l-1.68-1c-1.02-.6-1.42-1.48-1.42-2.44,0-1.64,1.24-2.82,3.48-2.82,.82,0,1.66,.18,2.28,.4v2.22Z"/><path d="M660.03,349.23c.54-.96,1.44-1.6,2.76-1.6,2.18,0,3.58,1.6,3.58,3.8v6.24h-2.2v-5.68c0-1.32-.78-2.22-2.06-2.22s-2.04,.84-2.08,2.1v5.8h-2.2v-13.8h2.2v5.36Z"/><path d="M670.99,349.55c.68-1.24,1.88-1.92,3.36-1.92,2.78,0,4.78,2.22,4.78,5.12s-2,5.14-4.78,5.14c-1.48,0-2.68-.7-3.36-1.82v5.7h-2.2v-13.94h2.2v1.72Zm2.94,6.18c1.68,0,2.92-1.36,2.92-2.98s-1.24-2.96-2.92-2.96-2.94,1.32-2.94,2.96,1.24,2.98,2.94,2.98Z"/><path d="M687.33,356.3c-.52,.94-1.42,1.6-2.78,1.6-2.16,0-3.56-1.62-3.56-3.8v-6.26h2.2v5.66c0,1.34,.78,2.24,2.06,2.24s2.02-.84,2.08-2.1v-5.8h2.18v9.84h-2.18v-1.38Z"/><path d="M694.26,349.55c.68-1.24,1.88-1.92,3.36-1.92,2.78,0,4.78,2.22,4.78,5.12s-2,5.14-4.78,5.14c-1.48,0-2.68-.7-3.36-1.82v5.7h-2.2v-13.94h2.2v1.72Zm2.94,6.18c1.68,0,2.92-1.36,2.92-2.98s-1.24-2.96-2.92-2.96-2.94,1.32-2.94,2.96,1.24,2.98,2.94,2.98Z"/><path d="M706.52,349.55c.68-1.24,1.88-1.92,3.36-1.92,2.78,0,4.78,2.22,4.78,5.12s-2,5.14-4.78,5.14c-1.48,0-2.68-.7-3.36-1.82v5.7h-2.2v-13.94h2.2v1.72Zm2.94,6.18c1.68,0,2.92-1.36,2.92-2.98s-1.24-2.96-2.92-2.96-2.94,1.32-2.94,2.96,1.24,2.98,2.94,2.98Z"/><path d="M717.68,343.47c.78,0,1.34,.62,1.34,1.36s-.56,1.36-1.34,1.36-1.36-.6-1.36-1.36,.58-1.36,1.36-1.36Zm1.1,14.2h-2.2v-9.84h2.2v9.84Z"/><path d="M722.92,353.5c.22,1.42,1.4,2.4,3,2.4,1.3,0,2.58-.48,3.44-1.08v2.18c-.84,.48-2.12,.9-3.6,.9-2.9,0-5.06-2.12-5.06-5.14s2.1-5.12,4.94-5.12,4.68,2.14,4.68,4.74c0,.38-.06,.84-.14,1.12h-7.26Zm-.02-1.7h5.3c-.04-1.38-1.14-2.32-2.58-2.32s-2.58,1.04-2.72,2.32Z"/><path d="M737.44,350.25c-.64-.42-1.46-.7-2.22-.7-.84,0-1.28,.42-1.28,.96,0,.42,.26,.64,.74,.94l1.58,.94c1.22,.74,1.64,1.64,1.64,2.6,0,1.7-1.3,2.9-3.52,2.9-.94,0-1.9-.26-2.56-.56v-2.26c.5,.44,1.54,.92,2.44,.92s1.36-.44,1.36-1.02c0-.4-.22-.72-.84-1.08l-1.68-1c-1.02-.6-1.42-1.48-1.42-2.44,0-1.64,1.24-2.82,3.48-2.82,.82,0,1.66,.18,2.28,.4v2.22Z"/></g><g><path d="M631.33,370.03c-.72-.56-1.86-1.02-2.96-1.02v3.62l1.18,.74c1.74,1.04,2.4,2.14,2.4,3.62,0,1.84-1.18,3.54-3.58,3.84v2.18h-.9v-2.12c-1.36-.02-2.56-.38-3.36-.78v-2.56c.72,.58,1.98,1.18,3.3,1.18h.06v-3.76l-1.34-.82c-1.68-.98-2.22-2.08-2.22-3.52,0-1.64,.96-3.38,3.56-3.72v-1.8h.9v1.74h.04c1.1,0,2.12,.3,2.92,.7v2.48Zm-3.86,2.04v-2.94c-.74,.24-1.12,.76-1.12,1.42,0,.58,.38,1.06,1.12,1.52Zm.9,3.46v3.06c.74-.24,1.14-.82,1.14-1.48,0-.56-.34-1.08-1.14-1.58Z"/><path d="M637.07,369.25l-.36,2.76h.12c2.88,0,4.76,1.62,4.76,4.28,0,3.02-2.08,4.6-4.72,4.6-1.32,0-2.54-.44-3.34-.92v-2.8c.82,.78,1.86,1.44,3.22,1.44s2.48-.94,2.48-2.32c0-1.62-1.4-2.18-3.06-2.18h-1.82l.68-7.04h6.36v2.18h-4.32Z"/><path d="M644.96,377.74c.92,0,1.58,.68,1.58,1.58s-.66,1.56-1.58,1.56-1.54-.66-1.54-1.56,.66-1.58,1.54-1.58Z"/><path d="M658.03,371.63v4.48c0,2.74-2.02,4.78-4.76,4.78s-4.78-2.04-4.78-4.78v-4.48c0-2.76,2.02-4.78,4.78-4.78s4.76,2.02,4.76,4.78Zm-7.26,.06v4.36c0,1.48,.94,2.6,2.5,2.6s2.48-1.12,2.48-2.6v-4.36c0-1.5-.94-2.6-2.48-2.6s-2.5,1.1-2.5,2.6Z"/><path d="M669.77,371.63v4.48c0,2.74-2.02,4.78-4.76,4.78s-4.78-2.04-4.78-4.78v-4.48c0-2.76,2.02-4.78,4.78-4.78s4.76,2.02,4.76,4.78Zm-7.26,.06v4.36c0,1.48,.94,2.6,2.5,2.6s2.48-1.12,2.48-2.6v-4.36c0-1.5-.94-2.6-2.48-2.6s-2.5,1.1-2.5,2.6Z"/></g></g><rect class="cls-4" x="905.2" y="203.68" width="268.58" height="481"/><g><rect class="cls-2" x="921.17" y="302.95" width="234.25" height="27.37"/><rect class="cls-2" x="921.17" y="366.32" width="234.25" height="27.37"/><g><path class="cls-1" d="M929.99,292.35c-.72,1.12-1.92,1.82-3.38,1.82-2.8,0-4.78-2.26-4.78-5.14s1.98-5.12,4.8-5.12c1.46,0,2.64,.68,3.36,1.8v-5.56h2.18v13.8h-2.18v-1.6Zm-2.94-6.28c-1.68,0-2.94,1.32-2.94,2.96s1.26,2.98,2.94,2.98,2.94-1.36,2.94-2.98-1.26-2.96-2.94-2.96Z"/><path class="cls-1" d="M935.79,279.75c.78,0,1.34,.62,1.34,1.36s-.56,1.36-1.34,1.36-1.36-.6-1.36-1.36,.58-1.36,1.36-1.36Zm1.1,14.2h-2.2v-9.84h2.2v9.84Z"/><path class="cls-1" d="M944.73,286.53c-.64-.42-1.46-.7-2.22-.7-.84,0-1.28,.42-1.28,.96,0,.42,.26,.64,.74,.94l1.58,.94c1.22,.74,1.64,1.64,1.64,2.6,0,1.7-1.3,2.9-3.52,2.9-.94,0-1.9-.26-2.56-.56v-2.26c.5,.44,1.54,.92,2.44,.92s1.36-.44,1.36-1.02c0-.4-.22-.72-.84-1.08l-1.68-1c-1.02-.6-1.42-1.48-1.42-2.44,0-1.64,1.24-2.82,3.48-2.82,.82,0,1.66,.18,2.28,.4v2.22Z"/><path class="cls-1" d="M949.35,285.51c.54-.96,1.44-1.6,2.76-1.6,2.18,0,3.58,1.6,3.58,3.8v6.24h-2.2v-5.68c0-1.32-.78-2.22-2.06-2.22s-2.04,.84-2.08,2.1v5.8h-2.2v-13.8h2.2v5.36Z"/></g><g><path class="cls-1" d="M924.63,349.2c.68-1.24,1.88-1.92,3.36-1.92,2.78,0,4.78,2.22,4.78,5.12s-2,5.14-4.78,5.14c-1.48,0-2.68-.7-3.36-1.82v5.7h-2.2v-13.94h2.2v1.72Zm2.94,6.18c1.68,0,2.92-1.36,2.92-2.98s-1.24-2.96-2.92-2.96-2.94,1.32-2.94,2.96,1.24,2.98,2.94,2.98Z"/><path class="cls-1" d="M936.89,348.68c.46-.82,1.26-1.4,2.42-1.4,.26,0,.58,.02,.82,.06v2.34c-.36-.16-.82-.26-1.32-.26-1.2,0-1.88,.84-1.92,2.1v5.8h-2.2v-9.84h2.2v1.2Z"/><path class="cls-1" d="M942.79,343.12c.78,0,1.34,.62,1.34,1.36s-.56,1.36-1.34,1.36-1.36-.6-1.36-1.36,.58-1.36,1.36-1.36Zm1.1,14.2h-2.2v-9.84h2.2v9.84Z"/><path class="cls-1" d="M953.35,356.96c-.6,.36-1.58,.58-2.36,.58-3.06,0-5.18-2.26-5.18-5.14s2.12-5.12,5.18-5.12c.78,0,1.76,.2,2.36,.54v2.36c-.56-.42-1.38-.76-2.36-.76-1.68,0-2.94,1.34-2.94,2.98s1.26,2.98,2.94,2.98c.96,0,1.8-.32,2.36-.76v2.34Z"/><path class="cls-1" d="M956.91,353.14c.22,1.42,1.4,2.4,3,2.4,1.3,0,2.58-.48,3.44-1.08v2.18c-.84,.48-2.12,.9-3.6,.9-2.9,0-5.06-2.12-5.06-5.14s2.1-5.12,4.94-5.12,4.68,2.14,4.68,4.74c0,.38-.06,.84-.14,1.12h-7.26Zm-.02-1.7h5.3c-.04-1.38-1.14-2.32-2.58-2.32s-2.58,1.04-2.72,2.32Z"/></g><rect class="cls-2" x="921.17" y="432.42" width="234.25" height="63.37"/><g><path class="cls-1" d="M929.99,421.82c-.72,1.12-1.92,1.82-3.38,1.82-2.8,0-4.78-2.26-4.78-5.14s1.98-5.12,4.8-5.12c1.46,0,2.64,.68,3.36,1.8v-5.56h2.18v13.8h-2.18v-1.6Zm-2.94-6.28c-1.68,0-2.94,1.32-2.94,2.96s1.26,2.98,2.94,2.98,2.94-1.36,2.94-2.98-1.26-2.96-2.94-2.96Z"/><path class="cls-1" d="M936.31,419.24c.22,1.42,1.4,2.4,3,2.4,1.3,0,2.58-.48,3.44-1.08v2.18c-.84,.48-2.12,.9-3.6,.9-2.9,0-5.06-2.12-5.06-5.14s2.1-5.12,4.94-5.12,4.68,2.14,4.68,4.74c0,.38-.06,.84-.14,1.12h-7.26Zm-.02-1.7h5.3c-.04-1.38-1.14-2.32-2.58-2.32s-2.58,1.04-2.72,2.32Z"/><path class="cls-1" d="M950.83,416c-.64-.42-1.46-.7-2.22-.7-.84,0-1.28,.42-1.28,.96,0,.42,.26,.64,.74,.94l1.58,.94c1.22,.74,1.64,1.64,1.64,2.6,0,1.7-1.3,2.9-3.52,2.9-.94,0-1.9-.26-2.56-.56v-2.26c.5,.44,1.54,.92,2.44,.92s1.36-.44,1.36-1.02c0-.4-.22-.72-.84-1.08l-1.68-1c-1.02-.6-1.42-1.48-1.42-2.44,0-1.64,1.24-2.82,3.48-2.82,.82,0,1.66,.18,2.28,.4v2.22Z"/><path class="cls-1" d="M960.19,423.06c-.6,.36-1.58,.58-2.36,.58-3.06,0-5.18-2.26-5.18-5.14s2.12-5.12,5.18-5.12c.78,0,1.76,.2,2.36,.54v2.36c-.56-.42-1.38-.76-2.36-.76-1.68,0-2.94,1.34-2.94,2.98s1.26,2.98,2.94,2.98c.96,0,1.8-.32,2.36-.76v2.34Z"/><path class="cls-1" d="M964.49,414.78c.46-.82,1.26-1.4,2.42-1.4,.26,0,.58,.02,.82,.06v2.34c-.36-.16-.82-.26-1.32-.26-1.2,0-1.88,.84-1.92,2.1v5.8h-2.2v-9.84h2.2v1.2Z"/><path class="cls-1" d="M970.39,409.22c.78,0,1.34,.62,1.34,1.36s-.56,1.36-1.34,1.36-1.36-.6-1.36-1.36,.58-1.36,1.36-1.36Zm1.1,14.2h-2.2v-9.84h2.2v9.84Z"/><path class="cls-1" d="M976.21,415.3c.68-1.24,1.88-1.92,3.36-1.92,2.78,0,4.78,2.22,4.78,5.12s-2,5.14-4.78,5.14c-1.48,0-2.68-.7-3.36-1.82v5.7h-2.2v-13.94h2.2v1.72Zm2.94,6.18c1.68,0,2.92-1.36,2.92-2.98s-1.24-2.96-2.92-2.96-2.94,1.32-2.94,2.96,1.24,2.98,2.94,2.98Z"/><path class="cls-1" d="M986.87,423.42v-7.96h-1.66v-1.88h1.78v-2.3l2.08-.48v2.78h1.78v1.88h-1.78v7.96h-2.2Z"/><path class="cls-1" d="M993.49,409.22c.78,0,1.34,.62,1.34,1.36s-.56,1.36-1.34,1.36-1.36-.6-1.36-1.36,.58-1.36,1.36-1.36Zm1.1,14.2h-2.2v-9.84h2.2v9.84Z"/><path class="cls-1" d="M1001.63,413.38c2.88,0,5.12,2.22,5.12,5.12s-2.24,5.14-5.12,5.14-5.12-2.26-5.12-5.14,2.22-5.12,5.12-5.12Zm0,8.1c1.66,0,2.88-1.34,2.88-2.98s-1.22-2.98-2.88-2.98-2.9,1.34-2.9,2.98,1.26,2.98,2.9,2.98Z"/><path class="cls-1" d="M1010.85,414.98c.52-.96,1.44-1.6,2.76-1.6,2.18,0,3.58,1.6,3.58,3.8v6.24h-2.2v-5.68c0-1.32-.78-2.22-2.08-2.22s-2.02,.84-2.06,2.1v5.8h-2.2v-9.84h2.2v1.4Z"/></g><rect class="cls-2" x="921.17" y="534.52" width="234.25" height="27.37"/><g><path class="cls-1" d="M923.53,511.32c.78,0,1.34,.62,1.34,1.36s-.56,1.36-1.34,1.36-1.36-.6-1.36-1.36,.58-1.36,1.36-1.36Zm1.1,14.2h-2.2v-9.84h2.2v9.84Z"/><path class="cls-1" d="M929.35,516.94c.52-.88,1.38-1.46,2.6-1.46,1.44,0,2.58,.68,3.1,1.9,.48-1.12,1.46-1.9,2.96-1.9,1.94,0,3.44,1.46,3.44,3.64v6.4h-2.2v-5.8c0-1.34-.78-2.1-1.9-2.1s-1.96,.76-1.96,2.1v5.8h-2.2v-5.8c0-1.34-.78-2.1-1.9-2.1s-1.9,.7-1.94,1.96v5.94h-2.2v-9.84h2.2v1.26Z"/><path class="cls-1" d="M944.21,516.1c.72-.34,1.76-.62,2.82-.62,2.44,0,4.02,1.18,4.02,3.96v6.08h-2.2v-.9c-.5,.66-1.36,1.12-2.4,1.12-2.16,0-3.34-1.52-3.34-3.24s1.38-3.22,3.38-3.22c.96,0,1.86,.42,2.36,.94v-.82c0-1.4-.96-1.96-2.06-1.96-.9,0-1.82,.3-2.58,.78v-2.12Zm2.84,7.98c.98,0,1.78-.7,1.78-1.58s-.8-1.6-1.78-1.6-1.76,.72-1.76,1.6,.8,1.58,1.76,1.58Z"/><path class="cls-1" d="M963.19,515.68v8.88c0,3.4-2.06,5.26-5.3,5.26-1.44,0-2.72-.42-3.38-.8v-2.3c.8,.56,2.14,1.04,3.38,1.04,1.8,0,3.1-1.16,3.1-2.94v-1.14c-.7,1.04-1.88,1.76-3.4,1.76-2.72,0-4.7-2.14-4.7-4.96s1.98-5,4.68-5c1.54,0,2.72,.72,3.42,1.8v-1.6h2.2Zm-5.14,1.96c-1.62,0-2.82,1.24-2.82,2.82s1.2,2.84,2.82,2.84,2.82-1.24,2.82-2.84-1.2-2.82-2.82-2.82Z"/><path class="cls-1" d="M967.37,521.34c.22,1.42,1.4,2.4,3,2.4,1.3,0,2.58-.48,3.44-1.08v2.18c-.84,.48-2.12,.9-3.6,.9-2.9,0-5.06-2.12-5.06-5.14s2.1-5.12,4.94-5.12,4.68,2.14,4.68,4.74c0,.38-.06,.84-.14,1.12h-7.26Zm-.02-1.7h5.3c-.04-1.38-1.14-2.32-2.58-2.32s-2.58,1.04-2.72,2.32Z"/><path class="cls-1" d="M987.33,524.14c-.52,.94-1.42,1.6-2.78,1.6-2.16,0-3.56-1.62-3.56-3.8v-6.26h2.2v5.66c0,1.34,.78,2.24,2.06,2.24s2.02-.84,2.08-2.1v-5.8h2.18v9.84h-2.18v-1.38Z"/><path class="cls-1" d="M994.27,516.88c.46-.82,1.26-1.4,2.42-1.4,.26,0,.58,.02,.82,.06v2.34c-.36-.16-.82-.26-1.32-.26-1.2,0-1.88,.84-1.92,2.1v5.8h-2.2v-9.84h2.2v1.2Z"/><path class="cls-1" d="M1001.29,525.52h-2.2v-13.8h2.2v13.8Z"/></g><rect class="cls-2" x="921.17" y="598.27" width="174.82" height="27.37"/><g><path class="cls-1" d="M924.63,580.57c.52-.88,1.38-1.46,2.6-1.46,1.44,0,2.58,.68,3.1,1.9,.48-1.12,1.46-1.9,2.96-1.9,1.94,0,3.44,1.46,3.44,3.64v6.4h-2.2v-5.8c0-1.34-.78-2.1-1.9-2.1s-1.96,.76-1.96,2.1v5.8h-2.2v-5.8c0-1.34-.78-2.1-1.9-2.1s-1.9,.7-1.94,1.96v5.94h-2.2v-9.84h2.2v1.26Z"/><path class="cls-1" d="M940.75,584.97c.22,1.42,1.4,2.4,3,2.4,1.3,0,2.58-.48,3.44-1.08v2.18c-.84,.48-2.12,.9-3.6,.9-2.9,0-5.06-2.12-5.06-5.14s2.1-5.12,4.94-5.12,4.68,2.14,4.68,4.74c0,.38-.06,.84-.14,1.12h-7.26Zm-.02-1.7h5.3c-.04-1.38-1.14-2.32-2.58-2.32s-2.58,1.04-2.72,2.32Z"/><path class="cls-1" d="M950.31,579.73c.72-.34,1.76-.62,2.82-.62,2.44,0,4.02,1.18,4.02,3.96v6.08h-2.2v-.9c-.5,.66-1.36,1.12-2.4,1.12-2.16,0-3.34-1.52-3.34-3.24s1.38-3.22,3.38-3.22c.96,0,1.86,.42,2.36,.94v-.82c0-1.4-.96-1.96-2.06-1.96-.9,0-1.82,.3-2.58,.78v-2.12Zm2.84,7.98c.98,0,1.78-.7,1.78-1.58s-.8-1.6-1.78-1.6-1.76,.72-1.76,1.6,.8,1.58,1.76,1.58Z"/><path class="cls-1" d="M961.79,589.15h-2.2v-13.8h2.2v13.8Z"/></g><g><path d="M930.93,618.2h-2.2v-13.8h2.2v5.56c.68-1.1,1.88-1.8,3.36-1.8,2.8,0,4.78,2.22,4.78,5.12s-1.98,5.14-4.76,5.14c-1.5,0-2.7-.72-3.38-1.82v1.6Zm2.94-1.94c1.68,0,2.92-1.36,2.92-2.98s-1.24-2.96-2.92-2.96-2.94,1.32-2.94,2.96,1.24,2.98,2.94,2.98Z"/><path d="M943.19,609.56c.46-.82,1.26-1.4,2.42-1.4,.26,0,.58,.02,.82,.06v2.34c-.36-.16-.82-.26-1.32-.26-1.2,0-1.88,.84-1.92,2.1v5.8h-2.2v-9.84h2.2v1.2Z"/><path d="M949.33,614.02c.22,1.42,1.4,2.4,3,2.4,1.3,0,2.58-.48,3.44-1.08v2.18c-.84,.48-2.12,.9-3.6,.9-2.9,0-5.06-2.12-5.06-5.14s2.1-5.12,4.94-5.12,4.68,2.14,4.68,4.74c0,.38-.06,.84-.14,1.12h-7.26Zm-.02-1.7h5.3c-.04-1.38-1.14-2.32-2.58-2.32s-2.58,1.04-2.72,2.32Z"/><path d="M958.89,608.78c.72-.34,1.76-.62,2.82-.62,2.44,0,4.02,1.18,4.02,3.96v6.08h-2.2v-.9c-.5,.66-1.36,1.12-2.4,1.12-2.16,0-3.34-1.52-3.34-3.24s1.38-3.22,3.38-3.22c.96,0,1.86,.42,2.36,.94v-.82c0-1.4-.96-1.96-2.06-1.96-.9,0-1.82,.3-2.58,.78v-2.12Zm2.84,7.98c.98,0,1.78-.7,1.78-1.58s-.8-1.6-1.78-1.6-1.76,.72-1.76,1.6,.8,1.58,1.76,1.58Z"/><path d="M968.15,604.4h2.2v8.14l3.32-4.18h2.58l-3.12,3.96,3.18,5.88h-2.56l-2.24-4.34-1.16,1.46v2.88h-2.2v-13.8Z"/><path d="M982.79,610.24h-2.18v7.96h-2.2v-7.96h-1.46v-1.88h1.46v-.86c0-2.14,1.34-3.3,3.38-3.3,.34,0,.86,.08,1.08,.14v2.22c-.2-.1-.64-.22-1-.22-.82,0-1.26,.52-1.26,1.28v.74h2.18v1.88Z"/><path d="M984.56,608.78c.72-.34,1.76-.62,2.82-.62,2.44,0,4.02,1.18,4.02,3.96v6.08h-2.2v-.9c-.5,.66-1.36,1.12-2.4,1.12-2.16,0-3.34-1.52-3.34-3.24s1.38-3.22,3.38-3.22c.96,0,1.86,.42,2.36,.94v-.82c0-1.4-.96-1.96-2.06-1.96-.9,0-1.82,.3-2.58,.78v-2.12Zm2.84,7.98c.98,0,1.78-.7,1.78-1.58s-.8-1.6-1.78-1.6-1.76,.72-1.76,1.6,.8,1.58,1.76,1.58Z"/><path d="M999.15,610.78c-.64-.42-1.46-.7-2.22-.7-.84,0-1.28,.42-1.28,.96,0,.42,.26,.64,.74,.94l1.58,.94c1.22,.74,1.64,1.64,1.64,2.6,0,1.7-1.3,2.9-3.52,2.9-.94,0-1.9-.26-2.56-.56v-2.26c.5,.44,1.54,.92,2.44,.92s1.36-.44,1.36-1.02c0-.4-.22-.72-.84-1.08l-1.68-1c-1.02-.6-1.42-1.48-1.42-2.44,0-1.64,1.24-2.82,3.48-2.82,.82,0,1.66,.18,2.28,.4v2.22Z"/><path d="M1002.3,618.2v-7.96h-1.66v-1.88h1.78v-2.3l2.08-.48v2.78h1.78v1.88h-1.78v7.96h-2.2Z"/></g><polygon class="cls-4" points="1070.46 605.81 1088.38 605.81 1079.42 618.1 1070.46 605.81"/></g><g><rect x="991.23" y="638.99" width="94.12" height="27.37"/><g><path class="cls-2" d="M1001.41,649.5c.72-.34,1.76-.62,2.82-.62,2.44,0,4.02,1.18,4.02,3.96v6.08h-2.2v-.9c-.5,.66-1.36,1.12-2.4,1.12-2.16,0-3.34-1.52-3.34-3.24s1.38-3.22,3.38-3.22c.96,0,1.86,.42,2.36,.94v-.82c0-1.4-.96-1.96-2.06-1.96-.9,0-1.82,.3-2.58,.78v-2.12Zm2.84,7.98c.98,0,1.78-.7,1.78-1.58s-.8-1.6-1.78-1.6-1.76,.72-1.76,1.6,.8,1.58,1.76,1.58Z"/><path class="cls-2" d="M1018.23,657.33c-.72,1.12-1.92,1.82-3.38,1.82-2.8,0-4.78-2.26-4.78-5.14s1.98-5.12,4.8-5.12c1.46,0,2.64,.68,3.36,1.8v-5.56h2.18v13.8h-2.18v-1.6Zm-2.94-6.28c-1.68,0-2.94,1.32-2.94,2.96s1.26,2.98,2.94,2.98,2.94-1.36,2.94-2.98-1.26-2.96-2.94-2.96Z"/><path class="cls-2" d="M1030.49,657.33c-.72,1.12-1.92,1.82-3.38,1.82-2.8,0-4.78-2.26-4.78-5.14s1.98-5.12,4.8-5.12c1.46,0,2.64,.68,3.36,1.8v-5.56h2.18v13.8h-2.18v-1.6Zm-2.94-6.28c-1.68,0-2.94,1.32-2.94,2.96s1.26,2.98,2.94,2.98,2.94-1.36,2.94-2.98-1.26-2.96-2.94-2.96Z"/><path class="cls-2" d="M1040.77,644.72c.78,0,1.34,.62,1.34,1.36s-.56,1.36-1.34,1.36-1.36-.6-1.36-1.36,.58-1.36,1.36-1.36Zm1.1,14.2h-2.2v-9.84h2.2v9.84Z"/><path class="cls-2" d="M1045.17,658.93v-7.96h-1.66v-1.88h1.78v-2.3l2.08-.48v2.78h1.78v1.88h-1.78v7.96h-2.2Z"/><path class="cls-2" d="M1052.15,654.75c.22,1.42,1.4,2.4,3,2.4,1.3,0,2.58-.48,3.44-1.08v2.18c-.84,.48-2.12,.9-3.6,.9-2.9,0-5.06-2.12-5.06-5.14s2.1-5.12,4.94-5.12,4.68,2.14,4.68,4.74c0,.38-.06,.84-.14,1.12h-7.26Zm-.02-1.7h5.3c-.04-1.38-1.14-2.32-2.58-2.32s-2.58,1.04-2.72,2.32Z"/><path class="cls-2" d="M1063.55,650.34c.52-.88,1.38-1.46,2.6-1.46,1.44,0,2.58,.68,3.1,1.9,.48-1.12,1.46-1.9,2.96-1.9,1.94,0,3.44,1.46,3.44,3.64v6.4h-2.2v-5.8c0-1.34-.78-2.1-1.9-2.1s-1.96,.76-1.96,2.1v5.8h-2.2v-5.8c0-1.34-.78-2.1-1.9-2.1s-1.9,.7-1.94,1.96v5.94h-2.2v-9.84h2.2v1.26Z"/></g></g><g><path class="cls-1" d="M928.43,238.21v10.38h-5.1v-17.73l-1.41-2.34v-.33h6l7.56,11.52v-11.52h5.1v20.4h-5.1l-7.05-10.38Z"/><path class="cls-1" d="M947.9,242.5c.36,1.29,1.62,2.04,3.39,2.04s3.54-.39,4.98-1.2v4.59c-1.38,.66-3.3,.99-5.4,.99-4.53,0-7.86-3.12-7.86-7.89,0-4.44,3.18-7.86,7.56-7.86s6.96,3.3,6.96,7.08c0,.75-.12,1.71-.27,2.25h-9.36Zm-.03-3.63h5.01c-.09-.99-.99-1.68-2.34-1.68s-2.43,.78-2.67,1.68Z"/><path class="cls-1" d="M963.16,233.47l2.25,9.18,2.22-7.02-.75-2.16h4.83l2.91,9.18,2.16-9.18h5.07l-4.41,15.12h-5.1l-2.4-7.35-2.34,7.35h-5.13l-4.38-15.12h5.07Z"/><path class="cls-1" d="M989.54,228.19h5.1v20.4h-5.1v-20.4Z"/><path class="cls-1" d="M999.14,248.59v-10.95h-2.04v-4.17h2.34v-3.09l4.59-.99v4.08h2.34v4.17h-2.34v10.95h-4.89Z"/><path class="cls-1" d="M1012.22,242.5c.36,1.29,1.62,2.04,3.39,2.04s3.54-.39,4.98-1.2v4.59c-1.38,.66-3.3,.99-5.4,.99-4.53,0-7.86-3.12-7.86-7.89,0-4.44,3.18-7.86,7.56-7.86s6.96,3.3,6.96,7.08c0,.75-.12,1.71-.27,2.25h-9.36Zm-.03-3.63h5.01c-.09-.99-.99-1.68-2.34-1.68s-2.43,.78-2.67,1.68Z"/><path class="cls-1" d="M1028.9,235.15c.78-1.11,1.95-1.98,3.69-1.98,2.04,0,3.66,.93,4.53,2.55,.75-1.38,2.13-2.55,4.35-2.55,2.88,0,5.16,2.37,5.16,5.52v9.9h-4.89v-8.43c0-1.38-.75-2.22-1.95-2.22s-2.04,.84-2.04,2.22v8.43h-4.89v-8.43c0-1.38-.75-2.22-1.92-2.22s-1.98,.75-2.04,2.01v8.64h-4.89v-15.12h4.89v1.68Z"/></g></g></g></svg>