<?xml version="1.0" encoding="UTF-8"?><svg id="Layer_2" xmlns="http://www.w3.org/2000/svg" viewBox="0 0 300.04 54.82"><defs><style>.cls-1{fill:#387f5f;}</style></defs><g id="Layer_1-2"><g><path class="cls-1" d="M43.22,45.77c0,2.28-3.49,6.31-10.4,6.31-3.15,0-6.04-1.48-7.85-4.23-2.42,2.01-6.78,4.5-12.62,4.5-7.72,0-12.35-4.36-12.35-10.6s5.03-11.14,14.43-11.14c3.15,0,5.64,.4,7.32,.87l-.07-.67c-.6-4.36-3.22-6.58-6.58-6.58-2.95,0-5.17,.87-7.05,1.68-1.21,.54-2.35,1.14-3.22,1.14-.94,0-2.01-.8-2.01-2.21,0-1.68,1.68-3.36,2.89-4.3,3.02-2.35,7.45-3.96,13.56-3.96,8.19,0,14.03,3.16,15.1,11.14l1.48,10.81c.54,3.96,2.08,4.9,5.97,5.64,.74,.13,1.41,.67,1.41,1.61Zm-19.8-2.28l-1.01-7.18c-.81-.2-1.95-.34-3.36-.34-3.22,0-5.77,1.21-5.77,4.3s2.22,4.9,4.97,4.9c2.01,0,4.03-.87,5.17-1.68Z"/><path class="cls-1" d="M82.82,19.53c0,2.82-3.15,1.81-5.24,6.78l-9.4,22.22c-.87,2.01-1.48,3.69-6.91,3.69s-6.04-1.41-7.05-3.69l-9.53-22.22c-2.22-5.17-5.17-3.96-5.17-6.78,0-1.34,1.14-2.15,2.55-2.15,1.74,0,4.09,.2,8.32,.2s6.17-.2,8.19-.2c2.15,0,3.15,.87,3.15,2.15,0,2.68-2.89,2.15-2.89,5.23,0,1.34,.4,2.55,1.14,4.43l4.56,12.08,4.63-12.08c.81-2.15,1.21-3.36,1.21-4.56,0-2.62-3.02-2.42-3.02-5.1,0-1.28,.94-2.15,3.09-2.15,1.41,0,3.02,.2,4.83,.2,1.68,0,3.76-.2,4.97-.2,1.48,0,2.55,.87,2.55,2.15Z"/><path class="cls-1" d="M82.35,35.17c0-10.94,9.06-19.06,22.15-19.06s20.4,8.05,20.4,17.92c0,11.21-9.46,18.99-22.08,18.99s-20.47-8.05-20.47-17.85Zm28.46,1.88c0-5.64-2.95-14.77-8.52-14.77-3.89,0-5.84,3.15-5.84,9.87,0,5.5,2.89,14.7,8.52,14.7,3.96,0,5.84-3.16,5.84-9.8Z"/><path class="cls-1" d="M127.85,35.3c0-11.88,9.67-19.13,19.8-19.13,8.72,0,15.3,5.44,15.3,9.4,0,1.81-1.34,4.23-5.5,6.98-1.28,.87-2.01,1.01-2.62,1.01-1.48,0-2.35-1.14-2.62-2.42-.74-3.69-1.68-9.87-5.97-9.87-3.15,0-4.97,3.29-4.97,8.52,0,9.46,5.97,14.63,11.54,14.63,4.09,0,6.71-2.08,8.66-3.49,.74-.54,1.14-.74,1.68-.74,1.07,0,1.68,1.01,1.68,1.81,0,.6-.2,1.27-.54,2.08-1.61,3.69-7.25,8.93-17.38,8.93-10.87,0-19.06-6.85-19.06-17.72Z"/><path class="cls-1" d="M209.73,45.77c0,2.28-3.49,6.31-10.4,6.31-3.15,0-6.04-1.48-7.85-4.23-2.42,2.01-6.78,4.5-12.62,4.5-7.72,0-12.35-4.36-12.35-10.6s5.03-11.14,14.43-11.14c3.15,0,5.64,.4,7.32,.87l-.07-.67c-.6-4.36-3.22-6.58-6.58-6.58-2.95,0-5.17,.87-7.05,1.68-1.21,.54-2.35,1.14-3.22,1.14-.94,0-2.01-.8-2.01-2.21,0-1.68,1.68-3.36,2.89-4.3,3.02-2.35,7.45-3.96,13.56-3.96,8.19,0,14.03,3.16,15.1,11.14l1.48,10.81c.54,3.96,2.08,4.9,5.97,5.64,.74,.13,1.41,.67,1.41,1.61Zm-19.8-2.28l-1.01-7.18c-.81-.2-1.95-.34-3.36-.34-3.22,0-5.77,1.21-5.77,4.3s2.22,4.9,4.97,4.9c2.01,0,4.03-.87,5.17-1.68Z"/><path class="cls-1" d="M255.37,45.84c0,2.01-2.01,2.82-8.05,4.83-4.83,1.61-6.04,1.88-6.78,1.88-2.28,0-2.55-2.22-2.55-3.96v-2.62c-2.55,3.76-6.64,6.78-12.62,6.78-8.52,0-15.24-6.44-15.24-17.45s8.12-18.86,18.73-18.86c3.83,0,6.85,1.01,9.13,2.75v-5.91c0-4.36-5.03-2.55-5.03-6.04,0-1.74,2.08-2.68,8.39-5.17,5.3-2.08,6.24-2.08,7.11-2.08,2.08,0,2.55,1.81,2.55,3.83V39.6c0,4.36,4.36,3.29,4.36,6.24Zm-17.38-10.67v-.94c0-6.17-3.15-11.61-7.92-11.61-3.42,0-6.11,2.88-6.11,9.06,0,7.38,3.69,12.28,7.72,12.28s6.31-3.83,6.31-8.79Z"/><path class="cls-1" d="M300.04,33.14c0,14-9.51,21.68-21.23,21.68s-21.23-7.69-21.23-21.68c0-21.6,11.91-33.14,21.23-33.14s21.23,11.54,21.23,33.14Z"/><circle cx="278.81" cy="31.72" r="9.1"/></g></g></svg>