<?xml version="1.0" encoding="UTF-8"?><svg id="Layer_2" xmlns="http://www.w3.org/2000/svg" viewBox="0 0 1136.88 633.19"><defs><style>.cls-1{letter-spacing:.1em;}.cls-2{letter-spacing:.1em;}.cls-3{letter-spacing:.03em;}.cls-4{letter-spacing:.02em;}.cls-5{letter-spacing:.09em;}.cls-6{letter-spacing:.09em;}.cls-7{fill:#eeeae3;}.cls-8{fill:#fff;}.cls-9{fill:#fffbf7;}.cls-10{fill:#95d8f6;}.cls-11{fill:#d1d1c7;}.cls-12{fill:#231f20;}.cls-13{fill:#145a3c;}.cls-14{fill:#387f5f;}.cls-15{letter-spacing:.08em;}.cls-16{letter-spacing:.09em;}.cls-17{letter-spacing:.09em;}.cls-18{letter-spacing:.09em;}.cls-19{letter-spacing:.07em;}.cls-20{letter-spacing:.11em;}.cls-21{letter-spacing:.06em;}.cls-22{letter-spacing:.06em;}.cls-23{letter-spacing:.09em;}.cls-24{letter-spacing:.09em;}.cls-25{letter-spacing:.09em;}.cls-26{letter-spacing:.09em;}.cls-27{letter-spacing:.09em;}.cls-28{letter-spacing:.08em;}.cls-29{letter-spacing:.1em;}.cls-30{font-family:HossSharp-Heavy, 'Hoss Sharp';font-size:20px;font-weight:800;}.cls-31{letter-spacing:.08em;}.cls-32{letter-spacing:.07em;}.cls-33{letter-spacing:.07em;}</style></defs><g id="Layer_1-2"><g><g><rect class="cls-11" x="504.98" y="408.08" width="322.05" height="225.11" rx="17.2" ry="17.2"/><rect class="cls-11" x="270.93" y="61.9" width="277.25" height="405.44" rx="17.2" ry="17.2"/><path class="cls-11" d="M843.96,233.9h-252.96c-10.58,0-19.15,8.57-19.15,19.15v70.43c0,10.58,8.57,19.15,19.15,19.15h252.96c10.58,0,19.15-8.57,19.15-19.15v-70.43c0-10.58-8.57-19.15-19.15-19.15Z"/><path class="cls-11" d="M843.96,98.16h-252.96c-10.58,0-19.15,8.57-19.15,19.15v70.43c0,10.58,8.57,19.15,19.15,19.15h252.96c10.58,0,19.15-8.57,19.15-19.15V117.31c0-10.58-8.57-19.15-19.15-19.15Z"/><path class="cls-11" d="M373.21,453.6c-11.1,0-21.68,2.22-31.34,6.22-10.01,4.15-19.02,10.22-26.56,17.76-14.82,14.82-23.98,35.29-23.98,57.9s9.17,43.08,23.98,57.9c14.82,14.82,35.29,23.98,57.9,23.98s43.08-9.17,57.9-23.98c14.82-14.82,23.98-35.29,23.98-57.9,0-45.22-36.66-81.88-81.88-81.88Z"/></g><g><path d="M1136.88,345.43c0,125.92-85.52,195.08-191.02,195.08s-191.02-69.17-191.02-195.08c0-194.32,107.11-298.17,191.02-298.17s191.02,103.85,191.02,298.17Z"/><g><path class="cls-13" d="M945.97,523.35c-4.61,0-8.34,3.74-8.34,8.34s3.74,8.34,8.34,8.34,8.34-3.74,8.34-8.34-3.74-8.34-8.34-8.34Z"/><path class="cls-13" d="M945.97,487.81c-4.61,0-8.34,3.74-8.34,8.34s3.74,8.34,8.34,8.34,8.34-3.74,8.34-8.34-3.74-8.34-8.34-8.34Z"/><path class="cls-13" d="M945.97,452.28c-4.61,0-8.34,3.74-8.34,8.34s3.74,8.34,8.34,8.34,8.34-3.74,8.34-8.34-3.74-8.34-8.34-8.34Z"/><path class="cls-13" d="M945.97,416.75c-4.61,0-8.34,3.74-8.34,8.34s3.74,8.34,8.34,8.34,8.34-3.74,8.34-8.34-3.74-8.34-8.34-8.34Z"/><path class="cls-13" d="M945.97,381.22c-4.61,0-8.34,3.74-8.34,8.34s3.74,8.34,8.34,8.34,8.34-3.74,8.34-8.34-3.74-8.34-8.34-8.34Z"/><path class="cls-13" d="M945.97,345.69c-4.61,0-8.34,3.74-8.34,8.34s3.74,8.34,8.34,8.34,8.34-3.74,8.34-8.34-3.74-8.34-8.34-8.34Z"/><path class="cls-13" d="M945.97,310.16c-4.61,0-8.34,3.74-8.34,8.34s3.74,8.34,8.34,8.34,8.34-3.74,8.34-8.34-3.74-8.34-8.34-8.34Z"/><path class="cls-13" d="M945.97,274.62c-4.61,0-8.34,3.74-8.34,8.34s3.74,8.34,8.34,8.34,8.34-3.74,8.34-8.34-3.74-8.34-8.34-8.34Z"/><path class="cls-13" d="M969.66,505.58c-4.61,0-8.34,3.74-8.34,8.34s3.74,8.34,8.34,8.34,8.34-3.74,8.34-8.34-3.74-8.34-8.34-8.34Z"/><path class="cls-13" d="M969.66,470.05c-4.61,0-8.34,3.74-8.34,8.34s3.74,8.34,8.34,8.34,8.34-3.74,8.34-8.34-3.74-8.34-8.34-8.34Z"/><path class="cls-13" d="M969.66,434.52c-4.61,0-8.34,3.74-8.34,8.34s3.74,8.34,8.34,8.34,8.34-3.74,8.34-8.34-3.74-8.34-8.34-8.34Z"/><path class="cls-13" d="M969.66,398.98c-4.61,0-8.34,3.74-8.34,8.34s3.74,8.34,8.34,8.34,8.34-3.74,8.34-8.34-3.74-8.34-8.34-8.34Z"/><path class="cls-13" d="M969.66,363.45c-4.61,0-8.34,3.74-8.34,8.34s3.74,8.34,8.34,8.34,8.34-3.74,8.34-8.34-3.74-8.34-8.34-8.34Z"/><path class="cls-13" d="M969.66,327.92c-4.61,0-8.34,3.74-8.34,8.34s3.74,8.34,8.34,8.34,8.34-3.74,8.34-8.34-3.74-8.34-8.34-8.34Z"/><path class="cls-13" d="M969.66,292.39c-4.61,0-8.34,3.74-8.34,8.34s3.74,8.34,8.34,8.34,8.34-3.74,8.34-8.34-3.74-8.34-8.34-8.34Z"/><path class="cls-13" d="M969.66,256.86c-4.61,0-8.34,3.74-8.34,8.34s3.74,8.34,8.34,8.34,8.34-3.74,8.34-8.34-3.74-8.34-8.34-8.34Z"/><path class="cls-13" d="M993.35,523.35c-4.61,0-8.34,3.74-8.34,8.34,0,1.95,.67,3.74,1.8,5.16,4.96-.91,9.85-1.99,14.66-3.24,.15-.62,.23-1.26,.23-1.92,0-4.61-3.74-8.34-8.34-8.34Z"/><path class="cls-13" d="M993.35,504.5c4.61,0,8.34-3.74,8.34-8.34s-3.74-8.34-8.34-8.34-8.34,3.74-8.34,8.34,3.74,8.34,8.34,8.34Z"/><path class="cls-13" d="M993.35,468.97c4.61,0,8.34-3.74,8.34-8.34s-3.74-8.34-8.34-8.34-8.34,3.74-8.34,8.34,3.74,8.34,8.34,8.34Z"/><path class="cls-13" d="M993.35,433.44c4.61,0,8.34-3.74,8.34-8.34s-3.74-8.34-8.34-8.34-8.34,3.74-8.34,8.34,3.74,8.34,8.34,8.34Z"/><path class="cls-13" d="M993.35,397.91c4.61,0,8.34-3.74,8.34-8.34s-3.74-8.34-8.34-8.34-8.34,3.74-8.34,8.34,3.74,8.34,8.34,8.34Z"/><path class="cls-13" d="M993.35,362.37c4.61,0,8.34-3.74,8.34-8.34s-3.74-8.34-8.34-8.34-8.34,3.74-8.34,8.34,3.74,8.34,8.34,8.34Z"/><path class="cls-13" d="M993.35,326.84c4.61,0,8.34-3.74,8.34-8.34s-3.74-8.34-8.34-8.34-8.34,3.74-8.34,8.34,3.74,8.34,8.34,8.34Z"/><path class="cls-13" d="M993.35,291.31c4.61,0,8.34-3.74,8.34-8.34s-3.74-8.34-8.34-8.34-8.34,3.74-8.34,8.34,3.74,8.34,8.34,8.34Z"/><path class="cls-13" d="M1017.03,522.27c4.61,0,8.34-3.74,8.34-8.34s-3.74-8.34-8.34-8.34-8.34,3.74-8.34,8.34,3.74,8.34,8.34,8.34Z"/><path class="cls-13" d="M1017.03,486.73c4.61,0,8.34-3.74,8.34-8.34s-3.74-8.34-8.34-8.34-8.34,3.74-8.34,8.34,3.74,8.34,8.34,8.34Z"/><path class="cls-13" d="M1017.03,451.2c4.61,0,8.34-3.74,8.34-8.34s-3.74-8.34-8.34-8.34-8.34,3.74-8.34,8.34,3.74,8.34,8.34,8.34Z"/><path class="cls-13" d="M1017.03,415.67c4.61,0,8.34-3.74,8.34-8.34s-3.74-8.34-8.34-8.34-8.34,3.74-8.34,8.34,3.74,8.34,8.34,8.34Z"/><path class="cls-13" d="M1017.03,380.14c4.61,0,8.34-3.74,8.34-8.34s-3.74-8.34-8.34-8.34-8.34,3.74-8.34,8.34,3.74,8.34,8.34,8.34Z"/><path class="cls-13" d="M1017.03,344.61c4.61,0,8.34-3.74,8.34-8.34s-3.74-8.34-8.34-8.34-8.34,3.74-8.34,8.34,3.74,8.34,8.34,8.34Z"/><path class="cls-13" d="M1017.03,309.08c4.61,0,8.34-3.74,8.34-8.34s-3.74-8.34-8.34-8.34-8.34,3.74-8.34,8.34,3.74,8.34,8.34,8.34Z"/><path class="cls-13" d="M1017.03,273.54c4.61,0,8.34-3.74,8.34-8.34s-3.74-8.34-8.34-8.34-8.34,3.74-8.34,8.34,3.74,8.34,8.34,8.34Z"/><path class="cls-13" d="M1040.72,504.5c4.61,0,8.34-3.74,8.34-8.34s-3.74-8.34-8.34-8.34-8.34,3.74-8.34,8.34,3.73,8.34,8.34,8.34Z"/><path class="cls-13" d="M1040.72,468.97c4.61,0,8.34-3.74,8.34-8.34s-3.74-8.34-8.34-8.34-8.34,3.74-8.34,8.34,3.73,8.34,8.34,8.34Z"/><path class="cls-13" d="M1040.72,433.44c4.61,0,8.34-3.74,8.34-8.34s-3.74-8.34-8.34-8.34-8.34,3.74-8.34,8.34,3.73,8.34,8.34,8.34Z"/><path class="cls-13" d="M1040.72,397.91c4.61,0,8.34-3.74,8.34-8.34s-3.74-8.34-8.34-8.34-8.34,3.74-8.34,8.34,3.73,8.34,8.34,8.34Z"/><path class="cls-13" d="M1040.72,362.37c4.61,0,8.34-3.74,8.34-8.34s-3.74-8.34-8.34-8.34-8.34,3.74-8.34,8.34,3.73,8.34,8.34,8.34Z"/><path class="cls-13" d="M1040.72,326.84c4.61,0,8.34-3.74,8.34-8.34s-3.74-8.34-8.34-8.34-8.34,3.74-8.34,8.34,3.73,8.34,8.34,8.34Z"/><path class="cls-13" d="M1040.72,291.31c4.61,0,8.34-3.74,8.34-8.34s-3.74-8.34-8.34-8.34-8.34,3.74-8.34,8.34,3.73,8.34,8.34,8.34Z"/><path class="cls-13" d="M1058.09,508.49c1.18-.79,2.35-1.59,3.51-2.41-1.37,.49-2.58,1.33-3.51,2.41Z"/><path class="cls-13" d="M1064.41,486.73c4.61,0,8.34-3.74,8.34-8.34s-3.74-8.34-8.34-8.34-8.34,3.74-8.34,8.34,3.74,8.34,8.34,8.34Z"/><path class="cls-13" d="M1064.41,451.2c4.61,0,8.34-3.74,8.34-8.34s-3.74-8.34-8.34-8.34-8.34,3.74-8.34,8.34,3.74,8.34,8.34,8.34Z"/><path class="cls-13" d="M1064.41,415.67c4.61,0,8.34-3.74,8.34-8.34s-3.74-8.34-8.34-8.34-8.34,3.74-8.34,8.34,3.74,8.34,8.34,8.34Z"/><path class="cls-13" d="M1064.41,380.14c4.61,0,8.34-3.74,8.34-8.34s-3.74-8.34-8.34-8.34-8.34,3.74-8.34,8.34,3.74,8.34,8.34,8.34Z"/><path class="cls-13" d="M1064.41,344.61c4.61,0,8.34-3.74,8.34-8.34s-3.74-8.34-8.34-8.34-8.34,3.74-8.34,8.34,3.74,8.34,8.34,8.34Z"/><path class="cls-13" d="M1064.41,309.08c4.61,0,8.34-3.74,8.34-8.34s-3.74-8.34-8.34-8.34-8.34,3.74-8.34,8.34,3.74,8.34,8.34,8.34Z"/><path class="cls-13" d="M1064.41,273.54c4.61,0,8.34-3.74,8.34-8.34s-3.74-8.34-8.34-8.34-8.34,3.74-8.34,8.34,3.74,8.34,8.34,8.34Z"/><path class="cls-13" d="M1088.1,468.97c4.61,0,8.34-3.74,8.34-8.34s-3.73-8.34-8.34-8.34-8.34,3.74-8.34,8.34,3.74,8.34,8.34,8.34Z"/><path class="cls-13" d="M1088.1,433.44c4.61,0,8.34-3.74,8.34-8.34s-3.73-8.34-8.34-8.34-8.34,3.74-8.34,8.34,3.74,8.34,8.34,8.34Z"/><path class="cls-13" d="M1088.1,397.91c4.61,0,8.34-3.74,8.34-8.34s-3.73-8.34-8.34-8.34-8.34,3.74-8.34,8.34,3.74,8.34,8.34,8.34Z"/><path class="cls-13" d="M1088.1,362.37c4.61,0,8.34-3.74,8.34-8.34s-3.73-8.34-8.34-8.34-8.34,3.74-8.34,8.34,3.74,8.34,8.34,8.34Z"/><path class="cls-13" d="M1088.1,326.84c4.61,0,8.34-3.74,8.34-8.34s-3.73-8.34-8.34-8.34-8.34,3.74-8.34,8.34,3.74,8.34,8.34,8.34Z"/><path class="cls-13" d="M1088.1,291.31c4.61,0,8.34-3.74,8.34-8.34s-3.73-8.34-8.34-8.34-8.34,3.74-8.34,8.34,3.74,8.34,8.34,8.34Z"/><path class="cls-13" d="M1111.78,434.52c-4.61,0-8.34,3.74-8.34,8.34s3.45,8.04,7.8,8.32c2.49-4.39,4.81-8.93,6.97-13.63-1.53-1.85-3.84-3.03-6.43-3.03Z"/><path class="cls-13" d="M1111.78,415.67c4.61,0,8.34-3.74,8.34-8.34s-3.74-8.34-8.34-8.34-8.34,3.74-8.34,8.34,3.74,8.34,8.34,8.34Z"/><path class="cls-13" d="M1111.78,380.14c4.61,0,8.34-3.74,8.34-8.34s-3.74-8.34-8.34-8.34-8.34,3.74-8.34,8.34,3.74,8.34,8.34,8.34Z"/><path class="cls-13" d="M1111.78,344.61c4.61,0,8.34-3.74,8.34-8.34s-3.74-8.34-8.34-8.34-8.34,3.74-8.34,8.34,3.74,8.34,8.34,8.34Z"/><path class="cls-13" d="M1111.78,309.08c4.61,0,8.34-3.74,8.34-8.34s-3.74-8.34-8.34-8.34-8.34,3.74-8.34,8.34,3.74,8.34,8.34,8.34Z"/><path class="cls-13" d="M1111.78,273.54c4.61,0,8.34-3.74,8.34-8.34s-3.74-8.34-8.34-8.34-8.34,3.74-8.34,8.34,3.74,8.34,8.34,8.34Z"/><path class="cls-13" d="M1127.13,389.56c0,3.21,1.81,5.99,4.46,7.38,1.1-5.09,2.04-10.31,2.8-15.65-4.1,.53-7.26,4.02-7.26,8.27Z"/><path class="cls-13" d="M1127.13,354.03c0,4.61,3.74,8.34,8.34,8.34,.29,0,.59-.02,.87-.05,.34-5.39,.52-10.89,.53-16.51-.46-.08-.92-.13-1.4-.13-4.61,0-8.34,3.74-8.34,8.34Z"/><path class="cls-13" d="M1127.13,318.5c0,4.61,3.74,8.34,8.34,8.34,.36,0,.72-.03,1.07-.08-.2-5.61-.49-11.15-.88-16.6-.06,0-.13,0-.19,0-4.61,0-8.34,3.74-8.34,8.34Z"/><path class="cls-13" d="M1127.13,282.97c0,4.08,2.93,7.47,6.8,8.19-.59-5.32-1.27-10.57-2.03-15.72-2.82,1.34-4.77,4.2-4.77,7.53Z"/><path class="cls-13" d="M945.97,239.09c-4.61,0-8.34,3.74-8.34,8.34s3.74,8.34,8.34,8.34,8.34-3.74,8.34-8.34-3.74-8.34-8.34-8.34Z"/><path class="cls-13" d="M945.97,203.56c-4.61,0-8.34,3.74-8.34,8.34s3.74,8.34,8.34,8.34,8.34-3.74,8.34-8.34-3.74-8.34-8.34-8.34Z"/><path class="cls-13" d="M945.97,168.03c-4.61,0-8.34,3.74-8.34,8.34s3.74,8.34,8.34,8.34,8.34-3.74,8.34-8.34-3.74-8.34-8.34-8.34Z"/><path class="cls-13" d="M945.97,132.5c-4.61,0-8.34,3.74-8.34,8.34s3.74,8.34,8.34,8.34,8.34-3.74,8.34-8.34-3.74-8.34-8.34-8.34Z"/><path class="cls-13" d="M945.97,96.97c-4.61,0-8.34,3.74-8.34,8.34s3.74,8.34,8.34,8.34,8.34-3.74,8.34-8.34-3.74-8.34-8.34-8.34Z"/><path class="cls-13" d="M945.97,61.44c-4.61,0-8.34,3.74-8.34,8.34s3.74,8.34,8.34,8.34,8.34-3.74,8.34-8.34-3.74-8.34-8.34-8.34Z"/><path class="cls-13" d="M969.66,221.33c-4.61,0-8.34,3.74-8.34,8.34s3.74,8.34,8.34,8.34,8.34-3.74,8.34-8.34-3.74-8.34-8.34-8.34Z"/><path class="cls-13" d="M969.66,185.8c-4.61,0-8.34,3.74-8.34,8.34s3.74,8.34,8.34,8.34,8.34-3.74,8.34-8.34-3.74-8.34-8.34-8.34Z"/><path class="cls-13" d="M969.66,150.26c-4.61,0-8.34,3.74-8.34,8.34s3.74,8.34,8.34,8.34,8.34-3.74,8.34-8.34-3.74-8.34-8.34-8.34Z"/><path class="cls-13" d="M969.66,114.73c-4.61,0-8.34,3.74-8.34,8.34s3.74,8.34,8.34,8.34,8.34-3.74,8.34-8.34-3.74-8.34-8.34-8.34Z"/><path class="cls-13" d="M969.66,79.2c-4.61,0-8.34,3.74-8.34,8.34s3.74,8.34,8.34,8.34,8.34-3.74,8.34-8.34-3.74-8.34-8.34-8.34Z"/><path class="cls-13" d="M969.66,60.36c4.59,0,8.31-3.71,8.34-8.3-5.34-1.56-10.65-2.74-15.91-3.54-.49,1.06-.77,2.24-.77,3.49,0,4.61,3.74,8.34,8.34,8.34Z"/><path class="cls-13" d="M993.35,255.78c4.61,0,8.34-3.74,8.34-8.34s-3.74-8.34-8.34-8.34-8.34,3.74-8.34,8.34,3.74,8.34,8.34,8.34Z"/><path class="cls-13" d="M993.35,220.25c4.61,0,8.34-3.74,8.34-8.34s-3.74-8.34-8.34-8.34-8.34,3.74-8.34,8.34,3.74,8.34,8.34,8.34Z"/><path class="cls-13" d="M993.35,184.72c4.61,0,8.34-3.74,8.34-8.34s-3.74-8.34-8.34-8.34-8.34,3.74-8.34,8.34,3.74,8.34,8.34,8.34Z"/><path class="cls-13" d="M993.35,149.18c4.61,0,8.34-3.74,8.34-8.34s-3.74-8.34-8.34-8.34-8.34,3.74-8.34,8.34,3.74,8.34,8.34,8.34Z"/><path class="cls-13" d="M993.35,113.65c4.61,0,8.34-3.74,8.34-8.34s-3.74-8.34-8.34-8.34-8.34,3.74-8.34,8.34,3.74,8.34,8.34,8.34Z"/><path class="cls-13" d="M993.35,78.12c4.61,0,8.34-3.74,8.34-8.34s-3.74-8.34-8.34-8.34-8.34,3.74-8.34,8.34,3.74,8.34,8.34,8.34Z"/><path class="cls-13" d="M1017.03,238.01c4.61,0,8.34-3.74,8.34-8.34s-3.74-8.34-8.34-8.34-8.34,3.74-8.34,8.34,3.74,8.34,8.34,8.34Z"/><path class="cls-13" d="M1017.03,202.48c4.61,0,8.34-3.74,8.34-8.34s-3.74-8.34-8.34-8.34-8.34,3.74-8.34,8.34,3.74,8.34,8.34,8.34Z"/><path class="cls-13" d="M1017.03,166.95c4.61,0,8.34-3.74,8.34-8.34s-3.74-8.34-8.34-8.34-8.34,3.74-8.34,8.34,3.74,8.34,8.34,8.34Z"/><path class="cls-13" d="M1017.03,131.42c4.61,0,8.34-3.74,8.34-8.34s-3.74-8.34-8.34-8.34-8.34,3.74-8.34,8.34,3.74,8.34,8.34,8.34Z"/><path class="cls-13" d="M1017.03,95.89c4.61,0,8.34-3.74,8.34-8.34s-3.74-8.34-8.34-8.34-8.34,3.74-8.34,8.34,3.74,8.34,8.34,8.34Z"/><path class="cls-13" d="M1040.72,255.78c4.61,0,8.34-3.74,8.34-8.34s-3.74-8.34-8.34-8.34-8.34,3.74-8.34,8.34,3.73,8.34,8.34,8.34Z"/><path class="cls-13" d="M1040.72,220.25c4.61,0,8.34-3.74,8.34-8.34s-3.74-8.34-8.34-8.34-8.34,3.74-8.34,8.34,3.73,8.34,8.34,8.34Z"/><path class="cls-13" d="M1040.72,184.72c4.61,0,8.34-3.74,8.34-8.34s-3.74-8.34-8.34-8.34-8.34,3.74-8.34,8.34,3.73,8.34,8.34,8.34Z"/><path class="cls-13" d="M1040.72,149.18c4.61,0,8.34-3.74,8.34-8.34s-3.74-8.34-8.34-8.34-8.34,3.74-8.34,8.34,3.73,8.34,8.34,8.34Z"/><path class="cls-13" d="M1040.72,113.65c4.61,0,8.34-3.74,8.34-8.34s-3.74-8.34-8.34-8.34-8.34,3.74-8.34,8.34,3.73,8.34,8.34,8.34Z"/><path class="cls-13" d="M1064.41,238.01c4.61,0,8.34-3.74,8.34-8.34s-3.74-8.34-8.34-8.34-8.34,3.74-8.34,8.34,3.74,8.34,8.34,8.34Z"/><path class="cls-13" d="M1064.41,202.48c4.61,0,8.34-3.74,8.34-8.34s-3.74-8.34-8.34-8.34-8.34,3.74-8.34,8.34,3.74,8.34,8.34,8.34Z"/><path class="cls-13" d="M1064.41,166.95c4.61,0,8.34-3.74,8.34-8.34s-3.74-8.34-8.34-8.34-8.34,3.74-8.34,8.34,3.74,8.34,8.34,8.34Z"/><path class="cls-13" d="M1056.07,123.08c0,4.61,3.74,8.34,8.34,8.34s8.18-3.59,8.33-8.07c-2.15-2.89-4.33-5.69-6.54-8.42-.58-.13-1.17-.2-1.79-.2-4.61,0-8.34,3.74-8.34,8.34Z"/><path class="cls-13" d="M1088.1,255.78c4.61,0,8.34-3.74,8.34-8.34s-3.73-8.34-8.34-8.34-8.34,3.74-8.34,8.34,3.74,8.34,8.34,8.34Z"/><path class="cls-13" d="M1088.1,220.25c4.61,0,8.34-3.74,8.34-8.34s-3.73-8.34-8.34-8.34-8.34,3.74-8.34,8.34,3.74,8.34,8.34,8.34Z"/><path class="cls-13" d="M1088.1,184.72c4.61,0,8.34-3.74,8.34-8.34s-3.73-8.34-8.34-8.34-8.34,3.74-8.34,8.34,3.74,8.34,8.34,8.34Z"/><path class="cls-13" d="M1088.1,149.18c.52,0,1.02-.05,1.51-.14-2.64-4.56-5.37-8.95-8.17-13.21-1.05,1.4-1.68,3.13-1.68,5.01,0,4.61,3.74,8.34,8.34,8.34Z"/><path class="cls-13" d="M1111.78,238.01c4.61,0,8.34-3.74,8.34-8.34s-3.74-8.34-8.34-8.34-8.34,3.74-8.34,8.34,3.74,8.34,8.34,8.34Z"/><path class="cls-13" d="M1103.44,194.14c0,4.61,3.74,8.34,8.34,8.34,.76,0,1.49-.11,2.19-.3-1.88-5.3-3.86-10.46-5.93-15.49-2.73,1.37-4.61,4.19-4.61,7.45Z"/></g><g><path class="cls-14" d="M945.86,540.52c-105.5,0-191.02-69.17-191.02-195.08,0-194.32,107.11-298.17,191.02-298.17"/><path class="cls-13" d="M945.86,414.53c-45.22,0-81.88-36.66-81.88-81.88s36.66-81.88,81.88-81.88"/></g><g><path class="cls-13" d="M800.84,399.08h-40.24c9.38,41.3,29.73,74.08,57.44,97.63v-80.43c0-9.5-7.7-17.2-17.2-17.2Z"/><path class="cls-13" d="M854.12,314.48v-70.43c0-10.58-8.57-19.15-19.15-19.15h-64.43c-9.04,32.09-14.63,68.38-15.55,108.73h79.97c10.58,0,19.15-8.57,19.15-19.15Z"/><path class="cls-13" d="M854.12,178.75V108.31c0-6.44-3.19-12.13-8.07-15.6-26.47,25.04-50.15,60.24-66.75,105.18h55.67c10.58,0,19.15-8.57,19.15-19.15Z"/></g></g><g><rect class="cls-10" x="477.98" y="381.08" width="322.05" height="225.11" rx="17.2" ry="17.2"/><path class="cls-14" d="M495.18,381.08c-9.5,0-17.2,7.7-17.2,17.2v51.06h35c9.5,0,17.2-7.7,17.2-17.2v-51.06h-35Z"/><polygon class="cls-9" points="782.04 401.58 782.04 396.58 493.48 396.58 493.48 590.69 782.04 590.69 782.04 585.69 498.48 585.69 498.48 559.17 782.04 559.17 782.04 554.17 498.48 554.17 498.48 527.65 782.04 527.65 782.04 522.65 498.48 522.65 498.48 496.13 782.04 496.13 782.04 491.13 498.48 491.13 498.48 464.62 782.04 464.62 782.04 459.62 498.48 459.62 498.48 433.1 782.04 433.1 782.04 428.1 498.48 428.1 498.48 401.58 782.04 401.58"/><path class="cls-11" d="M530.18,401.58v-5h-36.7v52.76h5v-16.24h31.65c.02-.32,.05-.63,.05-.96v-4.04h-31.7v-26.52h31.7Z"/><g><circle class="cls-12" cx="495.98" cy="525.15" r="8.29"/><circle class="cls-12" cx="536.85" cy="493.63" r="8.29"/><circle class="cls-12" cx="577.71" cy="493.63" r="8.29"/><circle class="cls-12" cx="618.58" cy="525.15" r="8.29"/><circle class="cls-12" cx="659.44" cy="556.67" r="8.29"/><circle class="cls-12" cx="700.31" cy="525.15" r="8.29"/><circle class="cls-12" cx="741.17" cy="493.63" r="8.29"/><circle class="cls-12" cx="782.04" cy="493.81" r="8.29"/><polygon class="cls-12" points="659.44 559.83 576.86 496.13 537.7 496.13 497.51 527.13 494.46 523.17 535.99 491.13 578.56 491.13 659.44 553.51 740.32 491.13 782.04 491.13 782.04 496.13 742.02 496.13 659.44 559.83"/></g><g><circle class="cls-14" cx="495.98" cy="556.67" r="8.29"/><circle class="cls-14" cx="536.85" cy="556.67" r="8.29"/><circle class="cls-14" cx="577.71" cy="525.15" r="8.29"/><circle class="cls-14" cx="618.58" cy="525.15" r="8.29"/><circle class="cls-14" cx="659.44" cy="493.63" r="8.29"/><circle class="cls-14" cx="700.31" cy="493.81" r="8.29"/><circle class="cls-14" cx="741.17" cy="462.12" r="8.29"/><circle class="cls-14" cx="782.04" cy="430.6" r="8.29"/><polygon class="cls-14" points="537.7 559.17 495.98 559.17 495.98 554.17 535.99 554.17 576.86 522.65 617.72 522.65 658.59 491.13 699.45 491.31 739.64 460.14 780.51 428.62 783.56 432.58 742.7 464.1 701.16 496.32 660.29 496.14 619.43 527.65 578.56 527.65 537.7 559.17"/></g><rect class="cls-9" x="243.93" y="34.9" width="277.25" height="405.44" rx="17.2" ry="17.2"/><rect class="cls-10" x="270.93" y="61.9" width="135.86" height="36.86"/><g><path class="cls-7" d="M489.18,130.76v24.53h-213.25v-24.53h213.25m5-5h-223.25v34.53h223.25v-34.53h0Z"/><path class="cls-7" d="M489.18,190.83v24.53h-213.25v-24.53h213.25m5-5h-223.25v34.53h223.25v-34.53h0Z"/><path class="cls-7" d="M489.18,310.97v24.53h-213.25v-24.53h213.25m5-5h-223.25v34.53h223.25v-34.53h0Z"/><path class="cls-7" d="M364.06,250.9v24.53h-88.13v-24.53h88.13m5-5h-98.13v34.53h98.13v-34.53h0Z"/><path class="cls-7" d="M489.18,250.9v24.53h-88.13v-24.53h88.13m5-5h-98.13v34.53h98.13v-34.53h0Z"/></g><path class="cls-11" d="M243.93,271.38v148.16c8.32-3.92,16.11-9.31,22.99-16.18,31.98-31.98,31.98-83.82,0-115.8-6.88-6.87-14.67-12.26-22.99-16.18Z"/><rect class="cls-13" x="270.93" y="366.04" width="223.25" height="47.3"/><g><circle class="cls-14" cx="475.75" cy="80.34" r="18.44"/><rect class="cls-7" x="473.25" y="68.14" width="5" height="24.4" transform="translate(82.53 359.92) rotate(-45)"/><rect class="cls-7" x="463.55" y="77.84" width="24.4" height="5" transform="translate(82.54 359.93) rotate(-45)"/></g><g><path class="cls-9" d="M836.12,296.48v-70.43c0-10.58-8.57-19.15-19.15-19.15h-163.37v108.73h163.37c10.58,0,19.15-8.57,19.15-19.15Z"/><path class="cls-10" d="M564.01,315.63h89.58v-108.73h-89.58c-10.58,0-19.15,8.57-19.15,19.15v70.43c0,10.58,8.57,19.15,19.15,19.15Z"/><rect class="cls-11" x="671.59" y="224.9" width="88.29" height="11.88"/><rect class="cls-11" x="671.59" y="285.75" width="115.29" height="11.88"/><rect class="cls-11" x="671.59" y="265.47" width="133.29" height="11.88"/><rect class="cls-11" x="671.59" y="245.18" width="70.29" height="11.88"/><rect class="cls-8" x="581.14" y="242.9" width="36.45" height="36.45" rx="18.23" ry="18.23"/></g><g><path class="cls-9" d="M836.12,160.75V90.31c0-10.58-8.57-19.15-19.15-19.15h-163.37v108.73h163.37c10.58,0,19.15-8.57,19.15-19.15Z"/><path class="cls-10" d="M564.01,179.9h89.58V71.16h-89.58c-10.58,0-19.15,8.57-19.15,19.15v70.43c0,10.58,8.57,19.15,19.15,19.15Z"/><rect class="cls-11" x="671.59" y="89.16" width="106.29" height="11.88"/><rect class="cls-11" x="671.59" y="150.01" width="88.29" height="11.88"/><rect class="cls-11" x="671.59" y="129.73" width="52.29" height="11.88"/><rect class="cls-11" x="671.59" y="109.45" width="97.29" height="11.88"/><rect class="cls-8" x="584.18" y="110.49" width="30.09" height="30.09" transform="translate(86.75 460.48) rotate(-45)"/></g><rect class="cls-10" x="255.45" y="8.14" width="256.2" height="13.25"/><rect class="cls-10" x="556.06" y="44.73" width="270.86" height="13.25"/><rect class="cls-10" x="552.84" y="354.32" width="174.34" height="13.25"/><text class="cls-30" transform="translate(558.81 53.16)"><tspan class="cls-25" x="0" y="0">MAN</tspan><tspan class="cls-32" x="52.18" y="0">A</tspan><tspan class="cls-16" x="67.18" y="0">G</tspan><tspan class="cls-2" x="83.98" y="0">E R</tspan><tspan class="cls-26" x="118.84" y="0">E</tspan><tspan class="cls-31" x="132.4" y="0">S</tspan><tspan class="cls-3" x="146.86" y="0">T</tspan><tspan class="cls-15" x="158.88" y="0">A</tspan><tspan class="cls-2" x="174.14" y="0">U</tspan><tspan class="cls-20" x="190.38" y="0">R</tspan><tspan class="cls-23" x="205.76" y="0">A</tspan><tspan class="cls-5" x="221.3" y="0">N</tspan><tspan class="cls-21" x="237.7" y="0">T</tspan><tspan class="cls-2" x="250.44" y="0">S</tspan></text><text class="cls-30" transform="translate(556.13 363.08)"><tspan class="cls-23" x="0" y="0">V</tspan><tspan class="cls-1" x="15.68" y="0">I</tspan><tspan class="cls-24" x="24.12" y="0">E</tspan><tspan class="cls-2" x="37.7" y="0">W R</tspan><tspan class="cls-27" x="80.84" y="0">E</tspan><tspan class="cls-29" x="94.4" y="0">P</tspan><tspan class="cls-17" x="108.76" y="0">O</tspan><tspan class="cls-28" x="125.22" y="0">R</tspan><tspan class="cls-22" x="140.1" y="0">T</tspan><tspan class="cls-2" x="152.84" y="0">S</tspan></text><text class="cls-30" transform="translate(257.92 16.9)"><tspan class="cls-2" x="0" y="0">UP</tspan><tspan class="cls-33" x="30.52" y="0">D</tspan><tspan class="cls-3" x="45.76" y="0">A</tspan><tspan class="cls-6" x="59.92" y="0">T</tspan><tspan class="cls-1" x="73.24" y="0">E IN</tspan><tspan class="cls-19" x="117.92" y="0">F</tspan><tspan class="cls-17" x="130.72" y="0">O</tspan><tspan class="cls-2" x="147.18" y="0">R</tspan><tspan class="cls-25" x="162.4" y="0">M</tspan><tspan class="cls-4" x="182.56" y="0">A</tspan><tspan class="cls-5" x="196.72" y="0">T</tspan><tspan class="cls-18" x="210.04" y="0">IO</tspan><tspan class="cls-2" x="234.66" y="0">N</tspan></text><g><path class="cls-7" d="M314.87,432.83c-10.01,4.15-19.02,10.22-26.56,17.76l57.9,57.9-31.34-75.66Z"/><path class="cls-9" d="M288.31,450.59c-14.82,14.82-23.98,35.29-23.98,57.9h81.88l-57.9-57.9Z"/><path d="M346.21,426.6h0c-11.1,0-21.68,2.22-31.34,6.22l31.34,75.66v-81.88Z"/><path class="cls-13" d="M428.09,508.49c0-45.22-36.66-81.88-81.88-81.88v81.88l57.9,57.9c14.82-14.82,23.98-35.29,23.98-57.9Z"/><path class="cls-10" d="M264.32,508.49c0,22.61,9.17,43.08,23.98,57.9l57.9-57.9h-81.88Z"/><path class="cls-14" d="M288.31,566.38c14.82,14.82,35.29,23.98,57.9,23.98s43.08-9.17,57.9-23.98l-57.9-57.9-57.9,57.9Z"/></g><path d="M270.93,399.02c8.48-9.79,14.27-21.1,17.34-32.98h-17.34v32.98Z"/><path class="cls-9" d="M270.93,340.5h19.8c-.1-1.67-.26-3.34-.46-5h-14.34v-24.53h7.38c-.79-1.69-1.65-3.35-2.56-5h-9.81v34.53Z"/></g><g><path class="cls-14" d="M191.02,535.33C85.52,535.33,0,466.16,0,340.24,0,145.92,107.11,42.07,191.02,42.07"/><g><circle cx="191.02" cy="327.46" r="81.88"/><g><path class="cls-13" d="M110.24,340.77l67.47,67.47c2.65,.43,5.31,.74,7.98,.91l-76.37-76.37c.17,2.67,.48,5.33,.91,7.98Z"/><path class="cls-13" d="M109.25,323.23l86,86c2.16-.11,4.32-.32,6.47-.6l-91.87-91.87c-.28,2.15-.49,4.31-.6,6.47Z"/><path class="cls-13" d="M113.27,301.79l103.42,103.42c1.74-.57,3.48-1.19,5.19-1.88l-106.72-106.72c-.69,1.71-1.31,3.44-1.88,5.19Z"/><path class="cls-13" d="M118.14,290.12l110.22,110.22c1.54-.79,3.06-1.62,4.56-2.51l-112.26-112.26c-.89,1.5-1.73,3.02-2.51,4.56Z"/><path class="cls-13" d="M128.31,274.83l115.33,115.33c1.27-1.07,2.51-2.18,3.73-3.34l-115.72-115.72c-1.16,1.22-2.27,2.46-3.34,3.73Z"/><path class="cls-13" d="M148.9,257.24l112.35,112.35c.9-1.49,1.74-3,2.53-4.54l-110.34-110.34c-1.53,.79-3.05,1.64-4.54,2.53Z"/><path class="cls-13" d="M272.78,323.13l-77.43-77.43c-2.37-.12-4.75-.14-7.13-.06l84.61,84.61c.08-2.38,.07-4.75-.06-7.13Z"/></g></g></g></g></g></svg>