<?xml version="1.0" encoding="UTF-8"?><svg id="Layer_2" xmlns="http://www.w3.org/2000/svg" viewBox="0 0 1288.57 724.82"><defs><style>.cls-1{fill:#eeeae3;}.cls-2{fill:#fff;}.cls-3{fill:#ffd73b;}.cls-4{fill:#ff7f00;}.cls-5{fill:#a230c6;}.cls-6{fill:#be2627;}.cls-7{fill:#d4445f;}.cls-8{fill:#380088;}.cls-9{fill:#387f5f;}.cls-10{fill:#384be2;}.cls-11{fill:#793ad8;}.cls-12{stroke-width:2px;}.cls-12,.cls-13{fill:none;stroke:#eeeae3;stroke-miterlimit:10;}.cls-13{stroke-width:4px;}</style></defs><g id="Layer_1-2"><g><rect class="cls-1" width="1288.57" height="724.82"/><g><path d="M339.06,117.89h7.59c4.08,0,6.9,2.16,6.9,6.06,0,2.88-1.59,4.53-3.45,5.13,2.64,1.41,3.87,5.07,4.23,9.21h-5.31c-.6-4.11-1.92-7.14-4.35-7.14h-.51v7.14h-5.1v-20.4Zm7.56,4.92h-2.46v3.42h2.46c.99,0,1.68-.6,1.68-1.71s-.69-1.71-1.68-1.71Z"/><path d="M360.27,132.2c.36,1.29,1.62,2.04,3.39,2.04s3.54-.39,4.98-1.2v4.59c-1.38,.66-3.3,.99-5.4,.99-4.53,0-7.86-3.12-7.86-7.89,0-4.44,3.18-7.86,7.56-7.86s6.96,3.3,6.96,7.08c0,.75-.12,1.71-.27,2.25h-9.36Zm-.03-3.63h5.01c-.09-.99-.99-1.68-2.34-1.68s-2.43,.78-2.67,1.68Z"/><path d="M376.95,124.91c.99-1.44,2.4-2.04,4.11-2.04,4.17,0,7.02,3.42,7.02,7.86s-2.85,7.89-7.05,7.89c-1.68,0-3.09-.63-4.08-1.74v7.56h-4.89v-21.27h4.89v1.74Zm3.06,8.91c1.74,0,3-1.44,3-3.09s-1.26-3.06-3-3.06-3.06,1.41-3.06,3.06,1.26,3.09,3.06,3.09Z"/><path d="M397.35,122.87c4.44,0,7.86,3.42,7.86,7.86s-3.42,7.89-7.86,7.89-7.86-3.45-7.86-7.89,3.42-7.86,7.86-7.86Zm0,10.98c1.71,0,2.91-1.44,2.91-3.12s-1.2-3.09-2.91-3.09-2.91,1.41-2.91,3.09,1.23,3.12,2.91,3.12Z"/><path d="M412.32,124.61c.72-.99,1.83-1.74,3.42-1.74,.3,0,.81,.03,1.14,.09v5.16c-.63-.27-1.41-.48-2.4-.48-1.14,0-2.07,.72-2.16,2.01v8.64h-4.89v-15.12h4.89v1.44Z"/><path d="M419.97,138.29v-10.95h-2.04v-4.17h2.34v-3.09l4.59-.99v4.08h2.34v4.17h-2.34v10.95h-4.89Z"/><path d="M431.55,116.15c1.62,0,2.79,1.26,2.79,2.79s-1.17,2.79-2.79,2.79-2.79-1.2-2.79-2.79,1.2-2.79,2.79-2.79Zm2.46,22.14h-4.89v-15.12h4.89v15.12Z"/><path d="M441.96,124.85c.78-1.14,1.95-1.98,3.69-1.98,3.12,0,5.16,2.37,5.16,5.52v9.9h-4.89v-8.46c0-1.35-.78-2.19-1.98-2.19s-1.92,.72-1.98,2.01v8.64h-4.89v-15.12h4.89v1.68Z"/><path d="M469.14,123.17v12.96c0,5.88-3.18,8.61-8.67,8.61-2.07,0-4.02-.54-4.95-1.05v-4.98c1.32,.84,3.3,1.47,4.95,1.47,2.22,0,3.78-1.2,3.78-3.36v-.39c-1.02,1.02-2.46,1.74-4.32,1.74-4.11,0-6.96-3.27-6.96-7.62s2.85-7.68,6.93-7.68c1.89,0,3.33,.72,4.35,1.83v-1.53h4.89Zm-8.07,4.47c-1.65,0-2.88,1.32-2.88,2.88s1.23,2.88,2.88,2.88,2.88-1.29,2.88-2.88-1.2-2.88-2.88-2.88Z"/></g><g><path d="M340.7,172.26h4.36c2.58,0,4.38,1.44,4.38,3.88,0,1.96-1.18,3.08-2.64,3.48,1.68,.82,2.88,3.16,3.28,6.24h-2.36c-.54-3.18-1.98-5.38-3.7-5.38h-1.04v5.38h-2.28v-13.6Zm4.34,2.18h-2.06v3.86h2.06c1.18,0,2.04-.68,2.04-1.92s-.86-1.94-2.04-1.94Z"/><path d="M353.31,181.68c.22,1.42,1.4,2.4,3,2.4,1.3,0,2.58-.48,3.44-1.08v2.18c-.84,.48-2.12,.9-3.6,.9-2.9,0-5.06-2.12-5.06-5.14s2.1-5.12,4.94-5.12,4.68,2.14,4.68,4.74c0,.38-.06,.84-.14,1.12h-7.26Zm-.02-1.7h5.3c-.04-1.38-1.14-2.32-2.58-2.32s-2.58,1.04-2.72,2.32Z"/><path d="M367.83,178.44c-.64-.42-1.46-.7-2.22-.7-.84,0-1.28,.42-1.28,.96,0,.42,.26,.64,.74,.94l1.58,.94c1.22,.74,1.64,1.64,1.64,2.6,0,1.7-1.3,2.9-3.52,2.9-.94,0-1.9-.26-2.56-.56v-2.26c.5,.44,1.54,.92,2.44,.92s1.36-.44,1.36-1.02c0-.4-.22-.72-.84-1.08l-1.68-1c-1.02-.6-1.42-1.48-1.42-2.44,0-1.64,1.24-2.82,3.48-2.82,.82,0,1.66,.18,2.28,.4v2.22Z"/><path d="M370.98,185.86v-7.96h-1.66v-1.88h1.78v-2.3l2.08-.48v2.78h1.78v1.88h-1.78v7.96h-2.2Z"/><path d="M376.78,176.44c.72-.34,1.76-.62,2.82-.62,2.44,0,4.02,1.18,4.02,3.96v6.08h-2.2v-.9c-.5,.66-1.36,1.12-2.4,1.12-2.16,0-3.34-1.52-3.34-3.24s1.38-3.22,3.38-3.22c.96,0,1.86,.42,2.36,.94v-.82c0-1.4-.96-1.96-2.06-1.96-.9,0-1.82,.3-2.58,.78v-2.12Zm2.84,7.98c.98,0,1.78-.7,1.78-1.58s-.8-1.6-1.78-1.6-1.76,.72-1.76,1.6,.8,1.58,1.76,1.58Z"/><path d="M392.32,184.48c-.52,.94-1.42,1.6-2.78,1.6-2.16,0-3.56-1.62-3.56-3.8v-6.26h2.2v5.66c0,1.34,.78,2.24,2.06,2.24s2.02-.84,2.08-2.1v-5.8h2.18v9.84h-2.18v-1.38Z"/><path d="M399.26,177.22c.46-.82,1.26-1.4,2.42-1.4,.26,0,.58,.02,.82,.06v2.34c-.36-.16-.82-.26-1.32-.26-1.2,0-1.88,.84-1.92,2.1v5.8h-2.2v-9.84h2.2v1.2Z"/><path d="M404.2,176.44c.72-.34,1.76-.62,2.82-.62,2.44,0,4.02,1.18,4.02,3.96v6.08h-2.2v-.9c-.5,.66-1.36,1.12-2.4,1.12-2.16,0-3.34-1.52-3.34-3.24s1.38-3.22,3.38-3.22c.96,0,1.86,.42,2.36,.94v-.82c0-1.4-.96-1.96-2.06-1.96-.9,0-1.82,.3-2.58,.78v-2.12Zm2.84,7.98c.98,0,1.78-.7,1.78-1.58s-.8-1.6-1.78-1.6-1.76,.72-1.76,1.6,.8,1.58,1.76,1.58Z"/><path d="M415.66,177.42c.52-.96,1.44-1.6,2.76-1.6,2.18,0,3.58,1.6,3.58,3.8v6.24h-2.2v-5.68c0-1.32-.78-2.22-2.08-2.22s-2.02,.84-2.06,2.1v5.8h-2.2v-9.84h2.2v1.4Z"/><path d="M425.08,185.86v-7.96h-1.66v-1.88h1.78v-2.3l2.08-.48v2.78h1.78v1.88h-1.78v7.96h-2.2Z"/></g><g><path d="M456.79,179.92l-4.46-7.66h2.58l3.02,5.38,3.02-5.38h2.56l-4.44,7.68v5.92h-2.28v-5.94Z"/><path d="M464.79,181.68c.22,1.42,1.4,2.4,3,2.4,1.3,0,2.58-.48,3.44-1.08v2.18c-.84,.48-2.12,.9-3.6,.9-2.9,0-5.06-2.12-5.06-5.14s2.1-5.12,4.94-5.12,4.68,2.14,4.68,4.74c0,.38-.06,.84-.14,1.12h-7.26Zm-.02-1.7h5.3c-.04-1.38-1.14-2.32-2.58-2.32s-2.58,1.04-2.72,2.32Z"/><path d="M474.35,176.44c.72-.34,1.76-.62,2.82-.62,2.44,0,4.02,1.18,4.02,3.96v6.08h-2.2v-.9c-.5,.66-1.36,1.12-2.4,1.12-2.16,0-3.34-1.52-3.34-3.24s1.38-3.22,3.38-3.22c.96,0,1.86,.42,2.36,.94v-.82c0-1.4-.96-1.96-2.06-1.96-.9,0-1.82,.3-2.58,.78v-2.12Zm2.84,7.98c.98,0,1.78-.7,1.78-1.58s-.8-1.6-1.78-1.6-1.76,.72-1.76,1.6,.8,1.58,1.76,1.58Z"/><path d="M485.81,177.22c.46-.82,1.26-1.4,2.42-1.4,.26,0,.58,.02,.82,.06v2.34c-.36-.16-.82-.26-1.32-.26-1.2,0-1.88,.84-1.92,2.1v5.8h-2.2v-9.84h2.2v1.2Z"/></g><g><path d="M516.57,185.86l-3.78-9.42v9.42h-2.28v-13.6h2.76l4.3,10.7,4.32-10.7h2.74v13.6h-2.28v-9.42l-3.78,9.42h-2Z"/><path d="M531.83,175.82c2.88,0,5.12,2.22,5.12,5.12s-2.24,5.14-5.12,5.14-5.12-2.26-5.12-5.14,2.22-5.12,5.12-5.12Zm0,8.1c1.66,0,2.88-1.34,2.88-2.98s-1.22-2.98-2.88-2.98-2.9,1.34-2.9,2.98,1.26,2.98,2.9,2.98Z"/><path d="M541.05,177.42c.52-.96,1.44-1.6,2.76-1.6,2.18,0,3.58,1.6,3.58,3.8v6.24h-2.2v-5.68c0-1.32-.78-2.22-2.08-2.22s-2.02,.84-2.06,2.1v5.8h-2.2v-9.84h2.2v1.4Z"/><path d="M550.47,185.86v-7.96h-1.66v-1.88h1.78v-2.3l2.08-.48v2.78h1.78v1.88h-1.78v7.96h-2.2Z"/><path d="M558.19,177.42c.54-.96,1.44-1.6,2.76-1.6,2.18,0,3.58,1.6,3.58,3.8v6.24h-2.2v-5.68c0-1.32-.78-2.22-2.06-2.22s-2.04,.84-2.08,2.1v5.8h-2.2v-13.8h2.2v5.36Z"/></g><g><path d="M585.2,172.26h4.9c4.1,0,6.7,2.82,6.7,6.8s-2.6,6.8-6.7,6.8h-4.9v-13.6Zm2.28,2.18v9.24h2.6c2.76,0,4.36-1.98,4.36-4.62s-1.6-4.62-4.36-4.62h-2.6Z"/><path d="M599.06,176.44c.72-.34,1.76-.62,2.82-.62,2.44,0,4.02,1.18,4.02,3.96v6.08h-2.2v-.9c-.5,.66-1.36,1.12-2.4,1.12-2.16,0-3.34-1.52-3.34-3.24s1.38-3.22,3.38-3.22c.96,0,1.86,.42,2.36,.94v-.82c0-1.4-.96-1.96-2.06-1.96-.9,0-1.82,.3-2.58,.78v-2.12Zm2.84,7.98c.98,0,1.78-.7,1.78-1.58s-.8-1.6-1.78-1.6-1.76,.72-1.76,1.6,.8,1.58,1.76,1.58Z"/><path d="M610.72,185.1l-3.7-9.08h2.46l2.44,6.32,2.56-6.32h2.48l-5.94,13.94h-2.54l2.24-4.86Z"/></g><rect class="cls-2" x="339.06" y="221.05" width="775.78" height="280.34"/><rect class="cls-9" width="300" height="724.82"/><g><path class="cls-1" d="M20.35,346v-17.68h3.69v14.12h6.37v3.56h-10.06Z"/><path class="cls-1" d="M38.16,332.79c3.8,0,6.73,2.94,6.73,6.73s-2.94,6.76-6.73,6.76-6.73-2.96-6.73-6.76,2.94-6.73,6.73-6.73Zm0,10.04c1.82,0,3.12-1.51,3.12-3.3s-1.3-3.28-3.12-3.28-3.15,1.48-3.15,3.28,1.35,3.3,3.15,3.3Z"/><path class="cls-1" d="M60.08,333.05v11.39c0,4.76-2.7,7.15-7.2,7.15-1.82,0-3.48-.49-4.34-.96v-3.67c1.12,.73,2.83,1.3,4.37,1.3,2.11,0,3.64-1.25,3.64-3.35v-.91c-.88,1.12-2.29,1.9-4.08,1.9-3.56,0-6.08-2.81-6.08-6.53s2.52-6.58,6.06-6.58c1.82,0,3.22,.78,4.11,1.98v-1.72h3.54Zm-6.84,3.2c-1.74,0-3.07,1.4-3.07,3.09s1.33,3.09,3.07,3.09,3.09-1.38,3.09-3.09-1.3-3.09-3.09-3.09Z"/><path class="cls-1" d="M69.07,332.79c3.8,0,6.73,2.94,6.73,6.73s-2.94,6.76-6.73,6.76-6.73-2.96-6.73-6.76,2.94-6.73,6.73-6.73Zm0,10.04c1.82,0,3.12-1.51,3.12-3.3s-1.3-3.28-3.12-3.28-3.15,1.48-3.15,3.28,1.35,3.3,3.15,3.3Z"/><path class="cls-1" d="M85.89,344.39c-.65,1.12-1.77,1.9-3.41,1.9-2.73,0-4.52-2.08-4.52-4.86v-8.37h3.54v7.36c0,1.46,.83,2.42,2.18,2.42s2.13-.88,2.21-2.24v-7.54h3.54v12.95h-3.54v-1.61Z"/><path class="cls-1" d="M93.46,346v-9.93h-1.98v-3.02h2.18v-2.83l3.33-.75v3.59h2.18v3.02h-2.18v9.93h-3.54Z"/></g><g><path class="cls-1" d="M20.35,115.02h6.11c3.46,0,5.85,1.87,5.85,5.15,0,2.52-1.46,3.98-3.2,4.47,2.21,1.14,3.54,4.26,3.95,8.06h-3.82c-.62-3.85-2.13-6.58-4.29-6.58h-.91v6.58h-3.69v-17.68Zm6.11,3.56h-2.42v3.98h2.42c1.17,0,2.05-.7,2.05-1.98s-.88-2-2.05-2Z"/><path class="cls-1" d="M37.72,127.34c.31,1.48,1.61,2.44,3.43,2.44,1.61,0,3.22-.47,4.39-1.22v3.41c-1.14,.6-2.81,1.01-4.68,1.01-3.85,0-6.68-2.73-6.68-6.76,0-3.8,2.73-6.73,6.47-6.73s6.06,2.81,6.06,6.16c0,.55-.1,1.27-.21,1.69h-8.79Zm0-2.68h5.59c-.05-1.33-1.17-2.24-2.68-2.24s-2.73,1.01-2.91,2.24Z"/><path class="cls-1" d="M52.36,121.62c.88-1.43,2.26-2.13,3.98-2.13,3.61,0,6.16,2.94,6.16,6.73s-2.55,6.76-6.19,6.76c-1.69,0-3.07-.73-3.95-1.95v6.99h-3.54v-18.28h3.54v1.87Zm3.25,7.88c1.85,0,3.2-1.51,3.2-3.28s-1.35-3.25-3.2-3.25-3.25,1.48-3.25,3.25,1.38,3.28,3.25,3.28Z"/><path class="cls-1" d="M70.68,119.49c3.8,0,6.73,2.94,6.73,6.73s-2.94,6.76-6.73,6.76-6.73-2.96-6.73-6.76,2.94-6.73,6.73-6.73Zm0,10.04c1.82,0,3.12-1.51,3.12-3.3s-1.3-3.28-3.12-3.28-3.15,1.48-3.15,3.28,1.35,3.3,3.15,3.3Z"/><path class="cls-1" d="M83.17,121.16c.62-.96,1.61-1.66,3.07-1.66,.29,0,.73,.03,1.01,.08v3.77c-.49-.23-1.12-.39-1.9-.39-1.25,0-2.11,.86-2.18,2.24v7.51h-3.54v-12.95h3.54v1.4Z"/><path class="cls-1" d="M90.11,132.7v-9.93h-1.98v-3.02h2.18v-2.83l3.33-.75v3.59h2.18v3.02h-2.18v9.93h-3.54Z"/><path class="cls-1" d="M99.41,113.87c1.22,0,2.08,.94,2.08,2.11s-.86,2.08-2.08,2.08-2.08-.91-2.08-2.08,.88-2.11,2.08-2.11Zm1.77,18.83h-3.54v-12.95h3.54v12.95Z"/><path class="cls-1" d="M107.68,121.39c.7-1.12,1.79-1.9,3.41-1.9,2.78,0,4.58,2.08,4.58,4.86v8.35h-3.56v-7.36c0-1.43-.86-2.39-2.21-2.39s-2.13,.86-2.21,2.24v7.51h-3.54v-12.95h3.54v1.64Z"/><path class="cls-1" d="M131.47,119.75v11.39c0,4.76-2.71,7.15-7.2,7.15-1.82,0-3.48-.49-4.34-.96v-3.67c1.12,.73,2.83,1.3,4.37,1.3,2.11,0,3.64-1.25,3.64-3.35v-.91c-.88,1.12-2.29,1.9-4.08,1.9-3.56,0-6.08-2.81-6.08-6.53s2.52-6.58,6.06-6.58c1.82,0,3.22,.78,4.11,1.98v-1.72h3.54Zm-6.84,3.2c-1.74,0-3.07,1.4-3.07,3.09s1.33,3.09,3.07,3.09,3.09-1.38,3.09-3.09-1.3-3.09-3.09-3.09Z"/></g><g><path class="cls-1" d="M33.66,186.12v11.02c0,4.34-2.63,6.94-6.76,6.94s-6.73-2.6-6.73-6.94v-11.02h3.69v11.34c0,1.79,1.17,3.04,3.04,3.04s3.07-1.25,3.07-3.04v-11.34h3.69Z"/><path class="cls-1" d="M40.26,192.72c.88-1.43,2.26-2.13,3.98-2.13,3.61,0,6.16,2.94,6.16,6.73s-2.55,6.76-6.19,6.76c-1.69,0-3.07-.73-3.95-1.95v6.99h-3.54v-18.28h3.54v1.87Zm3.25,7.88c1.85,0,3.2-1.51,3.2-3.28s-1.35-3.25-3.2-3.25-3.25,1.48-3.25,3.25,1.38,3.28,3.25,3.28Z"/><path class="cls-1" d="M62,202.14c-.91,1.22-2.31,1.95-3.98,1.95-3.67,0-6.14-2.96-6.14-6.76s2.47-6.73,6.16-6.73c1.66,0,3.04,.7,3.95,1.92v-6.66h3.54v17.94h-3.54v-1.66Zm-3.22-8.06c-1.85,0-3.25,1.48-3.25,3.25s1.4,3.28,3.25,3.28,3.22-1.51,3.22-3.28-1.35-3.25-3.22-3.25Z"/><path class="cls-1" d="M69.05,191.35c.94-.39,2.39-.75,3.74-.75,3.48,0,5.51,1.66,5.51,5.43v7.77h-3.54v-.96c-.65,.75-1.64,1.25-2.89,1.25-2.89,0-4.26-2.03-4.26-4.21,0-2.31,1.69-4.16,4.32-4.16,1.09,0,2.18,.39,2.83,.94v-.7c0-1.56-1.04-2.21-2.39-2.21-1.14,0-2.37,.39-3.33,.96v-3.35Zm3.87,10.14c1.01,0,1.79-.7,1.79-1.61s-.78-1.61-1.79-1.61-1.82,.7-1.82,1.61,.81,1.61,1.82,1.61Z"/><path class="cls-1" d="M82.02,203.8v-9.93h-1.98v-3.02h2.18v-2.83l3.33-.75v3.59h2.18v3.02h-2.18v9.93h-3.54Z"/><path class="cls-1" d="M92.21,198.44c.31,1.48,1.61,2.44,3.43,2.44,1.61,0,3.22-.47,4.39-1.22v3.41c-1.14,.6-2.81,1.01-4.68,1.01-3.85,0-6.68-2.73-6.68-6.76,0-3.8,2.73-6.73,6.47-6.73s6.06,2.81,6.06,6.16c0,.55-.1,1.27-.21,1.69h-8.79Zm0-2.68h5.59c-.05-1.33-1.17-2.24-2.68-2.24s-2.73,1.01-2.91,2.24Z"/><path class="cls-1" d="M117.17,203.8l-4.11-11.02v11.02h-3.69v-17.68h4.52l4.91,12.97,4.89-12.97h4.5v17.68h-3.69v-11.02l-4.11,11.02h-3.22Z"/><path class="cls-1" d="M134.18,198.44c.31,1.48,1.61,2.44,3.43,2.44,1.61,0,3.22-.47,4.39-1.22v3.41c-1.14,.6-2.81,1.01-4.68,1.01-3.85,0-6.68-2.73-6.68-6.76,0-3.8,2.73-6.73,6.47-6.73s6.06,2.81,6.06,6.16c0,.55-.1,1.27-.21,1.69h-8.79Zm0-2.68h5.59c-.05-1.33-1.17-2.24-2.68-2.24s-2.73,1.01-2.91,2.24Z"/><path class="cls-1" d="M148.81,192.49c.7-1.12,1.79-1.9,3.41-1.9,2.78,0,4.58,2.08,4.58,4.86v8.35h-3.56v-7.36c0-1.43-.86-2.39-2.21-2.39s-2.13,.86-2.21,2.24v7.51h-3.54v-12.95h3.54v1.64Z"/><path class="cls-1" d="M167.51,202.19c-.65,1.12-1.77,1.9-3.41,1.9-2.73,0-4.52-2.08-4.52-4.86v-8.37h3.54v7.36c0,1.46,.83,2.42,2.18,2.42s2.13-.88,2.21-2.24v-7.54h3.54v12.95h-3.54v-1.61Z"/><path class="cls-1" d="M181.29,194.52c-.81-.49-1.95-.86-2.83-.86s-1.27,.44-1.27,.94c0,.42,.26,.62,.75,.94l1.87,1.09c1.56,.94,2.13,2.16,2.13,3.51,0,2.24-1.66,3.95-4.76,3.95-1.17,0-2.47-.26-3.38-.65v-3.54c.6,.52,2.08,1.14,3.12,1.14,.91,0,1.35-.42,1.35-.96,0-.42-.23-.75-.86-1.12l-2.03-1.17c-1.35-.78-1.87-2.05-1.87-3.33,0-2.29,1.77-3.87,4.81-3.87,.96,0,2.13,.18,2.96,.44v3.48Z"/></g><g><path class="cls-1" d="M28.15,274.9l-4.11-11.03v11.03h-3.69v-17.68h4.52l4.91,12.97,4.89-12.97h4.5v17.68h-3.69v-11.03l-4.11,11.03h-3.22Z"/><path class="cls-1" d="M42.92,262.45c.94-.39,2.39-.75,3.74-.75,3.48,0,5.51,1.66,5.51,5.43v7.78h-3.54v-.96c-.65,.75-1.64,1.25-2.89,1.25-2.89,0-4.26-2.03-4.26-4.21,0-2.31,1.69-4.16,4.32-4.16,1.09,0,2.18,.39,2.83,.94v-.7c0-1.56-1.04-2.21-2.39-2.21-1.14,0-2.37,.39-3.33,.96v-3.35Zm3.87,10.14c1.01,0,1.79-.7,1.79-1.61s-.78-1.61-1.79-1.61-1.82,.7-1.82,1.61,.81,1.61,1.82,1.61Z"/><path class="cls-1" d="M58.54,263.59c.7-1.12,1.79-1.9,3.41-1.9,2.78,0,4.58,2.08,4.58,4.86v8.35h-3.56v-7.36c0-1.43-.86-2.39-2.21-2.39s-2.13,.86-2.21,2.23v7.52h-3.54v-12.95h3.54v1.64Z"/><path class="cls-1" d="M69.9,262.45c.94-.39,2.39-.75,3.74-.75,3.48,0,5.51,1.66,5.51,5.43v7.78h-3.54v-.96c-.65,.75-1.64,1.25-2.89,1.25-2.89,0-4.26-2.03-4.26-4.21,0-2.31,1.69-4.16,4.32-4.16,1.09,0,2.18,.39,2.83,.94v-.7c0-1.56-1.04-2.21-2.39-2.21-1.14,0-2.37,.39-3.33,.96v-3.35Zm3.87,10.14c1.01,0,1.79-.7,1.79-1.61s-.78-1.61-1.79-1.61-1.82,.7-1.82,1.61,.81,1.61,1.82,1.61Z"/><path class="cls-1" d="M94.97,261.95v11.39c0,4.76-2.71,7.15-7.2,7.15-1.82,0-3.48-.49-4.34-.96v-3.67c1.12,.73,2.83,1.3,4.37,1.3,2.11,0,3.64-1.25,3.64-3.35v-.91c-.88,1.12-2.29,1.9-4.08,1.9-3.56,0-6.08-2.81-6.08-6.53s2.52-6.58,6.06-6.58c1.82,0,3.22,.78,4.11,1.98v-1.72h3.54Zm-6.84,3.2c-1.74,0-3.07,1.4-3.07,3.09s1.33,3.09,3.07,3.09,3.09-1.38,3.09-3.09-1.3-3.09-3.09-3.09Z"/><path class="cls-1" d="M100.79,269.54c.31,1.48,1.61,2.45,3.43,2.45,1.61,0,3.22-.47,4.39-1.22v3.41c-1.14,.6-2.81,1.01-4.68,1.01-3.85,0-6.68-2.73-6.68-6.76,0-3.8,2.73-6.73,6.47-6.73s6.06,2.81,6.06,6.16c0,.55-.1,1.27-.21,1.69h-8.79Zm0-2.68h5.59c-.05-1.33-1.17-2.24-2.68-2.24s-2.73,1.01-2.91,2.24Z"/><path class="cls-1" d="M117.95,257.22h6.11c3.46,0,5.85,1.87,5.85,5.15,0,2.52-1.46,3.98-3.2,4.47,2.21,1.14,3.54,4.26,3.95,8.06h-3.82c-.62-3.85-2.13-6.58-4.29-6.58h-.91v6.58h-3.69v-17.68Zm6.11,3.56h-2.42v3.98h2.42c1.17,0,2.05-.7,2.05-1.98s-.88-2-2.05-2Z"/><path class="cls-1" d="M135.32,269.54c.31,1.48,1.61,2.45,3.43,2.45,1.61,0,3.22-.47,4.39-1.22v3.41c-1.14,.6-2.81,1.01-4.68,1.01-3.85,0-6.68-2.73-6.68-6.76,0-3.8,2.73-6.73,6.47-6.73s6.06,2.81,6.06,6.16c0,.55-.1,1.27-.21,1.69h-8.79Zm0-2.68h5.59c-.05-1.33-1.17-2.24-2.68-2.24s-2.73,1.01-2.91,2.24Z"/><path class="cls-1" d="M153.65,265.62c-.81-.49-1.95-.86-2.83-.86s-1.27,.44-1.27,.94c0,.42,.26,.62,.75,.94l1.87,1.09c1.56,.94,2.13,2.16,2.13,3.51,0,2.24-1.66,3.95-4.76,3.95-1.17,0-2.47-.26-3.38-.65v-3.54c.6,.52,2.08,1.14,3.12,1.14,.91,0,1.35-.42,1.35-.96,0-.42-.23-.75-.86-1.12l-2.03-1.17c-1.35-.78-1.87-2.05-1.87-3.33,0-2.29,1.77-3.88,4.81-3.88,.96,0,2.13,.18,2.96,.44v3.48Z"/><path class="cls-1" d="M157.52,274.9v-9.93h-1.98v-3.02h2.18v-2.83l3.33-.75v3.59h2.18v3.02h-2.18v9.93h-3.54Z"/><path class="cls-1" d="M165.45,262.45c.94-.39,2.39-.75,3.74-.75,3.48,0,5.51,1.66,5.51,5.43v7.78h-3.54v-.96c-.65,.75-1.64,1.25-2.89,1.25-2.89,0-4.26-2.03-4.26-4.21,0-2.31,1.69-4.16,4.32-4.16,1.09,0,2.18,.39,2.83,.94v-.7c0-1.56-1.04-2.21-2.39-2.21-1.14,0-2.37,.39-3.33,.96v-3.35Zm3.87,10.14c1.01,0,1.79-.7,1.79-1.61s-.78-1.61-1.79-1.61-1.82,.7-1.82,1.61,.81,1.61,1.82,1.61Z"/><path class="cls-1" d="M185.42,273.29c-.65,1.12-1.77,1.9-3.41,1.9-2.73,0-4.52-2.08-4.52-4.86v-8.37h3.54v7.36c0,1.46,.83,2.42,2.18,2.42s2.13-.88,2.21-2.24v-7.54h3.54v12.95h-3.54v-1.61Z"/><path class="cls-1" d="M195.51,263.36c.62-.96,1.61-1.66,3.07-1.66,.29,0,.73,.03,1.01,.08v3.77c-.49-.23-1.12-.39-1.9-.39-1.25,0-2.11,.86-2.18,2.23v7.52h-3.54v-12.95h3.54v1.4Z"/><path class="cls-1" d="M201.67,262.45c.94-.39,2.39-.75,3.74-.75,3.48,0,5.51,1.66,5.51,5.43v7.78h-3.54v-.96c-.65,.75-1.64,1.25-2.89,1.25-2.89,0-4.26-2.03-4.26-4.21,0-2.31,1.69-4.16,4.32-4.16,1.09,0,2.18,.39,2.83,.94v-.7c0-1.56-1.04-2.21-2.39-2.21-1.14,0-2.37,.39-3.33,.96v-3.35Zm3.87,10.14c1.01,0,1.79-.7,1.79-1.61s-.78-1.61-1.79-1.61-1.82,.7-1.82,1.61,.81,1.61,1.82,1.61Z"/><path class="cls-1" d="M217.3,263.59c.7-1.12,1.79-1.9,3.41-1.9,2.78,0,4.58,2.08,4.58,4.86v8.35h-3.56v-7.36c0-1.43-.86-2.39-2.21-2.39s-2.13,.86-2.21,2.23v7.52h-3.54v-12.95h3.54v1.64Z"/><path class="cls-1" d="M229,274.9v-9.93h-1.98v-3.02h2.18v-2.83l3.33-.75v3.59h2.18v3.02h-2.18v9.93h-3.54Z"/><path class="cls-1" d="M243.76,265.62c-.81-.49-1.95-.86-2.83-.86s-1.27,.44-1.27,.94c0,.42,.26,.62,.75,.94l1.87,1.09c1.56,.94,2.13,2.16,2.13,3.51,0,2.24-1.66,3.95-4.76,3.95-1.17,0-2.47-.26-3.38-.65v-3.54c.6,.52,2.08,1.14,3.12,1.14,.91,0,1.35-.42,1.35-.96,0-.42-.23-.75-.86-1.12l-2.03-1.17c-1.35-.78-1.87-2.05-1.87-3.33,0-2.29,1.77-3.88,4.81-3.88,.96,0,2.13,.18,2.96,.44v3.48Z"/></g><line class="cls-13" x1="0" y1="86.95" x2="300" y2="86.95"/><line class="cls-12" x1="281.6" y1="302.33" x2="18.4" y2="302.33"/><line class="cls-12" x1="281.6" y1="231.23" x2="18.4" y2="231.23"/><line class="cls-12" x1="281.6" y1="160.12" x2="18.4" y2="160.12"/><g><path d="M364.24,253.56l-2.53-6.79v6.79h-2.27v-10.88h2.79l3.02,7.99,3.01-7.99h2.77v10.88h-2.27v-6.79l-2.53,6.79h-1.98Z"/><path d="M374.7,250.27c.19,.91,.99,1.5,2.11,1.5,.99,0,1.98-.29,2.71-.75v2.1c-.7,.37-1.73,.62-2.88,.62-2.37,0-4.11-1.68-4.11-4.16,0-2.34,1.68-4.15,3.99-4.15s3.73,1.73,3.73,3.79c0,.34-.06,.78-.13,1.04h-5.41Zm0-1.65h3.44c-.03-.82-.72-1.38-1.65-1.38s-1.68,.62-1.79,1.38Z"/><path d="M383.71,246.6c.43-.69,1.1-1.17,2.1-1.17,1.71,0,2.82,1.28,2.82,2.99v5.14h-2.19v-4.53c0-.88-.53-1.47-1.36-1.47s-1.31,.53-1.36,1.38v4.63h-2.18v-7.97h2.18v1.01Z"/><path d="M395.22,252.57c-.4,.69-1.09,1.17-2.1,1.17-1.68,0-2.79-1.28-2.79-2.99v-5.15h2.18v4.53c0,.9,.51,1.49,1.34,1.49s1.31-.54,1.36-1.38v-4.64h2.18v7.97h-2.18v-.99Z"/><path d="M403.77,241.97c.75,0,1.28,.58,1.28,1.3s-.53,1.28-1.28,1.28-1.28-.56-1.28-1.28,.54-1.3,1.28-1.3Zm1.09,11.59h-2.18v-7.97h2.18v7.97Z"/><path d="M407.31,253.56v-6.11h-1.22v-1.86h1.34v-1.74l2.05-.46v2.21h1.34v1.86h-1.34v6.11h-2.18Z"/><path d="M413.58,250.27c.19,.91,.99,1.5,2.11,1.5,.99,0,1.98-.29,2.71-.75v2.1c-.7,.37-1.73,.62-2.88,.62-2.37,0-4.11-1.68-4.11-4.16,0-2.34,1.68-4.15,3.99-4.15s3.73,1.73,3.73,3.79c0,.34-.06,.78-.13,1.04h-5.41Zm0-1.65h3.44c-.03-.82-.72-1.38-1.65-1.38s-1.68,.62-1.79,1.38Z"/><path d="M422.59,246.54c.42-.64,1.09-1.1,2.03-1.1,1.12,0,2,.51,2.45,1.44,.38-.82,1.15-1.44,2.35-1.44,1.54,0,2.74,1.22,2.74,2.93v5.2h-2.18v-4.58c0-.9-.51-1.42-1.28-1.42s-1.33,.53-1.33,1.42v4.58h-2.18v-4.58c0-.9-.51-1.42-1.28-1.42s-1.28,.48-1.33,1.31v4.69h-2.18v-7.97h2.18v.95Z"/><path d="M443.12,252.54c-.56,.75-1.42,1.2-2.45,1.2-2.26,0-3.78-1.82-3.78-4.16s1.52-4.15,3.79-4.15c1.02,0,1.87,.43,2.43,1.18v-4.1h2.18v11.04h-2.18v-1.02Zm-1.98-4.96c-1.14,0-2,.91-2,2s.86,2.02,2,2.02,1.98-.93,1.98-2.02-.83-2-1.98-2Z"/><path d="M448.2,241.97c.75,0,1.28,.58,1.28,1.3s-.53,1.28-1.28,1.28-1.28-.56-1.28-1.28,.54-1.3,1.28-1.3Zm1.09,11.59h-2.18v-7.97h2.18v7.97Z"/><path d="M455.56,247.85c-.5-.3-1.2-.53-1.75-.53s-.78,.27-.78,.58c0,.26,.16,.38,.46,.58l1.15,.67c.96,.58,1.31,1.33,1.31,2.16,0,1.38-1.02,2.43-2.93,2.43-.72,0-1.52-.16-2.08-.4v-2.18c.37,.32,1.28,.71,1.92,.71,.56,0,.83-.26,.83-.59,0-.26-.14-.46-.53-.69l-1.25-.72c-.83-.48-1.15-1.26-1.15-2.05,0-1.41,1.09-2.38,2.96-2.38,.59,0,1.31,.11,1.83,.27v2.15Z"/><path d="M457.95,253.56v-6.11h-1.22v-1.86h1.34v-1.74l2.05-.46v2.21h1.34v1.86h-1.34v6.11h-2.18Z"/><path d="M464.76,246.46c.38-.59,.99-1.02,1.89-1.02,.18,0,.45,.02,.62,.05v2.32c-.3-.14-.69-.24-1.17-.24-.77,0-1.3,.53-1.34,1.38v4.63h-2.18v-7.97h2.18v.87Z"/><path d="M469.5,241.97c.75,0,1.28,.58,1.28,1.3s-.53,1.28-1.28,1.28-1.28-.56-1.28-1.28,.54-1.3,1.28-1.3Zm1.09,11.59h-2.18v-7.97h2.18v7.97Z"/><path d="M474.59,253.56h-2.18v-11.04h2.18v4.1c.54-.74,1.41-1.18,2.45-1.18,2.24,0,3.79,1.81,3.79,4.15s-1.55,4.16-3.78,4.16c-1.06,0-1.92-.46-2.47-1.2v1.02Zm2-1.97c1.14,0,1.97-.93,1.97-2.02s-.83-2-1.97-2-2,.91-2,2,.85,2.02,2,2.02Z"/><path d="M487.04,252.57c-.4,.69-1.09,1.17-2.1,1.17-1.68,0-2.79-1.28-2.79-2.99v-5.15h2.18v4.53c0,.9,.51,1.49,1.34,1.49s1.31-.54,1.36-1.38v-4.64h2.18v7.97h-2.18v-.99Z"/><path d="M491.69,253.56v-6.11h-1.22v-1.86h1.34v-1.74l2.05-.46v2.21h1.34v1.86h-1.34v6.11h-2.18Z"/><path d="M497.42,241.97c.75,0,1.28,.58,1.28,1.3s-.53,1.28-1.28,1.28-1.28-.56-1.28-1.28,.54-1.3,1.28-1.3Zm1.09,11.59h-2.18v-7.97h2.18v7.97Z"/><path d="M504.01,245.43c2.34,0,4.15,1.81,4.15,4.15s-1.81,4.16-4.15,4.16-4.15-1.82-4.15-4.16,1.81-4.15,4.15-4.15Zm0,6.18c1.12,0,1.92-.93,1.92-2.03s-.8-2.02-1.92-2.02-1.94,.91-1.94,2.02,.83,2.03,1.94,2.03Z"/><path d="M511.69,246.6c.43-.69,1.1-1.17,2.1-1.17,1.71,0,2.82,1.28,2.82,2.99v5.14h-2.19v-4.53c0-.88-.53-1.47-1.36-1.47s-1.31,.53-1.36,1.38v4.63h-2.18v-7.97h2.18v1.01Z"/><path d="M519.55,245.82c.78,0,1.36,.58,1.36,1.36s-.58,1.33-1.36,1.33-1.33-.56-1.33-1.33,.56-1.36,1.33-1.36Zm0,5.22c.78,0,1.36,.58,1.36,1.34s-.58,1.34-1.36,1.34-1.33-.56-1.33-1.34,.56-1.34,1.33-1.34Z"/><path d="M531.12,253.56l-2.53-6.79v6.79h-2.27v-10.88h2.79l3.03,7.99,3.01-7.99h2.77v10.88h-2.27v-6.79l-2.53,6.79h-1.99Z"/><path d="M540.2,245.9c.58-.24,1.47-.46,2.31-.46,2.14,0,3.39,1.02,3.39,3.34v4.79h-2.18v-.59c-.4,.46-1.01,.77-1.78,.77-1.78,0-2.62-1.25-2.62-2.59,0-1.42,1.04-2.56,2.66-2.56,.67,0,1.34,.24,1.74,.58v-.43c0-.96-.64-1.36-1.47-1.36-.7,0-1.46,.24-2.05,.59v-2.06Zm2.39,6.24c.62,0,1.1-.43,1.1-.99s-.48-.99-1.1-.99-1.12,.43-1.12,.99,.5,.99,1.12,.99Z"/><path d="M549.82,246.46c.38-.59,.99-1.02,1.89-1.02,.18,0,.45,.02,.62,.05v2.32c-.3-.14-.69-.24-1.17-.24-.77,0-1.3,.53-1.34,1.38v4.63h-2.18v-7.97h2.18v.87Z"/><path d="M558.84,253.36c-.45,.24-1.22,.38-1.76,.38-2.53,0-4.21-1.82-4.21-4.16s1.68-4.15,4.21-4.15c.53,0,1.31,.14,1.76,.37v2.3c-.42-.29-1.02-.54-1.76-.54-1.17,0-2,.91-2,2.02s.83,2.03,2,2.03c.72,0,1.36-.26,1.76-.56v2.3Z"/><path d="M562.57,246.6c.43-.69,1.12-1.17,2.1-1.17,1.71,0,2.82,1.28,2.82,2.99v5.14h-2.19v-4.53c0-.88-.53-1.47-1.34-1.47s-1.33,.53-1.38,1.38v4.63h-2.18v-11.04h2.18v4.08Z"/><path d="M572.38,251.63l3.01-3.76c.51-.64,.82-1.26,.82-1.76,0-.83-.5-1.33-1.3-1.33-.94,0-1.73,.43-2.3,1.01v-2.56c.59-.42,1.57-.72,2.48-.72,2.43,0,3.46,1.55,3.46,3.17,0,1.42-.51,2.27-1.15,3.09l-2.05,2.61h3.15v2.19h-6.11v-1.94Z"/><path d="M587.92,246.44v3.35c0,2.29-1.66,3.95-3.94,3.95s-3.95-1.66-3.95-3.95v-3.35c0-2.27,1.68-3.94,3.95-3.94s3.94,1.67,3.94,3.94Zm-5.62,.06v3.23c0,1.02,.62,1.78,1.68,1.78s1.67-.75,1.67-1.78v-3.23c0-1.04-.62-1.78-1.67-1.78s-1.68,.74-1.68,1.78Z"/><path d="M589.32,251.63l3.01-3.76c.51-.64,.82-1.26,.82-1.76,0-.83-.5-1.33-1.3-1.33-.94,0-1.73,.43-2.3,1.01v-2.56c.59-.42,1.57-.72,2.48-.72,2.43,0,3.46,1.55,3.46,3.17,0,1.42-.51,2.27-1.15,3.09l-2.05,2.61h3.15v2.19h-6.11v-1.94Z"/><path d="M597.75,246.86h1.52c.64,0,1.14-.4,1.14-1.02s-.48-1.06-1.25-1.06-1.54,.24-2.08,.64v-2.45c.42-.19,1.23-.46,2.18-.46,2.14,0,3.49,1.33,3.49,3.03,0,1.18-.53,2-1.3,2.42,.94,.45,1.6,1.34,1.6,2.61,0,1.79-1.55,3.18-3.7,3.18-.91,0-1.83-.26-2.4-.5v-2.56c.54,.46,1.3,.78,2.27,.78,.83,0,1.47-.5,1.47-1.23s-.58-1.18-1.41-1.18h-1.54v-2.19Z"/></g><g><path class="cls-6" d="M420.34,289.13c-12.6,6.67-23.64,15.91-32.41,27.03l80.02,63.07-47.61-90.09Z"/><path class="cls-4" d="M447.9,279.31c-9.76,1.95-19.02,5.29-27.55,9.81l47.61,90.09-20.05-99.91Z"/><path class="cls-3" d="M467.95,277.33c-6.87,0-13.57,.68-20.05,1.98l20.05,99.91v-101.89Z"/><path class="cls-8" d="M568.34,396.69c.98-5.68,1.5-11.52,1.5-17.48,0-56.27-45.62-101.89-101.89-101.89v101.89l100.39,17.48Z"/><path class="cls-10" d="M568.34,396.69l-100.39-17.48,8.79,101.5c46.32-3.96,83.8-38.91,91.6-84.03Z"/><path class="cls-11" d="M387.82,442.15c18.65,23.72,47.61,38.96,80.13,38.96,2.96,0,5.89-.13,8.79-.38l-8.79-101.5-80.13,62.93Z"/><path class="cls-5" d="M367.24,363.71c-.77,5.06-1.17,10.24-1.17,15.51,0,23.75,8.13,45.6,21.75,62.93l80.13-62.93-100.71-15.51Z"/><path class="cls-7" d="M387.93,316.15c-10.66,13.51-17.97,29.78-20.69,47.56l100.71,15.51-80.02-63.07Z"/></g><g><rect class="cls-8" x="601.15" y="322.25" width="14.96" height="14.96"/><rect class="cls-11" x="601.15" y="355.21" width="14.96" height="14.96"/><rect class="cls-7" x="601.15" y="388.17" width="14.96" height="14.96"/><rect class="cls-10" x="731.11" y="322.25" width="14.96" height="14.96"/><rect class="cls-5" x="731.11" y="355.21" width="14.96" height="14.96"/><rect class="cls-6" x="731.11" y="388.17" width="14.96" height="14.96"/><rect class="cls-4" x="601.15" y="421.12" width="14.96" height="14.96"/><rect class="cls-3" x="731.11" y="421.12" width="14.96" height="14.96"/><g><path d="M625.62,333.82l2.52-3.18c.47-.6,.83-1.14,.83-1.8,0-.84-.55-1.36-1.38-1.36-.73,0-1.34,.34-1.8,.83v-1.2c.44-.38,1.15-.66,1.86-.66,1.54,0,2.37,.97,2.37,2.23,0,1.09-.48,1.75-.98,2.4l-2.11,2.66h3.09v.98h-4.4v-.91Z"/><path d="M633.79,326.46c1.31,0,2.33,.94,2.33,2.17,0,.79-.43,1.43-1.07,1.75,.8,.36,1.34,1.1,1.34,2.05,0,1.39-1.13,2.42-2.6,2.42s-2.58-1.03-2.58-2.42c0-.95,.53-1.69,1.33-2.05-.64-.32-1.06-.96-1.06-1.75,0-1.23,1.02-2.17,2.3-2.17Zm0,7.46c.91,0,1.61-.66,1.61-1.5s-.66-1.54-1.61-1.54c-.89,0-1.58,.68-1.58,1.54s.7,1.5,1.58,1.5Zm.01-4.02c.77,0,1.33-.55,1.33-1.26s-.56-1.25-1.33-1.25-1.33,.53-1.33,1.25,.54,1.26,1.33,1.26Z"/><path d="M640.95,328.11v1.58c0,.96-.74,1.67-1.75,1.67s-1.75-.71-1.75-1.67v-1.58c0-.96,.74-1.65,1.75-1.65s1.75,.7,1.75,1.65Zm-2.73,.02v1.54c0,.54,.37,.94,.98,.94s.98-.39,.98-.94v-1.54c0-.54-.37-.94-.98-.94s-.98,.4-.98,.94Zm5.16-1.56h.79l-3.63,8.16h-.78l3.62-8.16Zm3.07,5.03v1.58c0,.96-.74,1.67-1.75,1.67s-1.74-.71-1.74-1.67v-1.58c0-.96,.74-1.65,1.74-1.65s1.75,.7,1.75,1.65Zm-2.72,.02v1.55c0,.53,.37,.94,.97,.94s.98-.41,.98-.94v-1.55c0-.53-.37-.94-.98-.94s-.97,.41-.97,.94Z"/><path d="M656.5,331.12h-4.67v3.61h-1.03v-8.16h1.03v3.56h4.67v-3.56h1.03v8.16h-1.03v-3.61Z"/><path d="M661.96,328.77c1.73,0,3.03,1.33,3.03,3.03s-1.31,3.05-3.03,3.05-3.03-1.32-3.03-3.05,1.33-3.03,3.03-3.03Zm0,5.11c1.15,0,2.02-.92,2.02-2.08s-.86-2.05-2.02-2.05-2,.91-2,2.05,.86,2.08,2,2.08Z"/><path d="M666.63,334.73v-4.98h-1.09v-.86h1.14v-1.43l.95-.25v1.68h1.15v.86h-1.15v4.98h-1Z"/><path d="M674.38,333.57c-.42,.78-1.21,1.28-2.19,1.28-1.69,0-2.9-1.32-2.9-3.05s1.21-3.03,2.9-3.03c.98,0,1.78,.52,2.19,1.29v-3.61h1.01v8.28h-1.01v-1.16Zm-2.03-3.81c-1.15,0-2.04,.92-2.04,2.05s.89,2.06,2.04,2.06,2.03-.91,2.03-2.06-.86-2.05-2.03-2.05Z"/><path d="M679.7,328.77c1.73,0,3.03,1.33,3.03,3.03s-1.31,3.05-3.03,3.05-3.03-1.32-3.03-3.05,1.33-3.03,3.03-3.03Zm0,5.11c1.15,0,2.02-.92,2.02-2.08s-.86-2.05-2.02-2.05-2,.91-2,2.05,.86,2.08,2,2.08Z"/><path d="M689.68,328.89v5.4c0,1.89-1.22,3.02-3.03,3.02-.86,0-1.63-.26-2.05-.5v-1.08c.47,.34,1.27,.64,2.06,.64,1.16,0,2.03-.79,2.03-1.96v-.95c-.42,.73-1.2,1.22-2.19,1.22-1.63,0-2.84-1.27-2.84-2.95s1.21-2.96,2.84-2.96c1,0,1.77,.5,2.19,1.27v-1.15h1Zm-3.01,.88c-1.12,0-1.96,.86-1.96,1.97s.84,1.98,1.96,1.98,1.97-.86,1.97-1.98-.83-1.97-1.97-1.97Z"/></g><g><path d="M625.57,366.7h2.05v-6.19h-1.84v-.98h2.87v7.17h1.74v.98h-4.82v-.98Z"/><path d="M633.75,359.41c1.31,0,2.33,.94,2.33,2.17,0,.79-.43,1.43-1.07,1.75,.8,.36,1.34,1.1,1.34,2.05,0,1.39-1.13,2.42-2.6,2.42s-2.58-1.03-2.58-2.42c0-.95,.53-1.69,1.33-2.05-.64-.32-1.06-.96-1.06-1.75,0-1.24,1.02-2.17,2.3-2.17Zm0,7.46c.91,0,1.61-.66,1.61-1.5s-.66-1.54-1.61-1.54c-.89,0-1.58,.68-1.58,1.54s.7,1.5,1.58,1.5Zm.01-4.02c.77,0,1.33-.55,1.33-1.26s-.56-1.25-1.33-1.25-1.33,.53-1.33,1.25,.54,1.26,1.33,1.26Z"/><path d="M640.91,361.07v1.58c0,.96-.74,1.67-1.75,1.67s-1.75-.71-1.75-1.67v-1.58c0-.96,.74-1.66,1.75-1.66s1.75,.7,1.75,1.66Zm-2.73,.02v1.54c0,.54,.37,.94,.98,.94s.98-.4,.98-.94v-1.54c0-.54-.37-.94-.98-.94s-.98,.4-.98,.94Zm5.16-1.56h.79l-3.63,8.16h-.78l3.62-8.16Zm3.07,5.03v1.58c0,.96-.74,1.67-1.75,1.67s-1.74-.71-1.74-1.67v-1.58c0-.96,.74-1.66,1.74-1.66s1.75,.7,1.75,1.66Zm-2.72,.02v1.55c0,.53,.37,.94,.97,.94s.98-.41,.98-.94v-1.55c0-.53-.37-.94-.98-.94s-.97,.41-.97,.94Z"/><path d="M656.56,367.25c-.61,.36-1.35,.56-2.15,.56-2.39,0-4.2-1.81-4.2-4.2s1.81-4.2,4.2-4.2c.79,0,1.54,.2,2.15,.56v1.21c-.55-.47-1.3-.76-2.15-.76-1.77,0-3.12,1.4-3.12,3.18s1.33,3.18,3.12,3.18c.85,0,1.61-.29,2.15-.74v1.2Z"/><path d="M658.95,362.77c.32-.62,.91-1.04,1.75-1.04,1.34,0,2.19,.98,2.19,2.32v3.65h-1v-3.41c0-.92-.56-1.57-1.48-1.57s-1.44,.6-1.48,1.5v3.48h-1v-8.28h1v3.36Z"/><path d="M664.99,359.35c.4,0,.67,.29,.67,.66s-.28,.65-.67,.65c-.36,0-.65-.28-.65-.65s.29-.66,.65-.66Zm.5,8.33h-1v-5.84h1v5.84Z"/><path d="M671.35,367.4c-.41,.25-.98,.41-1.51,.41-1.77,0-3.06-1.32-3.06-3.05s1.28-3.03,3.06-3.03c.52,0,1.1,.16,1.51,.4v1.1c-.38-.31-.91-.52-1.51-.52-1.16,0-2.04,.91-2.04,2.05s.88,2.08,2.04,2.08c.59,0,1.14-.22,1.51-.52v1.08Z"/><path d="M672.68,359.41h1v5.22l2.35-2.78h1.2l-1.94,2.34,1.99,3.5h-1.18l-1.56-2.79-.86,1.01v1.79h-1v-8.28Z"/><path d="M678.69,365.13c.12,1.03,.94,1.76,2.04,1.76,.8,0,1.61-.35,2.1-.73v1.03c-.5,.32-1.27,.61-2.17,.61-1.69,0-2.97-1.27-2.97-3.05s1.25-3.03,2.91-3.03,2.82,1.27,2.82,2.87c0,.18-.02,.42-.05,.54h-4.68Zm0-.79h3.75c-.01-1.06-.83-1.75-1.85-1.75s-1.83,.77-1.91,1.75Z"/><path d="M685.6,362.77c.32-.62,.9-1.04,1.75-1.04,1.34,0,2.19,.98,2.19,2.32v3.65h-1v-3.41c0-.92-.56-1.57-1.48-1.57s-1.44,.6-1.48,1.5v3.48h-1v-5.84h1v.92Z"/><path d="M698.03,361.02c-.44-.35-1.09-.64-1.77-.64-.89,0-1.43,.46-1.43,1.14,0,.42,.24,.76,.76,1.08l1.42,.89c1.01,.63,1.38,1.25,1.38,2.1,0,1.16-.85,2.22-2.58,2.22-.83,0-1.54-.25-2-.49v-1.21c.43,.36,1.13,.73,1.98,.73,.98,0,1.51-.56,1.51-1.2,0-.43-.29-.83-.89-1.2l-1.4-.89c-.94-.58-1.27-1.19-1.27-2,0-1.04,.71-2.13,2.55-2.13,.71,0,1.32,.19,1.75,.44v1.16Z"/><path d="M699.88,362.14c.43-.22,1.03-.41,1.68-.41,1.32,0,2.25,.67,2.25,2.24v3.72h-1v-.64c-.31,.46-.86,.76-1.54,.76-1.28,0-2.04-.89-2.04-1.94s.85-1.92,2.05-1.92c.64,0,1.24,.32,1.52,.68v-.67c0-.94-.66-1.32-1.36-1.32-.58,0-1.12,.19-1.58,.48v-.98Zm1.64,4.91c.71,0,1.28-.52,1.28-1.18s-.6-1.15-1.28-1.15-1.28,.52-1.28,1.15,.59,1.18,1.28,1.18Z"/><path d="M706.42,367.69h-1v-8.28h1v8.28Z"/><path d="M708.27,362.14c.43-.22,1.03-.41,1.68-.41,1.32,0,2.25,.67,2.25,2.24v3.72h-1v-.64c-.31,.46-.86,.76-1.54,.76-1.28,0-2.04-.89-2.04-1.94s.85-1.92,2.05-1.92c.63,0,1.24,.32,1.52,.68v-.67c0-.94-.66-1.32-1.36-1.32-.58,0-1.12,.19-1.58,.48v-.98Zm1.64,4.91c.71,0,1.28-.52,1.28-1.18s-.6-1.15-1.28-1.15-1.28,.52-1.28,1.15,.59,1.18,1.28,1.18Z"/><path d="M718.53,366.53c-.42,.78-1.21,1.28-2.19,1.28-1.69,0-2.9-1.32-2.9-3.05s1.21-3.03,2.9-3.03c.98,0,1.77,.52,2.19,1.3v-3.61h1.01v8.28h-1.01v-1.16Zm-2.03-3.81c-1.15,0-2.04,.92-2.04,2.05s.89,2.06,2.04,2.06,2.03-.91,2.03-2.06-.86-2.05-2.03-2.05Z"/></g><g><path d="M628.25,392.37c1.31,0,2.33,.94,2.33,2.17,0,.79-.43,1.43-1.07,1.75,.8,.36,1.34,1.1,1.34,2.05,0,1.39-1.13,2.42-2.6,2.42s-2.58-1.03-2.58-2.42c0-.95,.53-1.69,1.33-2.05-.64-.32-1.06-.96-1.06-1.75,0-1.23,1.02-2.17,2.3-2.17Zm0,7.46c.91,0,1.61-.66,1.61-1.5s-.66-1.54-1.61-1.54c-.89,0-1.58,.68-1.58,1.54s.7,1.5,1.58,1.5Zm.01-4.02c.77,0,1.33-.55,1.33-1.26s-.56-1.25-1.33-1.25-1.33,.53-1.33,1.25,.54,1.26,1.33,1.26Z"/><path d="M635.42,394.02v1.58c0,.96-.74,1.67-1.75,1.67s-1.75-.71-1.75-1.67v-1.58c0-.96,.74-1.65,1.75-1.65s1.75,.7,1.75,1.65Zm-2.73,.02v1.54c0,.54,.37,.94,.98,.94s.98-.39,.98-.94v-1.54c0-.54-.37-.94-.98-.94s-.98,.4-.98,.94Zm5.16-1.56h.79l-3.63,8.16h-.78l3.62-8.16Zm3.07,5.03v1.58c0,.96-.74,1.67-1.75,1.67s-1.74-.71-1.74-1.67v-1.58c0-.96,.74-1.65,1.74-1.65s1.75,.7,1.75,1.65Zm-2.72,.02v1.55c0,.53,.37,.94,.97,.94s.98-.41,.98-.94v-1.55c0-.53-.37-.94-.98-.94s-.97,.41-.97,.94Z"/><path d="M651.06,400.2c-.61,.36-1.35,.56-2.15,.56-2.39,0-4.2-1.81-4.2-4.2s1.81-4.2,4.2-4.2c.79,0,1.54,.2,2.15,.56v1.21c-.55-.47-1.3-.76-2.15-.76-1.77,0-3.12,1.4-3.12,3.18s1.33,3.18,3.12,3.18c.85,0,1.61-.29,2.15-.74v1.2Z"/><path d="M652.63,395.09c.43-.22,1.03-.41,1.68-.41,1.32,0,2.25,.67,2.25,2.24v3.72h-1v-.64c-.31,.46-.86,.76-1.54,.76-1.28,0-2.04-.89-2.04-1.94s.85-1.92,2.05-1.92c.64,0,1.24,.32,1.52,.68v-.67c0-.94-.66-1.32-1.35-1.32-.58,0-1.12,.19-1.58,.48v-.98Zm1.64,4.9c.71,0,1.28-.52,1.28-1.18s-.6-1.15-1.28-1.15-1.28,.52-1.28,1.15,.59,1.18,1.28,1.18Z"/><path d="M658.8,398.09c.12,1.03,.94,1.76,2.04,1.76,.8,0,1.61-.35,2.1-.73v1.03c-.5,.32-1.27,.61-2.17,.61-1.69,0-2.97-1.27-2.97-3.05s1.25-3.03,2.91-3.03,2.82,1.27,2.82,2.87c0,.18-.02,.42-.05,.54h-4.68Zm0-.79h3.75c-.01-1.06-.83-1.75-1.85-1.75s-1.83,.77-1.91,1.75Z"/><path d="M667.75,396.04c-.37-.28-.85-.47-1.33-.47-.62,0-.95,.32-.95,.74,0,.31,.17,.48,.52,.7l1.03,.61c.76,.46,.98,.96,.98,1.51,0,1-.77,1.63-2,1.63-.6,0-1.15-.17-1.51-.35v-1.08c.3,.27,.86,.55,1.46,.55,.66,0,1.02-.31,1.02-.76,0-.3-.16-.53-.6-.79l-1.08-.65c-.61-.36-.86-.85-.86-1.4,0-.91,.7-1.61,1.98-1.61,.52,0,1.01,.13,1.34,.3v1.06Z"/><path d="M669.46,395.09c.43-.22,1.03-.41,1.68-.41,1.32,0,2.25,.67,2.25,2.24v3.72h-1v-.64c-.31,.46-.86,.76-1.54,.76-1.28,0-2.04-.89-2.04-1.94s.85-1.92,2.05-1.92c.64,0,1.24,.32,1.52,.68v-.67c0-.94-.66-1.32-1.36-1.32-.58,0-1.12,.19-1.58,.48v-.98Zm1.64,4.9c.71,0,1.28-.52,1.28-1.18s-.6-1.15-1.28-1.15-1.28,.52-1.28,1.15,.59,1.18,1.28,1.18Z"/><path d="M675.99,395.6c.28-.54,.77-.91,1.51-.91,.16,0,.34,.02,.49,.06v1.07c-.19-.08-.44-.14-.71-.14-.84,0-1.26,.6-1.29,1.5v3.48h-1v-5.84h1v.79Z"/><path d="M685.65,393.98c-.44-.35-1.09-.64-1.77-.64-.89,0-1.43,.46-1.43,1.14,0,.42,.24,.76,.76,1.08l1.42,.89c1.01,.63,1.38,1.25,1.38,2.1,0,1.16-.85,2.22-2.58,2.22-.83,0-1.54-.25-2-.49v-1.21c.43,.36,1.13,.73,1.98,.73,.98,0,1.51-.56,1.51-1.2,0-.43-.29-.83-.89-1.2l-1.4-.89c-.94-.58-1.27-1.19-1.27-2,0-1.04,.71-2.13,2.55-2.13,.71,0,1.32,.19,1.75,.44v1.16Z"/><path d="M687.5,395.09c.43-.22,1.03-.41,1.68-.41,1.32,0,2.25,.67,2.25,2.24v3.72h-1v-.64c-.31,.46-.86,.76-1.54,.76-1.28,0-2.04-.89-2.04-1.94s.85-1.92,2.05-1.92c.64,0,1.24,.32,1.52,.68v-.67c0-.94-.66-1.32-1.35-1.32-.58,0-1.12,.19-1.58,.48v-.98Zm1.64,4.9c.71,0,1.28-.52,1.28-1.18s-.6-1.15-1.28-1.15-1.28,.52-1.28,1.15,.59,1.18,1.28,1.18Z"/><path d="M694.04,400.65h-1v-8.28h1v8.28Z"/><path d="M695.89,395.09c.43-.22,1.03-.41,1.68-.41,1.32,0,2.26,.67,2.26,2.24v3.72h-1v-.64c-.31,.46-.86,.76-1.54,.76-1.28,0-2.04-.89-2.04-1.94s.85-1.92,2.05-1.92c.64,0,1.24,.32,1.52,.68v-.67c0-.94-.66-1.32-1.35-1.32-.58,0-1.12,.19-1.58,.48v-.98Zm1.64,4.9c.71,0,1.28-.52,1.28-1.18s-.6-1.15-1.28-1.15-1.28,.52-1.28,1.15,.59,1.18,1.28,1.18Z"/><path d="M706.14,399.48c-.42,.78-1.21,1.28-2.19,1.28-1.69,0-2.9-1.32-2.9-3.05s1.21-3.03,2.9-3.03c.98,0,1.77,.52,2.19,1.29v-3.61h1.01v8.28h-1.01v-1.16Zm-2.03-3.81c-1.15,0-2.04,.92-2.04,2.05s.89,2.06,2.04,2.06,2.03-.91,2.03-2.06-.86-2.05-2.03-2.05Z"/></g><g><path d="M626.36,428.85h1.19c.73,0,1.27-.54,1.27-1.25,0-.75-.54-1.25-1.38-1.25-.6,0-1.2,.18-1.58,.48v-1.13c.31-.18,.86-.38,1.62-.38,1.45,0,2.41,.92,2.41,2.16,0,.91-.47,1.58-1.09,1.85,.78,.29,1.32,1.04,1.32,2.05,0,1.38-1.12,2.34-2.6,2.34-.76,0-1.39-.22-1.75-.42v-1.18c.41,.32,.98,.56,1.7,.56,.89,0,1.58-.56,1.58-1.43,0-.82-.62-1.43-1.49-1.43h-1.2v-.98Z"/><path d="M634.69,426.98v1.58c0,.96-.74,1.67-1.75,1.67s-1.75-.71-1.75-1.67v-1.58c0-.96,.74-1.66,1.75-1.66s1.75,.7,1.75,1.66Zm-2.73,.02v1.54c0,.54,.37,.94,.98,.94s.98-.4,.98-.94v-1.54c0-.54-.37-.94-.98-.94s-.98,.4-.98,.94Zm5.16-1.56h.79l-3.63,8.16h-.78l3.62-8.16Zm3.07,5.03v1.58c0,.96-.74,1.67-1.75,1.67s-1.74-.71-1.74-1.67v-1.58c0-.96,.74-1.66,1.74-1.66s1.75,.7,1.75,1.66Zm-2.72,.02v1.55c0,.53,.37,.94,.97,.94s.98-.41,.98-.94v-1.55c0-.53-.37-.94-.98-.94s-.97,.41-.97,.94Z"/><path d="M645.57,430.32v3.29h-1.03v-8.16h4.39v.98h-3.36v2.9h3.12v.98h-3.12Z"/><path d="M651.09,428.55c.28-.54,.77-.91,1.51-.91,.16,0,.34,.02,.49,.06v1.07c-.19-.08-.44-.14-.71-.14-.84,0-1.26,.6-1.3,1.5v3.48h-1v-5.84h1v.79Z"/><path d="M658,432.69c-.3,.62-.89,1.03-1.74,1.03-1.33,0-2.18-.97-2.18-2.31v-3.65h1v3.42c0,.92,.54,1.57,1.46,1.57s1.43-.6,1.46-1.49v-3.5h1.01v5.84h-1.01v-.91Z"/><path d="M661.18,425.27c.4,0,.67,.29,.67,.66s-.28,.65-.67,.65c-.36,0-.65-.28-.65-.65s.29-.66,.65-.66Zm.5,8.33h-1v-5.84h1v5.84Z"/><path d="M663.81,433.6v-4.98h-1.09v-.86h1.14v-1.43l.95-.25v1.68h1.15v.86h-1.15v4.98h-1Z"/><path d="M675.66,433.16c-.61,.36-1.35,.56-2.15,.56-2.39,0-4.2-1.81-4.2-4.2s1.81-4.2,4.2-4.2c.79,0,1.54,.2,2.15,.56v1.21c-.55-.47-1.3-.76-2.15-.76-1.78,0-3.12,1.4-3.12,3.18s1.33,3.18,3.12,3.18c.85,0,1.61-.29,2.15-.74v1.2Z"/><path d="M680.85,432.69c-.3,.62-.89,1.03-1.74,1.03-1.33,0-2.18-.97-2.18-2.31v-3.65h1v3.42c0,.92,.54,1.57,1.46,1.57s1.43-.6,1.46-1.49v-3.5h1.01v5.84h-1.01v-.91Z"/><path d="M684.54,428.99c.42-.83,1.21-1.34,2.22-1.34,1.67,0,2.89,1.33,2.89,3.03s-1.22,3.05-2.9,3.05c-1,0-1.79-.5-2.21-1.28v3.62h-1v-8.3h1v1.22Zm2.04,3.75c1.15,0,2.03-.91,2.03-2.06s-.88-2.05-2.03-2.05-2.04,.92-2.04,2.05,.88,2.06,2.04,2.06Z"/></g><g><path d="M755.58,333.82l2.52-3.18c.47-.6,.83-1.14,.83-1.8,0-.84-.55-1.36-1.38-1.36-.73,0-1.34,.34-1.8,.83v-1.2c.44-.38,1.15-.66,1.86-.66,1.54,0,2.37,.97,2.37,2.23,0,1.09-.48,1.75-.98,2.4l-2.11,2.66h3.09v.98h-4.4v-.91Z"/><path d="M761.85,329.98h1.19c.73,0,1.27-.54,1.27-1.25,0-.75-.54-1.25-1.38-1.25-.6,0-1.2,.18-1.58,.48v-1.13c.31-.18,.86-.38,1.62-.38,1.45,0,2.41,.92,2.41,2.16,0,.91-.47,1.58-1.09,1.85,.78,.29,1.32,1.04,1.32,2.05,0,1.38-1.12,2.34-2.6,2.34-.76,0-1.39-.21-1.75-.42v-1.18c.41,.32,.98,.56,1.7,.56,.89,0,1.58-.56,1.58-1.43,0-.81-.62-1.43-1.49-1.43h-1.2v-.98Z"/><path d="M770.18,328.11v1.58c0,.96-.74,1.67-1.75,1.67s-1.75-.71-1.75-1.67v-1.58c0-.96,.74-1.65,1.75-1.65s1.75,.7,1.75,1.65Zm-2.73,.02v1.54c0,.54,.37,.94,.98,.94s.98-.39,.98-.94v-1.54c0-.54-.37-.94-.98-.94s-.98,.4-.98,.94Zm5.16-1.56h.79l-3.63,8.16h-.78l3.62-8.16Zm3.07,5.03v1.58c0,.96-.74,1.67-1.75,1.67s-1.74-.71-1.74-1.67v-1.58c0-.96,.74-1.65,1.74-1.65s1.75,.7,1.75,1.65Zm-2.72,.02v1.55c0,.53,.37,.94,.97,.94s.98-.41,.98-.94v-1.55c0-.53-.37-.94-.98-.94s-.97,.41-.97,.94Z"/><path d="M780.03,326.58h2.4c1.52,0,2.57,.91,2.57,2.45s-1.04,2.45-2.57,2.45h-1.37v3.26h-1.03v-8.16Zm2.4,.98h-1.37v2.93h1.37c.85,0,1.5-.46,1.5-1.45s-.65-1.47-1.5-1.47Z"/><path d="M788.61,328.77c1.73,0,3.03,1.33,3.03,3.03s-1.31,3.05-3.03,3.05-3.03-1.32-3.03-3.05,1.33-3.03,3.03-3.03Zm0,5.11c1.15,0,2.02-.92,2.02-2.08s-.86-2.05-2.02-2.05-2,.91-2,2.05,.86,2.08,2,2.08Z"/><path d="M796.82,333.82c-.3,.62-.89,1.03-1.74,1.03-1.33,0-2.18-.97-2.18-2.31v-3.65h1v3.42c0,.92,.54,1.57,1.46,1.57s1.43-.6,1.46-1.49v-3.5h1.01v5.84h-1.01v-.91Z"/><path d="M799.97,334.73v-4.98h-1.09v-.86h1.14v-1.43l.95-.25v1.68h1.15v.86h-1.15v4.98h-1Z"/><path d="M803.6,326.4c.4,0,.67,.29,.67,.66s-.28,.65-.67,.65c-.36,0-.65-.28-.65-.65s.29-.66,.65-.66Zm.5,8.34h-1v-5.84h1v5.84Z"/><path d="M806.76,329.81c.32-.62,.9-1.04,1.75-1.04,1.34,0,2.19,.98,2.19,2.31v3.65h-1v-3.41c0-.92-.56-1.57-1.48-1.57s-1.44,.6-1.47,1.5v3.48h-1v-5.84h1v.92Z"/><path d="M812.93,332.18c.12,1.03,.94,1.76,2.04,1.76,.8,0,1.61-.35,2.1-.73v1.03c-.5,.32-1.27,.61-2.17,.61-1.69,0-2.97-1.27-2.97-3.05s1.25-3.03,2.92-3.03,2.82,1.27,2.82,2.87c0,.18-.02,.42-.05,.54h-4.68Zm0-.79h3.75c-.01-1.06-.83-1.75-1.85-1.75s-1.83,.77-1.91,1.75Z"/></g><g><path d="M755.53,366.7h2.05v-6.19h-1.83v-.98h2.87v7.17h1.74v.98h-4.82v-.98Z"/><path d="M763.03,360.52l-.26,2.09h.26c1.71,0,2.84,.97,2.84,2.52,0,1.76-1.25,2.69-2.76,2.69-.84,0-1.55-.3-2.03-.62v-1.28c.5,.48,1.13,.88,1.98,.88,.96,0,1.74-.65,1.74-1.66,0-1.08-.9-1.56-2.04-1.56h-1.09l.43-4.03h3.67v.98h-2.75Z"/><path d="M770.47,361.07v1.58c0,.96-.74,1.67-1.75,1.67s-1.75-.71-1.75-1.67v-1.58c0-.96,.74-1.66,1.75-1.66s1.75,.7,1.75,1.66Zm-2.73,.02v1.54c0,.54,.37,.94,.98,.94s.98-.4,.98-.94v-1.54c0-.54-.37-.94-.98-.94s-.98,.4-.98,.94Zm5.16-1.56h.79l-3.63,8.16h-.78l3.62-8.16Zm3.07,5.03v1.58c0,.96-.74,1.67-1.75,1.67s-1.74-.71-1.74-1.67v-1.58c0-.96,.74-1.66,1.74-1.66s1.75,.7,1.75,1.66Zm-2.72,.02v1.55c0,.53,.37,.94,.97,.94s.98-.41,.98-.94v-1.55c0-.53-.37-.94-.98-.94s-.97,.41-.97,.94Z"/><path d="M786.02,364.08h-4.67v3.61h-1.03v-8.16h1.03v3.56h4.67v-3.56h1.03v8.16h-1.03v-3.61Z"/><path d="M792.78,366.78c-.3,.62-.89,1.03-1.74,1.03-1.33,0-2.18-.97-2.18-2.31v-3.65h1v3.42c0,.92,.54,1.57,1.46,1.57s1.43-.6,1.46-1.49v-3.5h1.01v5.84h-1.01v-.91Z"/><path d="M798.51,363.08c-.37-.28-.85-.47-1.33-.47-.62,0-.95,.32-.95,.74,0,.31,.17,.48,.52,.7l1.03,.61c.76,.46,.98,.96,.98,1.51,0,1-.77,1.63-2,1.63-.6,0-1.15-.17-1.51-.35v-1.08c.3,.26,.86,.55,1.46,.55,.66,0,1.02-.31,1.02-.75,0-.3-.16-.53-.6-.79l-1.08-.65c-.61-.36-.86-.85-.86-1.4,0-.91,.7-1.61,1.98-1.61,.52,0,1.01,.13,1.34,.3v1.06Z"/><path d="M801.05,362.77c.32-.62,.91-1.04,1.75-1.04,1.34,0,2.19,.98,2.19,2.32v3.65h-1v-3.41c0-.92-.56-1.57-1.48-1.57s-1.44,.6-1.47,1.5v3.48h-1v-8.28h1v3.36Z"/><path d="M807.59,363.07c.42-.83,1.21-1.34,2.22-1.34,1.67,0,2.89,1.33,2.89,3.03s-1.22,3.05-2.9,3.05c-1,0-1.79-.5-2.21-1.28v3.62h-1v-8.3h1v1.22Zm2.04,3.75c1.15,0,2.03-.91,2.03-2.06s-.88-2.05-2.03-2.05-2.04,.92-2.04,2.05,.88,2.06,2.04,2.06Z"/><path d="M817.88,366.78c-.3,.62-.89,1.03-1.74,1.03-1.33,0-2.18-.97-2.18-2.31v-3.65h1v3.42c0,.92,.54,1.57,1.46,1.57s1.43-.6,1.46-1.49v-3.5h1.01v5.84h-1.01v-.91Z"/><path d="M821.56,363.07c.42-.83,1.21-1.34,2.22-1.34,1.67,0,2.89,1.33,2.89,3.03s-1.22,3.05-2.9,3.05c-1,0-1.79-.5-2.21-1.28v3.62h-1v-8.3h1v1.22Zm2.04,3.75c1.15,0,2.03-.91,2.03-2.06s-.88-2.05-2.03-2.05-2.04,.92-2.04,2.05,.88,2.06,2.04,2.06Z"/><path d="M828.95,363.07c.42-.83,1.21-1.34,2.22-1.34,1.67,0,2.89,1.33,2.89,3.03s-1.22,3.05-2.9,3.05c-1,0-1.79-.5-2.21-1.28v3.62h-1v-8.3h1v1.22Zm2.04,3.75c1.15,0,2.03-.91,2.03-2.06s-.88-2.05-2.03-2.05-2.04,.92-2.04,2.05,.88,2.06,2.04,2.06Z"/><path d="M835.84,359.35c.4,0,.67,.29,.67,.66s-.28,.65-.67,.65c-.36,0-.65-.28-.65-.65s.29-.66,.65-.66Zm.5,8.33h-1v-5.84h1v5.84Z"/><path d="M838.64,365.13c.12,1.03,.94,1.76,2.04,1.76,.8,0,1.61-.35,2.1-.73v1.03c-.5,.32-1.27,.61-2.17,.61-1.69,0-2.97-1.27-2.97-3.05s1.25-3.03,2.91-3.03,2.82,1.27,2.82,2.87c0,.18-.02,.42-.05,.54h-4.68Zm0-.79h3.75c-.01-1.06-.83-1.75-1.85-1.75s-1.83,.77-1.91,1.75Z"/><path d="M847.59,363.08c-.37-.28-.85-.47-1.33-.47-.62,0-.95,.32-.95,.74,0,.31,.17,.48,.52,.7l1.03,.61c.76,.46,.98,.96,.98,1.51,0,1-.77,1.63-2,1.63-.6,0-1.15-.17-1.51-.35v-1.08c.3,.26,.86,.55,1.46,.55,.66,0,1.02-.31,1.02-.75,0-.3-.16-.53-.6-.79l-1.08-.65c-.61-.36-.86-.85-.86-1.4,0-.91,.7-1.61,1.98-1.61,.52,0,1.01,.13,1.34,.3v1.06Z"/></g><g><path d="M760.11,398.88v1.76h-1.03v-1.76h-3.73v-.89l3.73-5.51h1.03v5.41h1.1v.98h-1.1Zm-1.03-.98v-3.89l-2.61,3.89h2.61Z"/><path d="M765.61,394.02v1.58c0,.96-.74,1.67-1.75,1.67s-1.75-.71-1.75-1.67v-1.58c0-.96,.74-1.65,1.75-1.65s1.75,.7,1.75,1.65Zm-2.73,.02v1.54c0,.54,.37,.94,.98,.94s.98-.39,.98-.94v-1.54c0-.54-.37-.94-.98-.94s-.98,.4-.98,.94Zm5.16-1.56h.79l-3.63,8.16h-.78l3.62-8.16Zm3.07,5.03v1.58c0,.96-.74,1.67-1.75,1.67s-1.74-.71-1.74-1.67v-1.58c0-.96,.74-1.65,1.74-1.65s1.75,.7,1.75,1.65Zm-2.72,.02v1.55c0,.53,.37,.94,.97,.94s.98-.41,.98-.94v-1.55c0-.53-.37-.94-.98-.94s-.97,.41-.97,.94Z"/><path d="M775.46,392.49h2.4c1.52,0,2.57,.91,2.57,2.45s-1.04,2.45-2.57,2.45h-1.37v3.26h-1.03v-8.16Zm2.4,.98h-1.37v2.93h1.37c.85,0,1.5-.46,1.5-1.45s-.65-1.47-1.5-1.47Z"/><path d="M784.04,394.68c1.73,0,3.03,1.33,3.03,3.03s-1.31,3.05-3.03,3.05-3.03-1.32-3.03-3.05,1.33-3.03,3.03-3.03Zm0,5.11c1.15,0,2.01-.92,2.01-2.08s-.86-2.05-2.01-2.05-2,.91-2,2.05,.86,2.08,2,2.08Z"/><path d="M789.35,396.03c.42-.83,1.21-1.34,2.22-1.34,1.67,0,2.89,1.33,2.89,3.03s-1.22,3.05-2.9,3.05c-1,0-1.79-.5-2.21-1.28v3.62h-1v-8.3h1v1.22Zm2.04,3.75c1.15,0,2.03-.91,2.03-2.06s-.88-2.05-2.03-2.05-2.04,.92-2.04,2.05,.88,2.06,2.04,2.06Z"/><path d="M796.75,396.03c.42-.83,1.21-1.34,2.22-1.34,1.67,0,2.89,1.33,2.89,3.03s-1.22,3.05-2.9,3.05c-1,0-1.79-.5-2.21-1.28v3.62h-1v-8.3h1v1.22Zm2.04,3.75c1.15,0,2.03-.91,2.03-2.06s-.88-2.05-2.03-2.05-2.04,.92-2.04,2.05,.88,2.06,2.04,2.06Z"/><path d="M803.78,398.09c.12,1.03,.94,1.76,2.04,1.76,.8,0,1.61-.35,2.1-.73v1.03c-.5,.32-1.27,.61-2.17,.61-1.69,0-2.97-1.27-2.97-3.05s1.25-3.03,2.91-3.03,2.82,1.27,2.82,2.87c0,.18-.02,.42-.05,.54h-4.68Zm0-.79h3.75c-.01-1.06-.83-1.75-1.85-1.75s-1.83,.77-1.91,1.75Z"/><path d="M810.69,395.6c.28-.54,.77-.91,1.51-.91,.16,0,.34,.02,.49,.06v1.07c-.19-.08-.44-.14-.71-.14-.84,0-1.26,.6-1.29,1.5v3.48h-1v-5.84h1v.79Z"/><path d="M816.75,396.04c-.37-.28-.85-.47-1.33-.47-.62,0-.95,.32-.95,.74,0,.31,.17,.48,.52,.7l1.03,.61c.76,.46,.98,.96,.98,1.51,0,1-.77,1.63-2,1.63-.6,0-1.15-.17-1.51-.35v-1.08c.3,.27,.86,.55,1.46,.55,.66,0,1.02-.31,1.02-.76,0-.3-.16-.53-.6-.79l-1.08-.65c-.61-.36-.86-.85-.86-1.4,0-.91,.7-1.61,1.98-1.61,.52,0,1.01,.13,1.34,.3v1.06Z"/></g><g><path d="M755.53,432.62h2.05v-6.19h-1.83v-.98h2.87v7.17h1.74v.98h-4.82v-.98Z"/><path d="M764.56,426.98v1.58c0,.96-.74,1.67-1.75,1.67s-1.75-.71-1.75-1.67v-1.58c0-.96,.74-1.66,1.75-1.66s1.75,.7,1.75,1.66Zm-2.73,.02v1.54c0,.54,.37,.94,.98,.94s.98-.4,.98-.94v-1.54c0-.54-.37-.94-.98-.94s-.98,.4-.98,.94Zm5.16-1.56h.79l-3.63,8.16h-.78l3.62-8.16Zm3.07,5.03v1.58c0,.96-.74,1.67-1.75,1.67s-1.74-.71-1.74-1.67v-1.58c0-.96,.74-1.66,1.74-1.66s1.75,.7,1.75,1.66Zm-2.72,.02v1.55c0,.53,.37,.94,.97,.94s.98-.41,.98-.94v-1.55c0-.53-.37-.94-.98-.94s-.97,.41-.97,.94Z"/><path d="M778.09,433.6l-2.64-6.2v6.2h-1.03v-8.16h1.22l2.91,6.85,2.9-6.85h1.21v8.16h-1.03v-6.2l-2.63,6.2h-.92Z"/><path d="M785.09,431.05c.12,1.03,.94,1.76,2.04,1.76,.8,0,1.61-.35,2.1-.73v1.03c-.5,.32-1.27,.61-2.17,.61-1.69,0-2.97-1.27-2.97-3.05s1.25-3.03,2.92-3.03,2.82,1.27,2.82,2.87c0,.18-.02,.42-.05,.54h-4.68Zm0-.79h3.75c-.01-1.06-.83-1.75-1.85-1.75s-1.83,.77-1.91,1.75Z"/><path d="M791.18,428.05c.43-.22,1.03-.41,1.68-.41,1.32,0,2.25,.67,2.25,2.24v3.72h-1v-.64c-.31,.46-.86,.76-1.54,.76-1.28,0-2.04-.89-2.04-1.94s.85-1.92,2.05-1.92c.64,0,1.24,.32,1.52,.68v-.67c0-.94-.66-1.32-1.36-1.32-.58,0-1.12,.19-1.58,.48v-.98Zm1.64,4.91c.71,0,1.28-.52,1.28-1.18s-.6-1.15-1.28-1.15-1.28,.52-1.28,1.15,.59,1.18,1.28,1.18Z"/><path d="M797.11,433.6v-4.98h-1.09v-.86h1.14v-1.43l.95-.25v1.68h1.15v.86h-1.15v4.98h-1Z"/><path d="M801.25,433.6h-1v-8.28h1v8.28Z"/><path d="M805.58,427.64c1.73,0,3.03,1.33,3.03,3.03s-1.31,3.05-3.03,3.05-3.03-1.32-3.03-3.05,1.33-3.03,3.03-3.03Zm0,5.11c1.15,0,2.01-.92,2.01-2.08s-.86-2.05-2.01-2.05-2,.91-2,2.05,.86,2.08,2,2.08Z"/><path d="M810.07,428.05c.43-.22,1.03-.41,1.68-.41,1.32,0,2.25,.67,2.25,2.24v3.72h-1v-.64c-.31,.46-.86,.76-1.54,.76-1.28,0-2.04-.89-2.04-1.94s.85-1.92,2.05-1.92c.64,0,1.24,.32,1.52,.68v-.67c0-.94-.66-1.32-1.36-1.32-.58,0-1.12,.19-1.58,.48v-.98Zm1.64,4.91c.71,0,1.28-.52,1.28-1.18s-.6-1.15-1.28-1.15-1.28,.52-1.28,1.15,.59,1.18,1.28,1.18Z"/><path d="M818.4,428.62h-1.46v4.98h-1v-4.98h-.91v-.86h.91v-.73c0-1.16,.71-1.82,1.83-1.82,.22,0,.55,.05,.7,.1v1.02c-.12-.06-.4-.13-.67-.13-.58,0-.86,.34-.86,.9v.67h1.46v.86Z"/></g></g><g><path class="cls-1" d="M54.41,56.92c0,1.9-2.91,5.26-8.67,5.26-2.63,0-5.03-1.23-6.54-3.52-2.01,1.68-5.65,3.75-10.51,3.75-6.43,0-10.29-3.64-10.29-8.84s4.19-9.28,12.02-9.28c2.63,0,4.7,.34,6.1,.73l-.06-.56c-.5-3.63-2.68-5.48-5.48-5.48-2.46,0-4.31,.73-5.87,1.4-1.01,.45-1.96,.95-2.68,.95-.78,0-1.68-.67-1.68-1.84,0-1.4,1.4-2.8,2.4-3.58,2.52-1.96,6.21-3.3,11.3-3.3,6.82,0,11.69,2.63,12.58,9.28l1.23,9c.45,3.3,1.73,4.08,4.98,4.7,.62,.11,1.17,.56,1.17,1.34Zm-16.5-1.9l-.84-5.98c-.67-.17-1.62-.28-2.8-.28-2.68,0-4.81,1.01-4.81,3.58s1.85,4.08,4.14,4.08c1.68,0,3.36-.73,4.31-1.4Z"/><path class="cls-1" d="M87.41,35.06c0,2.35-2.63,1.51-4.36,5.65l-7.83,18.51c-.73,1.68-1.23,3.08-5.76,3.08s-5.03-1.17-5.87-3.08l-7.94-18.51c-1.85-4.31-4.31-3.3-4.31-5.65,0-1.12,.95-1.79,2.13-1.79,1.45,0,3.41,.17,6.93,.17s5.14-.17,6.82-.17c1.79,0,2.63,.73,2.63,1.79,0,2.24-2.4,1.79-2.4,4.36,0,1.12,.34,2.13,.95,3.69l3.8,10.07,3.86-10.07c.67-1.79,1.01-2.8,1.01-3.8,0-2.18-2.52-2.01-2.52-4.25,0-1.06,.78-1.79,2.57-1.79,1.17,0,2.52,.17,4.03,.17,1.4,0,3.13-.17,4.14-.17,1.23,0,2.13,.73,2.13,1.79Z"/><path class="cls-1" d="M87.01,48.09c0-9.12,7.55-15.88,18.45-15.88s17,6.71,17,14.93c0,9.34-7.89,15.83-18.4,15.83s-17.06-6.71-17.06-14.88Zm23.71,1.57c0-4.7-2.46-12.3-7.1-12.3-3.24,0-4.87,2.63-4.87,8.22,0,4.59,2.4,12.25,7.1,12.25,3.3,0,4.87-2.63,4.87-8.16Z"/><path class="cls-1" d="M124.93,48.2c0-9.9,8.05-15.94,16.5-15.94,7.27,0,12.75,4.53,12.75,7.83,0,1.51-1.12,3.52-4.59,5.82-1.06,.73-1.68,.84-2.18,.84-1.23,0-1.96-.95-2.18-2.01-.62-3.08-1.4-8.22-4.98-8.22-2.63,0-4.14,2.74-4.14,7.1,0,7.89,4.98,12.19,9.62,12.19,3.41,0,5.59-1.73,7.21-2.91,.61-.45,.95-.61,1.4-.61,.9,0,1.4,.84,1.4,1.51,0,.5-.17,1.06-.45,1.73-1.34,3.08-6.04,7.44-14.48,7.44-9.06,0-15.88-5.7-15.88-14.76Z"/><path class="cls-1" d="M193.15,56.92c0,1.9-2.91,5.26-8.67,5.26-2.63,0-5.03-1.23-6.54-3.52-2.01,1.68-5.65,3.75-10.51,3.75-6.43,0-10.29-3.64-10.29-8.84s4.19-9.28,12.02-9.28c2.63,0,4.7,.34,6.1,.73l-.06-.56c-.5-3.63-2.68-5.48-5.48-5.48-2.46,0-4.31,.73-5.87,1.4-1.01,.45-1.96,.95-2.68,.95-.78,0-1.68-.67-1.68-1.84,0-1.4,1.4-2.8,2.4-3.58,2.52-1.96,6.21-3.3,11.3-3.3,6.82,0,11.69,2.63,12.58,9.28l1.23,9c.45,3.3,1.73,4.08,4.98,4.7,.62,.11,1.17,.56,1.17,1.34Zm-16.5-1.9l-.84-5.98c-.67-.17-1.62-.28-2.8-.28-2.68,0-4.81,1.01-4.81,3.58s1.85,4.08,4.14,4.08c1.68,0,3.36-.73,4.31-1.4Z"/><path class="cls-1" d="M231.18,56.98c0,1.68-1.68,2.35-6.71,4.03-4.03,1.34-5.03,1.57-5.65,1.57-1.9,0-2.13-1.85-2.13-3.3v-2.18c-2.13,3.13-5.54,5.65-10.51,5.65-7.1,0-12.69-5.37-12.69-14.54s6.77-15.71,15.6-15.71c3.19,0,5.7,.84,7.61,2.29v-4.92c0-3.63-4.19-2.13-4.19-5.03,0-1.45,1.73-2.24,6.99-4.31,4.42-1.73,5.2-1.73,5.93-1.73,1.73,0,2.13,1.51,2.13,3.19v29.81c0,3.64,3.64,2.74,3.64,5.2Zm-14.48-8.89v-.78c0-5.14-2.63-9.67-6.6-9.67-2.85,0-5.09,2.4-5.09,7.55,0,6.15,3.08,10.23,6.43,10.23s5.26-3.19,5.26-7.33Z"/><path class="cls-1" d="M268.4,46.4c0,11.66-7.92,18.07-17.69,18.07s-17.69-6.41-17.69-18.07c0-18,9.92-27.61,17.69-27.61s17.69,9.62,17.69,27.61Z"/><circle cx="250.71" cy="45.21" r="7.58"/></g><g><path class="cls-9" d="M359.9,86.27c-1.72,.72-3.68,1.12-5.72,1.12-7.96,0-14-6.08-14-14.04s6.04-14.04,14-14.04c2.04,0,4,.4,5.72,1.12v7.8c-1.32-1.24-3.32-2.12-5.72-2.12-4,0-7,3.28-7,7.24s3,7.24,7,7.24c2.4,0,4.48-.88,5.72-2.04v7.72Z"/><path class="cls-9" d="M372.7,66.39c5.92,0,10.48,4.56,10.48,10.48s-4.56,10.52-10.48,10.52-10.48-4.6-10.48-10.52,4.56-10.48,10.48-10.48Zm0,14.64c2.28,0,3.88-1.92,3.88-4.16s-1.6-4.12-3.88-4.12-3.88,1.88-3.88,4.12,1.64,4.16,3.88,4.16Z"/><path class="cls-9" d="M392.66,68.71c.96-1.32,2.44-2.32,4.56-2.32,.4,0,1.08,.04,1.52,.12v6.88c-.84-.36-1.88-.64-3.2-.64-1.52,0-2.76,.96-2.88,2.68v11.52h-6.52v-20.16h6.52v1.92Z"/><path class="cls-9" d="M406.58,78.83c.48,1.72,2.16,2.72,4.52,2.72s4.72-.52,6.64-1.6v6.12c-1.84,.88-4.4,1.32-7.2,1.32-6.04,0-10.48-4.16-10.48-10.52,0-5.92,4.24-10.48,10.08-10.48s9.28,4.4,9.28,9.44c0,1-.16,2.28-.36,3h-12.48Zm-.04-4.84h6.68c-.12-1.32-1.32-2.24-3.12-2.24s-3.24,1.04-3.56,2.24Z"/><path class="cls-9" d="M426.94,85.43l-7.24-18.64h7.32l3.48,10.4,3.84-10.4h7.32l-11.84,28.35h-7.52l4.64-9.72Z"/><path class="cls-9" d="M442.86,71.63l1.08-11.88h7.2l-2.28,11.88h-6Z"/><path class="cls-9" d="M465.74,73.23c-1.24-.68-3.08-1.24-4.32-1.24-1,0-1.36,.48-1.36,.92s.32,.68,.88,1.04l2.6,1.48c2.32,1.4,3.24,3.4,3.24,5.56,0,3.52-2.52,6.4-7.64,6.4-1.68,0-3.76-.32-5.24-.88v-6.4c.88,.8,3.36,1.76,4.76,1.76,.96,0,1.4-.44,1.4-1,0-.44-.28-.84-1-1.24l-2.84-1.64c-2.12-1.2-2.88-3.28-2.88-5.32,0-3.76,2.88-6.28,7.8-6.28,1.32,0,3.24,.2,4.6,.56v6.28Z"/><path class="cls-9" d="M496.98,86.27c-1.72,.72-3.68,1.12-5.72,1.12-7.96,0-14-6.08-14-14.04s6.04-14.04,14-14.04c2.04,0,4,.4,5.72,1.12v7.8c-1.32-1.24-3.32-2.12-5.72-2.12-4,0-7,3.28-7,7.24s3,7.24,7,7.24c2.4,0,4.48-.88,5.72-2.04v7.72Z"/><path class="cls-9" d="M509.78,66.39c5.92,0,10.48,4.56,10.48,10.48s-4.56,10.52-10.48,10.52-10.48-4.6-10.48-10.52,4.56-10.48,10.48-10.48Zm0,14.64c2.28,0,3.88-1.92,3.88-4.16s-1.6-4.12-3.88-4.12-3.88,1.88-3.88,4.12,1.64,4.16,3.88,4.16Z"/><path class="cls-9" d="M534.9,84.75c-1,1.52-2.56,2.64-4.92,2.64-4.12,0-6.84-3.16-6.84-7.36v-13.24h6.52v11.28c0,1.84,1,2.96,2.6,2.96s2.52-1,2.64-2.68v-11.56h6.52v20.16h-6.52v-2.2Z"/><path class="cls-9" d="M552.1,69.03c1.04-1.52,2.6-2.64,4.92-2.64,4.16,0,6.88,3.16,6.88,7.36v13.2h-6.52v-11.28c0-1.8-1.04-2.92-2.64-2.92s-2.56,.96-2.64,2.68v11.52h-6.52v-20.16h6.52v2.24Z"/><path class="cls-9" d="M569.22,86.95v-14.6h-2.72v-5.56h3.12v-4.12l6.12-1.32v5.44h3.12v5.56h-3.12v14.6h-6.52Z"/><path class="cls-9" d="M587.94,68.71c.96-1.32,2.44-2.32,4.56-2.32,.4,0,1.08,.04,1.52,.12v6.88c-.84-.36-1.88-.64-3.2-.64-1.52,0-2.76,.96-2.88,2.68v11.52h-6.52v-20.16h6.52v1.92Z"/><path class="cls-9" d="M601.7,85.43l-7.24-18.64h7.32l3.48,10.4,3.84-10.4h7.32l-11.84,28.35h-7.52l4.64-9.72Z"/><path class="cls-9" d="M625.98,59.75h6.8v9.84l5.44-9.84h7.88l-6.84,11.16,7.24,16.04h-7.92l-4.24-10.2-1.56,2.52v7.68h-6.8v-27.2Z"/><path class="cls-9" d="M651.86,57.43c2.16,0,3.72,1.68,3.72,3.72s-1.56,3.72-3.72,3.72-3.72-1.6-3.72-3.72,1.6-3.72,3.72-3.72Zm3.28,29.51h-6.52v-20.16h6.52v20.16Z"/><path class="cls-9" d="M660.78,86.95v-14.6h-2.72v-5.56h3.12v-4.12l6.12-1.32v5.44h3.12v5.56h-3.12v14.6h-6.52Z"/><path class="cls-9" d="M686.5,86.62c-1,.48-2.96,.76-4.12,.76-6.48,0-10.68-4.6-10.68-10.52s4.2-10.48,10.68-10.48c1.16,0,3.12,.28,4.12,.72v6.84c-.92-.6-2.36-1.2-4.12-1.2-2.4,0-4.08,1.88-4.08,4.12s1.68,4.16,4.08,4.16c1.72,0,3.2-.6,4.12-1.2v6.8Z"/><path class="cls-9" d="M696.58,69.03c1.08-1.52,2.64-2.64,4.92-2.64,4.16,0,6.88,3.16,6.88,7.36v13.2h-6.52v-11.28c0-1.8-1.04-2.92-2.6-2.92s-2.6,.96-2.68,2.68v11.52h-6.52v-27.6h6.52v9.68Z"/><path class="cls-9" d="M717.74,78.83c.48,1.72,2.16,2.72,4.52,2.72s4.72-.52,6.64-1.6v6.12c-1.84,.88-4.4,1.32-7.2,1.32-6.04,0-10.48-4.16-10.48-10.52,0-5.92,4.24-10.48,10.08-10.48s9.28,4.4,9.28,9.44c0,1-.16,2.28-.36,3h-12.48Zm-.04-4.84h6.68c-.12-1.32-1.32-2.24-3.12-2.24s-3.24,1.04-3.56,2.24Z"/><path class="cls-9" d="M739.98,69.03c1.04-1.52,2.6-2.64,4.92-2.64,4.16,0,6.88,3.16,6.88,7.36v13.2h-6.52v-11.28c0-1.8-1.04-2.92-2.64-2.92s-2.56,.96-2.64,2.68v11.52h-6.52v-20.16h6.52v2.24Z"/></g></g></g></svg>