<?xml version="1.0" encoding="UTF-8"?><svg id="Layer_2" xmlns="http://www.w3.org/2000/svg" viewBox="0 0 578.02 928.65"><defs><style>.cls-1{fill:#eeeae3;}.cls-2{fill:#fffbf7;}.cls-3{fill:#95d8f6;}.cls-4{fill:#d1d1c7;}.cls-5{fill:#145a3c;}.cls-6{fill:#387f5f;}</style></defs><g id="Layer_1-2"><g><rect class="cls-4" x="38.98" y="839.48" width="499.42" height="27.29" rx="13.64" ry="13.64"/><polygon class="cls-4" points="18.93 323.45 90.93 251.45 486.44 251.45 558.44 323.45 558.44 377.45 18.93 377.45 18.93 323.45"/><polygon points="115.51 838.05 105.02 839.17 12.36 10.29 31.79 8.23 115.51 838.05"/><polygon points="128.74 840.17 118.21 840.69 72.26 7.92 91.78 6.95 128.74 840.17"/><g><path class="cls-6" d="M476.87,390.04c0,124.05-84.25,192.19-188.18,192.19s-188.18-68.14-188.18-192.19c0-191.43,105.52-293.74,188.18-293.74s188.18,102.3,188.18,293.74Z"/><path class="cls-5" d="M101.45,359.45c-.61,9.93-.94,20.12-.94,30.59,0,124.05,84.25,192.19,188.18,192.19s188.18-68.14,188.18-192.19c0-10.47-.33-20.66-.94-30.59H101.45Z"/><circle cx="288.69" cy="377.45" r="80.67"/></g><polygon class="cls-2" points="18.93 377.45 558.44 377.45 513.44 848.91 63.93 848.91 18.93 377.45"/><polygon class="cls-4" points="63.93 848.91 288.69 660.38 513.44 848.91 288.69 624.38 63.93 848.91"/><polygon class="cls-4" points="201.77 377.45 288.69 464.37 375.61 377.45 288.69 437.37 201.77 377.45"/><path class="cls-3" d="M288.69,712.25c-18.27,0-41.6,22.61-41.6,64.93,0,27.42,18.62,42.48,41.6,42.48s41.6-15.06,41.6-42.48c0-42.32-23.33-64.93-41.6-64.93Zm0,79.98c-9.85,0-17.83-7.98-17.83-17.83s7.98-17.83,17.83-17.83,17.83,7.98,17.83,17.83-7.98,17.83-17.83,17.83Z"/><polygon class="cls-1" points="368.74 544.42 306.69 642.38 288.69 624.38 368.74 544.42"/><polygon class="cls-1" points="368.74 544.42 288.69 464.37 306.69 446.37 368.74 544.42"/><path class="cls-1" d="M291.17,549.08c-2.4-1.37-5.45-.54-6.82,1.86-1.37,2.4-.54,5.45,1.86,6.82l44.01,25.14,7.33-7.33-46.38-26.5Z"/><g><path class="cls-1" d="M575.5,720.52l-233.73-133.53-5.36,8.46,234.12,133.76c.78,.45,1.63,.66,2.48,.66,1.74,0,3.42-.91,4.35-2.52,1.37-2.4,.54-5.45-1.86-6.82Z"/><polygon class="cls-4" points="331.82 581.3 324.48 588.63 336.42 595.44 341.78 586.99 331.82 581.3"/></g><path d="M575.5,702.52l-284.33-162.44c-2.4-1.37-5.45-.54-6.82,1.86-1.37,2.4-.54,5.45,1.86,6.82l284.33,162.44c.78,.45,1.63,.66,2.48,.66,1.74,0,3.42-.91,4.35-2.52,1.37-2.4,.54-5.45-1.86-6.82Z"/><polygon class="cls-2" points="572.4 178.6 553.42 377.45 558.44 377.45 577.38 179.08 572.4 178.6"/><polygon class="cls-2" points="4.98 178.6 23.96 377.45 18.93 377.45 0 179.08 4.98 178.6"/><g><path class="cls-6" d="M181.89,919.6c0,2.28-3.49,6.31-10.4,6.31-3.15,0-6.04-1.48-7.85-4.23-2.42,2.01-6.78,4.5-12.62,4.5-7.72,0-12.35-4.36-12.35-10.6s5.03-11.14,14.43-11.14c3.15,0,5.64,.4,7.32,.87l-.07-.67c-.6-4.36-3.22-6.58-6.58-6.58-2.95,0-5.17,.87-7.05,1.68-1.21,.54-2.35,1.14-3.22,1.14-.94,0-2.01-.8-2.01-2.21,0-1.68,1.68-3.36,2.89-4.3,3.02-2.35,7.45-3.96,13.56-3.96,8.19,0,14.03,3.16,15.1,11.14l1.48,10.81c.54,3.96,2.08,4.9,5.97,5.64,.74,.13,1.41,.67,1.41,1.61Zm-19.8-2.28l-1.01-7.18c-.81-.2-1.95-.34-3.36-.34-3.22,0-5.77,1.21-5.77,4.3s2.22,4.9,4.97,4.9c2.01,0,4.03-.87,5.17-1.68Z"/><path class="cls-6" d="M221.49,893.36c0,2.82-3.15,1.81-5.24,6.78l-9.4,22.22c-.87,2.01-1.48,3.69-6.91,3.69s-6.04-1.41-7.05-3.69l-9.53-22.22c-2.22-5.17-5.17-3.96-5.17-6.78,0-1.34,1.14-2.15,2.55-2.15,1.74,0,4.09,.2,8.32,.2s6.17-.2,8.19-.2c2.15,0,3.15,.87,3.15,2.15,0,2.68-2.89,2.15-2.89,5.23,0,1.34,.4,2.55,1.14,4.43l4.56,12.08,4.63-12.08c.81-2.15,1.21-3.36,1.21-4.56,0-2.62-3.02-2.42-3.02-5.1,0-1.28,.94-2.15,3.09-2.15,1.41,0,3.02,.2,4.83,.2,1.68,0,3.76-.2,4.97-.2,1.48,0,2.55,.87,2.55,2.15Z"/><path class="cls-6" d="M221.02,909c0-10.94,9.06-19.06,22.15-19.06s20.4,8.05,20.4,17.92c0,11.21-9.46,18.99-22.08,18.99s-20.47-8.05-20.47-17.85Zm28.46,1.88c0-5.64-2.95-14.77-8.52-14.77-3.89,0-5.84,3.15-5.84,9.87,0,5.5,2.89,14.7,8.52,14.7,3.96,0,5.84-3.16,5.84-9.8Z"/><path class="cls-6" d="M266.52,909.13c0-11.88,9.67-19.13,19.8-19.13,8.72,0,15.3,5.44,15.3,9.4,0,1.81-1.34,4.23-5.5,6.98-1.28,.87-2.01,1.01-2.62,1.01-1.48,0-2.35-1.14-2.62-2.42-.74-3.69-1.68-9.87-5.97-9.87-3.15,0-4.97,3.29-4.97,8.52,0,9.46,5.97,14.63,11.54,14.63,4.09,0,6.71-2.08,8.66-3.49,.74-.54,1.14-.74,1.68-.74,1.07,0,1.68,1.01,1.68,1.81,0,.6-.2,1.27-.54,2.08-1.61,3.69-7.25,8.93-17.38,8.93-10.87,0-19.06-6.85-19.06-17.72Z"/><path class="cls-6" d="M348.4,919.6c0,2.28-3.49,6.31-10.4,6.31-3.15,0-6.04-1.48-7.85-4.23-2.42,2.01-6.78,4.5-12.62,4.5-7.72,0-12.35-4.36-12.35-10.6s5.03-11.14,14.43-11.14c3.15,0,5.64,.4,7.32,.87l-.07-.67c-.6-4.36-3.22-6.58-6.58-6.58-2.95,0-5.17,.87-7.05,1.68-1.21,.54-2.35,1.14-3.22,1.14-.94,0-2.01-.8-2.01-2.21,0-1.68,1.68-3.36,2.89-4.3,3.02-2.35,7.45-3.96,13.56-3.96,8.19,0,14.03,3.16,15.1,11.14l1.48,10.81c.54,3.96,2.08,4.9,5.97,5.64,.74,.13,1.41,.67,1.41,1.61Zm-19.8-2.28l-1.01-7.18c-.81-.2-1.95-.34-3.36-.34-3.22,0-5.77,1.21-5.77,4.3s2.22,4.9,4.97,4.9c2.01,0,4.03-.87,5.17-1.68Z"/><path class="cls-6" d="M394.04,919.67c0,2.01-2.01,2.82-8.05,4.83-4.83,1.61-6.04,1.88-6.78,1.88-2.28,0-2.55-2.22-2.55-3.96v-2.62c-2.55,3.76-6.64,6.78-12.62,6.78-8.52,0-15.24-6.44-15.24-17.45s8.12-18.86,18.73-18.86c3.83,0,6.85,1.01,9.13,2.75v-5.91c0-4.36-5.03-2.55-5.03-6.04,0-1.74,2.08-2.68,8.39-5.17,5.3-2.08,6.24-2.08,7.11-2.08,2.08,0,2.55,1.81,2.55,3.83v35.77c0,4.36,4.36,3.29,4.36,6.24Zm-17.38-10.67v-.94c0-6.17-3.15-11.61-7.92-11.61-3.42,0-6.11,2.88-6.11,9.06,0,7.38,3.69,12.28,7.72,12.28s6.31-3.83,6.31-8.79Z"/><path class="cls-6" d="M438.71,906.97c0,14-9.51,21.68-21.23,21.68s-21.23-7.69-21.23-21.68c0-21.6,11.91-33.14,21.23-33.14s21.23,11.54,21.23,33.14Z"/><circle cx="417.48" cy="905.55" r="9.1"/></g><g><path class="cls-3" d="M73.49,498.74l8.19-46.43,32.77,5.78-2.52,14.26-18.44-3.25-.84,4.78,14.76,1.29-1.79,9.74-14.32-3.36-.96,5.45,18.84,3.32-2.52,14.27-33.17-5.85Z"/><path class="cls-3" d="M112.05,505.54l3.9-22.14,1.34-13.91,12.85,2.27-1.14,11.18,.47,.08c2.83-9.77,8.83-10.72,13.4-9.92,6.86,1.21,9.88,6.53,8.56,14l-4.34,24.63-13.59-2.4,3.44-19.51c.45-2.56-.15-4.26-2.51-4.67-2.76-.49-5.03,1.4-5.6,4.63l-3.2,18.17-13.59-2.4Z"/><path class="cls-3" d="M154.97,490.35l2.44-13.86,17.7,3.12-6.25,35.46c-1.4,7.94-6.08,13.63-17.19,12.09l-3-9.75c4.61-1.34,6.3-2.71,7.14-7.41l3.33-18.91-4.17-.74Zm6.87-21.27c.59-3.36,2.95-5.72,8.54-4.74,5.52,.97,7.14,3.96,6.55,7.33s-3.15,5.69-8.67,4.72c-5.45-.96-7.01-3.94-6.41-7.31Z"/><path class="cls-3" d="M176.19,498.25c1.93-10.97,9.56-17.6,21.6-15.48,11.98,2.11,16.94,10.97,15,21.93s-9.65,17.72-21.62,15.61c-12.04-2.12-16.91-11.1-14.98-22.07Zm24.09,4.25c.68-3.84-.88-6.05-4.78-6.74s-6.25,.84-6.93,4.67c-.69,3.9,.93,6.13,4.83,6.82,3.97,.7,6.19-.85,6.88-4.75Z"/><path class="cls-3" d="M240.16,491.15l13.26,2.34-16.82,32.83c-3.4,6.68-9.33,13.55-18.61,11.91-5.31-.94-9.37-4.29-10.88-8.3l7.46-8.88,.74,.13c1.7,2.17,3.38,3.65,5.8,4.08,2.89,.51,4.56-.65,5.9-3.54l.11-.26-6.18-1.16-5.47-33.5,13.46,2.37,2.25,20.31,.2,.04,8.79-18.36Z"/></g><g><path class="cls-3" d="M373.8,495.81l-4.11-23.29-7.39,1.3-1.88-10.69,25.31-4.46,1.88,10.69-7.44,1.31,4.11,23.29-10.49,1.85Z"/><path class="cls-3" d="M394.92,492.08l-5.99-33.98,9.95-1.75,1.15,6.55c.23,1.28,.67,5.82,.55,9.45l.69-.12c-.5-7.43,3.44-9.59,6.74-10.17,5.02-.89,8.44,2.07,9.39,7.48l3.18,18.02-9.95,1.75-2.52-14.28c-.33-1.87-1.16-2.84-2.84-2.55-2.07,.36-3.17,2.18-2.75,4.55l2.34,13.3-9.95,1.75Z"/><path class="cls-3" d="M422.45,479.77c-.8-4.53,2.28-7.51,7.7-8.47,4.28-.76,6.57,.67,7.41,2.3l.2-.03-.6-3.4c-.35-1.97-1.73-3.2-4.24-2.76-2.27,.4-3.32,1.35-2.99,3.22l-.44,.08-8.18-.03c-1.77-6.29,1.64-11.15,10.6-12.73,7.09-1.25,13.15,.88,14.53,8.66l1.12,6.35,2.47,9.41-9.16,1.62-1.93-6.06-.34,.06c.4,4.6-2.31,7.36-7.08,8.21s-8.23-1.75-9.05-6.43Zm15.96-3.93c-.2-1.13-1.67-1.38-3.54-1.05s-3.16,1.07-2.95,2.25,1.62,1.39,3.54,1.05,3.15-1.16,2.96-2.25Z"/><path class="cls-3" d="M453.71,481.72l-2.86-16.2-2.56-9.91,9.41-1.66,2.01,7.97,.35-.06c-.5-7.43,3.39-9.58,6.74-10.17,5.02-.89,8.43,2.02,9.39,7.48l3.18,18.02-9.95,1.75-2.52-14.28c-.33-1.87-1.17-2.89-2.89-2.59-2.02,.36-3.11,2.22-2.69,4.59l2.34,13.3-9.95,1.75Z"/><path class="cls-3" d="M500.71,458l10.96,13.5-11.38,1.96-7.43-9.61-1.08,.19,1.88,10.64-9.95,1.75-6-34.03,9.96-1.7,3.2,18.17,4.36-11.53,10.93-1.93-5.45,12.59Z"/><path class="cls-3" d="M412.63,535.67l-2.08-11.82-15.09-20.19,11.33-2,7.07,11.29,.3-.05,2.83-13.04,11.33-2-7.28,24.08,2.09,11.87-10.49,1.85Z"/><path class="cls-3" d="M428.92,519.19c-1.42-8.03,2.17-14.5,10.98-16.05,8.77-1.55,14.39,3.3,15.81,11.33,1.42,8.03-2.2,14.6-10.96,16.15-8.81,1.55-14.41-3.4-15.83-11.43Zm17.63-3.11c-.49-2.81-2.12-3.94-4.97-3.44s-4.09,2.14-3.6,4.95c.5,2.86,2.17,3.98,5.03,3.48s4.04-2.13,3.54-4.99Z"/><path class="cls-3" d="M459.73,518.84l-3.17-17.97,9.95-1.75,2.51,14.23c.33,1.87,1.16,2.84,2.89,2.54,2.07-.36,3.12-2.18,2.7-4.54l-2.34-13.25,9.95-1.75,2.89,16.4,2.77,9.67-9.65,1.7-2.02-8.02-.35,.06c.49,7.38-3.39,9.58-6.74,10.17-5.02,.89-8.43-2.02-9.39-7.48Z"/></g><g><rect class="cls-3" x="109.73" y="131.91" width="357.92" height="37.6"/><rect class="cls-3" x="124.75" y="33.37" width="327.88" height="37.6"/><rect class="cls-3" x="150.53" y="227.23" width="276.06" height="37.6"/><g><path d="M147.2,61.96V19.55h-13.45V.09h46.09V19.55h-13.54V61.96h-19.1Z"/><path d="M185.66,61.96V.09h18.11V12.02c0,2.33-.63,10.49-1.97,16.86h1.25c1.44-13.27,9.06-15.87,15.06-15.87,9.15,0,14.26,6.28,14.26,16.14V61.96h-18.11v-26c0-3.41-1.17-5.38-4.22-5.38-3.77,0-6.28,2.87-6.28,7.17v24.21h-18.11Z"/><path d="M238.12,48.78c0-8.25,6.37-12.55,16.23-12.55,7.8,0,11.39,3.23,12.37,6.37h.36v-6.19c0-3.59-2.06-6.19-6.64-6.19-4.13,0-6.28,1.34-6.28,4.75h-.81l-14.44-2.6c-1.17-11.66,6.37-19.19,22.69-19.19,12.91,0,22.96,5.65,22.96,19.82v11.57l1.44,17.4h-16.68l-1.53-11.3h-.63c-.72,8.25-6.37,12.29-15.06,12.29s-13.99-5.65-13.99-14.17Zm29.41-1.97c0-2.06-2.51-2.96-5.92-2.96s-5.92,.9-5.92,3.05,2.42,2.96,5.92,2.96,5.92-1.08,5.92-3.05Z"/><path d="M292.72,61.96v-29.5l-1.43-18.29h17.13l1.08,14.71h.63c1.43-13.27,8.97-15.87,15.06-15.87,9.15,0,14.26,6.19,14.26,16.14V61.96h-18.11v-26c0-3.41-1.17-5.47-4.3-5.47-3.68,0-6.19,2.96-6.19,7.26v24.21h-18.11Z"/><path d="M383.11,34.7l15.15,27.26-20.71-.09-10.13-19.28h-1.97v19.37h-18.11V0l18.11,.09V33.18l11.3-19.01h19.91l-13.54,20.53Z"/><path d="M397.36,50.31l10.4-6.82h.63c1.52,3.95,5.2,5.02,11.48,5.02,3.68,0,6.99-.54,6.99-2.96,0-2.06-4.75-2.24-9.15-2.6-9.24-.63-18.29-2.69-18.29-14.17,0-9.68,7.62-15.78,21.61-15.78,11.39,0,20.62,3.05,21.7,12.37l-10.31,6.99h-.81c-.54-3.77-5.65-4.66-9.68-4.66s-5.83,1.26-5.83,2.69c0,2.6,5.38,2.6,9.6,2.87,9.41,.54,17.93,2.42,17.93,13.18s-10.49,16.59-22.33,16.59-20.98-1.88-23.94-12.73Z"/></g><g><path d="M126.35,160.51v-31.3l-7.62,.54v-15.87l7.62,.63v-1.08c0-12.37,8.79-18.11,18.83-18.11,3.41,0,7.08,.54,10.94,1.7v14.62h-.9c-1.7-.63-4.22-1.34-6.55-1.34-3.77,0-5.11,1.43-5.11,3.59v.9l11.84-1.08v16.5l-10.94-.9v31.21h-18.11Z"/><path d="M157.73,136.48c0-14.62,8.34-24.93,24.39-24.93s24.39,10.31,24.39,24.93-8.43,25.11-24.39,25.11-24.39-10.49-24.39-25.11Zm32.1,0c0-5.11-2.51-7.62-7.71-7.62s-7.89,2.51-7.89,7.62,2.6,7.71,7.8,7.71,7.8-2.51,7.8-7.71Z"/><path d="M212.25,160.51v-29.5l-1.43-18.29h17.22l1.17,15.69h1.34c.27-12.55,5.29-16.41,12.73-16.41,1.8,0,2.42,.27,2.42,.27l-.09,20.8c-1.17-.27-2.96-.54-4.66-.54-7.71,0-10.49,2.69-10.49,7.44v20.54h-18.2Z"/><path d="M297.34,112.71h17.67l-14.26,46.27c-2.87,9.41-8.97,19.64-21.34,19.64-7.08,0-13.09-3.41-15.96-8.25l7.62-13.18h.99c2.69,2.42,5.2,3.95,8.43,3.95,3.86,0,5.74-1.88,6.82-5.92l.09-.36-8.25-.09-14.71-42.06h17.93l7.53,25.74h.27l7.17-25.74Z"/><path d="M314.56,136.48c0-14.62,8.34-24.93,24.39-24.93s24.39,10.31,24.39,24.93-8.43,25.11-24.39,25.11-24.39-10.49-24.39-25.11Zm32.1,0c0-5.11-2.51-7.62-7.71-7.62s-7.89,2.51-7.89,7.62,2.6,7.71,7.8,7.71,7.8-2.51,7.8-7.71Z"/><path d="M369.07,145.44v-32.73h18.11v25.91c0,3.41,1.17,5.38,4.3,5.38,3.77,0,6.19-2.87,6.19-7.17v-24.12h18.11v29.86l1.88,17.93h-17.58l-1.08-14.8h-.63c-1.43,13.18-8.97,15.87-15.06,15.87-9.15,0-14.26-6.19-14.26-16.14Z"/><path d="M425.2,160.51v-29.5l-1.43-18.29h17.22l1.17,15.69h1.34c.27-12.55,5.29-16.41,12.73-16.41,1.79,0,2.42,.27,2.42,.27l-.09,20.8c-1.17-.27-2.96-.54-4.66-.54-7.71,0-10.49,2.69-10.49,7.44v20.54h-18.2Z"/></g><g><path d="M159.53,231.8c0-14.62,8.34-24.93,24.39-24.93s24.39,10.31,24.39,24.93-8.43,25.11-24.39,25.11-24.39-10.49-24.39-25.11Zm32.1,0c0-5.11-2.51-7.62-7.71-7.62s-7.89,2.51-7.89,7.62,2.6,7.71,7.8,7.71,7.8-2.51,7.8-7.71Z"/><path d="M214.04,255.83v-29.5l-1.43-18.29h17.22l1.17,15.69h1.34c.27-12.55,5.29-16.41,12.73-16.41,1.79,0,2.42,.27,2.42,.27l-.09,20.8c-1.17-.27-2.96-.54-4.66-.54-7.71,0-10.49,2.69-10.49,7.44v20.54h-18.2Z"/><path d="M250.63,232.06c0-18.2,8.7-25.2,17.84-25.2,6.64,0,12.47,3.68,13.81,15.96h1.16c-.99-7.53-.99-13.63-.99-16.23v-12.64h18.11v44.12l1.7,17.75h-17.49l-1.26-15.51h-.81c-.99,12.55-7.62,16.59-15.69,16.59-9.5-.09-16.41-7.53-16.41-24.84Zm32.01-.09c0-4.3-2.51-6.72-7.44-6.72-3.95,0-6.99,1.7-6.91,6.72,0,5.2,2.96,6.81,6.99,6.81,5.02,0,7.35-2.24,7.35-6.81Z"/><path d="M345.94,235.38l7.8,11.75c-3.95,5.47-10.76,9.77-22.42,9.77-16.5,0-25.74-9.59-25.74-24.93,0-16.77,10.76-25.02,25.02-25.02s23.13,7.62,23.13,21.34c0,1.61-.18,3.5-.36,5.38h-30.13c.36,4.3,3.86,6.46,9.68,6.46s9.41-1.52,12.29-4.75h.72Zm-22.69-7.53l13.54-.18c-.27-3.41-2.6-5.65-6.55-5.65-3.41,0-6.37,1.61-6.99,5.83Z"/><path d="M360.02,255.83v-29.5l-1.43-18.29h17.22l1.17,15.69h1.34c.27-12.55,5.29-16.41,12.73-16.41,1.8,0,2.42,.27,2.42,.27l-.09,20.8c-1.17-.27-2.96-.54-4.66-.54-7.71,0-10.49,2.69-10.49,7.44v20.54h-18.2Z"/><path d="M403.86,233.41l-6.37-39.45h20.36l-6.37,39.45h-7.62Zm-6.1,13.09c0-5.83,3.86-10.13,9.86-10.13s9.95,4.3,9.95,10.13-3.95,10.13-9.95,10.13-9.86-4.22-9.86-10.13Z"/></g></g></g></g></svg>