<?xml version="1.0" encoding="UTF-8"?><svg id="Layer_2" xmlns="http://www.w3.org/2000/svg" viewBox="0 0 331.24 204.6"><defs><style>.cls-1{fill:#003d3b;}.cls-2{fill:#0069a5;}.cls-3{fill:#e5fff9;}</style></defs><g id="Layer_1-2"><g><g><path class="cls-1" d="M330.97,102.3c0-16.73-10.67-30.97-25.58-36.28,2.62-3.01,4.21-6.93,4.21-11.23,0-9.47-7.68-17.15-17.15-17.15v-6.78c0-16.9-13.7-30.59-30.59-30.59H69.38c-16.9,0-30.59,13.7-30.59,30.59v6.78c-9.47,0-17.15,7.68-17.15,17.15,0,4.3,1.6,8.22,4.21,11.23C10.95,71.34,.28,85.57,.28,102.3s10.67,30.97,25.58,36.28c-2.62,3.01-4.21,6.93-4.21,11.23,0,9.47,7.68,17.15,17.15,17.15v6.78c0,16.9,13.7,30.59,30.59,30.59h192.48c16.9,0,30.59-13.7,30.59-30.59v-6.78c9.47,0,17.15-7.68,17.15-17.15,0-4.3-1.6-8.22-4.21-11.23,14.91-5.31,25.58-19.55,25.58-36.28Z"/><circle class="cls-3" cx="38.79" cy="149.82" r="7.36"/><circle class="cls-3" cx="292.45" cy="149.82" r="7.36"/><circle class="cls-3" cx="38.79" cy="54.79" r="7.36"/><circle class="cls-3" cx="292.45" cy="54.79" r="7.36"/></g><g><g><g><path class="cls-3" d="M76.54,108.25v-6.55c0-17.73,0-22.6-7.91-25.88l-.16-.88c1.04-.48,3.12-.72,4.71-.72,4.71,0,6.47,.8,8.31,1.92,1.84-1.04,3.67-1.92,8.39-1.92,1.44,0,3.59,.24,4.63,.72l-.08,.88c-7.91,3.27-7.91,8.15-7.91,25.88v6.55c0,13.1-5.51,23.24-20.21,23.24-7.27,0-10.7-2.24-11.74-3.59-2,.16-5.03,1.76-5.67,3.27l-.88-.16c-.16-.24-.24-.72-.24-1.2,0-1.84,1.36-3.83,2.88-5.43-.48-1.52-.64-3.12-.64-4.63,0-2.88,.72-5.99,2.88-8.86l.8,.32c.88,10.54,5.83,15.01,12.06,15.01,9.5,0,10.78-9.18,10.78-17.97Z"/><path class="cls-3" d="M140.19,106.97c0-17.65,0-22.28-6.87-25.72l-.08-.8c.72-.4,2.16-.64,3.51-.64,2.24,0,4.15,.64,5.83,1.76,2-1.36,3.43-1.76,5.67-1.76,1.68,0,2.88,.24,3.59,.64v.8c-6.95,3.43-6.95,8.07-6.95,25.72v5.11c0,11.34-6.39,19.17-19.81,19.17-12.54,0-21.08-5.83-21.08-19.17v-5.27c0-17.57,0-22.12-5.83-25.56l-.08-.8c.88-.4,2.56-.64,4.87-.64,1.68,0,4.07,.08,6.87,1.76,2.32-1.68,5.67-1.76,7.03-1.76,2.4,0,3.91,.24,4.79,.64l-.08,.8c-5.91,3.43-6.23,7.99-6.23,25.56v5.27c0,7.19,3.04,13.66,11.9,13.66s12.94-6.31,12.94-13.66v-5.11Z"/><path class="cls-3" d="M168.86,128.38c-1.6,.96-4.87,1.76-7.11,1.76-2,0-4.07-.24-5.11-.64l.08-.8c7.11-3.12,7.27-8.07,7.27-23.32s0-20.92-7.27-24.12l-.08-.8c1.04-.4,3.12-.64,5.11-.64,2.24,0,5.51,.8,7.11,1.76,1.68-.96,4.95-1.76,7.27-1.76,1.92,0,3.99,.24,5.03,.64l-.08,.8c-7.19,3.19-7.27,8.23-7.27,23.4s0,20.84,7.27,24.04l.08,.8c-1.04,.4-3.11,.64-5.03,.64-2.32,0-5.59-.8-7.27-1.76Z"/><path class="cls-3" d="M186.5,105.06c0-15.33,11.98-26.36,28.51-26.36,9.02,0,13.98,3.43,15.09,4.63,1.68-.16,4.15-1.28,4.63-2.32l.8,.16c.16,.24,.24,.64,.24,1.12,0,1.6-1.12,3.43-2.4,4.87,.24,1.12,.4,2.16,.4,3.35,0,2.8-.8,5.67-2.71,8.47l-.64-.24c-1.04-9.5-6.39-14.46-14.93-14.46-11.66,0-17.01,9.66-17.01,20.76s6.23,20.68,15.97,20.68,13.18-3.99,14.62-12.3l.64-.24c2.24,2.72,2.88,5.67,2.88,7.59s-.16,3.11-.56,4.23c1.28,1.44,2.4,3.27,2.4,4.87,0,.48-.08,.88-.24,1.12l-.72,.16c-.48-1.36-3.04-2.79-4.63-2.96-2.16,1.28-8.31,3.12-14.38,3.12-17.09,0-27.95-11.66-27.95-26.28Z"/><path class="cls-3" d="M275.55,100.74l1.12,.16c0,3.35-.56,11.42-7.59,11.42-4.15,0-7.83-1.6-11.18-3.27,.4,13.42,3.11,15.81,12.06,15.81,4.87,0,10.38-4.39,11.82-9.66h.96c.4,1.52,.72,2.96,.72,4.39,0,2.71-.72,5.19-2,7.51,.4,.8,.56,1.76,.56,2.64,0,.64-.16,1.52-.56,2l-.8-.08c-.32-.72-4.15-1.52-12.54-1.52s-11.42-.08-15.25-1.84c-.8,1.12-4.55,1.84-6.87,1.84-1.92,0-3.99-.24-5.11-.64l.08-.8c7.03-3.19,7.03-5.75,7.03-22.2v-.96c-3.35,.08-5.35,1.12-5.91,3.35l-1.04-.32c0-3.99,2.64-7.19,6.95-7.91-.08-13.82-.48-16.37-7.03-19.41l-.08-.8c1.2-.4,3.83-.64,5.75-.64,2.48,0,4.79,.48,6.23,1.84,1.92-1.36,6.07-1.84,12.14-1.84,5.19,0,7.83,.32,10.62,1.36,2.64-1.04,3.67-1.2,4.31-1.36l.8,.16c.08,.24,.16,.56,.16,1.36,0,.96-.4,2.08-1.04,3.11,.24,1.2,.48,2.32,.48,3.99,0,2.08-.72,4.63-2.32,7.11l-.88-.24c.16-5.43-2.79-10.3-9.82-10.3s-9.1,4.31-9.5,16.69c4.47,1.28,8.47,3.11,12.14,3.19,2.88,0,5.11-1.28,5.59-4.15Z"/></g><path class="cls-2" d="M168.86,86.08c1.37,12.55,1.38,25.25,0,37.8-1.38-12.55-1.37-25.25,0-37.8h0Z"/><path class="cls-2" d="M252.87,86.08c1.37,12.55,1.38,25.25,0,37.8-1.38-12.55-1.37-25.25,0-37.8h0Z"/><path class="cls-2" d="M81.53,80.53c.8,7.91,.96,15.83,1,23.76,.06,7.66-.23,17.39-7.47,21.93,5.95-5.74,5.51-14.26,5.47-21.93,.04-7.93,.2-15.85,1-23.76h0Z"/><path class="cls-2" d="M109.8,86.08c.76,6.93,.87,13.87,.88,20.82-.15,6.86-.61,13.88,5.19,18.84-4.96-2.49-7.1-8.35-7.14-13.64,0,0-.05-5.21-.05-5.21,.08-6.96,.28-13.9,1.12-20.82h0Z"/><path class="cls-2" d="M203.74,84.29c-10.28,6.91-12.73,21.35-7.85,32.21,1.65,3.62,4.24,6.83,7.6,9.24-3.79-1.68-6.97-4.81-9-8.54-6.07-10.94-2.91-27.71,9.24-32.91h0Z"/></g><g><g><path class="cls-3" d="M84.68,45.29v-6.55c0-17.73,0-22.6-7.91-25.88l-.16-.88c1.04-.48,3.12-.72,4.71-.72,4.71,0,6.47,.8,8.31,1.92,1.84-1.04,3.67-1.92,8.39-1.92,1.44,0,3.59,.24,4.63,.72l-.08,.88c-7.91,3.27-7.91,8.15-7.91,25.88v6.55c0,13.1-5.51,23.24-20.21,23.24-7.27,0-10.7-2.24-11.74-3.59-2,.16-5.03,1.76-5.67,3.27l-.88-.16c-.16-.24-.24-.72-.24-1.2,0-1.84,1.36-3.83,2.88-5.43-.48-1.52-.64-3.12-.64-4.63,0-2.88,.72-5.99,2.88-8.86l.8,.32c.88,10.54,5.83,15.01,12.06,15.01,9.5,0,10.78-9.18,10.78-17.97Z"/><path class="cls-3" d="M134.12,68.29c-16.29,0-27.87-10.94-27.87-26.2s11.58-26.36,27.87-26.36,27.95,11.02,27.95,26.36-11.58,26.2-27.95,26.2Zm0-47.04c-10.3,0-16.05,6.87-16.05,21.16,0,10.78,3.67,20.37,16.05,20.37,8.79,0,16.13-5.35,16.13-20.45,0-12.3-4.23-21.08-16.13-21.08Z"/><path class="cls-3" d="M188.02,65.42c-1.84,.88-5.35,1.76-7.83,1.76-1.6,0-3.43-.24-4.39-.64l.08-.8c6.55-2.96,7.19-7.19,7.27-18.45l-9.9-17.09c-5.43-9.42-7.59-10.62-10.38-11.9l-.08-.8c.96-.4,2.96-.64,4.87-.64,2.24,0,6.23,.72,7.67,1.76,1.04-1.04,4.39-1.76,7.03-1.76,1.52,0,3.67,.24,4.79,.64l.08,.8c-2,.96-4.63,2.16-4.63,5.35,0,1.2,.32,2.64,1.28,4.47l6.63,13.02,2.96-5.59c2.79-5.19,4.07-8.63,4.07-11.18,0-2.71-1.44-4.39-4.07-6.07l-.08-.8c1.04-.4,2.88-.64,4.55-.64s4.31,.72,4.95,1.76c.96-.88,4.47-1.76,6.23-1.76,1.92,0,3.99,.24,4.95,.64l-.08,.8c-8.23,2.88-10.62,7.75-16.37,18.77l-4.63,8.79c0,12.3,.48,16.93,7.27,19.89l.08,.8c-.96,.4-2.79,.64-4.39,.64-2.48,0-6.07-.88-7.91-1.76Z"/><path class="cls-3" d="M225.24,9.28c3.35,0,6.55,2,6.55,6.87,0,6.87-5.91,15.49-12.06,17.49l-.88-1.6c4.31-3.27,5.19-7.59,5.19-9.82-3.03,0-5.91-2.32-5.91-6.31,0-4.55,3.75-6.63,7.11-6.63Z"/><path class="cls-3" d="M243.12,65.18c-1.68,.16-4.39,1.6-4.87,2.96l-.96-.16c-.16-.24-.24-.64-.24-1.12,0-1.6,1.36-3.43,2.88-4.87-.32-1.12-.64-2.32-.64-3.51,0-2.72,.88-5.59,3.67-8.39l.8,.24c.16,7.59,5.43,12.06,12.14,12.06,7.19,0,10.22-3.19,10.22-6.87,0-11.26-26.36-10.06-26.36-25.96,0-10.06,8.07-13.82,17.41-13.82,5.35,0,9.82,1.28,11.34,2.48,1.68-.24,4.39-1.76,4.95-3.04l.96,.16c.24,.24,.32,.64,.32,1.04,0,1.68-1.6,3.51-3.03,4.95,.4,1.12,.56,2.24,.56,3.51,0,2.4-.72,5.03-2.79,7.59l-.88-.24c-.64-7.67-5.27-10.78-11.1-10.78-5.51,0-8.71,2.32-8.71,5.51,0,8.79,26.52,7.19,26.52,25.8,0,10.86-7.91,15.57-19.25,15.57-7.03,0-11.66-1.92-12.94-3.12Z"/></g><path class="cls-2" d="M188.02,60.92c-.55-5.09-.78-10.19-.9-15.3,0,0,.12,.44,.12,.44-3.33-5.54-6.45-11.2-9.26-17.03-.94-1.94-1.84-3.91-2.65-5.92,1.3,1.74,2.52,3.52,3.7,5.33,3.58,5.49,6.86,11.16,9.91,16.96-.12,5.18-.35,10.35-.91,15.51h0Z"/><path class="cls-2" d="M89.68,17.57c.8,7.91,.96,15.83,1,23.76,.06,7.66-.23,17.39-7.47,21.93,5.95-5.74,5.51-14.26,5.47-21.93,.04-7.93,.2-15.85,1-23.76h0Z"/><path class="cls-2" d="M145.52,62.78c10.29-6.95,11.69-21.49,7.46-32.29-1.53-3.64-4.05-6.88-7.42-9.24,3.79,1.62,6.94,4.8,8.83,8.57,5.4,10.89,3.28,27.71-8.87,32.96h0Z"/><path class="cls-2" d="M122.75,21.25c-10.1,7.03-11.68,21.53-7.45,32.31,1.53,3.63,4.05,6.86,7.42,9.22-3.78-1.62-6.93-4.79-8.83-8.55-5.39-10.86-3.1-27.63,8.87-32.98h0Z"/><path class="cls-2" d="M247.38,21.41c-3.37,3.16-3.53,8.92-.1,11.98,1.63,1.49,3.63,2.63,5.71,3.63,5.27,2.64,11.31,4.52,15.42,9.05,4.28,4.48,3.9,12.99-1.5,16.31,3.59-3.19,4.01-8.62,2.12-12.48-3.45-6.15-11.04-7.94-16.89-11.19-3.12-1.69-6.7-3.85-7.94-7.47-1.18-3.49,.07-7.8,3.19-9.83h0Z"/></g><g><g><path class="cls-3" d="M98.3,192.53c-1.52,1.28-4.71,1.92-7.43,1.92-1.76,0-4.39-.24-5.51-.72l.08-.88c7.51-3.11,7.91-7.75,7.91-23.32v-4.23c0-16.85-.16-21.8-7.91-25.16l-.08-.88c1.2-.48,3.67-.72,5.35-.72,2.71,0,6.47,.72,7.59,1.92,4.07-2.24,9.1-3.04,14.62-3.04,10.46,0,16.85,3.35,16.85,11.9,0,5.67-3.59,10.38-14.54,13.82,1.52-.32,2.72-.48,3.99-.48,9.1,0,14.06,6.95,14.06,15.41,0,9.82-6.79,17.25-21.64,17.25-6.47,0-11.58-1.44-13.34-2.8Zm13.18-50.23c-5.03,0-8.15,3.35-8.15,13.18v7.75c12.38-2.48,15.33-7.99,15.33-13.34s-2.79-7.59-7.19-7.59Zm.16,24.6c-2.32,0-5.43,.56-8.23,1.6v2.24c0,13.98,1.68,19.49,8.62,19.49s9.74-5.43,9.74-12.22c0-7.59-4.23-11.1-10.14-11.1Z"/><path class="cls-3" d="M178.08,192.69c-1.52,1.04-4.63,1.76-7.11,1.76-1.44,0-3.59-.24-4.63-.64l-.08-.8c2.64-1.28,3.75-2.96,3.75-5.83,0-2.08-.56-4.47-1.6-7.83-1.2,1.68-3.27,2.8-6.63,2.8-3.75,0-6.71-1.36-9.58-2.56-.88,3.11-1.36,5.75-1.36,7.59,0,2.79,1.04,4.55,3.75,5.83v.8c-1.2,.4-3.12,.64-4.31,.64-2,0-4.39-.72-5.27-1.76-.8,1.04-3.67,1.76-5.59,1.76-1.44,0-3.75-.24-4.63-.64l.08-.8c6.71-2.72,8.62-5.75,12.06-15.09-.48-.08-1.04-.16-1.52-.16-2.32,0-5.19,.8-5.75,3.35l-1.04-.32c0-4.63,3.43-8.07,9.02-8.07,.32,0,.72,0,1.04,.08l1.04-2.79,2-5.59c2.24-6.15,3.19-9.02,3.19-12.06,0-4.63-2.16-6.39-5.75-6.63l-.24-.88c1.2-.4,3.51-.72,5.75-.72s5.75,.32,7.67,1.6c1.76-1.28,4.71-1.6,7.19-1.6s5.11,.32,6.47,.72v.8c-4.15,1.12-5.91,2.63-5.91,4.79,0,1.84,1.28,5.11,1.68,6.31l4.31,13.66c4.87,15.09,6.55,19.81,13.58,22.6l.08,.8c-.8,.4-2.56,.64-3.99,.64-2.48,0-5.67-.72-7.67-1.76Zm-10.7-16.77c-.24-.96-.56-1.92-.88-2.96l-5.59-18.05-5.91,16.21-1.04,2.96c3.43,1.28,6.55,3.03,9.74,3.03,1.52,0,2.79-.4,3.67-1.2Z"/><path class="cls-3" d="M204.59,192.69c-1.6,1.6-6.15,1.76-8.07,1.76s-3.35-.24-4.15-.64l.08-.8c7.27-3.35,7.27-7.75,7.27-24.68,0-14.86-.24-19.57-7.27-22.76l-.08-.8c.96-.4,2.64-.64,4.87-.64,1.6,0,5.75,.4,7.35,1.84,1.76-1.44,6.07-2.88,12.62-2.88,9.1,0,17.81,2.32,17.81,12.06,0,8.79-8.63,14.06-16.85,15.25,14.62-.56,15.81,21.4,25.24,21.4,.56,0,1.12-.08,1.84-.32l.64,1.04c-1.76,2.24-5.03,2.64-7.51,2.64-18.05,0-14.85-21.48-28.83-21.88,0,13.02,.4,16.77,7.27,19.73l.08,.8c-.8,.4-2.16,.64-4.31,.64-1.68,0-6.07-.08-7.99-1.76Zm12.54-44.88c-4.23,0-7.59,2-7.59,12.06v8.15c11.02-.4,14.46-7.11,14.46-12.86,0-5.03-2.64-7.35-6.87-7.35Z"/></g><path class="cls-2" d="M204.59,150.31c1.37,12.55,1.38,25.25,0,37.8-1.38-12.55-1.37-25.25,0-37.8h0Z"/><path class="cls-2" d="M98.3,146.76c1.37,13.11,1.38,26.36,0,39.47-1.38-13.11-1.37-26.36,0-39.47h0Z"/><path class="cls-2" d="M119.17,159.01c4.22-4.45,5.75-11.53,1.97-16.71,3.25,1.43,4.39,5.57,3.99,8.87-.32,3.45-2.75,6.64-5.95,7.84h0Z"/><path class="cls-2" d="M122.61,166.9c8.43,4.29,7.76,19.62-.9,23.32,6.07-5.62,6.64-17.29,.9-23.32h0Z"/><path class="cls-2" d="M164.78,150.31c5.51,12.12,9.77,24.8,12.66,37.8-5.52-12.12-9.76-24.81-12.66-37.8h0Z"/><path class="cls-2" d="M233.34,190.52c-4.64-2.8-6.85-8.1-9.67-12.45-.92-1.45-1.9-2.83-3.1-4.18,1.69,.67,3.13,1.89,4.34,3.24,3.58,4.03,5.39,9,8.43,13.4h0Z"/><path class="cls-2" d="M226.2,147.81c6.67,3.05,4.97,13.94-.96,16.84,.89-1.39,1.64-2.73,2.2-4.12,1.54-4.18,1.76-9.09-1.24-12.72h0Z"/></g></g><g><path class="cls-1" d="M27.52,177.09c1.66,11.01-4.27,22.25-14.86,26-3.8,1.38-8.16,1.88-12.38,1.24-.63-4.21-.14-8.58,1.24-12.38,3.75-10.6,14.99-16.52,26-14.86h0Z"/><path class="cls-1" d="M330.97,.28c1.66,11.01-4.27,22.25-14.86,26-3.8,1.38-8.16,1.88-12.38,1.24-.63-4.21-.14-8.58,1.24-12.38,3.75-10.6,14.99-16.52,26-14.86h0Z"/><path class="cls-1" d="M303.73,177.09c11.01-1.66,22.25,4.27,26,14.86,1.38,3.8,1.88,8.16,1.24,12.38-4.21,.63-8.58,.14-12.38-1.24-10.6-3.75-16.52-14.99-14.86-26h0Z"/><path class="cls-1" d="M.28,.28C11.29-1.38,22.52,4.54,26.27,15.14c1.38,3.8,1.88,8.16,1.24,12.38-4.21,.63-8.58,.14-12.38-1.24C4.54,22.52-1.38,11.29,.28,.28H.28Z"/></g><g><circle class="cls-2" cx="20.79" cy="102.3" r="7.36"/><circle class="cls-3" cx="20.79" cy="102.3" r="7.36"/><circle class="cls-3" cx="310.45" cy="102.3" r="7.36"/><g><path class="cls-3" d="M38.79,127.67c-10.45,1.64-21.54-6.01-23.71-16.36,1.3,2.24,2.73,4.3,4.37,6.16,4.97,5.69,11.89,9.1,19.34,10.2h0Z"/><path class="cls-3" d="M15.07,93.3c2.18-10.35,13.26-18.02,23.71-16.36-2.55,.42-4.99,1.02-7.31,1.89-7.08,2.62-12.72,7.9-16.4,14.47h0Z"/><path class="cls-3" d="M292.45,76.94c10.45-1.64,21.54,6.01,23.71,16.36-1.3-2.24-2.73-4.3-4.37-6.16-4.97-5.69-11.89-9.1-19.34-10.2h0Z"/><path class="cls-3" d="M316.17,111.3c-2.18,10.35-13.26,18.02-23.72,16.36,2.55-.42,4.99-1.02,7.31-1.89,7.08-2.62,12.72-7.9,16.4-14.47h0Z"/></g><g><path class="cls-3" d="M315.04,111.3c-5.06,10.58-21.37,10.58-26.43,0,7.18,7.94,19.25,7.94,26.43,0h0Z"/><path class="cls-3" d="M288.62,93.3c5.06-10.58,21.37-10.58,26.43,0-7.18-7.94-19.25-7.94-26.43,0h0Z"/><path class="cls-3" d="M16.2,93.3c5.06-10.58,21.37-10.58,26.43,0-7.18-7.94-19.25-7.94-26.43,0h0Z"/><path class="cls-3" d="M42.63,111.3c-5.06,10.58-21.37,10.58-26.43,0,7.18,7.94,19.25,7.94,26.43,0h0Z"/></g></g><g><path class="cls-3" d="M5.68,198.93c4.3-6.24,9.72-11.68,15.97-15.97-4.29,6.24-9.73,11.67-15.97,15.97h0Z"/><path class="cls-3" d="M325.57,5.68c-4.3,6.24-9.72,11.68-15.97,15.97,4.29-6.24,9.73-11.67,15.97-15.97h0Z"/><path class="cls-3" d="M309.6,182.96c6.24,4.3,11.68,9.72,15.97,15.97-6.24-4.29-11.67-9.73-15.97-15.97h0Z"/><path class="cls-3" d="M21.64,21.64c-6.24-4.3-11.68-9.72-15.97-15.97,6.24,4.29,11.67,9.73,15.97,15.97h0Z"/></g></g></g></svg>