<?xml version="1.0" encoding="UTF-8"?><svg id="Layer_2" xmlns="http://www.w3.org/2000/svg" viewBox="0 0 287.05 591.97"><defs><style>.cls-1{fill:#eeeae3;}.cls-2{fill:#fff;}.cls-3{fill:#0c0024;}.cls-4{fill:#387f5f;}</style></defs><g id="Layer_1-2"><g><g><path class="cls-3" d="M242.83,0H44.22C19.84,0,0,19.84,0,44.22v503.53c0,24.38,19.84,44.22,44.22,44.22H242.83c24.38,0,44.22-19.84,44.22-44.22V44.22c0-24.38-19.84-44.22-44.22-44.22h0Z"/><path class="cls-1" d="M242.83,12.56h-45.08v8.1c0,8.6-6.97,15.58-15.58,15.58H104.87c-8.6,0-15.58-6.97-15.58-15.58V12.56H44.22c-17.41,0-31.66,14.25-31.66,31.66v503.53c0,17.41,14.25,31.66,31.66,31.66H242.83c17.41,0,31.66-14.25,31.66-31.66V44.22c0-17.41-14.25-31.66-31.66-31.66Z"/></g><g><rect class="cls-2" x="31.44" y="204.03" width="224.18" height="23.24"/><rect class="cls-2" x="31.44" y="265.48" width="224.18" height="23.24"/><g><path class="cls-4" d="M83.26,122.84c0,1.29-1.97,3.56-5.87,3.56-1.78,0-3.41-.83-4.43-2.39-1.36,1.14-3.83,2.54-7.12,2.54-4.36,0-6.97-2.46-6.97-5.98s2.84-6.29,8.14-6.29c1.78,0,3.18,.23,4.13,.49l-.04-.38c-.34-2.46-1.82-3.71-3.71-3.71-1.67,0-2.92,.49-3.98,.95-.68,.3-1.33,.64-1.82,.64-.53,0-1.14-.45-1.14-1.25,0-.95,.95-1.89,1.63-2.42,1.7-1.33,4.2-2.24,7.65-2.24,4.62,0,7.92,1.78,8.52,6.29l.83,6.1c.3,2.23,1.17,2.77,3.37,3.18,.42,.08,.8,.38,.8,.91Zm-11.17-1.29l-.57-4.05c-.45-.11-1.1-.19-1.89-.19-1.82,0-3.26,.68-3.26,2.42s1.25,2.77,2.8,2.77c1.14,0,2.27-.49,2.92-.95Z"/><path class="cls-4" d="M105.61,108.03c0,1.59-1.78,1.02-2.95,3.82l-5.3,12.54c-.49,1.14-.83,2.08-3.9,2.08s-3.41-.8-3.98-2.08l-5.38-12.54c-1.25-2.92-2.92-2.23-2.92-3.82,0-.76,.64-1.21,1.44-1.21,.98,0,2.31,.11,4.7,.11s3.48-.11,4.62-.11c1.21,0,1.78,.49,1.78,1.21,0,1.51-1.63,1.21-1.63,2.95,0,.76,.23,1.44,.64,2.5l2.58,6.82,2.61-6.82c.45-1.21,.68-1.89,.68-2.58,0-1.48-1.7-1.36-1.7-2.88,0-.72,.53-1.21,1.74-1.21,.8,0,1.7,.11,2.73,.11,.95,0,2.12-.11,2.8-.11,.83,0,1.44,.49,1.44,1.21Z"/><path class="cls-4" d="M105.34,116.86c0-6.17,5.11-10.76,12.5-10.76s11.51,4.54,11.51,10.11c0,6.32-5.34,10.72-12.46,10.72s-11.55-4.54-11.55-10.07Zm16.06,1.06c0-3.18-1.67-8.33-4.81-8.33-2.2,0-3.3,1.78-3.3,5.57,0,3.11,1.63,8.29,4.81,8.29,2.23,0,3.3-1.78,3.3-5.53Z"/><path class="cls-4" d="M131.02,116.93c0-6.7,5.45-10.79,11.17-10.79,4.92,0,8.64,3.07,8.64,5.3,0,1.02-.76,2.39-3.11,3.94-.72,.49-1.14,.57-1.48,.57-.83,0-1.33-.64-1.48-1.36-.42-2.08-.95-5.57-3.37-5.57-1.78,0-2.8,1.86-2.8,4.81,0,5.34,3.37,8.26,6.51,8.26,2.31,0,3.79-1.17,4.89-1.97,.42-.3,.64-.42,.95-.42,.61,0,.95,.57,.95,1.02,0,.34-.11,.72-.3,1.17-.91,2.08-4.09,5.04-9.81,5.04-6.14,0-10.76-3.86-10.76-10Z"/><path class="cls-4" d="M177.22,122.84c0,1.29-1.97,3.56-5.87,3.56-1.78,0-3.41-.83-4.43-2.39-1.36,1.14-3.83,2.54-7.12,2.54-4.36,0-6.97-2.46-6.97-5.98s2.84-6.29,8.14-6.29c1.78,0,3.18,.23,4.13,.49l-.04-.38c-.34-2.46-1.82-3.71-3.71-3.71-1.67,0-2.92,.49-3.98,.95-.68,.3-1.33,.64-1.82,.64-.53,0-1.14-.45-1.14-1.25,0-.95,.95-1.89,1.63-2.42,1.7-1.33,4.2-2.24,7.65-2.24,4.62,0,7.92,1.78,8.52,6.29l.83,6.1c.3,2.23,1.17,2.77,3.37,3.18,.42,.08,.8,.38,.8,.91Zm-11.17-1.29l-.57-4.05c-.45-.11-1.1-.19-1.89-.19-1.82,0-3.26,.68-3.26,2.42s1.25,2.77,2.8,2.77c1.14,0,2.27-.49,2.92-.95Z"/><path class="cls-4" d="M202.98,122.88c0,1.14-1.14,1.59-4.54,2.73-2.73,.91-3.41,1.06-3.83,1.06-1.29,0-1.44-1.25-1.44-2.23v-1.48c-1.44,2.12-3.75,3.82-7.12,3.82-4.81,0-8.6-3.64-8.6-9.85s4.58-10.64,10.57-10.64c2.16,0,3.86,.57,5.15,1.55v-3.33c0-2.46-2.84-1.44-2.84-3.41,0-.98,1.17-1.51,4.73-2.92,2.99-1.17,3.52-1.17,4.01-1.17,1.17,0,1.44,1.02,1.44,2.16v20.19c0,2.46,2.46,1.86,2.46,3.52Zm-9.81-6.02v-.53c0-3.48-1.78-6.55-4.47-6.55-1.93,0-3.45,1.63-3.45,5.11,0,4.17,2.08,6.93,4.36,6.93s3.56-2.16,3.56-4.96Z"/><path class="cls-4" d="M228.18,115.71c0,7.9-5.36,12.24-11.98,12.24s-11.98-4.34-11.98-12.24c0-12.19,6.72-18.7,11.98-18.7s11.98,6.51,11.98,18.7Z"/><circle cx="216.2" cy="114.91" r="5.14"/></g><g><rect class="cls-4" x="31.44" y="334.58" width="98.9" height="23.24"/><g><path class="cls-2" d="M71,350.57c-.42,.65-1.09,1.12-2.09,1.12-1.75,0-2.9-1.34-2.9-3.12v-5.62h2.77v4.79c0,.78,.42,1.26,1.1,1.26s1.07-.42,1.12-1.14v-4.91h2.77v8.56h-2.77v-.93Z"/><path class="cls-2" d="M80.48,345.68c-.53-.29-1.31-.53-1.83-.53-.42,0-.58,.2-.58,.39s.14,.29,.37,.44l1.1,.63c.99,.59,1.38,1.44,1.38,2.36,0,1.49-1.07,2.72-3.24,2.72-.71,0-1.6-.14-2.22-.37v-2.72c.37,.34,1.43,.75,2.02,.75,.41,0,.59-.19,.59-.42,0-.19-.12-.36-.42-.53l-1.21-.7c-.9-.51-1.22-1.39-1.22-2.26,0-1.6,1.22-2.67,3.31-2.67,.56,0,1.38,.08,1.95,.24v2.67Z"/><path class="cls-2" d="M84.57,348.06c.2,.73,.92,1.16,1.92,1.16s2-.22,2.82-.68v2.6c-.78,.37-1.87,.56-3.06,.56-2.56,0-4.45-1.77-4.45-4.47,0-2.51,1.8-4.45,4.28-4.45s3.94,1.87,3.94,4.01c0,.42-.07,.97-.15,1.27h-5.3Zm-.02-2.05h2.84c-.05-.56-.56-.95-1.33-.95s-1.38,.44-1.51,.95Z"/><path class="cls-2" d="M94.01,343.76c.41-.56,1.04-.99,1.94-.99,.17,0,.46,.02,.65,.05v2.92c-.36-.15-.8-.27-1.36-.27-.65,0-1.17,.41-1.22,1.14v4.89h-2.77v-8.56h2.77v.82Z"/></g></g><g><rect class="cls-4" x="156.72" y="334.58" width="98.9" height="23.24"/><g><path class="cls-2" d="M183.9,343.23c.61-.24,1.61-.46,2.5-.46,2.48,0,3.8,1.17,3.8,3.74v4.99h-2.77v-.49c-.41,.42-1,.68-1.75,.68-1.9,0-2.73-1.36-2.73-2.75,0-1.49,1.07-2.72,2.79-2.72,.63,0,1.26,.17,1.7,.44v-.22c0-.87-.54-1.22-1.38-1.22-.73,0-1.53,.24-2.16,.59v-2.58Zm2.63,6.47c.51,0,.87-.34,.87-.76s-.36-.76-.87-.76-.87,.34-.87,.76,.37,.76,.87,.76Z"/><path class="cls-2" d="M197.69,350.71c-.59,.63-1.39,.99-2.33,.99-2.39,0-3.97-1.95-3.97-4.47s1.58-4.45,3.99-4.45c.93,0,1.72,.34,2.31,.99v-3.97h2.77v11.72h-2.77v-.8Zm-1.71-5.21c-1,0-1.73,.8-1.73,1.73s.73,1.75,1.73,1.75,1.71-.82,1.71-1.75-.71-1.73-1.71-1.73Z"/><path class="cls-2" d="M204.96,343.9c.44-.63,1.1-1.12,2.09-1.12,1.15,0,2.07,.53,2.56,1.44,.42-.78,1.21-1.44,2.46-1.44,1.63,0,2.92,1.34,2.92,3.12v5.6h-2.77v-4.77c0-.78-.42-1.26-1.1-1.26s-1.15,.48-1.15,1.26v4.77h-2.77v-4.77c0-.78-.42-1.26-1.09-1.26s-1.12,.42-1.15,1.14v4.89h-2.77v-8.56h2.77v.95Z"/><path class="cls-2" d="M218.02,338.97c.92,0,1.58,.71,1.58,1.58s-.66,1.58-1.58,1.58-1.58-.68-1.58-1.58,.68-1.58,1.58-1.58Zm1.39,12.53h-2.77v-8.56h2.77v8.56Z"/><path class="cls-2" d="M223.91,343.9c.44-.65,1.1-1.12,2.09-1.12,1.77,0,2.92,1.34,2.92,3.12v5.6h-2.77v-4.79c0-.76-.44-1.24-1.12-1.24-.64,0-1.09,.41-1.12,1.14v4.89h-2.77v-8.56h2.77v.95Z"/></g></g><g><path d="M35.87,431.04v6.73h-1.74v-9.16l-.7-1.1v-.14h2.08l5.26,7.38v-7.38h1.74v10.4h-1.74l-4.89-6.73Z"/><path d="M45.79,434.57c.17,1.08,1.07,1.83,2.29,1.83,.99,0,1.97-.37,2.63-.83v1.67c-.64,.37-1.62,.69-2.75,.69-2.22,0-3.87-1.62-3.87-3.93s1.61-3.91,3.78-3.91,3.58,1.64,3.58,3.62c0,.29-.05,.64-.11,.86h-5.55Zm-.02-1.3h4.05c-.03-1.05-.87-1.77-1.97-1.77s-1.97,.79-2.08,1.77Z"/><path d="M53.75,430.24l1.53,5.46,1.56-4.48-.37-.98h1.68l2.06,5.46,1.51-5.46h1.76l-2.29,7.52h-1.76l-1.77-4.6-1.62,4.6h-1.77l-2.28-7.52h1.76Z"/><path d="M68.27,437.76v-6.08h-1.27v-1.44h1.36v-1.76l1.59-.37v2.12h1.36v1.44h-1.36v6.08h-1.68Z"/><path d="M75.83,430.09c2.2,0,3.91,1.7,3.91,3.91s-1.71,3.93-3.91,3.93-3.91-1.73-3.91-3.93,1.7-3.91,3.91-3.91Zm0,6.19c1.27,0,2.2-1.02,2.2-2.28s-.93-2.28-2.2-2.28-2.22,1.02-2.22,2.28,.96,2.28,2.22,2.28Z"/><path d="M90.12,435.2h-3.96l-.93,2.57h-1.94l3.88-10.4h1.94l3.88,10.4h-1.94l-.93-2.57Zm-3.39-1.67h2.83l-1.41-3.88-1.42,3.88Z"/><path d="M94.56,430.24l2.02,5.44,2.05-5.44h1.77l-2.92,7.52h-1.77l-2.92-7.52h1.77Z"/><path d="M104.71,430.09c2.2,0,3.91,1.7,3.91,3.91s-1.71,3.93-3.91,3.93-3.91-1.73-3.91-3.93,1.7-3.91,3.91-3.91Zm0,6.19c1.27,0,2.2-1.02,2.2-2.28s-.93-2.28-2.2-2.28-2.22,1.02-2.22,2.28,.96,2.28,2.22,2.28Z"/><path d="M115.38,437.49c-.46,.28-1.21,.44-1.8,.44-2.34,0-3.96-1.73-3.96-3.93s1.62-3.91,3.96-3.91c.6,0,1.34,.15,1.8,.41v1.8c-.43-.32-1.05-.58-1.8-.58-1.28,0-2.25,1.02-2.25,2.28s.96,2.28,2.25,2.28c.73,0,1.38-.24,1.8-.58v1.79Z"/><path d="M117.23,430.56c.55-.26,1.35-.47,2.16-.47,1.87,0,3.07,.9,3.07,3.03v4.65h-1.68v-.69c-.38,.5-1.04,.86-1.83,.86-1.65,0-2.55-1.16-2.55-2.48s1.05-2.46,2.58-2.46c.73,0,1.42,.32,1.8,.72v-.63c0-1.07-.73-1.5-1.57-1.5-.69,0-1.39,.23-1.97,.6v-1.62Zm2.17,6.1c.75,0,1.36-.54,1.36-1.21s-.61-1.22-1.36-1.22-1.34,.55-1.34,1.22,.61,1.21,1.34,1.21Z"/><path d="M130.09,436.54c-.55,.86-1.47,1.39-2.58,1.39-2.14,0-3.65-1.73-3.65-3.93s1.51-3.91,3.67-3.91c1.12,0,2.02,.52,2.57,1.38v-4.25h1.67v10.55h-1.67v-1.22Zm-2.25-4.8c-1.28,0-2.25,1.01-2.25,2.26s.96,2.28,2.25,2.28,2.25-1.04,2.25-2.28-.96-2.26-2.25-2.26Z"/><path d="M137.13,430.09c2.2,0,3.91,1.7,3.91,3.91s-1.71,3.93-3.91,3.93-3.91-1.73-3.91-3.93,1.7-3.91,3.91-3.91Zm0,6.19c1.27,0,2.2-1.02,2.2-2.28s-.93-2.28-2.2-2.28-2.22,1.02-2.22,2.28,.96,2.28,2.22,2.28Z"/><path d="M149.38,430.09c2.2,0,3.91,1.7,3.91,3.91s-1.71,3.93-3.91,3.93-3.91-1.73-3.91-3.93,1.7-3.91,3.91-3.91Zm0,6.19c1.27,0,2.2-1.02,2.2-2.28s-.93-2.28-2.2-2.28-2.22,1.02-2.22,2.28,.96,2.28,2.22,2.28Z"/><path d="M156.42,431.31c.4-.73,1.1-1.22,2.11-1.22,1.67,0,2.74,1.22,2.74,2.9v4.77h-1.68v-4.34c0-1.01-.6-1.7-1.59-1.7s-1.54,.64-1.57,1.61v4.43h-1.68v-7.52h1.68v1.07Z"/><path d="M164.81,437.76h-1.68v-10.55h1.68v10.55Z"/><path d="M167.58,426.91c.6,0,1.02,.47,1.02,1.04s-.43,1.04-1.02,1.04-1.04-.46-1.04-1.04,.44-1.04,1.04-1.04Zm.84,10.86h-1.68v-7.52h1.68v7.52Z"/><path d="M172.03,431.31c.4-.73,1.1-1.22,2.11-1.22,1.67,0,2.74,1.22,2.74,2.9v4.77h-1.68v-4.34c0-1.01-.6-1.7-1.59-1.7s-1.54,.64-1.57,1.61v4.43h-1.68v-7.52h1.68v1.07Z"/><path d="M179.96,434.57c.17,1.08,1.07,1.83,2.29,1.83,.99,0,1.97-.37,2.63-.83v1.67c-.64,.37-1.62,.69-2.75,.69-2.22,0-3.87-1.62-3.87-3.93s1.61-3.91,3.78-3.91,3.58,1.64,3.58,3.62c0,.29-.05,.64-.11,.86h-5.55Zm-.02-1.3h4.05c-.03-1.05-.87-1.77-1.97-1.77s-1.97,.79-2.08,1.77Z"/><path d="M193.87,430.09c2.2,0,3.91,1.7,3.91,3.91s-1.71,3.93-3.91,3.93-3.91-1.73-3.91-3.93,1.7-3.91,3.91-3.91Zm0,6.19c1.27,0,2.2-1.02,2.2-2.28s-.93-2.28-2.2-2.28-2.22,1.02-2.22,2.28,.96,2.28,2.22,2.28Z"/><path d="M200.92,431.16c.35-.63,.96-1.07,1.85-1.07,.2,0,.44,.01,.63,.05v1.79c-.28-.12-.63-.2-1.01-.2-.92,0-1.44,.64-1.47,1.61v4.43h-1.68v-7.52h1.68v.92Z"/><path d="M210.15,436.54c-.55,.86-1.47,1.39-2.58,1.39-2.14,0-3.65-1.73-3.65-3.93s1.51-3.91,3.67-3.91c1.12,0,2.02,.52,2.57,1.38v-4.25h1.67v10.55h-1.67v-1.22Zm-2.25-4.8c-1.28,0-2.25,1.01-2.25,2.26s.96,2.28,2.25,2.28,2.25-1.04,2.25-2.28-.96-2.26-2.25-2.26Z"/><path d="M214.98,434.57c.17,1.08,1.07,1.83,2.29,1.83,.99,0,1.97-.37,2.63-.83v1.67c-.64,.37-1.62,.69-2.75,.69-2.22,0-3.87-1.62-3.87-3.93s1.61-3.91,3.78-3.91,3.58,1.64,3.58,3.62c0,.29-.05,.64-.11,.86h-5.55Zm-.01-1.3h4.05c-.03-1.05-.87-1.77-1.97-1.77s-1.97,.79-2.08,1.77Z"/><path d="M223.69,431.16c.35-.63,.96-1.07,1.85-1.07,.2,0,.44,.01,.63,.05v1.79c-.28-.12-.63-.2-1.01-.2-.92,0-1.44,.64-1.47,1.61v4.43h-1.68v-7.52h1.68v.92Z"/><path d="M228.2,426.91c.6,0,1.02,.47,1.02,1.04s-.43,1.04-1.02,1.04-1.04-.46-1.04-1.04,.44-1.04,1.04-1.04Zm.84,10.86h-1.68v-7.52h1.68v7.52Z"/><path d="M232.65,431.31c.4-.73,1.1-1.22,2.11-1.22,1.67,0,2.74,1.22,2.74,2.9v4.77h-1.68v-4.34c0-1.01-.6-1.7-1.59-1.7s-1.54,.64-1.57,1.61v4.43h-1.68v-7.52h1.68v1.07Z"/><path d="M246.78,430.24v6.79c0,2.6-1.57,4.02-4.05,4.02-1.1,0-2.08-.32-2.58-.61v-1.76c.61,.43,1.64,.8,2.58,.8,1.38,0,2.37-.89,2.37-2.25v-.87c-.54,.79-1.44,1.34-2.6,1.34-2.08,0-3.59-1.64-3.59-3.79s1.51-3.82,3.58-3.82c1.18,0,2.08,.55,2.61,1.38v-1.22h1.68Zm-3.93,1.5c-1.24,0-2.16,.95-2.16,2.16s.92,2.17,2.16,2.17,2.16-.95,2.16-2.17-.92-2.16-2.16-2.16Z"/><path d="M249.62,434.32c0-1.04,.18-1.5,.87-2.08l.81-.69c.49-.43,.61-.83,.61-1.32,0-.7-.47-1.28-1.61-1.28-.64,0-1.5,.32-2.03,.79v-2.05c.6-.31,1.3-.49,2.17-.49,2.37,0,3.27,1.48,3.27,2.88,0,1.07-.46,1.7-.99,2.2l-.81,.76c-.4,.37-.6,.66-.6,1.27h-1.7Zm.84,1.19c.69,0,1.21,.52,1.21,1.21s-.52,1.19-1.21,1.19-1.19-.5-1.19-1.19,.5-1.21,1.19-1.21Z"/></g><g><path class="cls-4" d="M96.87,466.18c-.73,.31-1.56,.48-2.43,.48-3.38,0-5.94-2.58-5.94-5.96s2.56-5.96,5.94-5.96c.87,0,1.7,.17,2.43,.48v3.31c-.56-.53-1.41-.9-2.43-.9-1.7,0-2.97,1.39-2.97,3.07s1.27,3.07,2.97,3.07c1.02,0,1.9-.37,2.43-.87v3.28Z"/><path class="cls-4" d="M101.24,458.73c.41-.56,1.04-.99,1.94-.99,.17,0,.46,.02,.65,.05v2.92c-.36-.15-.8-.27-1.36-.27-.65,0-1.17,.41-1.22,1.14v4.89h-2.77v-8.56h2.77v.82Z"/><path class="cls-4" d="M107.15,463.02c.2,.73,.92,1.15,1.92,1.15s2-.22,2.82-.68v2.6c-.78,.37-1.87,.56-3.06,.56-2.56,0-4.45-1.77-4.45-4.47,0-2.51,1.8-4.45,4.28-4.45s3.94,1.87,3.94,4.01c0,.42-.07,.97-.15,1.27h-5.3Zm-.02-2.06h2.84c-.05-.56-.56-.95-1.33-.95s-1.38,.44-1.51,.95Z"/><path class="cls-4" d="M114.23,458.2c.61-.24,1.61-.46,2.5-.46,2.48,0,3.8,1.17,3.8,3.74v4.99h-2.77v-.49c-.41,.42-1,.68-1.75,.68-1.9,0-2.73-1.36-2.73-2.75,0-1.49,1.07-2.72,2.79-2.72,.63,0,1.26,.17,1.7,.44v-.22c0-.87-.54-1.22-1.38-1.22-.73,0-1.53,.24-2.16,.59v-2.58Zm2.63,6.47c.51,0,.87-.34,.87-.76s-.36-.76-.87-.76-.87,.34-.87,.76,.37,.76,.87,.76Z"/><path class="cls-4" d="M122.76,466.47v-6.2h-1.15v-2.36h1.32v-1.75l2.6-.56v2.31h1.32v2.36h-1.32v6.2h-2.77Z"/><path class="cls-4" d="M130.16,463.02c.2,.73,.92,1.15,1.92,1.15s2-.22,2.82-.68v2.6c-.78,.37-1.87,.56-3.06,.56-2.56,0-4.45-1.77-4.45-4.47,0-2.51,1.8-4.45,4.28-4.45s3.94,1.87,3.94,4.01c0,.42-.07,.97-.15,1.27h-5.3Zm-.02-2.06h2.84c-.05-.56-.56-.95-1.33-.95s-1.38,.44-1.51,.95Z"/><path class="cls-4" d="M146.57,464.38h-3.86l-.7,2.09h-3.23l4.25-11.55h3.23l4.25,11.55h-3.23l-.71-2.09Zm-2.9-2.79h1.97l-.99-2.9-.98,2.9Z"/><path class="cls-4" d="M156.83,466.33c-.42,.2-1.26,.32-1.75,.32-2.75,0-4.54-1.95-4.54-4.47s1.78-4.45,4.54-4.45c.49,0,1.32,.12,1.75,.31v2.9c-.39-.25-1-.51-1.75-.51-1.02,0-1.73,.8-1.73,1.75s.71,1.77,1.73,1.77c.73,0,1.36-.25,1.75-.51v2.89Z"/><path class="cls-4" d="M164.08,466.33c-.42,.2-1.26,.32-1.75,.32-2.75,0-4.54-1.95-4.54-4.47s1.78-4.45,4.54-4.45c.49,0,1.32,.12,1.75,.31v2.9c-.39-.25-1-.51-1.75-.51-1.02,0-1.73,.8-1.73,1.75s.71,1.77,1.73,1.77c.73,0,1.36-.25,1.75-.51v2.89Z"/><path class="cls-4" d="M169.48,457.74c2.51,0,4.45,1.94,4.45,4.45s-1.94,4.47-4.45,4.47-4.45-1.95-4.45-4.47,1.94-4.45,4.45-4.45Zm0,6.22c.97,0,1.65-.82,1.65-1.77s-.68-1.75-1.65-1.75-1.65,.8-1.65,1.75,.7,1.77,1.65,1.77Z"/><path class="cls-4" d="M180.15,465.54c-.42,.64-1.09,1.12-2.09,1.12-1.75,0-2.9-1.34-2.9-3.12v-5.62h2.77v4.79c0,.78,.42,1.26,1.1,1.26s1.07-.42,1.12-1.14v-4.91h2.77v8.56h-2.77v-.93Z"/><path class="cls-4" d="M187.45,458.86c.44-.65,1.1-1.12,2.09-1.12,1.77,0,2.92,1.34,2.92,3.12v5.6h-2.77v-4.79c0-.76-.44-1.24-1.12-1.24-.64,0-1.09,.41-1.12,1.14v4.89h-2.77v-8.56h2.77v.95Z"/><path class="cls-4" d="M194.72,466.47v-6.2h-1.15v-2.36h1.32v-1.75l2.6-.56v2.31h1.32v2.36h-1.32v6.2h-2.77Z"/></g><g><path d="M37.84,195.22c-.44,.8-1.21,1.36-2.36,1.36-1.83,0-3.02-1.38-3.02-3.23v-5.32h1.87v4.81c0,1.14,.66,1.9,1.75,1.9s1.72-.71,1.77-1.78v-4.92h1.85v8.36h-1.85v-1.17Z"/><path d="M46.38,190.09c-.54-.36-1.24-.59-1.89-.59-.71,0-1.09,.36-1.09,.81,0,.36,.22,.54,.63,.8l1.34,.8c1.04,.63,1.39,1.39,1.39,2.21,0,1.44-1.1,2.46-2.99,2.46-.8,0-1.61-.22-2.17-.48v-1.92c.42,.37,1.31,.78,2.07,.78s1.15-.37,1.15-.87c0-.34-.19-.61-.71-.92l-1.43-.85c-.87-.51-1.21-1.26-1.21-2.07,0-1.39,1.05-2.39,2.96-2.39,.7,0,1.41,.15,1.94,.34v1.89Z"/><path d="M49.81,192.84c.19,1.21,1.19,2.04,2.55,2.04,1.1,0,2.19-.41,2.92-.92v1.85c-.71,.41-1.8,.76-3.06,.76-2.46,0-4.3-1.8-4.3-4.36s1.78-4.35,4.19-4.35,3.97,1.82,3.97,4.02c0,.32-.05,.71-.12,.95h-6.16Zm-.02-1.44h4.5c-.03-1.17-.97-1.97-2.19-1.97s-2.19,.88-2.31,1.97Z"/><path d="M59.49,189.05c.39-.7,1.07-1.19,2.06-1.19,.22,0,.49,.02,.7,.05v1.99c-.31-.14-.7-.22-1.12-.22-1.02,0-1.6,.71-1.63,1.78v4.93h-1.87v-8.36h1.87v1.02Z"/><path d="M65.44,189.22c.44-.81,1.22-1.36,2.34-1.36,1.85,0,3.04,1.36,3.04,3.23v5.3h-1.87v-4.82c0-1.12-.66-1.89-1.77-1.89s-1.72,.71-1.75,1.78v4.93h-1.87v-8.36h1.87v1.19Z"/><path d="M73.18,188.39c.61-.29,1.49-.53,2.39-.53,2.07,0,3.41,1,3.41,3.36v5.16h-1.87v-.76c-.42,.56-1.15,.95-2.04,.95-1.83,0-2.84-1.29-2.84-2.75s1.17-2.73,2.87-2.73c.82,0,1.58,.36,2,.8v-.7c0-1.19-.81-1.66-1.75-1.66-.76,0-1.55,.25-2.19,.66v-1.8Zm2.41,6.78c.83,0,1.51-.59,1.51-1.34s-.68-1.36-1.51-1.36-1.49,.61-1.49,1.36,.68,1.34,1.49,1.34Z"/><path d="M82.91,189.1c.44-.75,1.17-1.24,2.21-1.24,1.22,0,2.19,.58,2.63,1.61,.41-.95,1.24-1.61,2.51-1.61,1.65,0,2.92,1.24,2.92,3.09v5.43h-1.87v-4.93c0-1.14-.66-1.78-1.61-1.78s-1.66,.65-1.66,1.78v4.93h-1.87v-4.93c0-1.14-.66-1.78-1.61-1.78s-1.61,.59-1.65,1.66v5.04h-1.87v-8.36h1.87v1.07Z"/><path d="M96.6,192.84c.19,1.21,1.19,2.04,2.55,2.04,1.1,0,2.19-.41,2.92-.92v1.85c-.71,.41-1.8,.76-3.06,.76-2.46,0-4.3-1.8-4.3-4.36s1.78-4.35,4.19-4.35,3.97,1.82,3.97,4.02c0,.32-.05,.71-.12,.95h-6.17Zm-.02-1.44h4.5c-.03-1.17-.97-1.97-2.19-1.97s-2.19,.88-2.31,1.97Z"/></g><g><path d="M34.37,250.94c.58-1.05,1.6-1.63,2.85-1.63,2.36,0,4.06,1.89,4.06,4.35s-1.7,4.36-4.06,4.36c-1.26,0-2.28-.59-2.85-1.55v4.84h-1.87v-11.84h1.87v1.46Zm2.5,5.25c1.43,0,2.48-1.15,2.48-2.53s-1.05-2.51-2.48-2.51-2.5,1.12-2.5,2.51,1.05,2.53,2.5,2.53Z"/><path d="M43.22,249.84c.61-.29,1.49-.53,2.39-.53,2.07,0,3.41,1,3.41,3.36v5.16h-1.87v-.76c-.42,.56-1.16,.95-2.04,.95-1.83,0-2.84-1.29-2.84-2.75s1.17-2.73,2.87-2.73c.82,0,1.58,.36,2,.8v-.7c0-1.19-.82-1.66-1.75-1.66-.76,0-1.55,.25-2.19,.66v-1.8Zm2.41,6.78c.83,0,1.51-.59,1.51-1.34s-.68-1.36-1.51-1.36-1.49,.61-1.49,1.36,.68,1.34,1.49,1.34Z"/><path d="M55.6,251.54c-.54-.36-1.24-.59-1.89-.59-.71,0-1.09,.36-1.09,.81,0,.36,.22,.54,.63,.8l1.34,.8c1.04,.63,1.39,1.39,1.39,2.21,0,1.44-1.1,2.46-2.99,2.46-.8,0-1.61-.22-2.17-.48v-1.92c.42,.37,1.31,.78,2.07,.78s1.15-.37,1.15-.87c0-.34-.19-.61-.71-.92l-1.43-.85c-.87-.51-1.21-1.26-1.21-2.07,0-1.39,1.05-2.39,2.96-2.39,.7,0,1.41,.15,1.94,.34v1.89Z"/><path d="M62.17,251.54c-.54-.36-1.24-.59-1.89-.59-.71,0-1.09,.36-1.09,.81,0,.36,.22,.54,.63,.8l1.34,.8c1.04,.63,1.39,1.39,1.39,2.21,0,1.44-1.1,2.46-2.99,2.46-.8,0-1.61-.22-2.17-.48v-1.92c.42,.37,1.31,.78,2.07,.78s1.15-.37,1.15-.87c0-.34-.19-.61-.71-.92l-1.43-.85c-.87-.51-1.21-1.26-1.21-2.07,0-1.39,1.05-2.39,2.96-2.39,.7,0,1.41,.15,1.94,.34v1.89Z"/><path d="M65.35,249.48l1.7,6.06,1.73-4.98-.41-1.09h1.87l2.29,6.06,1.68-6.06h1.95l-2.55,8.36h-1.95l-1.97-5.11-1.8,5.11h-1.97l-2.53-8.36h1.95Z"/><path d="M81.15,249.31c2.45,0,4.35,1.89,4.35,4.35s-1.9,4.36-4.35,4.36-4.35-1.92-4.35-4.36,1.88-4.35,4.35-4.35Zm0,6.88c1.41,0,2.45-1.14,2.45-2.53s-1.04-2.53-2.45-2.53-2.46,1.14-2.46,2.53,1.07,2.53,2.46,2.53Z"/><path d="M88.98,250.5c.39-.7,1.07-1.19,2.05-1.19,.22,0,.49,.02,.7,.05v1.99c-.31-.14-.7-.22-1.12-.22-1.02,0-1.6,.71-1.63,1.78v4.93h-1.87v-8.36h1.87v1.02Z"/><path d="M99.23,256.48c-.61,.95-1.63,1.55-2.87,1.55-2.38,0-4.06-1.92-4.06-4.36s1.68-4.35,4.08-4.35c1.24,0,2.24,.58,2.85,1.53v-4.72h1.85v11.72h-1.85v-1.36Zm-2.5-5.33c-1.43,0-2.5,1.12-2.5,2.51s1.07,2.53,2.5,2.53,2.5-1.15,2.5-2.53-1.07-2.51-2.5-2.51Z"/></g><g><path d="M114.64,310.45c-.61-.48-1.58-.87-2.51-.87-1.1,0-1.71,.54-1.71,1.31,0,.49,.32,.9,.95,1.29l1.77,1.1c1.48,.88,2.04,1.82,2.04,3.07,0,1.73-1.22,3.31-3.77,3.31-1.17,0-2.19-.32-2.89-.66v-2.17c.61,.49,1.68,1,2.8,1s1.78-.61,1.78-1.38c0-.51-.32-.95-1.07-1.41l-1.8-1.1c-1.43-.83-1.88-1.77-1.88-2.99,0-1.55,1.02-3.21,3.82-3.21,.93,0,1.8,.25,2.48,.59v2.11Z"/><path d="M117.82,307.43c.66,0,1.14,.53,1.14,1.15s-.48,1.16-1.14,1.16-1.15-.51-1.15-1.16,.49-1.15,1.15-1.15Zm.93,12.06h-1.87v-8.36h1.87v8.36Z"/><path d="M129.14,311.13v7.54c0,2.89-1.75,4.47-4.5,4.47-1.22,0-2.31-.36-2.87-.68v-1.95c.68,.48,1.82,.88,2.87,.88,1.53,0,2.63-.99,2.63-2.5v-.97c-.59,.88-1.6,1.49-2.89,1.49-2.31,0-3.99-1.82-3.99-4.21s1.68-4.25,3.97-4.25c1.31,0,2.31,.61,2.9,1.53v-1.36h1.87Zm-4.36,1.66c-1.38,0-2.39,1.05-2.39,2.39s1.02,2.41,2.39,2.41,2.39-1.05,2.39-2.41-1.02-2.39-2.39-2.39Z"/><path d="M133.19,312.32c.44-.81,1.22-1.36,2.34-1.36,1.85,0,3.04,1.36,3.04,3.23v5.3h-1.87v-4.82c0-1.12-.66-1.89-1.77-1.89s-1.72,.71-1.75,1.78v4.93h-1.87v-8.36h1.87v1.19Z"/><path d="M145.36,307.43c.66,0,1.14,.53,1.14,1.15s-.48,1.16-1.14,1.16-1.15-.51-1.15-1.16,.49-1.15,1.15-1.15Zm.93,12.06h-1.87v-8.36h1.87v8.36Z"/><path d="M150.31,312.32c.44-.81,1.22-1.36,2.34-1.36,1.85,0,3.04,1.36,3.04,3.23v5.3h-1.87v-4.82c0-1.12-.66-1.89-1.77-1.89s-1.72,.71-1.75,1.78v4.93h-1.87v-8.36h1.87v1.19Z"/><path d="M161.85,311.49c.61-.29,1.49-.53,2.39-.53,2.07,0,3.41,1,3.41,3.36v5.16h-1.87v-.76c-.42,.56-1.15,.95-2.04,.95-1.83,0-2.84-1.29-2.84-2.75s1.17-2.73,2.87-2.73c.82,0,1.58,.36,2,.8v-.7c0-1.19-.81-1.66-1.75-1.66-.76,0-1.55,.25-2.19,.66v-1.8Zm2.41,6.78c.83,0,1.51-.59,1.51-1.34s-.68-1.36-1.51-1.36-1.49,.61-1.49,1.36,.68,1.34,1.49,1.34Z"/><path d="M174.24,313.19c-.54-.36-1.24-.59-1.89-.59-.71,0-1.09,.36-1.09,.81,0,.36,.22,.54,.63,.8l1.34,.8c1.04,.63,1.39,1.39,1.39,2.21,0,1.44-1.1,2.46-2.99,2.46-.8,0-1.61-.22-2.17-.48v-1.92c.42,.37,1.31,.78,2.07,.78s1.16-.37,1.16-.87c0-.34-.19-.61-.71-.92l-1.43-.85c-.87-.51-1.21-1.26-1.21-2.07,0-1.39,1.05-2.39,2.96-2.39,.7,0,1.41,.15,1.94,.34v1.89Z"/><path d="M177.34,311.27c.71,0,1.24,.53,1.24,1.22s-.53,1.21-1.24,1.21-1.21-.51-1.21-1.21,.51-1.22,1.21-1.22Zm0,5.96c.71,0,1.24,.51,1.24,1.22s-.53,1.21-1.24,1.21-1.21-.51-1.21-1.21,.51-1.22,1.21-1.22Z"/></g></g></g></g></svg>