<?xml version="1.0" encoding="UTF-8"?><svg id="Layer_2" xmlns="http://www.w3.org/2000/svg" viewBox="0 0 287.05 591.97"><defs><style>.cls-1,.cls-2,.cls-3{font-size:16.98px;}.cls-1,.cls-4{font-family:NiveauGroteskMedium, 'Niveau Grotesk';}.cls-5{letter-spacing:0em;}.cls-6{letter-spacing:-.02em;}.cls-7{letter-spacing:0em;}.cls-8{letter-spacing:0em;}.cls-9{letter-spacing:-.01em;}.cls-10{fill:#eeeae3;}.cls-11,.cls-2{fill:#fff;}.cls-12{fill:#0c0024;}.cls-13,.cls-3{fill:#387f5f;}.cls-2,.cls-3{font-family:NiveauGroteskBlack, 'Niveau Grotesk';}.cls-14{letter-spacing:-.02em;}.cls-15{letter-spacing:-.02em;}.cls-16{letter-spacing:-.03em;}.cls-17{letter-spacing:-.01em;}.cls-18{letter-spacing:0em;}.cls-19{letter-spacing:0em;}.cls-20{letter-spacing:-.03em;}.cls-21{letter-spacing:-.01em;}.cls-22{letter-spacing:-.01em;}.cls-23{letter-spacing:0em;}.cls-24{letter-spacing:0em;}.cls-25{letter-spacing:0em;}.cls-4{font-size:15.29px;}.cls-26{letter-spacing:0em;}.cls-27{letter-spacing:0em;}.cls-28{letter-spacing:0em;}.cls-29{letter-spacing:0em;}</style></defs><g id="Layer_1-2"><g><g><path class="cls-12" d="M242.83,0H44.22C19.84,0,0,19.84,0,44.22v503.53c0,24.38,19.84,44.22,44.22,44.22H242.83c24.38,0,44.22-19.84,44.22-44.22V44.22c0-24.38-19.84-44.22-44.22-44.22h0Z"/><path class="cls-10" d="M242.83,12.56h-45.08v8.1c0,8.6-6.97,15.58-15.58,15.58H104.87c-8.6,0-15.58-6.97-15.58-15.58V12.56H44.22c-17.41,0-31.66,14.25-31.66,31.66v503.53c0,17.41,14.25,31.66,31.66,31.66H242.83c17.41,0,31.66-14.25,31.66-31.66V44.22c0-17.41-14.25-31.66-31.66-31.66Z"/></g><g><rect class="cls-11" x="31.44" y="204.03" width="224.18" height="23.24"/><rect class="cls-11" x="31.44" y="265.48" width="224.18" height="23.24"/><g><path class="cls-13" d="M83.26,122.84c0,1.29-1.97,3.56-5.87,3.56-1.78,0-3.41-.83-4.43-2.39-1.36,1.14-3.83,2.54-7.12,2.54-4.36,0-6.97-2.46-6.97-5.98s2.84-6.29,8.14-6.29c1.78,0,3.18,.23,4.13,.49l-.04-.38c-.34-2.46-1.82-3.71-3.71-3.71-1.67,0-2.92,.49-3.98,.95-.68,.3-1.33,.64-1.82,.64-.53,0-1.14-.45-1.14-1.25,0-.95,.95-1.89,1.63-2.42,1.7-1.33,4.2-2.24,7.65-2.24,4.62,0,7.92,1.78,8.52,6.29l.83,6.1c.3,2.23,1.17,2.77,3.37,3.18,.42,.08,.8,.38,.8,.91Zm-11.17-1.29l-.57-4.05c-.45-.11-1.1-.19-1.89-.19-1.82,0-3.26,.68-3.26,2.42s1.25,2.77,2.8,2.77c1.14,0,2.27-.49,2.92-.95Z"/><path class="cls-13" d="M105.61,108.03c0,1.59-1.78,1.02-2.95,3.82l-5.3,12.54c-.49,1.14-.83,2.08-3.9,2.08s-3.41-.8-3.98-2.08l-5.38-12.54c-1.25-2.92-2.92-2.23-2.92-3.82,0-.76,.64-1.21,1.44-1.21,.98,0,2.31,.11,4.7,.11s3.48-.11,4.62-.11c1.21,0,1.78,.49,1.78,1.21,0,1.51-1.63,1.21-1.63,2.95,0,.76,.23,1.44,.64,2.5l2.58,6.82,2.61-6.82c.45-1.21,.68-1.89,.68-2.58,0-1.48-1.7-1.36-1.7-2.88,0-.72,.53-1.21,1.74-1.21,.8,0,1.7,.11,2.73,.11,.95,0,2.12-.11,2.8-.11,.83,0,1.44,.49,1.44,1.21Z"/><path class="cls-13" d="M105.34,116.86c0-6.17,5.11-10.76,12.5-10.76s11.51,4.54,11.51,10.11c0,6.32-5.34,10.72-12.46,10.72s-11.55-4.54-11.55-10.07Zm16.06,1.06c0-3.18-1.67-8.33-4.81-8.33-2.2,0-3.3,1.78-3.3,5.57,0,3.11,1.63,8.29,4.81,8.29,2.23,0,3.3-1.78,3.3-5.53Z"/><path class="cls-13" d="M131.02,116.93c0-6.7,5.45-10.79,11.17-10.79,4.92,0,8.64,3.07,8.64,5.3,0,1.02-.76,2.39-3.11,3.94-.72,.49-1.14,.57-1.48,.57-.83,0-1.33-.64-1.48-1.36-.42-2.08-.95-5.57-3.37-5.57-1.78,0-2.8,1.86-2.8,4.81,0,5.34,3.37,8.26,6.51,8.26,2.31,0,3.79-1.17,4.89-1.97,.42-.3,.64-.42,.95-.42,.61,0,.95,.57,.95,1.02,0,.34-.11,.72-.3,1.17-.91,2.08-4.09,5.04-9.81,5.04-6.14,0-10.76-3.86-10.76-10Z"/><path class="cls-13" d="M177.22,122.84c0,1.29-1.97,3.56-5.87,3.56-1.78,0-3.41-.83-4.43-2.39-1.36,1.14-3.83,2.54-7.12,2.54-4.36,0-6.97-2.46-6.97-5.98s2.84-6.29,8.14-6.29c1.78,0,3.18,.23,4.13,.49l-.04-.38c-.34-2.46-1.82-3.71-3.71-3.71-1.67,0-2.92,.49-3.98,.95-.68,.3-1.33,.64-1.82,.64-.53,0-1.14-.45-1.14-1.25,0-.95,.95-1.89,1.63-2.42,1.7-1.33,4.2-2.24,7.65-2.24,4.62,0,7.92,1.78,8.52,6.29l.83,6.1c.3,2.23,1.17,2.77,3.37,3.18,.42,.08,.8,.38,.8,.91Zm-11.17-1.29l-.57-4.05c-.45-.11-1.1-.19-1.89-.19-1.82,0-3.26,.68-3.26,2.42s1.25,2.77,2.8,2.77c1.14,0,2.27-.49,2.92-.95Z"/><path class="cls-13" d="M202.98,122.88c0,1.14-1.14,1.59-4.54,2.73-2.73,.91-3.41,1.06-3.83,1.06-1.29,0-1.44-1.25-1.44-2.23v-1.48c-1.44,2.12-3.75,3.82-7.12,3.82-4.81,0-8.6-3.64-8.6-9.85s4.58-10.64,10.57-10.64c2.16,0,3.86,.57,5.15,1.55v-3.33c0-2.46-2.84-1.44-2.84-3.41,0-.98,1.17-1.51,4.73-2.92,2.99-1.17,3.52-1.17,4.01-1.17,1.17,0,1.44,1.02,1.44,2.16v20.19c0,2.46,2.46,1.86,2.46,3.52Zm-9.81-6.02v-.53c0-3.48-1.78-6.55-4.47-6.55-1.93,0-3.45,1.63-3.45,5.11,0,4.17,2.08,6.93,4.36,6.93s3.56-2.16,3.56-4.96Z"/><path class="cls-13" d="M228.18,115.71c0,7.9-5.36,12.24-11.98,12.24s-11.98-4.34-11.98-12.24c0-12.19,6.72-18.7,11.98-18.7s11.98,6.51,11.98,18.7Z"/><circle cx="216.2" cy="114.91" r="5.14"/></g><g><rect class="cls-13" x="31.44" y="334.58" width="98.9" height="23.24"/><text class="cls-2" transform="translate(65.17 351.5)"><tspan x="0" y="0">use</tspan><tspan class="cls-15" x="25.2" y="0">r</tspan></text></g><g><rect class="cls-13" x="156.72" y="334.58" width="98.9" height="23.24"/><text class="cls-2" transform="translate(182.62 351.5)"><tspan x="0" y="0">admin</tspan></text></g><text class="cls-4" transform="translate(32.83 437.76)"><tspan class="cls-26" x="0" y="0">N</tspan><tspan class="cls-28" x="10.76" y="0">e</tspan><tspan class="cls-6" x="18.95" y="0">w</tspan><tspan class="cls-8" x="30.56" y="0"> </tspan><tspan class="cls-18" x="33.89" y="0">t</tspan><tspan class="cls-23" x="38.58" y="0">o</tspan><tspan class="cls-16" x="47.4" y="0"> </tspan><tspan class="cls-14" x="50.4" y="0">A</tspan><tspan class="cls-9" x="59.84" y="0">v</tspan><tspan x="67.47" y="0">o</tspan><tspan class="cls-29" x="76.29" y="0">c</tspan><tspan x="83.17" y="0">ado online o</tspan><tspan class="cls-17" x="165.45" y="0">r</tspan><tspan x="170.58" y="0">derin</tspan><tspan class="cls-24" x="205.55" y="0">g</tspan><tspan x="214.86" y="0">?</tspan></text><text class="cls-3" transform="translate(88.03 466.47)"><tspan x="0" y="0">C</tspan><tspan class="cls-19" x="9.58" y="0">r</tspan><tspan x="15.95" y="0">e</tspan><tspan class="cls-25" x="24.93" y="0">at</tspan><tspan class="cls-5" x="38.96" y="0">e</tspan><tspan class="cls-20" x="47.94" y="0"> </tspan><tspan class="cls-21" x="50.95" y="0">A</tspan><tspan class="cls-27" x="62.11" y="0">cc</tspan><tspan x="76.61" y="0">ou</tspan><tspan class="cls-19" x="95.79" y="0">n</tspan><tspan x="105.16" y="0">t</tspan></text><text class="cls-1" transform="translate(31.43 196.39)"><tspan x="0" y="0">username</tspan></text><text class="cls-1" transform="translate(31.43 257.84)"><tspan x="0" y="0">pass</tspan><tspan class="cls-7" x="31.73" y="0">w</tspan><tspan x="44.8" y="0">o</tspan><tspan class="cls-22" x="54.6" y="0">r</tspan><tspan x="60.31" y="0">d</tspan></text><text class="cls-1" transform="translate(107.56 319.49)"><tspan x="0" y="0">Sign in as:</tspan></text></g></g></g></svg>