<?xml version="1.0" encoding="UTF-8"?><svg id="Layer_2" xmlns="http://www.w3.org/2000/svg" viewBox="0 0 255.63 294.53"><defs><style>.cls-1{fill:#fff;}.cls-2{fill:#ffd9af;}.cls-3{fill:#ffb414;}.cls-4{fill:#b41e00;}.cls-5{fill:#231f20;}.cls-6{fill:#6d6e70;}</style></defs><g id="Layer_1-2"><g><g><rect class="cls-3" y="193.37" width="255.63" height="7.5"/><rect class="cls-3" y="207.68" width="255.63" height="5.9"/><path class="cls-3" d="M255.63,162.77v-34.95C255.63,57.23,198.41,0,127.82,0h0C57.23,0,0,57.23,0,127.82v34.95H255.63Z"/><rect class="cls-3" y="221.98" width="255.63" height="4.31"/><rect class="cls-3" y="236.29" width="255.63" height="2.2"/><rect class="cls-3" y="179.07" width="255.63" height="9.11"/><rect class="cls-3" y="164.77" width="255.63" height="10.71"/></g><g><path class="cls-5" d="M219.03,89.3c-15.63,16.06-23.23,16.93-35.82,15.96-3.91-38.52-21.49-59.37-28-65.67-6.51-6.29-13.02,1.09-21.11,.65-8.08-.43-18.18-4.78-23.61-3.26-5.43,1.52-13.02,22.14-31.69,42.54-41.24-16.5-62.95-1.3-62.08,40.59,.87,41.89,28,61.86,64.49,69.69h0c.16,7.56,1.31,19.3,8.88,32.33,9.33,16.06,25.4,30.17,44.93,29.3,19.54-.87,28.22-18.88,28.22-18.88,0,0,13.46-14.33,16.71-28.65,1.67-7.33,3.5-15.31,4.69-22.84h0c40.07-25.44,49.75-55.43,53.05-68.76,4.35-17.62-3.04-39.07-18.67-23.01Z"/><path class="cls-4" d="M182.61,109.46c-32.49-1.58-67.8-10.46-104.41-25.73,0,0-19.36-9.04-33.28-6.69,10.71,2.35,20.55,4.19,30.82,8.97,32.34,15.05,73.42,25.12,106.46,26.63,24.5,1.12,36.83-9.84,36.65-17.95-8.97,8.97-18.52,15.63-36.25,14.77Z"/><path class="cls-2" d="M135.35,241.83c-6.02,.66-7.78,1.88-10.96-1.01-3.18-2.89-6.37-12.01-8.39-11.72-2.03,.29,3.39,8.68,2.42,9.98s-4.59,.14-7.48-5.21c-2.89-5.35-10.27-28.8-15.05-34.15-4.78-5.35-9.25-29.54-5.57-42.69,2.39-8.54,11.79-11.14,11.79-11.14-4.05-2.03-10.71,.74-10.71,.74,0-9.42,2.32-13.04,7.81-14.48,5.5-1.45,10.42-13.89,10.42-13.89,0,0,41.24-.62,57.48-3.14,2.68-.42,5.46,.03,7.79,1.42,1.59,.95,2.29,1.98,2.46,3.89,.29,3.18-.41,21.11,1.16,25.47,3.18,8.83,6.08,14.47,5.64,23.44s-4.49,30.68-6.8,37.48c-2.32,6.8-18.81,28.16-18.81,28.16,0,0-6.22,8.01-14.47,9.03-8.25,1.01-5.32-2.54-8.72-2.17Z"/><path class="cls-5" d="M102.11,135.61c-6.49-.54-7.96,5.14-7.81,8.36,5.21-4.18,9.79-3.78,16.06-1.41,6.56,2.47,12.73,3.33,12.73,3.33-2.03-5.06-8.21-5.89-11.39-7.05-3.18-1.16-6.12-2.93-9.59-3.22Z"/><path class="cls-5" d="M168.58,135.1c5.96-.52,5.92,2.52,5.78,5.63-4.28-2.08-7.3-.91-13.39,1.32-3.15,1.15-10.31,1.89-10.31,1.89,1.3-3.21,6.84-4.72,9.77-5.84,2.92-1.12,4.96-2.72,8.15-3Z"/><path class="cls-1" d="M98.21,153.37c.58,3.68,11.43,4.97,18.81,3.08,7.38-1.89,2.82-5.05,2.82-5.05l-8.03-2.05-10.31,1.98-3.29,2.04Z"/><path class="cls-5" d="M121.79,173.67c-11.72,4.92-20.6,15.36-21.13,20.84-.71,7.38,6.66,15.48,6.66,15.48-.14-4.78-1.59-10.85,2.03-9.12,3.62,1.74,5.04,10.34,15.06,10.34,3.4,0,8.49-1.22,10.27-1.22s10.1-.18,12.95-.59c5.2-.75,7.73-6.79,10.48-7.16,2.75-.36,4.55-3.3-.17-3.25-6.01,.07-9.6-1.42-14.16-.92-2.15,.24-5.54,.79-8.43,.62-3.25-.18-6.05-1.09-9.32-.79-4.7,.43-7.21,.18-7.61-.67-1.36-2.83,.76-5.27,2.79-5.42s4.14,2.74,8.61,2.39c2.83-.22,5.19-3.16,5.19-3.16,4.15,.77,5.88-2.63,5.88-2.63,0,0-3.65-1.88-5.93-1.88-4.92,0-5.46-4.02-3.29-11.83,2.17-7.81,1.09-17.69-1.41-21.49-2.5-3.8-7.16-5.54-7.16-5.54,.98,3.04-.65,3.5-.65,3.5-4.99-2.31-20.84-5.67-27.68,3.34,3.77,.65,7.28-2.32,10.2-2.28,.12,4.19,8.2,5.76,9.5-.45,1.85,0,4,.3,5.09,1.82,1.09,1.52-2.53,2.83-2.53,2.83,3.15,2.28,6.61-1.37,7.91-.94,1.3,.43-.22,6.84-7,8.74,5.16,.81,10.2,6.12,3.85,9.42Z"/><path class="cls-2" d="M123.88,176.06c-2.87,1.02-7.24,6.8-3.98,8.39,3.26,1.59,4.63-.92,5.35-2.97s.87-6.22-1.37-5.43Z"/><path class="cls-1" d="M120.27,201.67c3.18,.16,10.2,1.52,16.13,1.09,5.93-.43,13.17-1.66,15.19-1.74s-.94,3.55-2.28,4.23-7.89,1.85-13.04,2.13c-5.16,.29-14.34-.8-16.66-2.68-2.32-1.88-.81-3.11,.65-3.04Z"/><path class="cls-5" d="M142.7,187.42c1.23-2.32,3.13-3.01,6.22-2.1-1.09,2.75-3.04,3.04-6.22,2.1Z"/><path class="cls-5" d="M153.26,174.97c9.48,1.88,15.27,14.4,15.92,18.59,.65,4.2-.22,6.66-2.39,8.32-.43-6.22-1.33-8.11-3.42-11.73-2.1-3.62-10.11-15.19-10.11-15.19Z"/><path class="cls-4" d="M153.48,41.26c-3.13-2.75-8.68,.72-15.77,2.89-7.09,2.17-10.85,2.17-12.3,12.88-1.45,10.71,2.51,24.95-4.7,37.28,20.8,5.96,40.94,9.6,60.02,10.81-1.88-25.69-16.26-54.19-27.25-63.86Z"/><path class="cls-1" d="M148.45,151.09c0,3.03,4.58,4.67,10.44,4.73,6.27,.06,9.43-1.64,10.44-3.72l-5.53-3.4-12.48,.65-2.87,1.74Z"/><path class="cls-5" d="M147.07,151.93c4.56-4.67,9.52-4.56,15.45-4.23,5.93,.33,10.81,2.39,11.14,5.54-4.12,1.52-5.05-1.79-9.71-2.04-.37,2.55-2.44,4.04-4.5,4.04s-4.39-1.32-4.56-4.14c-3.58-.24-7.81,.83-7.81,.83Z"/><path class="cls-5" d="M147.07,156.45c.94,3.47,8.86,8.61,15.45,7.02-4.78-1.73-13.79-6.01-15.45-7.02Z"/><path class="cls-5" d="M118.75,215.09c5.53,1.74,11.94,.76,15.84,.76s8.75,1.12,11.21,1.09c-3.73,3.47-7.95,1.66-12.82,2.42-2.31,.36-11.14,3.49-14.24-4.26Z"/><path class="cls-6" d="M79.33,154.05c-.59-3.78-2.57-7.29-3.55-9.94-1.83-5-2.32-7.56-3.2-8.87-3.82,6.95,3.34,17.06,6.75,18.81Z"/><path class="cls-6" d="M77.7,123.68c-2.91,2.88-3.09,13.16-.32,15.81,1.45-4.45,1.36-11.74,.32-15.81Z"/><path class="cls-2" d="M72.76,153.37c-.87,5.86,1.38,23.94,8.16,26.07-.19-5.13-2.49-8.48-3.96-13.03-1.32-4.1-1.68-9.48-4.21-13.03Z"/><path class="cls-6" d="M184.08,128.96c.58,2.01-3.89,10.42-1.28,15.99,.53-3.39,5.15-11.31,1.28-15.99Z"/><path class="cls-6" d="M186.87,140.19c-.62,3.26-3.9,9.55-2.4,13.13,1.13-1.34,5.31-8.67,2.4-13.13Z"/><path class="cls-5" d="M149.73,238.49c-.72-6.22,3.53-11.94,5.35-12.43,.23,3.68-2.17,8.57-5.35,12.43Z"/><path class="cls-1" d="M140.69,157.3c-2.62,6.55-1.18,15.45,1.29,19.93,.85-8.03,.41-16.12-1.29-19.93Z"/><path class="cls-1" d="M171.18,185.6c2.17,4.99,2.39,9.66,1.41,12.59,4.34-5.32,4.02-9.88-1.41-12.59Z"/><path class="cls-1" d="M164.05,160.11c7.31,.75,10.2-1.05,11.21-3.66-4.09,0-11.21,3.66-11.21,3.66Z"/><path class="cls-4" d="M22.09,138.64c3.91,13.89,16.35,31.45,33.57,38.59-15.34-12.69-25.9-23.11-33.57-38.59Z"/><path class="cls-4" d="M72.58,114.34c-18.42-.34-21.15,17.54-21.15,17.54-2.02-12.73,8.67-21.67,21.15-17.54Z"/><path class="cls-4" d="M185.99,177.23c11.92-7.91,26.62-23.22,32.88-32.28-5.4,2.95-32.88,29.78-32.88,32.28Z"/></g><g><path d="M55.81,282.45c0,1.01-.75,1.81-2.34,1.81-1.49,0-3.56-.16-6.7-.16s-5.59,.16-7.45,.16c-1.7,0-2.77-.64-2.77-1.81,0-2.5,3.62-1.54,3.62-4.2,0-.64-.11-1.44-.27-2.24l-2.66-13.2-8.09,16.65c-.75,1.49-1.86,2.13-3.09,2.13-1.49,0-2.39-.69-3.14-2.08l-9.36-17.03-2.5,13.51c-.16,.85-.27,1.6-.27,2.24,0,2.61,3.62,1.7,3.62,4.2,0,1.17-1.06,1.81-2.66,1.81-1.7,0-3.51-.16-5-.16s-3.09,.16-4.31,.16C.74,284.26,0,283.56,0,282.45c0-2.34,3.78-1.65,4.47-5.37l3.51-18.52c.43-2.24,.53-3.83,.53-4.68,0-4.2-3.25-3.72-3.25-6.17,0-.96,.48-1.86,2.87-1.86,1.01,0,3.94,.16,6.65,.16,2.98,0,4.47-.16,6.12-.16,1.54,0,2.34,.85,2.34,1.97,0,1.97-2.45,2.08-2.45,4.1,0,1.17,.8,2.82,1.86,4.84l5.64,10.75,5.21-10.75c.85-1.76,1.44-3.35,1.44-4.52,0-2.45-2.61-2.34-2.61-4.36,0-1.22,.9-2.02,2.34-2.02,1.65,0,3.46,.16,6.86,.16,2.61,0,4.26-.16,5.64-.16,1.65,0,2.34,.9,2.34,1.86,0,2.34-2.71,1.97-2.71,4.84,0,1.33,.27,2.71,.96,6.01l3.94,18.68c.75,3.56,4.1,2.77,4.1,5.21Z"/><path d="M53.17,271.22c0-9.42,7.66-15.16,15.7-15.16,6.92,0,12.13,4.31,12.13,7.45,0,1.44-1.06,3.35-4.36,5.53-1.01,.69-1.6,.8-2.08,.8-1.17,0-1.86-.9-2.08-1.92-.58-2.93-1.33-7.82-4.74-7.82-2.5,0-3.94,2.61-3.94,6.76,0,7.5,4.74,11.6,9.15,11.6,3.25,0,5.32-1.65,6.86-2.77,.59-.42,.91-.58,1.33-.58,.85,0,1.33,.8,1.33,1.44,0,.48-.16,1.01-.43,1.65-1.28,2.93-5.75,7.08-13.78,7.08-8.62,0-15.11-5.43-15.11-14.05Z"/><path d="M122.51,282.66c0,.9-.69,1.6-1.86,1.6-1.81,0-4.63-.16-8.09-.16-3.14,0-5.48,.16-6.97,.16-1.7,0-2.66-.64-2.66-1.81,0-2.18,2.34-1.28,2.34-3.41,0-1.06-1.01-2.23-1.76-3.25l-2.39-3.19c-1.01-1.33-1.7-1.81-2.93-1.81h-1.28c-.69,0-1.01,.37-1.01,1.28v5.05c0,3.83,3.19,2.87,3.19,5.27,0,.96-.69,1.86-2.34,1.86-1.44,0-2.87-.16-6.54-.16s-5,.16-6.44,.16c-1.65,0-2.34-.9-2.34-1.86,0-2.39,3.09-1.44,3.09-5.27v-24.16c0-3.83-3.09-2.87-3.09-5.27,0-.91,.64-1.86,2.77-1.86,.8,0,3.03,.16,5.32,.16,2.13,0,6.49-.43,9.95-.43,12.98,0,19.26,5.21,19.26,13.04,0,5.27-2.82,9.1-7.66,10.8l4.84,6.17c3.88,4.95,6.6,4.47,6.6,7.08Zm-16.17-23.89c0-5.8-3.3-8.03-7.66-8.03-1.49,0-2.77,.43-2.77,2.39v11.44c0,1.54,1.12,1.86,2.98,1.86,5.05,0,7.45-2.23,7.45-7.66Z"/><path d="M155.08,258.72c0,2.08-2.45,1.44-4.74,6.7l-8.3,19.42c-2.61,6.17-6.44,9.68-11.55,9.68-2.29,0-4.2-.58-4.9-1.44-1.12-1.38-2.45-5.69-2.45-8.19,0-1.33,.8-2.29,1.76-2.29,.58,0,1.12,.21,1.65,.91,2.39,3.09,3.72,4.2,5.75,4.2,1.38,0,2.34-1.22,3.14-2.87l-9.95-19.42c-2.66-5.21-4.84-4.63-4.84-6.7,0-1.06,.9-1.7,2.02-1.7,1.38,0,3.35,.16,6.7,.16s4.89-.16,6.49-.16c1.7,0,2.5,.69,2.5,1.7,0,2.13-2.29,1.7-2.29,4.15,0,1.06,.37,2.02,.96,3.51l3.94,8.46,3.46-8.46c.64-1.7,.96-2.66,.96-3.62,0-2.08-2.39-1.92-2.39-4.04,0-1.01,.74-1.7,2.45-1.7,1.12,0,2.39,.16,3.83,.16,1.33,0,2.82-.16,3.78-.16,1.17,0,2.02,.69,2.02,1.7Z"/><path d="M187.22,279.52c0,1.81-2.77,5-8.25,5-2.5,0-4.79-1.17-6.23-3.35-1.92,1.6-5.37,3.57-10,3.57-6.12,0-9.79-3.46-9.79-8.41s3.99-8.83,11.44-8.83c2.5,0,4.47,.32,5.8,.69l-.05-.53c-.48-3.46-2.55-5.21-5.21-5.21-2.34,0-4.1,.69-5.59,1.33-.96,.43-1.86,.9-2.55,.9-.75,0-1.6-.64-1.6-1.76,0-1.33,1.33-2.66,2.29-3.41,2.39-1.86,5.91-3.14,10.75-3.14,6.49,0,11.12,2.5,11.97,8.83l1.17,8.57c.43,3.14,1.65,3.88,4.74,4.47,.58,.11,1.12,.53,1.12,1.28Zm-15.7-1.81l-.8-5.69c-.64-.16-1.54-.27-2.66-.27-2.55,0-4.58,.96-4.58,3.41s1.76,3.88,3.94,3.88c1.6,0,3.19-.69,4.1-1.33Z"/><path d="M223.88,282.55c0,.96-.85,1.65-2.29,1.65-1.33,0-2.5-.16-5.75-.16s-4.52,.16-5.85,.16c-1.7,0-2.39-.85-2.39-1.76,0-2.02,2.71-1.65,2.71-4.2,0-.69-.11-1.65-.32-3.09l-.75-5.32c-.59-4.31-2.02-5.75-4.15-5.75-1.7,0-3.78,1.28-3.78,6.49v6.86c0,3.67,2.98,2.77,2.98,5.05,0,.85-.64,1.76-2.24,1.76-1.33,0-2.66-.16-5.91-.16s-4.52,.16-5.85,.16c-1.6,0-2.23-.85-2.23-1.76,0-2.29,2.93-1.38,2.93-5.05v-9.9c0-3.46-3.3-2.18-3.3-4.79,0-1.38,1.65-2.18,6.12-4.1,4.1-1.76,4.84-1.92,5.48-1.92,1.6,0,2.02,1.28,2.02,3.03v2.08h.05c1.6-2.82,4.84-5.32,9.04-5.32,4.84,0,8.04,3.57,8.89,10.32l1.28,9.9c.58,4.58,3.3,3.41,3.3,5.8Z"/><path d="M230.5,251.22c0,5.59-5.43,11.49-8.62,11.49-1.01,0-1.7-.64-1.7-1.54s.75-1.33,1.49-1.97c1.06-.8,1.97-1.92,1.97-2.93,0-1.06-1.28-1.38-2.29-1.92-1.44-.64-2.77-1.49-2.77-3.83,0-2.82,2.71-5.16,6.28-5.16s5.64,1.97,5.64,5.85Z"/><path d="M229.56,282.45l-1.81-3.99c-.69-1.49-1.38-2.61-1.38-3.78s.85-1.81,1.65-1.81,1.38,.43,2.29,1.28c2.98,2.87,7.18,6.07,11.92,6.07,2.34,0,3.67-1.06,3.67-2.24,0-1.86-3.35-2.18-7.13-3.03-6.17-1.33-11.92-3.83-11.92-9.63,0-5.27,4.95-8.78,11.07-8.78,3.09,0,5.53,.85,6.6,.85,1.17,0,1.17-1.06,2.55-1.06s2.02,1.06,2.77,2.18l2.18,3.3c.8,1.22,1.49,2.39,1.49,3.35s-.69,1.6-1.44,1.6c-.9,0-1.49-.64-2.34-1.33-3.14-2.5-7.02-4.52-10.22-4.52-1.65,0-2.87,.69-2.87,1.81,0,1.76,2.98,2.13,6.7,3.03,6.28,1.44,12.29,3.41,12.29,9.52s-6.12,9.42-13.36,9.42c-3.78,0-5.85-.85-7.02-.85-1.54,0-1.65,1.44-3.09,1.44-1.33,0-2.02-1.49-2.61-2.82Z"/></g></g></g></svg>