<?xml version="1.0" encoding="UTF-8"?><svg id="Layer_2" xmlns="http://www.w3.org/2000/svg" viewBox="0 0 274.28 274.28"><defs><style>.cls-1{fill:#fff;}.cls-2{fill:#95d8f6;}</style></defs><g id="Layer_1-2"><g><rect class="cls-2" width="274.28" height="274.28"/><rect class="cls-1" x="46.48" y="29.69" width="181.31" height="21.56"/><g><polygon class="cls-1" points="93.28 57.54 76.99 90.01 101.05 90.01 110.82 57.54 93.28 57.54"/><polygon class="cls-1" points="69.88 57.54 44.92 90.01 68.97 90.01 87.43 57.54 69.88 57.54"/><polygon class="cls-1" points="46.48 57.54 12.84 90.01 36.9 90.01 64.03 57.54 46.48 57.54"/><polygon class="cls-1" points="116.67 57.54 109.07 90.01 133.13 90.01 134.22 57.54 116.67 57.54"/><polygon class="cls-1" points="210.25 57.54 237.39 90.01 261.45 90.01 227.8 57.54 210.25 57.54"/><polygon class="cls-1" points="186.86 57.54 205.31 90.01 229.37 90.01 204.4 57.54 186.86 57.54"/><polygon class="cls-1" points="140.07 57.54 141.15 90.01 165.21 90.01 157.61 57.54 140.07 57.54"/><polygon class="cls-1" points="163.46 57.54 173.23 90.01 197.29 90.01 181.01 57.54 163.46 57.54"/></g><g><path class="cls-1" d="M12.84,96.31h24.06v12.01c0,3.98-3.23,7.21-7.21,7.21h-9.63c-3.98,0-7.21-3.23-7.21-7.21v-12.01h0Z"/><path class="cls-1" d="M237.39,96.31h24.06v12.01c0,3.98-3.23,7.21-7.21,7.21h-9.63c-3.98,0-7.21-3.23-7.21-7.21v-12.01h0Z"/><path class="cls-1" d="M205.31,96.31h24.06v12.01c0,3.98-3.23,7.21-7.21,7.21h-9.63c-3.98,0-7.21-3.23-7.21-7.21v-12.01h0Z"/><path class="cls-1" d="M173.23,96.31h24.06v12.01c0,3.98-3.23,7.21-7.21,7.21h-9.63c-3.98,0-7.21-3.23-7.21-7.21v-12.01h0Z"/><path class="cls-1" d="M141.15,96.31h24.06v12.01c0,3.98-3.23,7.21-7.21,7.21h-9.63c-3.98,0-7.21-3.23-7.21-7.21v-12.01h0Z"/><path class="cls-1" d="M109.07,96.31h24.06v12.01c0,3.98-3.23,7.21-7.21,7.21h-9.63c-3.98,0-7.21-3.23-7.21-7.21v-12.01h0Z"/><path class="cls-1" d="M76.99,96.31h24.06v12.01c0,3.98-3.23,7.21-7.21,7.21h-9.63c-3.98,0-7.21-3.23-7.21-7.21v-12.01h0Z"/><path class="cls-1" d="M44.92,96.31h24.06v12.01c0,3.98-3.23,7.21-7.21,7.21h-9.63c-3.98,0-7.21-3.23-7.21-7.21v-12.01h0Z"/></g><path class="cls-1" d="M29.69,121.33v123.26h18v-77.11c0-15.55,12.61-28.16,28.16-28.16s28.16,12.61,28.16,28.16v77.11H244.59V121.33H29.69Zm196.91,87.26H122v-69.26h104.59v69.26Z"/><path class="cls-1" d="M53.99,167.49v77.11h43.71v-77.11H53.99Zm37.41,59.11h-31.11v-52.81h31.11v52.81Z"/><path class="cls-1" d="M215.38,175.35c-2.49,4.31-4.9,6.76-6.31,6.76-.6,0-1.26-.46,.35-4.48l1.72-4.17c.74-1.82,1.05-3.01,1.05-3.96,0-1.86-1.16-3.05-3.36-3.05-2.98,0-5.57,2.14-5.75,2.31l.74-1.86h-5.57l-3.51,8.67c-2.49,4.26-6.19,6.54-9.7,6.54-4.45,0-3.43-3.64-3.43-3.64,6.48,.84,9.28-1.19,10.75-4.38,2.24-5.04-1.12-7.64-5.08-7.64-5.7,0-9.1,4.75-10.41,9.08-2.37,4.01-4.59,6.01-7.39,7.25,1.19-1.37,4.73-6.94,4.73-11.46,0-2.52-1.12-4.87-4.03-4.87-2.63,0-4.48,1.93-4.48,1.96l.6-1.51h-5.53l-3.52,8.69c-.83,1.33-2.49,3.45-5.49,3.29,2.66-4.66,4.13-10.23,4.13-14.5,0-6.24-3.36-8.48-6.8-8.48-2.52,0-4.45,1.16-5.85,2.91-7.78,3.19-11.98,13.8-11.98,20.42,0,4.73,2.14,9,7.71,9,4.34,0,8.06-2.7,10.9-6.48,1.96,.41,3.72,.01,5.2-.78l-4.47,11.04h5.57l7.36-18.18c1.12-1.61,2.66-2.94,3.96-2.94,.74,0,1.09,.46,1.09,1.47,0,3.19-3.43,10.09-5.36,10.09-.63,0-1.16-.74-1.16-.74l-1.79,1.65s1.26,2.17,5.68,2.17,7.83-2.14,10.38-5.07c.44,3.15,2.77,5.07,7.13,5.07,3.41,0,6.19-1.18,8.42-2.9l-.99,2.44h5.57l4.73-11.67c1.47-1.68,3.08-2.49,3.92-2.49,.52,0,.95,.28,.95,.77,0,.53-.56,1.86-1.23,3.54l-.53,1.3c-2.49,6.2-.98,9,2.66,9,4.2,0,7.57-3.92,10.37-8.79-.28-.67-1.23-1.33-1.96-1.4Zm-28.38-4.45c1.19,0,.98,.95,.53,2-.7,1.65-1.75,3.12-4.97,2.56,0,0,1.86-4.55,4.45-4.55Zm-47.68,13.03c-2.1,0-2.87-2.07-2.87-4.34,0-3.43,1.82-8.58,3.89-12.3-.46,8.76,4.69,12.3,4.69,12.3-1.75,2.56-3.75,4.34-5.71,4.34Zm7.74-7.71c-1.47-1.86-2.35-4.55-2.35-7.67,0-4.56,1.89-7.04,3.75-7.04,1.3,0,2.07,1.19,2.07,3.26,0,2.66-1.4,7.39-3.47,11.46Z"/></g></g></svg>