<?xml version="1.0" encoding="UTF-8"?><svg id="Layer_2" xmlns="http://www.w3.org/2000/svg" viewBox="0 0 240.78 235.14"><defs><style>.cls-1{fill:#e7c55e;}.cls-2{fill:#fff9ef;}.cls-3{fill:#95171a;}.cls-4{fill:#bc932f;}.cls-5{fill:#280000;}</style></defs><g id="Layer_1-2"><g><g><path class="cls-3" d="M233.15,110.89l-4.7-.51c-3.97-.43-6.57-4.35-5.43-8.17l3.77-13.46c.56-1.99,3-2.73,4.57-1.38h0c.81,.7,1.16,1.79,.9,2.83l-2.55,10.2c-.78,3.1,1.57,6.11,4.77,6.11h0c3.2,0,5.55-3.01,4.77-6.11l-1.8-7.21c-.76-3.02-.4-6.21,.99-9h0c1.54-3.08,2.34-6.48,2.34-9.92v-24.76c0-.88-.12-1.72-.34-2.53C236.82,13.7,162.07,0,120.3,0S0,14.39,0,49.51H0s.02,97.24,.02,97.24c0,19.01,.23,32.87,5.11,40.14,6.3,9.39,17.18,9.39,28.71,9.39,.03,0,.06,0,.09,0,6.09,0,11.11,4.74,11.51,10.81,.29,4.38-.27,8.82-1.69,13.07l-1.57,4.72c-1.4,4.2,1.59,8.75,6.01,8.79,4.46,.04,7.62-4.32,6.21-8.54l-1.66-4.97c-2.29-6.87-2.34-14.24-.21-21.06,.74-2.37,3.21-3.89,5.62-3.28,2.02,.51,3.34,2.25,3.49,4.23,2.31,30.55,44.52,30.55,58.66,30.55,10.94,0,38.68,0,51.74-14.16,2.03-2.2,5.61-.31,4.88,2.6-.22,.87-.47,1.73-.75,2.59l-1.57,4.72c-1.4,4.2,1.59,8.75,6.01,8.79,4.46,.04,7.62-4.32,6.21-8.54l-1.66-4.97c-2.32-6.97-2.33-14.45-.11-21.36,.62-1.92,2.04-3.55,3.95-4.2,2.39-.8,4.93-.08,6.53,1.69l.37,.4c2.45,2.69,2.86,6.66,1.01,9.79l-.9,1.53c-2.05,3.49,.42,8.06,4.47,7.96s6.28-4.37,4.29-7.76l-1.02-1.73c-1.87-3.18-1.42-7.21,1.11-9.9,1.24-1.32,3.03-1.99,4.84-1.89,1.29,.07,2.57,.1,3.83,.1,7.58,0,16.08-.78,21.63-6.58,5.17-5.39,5.6-12.44,5.6-19.19v-51.12c0-4.36-3.29-8.03-7.63-8.49Z"/><circle class="cls-3" cx="25.46" cy="210.09" r="5"/></g><path class="cls-5" d="M230.78,47.51h-18.77c-.45,0-.86,.15-1.2,.4-.33-.25-.75-.4-1.2-.4h-19.17c-1.1,0-2,.9-2,2v4.12c-2.01-5.18-5.85-6.52-12.93-6.52-5.11,0-9.93,.31-12.64,4.02-.02,.03-.04,.06-.06,.08v-1.7c0-1.1-.9-2-2-2h-11.34c-1.1,0-2,.9-2,2v4.11c-2.01-5.17-5.85-6.51-12.93-6.51-5.11,0-9.93,.31-12.64,4.02-.02,.03-.04,.06-.06,.08v-1.7c0-1.1-.9-2-2-2h-11.34c-1.1,0-2,.9-2,2v4.73c-.4-.98-.88-1.85-1.45-2.61-3.19-4.27-8.66-4.6-16.04-4.6s-12.76,.33-15.97,4.59c-2.96,3.93-3.52,10.76-3.52,22.01,0,.61,0,1.18,0,1.75h-1.52c-.19,0-.34,0-.44-.02-.03-.36-.03-.93-.03-1.42V36.81c0-1.1-.9-2-2-2h-12.22c-1.1,0-2,.9-2,2v2.16c-.24-.11-.51-.16-.79-.16h-5.75c-1.1,0-2,.9-2,2v4.37c-1.95-5.82-7.15-6.93-16.61-6.93-6.69,0-11.45,.49-14.47,2.93-3.24,2.61-3.9,6.88-3.9,12.49,0,.66,0,1.29,.03,1.89-.02,.55-.03,1.12-.03,1.71,0,.66,0,1.29,.03,1.89-.02,.55-.03,1.12-.03,1.71,0,3.82,.27,6.89,1.37,9.38-.3,.35-.49,.81-.49,1.31v32.24c-.53,.36-.88,.97-.88,1.66v37.9c0,.32,.08,.62,.21,.89,0,.8,0,1.59,0,2.36,0,.05,0,.1,0,.15,0,1.19,0,2.34,0,3.45,0,.05,0,.1,0,.15,0,18.42,.35,27.03,3.75,32.08,3.74,5.57,10.48,5.85,22.06,5.85,10.47,0,17.12-.32,21.11-4.81,3.97-4.46,4.7-12.33,4.7-26.22v-7.1c0-4.79,.86-4.79,1.76-4.79h3.24c.22,0,.42-.04,.62-.11,0,1.01-.01,2.05-.01,3.13,0,.85,0,1.68,0,2.49v.4s0,.72,0,.72c0,.85,0,1.68,0,2.49v.4s0,.72,0,.72c0,15.09,.36,22.72,3.7,27.42,3.5,4.94,9.61,5.8,21.17,5.8s17.62-.87,21.13-5.8c1.91-2.68,2.86-6.35,3.33-12.13,.43,5.94,1.36,9.82,3.36,12.54,3.67,5.03,10.44,5.39,21.16,5.39s17.3-.31,20.96-4.59c3.53-4.14,3.7-11.27,3.7-23.52,0-.07,0-.14-.01-.21,0-.85,0-1.73,.01-2.64,0-.02,0-.05,0-.07v-.14s0-.13,0-.13v-.2s0-.21,0-.21c0-.03,0-.06,0-.09v-1.13c0-.52,0-1.07,0-1.63,0-.02,0-.05,0-.07v-.14s0-.13,0-.13v-.2s0-.21,0-.21c0-.03,0-.06,0-.09,0-.89,0-1.77-.01-2.61,0-.07,.01-.14,.01-.22,0-15.02-.42-24.11-3.59-29.48h4.89v21.14c0,1.1,.9,2,2,2h6.63c7.59,0,8.87-2.64,8.87-8.55v-24.13c0-1.1-.9-2-2-2h-11.66v-3.69c1.5,.32,3.39,.46,5.91,.46,5.09,0,9.9,0,12.65-4.11,2.22-3.31,3-8.88,3-21.29,0-.46,0-.91,0-1.35h2.39c.55,0,.78,0,1.37,1.87l3.59,11.3c-.08-.01-.16-.02-.25-.02h-4.31c-1.1,0-2,.9-2,2,0,1.16,0,2.24,.03,3.27-.02,.11-.03,.22-.03,.33,0,1.17,0,2.24,.03,3.27-.02,.11-.03,.22-.03,.33,0,6.11,.2,10.42,1.1,13.42-7.36,2.18-8.79,7.9-8.79,17.79,0,.57,0,1.1,.02,1.62-.01,.64-.02,1.29-.02,1.98,0,.57,0,1.1,.02,1.62-.01,.64-.02,1.29-.02,1.98,0,3.72,.29,6.73,1.49,9.18-.34,.36-.55,.84-.55,1.38v34.88c0,1.1,.9,2,2,2h7.41c1.1,0,2-.9,2-2v-6.38c1.5,6.59,6.4,8.9,17.63,8.9,16.33,0,19.23-4.66,19.23-17.77,0-.35-.01-.71-.03-1.15,.02-.77,.03-1.57,.03-2.45,0-.35-.01-.71-.03-1.15,.02-.77,.03-1.57,.03-2.45,0-2.95-.56-5.49-1.71-7.68,.86-.22,1.5-1.01,1.5-1.94v-36.86c0-1.1-.9-2-2-2h-7.41c-1.1,0-2,.9-2,2v6.84c-.67-2.92-2.11-5.72-5.54-7.47,.94-1.88,1.78-4.37,2.85-7.69l8.55-27.09c.5-1.59,.81-1.82,.83-1.83,0,0,.11-.05,.54-.05h2.4c1.1,0,2-.9,2-2v-28.04c0-1.1-.9-2-2-2ZM111.33,121.08h6.46c-1.82,3.09-2.75,7.42-3.2,13.51-.46-6.01-1.41-10.4-3.26-13.51Zm38.16-41.53h2.23c.11,0,.19,0,.25,.01,.06,.19,.14,.63,.14,1.58v13.17c0,.95-.09,1.39-.14,1.58-.06,0-.14,.01-.25,.01h-2.16c-.33,0-.65,.08-.93,.23,.61-3.46,.85-8.27,.85-15.23,0-.46,0-.91,0-1.35Zm-1.92,21.95v13.02c-2.76-.27-5.82-.32-8.78-.32-4.27,0-7.87,.12-10.85,.63v-8.99c1.5,.32,3.39,.46,5.91,.46,5.09,0,9.9,0,12.65-4.11,.41-.6,.76-1.28,1.08-2.07v1.38ZM18.71,145.66v-.3h20.66c3.33,0,4.38,.61,4.8,1.26-.41,.52-1.44,.91-4.8,.91H20.47c-1.51,0-1.76-.05-1.76-1.86ZM108.52,80.83c0-.44,0-.86,0-1.27h2.23c.11,0,.19,0,.25,.01,.06,.19,.14,.63,.14,1.58v13.17c0,.95-.09,1.39-.14,1.58-.06,0-.14,.01-.25,.01h-2.16c-.3,0-.57,.07-.83,.18,.63-3.71,.75-8.66,.75-15.26Zm-55.19-15.01h2.48c.12,0,.21,0,.27,.01,.05,.21,.12,.66,.12,1.58v6.54c0,.83-.07,1.23-.12,1.42-.06,0-.16,.01-.28,.01h-2.48c-.36,0-.69,.1-.98,.27,.11-.25,.19-.52,.19-.81v-9.19c.24,.11,.51,.16,.79,.16Zm13.31,46.83v-6.74h2.91c1.1,0,2-.9,2-2v-3.42c2.3,5.07,7.18,6.22,17.49,6.22s15.3-1.19,17.56-6.41v16.28c-4.07-2.15-9.63-2.37-16.48-2.37-9.4,0-16.37,.41-20.4,5.76-1.42,1.88-2.4,4.32-3.08,7.4v-14.71Z"/><g><g><g><path class="cls-2" d="M19.64,87.93l-.16-1.44c-.16-1.36-.56-2.4-1.52-2.4-1.12,0-1.52,.8-1.52,1.68v10.94h-5.75v-25.16h5.11c0,3.19,.8,3.75,5.91,3.75h1.44c4.39,0,5.35-.72,5.35-2.4,0-1.28-1.04-2.08-5.19-3.35-11.34-3.27-13.5-5.43-13.5-15.89,0-11.26,2.96-13.42,16.37-13.42,11.26,0,14.78,1.44,15.41,9.34,.24,2.16,.4,3.83,1.68,3.83,1.44,0,1.52-1.28,1.52-2.24v-10.38h5.75v26.83h-5.11c0-2.72-.64-4.15-5.83-4.15h-2.79c-4.23,0-4.87,.56-4.87,2.08s1.76,2.24,7.11,3.91c8.62,2.71,11.66,6.95,11.66,13.34,0,10.7-1.76,14.3-15.57,14.3-12.54,0-15.09-1.84-15.49-9.18Z"/><path class="cls-2" d="M53.34,77.38h2.48c1.84,0,2.4-.88,2.4-3.43v-13.74c0-2.79-.56-3.59-2.4-3.59h-2.48v-19.81h12.22v37.14c0,2.48,0,3.43,2.48,3.43h1.52v19.33h-16.21v-19.33Z"/><path class="cls-2" d="M71.54,73.63c0-22.68,2.48-24.6,17.49-24.6s17.49,1.92,17.49,24.6-1.04,23.88-17.49,23.88-17.49-2.16-17.49-23.88Zm23.72,3.75c2.79,0,3.35-1.68,3.35-3.75,0-1.84-.88-3.27-3.04-3.27h-13.02c-2.24,0-3.12,1.44-3.12,3.27,0,2.08,.72,3.75,3.43,3.75h12.38Z"/><path class="cls-2" d="M108.6,97.91h2.16c1.84,0,2.4-.96,2.4-3.59v-20.37c0-2.63-.56-3.59-2.4-3.59h-2.24v-20.84h11.34v10.22c0,.64,.32,1.2,1.28,1.2,2.24,0,.24-5.19,2.4-8.62,2.16-2.96,6.31-3.2,11.02-3.2,10.62,0,12.94,2.32,12.94,24.6s-2.56,23.4-13.66,23.4c-7.43,0-8.23-1.28-9.9-3.59-2.16-3.59-.16-8.15-2.4-8.15-1.2,0-1.28,.96-1.28,1.84v7.11c0,2.79,.4,3.59,2.24,3.59h3.43v13.98h-17.33v-13.98Zm27.63-20.53c2.79,0,3.35-1.84,3.35-3.75s-.88-3.27-3.04-3.27h-13.1c-2.24,0-3.12,1.44-3.12,3.27,0,2.08,.72,3.75,3.43,3.75h12.46Z"/><path class="cls-2" d="M149.56,97.91h2.16c1.84,0,2.4-.96,2.4-3.59v-20.37c0-2.63-.56-3.59-2.4-3.59h-2.24v-20.84h11.34v10.22c0,.64,.32,1.2,1.28,1.2,2.24,0,.24-5.19,2.4-8.62,2.16-2.96,6.31-3.2,11.02-3.2,10.62,0,12.94,2.32,12.94,24.6s-2.56,23.4-13.66,23.4c-7.43,0-8.23-1.28-9.9-3.59-2.16-3.59-.16-8.15-2.4-8.15-1.2,0-1.28,.96-1.28,1.84v7.11c0,2.79,.4,3.59,2.24,3.59h3.43v13.98h-17.33v-13.98Zm27.63-20.53c2.79,0,3.35-1.84,3.35-3.75s-.88-3.27-3.04-3.27h-13.1c-2.24,0-3.12,1.44-3.12,3.27,0,2.08,.72,3.75,3.43,3.75h12.46Z"/><path class="cls-2" d="M193.25,94.71h4.31c0,1.36,.48,2,2,2h8.31c2.24,0,3.12-1.2,3.75-3.99h-9.42l-6.07-19.09c-.88-2.79-1.76-3.27-3.27-3.27h-2.4v-20.84h19.17v20.84h-6.07c0,1.2,.16,2.64,.72,3.83,1.28,3.27,2.16,3.43,6.55,3.43s5.27-.16,6.55-3.43c.56-1.2,.72-2.64,.72-3.83h-6.07v-20.84h18.77v20.84h-2.4c-1.6,0-2.4,.48-3.27,3.27l-8.55,27.07c-3.51,10.86-4.15,11.58-12.62,11.58-9.1,0-10.7-1.2-10.7-17.57Z"/></g><g><path class="cls-2" d="M10.02,143.15h6.68v2.51c0,2.92,1.15,3.86,3.76,3.86h18.9c5.95,0,7.41-1.04,7.41-6.58,0-5.01-1.46-6.79-7.41-6.79H9.81v-30.7h54.83v30.7h-3.24c-3.03,0-3.76,2.3-3.76,6.79v7.1c0,27.68-3.24,29.03-23.81,29.03-22.66,0-23.81-1.25-23.81-35.93Z"/><path class="cls-2" d="M116.22,148.37c0-29.66,2.92-32.17,22.56-32.17,20.68,0,22.98,2.51,22.98,34.36h-35.09c0,.21,0,.42,.1,.52,.42,2.3,1.78,3.76,4.28,3.76h21.41c1.57,0,2.61-.21,2.61-1.36h6.68c0,24.44-1.04,26.11-22.66,26.11s-22.87-1.78-22.87-31.23Zm35.09-1.78c0-3.24-1.04-4.07-3.86-4.07h-16.81c-1.46,0-2.51,.52-3.13,1.57-.42,.73-.73,1.57-.84,2.51h24.65Z"/><path class="cls-2" d="M167.05,130.95h6.55c1.84,0,2.24-.4,2.24-1.76,0-1.2-.4-1.68-2.24-1.68h-3.43c-2.71,0-3.11-.48-3.11-3.51v-12.46h13.5v16.93c0,4.79-.4,6.55-6.87,6.55h-6.63v-4.07Z"/><path class="cls-2" d="M197.47,168.95c-.1-2.51-.52-4.28-1.88-4.28-1.25,0-1.67,.84-1.67,1.78v12.11h-7.41v-27.68h6.68c0,3.55,.73,4.07,5.53,4.07h1.57c4.7,0,5.95-.73,5.95-2.61,0-1.46-1.15-2.19-5.74-3.65-12.64-3.24-14.93-5.43-14.93-15.56,0-13.99,2.82-16.92,18.07-16.92,11.91,0,15.14,2.92,15.98,10.34,.1,2.61,.31,4.28,1.88,4.28,1.36,0,1.67-1.57,1.67-2.51v-11.49h7.41v29.66h-6.68c0-2.92-.84-4.59-6.47-4.59h-2.09c-4.59,0-5.33,.63-5.33,2.3,0,1.46,2.09,2.51,7.83,4.39,9.4,3.03,12.95,7.52,12.95,14.73,0,11.7-1.78,15.77-17.23,15.77-13.16,0-15.56-3.24-16.08-10.13Z"/><path class="cls-2" d="M90.12,116.21c-19.63,0-22.87,2.51-22.87,32.17s1.25,31.23,22.87,31.23,22.87-2.82,22.87-31.23-3.03-32.17-22.87-32.17Zm8.37,44.58l-8.37-6.08-8.37,6.08,3.2-9.84-8.37-6.08h10.35l3.2-9.84,3.2,9.84h10.35l-8.37,6.08,3.2,9.84Z"/></g></g><g><g><path class="cls-1" d="M120.3,10c-38.93,0-48.75,20.03-48.75,27.71h97.51c0-7.68-9.83-27.71-48.75-27.71Z"/><ellipse class="cls-4" cx="120.3" cy="37.71" rx="48.75" ry="5.21"/></g><g><path class="cls-1" d="M71.54,198.29c0,19.5,23.53,23.21,48.75,23.21s48.75-3.72,48.75-23.21H71.54Z"/><ellipse class="cls-4" cx="120.3" cy="198.29" rx="48.75" ry="5.21"/></g></g></g><g><ellipse class="cls-4" cx="94.07" cy="21.92" rx="2.75" ry="1.3" transform="translate(1.64 49.97) rotate(-30)"/><ellipse class="cls-4" cx="83.02" cy="27.01" rx="2.75" ry="1.3" transform="translate(18.12 85.4) rotate(-60)"/><ellipse class="cls-4" cx="103.65" cy="23.18" rx="1.3" ry="2.75" transform="translate(2.29 54.93) rotate(-30)"/><ellipse class="cls-4" cx="106.25" cy="15.92" rx="1.3" ry="2.75" transform="translate(45.13 104.29) rotate(-63.85)"/><ellipse class="cls-4" cx="112.61" cy="21.92" rx="2.75" ry="1.3" transform="translate(61.07 124.41) rotate(-74.32)"/><ellipse class="cls-4" cx="155.12" cy="25.86" rx="2.75" ry="1.3" transform="translate(88.31 168.22) rotate(-74.32)"/><ellipse class="cls-4" cx="136.12" cy="19.42" rx="2.75" ry="1.3" transform="translate(8.52 70.66) rotate(-30)"/><ellipse class="cls-4" cx="129.38" cy="15.53" rx="1.3" ry="2.75" transform="translate(46.95 116.46) rotate(-57.6)"/><ellipse class="cls-4" cx="117.83" cy="14.94" rx="2.75" ry="1.3" transform="translate(-.84 10.04) rotate(-4.86)"/><ellipse class="cls-4" cx="124.14" cy="23.8" rx="1.3" ry="2.75" transform="translate(37.53 115.87) rotate(-57.6)"/><ellipse class="cls-4" cx="147.49" cy="19.81" rx="1.3" ry="2.75" transform="translate(51.74 133.73) rotate(-57.6)"/><ellipse class="cls-4" cx="143.17" cy="27.01" rx="2.75" ry="1.3" transform="translate(-2.22 17.64) rotate(-6.99)"/></g><g><ellipse class="cls-2" cx="94.07" cy="20.12" rx="2.75" ry="1.3" transform="translate(2.54 49.73) rotate(-30)"/><ellipse class="cls-2" cx="83.02" cy="25.21" rx="2.75" ry="1.3" transform="translate(19.68 84.5) rotate(-60)"/><ellipse class="cls-2" cx="103.65" cy="21.38" rx="1.3" ry="2.75" transform="translate(3.19 54.69) rotate(-30)"/><ellipse class="cls-2" cx="106.25" cy="14.12" rx="1.3" ry="2.75" transform="translate(46.75 103.28) rotate(-63.85)"/><ellipse class="cls-2" cx="112.61" cy="20.12" rx="2.75" ry="1.3" transform="translate(62.8 123.1) rotate(-74.32)"/><ellipse class="cls-2" cx="155.12" cy="24.06" rx="2.75" ry="1.3" transform="translate(90.04 166.91) rotate(-74.32)"/><ellipse class="cls-2" cx="136.12" cy="17.62" rx="2.75" ry="1.3" transform="translate(9.42 70.42) rotate(-30)"/><ellipse class="cls-2" cx="129.38" cy="13.73" rx="1.3" ry="2.75" transform="translate(48.47 115.62) rotate(-57.6)"/><ellipse class="cls-2" cx="117.83" cy="13.14" rx="2.75" ry="1.3" transform="translate(-.69 10.03) rotate(-4.86)"/><ellipse class="cls-2" cx="124.14" cy="22" rx="1.3" ry="2.75" transform="translate(39.05 115.03) rotate(-57.6)"/><ellipse class="cls-2" cx="147.49" cy="18.01" rx="1.3" ry="2.75" transform="translate(53.26 132.9) rotate(-57.6)"/><ellipse class="cls-2" cx="143.17" cy="25.21" rx="2.75" ry="1.3" transform="translate(-2 17.62) rotate(-6.99)"/></g></g></g></svg>