<?xml version="1.0" encoding="UTF-8"?><svg id="Layer_2" xmlns="http://www.w3.org/2000/svg" viewBox="0 0 287.05 591.97"><defs><style>.cls-1{letter-spacing:-.01em;}.cls-2{letter-spacing:-.02em;}.cls-3{font-family:NiveauGroteskMedium, 'Niveau Grotesk';}.cls-3,.cls-4{font-size:18.6px;}.cls-5{fill:#eeeae3;}.cls-6{fill:#0c0024;}.cls-7,.cls-8{fill:#387f5f;}.cls-9{letter-spacing:0em;}.cls-10{letter-spacing:-.02em;}.cls-11{letter-spacing:-.01em;}.cls-12{letter-spacing:-.03em;}.cls-13{letter-spacing:0em;}.cls-14{letter-spacing:-.05em;}.cls-4{fill:#fff;}.cls-4,.cls-15,.cls-8{font-family:NiveauGroteskBlack, 'Niveau Grotesk';}.cls-16{letter-spacing:-.02em;}.cls-17{letter-spacing:0em;}.cls-18{letter-spacing:-.07em;}.cls-19{letter-spacing:-.01em;}.cls-20{letter-spacing:0em;}.cls-15,.cls-8{font-size:27.9px;}.cls-21{letter-spacing:0em;}.cls-22{letter-spacing:0em;}.cls-23{letter-spacing:0em;}.cls-24{letter-spacing:0em;}.cls-25{letter-spacing:-.01em;}.cls-26{letter-spacing:0em;}.cls-27{letter-spacing:0em;}.cls-28{letter-spacing:0em;}.cls-29{letter-spacing:0em;}.cls-30{letter-spacing:0em;}.cls-31{letter-spacing:-.03em;}</style></defs><g id="Layer_1-2"><g><g><path class="cls-6" d="M242.83,0H44.22C19.84,0,0,19.84,0,44.22v503.53c0,24.38,19.84,44.22,44.22,44.22H242.83c24.38,0,44.22-19.84,44.22-44.22V44.22c0-24.38-19.84-44.22-44.22-44.22h0Z"/><path class="cls-5" d="M242.83,12.56h-45.08v8.1c0,8.6-6.97,15.58-15.58,15.58H104.87c-8.6,0-15.58-6.97-15.58-15.58V12.56H44.22c-17.41,0-31.66,14.25-31.66,31.66v503.53c0,17.41,14.25,31.66,31.66,31.66H242.83c17.41,0,31.66-14.25,31.66-31.66V44.22c0-17.41-14.25-31.66-31.66-31.66Z"/></g><g><text class="cls-8" transform="translate(24.8 88.25)"><tspan class="cls-27" x="0" y="0">J</tspan><tspan x="12.25" y="0">ohn </tspan><tspan class="cls-30" x="64.92" y="0">S</tspan><tspan x="78.67" y="0">mith</tspan></text><text class="cls-15" transform="translate(24.39 149.27)"><tspan class="cls-18" x="0" y="0">Y</tspan><tspan x="14.06" y="0">ou</tspan><tspan class="cls-10" x="45.56" y="0">r</tspan><tspan x="55.63" y="0" xml:space="preserve"> info</tspan></text><text class="cls-3" transform="translate(25.48 179.35)"><tspan class="cls-1" x="0" y="0">J</tspan><tspan x="8.05" y="0">ohn </tspan><tspan class="cls-26" x="43.33" y="0">S</tspan><tspan x="52.28" y="0">mith</tspan></text><text class="cls-3" transform="translate(25.48 206.18)"><tspan x="0" y="0">123 main </tspan><tspan class="cls-11" x="73.41" y="0">S</tspan><tspan class="cls-25" x="82.22" y="0">t</tspan><tspan x="87.88" y="0">.</tspan><tspan class="cls-31" x="92.52" y="0"> </tspan><tspan class="cls-14" x="96.21" y="0">T</tspan><tspan class="cls-17" x="104.52" y="0">ampa, F</tspan><tspan class="cls-12" x="167.62" y="0">L</tspan></text><text class="cls-3" transform="translate(25.48 234.43)"><tspan x="0" y="0">29</tspan><tspan class="cls-21" x="18.86" y="0">2</tspan><tspan class="cls-25" x="27.38" y="0">-</tspan><tspan x="34.13" y="0">11</tspan><tspan class="cls-21" x="51.54" y="0">2</tspan><tspan class="cls-25" x="60.05" y="0">-</tspan><tspan x="66.8" y="0">2999</tspan></text><text class="cls-3" transform="translate(25.48 260.92)"><tspan x="0" y="0">jsmith@gmail</tspan><tspan class="cls-23" x="107.29" y="0">.</tspan><tspan class="cls-22" x="111.87" y="0">c</tspan><tspan x="120.12" y="0">om</tspan></text><text class="cls-3" transform="translate(25.48 345.1)"><tspan x="0" y="0">Sign up </tspan><tspan class="cls-9" x="65.02" y="0">f</tspan><tspan x="70.99" y="0">o</tspan><tspan class="cls-2" x="81.72" y="0">r</tspan><tspan x="87.86" y="0"> </tspan><tspan class="cls-24" x="92.02" y="0">H</tspan><tspan class="cls-17" x="105.66" y="0">aas membership</tspan></text><text class="cls-3" transform="translate(25.48 424.77)"><tspan class="cls-21" x="0" y="0">P</tspan><tspan class="cls-19" x="10.08" y="0">r</tspan><tspan x="16.33" y="0">om</tspan><tspan class="cls-1" x="42.59" y="0">o</tspan><tspan x="53.13" y="0">tional n</tspan><tspan class="cls-28" x="112.02" y="0">o</tspan><tspan class="cls-13" x="122.56" y="0">tifi</tspan><tspan class="cls-20" x="143.54" y="0">c</tspan><tspan class="cls-29" x="151.91" y="0">a</tspan><tspan class="cls-13" x="160.76" y="0">tions</tspan></text><path class="cls-7" d="M64.51,448.15h-25.01c-6.91,0-12.5,5.6-12.5,12.5s5.6,12.5,12.5,12.5h25.01c6.91,0,12.5-5.6,12.5-12.5s-5.6-12.5-12.5-12.5Z"/><path class="cls-5" d="M64.51,451.81h-25.01c-4.88,0-8.84,3.96-8.84,8.84s3.96,8.84,8.84,8.84h25.01c4.88,0,8.84-3.96,8.84-8.84s-3.96-8.84-8.84-8.84Z"/><circle class="cls-7" cx="39.51" cy="460.65" r="6.82"/><g><rect class="cls-7" x="24.41" y="362.86" width="177.22" height="25.45"/><text class="cls-4" transform="translate(36.03 381.4)"><tspan x="0" y="0">be</tspan><tspan class="cls-29" x="21.16" y="0">c</tspan><tspan x="29.11" y="0">ome a membe</tspan><tspan class="cls-16" x="144.84" y="0">r</tspan></text></g></g><path class="cls-7" d="M12.56,524.97v22.78c0,17.41,14.25,31.66,31.66,31.66H242.83c17.41,0,31.66-14.25,31.66-31.66v-22.78H12.56Z"/><g><g><path class="cls-5" d="M49.35,556.88c0,.92-1.4,2.53-4.17,2.53-1.27,0-2.42-.59-3.15-1.7-.97,.81-2.72,1.8-5.06,1.8-3.1,0-4.96-1.75-4.96-4.26s2.02-4.47,5.79-4.47c1.27,0,2.26,.16,2.94,.35l-.03-.27c-.24-1.75-1.29-2.64-2.64-2.64-1.18,0-2.07,.35-2.83,.67-.48,.22-.94,.46-1.29,.46-.38,0-.81-.32-.81-.89,0-.67,.67-1.35,1.16-1.72,1.21-.94,2.99-1.59,5.44-1.59,3.29,0,5.63,1.27,6.06,4.47l.59,4.34c.22,1.59,.84,1.97,2.4,2.26,.3,.05,.57,.27,.57,.65Zm-7.94-.92l-.4-2.88c-.32-.08-.78-.13-1.35-.13-1.29,0-2.32,.48-2.32,1.72s.89,1.97,1.99,1.97c.81,0,1.62-.35,2.07-.67Z"/><path class="cls-5" d="M65.24,546.35c0,1.13-1.27,.73-2.1,2.72l-3.77,8.91c-.35,.81-.59,1.48-2.77,1.48s-2.42-.57-2.83-1.48l-3.82-8.91c-.89-2.07-2.07-1.59-2.07-2.72,0-.54,.46-.86,1.02-.86,.7,0,1.64,.08,3.34,.08s2.48-.08,3.29-.08c.86,0,1.27,.35,1.27,.86,0,1.08-1.16,.86-1.16,2.1,0,.54,.16,1.02,.46,1.78l1.83,4.85,1.86-4.85c.32-.86,.48-1.35,.48-1.83,0-1.05-1.21-.97-1.21-2.05,0-.51,.38-.86,1.24-.86,.57,0,1.21,.08,1.94,.08,.67,0,1.51-.08,1.99-.08,.59,0,1.02,.35,1.02,.86Z"/><path class="cls-5" d="M65.05,552.62c0-4.39,3.64-7.65,8.89-7.65s8.19,3.23,8.19,7.19c0,4.5-3.8,7.62-8.86,7.62s-8.21-3.23-8.21-7.16Zm11.42,.75c0-2.26-1.18-5.92-3.42-5.92-1.56,0-2.34,1.27-2.34,3.96,0,2.21,1.16,5.9,3.42,5.9,1.59,0,2.34-1.27,2.34-3.93Z"/><path class="cls-5" d="M83.3,552.68c0-4.77,3.88-7.67,7.94-7.67,3.5,0,6.14,2.18,6.14,3.77,0,.73-.54,1.7-2.21,2.8-.51,.35-.81,.4-1.05,.4-.59,0-.94-.46-1.05-.97-.3-1.48-.67-3.96-2.4-3.96-1.27,0-1.99,1.32-1.99,3.42,0,3.8,2.4,5.87,4.63,5.87,1.64,0,2.69-.84,3.47-1.4,.3-.22,.46-.3,.67-.3,.43,0,.67,.4,.67,.73,0,.24-.08,.51-.22,.83-.65,1.48-2.91,3.58-6.97,3.58-4.36,0-7.65-2.75-7.65-7.11Z"/><path class="cls-5" d="M116.16,556.88c0,.92-1.4,2.53-4.17,2.53-1.27,0-2.42-.59-3.15-1.7-.97,.81-2.72,1.8-5.06,1.8-3.1,0-4.96-1.75-4.96-4.26s2.02-4.47,5.79-4.47c1.27,0,2.26,.16,2.94,.35l-.03-.27c-.24-1.75-1.29-2.64-2.64-2.64-1.18,0-2.07,.35-2.83,.67-.48,.22-.94,.46-1.29,.46-.38,0-.81-.32-.81-.89,0-.67,.67-1.35,1.16-1.72,1.21-.94,2.99-1.59,5.44-1.59,3.29,0,5.63,1.27,6.06,4.47l.59,4.34c.22,1.59,.84,1.97,2.4,2.26,.3,.05,.57,.27,.57,.65Zm-7.94-.92l-.4-2.88c-.32-.08-.78-.13-1.35-.13-1.29,0-2.32,.48-2.32,1.72s.89,1.97,1.99,1.97c.81,0,1.62-.35,2.07-.67Z"/><path class="cls-5" d="M134.47,556.91c0,.81-.81,1.13-3.23,1.94-1.94,.65-2.42,.75-2.72,.75-.92,0-1.02-.89-1.02-1.59v-1.05c-1.02,1.51-2.67,2.72-5.06,2.72-3.42,0-6.11-2.58-6.11-7s3.26-7.57,7.51-7.57c1.53,0,2.75,.4,3.66,1.1v-2.37c0-1.75-2.02-1.02-2.02-2.42,0-.7,.83-1.08,3.37-2.07,2.13-.83,2.5-.83,2.85-.83,.83,0,1.02,.73,1.02,1.53v14.35c0,1.75,1.75,1.32,1.75,2.5Zm-6.97-4.28v-.38c0-2.48-1.27-4.66-3.18-4.66-1.37,0-2.45,1.16-2.45,3.64,0,2.96,1.48,4.93,3.1,4.93s2.53-1.53,2.53-3.53Z"/><path class="cls-5" d="M143.87,538.51c-3.74,0-8.52,4.63-8.52,13.3,0,5.62,3.81,8.7,8.52,8.7s8.52-3.08,8.52-8.7c0-8.67-4.78-13.3-8.52-13.3Zm0,16.38c-2.02,0-3.65-1.63-3.65-3.65s1.63-3.65,3.65-3.65,3.65,1.63,3.65,3.65-1.63,3.65-3.65,3.65Z"/></g><g><rect class="cls-5" x="232.96" y="556.14" width="22.09" height="4.42" rx="2.21" ry="2.21"/><rect class="cls-5" x="232.96" y="547.3" width="22.09" height="4.42" rx="2.21" ry="2.21"/><rect class="cls-5" x="232.96" y="538.47" width="22.09" height="4.42" rx="2.21" ry="2.21"/></g></g></g></g></svg>