<?xml version="1.0" encoding="UTF-8"?><svg id="Layer_2" xmlns="http://www.w3.org/2000/svg" viewBox="0 0 287.05 591.97"><defs><style>.cls-1{fill:#eeeae3;}.cls-2{fill:#fff;}.cls-3{fill:#0c0024;}.cls-4{fill:#387f5f;}</style></defs><g id="Layer_1-2"><g><g><path class="cls-3" d="M242.83,0H44.22C19.84,0,0,19.84,0,44.22v503.53c0,24.38,19.84,44.22,44.22,44.22H242.83c24.38,0,44.22-19.84,44.22-44.22V44.22c0-24.38-19.84-44.22-44.22-44.22h0Z"/><path class="cls-1" d="M242.83,12.56h-45.08v8.1c0,8.6-6.97,15.58-15.58,15.58H104.87c-8.6,0-15.58-6.97-15.58-15.58V12.56H44.22c-17.41,0-31.66,14.25-31.66,31.66v503.53c0,17.41,14.25,31.66,31.66,31.66H242.83c17.41,0,31.66-14.25,31.66-31.66V44.22c0-17.41-14.25-31.66-31.66-31.66Z"/></g><g><g><path class="cls-4" d="M35.57,69.28v12.38c0,4.46-1.76,6.89-5.97,6.89-1.51,0-3.26-.42-4.13-1v-5.16c.98,.92,2.15,1.42,3.38,1.42,1.34,0,1.98-.78,1.98-2.29v-12.24h4.74Z"/><path class="cls-4" d="M44.99,73.91c4.13,0,7.31,3.18,7.31,7.31s-3.18,7.34-7.31,7.34-7.31-3.21-7.31-7.34,3.18-7.31,7.31-7.31Zm0,10.21c1.59,0,2.71-1.34,2.71-2.9s-1.12-2.87-2.71-2.87-2.71,1.31-2.71,2.87,1.14,2.9,2.71,2.9Z"/><path class="cls-4" d="M58.92,75.75c.75-1.06,1.84-1.84,3.43-1.84,2.9,0,4.8,2.2,4.8,5.13v9.21h-4.55v-7.87c0-1.25-.73-2.04-1.81-2.04s-1.81,.67-1.87,1.87v8.03h-4.55v-19.25h4.55v6.75Z"/><path class="cls-4" d="M74.43,75.75c.73-1.06,1.81-1.84,3.43-1.84,2.9,0,4.8,2.2,4.8,5.13v9.21h-4.55v-7.87c0-1.25-.73-2.04-1.84-2.04s-1.79,.67-1.84,1.87v8.03h-4.55v-14.06h4.55v1.56Z"/><path class="cls-4" d="M101.74,74.69c-.95-.61-2.71-1.28-4.07-1.28s-1.84,.56-1.84,1.2c0,.45,.45,.92,1.23,1.37l2.15,1.23c2.51,1.45,3.54,3.21,3.54,5.41,0,3.12-2.01,5.94-6.61,5.94-1.81,0-3.6-.39-4.85-.89v-5.16c1.03,.81,2.98,1.62,4.66,1.62,1.12,0,1.76-.42,1.76-1.23,0-.45-.36-.86-1.25-1.37l-2.26-1.28c-2.65-1.51-3.43-3.21-3.43-5.47,0-2.76,1.7-5.8,6.95-5.8,1.31,0,2.82,.28,4.04,.78v4.94Z"/><path class="cls-4" d="M109.44,75.75c.73-1.03,1.81-1.84,3.43-1.84,1.9,0,3.4,.86,4.21,2.37,.7-1.28,1.98-2.37,4.04-2.37,2.68,0,4.8,2.2,4.8,5.13v9.21h-4.55v-7.84c0-1.28-.7-2.06-1.81-2.06s-1.9,.78-1.9,2.06v7.84h-4.55v-7.84c0-1.28-.7-2.06-1.79-2.06s-1.84,.7-1.9,1.87v8.03h-4.55v-14.06h4.55v1.56Z"/><path class="cls-4" d="M130.89,67.66c1.51,0,2.59,1.17,2.59,2.59s-1.09,2.59-2.59,2.59-2.59-1.12-2.59-2.59,1.12-2.59,2.59-2.59Zm2.29,20.58h-4.55v-14.06h4.55v14.06Z"/><path class="cls-4" d="M137.11,88.25v-10.18h-1.9v-3.88h2.18v-2.87l4.27-.92v3.79h2.18v3.88h-2.18v10.18h-4.55Z"/><path class="cls-4" d="M150.17,75.75c.75-1.06,1.84-1.84,3.43-1.84,2.9,0,4.8,2.2,4.8,5.13v9.21h-4.55v-7.87c0-1.25-.73-2.04-1.81-2.04s-1.81,.67-1.87,1.87v8.03h-4.55v-19.25h4.55v6.75Z"/></g><g><path d="M30.06,141.18l-6-10.88h5.3l3.07,6.19,3.1-6.19h5.3l-6.02,10.93v8.03h-4.74v-8.09Z"/><path d="M46.4,134.93c4.13,0,7.31,3.18,7.31,7.31s-3.18,7.34-7.31,7.34-7.31-3.21-7.31-7.34,3.18-7.31,7.31-7.31Zm0,10.21c1.59,0,2.71-1.34,2.71-2.9s-1.12-2.87-2.71-2.87-2.71,1.31-2.71,2.87,1.14,2.9,2.71,2.9Z"/><path d="M63.92,147.74c-.7,1.06-1.79,1.84-3.43,1.84-2.87,0-4.77-2.2-4.77-5.13v-9.23h4.55v7.87c0,1.28,.7,2.06,1.81,2.06s1.76-.7,1.84-1.87v-8.06h4.55v14.06h-4.55v-1.53Z"/><path d="M75.92,136.55c.67-.92,1.7-1.62,3.18-1.62,.28,0,.75,.03,1.06,.08v4.8c-.59-.25-1.31-.45-2.23-.45-1.06,0-1.92,.67-2.01,1.87v8.03h-4.55v-14.06h4.55v1.34Z"/><path d="M89.45,128.69c1.51,0,2.59,1.17,2.59,2.59s-1.09,2.59-2.59,2.59-2.59-1.12-2.59-2.59,1.12-2.59,2.59-2.59Zm2.29,20.58h-4.55v-14.06h4.55v14.06Z"/><path d="M99.13,136.78c.73-1.06,1.81-1.84,3.43-1.84,2.9,0,4.8,2.2,4.8,5.13v9.21h-4.55v-7.87c0-1.25-.73-2.04-1.84-2.04s-1.79,.67-1.84,1.87v8.03h-4.55v-14.06h4.55v1.56Z"/><path d="M118.1,139.79h-2.37v9.48h-4.55v-9.48h-1.87v-3.88h1.87v-.87c0-3.54,2.23-5.3,5.58-5.3,.42,0,1.09,.08,1.34,.14v4.52c-.28-.14-.84-.22-1.17-.22-.73,0-1.2,.53-1.2,1.17v.56h2.37v3.88Z"/><path d="M126.44,134.93c4.13,0,7.31,3.18,7.31,7.31s-3.18,7.34-7.31,7.34-7.31-3.21-7.31-7.34,3.18-7.31,7.31-7.31Zm0,10.21c1.59,0,2.71-1.34,2.71-2.9s-1.12-2.87-2.71-2.87-2.71,1.31-2.71,2.87,1.14,2.9,2.71,2.9Z"/></g><g><path d="M32.31,166.71v8.67c0,2.72-1.19,4.19-3.76,4.19-1.04,0-2.12-.39-2.64-.76v-2.38c.65,.61,1.41,1.02,2.36,1.02,1.17,0,1.92-.69,1.92-2.12v-8.61h2.12Z"/><path d="M38.91,170.02c2.68,0,4.76,2.07,4.76,4.76s-2.08,4.78-4.76,4.78-4.76-2.1-4.76-4.78,2.06-4.76,4.76-4.76Zm0,7.53c1.54,0,2.68-1.25,2.68-2.77s-1.13-2.77-2.68-2.77-2.7,1.25-2.7,2.77,1.17,2.77,2.7,2.77Z"/><path d="M47.48,171.51c.5-.89,1.34-1.49,2.57-1.49,2.03,0,3.33,1.49,3.33,3.53v5.8h-2.05v-5.28c0-1.23-.73-2.07-1.92-2.07s-1.9,.78-1.93,1.95v5.39h-2.05v-12.83h2.05v4.98Z"/><path d="M57.68,171.51c.48-.89,1.34-1.49,2.57-1.49,2.03,0,3.33,1.49,3.33,3.53v5.8h-2.05v-5.28c0-1.23-.73-2.07-1.93-2.07s-1.88,.78-1.92,1.95v5.39h-2.05v-9.15h2.05v1.3Z"/><path d="M76.57,169.46c-.67-.52-1.73-.95-2.75-.95-1.21,0-1.88,.59-1.88,1.43,0,.54,.35,.99,1.04,1.41l1.93,1.21c1.62,.97,2.23,1.99,2.23,3.37,0,1.9-1.34,3.63-4.13,3.63-1.28,0-2.4-.35-3.16-.73v-2.38c.67,.54,1.84,1.1,3.07,1.1s1.95-.67,1.95-1.51c0-.56-.35-1.04-1.17-1.54l-1.97-1.21c-1.56-.91-2.06-1.93-2.06-3.27,0-1.69,1.12-3.51,4.19-3.51,1.02,0,1.97,.28,2.72,.65v2.31Z"/><path d="M80.98,171.38c.48-.82,1.28-1.36,2.42-1.36,1.34,0,2.4,.63,2.88,1.77,.45-1.04,1.36-1.77,2.75-1.77,1.8,0,3.2,1.36,3.2,3.39v5.95h-2.05v-5.39c0-1.25-.73-1.95-1.77-1.95s-1.82,.71-1.82,1.95v5.39h-2.05v-5.39c0-1.25-.73-1.95-1.77-1.95s-1.77,.65-1.8,1.82v5.52h-2.05v-9.15h2.05v1.17Z"/><path d="M95.49,166.15c.72,0,1.25,.58,1.25,1.26s-.52,1.26-1.25,1.26-1.27-.56-1.27-1.26,.54-1.26,1.27-1.26Zm1.02,13.21h-2.05v-9.15h2.05v9.15Z"/><path d="M99.58,179.35v-7.4h-1.54v-1.75h1.66v-2.14l1.93-.45v2.59h1.66v1.75h-1.66v7.4h-2.05Z"/><path d="M106.76,171.51c.5-.89,1.34-1.49,2.57-1.49,2.03,0,3.33,1.49,3.33,3.53v5.8h-2.05v-5.28c0-1.23-.73-2.07-1.92-2.07s-1.9,.78-1.93,1.95v5.39h-2.05v-12.83h2.05v4.98Z"/></g><g><path d="M26.13,204.16h3.03v-8.59h-2.62v-2.03h4.74v10.62h2.58v2.03h-7.74v-2.03Z"/><path d="M34.95,204.36l3.68-4.67c.67-.82,1.13-1.62,1.13-2.42,0-1.12-.73-1.82-1.84-1.82s-2.03,.52-2.73,1.23v-2.4c.69-.54,1.82-.95,2.88-.95,2.6,0,3.87,1.67,3.87,3.57,0,1.67-.69,2.68-1.45,3.66l-2.83,3.59h4.24v2.03h-6.96v-1.82Z"/><path d="M44.71,198.59h1.8c.93,0,1.64-.63,1.64-1.56s-.71-1.58-1.79-1.58c-.93,0-1.82,.28-2.46,.76v-2.31c.5-.24,1.39-.58,2.53-.58,2.38,0,3.91,1.51,3.91,3.44,0,1.4-.67,2.38-1.62,2.85,1.15,.48,1.97,1.58,1.97,3.11,0,2.1-1.77,3.67-4.17,3.67-1.12,0-2.16-.33-2.77-.61v-2.42c.63,.52,1.53,.91,2.64,.91,1.19,0,2.1-.74,2.1-1.84s-.84-1.79-1.99-1.79h-1.8v-2.05Z"/><path d="M58.88,198.2c.48-.82,1.28-1.36,2.42-1.36,1.34,0,2.4,.63,2.88,1.77,.45-1.04,1.36-1.77,2.75-1.77,1.8,0,3.2,1.36,3.2,3.39v5.95h-2.05v-5.39c0-1.25-.73-1.95-1.77-1.95s-1.82,.71-1.82,1.95v5.39h-2.05v-5.39c0-1.25-.73-1.95-1.77-1.95s-1.77,.65-1.8,1.82v5.52h-2.05v-9.15h2.05v1.17Z"/><path d="M72.7,197.42c.67-.32,1.64-.58,2.62-.58,2.27,0,3.74,1.1,3.74,3.68v5.65h-2.05v-.84c-.46,.61-1.27,1.04-2.23,1.04-2.01,0-3.11-1.41-3.11-3.01s1.28-3,3.14-3c.89,0,1.73,.39,2.2,.88v-.76c0-1.3-.89-1.82-1.92-1.82-.84,0-1.69,.28-2.4,.73v-1.97Zm2.64,7.42c.91,0,1.66-.65,1.66-1.47s-.74-1.49-1.66-1.49-1.64,.67-1.64,1.49,.74,1.47,1.64,1.47Z"/><path d="M82.34,192.98c.72,0,1.25,.58,1.25,1.26s-.52,1.26-1.25,1.26-1.27-.56-1.27-1.26,.54-1.26,1.27-1.26Zm1.02,13.21h-2.05v-9.15h2.05v9.15Z"/><path d="M87.75,198.33c.48-.89,1.34-1.49,2.57-1.49,2.03,0,3.33,1.49,3.33,3.53v5.8h-2.05v-5.28c0-1.23-.73-2.07-1.93-2.07s-1.88,.78-1.92,1.95v5.39h-2.05v-9.15h2.05v1.3Z"/><path d="M106.64,196.29c-.67-.52-1.73-.95-2.75-.95-1.21,0-1.88,.59-1.88,1.43,0,.54,.35,.99,1.04,1.41l1.93,1.21c1.62,.97,2.23,1.99,2.23,3.37,0,1.9-1.34,3.63-4.13,3.63-1.28,0-2.4-.35-3.16-.73v-2.38c.67,.54,1.84,1.1,3.07,1.1s1.95-.67,1.95-1.51c0-.56-.35-1.04-1.17-1.54l-1.97-1.21c-1.56-.91-2.06-1.93-2.06-3.27,0-1.69,1.12-3.51,4.19-3.51,1.02,0,1.97,.28,2.72,.65v2.31Z"/><path d="M109.6,206.18v-7.4h-1.54v-1.75h1.66v-2.14l1.93-.45v2.59h1.66v1.75h-1.66v7.4h-2.05Z"/><path d="M115.66,203.45c.86,0,1.47,.63,1.47,1.47s-.61,1.45-1.47,1.45-1.43-.61-1.43-1.45,.61-1.47,1.43-1.47Z"/><path d="M125.26,195.56h-3.22v-2.03h8.56v2.03h-3.22v10.62h-2.12v-10.62Z"/><path d="M131.51,197.42c.67-.32,1.64-.58,2.62-.58,2.27,0,3.74,1.1,3.74,3.68v5.65h-2.05v-.84c-.46,.61-1.27,1.04-2.23,1.04-2.01,0-3.11-1.41-3.11-3.01s1.28-3,3.14-3c.89,0,1.73,.39,2.2,.88v-.76c0-1.3-.89-1.82-1.92-1.82-.84,0-1.69,.28-2.4,.73v-1.97Zm2.64,7.42c.91,0,1.66-.65,1.66-1.47s-.74-1.49-1.66-1.49-1.64,.67-1.64,1.49,.74,1.47,1.64,1.47Z"/><path d="M142.17,198.2c.48-.82,1.28-1.36,2.42-1.36,1.34,0,2.4,.63,2.88,1.77,.45-1.04,1.36-1.77,2.75-1.77,1.8,0,3.2,1.36,3.2,3.39v5.95h-2.05v-5.39c0-1.25-.73-1.95-1.77-1.95s-1.82,.71-1.82,1.95v5.39h-2.05v-5.39c0-1.25-.73-1.95-1.77-1.95s-1.77,.65-1.8,1.82v5.52h-2.05v-9.15h2.05v1.17Z"/><path d="M157.69,198.63c.63-1.15,1.75-1.79,3.12-1.79,2.58,0,4.45,2.07,4.45,4.76s-1.86,4.78-4.45,4.78c-1.38,0-2.49-.65-3.12-1.69v5.3h-2.05v-12.96h2.05v1.6Zm2.73,5.75c1.56,0,2.72-1.26,2.72-2.77s-1.15-2.75-2.72-2.75-2.73,1.23-2.73,2.75,1.15,2.77,2.73,2.77Z"/><path d="M167.38,197.42c.67-.32,1.64-.58,2.62-.58,2.27,0,3.74,1.1,3.74,3.68v5.65h-2.05v-.84c-.46,.61-1.27,1.04-2.23,1.04-2.01,0-3.11-1.41-3.11-3.01s1.28-3,3.14-3c.89,0,1.73,.39,2.2,.88v-.76c0-1.3-.89-1.82-1.92-1.82-.84,0-1.69,.28-2.4,.73v-1.97Zm2.64,7.42c.91,0,1.66-.65,1.66-1.47s-.74-1.49-1.66-1.49-1.64,.67-1.64,1.49,.74,1.47,1.64,1.47Z"/><path d="M175.72,208.47l.58-4.84h2.27l-.97,4.84h-1.88Z"/><path d="M187.43,201.35v4.84h-2.12v-12.65h6.99v2.03h-4.87v3.76h4.5v2.03h-4.5Z"/><path d="M194.63,206.18v-12.65h2.12v10.62h4.87v2.03h-6.99Z"/></g><g><path d="M26.24,232.6l3.68-4.67c.67-.82,1.13-1.62,1.13-2.42,0-1.12-.73-1.82-1.84-1.82s-2.03,.52-2.73,1.23v-2.4c.69-.54,1.82-.95,2.88-.95,2.6,0,3.87,1.67,3.87,3.57,0,1.67-.69,2.68-1.45,3.66l-2.83,3.59h4.24v2.03h-6.96v-1.82Z"/><path d="M39.3,230.52h-.11c-2.38,0-4.46-1.8-4.46-4.46s1.93-4.48,4.46-4.48,4.48,1.95,4.48,4.48c0,1.04-.33,1.93-.84,2.72l-3.61,5.65h-2.53l2.6-3.91Zm-.11-2.12c1.32,0,2.33-1.02,2.33-2.34s-1-2.36-2.33-2.36-2.31,1.06-2.31,2.36,1,2.34,2.31,2.34Z"/><path d="M45.1,232.6l3.68-4.67c.67-.82,1.13-1.62,1.13-2.42,0-1.12-.73-1.82-1.84-1.82s-2.03,.52-2.73,1.23v-2.4c.69-.54,1.82-.95,2.88-.95,2.6,0,3.87,1.67,3.87,3.57,0,1.67-.69,2.68-1.45,3.66l-2.83,3.59h4.24v2.03h-6.96v-1.82Z"/><path d="M53.92,230.07v-1.92h4.85v1.92h-4.85Z"/><path d="M60.26,232.4h3.03v-8.59h-2.62v-2.03h4.74v10.62h2.58v2.03h-7.74v-2.03Z"/><path d="M68.97,232.4h3.03v-8.59h-2.62v-2.03h4.74v10.62h2.58v2.03h-7.74v-2.03Z"/><path d="M77.78,232.6l3.68-4.67c.67-.82,1.13-1.62,1.13-2.42,0-1.12-.73-1.82-1.84-1.82s-2.03,.52-2.73,1.23v-2.4c.69-.54,1.82-.95,2.88-.95,2.6,0,3.87,1.67,3.87,3.57,0,1.67-.69,2.68-1.45,3.66l-2.83,3.59h4.24v2.03h-6.96v-1.82Z"/><path d="M86.6,230.07v-1.92h4.85v1.92h-4.85Z"/><path d="M93.05,232.6l3.68-4.67c.67-.82,1.13-1.62,1.13-2.42,0-1.12-.73-1.82-1.84-1.82s-2.03,.52-2.73,1.23v-2.4c.69-.54,1.82-.95,2.88-.95,2.6,0,3.87,1.67,3.87,3.57,0,1.67-.69,2.68-1.45,3.66l-2.83,3.59h4.24v2.03h-6.96v-1.82Z"/><path d="M106.11,230.52h-.11c-2.38,0-4.46-1.8-4.46-4.46s1.93-4.48,4.46-4.48,4.48,1.95,4.48,4.48c0,1.04-.33,1.93-.84,2.72l-3.61,5.65h-2.53l2.6-3.91Zm-.11-2.12c1.32,0,2.33-1.02,2.33-2.34s-1-2.36-2.33-2.36-2.31,1.06-2.31,2.36,1,2.34,2.31,2.34Z"/><path d="M116.32,230.52h-.11c-2.38,0-4.46-1.8-4.46-4.46s1.93-4.48,4.46-4.48,4.48,1.95,4.48,4.48c0,1.04-.33,1.93-.84,2.72l-3.61,5.65h-2.53l2.6-3.91Zm-.11-2.12c1.32,0,2.33-1.02,2.33-2.34s-1-2.36-2.33-2.36-2.31,1.06-2.31,2.36,1,2.34,2.31,2.34Z"/><path d="M126.53,230.52h-.11c-2.38,0-4.46-1.8-4.46-4.46s1.93-4.48,4.46-4.48,4.48,1.95,4.48,4.48c0,1.04-.33,1.93-.84,2.72l-3.61,5.65h-2.53l2.6-3.91Zm-.11-2.12c1.32,0,2.33-1.02,2.33-2.34s-1-2.36-2.33-2.36-2.31,1.06-2.31,2.36,1,2.34,2.31,2.34Z"/></g><g><path d="M26.65,251.77h2.05v10.16c0,2.03-1.1,2.99-2.72,2.99-.37,0-.73-.07-.91-.17v-2.07c.22,.15,.52,.22,.73,.22,.58,0,.86-.33,.86-.99v-10.16Zm1.04-4.05c.72,0,1.26,.58,1.26,1.26s-.54,1.26-1.26,1.26-1.27-.56-1.27-1.26,.54-1.26,1.27-1.26Z"/><path d="M35.99,254.02c-.59-.39-1.36-.65-2.06-.65-.78,0-1.19,.39-1.19,.89,0,.39,.24,.6,.69,.87l1.47,.88c1.13,.69,1.52,1.52,1.52,2.42,0,1.58-1.21,2.7-3.27,2.7-.87,0-1.77-.24-2.38-.52v-2.1c.46,.41,1.43,.86,2.27,.86s1.26-.41,1.26-.95c0-.37-.2-.67-.78-1l-1.56-.93c-.95-.56-1.32-1.38-1.32-2.27,0-1.53,1.15-2.62,3.24-2.62,.76,0,1.54,.17,2.12,.37v2.07Z"/><path d="M40.28,252.94c.48-.82,1.28-1.36,2.42-1.36,1.34,0,2.4,.63,2.88,1.77,.45-1.04,1.36-1.77,2.75-1.77,1.8,0,3.2,1.36,3.2,3.39v5.95h-2.05v-5.39c0-1.25-.73-1.95-1.77-1.95s-1.82,.71-1.82,1.95v5.39h-2.05v-5.39c0-1.25-.73-1.95-1.77-1.95s-1.77,.65-1.8,1.82v5.52h-2.05v-9.15h2.05v1.17Z"/><path d="M54.79,247.71c.72,0,1.25,.58,1.25,1.26s-.52,1.26-1.25,1.26-1.27-.56-1.27-1.26,.54-1.26,1.27-1.26Zm1.02,13.21h-2.05v-9.15h2.05v9.15Z"/><path d="M58.88,260.92v-7.4h-1.54v-1.75h1.66v-2.14l1.93-.45v2.59h1.66v1.75h-1.66v7.4h-2.05Z"/><path d="M66.06,253.07c.5-.89,1.34-1.49,2.57-1.49,2.03,0,3.33,1.49,3.33,3.53v5.8h-2.05v-5.28c0-1.23-.73-2.07-1.92-2.07s-1.9,.78-1.93,1.95v5.39h-2.05v-12.83h2.05v4.98Z"/><path d="M73.87,255.9c0-3.92,2.86-6.79,6.79-6.79s6.79,2.75,6.79,6.29c0,2.47-1.36,3.74-2.79,3.74-.93,0-1.54-.43-1.84-1.17-.52,.76-1.38,1.25-2.46,1.25-1.88,0-3.18-1.45-3.18-3.33s1.3-3.33,3.18-3.33c.93,0,1.69,.35,2.23,.95v-.74h1.1v3.92c0,.82,.28,1.38,1.04,1.38s1.53-.82,1.53-2.66c0-2.83-2.38-5.19-5.6-5.19s-5.62,2.47-5.62,5.69,2.38,5.69,5.62,5.69c1.43,0,2.75-.5,3.72-1.34l.67,.84c-1.17,1.02-2.6,1.6-4.39,1.6-3.92,0-6.79-2.86-6.79-6.79Zm6.58,2.21c1.28,0,2.12-.99,2.12-2.23s-.84-2.21-2.12-2.21-2.1,.97-2.1,2.21,.86,2.23,2.1,2.23Z"/><path d="M98.29,251.77v8.26c0,3.16-1.92,4.89-4.93,4.89-1.34,0-2.53-.39-3.14-.74v-2.14c.74,.52,1.99,.97,3.14,.97,1.67,0,2.88-1.08,2.88-2.73v-1.06c-.65,.97-1.75,1.64-3.16,1.64-2.53,0-4.37-1.99-4.37-4.61s1.84-4.65,4.35-4.65c1.43,0,2.53,.67,3.18,1.67v-1.49h2.05Zm-4.78,1.82c-1.51,0-2.62,1.15-2.62,2.62s1.12,2.64,2.62,2.64,2.62-1.15,2.62-2.64-1.12-2.62-2.62-2.62Z"/><path d="M102.72,252.94c.48-.82,1.28-1.36,2.42-1.36,1.34,0,2.4,.63,2.88,1.77,.45-1.04,1.36-1.77,2.75-1.77,1.8,0,3.2,1.36,3.2,3.39v5.95h-2.05v-5.39c0-1.25-.73-1.95-1.77-1.95s-1.82,.71-1.82,1.95v5.39h-2.05v-5.39c0-1.25-.73-1.95-1.77-1.95s-1.77,.65-1.8,1.82v5.52h-2.05v-9.15h2.05v1.17Z"/><path d="M116.54,252.16c.67-.32,1.64-.58,2.62-.58,2.27,0,3.74,1.1,3.74,3.68v5.65h-2.05v-.84c-.47,.61-1.27,1.04-2.23,1.04-2.01,0-3.11-1.41-3.11-3.01s1.28-3,3.14-3c.89,0,1.73,.39,2.2,.88v-.76c0-1.3-.89-1.82-1.92-1.82-.84,0-1.69,.28-2.4,.73v-1.97Zm2.64,7.42c.91,0,1.66-.65,1.66-1.47s-.74-1.49-1.66-1.49-1.64,.67-1.64,1.49,.74,1.47,1.64,1.47Z"/><path d="M126.17,247.71c.72,0,1.25,.58,1.25,1.26s-.52,1.26-1.25,1.26-1.27-.56-1.27-1.26,.54-1.26,1.27-1.26Zm1.02,13.21h-2.05v-9.15h2.05v9.15Z"/><path d="M131.6,260.92h-2.05v-12.83h2.05v12.83Z"/><path d="M135.08,258.18c.86,0,1.47,.63,1.47,1.47s-.61,1.45-1.47,1.45-1.43-.61-1.43-1.45,.61-1.47,1.43-1.47Z"/><path d="M144.97,260.58c-.56,.33-1.47,.54-2.19,.54-2.85,0-4.82-2.1-4.82-4.78s1.97-4.76,4.82-4.76c.73,0,1.64,.19,2.19,.5v2.19c-.52-.39-1.28-.71-2.19-.71-1.56,0-2.73,1.25-2.73,2.77s1.17,2.77,2.73,2.77c.89,0,1.67-.3,2.19-.71v2.18Z"/><path d="M150.98,251.58c2.68,0,4.76,2.07,4.76,4.76s-2.08,4.78-4.76,4.78-4.76-2.1-4.76-4.78,2.06-4.76,4.76-4.76Zm0,7.53c1.54,0,2.68-1.25,2.68-2.77s-1.13-2.77-2.68-2.77-2.7,1.25-2.7,2.77,1.17,2.77,2.7,2.77Z"/><path d="M159.55,252.94c.48-.82,1.28-1.36,2.42-1.36,1.34,0,2.4,.63,2.88,1.77,.45-1.04,1.36-1.77,2.75-1.77,1.8,0,3.2,1.36,3.2,3.39v5.95h-2.05v-5.39c0-1.25-.73-1.95-1.77-1.95s-1.82,.71-1.82,1.95v5.39h-2.05v-5.39c0-1.25-.73-1.95-1.77-1.95s-1.77,.65-1.8,1.82v5.52h-2.05v-9.15h2.05v1.17Z"/></g><g><path d="M33.24,335.21c-.67-.52-1.73-.95-2.75-.95-1.21,0-1.88,.59-1.88,1.43,0,.54,.35,.99,1.04,1.41l1.93,1.21c1.62,.97,2.23,1.99,2.23,3.37,0,1.9-1.34,3.63-4.13,3.63-1.28,0-2.4-.35-3.16-.73v-2.38c.67,.54,1.84,1.1,3.07,1.1s1.95-.67,1.95-1.51c0-.56-.35-1.04-1.17-1.54l-1.97-1.21c-1.56-.91-2.06-1.93-2.06-3.27,0-1.69,1.12-3.51,4.19-3.51,1.02,0,1.97,.28,2.72,.65v2.31Z"/><path d="M36.72,331.9c.72,0,1.25,.58,1.25,1.26s-.52,1.26-1.25,1.26-1.27-.56-1.27-1.26,.54-1.26,1.27-1.26Zm1.02,13.21h-2.05v-9.15h2.05v9.15Z"/><path d="M49.12,335.95v8.26c0,3.16-1.92,4.89-4.93,4.89-1.34,0-2.53-.39-3.14-.74v-2.14c.74,.52,1.99,.97,3.14,.97,1.67,0,2.88-1.08,2.88-2.73v-1.06c-.65,.97-1.75,1.64-3.16,1.64-2.53,0-4.37-1.99-4.37-4.61s1.84-4.65,4.35-4.65c1.43,0,2.53,.67,3.18,1.67v-1.49h2.05Zm-4.78,1.82c-1.51,0-2.62,1.15-2.62,2.62s1.12,2.64,2.62,2.64,2.62-1.15,2.62-2.64-1.12-2.62-2.62-2.62Z"/><path d="M53.55,337.25c.48-.89,1.34-1.49,2.57-1.49,2.03,0,3.33,1.49,3.33,3.53v5.8h-2.05v-5.28c0-1.23-.73-2.07-1.93-2.07s-1.88,.78-1.92,1.95v5.39h-2.05v-9.15h2.05v1.3Z"/><path d="M71.7,343.82c-.48,.87-1.32,1.49-2.59,1.49-2.01,0-3.31-1.51-3.31-3.53v-5.82h2.05v5.26c0,1.25,.73,2.08,1.92,2.08s1.88-.78,1.93-1.95v-5.39h2.03v9.15h-2.03v-1.28Z"/><path d="M78.15,337.55c.63-1.15,1.75-1.79,3.12-1.79,2.58,0,4.45,2.07,4.45,4.76s-1.86,4.78-4.45,4.78c-1.38,0-2.49-.65-3.12-1.69v5.3h-2.05v-12.96h2.05v1.6Zm2.73,5.75c1.56,0,2.72-1.26,2.72-2.77s-1.15-2.75-2.72-2.75-2.73,1.23-2.73,2.75,1.15,2.77,2.73,2.77Z"/><path d="M96.38,337.7h-2.03v7.4h-2.05v-7.4h-1.36v-1.75h1.36v-.8c0-1.99,1.25-3.07,3.14-3.07,.32,0,.8,.07,1,.13v2.06c-.19-.09-.59-.21-.93-.21-.76,0-1.17,.48-1.17,1.19v.69h2.03v1.75Z"/><path d="M101.84,335.76c2.68,0,4.76,2.07,4.76,4.76s-2.08,4.78-4.76,4.78-4.76-2.1-4.76-4.78,2.06-4.76,4.76-4.76Zm0,7.53c1.54,0,2.68-1.25,2.68-2.77s-1.13-2.77-2.68-2.77-2.7,1.25-2.7,2.77,1.17,2.77,2.7,2.77Z"/><path d="M110.42,337.07c.43-.76,1.17-1.3,2.25-1.3,.24,0,.54,.02,.76,.06v2.18c-.33-.15-.76-.24-1.23-.24-1.12,0-1.75,.78-1.79,1.95v5.39h-2.05v-9.15h2.05v1.12Z"/><path d="M127.64,339.75h-6.49v5.36h-2.12v-12.65h2.12v5.26h6.49v-5.26h2.12v12.65h-2.12v-5.36Z"/><path d="M132.64,336.34c.67-.32,1.64-.58,2.62-.58,2.27,0,3.74,1.1,3.74,3.68v5.65h-2.05v-.84c-.46,.61-1.27,1.04-2.23,1.04-2.01,0-3.11-1.41-3.11-3.01s1.28-3,3.14-3c.89,0,1.73,.39,2.2,.88v-.76c0-1.3-.89-1.82-1.92-1.82-.84,0-1.69,.28-2.4,.73v-1.97Zm2.64,7.42c.91,0,1.66-.65,1.66-1.47s-.74-1.49-1.66-1.49-1.64,.67-1.64,1.49,.74,1.47,1.64,1.47Z"/><path d="M141.59,336.34c.67-.32,1.64-.58,2.62-.58,2.27,0,3.74,1.1,3.74,3.68v5.65h-2.05v-.84c-.46,.61-1.27,1.04-2.23,1.04-2.01,0-3.11-1.41-3.11-3.01s1.28-3,3.14-3c.89,0,1.73,.39,2.2,.88v-.76c0-1.3-.89-1.82-1.92-1.82-.84,0-1.69,.28-2.4,.73v-1.97Zm2.64,7.42c.91,0,1.66-.65,1.66-1.47s-.74-1.49-1.66-1.49-1.64,.67-1.64,1.49,.74,1.47,1.64,1.47Z"/><path d="M155.14,338.2c-.59-.39-1.36-.65-2.06-.65-.78,0-1.19,.39-1.19,.89,0,.39,.24,.6,.69,.87l1.47,.88c1.13,.69,1.52,1.52,1.52,2.42,0,1.58-1.21,2.7-3.27,2.7-.87,0-1.77-.24-2.38-.52v-2.1c.46,.41,1.43,.86,2.27,.86s1.26-.41,1.26-.95c0-.37-.2-.67-.78-1l-1.56-.93c-.95-.56-1.32-1.38-1.32-2.27,0-1.53,1.15-2.62,3.24-2.62,.76,0,1.54,.17,2.12,.37v2.07Z"/><path d="M163.61,337.12c.48-.82,1.28-1.36,2.42-1.36,1.34,0,2.4,.63,2.88,1.77,.45-1.04,1.36-1.77,2.75-1.77,1.8,0,3.2,1.36,3.2,3.39v5.95h-2.05v-5.39c0-1.25-.73-1.95-1.77-1.95s-1.82,.71-1.82,1.95v5.39h-2.05v-5.39c0-1.25-.73-1.95-1.77-1.95s-1.77,.65-1.8,1.82v5.52h-2.05v-9.15h2.05v1.17Z"/><path d="M178.6,341.22c.2,1.32,1.3,2.23,2.79,2.23,1.21,0,2.4-.45,3.2-1v2.03c-.78,.45-1.97,.84-3.35,.84-2.7,0-4.71-1.97-4.71-4.78s1.95-4.76,4.59-4.76,4.35,1.99,4.35,4.41c0,.35-.06,.78-.13,1.04h-6.75Zm-.02-1.58h4.93c-.04-1.28-1.06-2.16-2.4-2.16s-2.4,.97-2.53,2.16Z"/><path d="M189.2,337.12c.48-.82,1.28-1.36,2.42-1.36,1.34,0,2.4,.63,2.88,1.77,.45-1.04,1.36-1.77,2.75-1.77,1.8,0,3.2,1.36,3.2,3.39v5.95h-2.05v-5.39c0-1.25-.73-1.95-1.77-1.95s-1.82,.71-1.82,1.95v5.39h-2.05v-5.39c0-1.25-.73-1.95-1.77-1.95s-1.77,.65-1.8,1.82v5.52h-2.05v-9.15h2.05v1.17Z"/><path d="M204.73,345.1h-2.05v-12.83h2.05v5.17c.63-1.02,1.75-1.67,3.12-1.67,2.6,0,4.45,2.07,4.45,4.76s-1.84,4.78-4.43,4.78c-1.39,0-2.51-.67-3.14-1.69v1.49Zm2.73-1.8c1.56,0,2.72-1.26,2.72-2.77s-1.15-2.75-2.72-2.75-2.73,1.23-2.73,2.75,1.15,2.77,2.73,2.77Z"/><path d="M215.59,341.22c.2,1.32,1.3,2.23,2.79,2.23,1.21,0,2.4-.45,3.2-1v2.03c-.78,.45-1.97,.84-3.35,.84-2.7,0-4.71-1.97-4.71-4.78s1.95-4.76,4.59-4.76,4.35,1.99,4.35,4.41c0,.35-.06,.78-.13,1.04h-6.75Zm-.02-1.58h4.93c-.04-1.28-1.06-2.16-2.4-2.16s-2.4,.97-2.53,2.16Z"/><path d="M226.19,337.07c.43-.76,1.17-1.3,2.25-1.3,.24,0,.54,.02,.76,.06v2.18c-.33-.15-.76-.24-1.23-.24-1.12,0-1.75,.78-1.79,1.95v5.39h-2.05v-9.15h2.05v1.12Z"/><path d="M235.6,338.2c-.59-.39-1.36-.65-2.06-.65-.78,0-1.19,.39-1.19,.89,0,.39,.24,.6,.69,.87l1.47,.88c1.13,.69,1.53,1.52,1.53,2.42,0,1.58-1.21,2.7-3.27,2.7-.87,0-1.77-.24-2.38-.52v-2.1c.46,.41,1.43,.86,2.27,.86s1.26-.41,1.26-.95c0-.37-.2-.67-.78-1l-1.56-.93c-.95-.56-1.32-1.38-1.32-2.27,0-1.53,1.15-2.62,3.24-2.62,.76,0,1.54,.17,2.12,.37v2.07Z"/><path d="M239.89,337.25c.5-.89,1.34-1.49,2.57-1.49,2.03,0,3.33,1.49,3.33,3.53v5.8h-2.05v-5.28c0-1.23-.73-2.07-1.92-2.07s-1.9,.78-1.93,1.95v5.39h-2.05v-12.83h2.05v4.98Z"/><path d="M249.06,331.9c.72,0,1.25,.58,1.25,1.26s-.52,1.26-1.25,1.26-1.27-.56-1.27-1.26,.54-1.26,1.27-1.26Zm1.02,13.21h-2.05v-9.15h2.05v9.15Z"/><path d="M254.47,337.55c.63-1.15,1.75-1.79,3.12-1.79,2.59,0,4.45,2.07,4.45,4.76s-1.86,4.78-4.45,4.78c-1.38,0-2.49-.65-3.12-1.69v5.3h-2.05v-12.96h2.05v1.6Zm2.73,5.75c1.56,0,2.72-1.26,2.72-2.77s-1.15-2.75-2.72-2.75-2.73,1.23-2.73,2.75,1.15,2.77,2.73,2.77Z"/></g><g><path d="M27.01,412.12h4.02c2.4,0,4.07,1.45,4.07,3.91s-1.67,3.89-4.07,3.89h-1.9v4.85h-2.12v-12.65Zm3.98,2.03h-1.86v3.74h1.86c1.1,0,1.92-.6,1.92-1.86s-.82-1.88-1.92-1.88Z"/><path d="M38.78,416.74c.43-.76,1.17-1.3,2.25-1.3,.24,0,.54,.02,.76,.06v2.18c-.33-.15-.76-.24-1.23-.24-1.12,0-1.75,.78-1.79,1.95v5.39h-2.05v-9.15h2.05v1.12Z"/><path d="M47.18,415.43c2.68,0,4.76,2.07,4.76,4.76s-2.08,4.78-4.76,4.78-4.76-2.1-4.76-4.78,2.06-4.76,4.76-4.76Zm0,7.53c1.54,0,2.68-1.25,2.68-2.77s-1.13-2.77-2.68-2.77-2.7,1.25-2.7,2.77,1.17,2.77,2.7,2.77Z"/><path d="M55.76,416.79c.48-.82,1.28-1.36,2.42-1.36,1.34,0,2.4,.63,2.88,1.77,.45-1.04,1.36-1.77,2.75-1.77,1.8,0,3.2,1.36,3.2,3.39v5.95h-2.05v-5.39c0-1.25-.73-1.95-1.77-1.95s-1.82,.71-1.82,1.95v5.39h-2.05v-5.39c0-1.25-.73-1.95-1.77-1.95s-1.77,.65-1.8,1.82v5.52h-2.05v-9.15h2.05v1.17Z"/><path d="M73.45,415.43c2.68,0,4.76,2.07,4.76,4.76s-2.08,4.78-4.76,4.78-4.76-2.1-4.76-4.78,2.06-4.76,4.76-4.76Zm0,7.53c1.54,0,2.68-1.25,2.68-2.77s-1.13-2.77-2.68-2.77-2.7,1.25-2.7,2.77,1.17,2.77,2.7,2.77Z"/><path d="M80.51,424.77v-7.4h-1.54v-1.75h1.66v-2.14l1.93-.45v2.59h1.66v1.75h-1.66v7.4h-2.05Z"/><path d="M86.67,411.57c.72,0,1.25,.58,1.25,1.26s-.52,1.26-1.25,1.26-1.27-.56-1.27-1.26,.54-1.26,1.27-1.26Zm1.02,13.21h-2.05v-9.15h2.05v9.15Z"/><path d="M94.24,415.43c2.68,0,4.76,2.07,4.76,4.76s-2.08,4.78-4.76,4.78-4.76-2.1-4.76-4.78,2.06-4.76,4.76-4.76Zm0,7.53c1.54,0,2.68-1.25,2.68-2.77s-1.13-2.77-2.68-2.77-2.7,1.25-2.7,2.77,1.17,2.77,2.7,2.77Z"/><path d="M102.81,416.92c.48-.89,1.34-1.49,2.57-1.49,2.03,0,3.33,1.49,3.33,3.53v5.8h-2.05v-5.28c0-1.23-.73-2.07-1.93-2.07s-1.88,.78-1.92,1.95v5.39h-2.05v-9.15h2.05v1.3Z"/><path d="M111.29,416.01c.67-.32,1.64-.58,2.62-.58,2.27,0,3.74,1.1,3.74,3.68v5.65h-2.05v-.84c-.46,.61-1.27,1.04-2.23,1.04-2.01,0-3.11-1.41-3.11-3.01s1.28-3,3.14-3c.89,0,1.73,.39,2.2,.88v-.76c0-1.3-.89-1.82-1.92-1.82-.84,0-1.69,.28-2.4,.73v-1.97Zm2.64,7.42c.91,0,1.66-.65,1.66-1.47s-.74-1.49-1.66-1.49-1.64,.67-1.64,1.49,.74,1.47,1.64,1.47Z"/><path d="M121.97,424.77h-2.05v-12.83h2.05v12.83Z"/><path d="M130.52,416.92c.48-.89,1.34-1.49,2.57-1.49,2.03,0,3.33,1.49,3.33,3.53v5.8h-2.05v-5.28c0-1.23-.73-2.07-1.93-2.07s-1.88,.78-1.92,1.95v5.39h-2.05v-9.15h2.05v1.3Z"/><path d="M142.87,415.43c2.68,0,4.76,2.07,4.76,4.76s-2.08,4.78-4.76,4.78-4.76-2.1-4.76-4.78,2.06-4.76,4.76-4.76Zm0,7.53c1.54,0,2.68-1.25,2.68-2.77s-1.13-2.77-2.68-2.77-2.7,1.25-2.7,2.77,1.17,2.77,2.7,2.77Z"/><path d="M149.94,424.77v-7.4h-1.54v-1.75h1.66v-2.14l1.93-.45v2.59h1.66v1.75h-1.66v7.4h-2.05Z"/><path d="M156.1,411.57c.72,0,1.25,.58,1.25,1.26s-.52,1.26-1.25,1.26-1.27-.56-1.27-1.26,.54-1.26,1.27-1.26Zm1.02,13.21h-2.05v-9.15h2.05v9.15Z"/><path d="M164.15,417.37h-2.03v7.4h-2.05v-7.4h-1.36v-1.75h1.36v-.8c0-1.99,1.25-3.07,3.14-3.07,.32,0,.8,.07,1,.13v2.06c-.19-.09-.6-.21-.93-.21-.76,0-1.17,.48-1.17,1.19v.69h2.03v1.75Zm2.68-5.8c.72,0,1.25,.58,1.25,1.26s-.52,1.26-1.25,1.26-1.27-.56-1.27-1.26,.54-1.26,1.27-1.26Zm1.02,13.21h-2.05v-9.15h2.05v9.15Z"/><path d="M176.65,424.44c-.56,.33-1.47,.54-2.19,.54-2.85,0-4.82-2.1-4.82-4.78s1.97-4.76,4.82-4.76c.73,0,1.64,.19,2.19,.5v2.19c-.52-.39-1.28-.71-2.19-.71-1.56,0-2.73,1.25-2.73,2.77s1.17,2.77,2.73,2.77c.89,0,1.67-.3,2.19-.71v2.18Z"/><path d="M178.9,416.01c.67-.32,1.64-.58,2.62-.58,2.27,0,3.74,1.1,3.74,3.68v5.65h-2.05v-.84c-.47,.61-1.27,1.04-2.23,1.04-2.01,0-3.11-1.41-3.11-3.01s1.28-3,3.14-3c.89,0,1.73,.39,2.2,.88v-.76c0-1.3-.89-1.82-1.92-1.82-.84,0-1.69,.28-2.4,.73v-1.97Zm2.64,7.42c.91,0,1.66-.65,1.66-1.47s-.74-1.49-1.66-1.49-1.64,.67-1.64,1.49,.74,1.47,1.64,1.47Z"/><path d="M188.14,424.77v-7.4h-1.54v-1.75h1.66v-2.14l1.93-.45v2.59h1.66v1.75h-1.66v7.4h-2.05Z"/><path d="M194.3,411.57c.72,0,1.25,.58,1.25,1.26s-.52,1.26-1.25,1.26-1.27-.56-1.27-1.26,.54-1.26,1.27-1.26Zm1.02,13.21h-2.05v-9.15h2.05v9.15Z"/><path d="M201.87,415.43c2.68,0,4.76,2.07,4.76,4.76s-2.08,4.78-4.76,4.78-4.76-2.1-4.76-4.78,2.06-4.76,4.76-4.76Zm0,7.53c1.54,0,2.68-1.25,2.68-2.77s-1.13-2.77-2.68-2.77-2.7,1.25-2.7,2.77,1.17,2.77,2.7,2.77Z"/><path d="M210.44,416.92c.48-.89,1.34-1.49,2.57-1.49,2.03,0,3.33,1.49,3.33,3.53v5.8h-2.05v-5.28c0-1.23-.73-2.07-1.93-2.07s-1.88,.78-1.92,1.95v5.39h-2.05v-9.15h2.05v1.3Z"/><path d="M223.53,417.87c-.59-.39-1.36-.65-2.06-.65-.78,0-1.19,.39-1.19,.89,0,.39,.24,.6,.69,.87l1.47,.88c1.13,.69,1.52,1.52,1.52,2.42,0,1.58-1.21,2.7-3.27,2.7-.87,0-1.77-.24-2.38-.52v-2.1c.46,.41,1.43,.86,2.27,.86s1.26-.41,1.26-.95c0-.37-.2-.67-.78-1l-1.56-.93c-.95-.56-1.32-1.38-1.32-2.27,0-1.53,1.15-2.62,3.24-2.62,.76,0,1.54,.17,2.12,.37v2.07Z"/></g><path class="cls-4" d="M64.51,448.15h-25.01c-6.91,0-12.5,5.6-12.5,12.5s5.6,12.5,12.5,12.5h25.01c6.91,0,12.5-5.6,12.5-12.5s-5.6-12.5-12.5-12.5Z"/><path class="cls-1" d="M64.51,451.81h-25.01c-4.88,0-8.84,3.96-8.84,8.84s3.96,8.84,8.84,8.84h25.01c4.88,0,8.84-3.96,8.84-8.84s-3.96-8.84-8.84-8.84Z"/><circle class="cls-4" cx="39.51" cy="460.65" r="6.82"/><g><rect class="cls-4" x="24.41" y="362.86" width="177.22" height="25.45"/><g><path class="cls-2" d="M40.01,381.4h-3.03v-12.83h3.03v4.35c.61-.69,1.51-1.08,2.55-1.08,2.6,0,4.35,2.12,4.35,4.87s-1.75,4.89-4.33,4.89c-1.06,0-1.95-.41-2.57-1.08v.87Zm1.9-2.77c1.08,0,1.86-.89,1.86-1.92s-.78-1.9-1.86-1.9-1.9,.88-1.9,1.9,.78,1.92,1.9,1.92Z"/><path class="cls-2" d="M50.84,377.62c.22,.8,1,1.27,2.1,1.27s2.2-.24,3.09-.74v2.85c-.86,.41-2.05,.61-3.35,.61-2.81,0-4.87-1.93-4.87-4.89,0-2.75,1.97-4.87,4.69-4.87s4.32,2.05,4.32,4.39c0,.46-.07,1.06-.17,1.39h-5.8Zm-.02-2.25h3.11c-.06-.61-.61-1.04-1.45-1.04s-1.51,.48-1.66,1.04Z"/><path class="cls-2" d="M64.52,381.25c-.46,.22-1.38,.35-1.92,.35-3.01,0-4.97-2.14-4.97-4.89s1.95-4.87,4.97-4.87c.54,0,1.45,.13,1.92,.33v3.18c-.43-.28-1.1-.56-1.92-.56-1.12,0-1.9,.88-1.9,1.92s.78,1.93,1.9,1.93c.8,0,1.49-.28,1.92-.56v3.16Z"/><path class="cls-2" d="M70.44,371.84c2.75,0,4.87,2.12,4.87,4.87s-2.12,4.89-4.87,4.89-4.87-2.14-4.87-4.89,2.12-4.87,4.87-4.87Zm0,6.81c1.06,0,1.8-.89,1.8-1.93s-.74-1.92-1.8-1.92-1.8,.88-1.8,1.92,.76,1.93,1.8,1.93Z"/><path class="cls-2" d="M79.72,373.06c.48-.69,1.21-1.23,2.29-1.23,1.26,0,2.27,.58,2.81,1.58,.46-.86,1.32-1.58,2.7-1.58,1.79,0,3.2,1.47,3.2,3.42v6.14h-3.03v-5.23c0-.86-.46-1.38-1.21-1.38s-1.26,.52-1.26,1.38v5.23h-3.03v-5.23c0-.86-.46-1.38-1.19-1.38s-1.23,.47-1.26,1.25v5.36h-3.03v-9.38h3.03v1.04Z"/><path class="cls-2" d="M95.04,377.62c.22,.8,1,1.27,2.1,1.27s2.2-.24,3.09-.74v2.85c-.86,.41-2.05,.61-3.35,.61-2.81,0-4.87-1.93-4.87-4.89,0-2.75,1.97-4.87,4.69-4.87s4.32,2.05,4.32,4.39c0,.46-.07,1.06-.17,1.39h-5.8Zm-.02-2.25h3.11c-.06-.61-.61-1.04-1.45-1.04s-1.51,.48-1.66,1.04Z"/><path class="cls-2" d="M106.63,372.34c.67-.26,1.77-.5,2.73-.5,2.72,0,4.17,1.28,4.17,4.09v5.47h-3.03v-.54c-.45,.46-1.1,.74-1.92,.74-2.08,0-2.99-1.49-2.99-3.01,0-1.64,1.17-2.98,3.05-2.98,.69,0,1.38,.19,1.86,.48v-.24c0-.95-.59-1.34-1.51-1.34-.8,0-1.67,.26-2.36,.65v-2.83Zm2.88,7.09c.56,0,.95-.37,.95-.84s-.39-.84-.95-.84-.95,.37-.95,.84,.41,.84,.95,.84Z"/><path class="cls-2" d="M122.2,373.06c.48-.69,1.21-1.23,2.29-1.23,1.26,0,2.27,.58,2.81,1.58,.46-.86,1.32-1.58,2.7-1.58,1.79,0,3.2,1.47,3.2,3.42v6.14h-3.03v-5.23c0-.86-.46-1.38-1.21-1.38s-1.26,.52-1.26,1.38v5.23h-3.03v-5.23c0-.86-.46-1.38-1.19-1.38s-1.23,.47-1.26,1.25v5.36h-3.03v-9.38h3.03v1.04Z"/><path class="cls-2" d="M137.52,377.62c.22,.8,1,1.27,2.1,1.27s2.2-.24,3.09-.74v2.85c-.86,.41-2.05,.61-3.35,.61-2.81,0-4.87-1.93-4.87-4.89,0-2.75,1.97-4.87,4.69-4.87s4.32,2.05,4.32,4.39c0,.46-.07,1.06-.17,1.39h-5.8Zm-.02-2.25h3.11c-.06-.61-.61-1.04-1.45-1.04s-1.51,.48-1.66,1.04Z"/><path class="cls-2" d="M147.86,373.06c.48-.69,1.21-1.23,2.29-1.23,1.26,0,2.27,.58,2.81,1.58,.46-.86,1.32-1.58,2.7-1.58,1.79,0,3.2,1.47,3.2,3.42v6.14h-3.03v-5.23c0-.86-.46-1.38-1.21-1.38s-1.26,.52-1.26,1.38v5.23h-3.03v-5.23c0-.86-.46-1.38-1.19-1.38s-1.23,.47-1.26,1.25v5.36h-3.03v-9.38h3.03v1.04Z"/><path class="cls-2" d="M163.69,381.4h-3.03v-12.83h3.03v4.35c.61-.69,1.51-1.08,2.55-1.08,2.6,0,4.35,2.12,4.35,4.87s-1.75,4.89-4.33,4.89c-1.06,0-1.95-.41-2.57-1.08v.87Zm1.9-2.77c1.08,0,1.86-.89,1.86-1.92s-.78-1.9-1.86-1.9-1.9,.88-1.9,1.9,.78,1.92,1.9,1.92Z"/><path class="cls-2" d="M174.51,377.62c.22,.8,1,1.27,2.1,1.27s2.2-.24,3.09-.74v2.85c-.86,.41-2.05,.61-3.35,.61-2.81,0-4.87-1.93-4.87-4.89,0-2.75,1.97-4.87,4.69-4.87s4.32,2.05,4.32,4.39c0,.46-.07,1.06-.17,1.39h-5.8Zm-.02-2.25h3.11c-.06-.61-.61-1.04-1.45-1.04s-1.51,.48-1.66,1.04Z"/><path class="cls-2" d="M184.85,372.92c.45-.61,1.13-1.08,2.12-1.08,.19,0,.5,.02,.71,.06v3.2c-.39-.17-.87-.3-1.49-.3-.71,0-1.28,.45-1.34,1.25v5.36h-3.03v-9.38h3.03v.89Z"/></g></g></g><path class="cls-4" d="M12.56,524.97v22.78c0,17.41,14.25,31.66,31.66,31.66H242.83c17.41,0,31.66-14.25,31.66-31.66v-22.78H12.56Z"/><g><g><path class="cls-1" d="M49.35,556.88c0,.92-1.4,2.53-4.17,2.53-1.27,0-2.42-.59-3.15-1.7-.97,.81-2.72,1.8-5.06,1.8-3.1,0-4.96-1.75-4.96-4.26s2.02-4.47,5.79-4.47c1.27,0,2.26,.16,2.94,.35l-.03-.27c-.24-1.75-1.29-2.64-2.64-2.64-1.18,0-2.07,.35-2.83,.67-.48,.22-.94,.46-1.29,.46-.38,0-.81-.32-.81-.89,0-.67,.67-1.35,1.16-1.72,1.21-.94,2.99-1.59,5.44-1.59,3.29,0,5.63,1.27,6.06,4.47l.59,4.34c.22,1.59,.84,1.97,2.4,2.26,.3,.05,.57,.27,.57,.65Zm-7.94-.92l-.4-2.88c-.32-.08-.78-.13-1.35-.13-1.29,0-2.32,.48-2.32,1.72s.89,1.97,1.99,1.97c.81,0,1.62-.35,2.07-.67Z"/><path class="cls-1" d="M65.24,546.35c0,1.13-1.27,.73-2.1,2.72l-3.77,8.91c-.35,.81-.59,1.48-2.77,1.48s-2.42-.57-2.83-1.48l-3.82-8.91c-.89-2.07-2.07-1.59-2.07-2.72,0-.54,.46-.86,1.02-.86,.7,0,1.64,.08,3.34,.08s2.48-.08,3.29-.08c.86,0,1.27,.35,1.27,.86,0,1.08-1.16,.86-1.16,2.1,0,.54,.16,1.02,.46,1.78l1.83,4.85,1.86-4.85c.32-.86,.48-1.35,.48-1.83,0-1.05-1.21-.97-1.21-2.05,0-.51,.38-.86,1.24-.86,.57,0,1.21,.08,1.94,.08,.67,0,1.51-.08,1.99-.08,.59,0,1.02,.35,1.02,.86Z"/><path class="cls-1" d="M65.05,552.62c0-4.39,3.64-7.65,8.89-7.65s8.19,3.23,8.19,7.19c0,4.5-3.8,7.62-8.86,7.62s-8.21-3.23-8.21-7.16Zm11.42,.75c0-2.26-1.18-5.92-3.42-5.92-1.56,0-2.34,1.27-2.34,3.96,0,2.21,1.16,5.9,3.42,5.9,1.59,0,2.34-1.27,2.34-3.93Z"/><path class="cls-1" d="M83.3,552.68c0-4.77,3.88-7.67,7.94-7.67,3.5,0,6.14,2.18,6.14,3.77,0,.73-.54,1.7-2.21,2.8-.51,.35-.81,.4-1.05,.4-.59,0-.94-.46-1.05-.97-.3-1.48-.67-3.96-2.4-3.96-1.27,0-1.99,1.32-1.99,3.42,0,3.8,2.4,5.87,4.63,5.87,1.64,0,2.69-.84,3.47-1.4,.3-.22,.46-.3,.67-.3,.43,0,.67,.4,.67,.73,0,.24-.08,.51-.22,.83-.65,1.48-2.91,3.58-6.97,3.58-4.36,0-7.65-2.75-7.65-7.11Z"/><path class="cls-1" d="M116.16,556.88c0,.92-1.4,2.53-4.17,2.53-1.27,0-2.42-.59-3.15-1.7-.97,.81-2.72,1.8-5.06,1.8-3.1,0-4.96-1.75-4.96-4.26s2.02-4.47,5.79-4.47c1.27,0,2.26,.16,2.94,.35l-.03-.27c-.24-1.75-1.29-2.64-2.64-2.64-1.18,0-2.07,.35-2.83,.67-.48,.22-.94,.46-1.29,.46-.38,0-.81-.32-.81-.89,0-.67,.67-1.35,1.16-1.72,1.21-.94,2.99-1.59,5.44-1.59,3.29,0,5.63,1.27,6.06,4.47l.59,4.34c.22,1.59,.84,1.97,2.4,2.26,.3,.05,.57,.27,.57,.65Zm-7.94-.92l-.4-2.88c-.32-.08-.78-.13-1.35-.13-1.29,0-2.32,.48-2.32,1.72s.89,1.97,1.99,1.97c.81,0,1.62-.35,2.07-.67Z"/><path class="cls-1" d="M134.47,556.91c0,.81-.81,1.13-3.23,1.94-1.94,.65-2.42,.75-2.72,.75-.92,0-1.02-.89-1.02-1.59v-1.05c-1.02,1.51-2.67,2.72-5.06,2.72-3.42,0-6.11-2.58-6.11-7s3.26-7.57,7.51-7.57c1.53,0,2.75,.4,3.66,1.1v-2.37c0-1.75-2.02-1.02-2.02-2.42,0-.7,.83-1.08,3.37-2.07,2.13-.83,2.5-.83,2.85-.83,.83,0,1.02,.73,1.02,1.53v14.35c0,1.75,1.75,1.32,1.75,2.5Zm-6.97-4.28v-.38c0-2.48-1.27-4.66-3.18-4.66-1.37,0-2.45,1.16-2.45,3.64,0,2.96,1.48,4.93,3.1,4.93s2.53-1.53,2.53-3.53Z"/><path class="cls-1" d="M143.87,538.51c-3.74,0-8.52,4.63-8.52,13.3,0,5.62,3.81,8.7,8.52,8.7s8.52-3.08,8.52-8.7c0-8.67-4.78-13.3-8.52-13.3Zm0,16.38c-2.02,0-3.65-1.63-3.65-3.65s1.63-3.65,3.65-3.65,3.65,1.63,3.65,3.65-1.63,3.65-3.65,3.65Z"/></g><g><rect class="cls-1" x="232.96" y="556.14" width="22.09" height="4.42" rx="2.21" ry="2.21"/><rect class="cls-1" x="232.96" y="547.3" width="22.09" height="4.42" rx="2.21" ry="2.21"/><rect class="cls-1" x="232.96" y="538.47" width="22.09" height="4.42" rx="2.21" ry="2.21"/></g></g></g></g></svg>