<?xml version="1.0" encoding="UTF-8"?><svg id="Layer_2" xmlns="http://www.w3.org/2000/svg" viewBox="0 0 355.33 138.83"><defs><style>.cls-1{fill:#fefefe;}.cls-2{fill:#153640;}.cls-3{fill:#0ca39a;}</style></defs><g id="Layer_1-2"><g><g><path class="cls-2" d="M95.47,3.69c.09,43.74,.17,87.49,.26,131.23-.19,1.03-.61,1.93-1.4,2.64-.95,.87-2.09,1.1-3.34,1.1-28.65,.05-57.3,.11-85.95,.16-.23,0-.46,0-.68-.01-2.42-.14-4.09-1.9-4.1-4.31C.17,91.15,.08,47.8,0,4.45c0-.29,0-.6,.07-.88C.49,1.69,1.69,.59,3.55,.17c29.5-.06,59-.12,88.5-.17,1.88,.55,3.07,1.73,3.43,3.69ZM5.78,5.92c.08,42.42,.17,84.76,.25,127.1,28-.05,55.96-.11,83.91-.16-.08-42.39-.17-84.73-.25-127.1-27.99,.05-55.92,.11-83.91,.16Z"/><path class="cls-3" d="M5.78,5.92c27.99-.05,55.93-.11,83.91-.16,.08,42.37,.17,84.71,.25,127.1-27.96,.05-55.91,.11-83.91,.16-.08-42.35-.17-84.69-.25-127.1ZM38.68,55.36c0,.91,.07,1.83-.01,2.73-.09,1.07-.69,1.84-1.77,2.09-.57,.13-1.17,.16-1.76,.14-1.96-.06-3.92-.03-5.86,.34-5.06,.94-9.4,3.26-12.89,7.05-5.05,5.48-7.06,11.98-6.06,19.34,.79,5.85,3.49,10.76,8.03,14.55,5.77,4.81,12.45,6.5,19.8,5.18,5.54-.99,10.1-3.82,13.64-8.19,4.05-4.99,5.77-10.72,5.13-17.13-.09-.87,.17-1.61,.78-2.24,.75-.78,1.68-.82,2.66-.71,1.69,.18,3.36,.09,5.04-.14,5.53-.78,10.25-3.19,13.98-7.32,5.37-5.95,7.22-12.94,5.63-20.79-2.51-12.42-14.75-20.59-27.26-18.25-12.09,2.26-19.5,12.99-19.1,23.37Z"/><path class="cls-1" d="M38.68,55.36c-.4-10.38,7.01-21.11,19.1-23.37,12.51-2.34,24.75,5.83,27.26,18.25,1.59,7.85-.26,14.84-5.63,20.79-3.74,4.14-8.45,6.55-13.98,7.32-1.68,.24-3.35,.32-5.04,.14-.98-.1-1.91-.06-2.66,.71-.61,.63-.86,1.37-.78,2.24,.65,6.42-1.08,12.14-5.13,17.13-3.55,4.37-8.1,7.2-13.64,8.19-7.36,1.31-14.03-.38-19.8-5.18-4.55-3.79-7.24-8.7-8.03-14.55-1-7.35,1.01-13.86,6.06-19.34,3.49-3.79,7.83-6.11,12.89-7.05,1.93-.36,3.89-.39,5.86-.34,.59,.02,1.19,0,1.76-.14,1.07-.25,1.67-1.02,1.77-2.09,.08-.9,.01-1.82,.01-2.73Zm36.29-5.68c-.08-.32-.12-.54-.18-.75-.39-1.24-1.09-2.29-1.99-3.23-1.68-1.75-3.73-2.9-6.03-3.6-3.59-1.09-7.12-1.01-10.46,.82-4.81,2.64-8.46,8.18-6.9,15.43,.1,.48-.02,.75-.33,1.07-1.26,1.25-2.5,2.53-3.75,3.8-2.19,2.23-4.38,4.45-6.56,6.69-.2,.2-.38,.25-.66,.19-2.16-.39-4.33-.56-6.53-.33-2.35,.25-4.55,.93-6.48,2.34-5.24,3.83-7.73,11.6-4.08,18.43,2.97,5.56,9.1,8.47,15.33,7.23,3.78-.75,6.92-2.64,9.1-5.9,1.6-2.39,2.13-5.12,2.09-7.94-.03-1.81-.29-3.63-.52-5.43-.05-.44,.01-.7,.32-1.01,3.15-3.14,6.28-6.3,9.42-9.44,.13-.13,.26-.24,.39-.35,9.4,3.38,16.11-2.07,18.13-7.33-3.54,0-7.06,.01-10.57,.02,0-3.6-.01-7.12-.02-10.68l10.28-.02Z"/><path class="cls-3" d="M74.97,49.69l-10.28,.02c0,3.57,.01,7.09,.02,10.68,3.51,0,7.03-.01,10.57-.02-2.02,5.26-8.72,10.71-18.13,7.33-.12,.11-.26,.22-.39,.35-3.14,3.15-6.27,6.3-9.42,9.44-.31,.31-.37,.57-.32,1.01,.22,1.81,.49,3.62,.52,5.43,.04,2.82-.49,5.55-2.09,7.94-2.18,3.26-5.32,5.15-9.1,5.9-6.23,1.23-12.36-1.67-15.33-7.23-3.65-6.83-1.16-14.6,4.08-18.43,1.93-1.41,4.13-2.09,6.48-2.34,2.19-.23,4.37-.06,6.53,.33,.28,.05,.47,0,.66-.19,2.18-2.23,4.37-4.46,6.56-6.69,1.25-1.27,2.49-2.54,3.75-3.8,.32-.31,.44-.58,.33-1.07-1.57-7.25,2.09-12.79,6.9-15.43,3.34-1.83,6.87-1.92,10.46-.82,2.3,.7,4.35,1.85,6.03,3.6,.9,.93,1.6,1.99,1.99,3.23,.07,.21,.11,.43,.18,.75ZM26.77,83.04c.06,.25,.1,.4,.14,.55,.46,1.69,.93,3.37,1.36,5.07,.13,.5,.34,.75,.86,.88,1.68,.4,3.35,.83,5.01,1.32,.55,.16,.89,.01,1.26-.34,1.46-1.41,2.93-2.8,4.41-4.18,.24-.23,.26-.41,.18-.71-.53-1.9-1.05-3.81-1.55-5.73-.09-.33-.26-.48-.59-.57-1.94-.5-3.87-1.02-5.8-1.55-.29-.08-.46-.02-.65,.18-1.46,1.57-2.93,3.12-4.39,4.69-.11,.12-.18,.29-.24,.38Z"/><path class="cls-1" d="M26.77,83.04c.06-.09,.13-.26,.24-.38,1.46-1.56,2.93-3.12,4.39-4.69,.19-.21,.36-.26,.65-.18,1.93,.53,3.86,1.05,5.8,1.55,.32,.08,.5,.24,.59,.57,.51,1.91,1.02,3.82,1.55,5.73,.08,.3,.06,.48-.18,.71-1.48,1.38-2.95,2.77-4.41,4.18-.37,.36-.71,.51-1.26,.34-1.66-.49-3.33-.92-5.01-1.32-.52-.13-.74-.38-.86-.88-.43-1.7-.9-3.38-1.36-5.07-.04-.15-.08-.31-.14-.55Z"/></g><g><path class="cls-2" d="M112.78,3.69c.09,43.74,.17,87.49,.26,131.23-.19,1.03-.61,1.93-1.4,2.64-.95,.87-2.09,1.1-3.34,1.1-28.65,.05-57.3,.11-85.95,.16-.23,0-.46,0-.68-.01-2.42-.14-4.09-1.9-4.1-4.31-.09-43.35-.17-86.7-.25-130.05,0-.29,0-.6,.07-.88,.43-1.88,1.62-2.98,3.48-3.4,29.5-.06,59-.12,88.5-.17,1.88,.55,3.07,1.73,3.43,3.69ZM23.09,5.92c.08,42.42,.17,84.76,.25,127.1,28-.05,55.96-.11,83.91-.16-.08-42.39-.17-84.73-.25-127.1-27.99,.05-55.92,.11-83.91,.16Z"/><path class="cls-3" d="M23.09,5.92c27.99-.05,55.93-.11,83.91-.16,.08,42.37,.17,84.71,.25,127.1-27.96,.05-55.91,.11-83.91,.16-.08-42.35-.17-84.69-.25-127.1ZM55.99,55.36c0,.91,.07,1.83-.01,2.73-.09,1.07-.69,1.84-1.77,2.09-.57,.13-1.17,.16-1.76,.14-1.96-.06-3.92-.03-5.86,.34-5.06,.94-9.4,3.26-12.89,7.05-5.05,5.48-7.06,11.98-6.06,19.34,.79,5.85,3.49,10.76,8.03,14.55,5.77,4.81,12.45,6.5,19.8,5.18,5.54-.99,10.1-3.82,13.64-8.19,4.05-4.99,5.77-10.72,5.13-17.13-.09-.87,.17-1.61,.78-2.24,.75-.78,1.68-.82,2.66-.71,1.69,.18,3.36,.09,5.04-.14,5.53-.78,10.25-3.19,13.98-7.32,5.37-5.95,7.22-12.94,5.63-20.79-2.51-12.42-14.75-20.59-27.26-18.25-12.09,2.26-19.5,12.99-19.1,23.37Z"/><path class="cls-1" d="M55.99,55.36c-.4-10.38,7.01-21.11,19.1-23.37,12.51-2.34,24.75,5.83,27.26,18.25,1.59,7.85-.26,14.84-5.63,20.79-3.74,4.14-8.45,6.55-13.98,7.32-1.68,.24-3.35,.32-5.04,.14-.98-.1-1.91-.06-2.66,.71-.61,.63-.86,1.37-.78,2.24,.65,6.42-1.08,12.14-5.13,17.13-3.55,4.37-8.1,7.2-13.64,8.19-7.36,1.31-14.03-.38-19.8-5.18-4.55-3.79-7.24-8.7-8.03-14.55-1-7.35,1.01-13.86,6.06-19.34,3.49-3.79,7.83-6.11,12.89-7.05,1.93-.36,3.89-.39,5.86-.34,.59,.02,1.19,0,1.76-.14,1.07-.25,1.67-1.02,1.77-2.09,.08-.9,.01-1.82,.01-2.73Zm36.29-5.68c-.08-.32-.12-.54-.18-.75-.39-1.24-1.09-2.29-1.99-3.23-1.68-1.75-3.73-2.9-6.03-3.6-3.59-1.09-7.12-1.01-10.46,.82-4.81,2.64-8.46,8.18-6.9,15.43,.1,.48-.02,.75-.33,1.07-1.26,1.25-2.5,2.53-3.75,3.8-2.19,2.23-4.38,4.45-6.56,6.69-.2,.2-.38,.25-.66,.19-2.16-.39-4.33-.56-6.53-.33-2.35,.25-4.55,.93-6.48,2.34-5.24,3.83-7.73,11.6-4.08,18.43,2.97,5.56,9.1,8.47,15.33,7.23,3.78-.75,6.92-2.64,9.1-5.9,1.6-2.39,2.13-5.12,2.09-7.94-.03-1.81-.29-3.63-.52-5.43-.05-.44,.01-.7,.32-1.01,3.15-3.14,6.28-6.3,9.42-9.44,.13-.13,.26-.24,.39-.35,9.4,3.38,16.11-2.07,18.13-7.33-3.54,0-7.06,.01-10.57,.02,0-3.6-.01-7.12-.02-10.68l10.28-.02Z"/><path class="cls-3" d="M92.27,49.69l-10.28,.02c0,3.57,.01,7.09,.02,10.68,3.51,0,7.03-.01,10.57-.02-2.02,5.26-8.72,10.71-18.13,7.33-.12,.11-.26,.22-.39,.35-3.14,3.15-6.27,6.3-9.42,9.44-.31,.31-.37,.57-.32,1.01,.22,1.81,.49,3.62,.52,5.43,.04,2.82-.49,5.55-2.09,7.94-2.18,3.26-5.32,5.15-9.1,5.9-6.23,1.23-12.36-1.67-15.33-7.23-3.65-6.83-1.16-14.6,4.08-18.43,1.93-1.41,4.13-2.09,6.48-2.34,2.19-.23,4.37-.06,6.53,.33,.28,.05,.47,0,.66-.19,2.18-2.23,4.37-4.46,6.56-6.69,1.25-1.27,2.49-2.54,3.75-3.8,.32-.31,.44-.58,.33-1.07-1.57-7.25,2.09-12.79,6.9-15.43,3.34-1.83,6.87-1.92,10.46-.82,2.3,.7,4.35,1.85,6.03,3.6,.9,.93,1.6,1.99,1.99,3.23,.07,.21,.11,.43,.18,.75Zm-48.2,33.35c.06,.25,.1,.4,.14,.55,.46,1.69,.93,3.37,1.36,5.07,.13,.5,.34,.75,.86,.88,1.68,.4,3.35,.83,5.01,1.32,.55,.16,.89,.01,1.26-.34,1.46-1.41,2.93-2.8,4.41-4.18,.24-.23,.26-.41,.18-.71-.53-1.9-1.05-3.81-1.55-5.73-.09-.33-.26-.48-.59-.57-1.94-.5-3.87-1.02-5.8-1.55-.29-.08-.46-.02-.65,.18-1.46,1.57-2.93,3.12-4.39,4.69-.11,.12-.18,.29-.24,.38Z"/><path class="cls-1" d="M44.07,83.04c.06-.09,.13-.26,.24-.38,1.46-1.56,2.93-3.12,4.39-4.69,.19-.21,.36-.26,.65-.18,1.93,.53,3.86,1.05,5.8,1.55,.32,.08,.5,.24,.59,.57,.51,1.91,1.02,3.82,1.55,5.73,.08,.3,.06,.48-.18,.71-1.48,1.38-2.95,2.77-4.41,4.18-.37,.36-.71,.51-1.26,.34-1.66-.49-3.33-.92-5.01-1.32-.52-.13-.74-.38-.86-.88-.43-1.7-.9-3.38-1.36-5.07-.04-.15-.08-.31-.14-.55Z"/></g><g><path class="cls-2" d="M130.09,3.69c.09,43.74,.17,87.49,.26,131.23-.19,1.03-.61,1.93-1.4,2.64-.95,.87-2.09,1.1-3.34,1.1-28.65,.05-57.3,.11-85.95,.16-.23,0-.46,0-.68-.01-2.42-.14-4.09-1.9-4.1-4.31-.09-43.35-.17-86.7-.25-130.05,0-.29,0-.6,.07-.88,.43-1.88,1.62-2.98,3.48-3.4,29.5-.06,59-.12,88.5-.17,1.88,.55,3.07,1.73,3.43,3.69ZM40.4,5.92c.08,42.42,.17,84.76,.25,127.1,28-.05,55.96-.11,83.91-.16-.08-42.39-.17-84.73-.25-127.1-27.99,.05-55.92,.11-83.91,.16Z"/><path class="cls-3" d="M40.4,5.92c27.99-.05,55.93-.11,83.91-.16,.08,42.37,.17,84.71,.25,127.1-27.96,.05-55.91,.11-83.91,.16-.08-42.35-.17-84.69-.25-127.1Zm32.9,49.45c0,.91,.07,1.83-.01,2.73-.09,1.07-.69,1.84-1.77,2.09-.57,.13-1.17,.16-1.76,.14-1.96-.06-3.92-.03-5.86,.34-5.06,.94-9.4,3.26-12.89,7.05-5.05,5.48-7.06,11.98-6.06,19.34,.79,5.85,3.49,10.76,8.03,14.55,5.77,4.81,12.45,6.5,19.8,5.18,5.54-.99,10.1-3.82,13.64-8.19,4.05-4.99,5.77-10.72,5.13-17.13-.09-.87,.17-1.61,.78-2.24,.75-.78,1.68-.82,2.66-.71,1.69,.18,3.36,.09,5.04-.14,5.53-.78,10.25-3.19,13.98-7.32,5.37-5.95,7.22-12.94,5.63-20.79-2.51-12.42-14.75-20.59-27.26-18.25-12.09,2.26-19.5,12.99-19.1,23.37Z"/><path class="cls-1" d="M73.29,55.36c-.4-10.38,7.01-21.11,19.1-23.37,12.51-2.34,24.75,5.83,27.26,18.25,1.59,7.85-.26,14.84-5.63,20.79-3.74,4.14-8.45,6.55-13.98,7.32-1.68,.24-3.35,.32-5.04,.14-.98-.1-1.91-.06-2.66,.71-.61,.63-.86,1.37-.78,2.24,.65,6.42-1.08,12.14-5.13,17.13-3.55,4.37-8.1,7.2-13.64,8.19-7.36,1.31-14.03-.38-19.8-5.18-4.55-3.79-7.24-8.7-8.03-14.55-1-7.35,1.01-13.86,6.06-19.34,3.49-3.79,7.83-6.11,12.89-7.05,1.93-.36,3.89-.39,5.86-.34,.59,.02,1.19,0,1.76-.14,1.07-.25,1.67-1.02,1.77-2.09,.08-.9,.01-1.82,.01-2.73Zm36.29-5.68c-.08-.32-.12-.54-.18-.75-.39-1.24-1.09-2.29-1.99-3.23-1.68-1.75-3.73-2.9-6.03-3.6-3.59-1.09-7.12-1.01-10.46,.82-4.81,2.64-8.46,8.18-6.9,15.43,.1,.48-.02,.75-.33,1.07-1.26,1.25-2.5,2.53-3.75,3.8-2.19,2.23-4.38,4.45-6.56,6.69-.2,.2-.38,.25-.66,.19-2.16-.39-4.33-.56-6.53-.33-2.35,.25-4.55,.93-6.48,2.34-5.24,3.83-7.73,11.6-4.08,18.43,2.97,5.56,9.1,8.47,15.33,7.23,3.78-.75,6.92-2.64,9.1-5.9,1.6-2.39,2.13-5.12,2.09-7.94-.03-1.81-.29-3.63-.52-5.43-.05-.44,.01-.7,.32-1.01,3.15-3.14,6.28-6.3,9.42-9.44,.13-.13,.26-.24,.39-.35,9.4,3.38,16.11-2.07,18.13-7.33-3.54,0-7.06,.01-10.57,.02,0-3.6-.01-7.12-.02-10.68l10.28-.02Z"/><path class="cls-3" d="M109.58,49.69l-10.28,.02c0,3.57,.01,7.09,.02,10.68,3.51,0,7.03-.01,10.57-.02-2.02,5.26-8.72,10.71-18.13,7.33-.12,.11-.26,.22-.39,.35-3.14,3.15-6.27,6.3-9.42,9.44-.31,.31-.37,.57-.32,1.01,.22,1.81,.49,3.62,.52,5.43,.04,2.82-.49,5.55-2.09,7.94-2.18,3.26-5.32,5.15-9.1,5.9-6.23,1.23-12.36-1.67-15.33-7.23-3.65-6.83-1.16-14.6,4.08-18.43,1.93-1.41,4.13-2.09,6.48-2.34,2.19-.23,4.37-.06,6.53,.33,.28,.05,.47,0,.66-.19,2.18-2.23,4.37-4.46,6.56-6.69,1.25-1.27,2.49-2.54,3.75-3.8,.32-.31,.44-.58,.33-1.07-1.57-7.25,2.09-12.79,6.9-15.43,3.34-1.83,6.87-1.92,10.46-.82,2.3,.7,4.35,1.85,6.03,3.6,.9,.93,1.6,1.99,1.99,3.23,.07,.21,.11,.43,.18,.75Zm-48.2,33.35c.06,.25,.1,.4,.14,.55,.46,1.69,.93,3.37,1.36,5.07,.13,.5,.34,.75,.86,.88,1.68,.4,3.35,.83,5.01,1.32,.55,.16,.89,.01,1.26-.34,1.46-1.41,2.93-2.8,4.41-4.18,.24-.23,.26-.41,.18-.71-.53-1.9-1.05-3.81-1.55-5.73-.09-.33-.26-.48-.59-.57-1.94-.5-3.87-1.02-5.8-1.55-.29-.08-.46-.02-.65,.18-1.46,1.57-2.93,3.12-4.39,4.69-.11,.12-.18,.29-.24,.38Z"/><path class="cls-1" d="M61.38,83.04c.06-.09,.13-.26,.24-.38,1.46-1.56,2.93-3.12,4.39-4.69,.19-.21,.36-.26,.65-.18,1.93,.53,3.86,1.05,5.8,1.55,.32,.08,.5,.24,.59,.57,.51,1.91,1.02,3.82,1.55,5.73,.08,.3,.06,.48-.18,.71-1.48,1.38-2.95,2.77-4.41,4.18-.37,.36-.71,.51-1.26,.34-1.66-.49-3.33-.92-5.01-1.32-.52-.13-.74-.38-.86-.88-.43-1.7-.9-3.38-1.36-5.07-.04-.15-.08-.31-.14-.55Z"/></g><g><path class="cls-2" d="M147.39,3.69c.09,43.74,.17,87.49,.26,131.23-.19,1.03-.61,1.93-1.4,2.64-.95,.87-2.09,1.1-3.34,1.1-28.65,.05-57.3,.11-85.95,.16-.23,0-.46,0-.68-.01-2.42-.14-4.09-1.9-4.1-4.31-.09-43.35-.17-86.7-.25-130.05,0-.29,0-.6,.07-.88,.43-1.88,1.62-2.98,3.48-3.4,29.5-.06,59-.12,88.5-.17,1.88,.55,3.07,1.73,3.43,3.69ZM57.7,5.92c.08,42.42,.17,84.76,.25,127.1,28-.05,55.96-.11,83.91-.16-.08-42.39-.17-84.73-.25-127.1-27.99,.05-55.92,.11-83.91,.16Z"/><path class="cls-3" d="M57.7,5.92c27.99-.05,55.93-.11,83.91-.16,.08,42.37,.17,84.71,.25,127.1-27.96,.05-55.91,.11-83.91,.16-.08-42.35-.17-84.69-.25-127.1Zm32.9,49.45c0,.91,.07,1.83-.01,2.73-.09,1.07-.69,1.84-1.77,2.09-.57,.13-1.17,.16-1.76,.14-1.96-.06-3.92-.03-5.86,.34-5.06,.94-9.4,3.26-12.89,7.05-5.05,5.48-7.06,11.98-6.06,19.34,.79,5.85,3.49,10.76,8.03,14.55,5.77,4.81,12.45,6.5,19.8,5.18,5.54-.99,10.1-3.82,13.64-8.19,4.05-4.99,5.77-10.72,5.13-17.13-.09-.87,.17-1.61,.78-2.24,.75-.78,1.68-.82,2.66-.71,1.69,.18,3.36,.09,5.04-.14,5.53-.78,10.25-3.19,13.98-7.32,5.37-5.95,7.22-12.94,5.63-20.79-2.51-12.42-14.75-20.59-27.26-18.25-12.09,2.26-19.5,12.99-19.1,23.37Z"/><path class="cls-1" d="M90.6,55.36c-.4-10.38,7.01-21.11,19.1-23.37,12.51-2.34,24.75,5.83,27.26,18.25,1.59,7.85-.26,14.84-5.63,20.79-3.74,4.14-8.45,6.55-13.98,7.32-1.68,.24-3.35,.32-5.04,.14-.98-.1-1.91-.06-2.66,.71-.61,.63-.86,1.37-.78,2.24,.65,6.42-1.08,12.14-5.13,17.13-3.55,4.37-8.1,7.2-13.64,8.19-7.36,1.31-14.03-.38-19.8-5.18-4.55-3.79-7.24-8.7-8.03-14.55-1-7.35,1.01-13.86,6.06-19.34,3.49-3.79,7.83-6.11,12.89-7.05,1.93-.36,3.89-.39,5.86-.34,.59,.02,1.19,0,1.76-.14,1.07-.25,1.67-1.02,1.77-2.09,.08-.9,.01-1.82,.01-2.73Zm36.29-5.68c-.08-.32-.12-.54-.18-.75-.39-1.24-1.09-2.29-1.99-3.23-1.68-1.75-3.73-2.9-6.03-3.6-3.59-1.09-7.12-1.01-10.46,.82-4.81,2.64-8.46,8.18-6.9,15.43,.1,.48-.02,.75-.33,1.07-1.26,1.25-2.5,2.53-3.75,3.8-2.19,2.23-4.38,4.45-6.56,6.69-.2,.2-.38,.25-.66,.19-2.16-.39-4.33-.56-6.53-.33-2.35,.25-4.55,.93-6.48,2.34-5.24,3.83-7.73,11.6-4.08,18.43,2.97,5.56,9.1,8.47,15.33,7.23,3.78-.75,6.92-2.64,9.1-5.9,1.6-2.39,2.13-5.12,2.09-7.94-.03-1.81-.29-3.63-.52-5.43-.05-.44,.01-.7,.32-1.01,3.15-3.14,6.28-6.3,9.42-9.44,.13-.13,.26-.24,.39-.35,9.4,3.38,16.11-2.07,18.13-7.33-3.54,0-7.06,.01-10.57,.02,0-3.6-.01-7.12-.02-10.68l10.28-.02Z"/><path class="cls-3" d="M126.89,49.69l-10.28,.02c0,3.57,.01,7.09,.02,10.68,3.51,0,7.03-.01,10.57-.02-2.02,5.26-8.72,10.71-18.13,7.33-.12,.11-.26,.22-.39,.35-3.14,3.15-6.27,6.3-9.42,9.44-.31,.31-.37,.57-.32,1.01,.22,1.81,.49,3.62,.52,5.43,.04,2.82-.49,5.55-2.09,7.94-2.18,3.26-5.32,5.15-9.1,5.9-6.23,1.23-12.36-1.67-15.33-7.23-3.65-6.83-1.16-14.6,4.08-18.43,1.93-1.41,4.13-2.09,6.48-2.34,2.19-.23,4.37-.06,6.53,.33,.28,.05,.47,0,.66-.19,2.18-2.23,4.37-4.46,6.56-6.69,1.25-1.27,2.49-2.54,3.75-3.8,.32-.31,.44-.58,.33-1.07-1.57-7.25,2.09-12.79,6.9-15.43,3.34-1.83,6.87-1.92,10.46-.82,2.3,.7,4.35,1.85,6.03,3.6,.9,.93,1.6,1.99,1.99,3.23,.07,.21,.11,.43,.18,.75Zm-48.2,33.35c.06,.25,.1,.4,.14,.55,.46,1.69,.93,3.37,1.36,5.07,.13,.5,.34,.75,.86,.88,1.68,.4,3.35,.83,5.01,1.32,.55,.16,.89,.01,1.26-.34,1.46-1.41,2.93-2.8,4.41-4.18,.24-.23,.26-.41,.18-.71-.53-1.9-1.05-3.81-1.55-5.73-.09-.33-.26-.48-.59-.57-1.94-.5-3.87-1.02-5.8-1.55-.29-.08-.46-.02-.65,.18-1.46,1.57-2.93,3.12-4.39,4.69-.11,.12-.18,.29-.24,.38Z"/><path class="cls-1" d="M78.69,83.04c.06-.09,.13-.26,.24-.38,1.46-1.56,2.93-3.12,4.39-4.69,.19-.21,.36-.26,.65-.18,1.93,.53,3.86,1.05,5.8,1.55,.32,.08,.5,.24,.59,.57,.51,1.91,1.02,3.82,1.55,5.73,.08,.3,.06,.48-.18,.71-1.48,1.38-2.95,2.77-4.41,4.18-.37,.36-.71,.51-1.26,.34-1.66-.49-3.33-.92-5.01-1.32-.52-.13-.74-.38-.86-.88-.43-1.7-.9-3.38-1.36-5.07-.04-.15-.08-.31-.14-.55Z"/></g><g><path class="cls-2" d="M164.7,3.69c.09,43.74,.17,87.49,.26,131.23-.19,1.03-.61,1.93-1.4,2.64-.95,.87-2.09,1.1-3.34,1.1-28.65,.05-57.3,.11-85.95,.16-.23,0-.46,0-.68-.01-2.42-.14-4.09-1.9-4.1-4.31-.09-43.35-.17-86.7-.25-130.05,0-.29,0-.6,.07-.88,.43-1.88,1.62-2.98,3.48-3.4,29.5-.06,59-.12,88.5-.17,1.88,.55,3.07,1.73,3.43,3.69Zm-89.69,2.23c.08,42.42,.17,84.76,.25,127.1,28-.05,55.96-.11,83.91-.16-.08-42.39-.17-84.73-.25-127.1-27.99,.05-55.92,.11-83.91,.16Z"/><path class="cls-3" d="M75.01,5.92c27.99-.05,55.93-.11,83.91-.16,.08,42.37,.17,84.71,.25,127.1-27.96,.05-55.91,.11-83.91,.16-.08-42.35-.17-84.69-.25-127.1Zm32.9,49.45c0,.91,.07,1.83-.01,2.73-.09,1.07-.69,1.84-1.77,2.09-.57,.13-1.17,.16-1.76,.14-1.96-.06-3.92-.03-5.86,.34-5.06,.94-9.4,3.26-12.89,7.05-5.05,5.48-7.06,11.98-6.06,19.34,.79,5.85,3.49,10.76,8.03,14.55,5.77,4.81,12.45,6.5,19.8,5.18,5.54-.99,10.1-3.82,13.64-8.19,4.05-4.99,5.77-10.72,5.13-17.13-.09-.87,.17-1.61,.78-2.24,.75-.78,1.68-.82,2.66-.71,1.69,.18,3.36,.09,5.04-.14,5.53-.78,10.25-3.19,13.98-7.32,5.37-5.95,7.22-12.94,5.63-20.79-2.51-12.42-14.75-20.59-27.26-18.25-12.09,2.26-19.5,12.99-19.1,23.37Z"/><path class="cls-1" d="M107.91,55.36c-.4-10.38,7.01-21.11,19.1-23.37,12.51-2.34,24.75,5.83,27.26,18.25,1.59,7.85-.26,14.84-5.63,20.79-3.74,4.14-8.45,6.55-13.98,7.32-1.68,.24-3.35,.32-5.04,.14-.98-.1-1.91-.06-2.66,.71-.61,.63-.86,1.37-.78,2.24,.65,6.42-1.08,12.14-5.13,17.13-3.55,4.37-8.1,7.2-13.64,8.19-7.36,1.31-14.03-.38-19.8-5.18-4.55-3.79-7.24-8.7-8.03-14.55-1-7.35,1.01-13.86,6.06-19.34,3.49-3.79,7.83-6.11,12.89-7.05,1.93-.36,3.89-.39,5.86-.34,.59,.02,1.19,0,1.76-.14,1.07-.25,1.67-1.02,1.77-2.09,.08-.9,.01-1.82,.01-2.73Zm36.29-5.68c-.08-.32-.12-.54-.18-.75-.39-1.24-1.09-2.29-1.99-3.23-1.68-1.75-3.73-2.9-6.03-3.6-3.59-1.09-7.12-1.01-10.46,.82-4.81,2.64-8.46,8.18-6.9,15.43,.1,.48-.02,.75-.33,1.07-1.26,1.25-2.5,2.53-3.75,3.8-2.19,2.23-4.38,4.45-6.56,6.69-.2,.2-.38,.25-.66,.19-2.16-.39-4.33-.56-6.53-.33-2.35,.25-4.55,.93-6.48,2.34-5.24,3.83-7.73,11.6-4.08,18.43,2.97,5.56,9.1,8.47,15.33,7.23,3.78-.75,6.92-2.64,9.1-5.9,1.6-2.39,2.13-5.12,2.09-7.94-.03-1.81-.29-3.63-.52-5.43-.05-.44,.01-.7,.32-1.01,3.15-3.14,6.28-6.3,9.42-9.44,.13-.13,.26-.24,.39-.35,9.4,3.38,16.11-2.07,18.13-7.33-3.54,0-7.06,.01-10.57,.02,0-3.6-.01-7.12-.02-10.68l10.28-.02Z"/><path class="cls-3" d="M144.2,49.69l-10.28,.02c0,3.57,.01,7.09,.02,10.68,3.51,0,7.03-.01,10.57-.02-2.02,5.26-8.72,10.71-18.13,7.33-.12,.11-.26,.22-.39,.35-3.14,3.15-6.27,6.3-9.42,9.44-.31,.31-.37,.57-.32,1.01,.22,1.81,.49,3.62,.52,5.43,.04,2.82-.49,5.55-2.09,7.94-2.18,3.26-5.32,5.15-9.1,5.9-6.23,1.23-12.36-1.67-15.33-7.23-3.65-6.83-1.16-14.6,4.08-18.43,1.93-1.41,4.13-2.09,6.48-2.34,2.19-.23,4.37-.06,6.53,.33,.28,.05,.47,0,.66-.19,2.18-2.23,4.37-4.46,6.56-6.69,1.25-1.27,2.49-2.54,3.75-3.8,.32-.31,.44-.58,.33-1.07-1.57-7.25,2.09-12.79,6.9-15.43,3.34-1.83,6.87-1.92,10.46-.82,2.3,.7,4.35,1.85,6.03,3.6,.9,.93,1.6,1.99,1.99,3.23,.07,.21,.11,.43,.18,.75Zm-48.2,33.35c.06,.25,.1,.4,.14,.55,.46,1.69,.93,3.37,1.36,5.07,.13,.5,.34,.75,.86,.88,1.68,.4,3.35,.83,5.01,1.32,.55,.16,.89,.01,1.26-.34,1.46-1.41,2.93-2.8,4.41-4.18,.24-.23,.26-.41,.18-.71-.53-1.9-1.05-3.81-1.55-5.73-.09-.33-.26-.48-.59-.57-1.94-.5-3.87-1.02-5.8-1.55-.29-.08-.46-.02-.65,.18-1.46,1.57-2.93,3.12-4.39,4.69-.11,.12-.18,.29-.24,.38Z"/><path class="cls-1" d="M96,83.04c.06-.09,.13-.26,.24-.38,1.46-1.56,2.93-3.12,4.39-4.69,.19-.21,.36-.26,.65-.18,1.93,.53,3.86,1.05,5.8,1.55,.32,.08,.5,.24,.59,.57,.51,1.91,1.02,3.82,1.55,5.73,.08,.3,.06,.48-.18,.71-1.48,1.38-2.95,2.77-4.41,4.18-.37,.36-.71,.51-1.26,.34-1.66-.49-3.33-.92-5.01-1.32-.52-.13-.74-.38-.86-.88-.43-1.7-.9-3.38-1.36-5.07-.04-.15-.08-.31-.14-.55Z"/></g><g><path class="cls-2" d="M182.01,3.69c.09,43.74,.17,87.49,.26,131.23-.19,1.03-.61,1.93-1.4,2.64-.95,.87-2.09,1.1-3.34,1.1-28.65,.05-57.3,.11-85.95,.16-.23,0-.46,0-.68-.01-2.42-.14-4.09-1.9-4.1-4.31-.09-43.35-.17-86.7-.25-130.05,0-.29,0-.6,.07-.88,.43-1.88,1.62-2.98,3.48-3.4,29.5-.06,59-.12,88.5-.17,1.88,.55,3.07,1.73,3.43,3.69Zm-89.69,2.23c.08,42.42,.17,84.76,.25,127.1,28-.05,55.96-.11,83.91-.16-.08-42.39-.17-84.73-.25-127.1-27.99,.05-55.92,.11-83.91,.16Z"/><path class="cls-3" d="M92.32,5.92c27.99-.05,55.93-.11,83.91-.16,.08,42.37,.17,84.71,.25,127.1-27.96,.05-55.91,.11-83.91,.16-.08-42.35-.17-84.69-.25-127.1Zm32.9,49.45c0,.91,.07,1.83-.01,2.73-.09,1.07-.69,1.84-1.77,2.09-.57,.13-1.17,.16-1.76,.14-1.96-.06-3.92-.03-5.86,.34-5.06,.94-9.4,3.26-12.89,7.05-5.05,5.48-7.06,11.98-6.06,19.34,.79,5.85,3.49,10.76,8.03,14.55,5.77,4.81,12.45,6.5,19.8,5.18,5.54-.99,10.1-3.82,13.64-8.19,4.05-4.99,5.77-10.72,5.13-17.13-.09-.87,.17-1.61,.78-2.24,.75-.78,1.68-.82,2.66-.71,1.69,.18,3.36,.09,5.04-.14,5.53-.78,10.25-3.19,13.98-7.32,5.37-5.95,7.22-12.94,5.63-20.79-2.51-12.42-14.75-20.59-27.26-18.25-12.09,2.26-19.5,12.99-19.1,23.37Z"/><path class="cls-1" d="M125.22,55.36c-.4-10.38,7.01-21.11,19.1-23.37,12.51-2.34,24.75,5.83,27.26,18.25,1.59,7.85-.26,14.84-5.63,20.79-3.74,4.14-8.45,6.55-13.98,7.32-1.68,.24-3.35,.32-5.04,.14-.98-.1-1.91-.06-2.66,.71-.61,.63-.86,1.37-.78,2.24,.65,6.42-1.08,12.14-5.13,17.13-3.55,4.37-8.1,7.2-13.64,8.19-7.36,1.31-14.03-.38-19.8-5.18-4.55-3.79-7.24-8.7-8.03-14.55-1-7.35,1.01-13.86,6.06-19.34,3.49-3.79,7.83-6.11,12.89-7.05,1.93-.36,3.89-.39,5.86-.34,.59,.02,1.19,0,1.76-.14,1.07-.25,1.67-1.02,1.77-2.09,.08-.9,.01-1.82,.01-2.73Zm36.29-5.68c-.08-.32-.12-.54-.18-.75-.39-1.24-1.09-2.29-1.99-3.23-1.68-1.75-3.73-2.9-6.03-3.6-3.59-1.09-7.12-1.01-10.46,.82-4.81,2.64-8.46,8.18-6.9,15.43,.1,.48-.02,.75-.33,1.07-1.26,1.25-2.5,2.53-3.75,3.8-2.19,2.23-4.38,4.45-6.56,6.69-.2,.2-.38,.25-.66,.19-2.16-.39-4.33-.56-6.53-.33-2.35,.25-4.55,.93-6.48,2.34-5.24,3.83-7.73,11.6-4.08,18.43,2.97,5.56,9.1,8.47,15.33,7.23,3.78-.75,6.92-2.64,9.1-5.9,1.6-2.39,2.13-5.12,2.09-7.94-.03-1.81-.29-3.63-.52-5.43-.05-.44,.01-.7,.32-1.01,3.15-3.14,6.28-6.3,9.42-9.44,.13-.13,.26-.24,.39-.35,9.4,3.38,16.11-2.07,18.13-7.33-3.54,0-7.06,.01-10.57,.02,0-3.6-.01-7.12-.02-10.68l10.28-.02Z"/><path class="cls-3" d="M161.5,49.69l-10.28,.02c0,3.57,.01,7.09,.02,10.68,3.51,0,7.03-.01,10.57-.02-2.02,5.26-8.72,10.71-18.13,7.33-.12,.11-.26,.22-.39,.35-3.14,3.15-6.27,6.3-9.42,9.44-.31,.31-.37,.57-.32,1.01,.22,1.81,.49,3.62,.52,5.43,.04,2.82-.49,5.55-2.09,7.94-2.18,3.26-5.32,5.15-9.1,5.9-6.23,1.23-12.36-1.67-15.33-7.23-3.65-6.83-1.16-14.6,4.08-18.43,1.93-1.41,4.13-2.09,6.48-2.34,2.19-.23,4.37-.06,6.53,.33,.28,.05,.47,0,.66-.19,2.18-2.23,4.37-4.46,6.56-6.69,1.25-1.27,2.49-2.54,3.75-3.8,.32-.31,.44-.58,.33-1.07-1.57-7.25,2.09-12.79,6.9-15.43,3.34-1.83,6.87-1.92,10.46-.82,2.3,.7,4.35,1.85,6.03,3.6,.9,.93,1.6,1.99,1.99,3.23,.07,.21,.11,.43,.18,.75Zm-48.2,33.35c.06,.25,.1,.4,.14,.55,.46,1.69,.93,3.37,1.36,5.07,.13,.5,.34,.75,.86,.88,1.68,.4,3.35,.83,5.01,1.32,.55,.16,.89,.01,1.26-.34,1.46-1.41,2.93-2.8,4.41-4.18,.24-.23,.26-.41,.18-.71-.53-1.9-1.05-3.81-1.55-5.73-.09-.33-.26-.48-.59-.57-1.94-.5-3.87-1.02-5.8-1.55-.29-.08-.46-.02-.65,.18-1.46,1.57-2.93,3.12-4.39,4.69-.11,.12-.18,.29-.24,.38Z"/><path class="cls-1" d="M113.3,83.04c.06-.09,.13-.26,.24-.38,1.46-1.56,2.93-3.12,4.39-4.69,.19-.21,.36-.26,.65-.18,1.93,.53,3.86,1.05,5.8,1.55,.32,.08,.5,.24,.59,.57,.51,1.91,1.02,3.82,1.55,5.73,.08,.3,.06,.48-.18,.71-1.48,1.38-2.95,2.77-4.41,4.18-.37,.36-.71,.51-1.26,.34-1.66-.49-3.33-.92-5.01-1.32-.52-.13-.74-.38-.86-.88-.43-1.7-.9-3.38-1.36-5.07-.04-.15-.08-.31-.14-.55Z"/></g><g><path class="cls-2" d="M199.31,3.69c.09,43.74,.17,87.49,.26,131.23-.19,1.03-.61,1.93-1.4,2.64-.95,.87-2.09,1.1-3.34,1.1-28.65,.05-57.3,.11-85.95,.16-.23,0-.46,0-.68-.01-2.42-.14-4.09-1.9-4.1-4.31-.09-43.35-.17-86.7-.25-130.05,0-.29,0-.6,.07-.88,.43-1.88,1.62-2.98,3.48-3.4,29.5-.06,59-.12,88.5-.17,1.88,.55,3.07,1.73,3.43,3.69Zm-89.69,2.23c.08,42.42,.17,84.76,.25,127.1,28-.05,55.96-.11,83.91-.16-.08-42.39-.17-84.73-.25-127.1-27.99,.05-55.92,.11-83.91,.16Z"/><path class="cls-3" d="M109.62,5.92c27.99-.05,55.93-.11,83.91-.16,.08,42.37,.17,84.71,.25,127.1-27.96,.05-55.91,.11-83.91,.16-.08-42.35-.17-84.69-.25-127.1Zm32.9,49.45c0,.91,.07,1.83-.01,2.73-.09,1.07-.69,1.84-1.77,2.09-.57,.13-1.17,.16-1.76,.14-1.96-.06-3.92-.03-5.86,.34-5.06,.94-9.4,3.26-12.89,7.05-5.05,5.48-7.06,11.98-6.06,19.34,.79,5.85,3.49,10.76,8.03,14.55,5.77,4.81,12.45,6.5,19.8,5.18,5.54-.99,10.1-3.82,13.64-8.19,4.05-4.99,5.77-10.72,5.13-17.13-.09-.87,.17-1.61,.78-2.24,.75-.78,1.68-.82,2.66-.71,1.69,.18,3.36,.09,5.04-.14,5.53-.78,10.25-3.19,13.98-7.32,5.37-5.95,7.22-12.94,5.63-20.79-2.51-12.42-14.75-20.59-27.26-18.25-12.09,2.26-19.5,12.99-19.1,23.37Z"/><path class="cls-1" d="M142.52,55.36c-.4-10.38,7.01-21.11,19.1-23.37,12.51-2.34,24.75,5.83,27.26,18.25,1.59,7.85-.26,14.84-5.63,20.79-3.74,4.14-8.45,6.55-13.98,7.32-1.68,.24-3.35,.32-5.04,.14-.98-.1-1.91-.06-2.66,.71-.61,.63-.86,1.37-.78,2.24,.65,6.42-1.08,12.14-5.13,17.13-3.55,4.37-8.1,7.2-13.64,8.19-7.36,1.31-14.03-.38-19.8-5.18-4.55-3.79-7.24-8.7-8.03-14.55-1-7.35,1.01-13.86,6.06-19.34,3.49-3.79,7.83-6.11,12.89-7.05,1.93-.36,3.89-.39,5.86-.34,.59,.02,1.19,0,1.76-.14,1.07-.25,1.67-1.02,1.77-2.09,.08-.9,.01-1.82,.01-2.73Zm36.29-5.68c-.08-.32-.12-.54-.18-.75-.39-1.24-1.09-2.29-1.99-3.23-1.68-1.75-3.73-2.9-6.03-3.6-3.59-1.09-7.12-1.01-10.46,.82-4.81,2.64-8.46,8.18-6.9,15.43,.1,.48-.02,.75-.33,1.07-1.26,1.25-2.5,2.53-3.75,3.8-2.19,2.23-4.38,4.45-6.56,6.69-.2,.2-.38,.25-.66,.19-2.16-.39-4.33-.56-6.53-.33-2.35,.25-4.55,.93-6.48,2.34-5.24,3.83-7.73,11.6-4.08,18.43,2.97,5.56,9.1,8.47,15.33,7.23,3.78-.75,6.92-2.64,9.1-5.9,1.6-2.39,2.13-5.12,2.09-7.94-.03-1.81-.29-3.63-.52-5.43-.05-.44,.01-.7,.32-1.01,3.15-3.14,6.28-6.3,9.42-9.44,.13-.13,.26-.24,.39-.35,9.4,3.38,16.11-2.07,18.13-7.33-3.54,0-7.06,.01-10.57,.02,0-3.6-.01-7.12-.02-10.68l10.28-.02Z"/><path class="cls-3" d="M178.81,49.69l-10.28,.02c0,3.57,.01,7.09,.02,10.68,3.51,0,7.03-.01,10.57-.02-2.02,5.26-8.72,10.71-18.13,7.33-.12,.11-.26,.22-.39,.35-3.14,3.15-6.27,6.3-9.42,9.44-.31,.31-.37,.57-.32,1.01,.22,1.81,.49,3.62,.52,5.43,.04,2.82-.49,5.55-2.09,7.94-2.18,3.26-5.32,5.15-9.1,5.9-6.23,1.23-12.36-1.67-15.33-7.23-3.65-6.83-1.16-14.6,4.08-18.43,1.93-1.41,4.13-2.09,6.48-2.34,2.19-.23,4.37-.06,6.53,.33,.28,.05,.47,0,.66-.19,2.18-2.23,4.37-4.46,6.56-6.69,1.25-1.27,2.49-2.54,3.75-3.8,.32-.31,.44-.58,.33-1.07-1.57-7.25,2.09-12.79,6.9-15.43,3.34-1.83,6.87-1.92,10.46-.82,2.3,.7,4.35,1.85,6.03,3.6,.9,.93,1.6,1.99,1.99,3.23,.07,.21,.11,.43,.18,.75Zm-48.2,33.35c.06,.25,.1,.4,.14,.55,.46,1.69,.93,3.37,1.36,5.07,.13,.5,.34,.75,.86,.88,1.68,.4,3.35,.83,5.01,1.32,.55,.16,.89,.01,1.26-.34,1.46-1.41,2.93-2.8,4.41-4.18,.24-.23,.26-.41,.18-.71-.53-1.9-1.05-3.81-1.55-5.73-.09-.33-.26-.48-.59-.57-1.94-.5-3.87-1.02-5.8-1.55-.29-.08-.46-.02-.65,.18-1.46,1.57-2.93,3.12-4.39,4.69-.11,.12-.18,.29-.24,.38Z"/><path class="cls-1" d="M130.61,83.04c.06-.09,.13-.26,.24-.38,1.46-1.56,2.93-3.12,4.39-4.69,.19-.21,.36-.26,.65-.18,1.93,.53,3.86,1.05,5.8,1.55,.32,.08,.5,.24,.59,.57,.51,1.91,1.02,3.82,1.55,5.73,.08,.3,.06,.48-.18,.71-1.48,1.38-2.95,2.77-4.41,4.18-.37,.36-.71,.51-1.26,.34-1.66-.49-3.33-.92-5.01-1.32-.52-.13-.74-.38-.86-.88-.43-1.7-.9-3.38-1.36-5.07-.04-.15-.08-.31-.14-.55Z"/></g><g><path class="cls-2" d="M216.62,3.69c.09,43.74,.17,87.49,.26,131.23-.19,1.03-.61,1.93-1.4,2.64-.95,.87-2.09,1.1-3.34,1.1-28.65,.05-57.3,.11-85.95,.16-.23,0-.46,0-.68-.01-2.42-.14-4.09-1.9-4.1-4.31-.09-43.35-.17-86.7-.25-130.05,0-.29,0-.6,.07-.88,.43-1.88,1.62-2.98,3.48-3.4,29.5-.06,59-.12,88.5-.17,1.88,.55,3.07,1.73,3.43,3.69Zm-89.69,2.23c.08,42.42,.17,84.76,.25,127.1,28-.05,55.96-.11,83.91-.16-.08-42.39-.17-84.73-.25-127.1-27.99,.05-55.92,.11-83.91,.16Z"/><path class="cls-3" d="M126.93,5.92c27.99-.05,55.93-.11,83.91-.16,.08,42.37,.17,84.71,.25,127.1-27.96,.05-55.91,.11-83.91,.16-.08-42.35-.17-84.69-.25-127.1Zm32.9,49.45c0,.91,.07,1.83-.01,2.73-.09,1.07-.69,1.84-1.77,2.09-.57,.13-1.17,.16-1.76,.14-1.96-.06-3.92-.03-5.86,.34-5.06,.94-9.4,3.26-12.89,7.05-5.05,5.48-7.06,11.98-6.06,19.34,.79,5.85,3.49,10.76,8.03,14.55,5.77,4.81,12.45,6.5,19.8,5.18,5.54-.99,10.1-3.82,13.64-8.19,4.05-4.99,5.77-10.72,5.13-17.13-.09-.87,.17-1.61,.78-2.24,.75-.78,1.68-.82,2.66-.71,1.69,.18,3.36,.09,5.04-.14,5.53-.78,10.25-3.19,13.98-7.32,5.37-5.95,7.22-12.94,5.63-20.79-2.51-12.42-14.75-20.59-27.26-18.25-12.09,2.26-19.5,12.99-19.1,23.37Z"/><path class="cls-1" d="M159.83,55.36c-.4-10.38,7.01-21.11,19.1-23.37,12.51-2.34,24.75,5.83,27.26,18.25,1.59,7.85-.26,14.84-5.63,20.79-3.74,4.14-8.45,6.55-13.98,7.32-1.68,.24-3.35,.32-5.04,.14-.98-.1-1.91-.06-2.66,.71-.61,.63-.86,1.37-.78,2.24,.65,6.42-1.08,12.14-5.13,17.13-3.55,4.37-8.1,7.2-13.64,8.19-7.36,1.31-14.03-.38-19.8-5.18-4.55-3.79-7.24-8.7-8.03-14.55-1-7.35,1.01-13.86,6.06-19.34,3.49-3.79,7.83-6.11,12.89-7.05,1.93-.36,3.89-.39,5.86-.34,.59,.02,1.19,0,1.76-.14,1.07-.25,1.67-1.02,1.77-2.09,.08-.9,.01-1.82,.01-2.73Zm36.29-5.68c-.08-.32-.12-.54-.18-.75-.39-1.24-1.09-2.29-1.99-3.23-1.68-1.75-3.73-2.9-6.03-3.6-3.59-1.09-7.12-1.01-10.46,.82-4.81,2.64-8.46,8.18-6.9,15.43,.1,.48-.02,.75-.33,1.07-1.26,1.25-2.5,2.53-3.75,3.8-2.19,2.23-4.38,4.45-6.56,6.69-.2,.2-.38,.25-.66,.19-2.16-.39-4.33-.56-6.53-.33-2.35,.25-4.55,.93-6.48,2.34-5.24,3.83-7.73,11.6-4.08,18.43,2.97,5.56,9.1,8.47,15.33,7.23,3.78-.75,6.92-2.64,9.1-5.9,1.6-2.39,2.13-5.12,2.09-7.94-.03-1.81-.29-3.63-.52-5.43-.05-.44,.01-.7,.32-1.01,3.15-3.14,6.28-6.3,9.42-9.44,.13-.13,.26-.24,.39-.35,9.4,3.38,16.11-2.07,18.13-7.33-3.54,0-7.06,.01-10.57,.02,0-3.6-.01-7.12-.02-10.68l10.28-.02Z"/><path class="cls-3" d="M196.12,49.69l-10.28,.02c0,3.57,.01,7.09,.02,10.68,3.51,0,7.03-.01,10.57-.02-2.02,5.26-8.72,10.71-18.13,7.33-.12,.11-.26,.22-.39,.35-3.14,3.15-6.27,6.3-9.42,9.44-.31,.31-.37,.57-.32,1.01,.22,1.81,.49,3.62,.52,5.43,.04,2.82-.49,5.55-2.09,7.94-2.18,3.26-5.32,5.15-9.1,5.9-6.23,1.23-12.36-1.67-15.33-7.23-3.65-6.83-1.16-14.6,4.08-18.43,1.93-1.41,4.13-2.09,6.48-2.34,2.19-.23,4.37-.06,6.53,.33,.28,.05,.47,0,.66-.19,2.18-2.23,4.37-4.46,6.56-6.69,1.25-1.27,2.49-2.54,3.75-3.8,.32-.31,.44-.58,.33-1.07-1.57-7.25,2.09-12.79,6.9-15.43,3.34-1.83,6.87-1.92,10.46-.82,2.3,.7,4.35,1.85,6.03,3.6,.9,.93,1.6,1.99,1.99,3.23,.07,.21,.11,.43,.18,.75Zm-48.2,33.35c.06,.25,.1,.4,.14,.55,.46,1.69,.93,3.37,1.36,5.07,.13,.5,.34,.75,.86,.88,1.68,.4,3.35,.83,5.01,1.32,.55,.16,.89,.01,1.26-.34,1.46-1.41,2.93-2.8,4.41-4.18,.24-.23,.26-.41,.18-.71-.53-1.9-1.05-3.81-1.55-5.73-.09-.33-.26-.48-.59-.57-1.94-.5-3.87-1.02-5.8-1.55-.29-.08-.46-.02-.65,.18-1.46,1.57-2.93,3.12-4.39,4.69-.11,.12-.18,.29-.24,.38Z"/><path class="cls-1" d="M147.92,83.04c.06-.09,.13-.26,.24-.38,1.46-1.56,2.93-3.12,4.39-4.69,.19-.21,.36-.26,.65-.18,1.93,.53,3.86,1.05,5.8,1.55,.32,.08,.5,.24,.59,.57,.51,1.91,1.02,3.82,1.55,5.73,.08,.3,.06,.48-.18,.71-1.48,1.38-2.95,2.77-4.41,4.18-.37,.36-.71,.51-1.26,.34-1.66-.49-3.33-.92-5.01-1.32-.52-.13-.74-.38-.86-.88-.43-1.7-.9-3.38-1.36-5.07-.04-.15-.08-.31-.14-.55Z"/></g><g><path class="cls-2" d="M233.93,3.69c.09,43.74,.17,87.49,.26,131.23-.19,1.03-.61,1.93-1.4,2.64-.95,.87-2.09,1.1-3.34,1.1-28.65,.05-57.3,.11-85.95,.16-.23,0-.46,0-.68-.01-2.42-.14-4.09-1.9-4.1-4.31-.09-43.35-.17-86.7-.25-130.05,0-.29,0-.6,.07-.88,.43-1.88,1.62-2.98,3.48-3.4,29.5-.06,59-.12,88.5-.17,1.88,.55,3.07,1.73,3.43,3.69Zm-89.69,2.23c.08,42.42,.17,84.76,.25,127.1,28-.05,55.96-.11,83.91-.16-.08-42.39-.17-84.73-.25-127.1-27.99,.05-55.92,.11-83.91,.16Z"/><path class="cls-3" d="M144.24,5.92c27.99-.05,55.93-.11,83.91-.16,.08,42.37,.17,84.71,.25,127.1-27.96,.05-55.91,.11-83.91,.16-.08-42.35-.17-84.69-.25-127.1Zm32.9,49.45c0,.91,.07,1.83-.01,2.73-.09,1.07-.69,1.84-1.77,2.09-.57,.13-1.17,.16-1.76,.14-1.96-.06-3.92-.03-5.86,.34-5.06,.94-9.4,3.26-12.89,7.05-5.05,5.48-7.06,11.98-6.06,19.34,.79,5.85,3.49,10.76,8.03,14.55,5.77,4.81,12.45,6.5,19.8,5.18,5.54-.99,10.1-3.82,13.64-8.19,4.05-4.99,5.77-10.72,5.13-17.13-.09-.87,.17-1.61,.78-2.24,.75-.78,1.68-.82,2.66-.71,1.69,.18,3.36,.09,5.04-.14,5.53-.78,10.25-3.19,13.98-7.32,5.37-5.95,7.22-12.94,5.63-20.79-2.51-12.42-14.75-20.59-27.26-18.25-12.09,2.26-19.5,12.99-19.1,23.37Z"/><path class="cls-1" d="M177.14,55.36c-.4-10.38,7.01-21.11,19.1-23.37,12.51-2.34,24.75,5.83,27.26,18.25,1.59,7.85-.26,14.84-5.63,20.79-3.74,4.14-8.45,6.55-13.98,7.32-1.68,.24-3.35,.32-5.04,.14-.98-.1-1.91-.06-2.66,.71-.61,.63-.86,1.37-.78,2.24,.65,6.42-1.08,12.14-5.13,17.13-3.55,4.37-8.1,7.2-13.64,8.19-7.36,1.31-14.03-.38-19.8-5.18-4.55-3.79-7.24-8.7-8.03-14.55-1-7.35,1.01-13.86,6.06-19.34,3.49-3.79,7.83-6.11,12.89-7.05,1.93-.36,3.89-.39,5.86-.34,.59,.02,1.19,0,1.76-.14,1.07-.25,1.67-1.02,1.77-2.09,.08-.9,.01-1.82,.01-2.73Zm36.29-5.68c-.08-.32-.12-.54-.18-.75-.39-1.24-1.09-2.29-1.99-3.23-1.68-1.75-3.73-2.9-6.03-3.6-3.59-1.09-7.12-1.01-10.46,.82-4.81,2.64-8.46,8.18-6.9,15.43,.1,.48-.02,.75-.33,1.07-1.26,1.25-2.5,2.53-3.75,3.8-2.19,2.23-4.38,4.45-6.56,6.69-.2,.2-.38,.25-.66,.19-2.16-.39-4.33-.56-6.53-.33-2.35,.25-4.55,.93-6.48,2.34-5.24,3.83-7.73,11.6-4.08,18.43,2.97,5.56,9.1,8.47,15.33,7.23,3.78-.75,6.92-2.64,9.1-5.9,1.6-2.39,2.13-5.12,2.09-7.94-.03-1.81-.29-3.63-.52-5.43-.05-.44,.01-.7,.32-1.01,3.15-3.14,6.28-6.3,9.42-9.44,.13-.13,.26-.24,.39-.35,9.4,3.38,16.11-2.07,18.13-7.33-3.54,0-7.06,.01-10.57,.02,0-3.6-.01-7.12-.02-10.68l10.28-.02Z"/><path class="cls-3" d="M213.42,49.69l-10.28,.02c0,3.57,.01,7.09,.02,10.68,3.51,0,7.03-.01,10.57-.02-2.02,5.26-8.72,10.71-18.13,7.33-.12,.11-.26,.22-.39,.35-3.14,3.15-6.27,6.3-9.42,9.44-.31,.31-.37,.57-.32,1.01,.22,1.81,.49,3.62,.52,5.43,.04,2.82-.49,5.55-2.09,7.94-2.18,3.26-5.32,5.15-9.1,5.9-6.23,1.23-12.36-1.67-15.33-7.23-3.65-6.83-1.16-14.6,4.08-18.43,1.93-1.41,4.13-2.09,6.48-2.34,2.19-.23,4.37-.06,6.53,.33,.28,.05,.47,0,.66-.19,2.18-2.23,4.37-4.46,6.56-6.69,1.25-1.27,2.49-2.54,3.75-3.8,.32-.31,.44-.58,.33-1.07-1.57-7.25,2.09-12.79,6.9-15.43,3.34-1.83,6.87-1.92,10.46-.82,2.3,.7,4.35,1.85,6.03,3.6,.9,.93,1.6,1.99,1.99,3.23,.07,.21,.11,.43,.18,.75Zm-48.2,33.35c.06,.25,.1,.4,.14,.55,.46,1.69,.93,3.37,1.36,5.07,.13,.5,.34,.75,.86,.88,1.68,.4,3.35,.83,5.01,1.32,.55,.16,.89,.01,1.26-.34,1.46-1.41,2.93-2.8,4.41-4.18,.24-.23,.26-.41,.18-.71-.53-1.9-1.05-3.81-1.55-5.73-.09-.33-.26-.48-.59-.57-1.94-.5-3.87-1.02-5.8-1.55-.29-.08-.46-.02-.65,.18-1.46,1.57-2.93,3.12-4.39,4.69-.11,.12-.18,.29-.24,.38Z"/><path class="cls-1" d="M165.22,83.04c.06-.09,.13-.26,.24-.38,1.46-1.56,2.93-3.12,4.39-4.69,.19-.21,.36-.26,.65-.18,1.93,.53,3.86,1.05,5.8,1.55,.32,.08,.5,.24,.59,.57,.51,1.91,1.02,3.82,1.55,5.73,.08,.3,.06,.48-.18,.71-1.48,1.38-2.95,2.77-4.41,4.18-.37,.36-.71,.51-1.26,.34-1.66-.49-3.33-.92-5.01-1.32-.52-.13-.74-.38-.86-.88-.43-1.7-.9-3.38-1.36-5.07-.04-.15-.08-.31-.14-.55Z"/></g><g><path class="cls-2" d="M251.24,3.69c.09,43.74,.17,87.49,.26,131.23-.19,1.03-.61,1.93-1.4,2.64-.95,.87-2.09,1.1-3.34,1.1-28.65,.05-57.3,.11-85.95,.16-.23,0-.46,0-.68-.01-2.42-.14-4.09-1.9-4.1-4.31-.09-43.35-.17-86.7-.25-130.05,0-.29,0-.6,.07-.88,.43-1.88,1.62-2.98,3.48-3.4,29.5-.06,59-.12,88.5-.17,1.88,.55,3.07,1.73,3.43,3.69Zm-89.69,2.23c.08,42.42,.17,84.76,.25,127.1,28-.05,55.96-.11,83.91-.16-.08-42.39-.17-84.73-.25-127.1-27.99,.05-55.92,.11-83.91,.16Z"/><path class="cls-3" d="M161.54,5.92c27.99-.05,55.93-.11,83.91-.16,.08,42.37,.17,84.71,.25,127.1-27.96,.05-55.91,.11-83.91,.16-.08-42.35-.17-84.69-.25-127.1Zm32.9,49.45c0,.91,.07,1.83-.01,2.73-.09,1.07-.69,1.84-1.77,2.09-.57,.13-1.17,.16-1.76,.14-1.96-.06-3.92-.03-5.86,.34-5.06,.94-9.4,3.26-12.89,7.05-5.05,5.48-7.06,11.98-6.06,19.34,.79,5.85,3.49,10.76,8.03,14.55,5.77,4.81,12.45,6.5,19.8,5.18,5.54-.99,10.1-3.82,13.64-8.19,4.05-4.99,5.77-10.72,5.13-17.13-.09-.87,.17-1.61,.78-2.24,.75-.78,1.68-.82,2.66-.71,1.69,.18,3.36,.09,5.04-.14,5.53-.78,10.25-3.19,13.98-7.32,5.37-5.95,7.22-12.94,5.63-20.79-2.51-12.42-14.75-20.59-27.26-18.25-12.09,2.26-19.5,12.99-19.1,23.37Z"/><path class="cls-1" d="M194.44,55.36c-.4-10.38,7.01-21.11,19.1-23.37,12.51-2.34,24.75,5.83,27.26,18.25,1.59,7.85-.26,14.84-5.63,20.79-3.74,4.14-8.45,6.55-13.98,7.32-1.68,.24-3.35,.32-5.04,.14-.98-.1-1.91-.06-2.66,.71-.61,.63-.86,1.37-.78,2.24,.65,6.42-1.08,12.14-5.13,17.13-3.55,4.37-8.1,7.2-13.64,8.19-7.36,1.31-14.03-.38-19.8-5.18-4.55-3.79-7.24-8.7-8.03-14.55-1-7.35,1.01-13.86,6.06-19.34,3.49-3.79,7.83-6.11,12.89-7.05,1.93-.36,3.89-.39,5.86-.34,.59,.02,1.19,0,1.76-.14,1.07-.25,1.67-1.02,1.77-2.09,.08-.9,.01-1.82,.01-2.73Zm36.29-5.68c-.08-.32-.12-.54-.18-.75-.39-1.24-1.09-2.29-1.99-3.23-1.68-1.75-3.73-2.9-6.03-3.6-3.59-1.09-7.12-1.01-10.46,.82-4.81,2.64-8.46,8.18-6.9,15.43,.1,.48-.02,.75-.33,1.07-1.26,1.25-2.5,2.53-3.75,3.8-2.19,2.23-4.38,4.45-6.56,6.69-.2,.2-.38,.25-.66,.19-2.16-.39-4.33-.56-6.53-.33-2.35,.25-4.55,.93-6.48,2.34-5.24,3.83-7.73,11.6-4.08,18.43,2.97,5.56,9.1,8.47,15.33,7.23,3.78-.75,6.92-2.64,9.1-5.9,1.6-2.39,2.13-5.12,2.09-7.94-.03-1.81-.29-3.63-.52-5.43-.05-.44,.01-.7,.32-1.01,3.15-3.14,6.28-6.3,9.42-9.44,.13-.13,.26-.24,.39-.35,9.4,3.38,16.11-2.07,18.13-7.33-3.54,0-7.06,.01-10.57,.02,0-3.6-.01-7.12-.02-10.68l10.28-.02Z"/><path class="cls-3" d="M230.73,49.69l-10.28,.02c0,3.57,.01,7.09,.02,10.68,3.51,0,7.03-.01,10.57-.02-2.02,5.26-8.72,10.71-18.13,7.33-.12,.11-.26,.22-.39,.35-3.14,3.15-6.27,6.3-9.42,9.44-.31,.31-.37,.57-.32,1.01,.22,1.81,.49,3.62,.52,5.43,.04,2.82-.49,5.55-2.09,7.94-2.18,3.26-5.32,5.15-9.1,5.9-6.23,1.23-12.36-1.67-15.33-7.23-3.65-6.83-1.16-14.6,4.08-18.43,1.93-1.41,4.13-2.09,6.48-2.34,2.19-.23,4.37-.06,6.53,.33,.28,.05,.47,0,.66-.19,2.18-2.23,4.37-4.46,6.56-6.69,1.25-1.27,2.49-2.54,3.75-3.8,.32-.31,.44-.58,.33-1.07-1.57-7.25,2.09-12.79,6.9-15.43,3.34-1.83,6.87-1.92,10.46-.82,2.3,.7,4.35,1.85,6.03,3.6,.9,.93,1.6,1.99,1.99,3.23,.07,.21,.11,.43,.18,.75Zm-48.2,33.35c.06,.25,.1,.4,.14,.55,.46,1.69,.93,3.37,1.36,5.07,.13,.5,.34,.75,.86,.88,1.68,.4,3.35,.83,5.01,1.32,.55,.16,.89,.01,1.26-.34,1.46-1.41,2.93-2.8,4.41-4.18,.24-.23,.26-.41,.18-.71-.53-1.9-1.05-3.81-1.55-5.73-.09-.33-.26-.48-.59-.57-1.94-.5-3.87-1.02-5.8-1.55-.29-.08-.46-.02-.65,.18-1.46,1.57-2.93,3.12-4.39,4.69-.11,.12-.18,.29-.24,.38Z"/><path class="cls-1" d="M182.53,83.04c.06-.09,.13-.26,.24-.38,1.46-1.56,2.93-3.12,4.39-4.69,.19-.21,.36-.26,.65-.18,1.93,.53,3.86,1.05,5.8,1.55,.32,.08,.5,.24,.59,.57,.51,1.91,1.02,3.82,1.55,5.73,.08,.3,.06,.48-.18,.71-1.48,1.38-2.95,2.77-4.41,4.18-.37,.36-.71,.51-1.26,.34-1.66-.49-3.33-.92-5.01-1.32-.52-.13-.74-.38-.86-.88-.43-1.7-.9-3.38-1.36-5.07-.04-.15-.08-.31-.14-.55Z"/></g><g><path class="cls-2" d="M268.54,3.69c.09,43.74,.17,87.49,.26,131.23-.19,1.03-.61,1.93-1.4,2.64-.95,.87-2.09,1.1-3.34,1.1-28.65,.05-57.3,.11-85.95,.16-.23,0-.46,0-.68-.01-2.42-.14-4.09-1.9-4.1-4.31-.09-43.35-.17-86.7-.25-130.05,0-.29,0-.6,.07-.88,.43-1.88,1.62-2.98,3.48-3.4,29.5-.06,59-.12,88.5-.17,1.88,.55,3.07,1.73,3.43,3.69Zm-89.69,2.23c.08,42.42,.17,84.76,.25,127.1,28-.05,55.96-.11,83.91-.16-.08-42.39-.17-84.73-.25-127.1-27.99,.05-55.92,.11-83.91,.16Z"/><path class="cls-3" d="M178.85,5.92c27.99-.05,55.93-.11,83.91-.16,.08,42.37,.17,84.71,.25,127.1-27.96,.05-55.91,.11-83.91,.16-.08-42.35-.17-84.69-.25-127.1Zm32.9,49.45c0,.91,.07,1.83-.01,2.73-.09,1.07-.69,1.84-1.77,2.09-.57,.13-1.17,.16-1.76,.14-1.96-.06-3.92-.03-5.86,.34-5.06,.94-9.4,3.26-12.89,7.05-5.05,5.48-7.06,11.98-6.06,19.34,.79,5.85,3.49,10.76,8.03,14.55,5.77,4.81,12.45,6.5,19.8,5.18,5.54-.99,10.1-3.82,13.64-8.19,4.05-4.99,5.77-10.72,5.13-17.13-.09-.87,.17-1.61,.78-2.24,.75-.78,1.68-.82,2.66-.71,1.69,.18,3.36,.09,5.04-.14,5.53-.78,10.25-3.19,13.98-7.32,5.37-5.95,7.22-12.94,5.63-20.79-2.51-12.42-14.75-20.59-27.26-18.25-12.09,2.26-19.5,12.99-19.1,23.37Z"/><path class="cls-1" d="M211.75,55.36c-.4-10.38,7.01-21.11,19.1-23.37,12.51-2.34,24.75,5.83,27.26,18.25,1.59,7.85-.26,14.84-5.63,20.79-3.74,4.14-8.45,6.55-13.98,7.32-1.68,.24-3.35,.32-5.04,.14-.98-.1-1.91-.06-2.66,.71-.61,.63-.86,1.37-.78,2.24,.65,6.42-1.08,12.14-5.13,17.13-3.55,4.37-8.1,7.2-13.64,8.19-7.36,1.31-14.03-.38-19.8-5.18-4.55-3.79-7.24-8.7-8.03-14.55-1-7.35,1.01-13.86,6.06-19.34,3.49-3.79,7.83-6.11,12.89-7.05,1.93-.36,3.89-.39,5.86-.34,.59,.02,1.19,0,1.76-.14,1.07-.25,1.67-1.02,1.77-2.09,.08-.9,.01-1.82,.01-2.73Zm36.29-5.68c-.08-.32-.12-.54-.18-.75-.39-1.24-1.09-2.29-1.99-3.23-1.68-1.75-3.73-2.9-6.03-3.6-3.59-1.09-7.12-1.01-10.46,.82-4.81,2.64-8.46,8.18-6.9,15.43,.1,.48-.02,.75-.33,1.07-1.26,1.25-2.5,2.53-3.75,3.8-2.19,2.23-4.38,4.45-6.56,6.69-.2,.2-.38,.25-.66,.19-2.16-.39-4.33-.56-6.53-.33-2.35,.25-4.55,.93-6.48,2.34-5.24,3.83-7.73,11.6-4.08,18.43,2.97,5.56,9.1,8.47,15.33,7.23,3.78-.75,6.92-2.64,9.1-5.9,1.6-2.39,2.13-5.12,2.09-7.94-.03-1.81-.29-3.63-.52-5.43-.05-.44,.01-.7,.32-1.01,3.15-3.14,6.28-6.3,9.42-9.44,.13-.13,.26-.24,.39-.35,9.4,3.38,16.11-2.07,18.13-7.33-3.54,0-7.06,.01-10.57,.02,0-3.6-.01-7.12-.02-10.68l10.28-.02Z"/><path class="cls-3" d="M248.04,49.69l-10.28,.02c0,3.57,.01,7.09,.02,10.68,3.51,0,7.03-.01,10.57-.02-2.02,5.26-8.72,10.71-18.13,7.33-.12,.11-.26,.22-.39,.35-3.14,3.15-6.27,6.3-9.42,9.44-.31,.31-.37,.57-.32,1.01,.22,1.81,.49,3.62,.52,5.43,.04,2.82-.49,5.55-2.09,7.94-2.18,3.26-5.32,5.15-9.1,5.9-6.23,1.23-12.36-1.67-15.33-7.23-3.65-6.83-1.16-14.6,4.08-18.43,1.93-1.41,4.13-2.09,6.48-2.34,2.19-.23,4.37-.06,6.53,.33,.28,.05,.47,0,.66-.19,2.18-2.23,4.37-4.46,6.56-6.69,1.25-1.27,2.49-2.54,3.75-3.8,.32-.31,.44-.58,.33-1.07-1.57-7.25,2.09-12.79,6.9-15.43,3.34-1.83,6.87-1.92,10.46-.82,2.3,.7,4.35,1.85,6.03,3.6,.9,.93,1.6,1.99,1.99,3.23,.07,.21,.11,.43,.18,.75Zm-48.2,33.35c.06,.25,.1,.4,.14,.55,.46,1.69,.93,3.37,1.36,5.07,.13,.5,.34,.75,.86,.88,1.68,.4,3.35,.83,5.01,1.32,.55,.16,.89,.01,1.26-.34,1.46-1.41,2.93-2.8,4.41-4.18,.24-.23,.26-.41,.18-.71-.53-1.9-1.05-3.81-1.55-5.73-.09-.33-.26-.48-.59-.57-1.94-.5-3.87-1.02-5.8-1.55-.29-.08-.46-.02-.65,.18-1.46,1.57-2.93,3.12-4.39,4.69-.11,.12-.18,.29-.24,.38Z"/><path class="cls-1" d="M199.84,83.04c.06-.09,.13-.26,.24-.38,1.46-1.56,2.93-3.12,4.39-4.69,.19-.21,.36-.26,.65-.18,1.93,.53,3.86,1.05,5.8,1.55,.32,.08,.5,.24,.59,.57,.51,1.91,1.02,3.82,1.55,5.73,.08,.3,.06,.48-.18,.71-1.48,1.38-2.95,2.77-4.41,4.18-.37,.36-.71,.51-1.26,.34-1.66-.49-3.33-.92-5.01-1.32-.52-.13-.74-.38-.86-.88-.43-1.7-.9-3.38-1.36-5.07-.04-.15-.08-.31-.14-.55Z"/></g><g><path class="cls-2" d="M285.85,3.69c.09,43.74,.17,87.49,.26,131.23-.19,1.03-.61,1.93-1.4,2.64-.95,.87-2.09,1.1-3.34,1.1-28.65,.05-57.3,.11-85.95,.16-.23,0-.46,0-.68-.01-2.42-.14-4.09-1.9-4.1-4.31-.09-43.35-.17-86.7-.25-130.05,0-.29,0-.6,.07-.88,.43-1.88,1.62-2.98,3.48-3.4,29.5-.06,59-.12,88.5-.17,1.88,.55,3.07,1.73,3.43,3.69Zm-89.69,2.23c.08,42.42,.17,84.76,.25,127.1,28-.05,55.96-.11,83.91-.16-.08-42.39-.17-84.73-.25-127.1-27.99,.05-55.92,.11-83.91,.16Z"/><path class="cls-3" d="M196.16,5.92c27.99-.05,55.93-.11,83.91-.16,.08,42.37,.17,84.71,.25,127.1-27.96,.05-55.91,.11-83.91,.16-.08-42.35-.17-84.69-.25-127.1Zm32.9,49.45c0,.91,.07,1.83-.01,2.73-.09,1.07-.69,1.84-1.77,2.09-.57,.13-1.17,.16-1.76,.14-1.96-.06-3.92-.03-5.86,.34-5.06,.94-9.4,3.26-12.89,7.05-5.05,5.48-7.06,11.98-6.06,19.34,.79,5.85,3.49,10.76,8.03,14.55,5.77,4.81,12.45,6.5,19.8,5.18,5.54-.99,10.1-3.82,13.64-8.19,4.05-4.99,5.77-10.72,5.13-17.13-.09-.87,.17-1.61,.78-2.24,.75-.78,1.68-.82,2.66-.71,1.69,.18,3.36,.09,5.04-.14,5.53-.78,10.25-3.19,13.98-7.32,5.37-5.95,7.22-12.94,5.63-20.79-2.51-12.42-14.75-20.59-27.26-18.25-12.09,2.26-19.5,12.99-19.1,23.37Z"/><path class="cls-1" d="M229.06,55.36c-.4-10.38,7.01-21.11,19.1-23.37,12.51-2.34,24.75,5.83,27.26,18.25,1.59,7.85-.26,14.84-5.63,20.79-3.74,4.14-8.45,6.55-13.98,7.32-1.68,.24-3.35,.32-5.04,.14-.98-.1-1.91-.06-2.66,.71-.61,.63-.86,1.37-.78,2.24,.65,6.42-1.08,12.14-5.13,17.13-3.55,4.37-8.1,7.2-13.64,8.19-7.36,1.31-14.03-.38-19.8-5.18-4.55-3.79-7.24-8.7-8.03-14.55-1-7.35,1.01-13.86,6.06-19.34,3.49-3.79,7.83-6.11,12.89-7.05,1.93-.36,3.89-.39,5.86-.34,.59,.02,1.19,0,1.76-.14,1.07-.25,1.67-1.02,1.77-2.09,.08-.9,.01-1.82,.01-2.73Zm36.29-5.68c-.08-.32-.12-.54-.18-.75-.39-1.24-1.09-2.29-1.99-3.23-1.68-1.75-3.73-2.9-6.03-3.6-3.59-1.09-7.12-1.01-10.46,.82-4.81,2.64-8.46,8.18-6.9,15.43,.1,.48-.02,.75-.33,1.07-1.26,1.25-2.5,2.53-3.75,3.8-2.19,2.23-4.38,4.45-6.56,6.69-.2,.2-.38,.25-.66,.19-2.16-.39-4.33-.56-6.53-.33-2.35,.25-4.55,.93-6.48,2.34-5.24,3.83-7.73,11.6-4.08,18.43,2.97,5.56,9.1,8.47,15.33,7.23,3.78-.75,6.92-2.64,9.1-5.9,1.6-2.39,2.13-5.12,2.09-7.94-.03-1.81-.29-3.63-.52-5.43-.05-.44,.01-.7,.32-1.01,3.15-3.14,6.28-6.3,9.42-9.44,.13-.13,.26-.24,.39-.35,9.4,3.38,16.11-2.07,18.13-7.33-3.54,0-7.06,.01-10.57,.02,0-3.6-.01-7.12-.02-10.68l10.28-.02Z"/><path class="cls-3" d="M265.34,49.69l-10.28,.02c0,3.57,.01,7.09,.02,10.68,3.51,0,7.03-.01,10.57-.02-2.02,5.26-8.72,10.71-18.13,7.33-.12,.11-.26,.22-.39,.35-3.14,3.15-6.27,6.3-9.42,9.44-.31,.31-.37,.57-.32,1.01,.22,1.81,.49,3.62,.52,5.43,.04,2.82-.49,5.55-2.09,7.94-2.18,3.26-5.32,5.15-9.1,5.9-6.23,1.23-12.36-1.67-15.33-7.23-3.65-6.83-1.16-14.6,4.08-18.43,1.93-1.41,4.13-2.09,6.48-2.34,2.19-.23,4.37-.06,6.53,.33,.28,.05,.47,0,.66-.19,2.18-2.23,4.37-4.46,6.56-6.69,1.25-1.27,2.49-2.54,3.75-3.8,.32-.31,.44-.58,.33-1.07-1.57-7.25,2.09-12.79,6.9-15.43,3.34-1.83,6.87-1.92,10.46-.82,2.3,.7,4.35,1.85,6.03,3.6,.9,.93,1.6,1.99,1.99,3.23,.07,.21,.11,.43,.18,.75Zm-48.2,33.35c.06,.25,.1,.4,.14,.55,.46,1.69,.93,3.37,1.36,5.07,.13,.5,.34,.75,.86,.88,1.68,.4,3.35,.83,5.01,1.32,.55,.16,.89,.01,1.26-.34,1.46-1.41,2.93-2.8,4.41-4.18,.24-.23,.26-.41,.18-.71-.53-1.9-1.05-3.81-1.55-5.73-.09-.33-.26-.48-.59-.57-1.94-.5-3.87-1.02-5.8-1.55-.29-.08-.46-.02-.65,.18-1.46,1.57-2.93,3.12-4.39,4.69-.11,.12-.18,.29-.24,.38Z"/><path class="cls-1" d="M217.14,83.04c.06-.09,.13-.26,.24-.38,1.46-1.56,2.93-3.12,4.39-4.69,.19-.21,.36-.26,.65-.18,1.93,.53,3.86,1.05,5.8,1.55,.32,.08,.5,.24,.59,.57,.51,1.91,1.02,3.82,1.55,5.73,.08,.3,.06,.48-.18,.71-1.48,1.38-2.95,2.77-4.41,4.18-.37,.36-.71,.51-1.26,.34-1.66-.49-3.33-.92-5.01-1.32-.52-.13-.74-.38-.86-.88-.43-1.7-.9-3.38-1.36-5.07-.04-.15-.08-.31-.14-.55Z"/></g><g><path class="cls-2" d="M303.16,3.69c.09,43.74,.17,87.49,.26,131.23-.19,1.03-.61,1.93-1.4,2.64-.95,.87-2.09,1.1-3.34,1.1-28.65,.05-57.3,.11-85.95,.16-.23,0-.46,0-.68-.01-2.42-.14-4.09-1.9-4.1-4.31-.09-43.35-.17-86.7-.25-130.05,0-.29,0-.6,.07-.88,.43-1.88,1.62-2.98,3.48-3.4,29.5-.06,59-.12,88.5-.17,1.88,.55,3.07,1.73,3.43,3.69Zm-89.69,2.23c.08,42.42,.17,84.76,.25,127.1,28-.05,55.96-.11,83.91-.16-.08-42.39-.17-84.73-.25-127.1-27.99,.05-55.92,.11-83.91,.16Z"/><path class="cls-3" d="M213.47,5.92c27.99-.05,55.93-.11,83.91-.16,.08,42.37,.17,84.71,.25,127.1-27.96,.05-55.91,.11-83.91,.16-.08-42.35-.17-84.69-.25-127.1Zm32.9,49.45c0,.91,.07,1.83-.01,2.73-.09,1.07-.69,1.84-1.77,2.09-.57,.13-1.17,.16-1.76,.14-1.96-.06-3.92-.03-5.86,.34-5.06,.94-9.4,3.26-12.89,7.05-5.05,5.48-7.06,11.98-6.06,19.34,.79,5.85,3.49,10.76,8.03,14.55,5.77,4.81,12.45,6.5,19.8,5.18,5.54-.99,10.1-3.82,13.64-8.19,4.05-4.99,5.77-10.72,5.13-17.13-.09-.87,.17-1.61,.78-2.24,.75-.78,1.68-.82,2.66-.71,1.69,.18,3.36,.09,5.04-.14,5.53-.78,10.25-3.19,13.98-7.32,5.37-5.95,7.22-12.94,5.63-20.79-2.51-12.42-14.75-20.59-27.26-18.25-12.09,2.26-19.5,12.99-19.1,23.37Z"/><path class="cls-1" d="M246.36,55.36c-.4-10.38,7.01-21.11,19.1-23.37,12.51-2.34,24.75,5.83,27.26,18.25,1.59,7.85-.26,14.84-5.63,20.79-3.74,4.14-8.45,6.55-13.98,7.32-1.68,.24-3.35,.32-5.04,.14-.98-.1-1.91-.06-2.66,.71-.61,.63-.86,1.37-.78,2.24,.65,6.42-1.08,12.14-5.13,17.13-3.55,4.37-8.1,7.2-13.64,8.19-7.36,1.31-14.03-.38-19.8-5.18-4.55-3.79-7.24-8.7-8.03-14.55-1-7.35,1.01-13.86,6.06-19.34,3.49-3.79,7.83-6.11,12.89-7.05,1.93-.36,3.89-.39,5.86-.34,.59,.02,1.19,0,1.76-.14,1.07-.25,1.67-1.02,1.77-2.09,.08-.9,.01-1.82,.01-2.73Zm36.29-5.68c-.08-.32-.12-.54-.18-.75-.39-1.24-1.09-2.29-1.99-3.23-1.68-1.75-3.73-2.9-6.03-3.6-3.59-1.09-7.12-1.01-10.46,.82-4.81,2.64-8.46,8.18-6.9,15.43,.1,.48-.02,.75-.33,1.07-1.26,1.25-2.5,2.53-3.75,3.8-2.19,2.23-4.38,4.45-6.56,6.69-.2,.2-.38,.25-.66,.19-2.16-.39-4.33-.56-6.53-.33-2.35,.25-4.55,.93-6.48,2.34-5.24,3.83-7.73,11.6-4.08,18.43,2.97,5.56,9.1,8.47,15.33,7.23,3.78-.75,6.92-2.64,9.1-5.9,1.6-2.39,2.13-5.12,2.09-7.94-.03-1.81-.29-3.63-.52-5.43-.05-.44,.01-.7,.32-1.01,3.15-3.14,6.28-6.3,9.42-9.44,.13-.13,.26-.24,.39-.35,9.4,3.38,16.11-2.07,18.13-7.33-3.54,0-7.06,.01-10.57,.02,0-3.6-.01-7.12-.02-10.68l10.28-.02Z"/><path class="cls-3" d="M282.65,49.69l-10.28,.02c0,3.57,.01,7.09,.02,10.68,3.51,0,7.03-.01,10.57-.02-2.02,5.26-8.72,10.71-18.13,7.33-.12,.11-.26,.22-.39,.35-3.14,3.15-6.27,6.3-9.42,9.44-.31,.31-.37,.57-.32,1.01,.22,1.81,.49,3.62,.52,5.43,.04,2.82-.49,5.55-2.09,7.94-2.18,3.26-5.32,5.15-9.1,5.9-6.23,1.23-12.36-1.67-15.33-7.23-3.65-6.83-1.16-14.6,4.08-18.43,1.93-1.41,4.13-2.09,6.48-2.34,2.19-.23,4.37-.06,6.53,.33,.28,.05,.47,0,.66-.19,2.18-2.23,4.37-4.46,6.56-6.69,1.25-1.27,2.49-2.54,3.75-3.8,.32-.31,.44-.58,.33-1.07-1.57-7.25,2.09-12.79,6.9-15.43,3.34-1.83,6.87-1.92,10.46-.82,2.3,.7,4.35,1.85,6.03,3.6,.9,.93,1.6,1.99,1.99,3.23,.07,.21,.11,.43,.18,.75Zm-48.2,33.35c.06,.25,.1,.4,.14,.55,.46,1.69,.93,3.37,1.36,5.07,.13,.5,.34,.75,.86,.88,1.68,.4,3.35,.83,5.01,1.32,.55,.16,.89,.01,1.26-.34,1.46-1.41,2.93-2.8,4.41-4.18,.24-.23,.26-.41,.18-.71-.53-1.9-1.05-3.81-1.55-5.73-.09-.33-.26-.48-.59-.57-1.94-.5-3.87-1.02-5.8-1.55-.29-.08-.46-.02-.65,.18-1.46,1.57-2.93,3.12-4.39,4.69-.11,.12-.18,.29-.24,.38Z"/><path class="cls-1" d="M234.45,83.04c.06-.09,.13-.26,.24-.38,1.46-1.56,2.93-3.12,4.39-4.69,.19-.21,.36-.26,.65-.18,1.93,.53,3.86,1.05,5.8,1.55,.32,.08,.5,.24,.59,.57,.51,1.91,1.02,3.82,1.55,5.73,.08,.3,.06,.48-.18,.71-1.48,1.38-2.95,2.77-4.41,4.18-.37,.36-.71,.51-1.26,.34-1.66-.49-3.33-.92-5.01-1.32-.52-.13-.74-.38-.86-.88-.43-1.7-.9-3.38-1.36-5.07-.04-.15-.08-.31-.14-.55Z"/></g><g><path class="cls-2" d="M320.46,3.69c.09,43.74,.17,87.49,.26,131.23-.19,1.03-.61,1.93-1.4,2.64-.95,.87-2.09,1.1-3.34,1.1-28.65,.05-57.3,.11-85.95,.16-.23,0-.46,0-.68-.01-2.42-.14-4.09-1.9-4.1-4.31-.09-43.35-.17-86.7-.25-130.05,0-.29,0-.6,.07-.88,.43-1.88,1.62-2.98,3.48-3.4,29.5-.06,59-.12,88.5-.17,1.88,.55,3.07,1.73,3.43,3.69Zm-89.69,2.23c.08,42.42,.17,84.76,.25,127.1,28-.05,55.96-.11,83.91-.16-.08-42.39-.17-84.73-.25-127.1-27.99,.05-55.92,.11-83.91,.16Z"/><path class="cls-3" d="M230.77,5.92c27.99-.05,55.93-.11,83.91-.16,.08,42.37,.17,84.71,.25,127.1-27.96,.05-55.91,.11-83.91,.16-.08-42.35-.17-84.69-.25-127.1Zm32.9,49.45c0,.91,.07,1.83-.01,2.73-.09,1.07-.69,1.84-1.77,2.09-.57,.13-1.17,.16-1.76,.14-1.96-.06-3.92-.03-5.86,.34-5.06,.94-9.4,3.26-12.89,7.05-5.05,5.48-7.06,11.98-6.06,19.34,.79,5.85,3.49,10.76,8.03,14.55,5.77,4.81,12.45,6.5,19.8,5.18,5.54-.99,10.1-3.82,13.64-8.19,4.05-4.99,5.77-10.72,5.13-17.13-.09-.87,.17-1.61,.78-2.24,.75-.78,1.68-.82,2.66-.71,1.69,.18,3.36,.09,5.04-.14,5.53-.78,10.25-3.19,13.98-7.32,5.37-5.95,7.22-12.94,5.63-20.79-2.51-12.42-14.75-20.59-27.26-18.25-12.09,2.26-19.5,12.99-19.1,23.37Z"/><path class="cls-1" d="M263.67,55.36c-.4-10.38,7.01-21.11,19.1-23.37,12.51-2.34,24.75,5.83,27.26,18.25,1.59,7.85-.26,14.84-5.63,20.79-3.74,4.14-8.45,6.55-13.98,7.32-1.68,.24-3.35,.32-5.04,.14-.98-.1-1.91-.06-2.66,.71-.61,.63-.86,1.37-.78,2.24,.65,6.42-1.08,12.14-5.13,17.13-3.55,4.37-8.1,7.2-13.64,8.19-7.36,1.31-14.03-.38-19.8-5.18-4.55-3.79-7.24-8.7-8.03-14.55-1-7.35,1.01-13.86,6.06-19.34,3.49-3.79,7.83-6.11,12.89-7.05,1.93-.36,3.89-.39,5.86-.34,.59,.02,1.19,0,1.76-.14,1.07-.25,1.67-1.02,1.77-2.09,.08-.9,.01-1.82,.01-2.73Zm36.29-5.68c-.08-.32-.12-.54-.18-.75-.39-1.24-1.09-2.29-1.99-3.23-1.68-1.75-3.73-2.9-6.03-3.6-3.59-1.09-7.12-1.01-10.46,.82-4.81,2.64-8.46,8.18-6.9,15.43,.1,.48-.02,.75-.33,1.07-1.26,1.25-2.5,2.53-3.75,3.8-2.19,2.23-4.38,4.45-6.56,6.69-.2,.2-.38,.25-.66,.19-2.16-.39-4.33-.56-6.53-.33-2.35,.25-4.55,.93-6.48,2.34-5.24,3.83-7.73,11.6-4.08,18.43,2.97,5.56,9.1,8.47,15.33,7.23,3.78-.75,6.92-2.64,9.1-5.9,1.6-2.39,2.13-5.12,2.09-7.94-.03-1.81-.29-3.63-.52-5.43-.05-.44,.01-.7,.32-1.01,3.15-3.14,6.28-6.3,9.42-9.44,.13-.13,.26-.24,.39-.35,9.4,3.38,16.11-2.07,18.13-7.33-3.54,0-7.06,.01-10.57,.02,0-3.6-.01-7.12-.02-10.68l10.28-.02Z"/><path class="cls-3" d="M299.96,49.69l-10.28,.02c0,3.57,.01,7.09,.02,10.68,3.51,0,7.03-.01,10.57-.02-2.02,5.26-8.72,10.71-18.13,7.33-.12,.11-.26,.22-.39,.35-3.14,3.15-6.27,6.3-9.42,9.44-.31,.31-.37,.57-.32,1.01,.22,1.81,.49,3.62,.52,5.43,.04,2.82-.49,5.55-2.09,7.94-2.18,3.26-5.32,5.15-9.1,5.9-6.23,1.23-12.36-1.67-15.33-7.23-3.65-6.83-1.16-14.6,4.08-18.43,1.93-1.41,4.13-2.09,6.48-2.34,2.19-.23,4.37-.06,6.53,.33,.28,.05,.47,0,.66-.19,2.18-2.23,4.37-4.46,6.56-6.69,1.25-1.27,2.49-2.54,3.75-3.8,.32-.31,.44-.58,.33-1.07-1.57-7.25,2.09-12.79,6.9-15.43,3.34-1.83,6.87-1.92,10.46-.82,2.3,.7,4.35,1.85,6.03,3.6,.9,.93,1.6,1.99,1.99,3.23,.07,.21,.11,.43,.18,.75Zm-48.2,33.35c.06,.25,.1,.4,.14,.55,.46,1.69,.93,3.37,1.36,5.07,.13,.5,.34,.75,.86,.88,1.68,.4,3.35,.83,5.01,1.32,.55,.16,.89,.01,1.26-.34,1.46-1.41,2.93-2.8,4.41-4.18,.24-.23,.26-.41,.18-.71-.53-1.9-1.05-3.81-1.55-5.73-.09-.33-.26-.48-.59-.57-1.94-.5-3.87-1.02-5.8-1.55-.29-.08-.46-.02-.65,.18-1.46,1.57-2.93,3.12-4.39,4.69-.11,.12-.18,.29-.24,.38Z"/><path class="cls-1" d="M251.76,83.04c.06-.09,.13-.26,.24-.38,1.46-1.56,2.93-3.12,4.39-4.69,.19-.21,.36-.26,.65-.18,1.93,.53,3.86,1.05,5.8,1.55,.32,.08,.5,.24,.59,.57,.51,1.91,1.02,3.82,1.55,5.73,.08,.3,.06,.48-.18,.71-1.48,1.38-2.95,2.77-4.41,4.18-.37,.36-.71,.51-1.26,.34-1.66-.49-3.33-.92-5.01-1.32-.52-.13-.74-.38-.86-.88-.43-1.7-.9-3.38-1.36-5.07-.04-.15-.08-.31-.14-.55Z"/></g><g><path class="cls-2" d="M337.77,3.69c.09,43.74,.17,87.49,.26,131.23-.19,1.03-.61,1.93-1.4,2.64-.95,.87-2.09,1.1-3.34,1.1-28.65,.05-57.3,.11-85.95,.16-.23,0-.46,0-.68-.01-2.42-.14-4.09-1.9-4.1-4.31-.09-43.35-.17-86.7-.25-130.05,0-.29,0-.6,.07-.88,.43-1.88,1.62-2.98,3.48-3.4,29.5-.06,59-.12,88.5-.17,1.88,.55,3.07,1.73,3.43,3.69Zm-89.69,2.23c.08,42.42,.17,84.76,.25,127.1,28-.05,55.96-.11,83.91-.16-.08-42.39-.17-84.73-.25-127.1-27.99,.05-55.92,.11-83.91,.16Z"/><path class="cls-3" d="M248.08,5.92c27.99-.05,55.93-.11,83.91-.16,.08,42.37,.17,84.71,.25,127.1-27.96,.05-55.91,.11-83.91,.16-.08-42.35-.17-84.69-.25-127.1Zm32.9,49.45c0,.91,.07,1.83-.01,2.73-.09,1.07-.69,1.84-1.77,2.09-.57,.13-1.17,.16-1.76,.14-1.96-.06-3.92-.03-5.86,.34-5.06,.94-9.4,3.26-12.89,7.05-5.05,5.48-7.06,11.98-6.06,19.34,.79,5.85,3.49,10.76,8.03,14.55,5.77,4.81,12.45,6.5,19.8,5.18,5.54-.99,10.1-3.82,13.64-8.19,4.05-4.99,5.77-10.72,5.13-17.13-.09-.87,.17-1.61,.78-2.24,.75-.78,1.68-.82,2.66-.71,1.69,.18,3.36,.09,5.04-.14,5.53-.78,10.25-3.19,13.98-7.32,5.37-5.95,7.22-12.94,5.63-20.79-2.51-12.42-14.75-20.59-27.26-18.25-12.09,2.26-19.5,12.99-19.1,23.37Z"/><path class="cls-1" d="M280.98,55.36c-.4-10.38,7.01-21.11,19.1-23.37,12.51-2.34,24.75,5.83,27.26,18.25,1.59,7.85-.26,14.84-5.63,20.79-3.74,4.14-8.45,6.55-13.98,7.32-1.68,.24-3.35,.32-5.04,.14-.98-.1-1.91-.06-2.66,.71-.61,.63-.86,1.37-.78,2.24,.65,6.42-1.08,12.14-5.13,17.13-3.55,4.37-8.1,7.2-13.64,8.19-7.36,1.31-14.03-.38-19.8-5.18-4.55-3.79-7.24-8.7-8.03-14.55-1-7.35,1.01-13.86,6.06-19.34,3.49-3.79,7.83-6.11,12.89-7.05,1.93-.36,3.89-.39,5.86-.34,.59,.02,1.19,0,1.76-.14,1.07-.25,1.67-1.02,1.77-2.09,.08-.9,.01-1.82,.01-2.73Zm36.29-5.68c-.08-.32-.12-.54-.18-.75-.39-1.24-1.09-2.29-1.99-3.23-1.68-1.75-3.73-2.9-6.03-3.6-3.59-1.09-7.12-1.01-10.46,.82-4.81,2.64-8.46,8.18-6.9,15.43,.1,.48-.02,.75-.33,1.07-1.26,1.25-2.5,2.53-3.75,3.8-2.19,2.23-4.38,4.45-6.56,6.69-.2,.2-.38,.25-.66,.19-2.16-.39-4.33-.56-6.53-.33-2.35,.25-4.55,.93-6.48,2.34-5.24,3.83-7.73,11.6-4.08,18.43,2.97,5.56,9.1,8.47,15.33,7.23,3.78-.75,6.92-2.64,9.1-5.9,1.6-2.39,2.13-5.12,2.09-7.94-.03-1.81-.29-3.63-.52-5.43-.05-.44,.01-.7,.32-1.01,3.15-3.14,6.28-6.3,9.42-9.44,.13-.13,.26-.24,.39-.35,9.4,3.38,16.11-2.07,18.13-7.33-3.54,0-7.06,.01-10.57,.02,0-3.6-.01-7.12-.02-10.68l10.28-.02Z"/><path class="cls-3" d="M317.27,49.69l-10.28,.02c0,3.57,.01,7.09,.02,10.68,3.51,0,7.03-.01,10.57-.02-2.02,5.26-8.72,10.71-18.13,7.33-.12,.11-.26,.22-.39,.35-3.14,3.15-6.27,6.3-9.42,9.44-.31,.31-.37,.57-.32,1.01,.22,1.81,.49,3.62,.52,5.43,.04,2.82-.49,5.55-2.09,7.94-2.18,3.26-5.32,5.15-9.1,5.9-6.23,1.23-12.36-1.67-15.33-7.23-3.65-6.83-1.16-14.6,4.08-18.43,1.93-1.41,4.13-2.09,6.48-2.34,2.19-.23,4.37-.06,6.53,.33,.28,.05,.47,0,.66-.19,2.18-2.23,4.37-4.46,6.56-6.69,1.25-1.27,2.49-2.54,3.75-3.8,.32-.31,.44-.58,.33-1.07-1.57-7.25,2.09-12.79,6.9-15.43,3.34-1.83,6.87-1.92,10.46-.82,2.3,.7,4.35,1.85,6.03,3.6,.9,.93,1.6,1.99,1.99,3.23,.07,.21,.11,.43,.18,.75Zm-48.2,33.35c.06,.25,.1,.4,.14,.55,.46,1.69,.93,3.37,1.36,5.07,.13,.5,.34,.75,.86,.88,1.68,.4,3.35,.83,5.01,1.32,.55,.16,.89,.01,1.26-.34,1.46-1.41,2.93-2.8,4.41-4.18,.24-.23,.26-.41,.18-.71-.53-1.9-1.05-3.81-1.55-5.73-.09-.33-.26-.48-.59-.57-1.94-.5-3.87-1.02-5.8-1.55-.29-.08-.46-.02-.65,.18-1.46,1.57-2.93,3.12-4.39,4.69-.11,.12-.18,.29-.24,.38Z"/><path class="cls-1" d="M269.07,83.04c.06-.09,.13-.26,.24-.38,1.46-1.56,2.93-3.12,4.39-4.69,.19-.21,.36-.26,.65-.18,1.93,.53,3.86,1.05,5.8,1.55,.32,.08,.5,.24,.59,.57,.51,1.91,1.02,3.82,1.55,5.73,.08,.3,.06,.48-.18,.71-1.48,1.38-2.95,2.77-4.41,4.18-.37,.36-.71,.51-1.26,.34-1.66-.49-3.33-.92-5.01-1.32-.52-.13-.74-.38-.86-.88-.43-1.7-.9-3.38-1.36-5.07-.04-.15-.08-.31-.14-.55Z"/></g><g><path class="cls-2" d="M355.08,3.69c.09,43.74,.17,87.49,.26,131.23-.19,1.03-.61,1.93-1.4,2.64-.95,.87-2.09,1.1-3.34,1.1-28.65,.05-57.3,.11-85.95,.16-.23,0-.46,0-.68-.01-2.42-.14-4.09-1.9-4.1-4.31-.09-43.35-.17-86.7-.25-130.05,0-.29,0-.6,.07-.88,.43-1.88,1.62-2.98,3.48-3.4,29.5-.06,59-.12,88.5-.17,1.88,.55,3.07,1.73,3.43,3.69Zm-89.69,2.23c.08,42.42,.17,84.76,.25,127.1,28-.05,55.96-.11,83.91-.16-.08-42.39-.17-84.73-.25-127.1-27.99,.05-55.92,.11-83.91,.16Z"/><path class="cls-3" d="M265.39,5.92c27.99-.05,55.93-.11,83.91-.16,.08,42.37,.17,84.71,.25,127.1-27.96,.05-55.91,.11-83.91,.16-.08-42.35-.17-84.69-.25-127.1Zm32.9,49.45c0,.91,.07,1.83-.01,2.73-.09,1.07-.69,1.84-1.77,2.09-.57,.13-1.17,.16-1.76,.14-1.96-.06-3.92-.03-5.86,.34-5.06,.94-9.4,3.26-12.89,7.05-5.05,5.48-7.06,11.98-6.06,19.34,.79,5.85,3.49,10.76,8.03,14.55,5.77,4.81,12.45,6.5,19.8,5.18,5.54-.99,10.1-3.82,13.64-8.19,4.05-4.99,5.77-10.72,5.13-17.13-.09-.87,.17-1.61,.78-2.24,.75-.78,1.68-.82,2.66-.71,1.69,.18,3.36,.09,5.04-.14,5.53-.78,10.25-3.19,13.98-7.32,5.37-5.95,7.22-12.94,5.63-20.79-2.51-12.42-14.75-20.59-27.26-18.25-12.09,2.26-19.5,12.99-19.1,23.37Z"/><path class="cls-1" d="M298.29,55.36c-.4-10.38,7.01-21.11,19.1-23.37,12.51-2.34,24.75,5.83,27.26,18.25,1.59,7.85-.26,14.84-5.63,20.79-3.74,4.14-8.45,6.55-13.98,7.32-1.68,.24-3.35,.32-5.04,.14-.98-.1-1.91-.06-2.66,.71-.61,.63-.86,1.37-.78,2.24,.65,6.42-1.08,12.14-5.13,17.13-3.55,4.37-8.1,7.2-13.64,8.19-7.36,1.31-14.03-.38-19.8-5.18-4.55-3.79-7.24-8.7-8.03-14.55-1-7.35,1.01-13.86,6.06-19.34,3.49-3.79,7.83-6.11,12.89-7.05,1.93-.36,3.89-.39,5.86-.34,.59,.02,1.19,0,1.76-.14,1.07-.25,1.67-1.02,1.77-2.09,.08-.9,.01-1.82,.01-2.73Zm36.29-5.68c-.08-.32-.12-.54-.18-.75-.39-1.24-1.09-2.29-1.99-3.23-1.68-1.75-3.73-2.9-6.03-3.6-3.59-1.09-7.12-1.01-10.46,.82-4.81,2.64-8.46,8.18-6.9,15.43,.1,.48-.02,.75-.33,1.07-1.26,1.25-2.5,2.53-3.75,3.8-2.19,2.23-4.38,4.45-6.56,6.69-.2,.2-.38,.25-.66,.19-2.16-.39-4.33-.56-6.53-.33-2.35,.25-4.55,.93-6.48,2.34-5.24,3.83-7.73,11.6-4.08,18.43,2.97,5.56,9.1,8.47,15.33,7.23,3.78-.75,6.92-2.64,9.1-5.9,1.6-2.39,2.13-5.12,2.09-7.94-.03-1.81-.29-3.63-.52-5.43-.05-.44,.01-.7,.32-1.01,3.15-3.14,6.28-6.3,9.42-9.44,.13-.13,.26-.24,.39-.35,9.4,3.38,16.11-2.07,18.13-7.33-3.54,0-7.06,.01-10.57,.02,0-3.6-.01-7.12-.02-10.68l10.28-.02Z"/><path class="cls-3" d="M334.57,49.69l-10.28,.02c0,3.57,.01,7.09,.02,10.68,3.51,0,7.03-.01,10.57-.02-2.02,5.26-8.72,10.71-18.13,7.33-.12,.11-.26,.22-.39,.35-3.14,3.15-6.27,6.3-9.42,9.44-.31,.31-.37,.57-.32,1.01,.22,1.81,.49,3.62,.52,5.43,.04,2.82-.49,5.55-2.09,7.94-2.18,3.26-5.32,5.15-9.1,5.9-6.23,1.23-12.36-1.67-15.33-7.23-3.65-6.83-1.16-14.6,4.08-18.43,1.93-1.41,4.13-2.09,6.48-2.34,2.19-.23,4.37-.06,6.53,.33,.28,.05,.47,0,.66-.19,2.18-2.23,4.37-4.46,6.56-6.69,1.25-1.27,2.49-2.54,3.75-3.8,.32-.31,.44-.58,.33-1.07-1.57-7.25,2.09-12.79,6.9-15.43,3.34-1.83,6.87-1.92,10.46-.82,2.3,.7,4.35,1.85,6.03,3.6,.9,.93,1.6,1.99,1.99,3.23,.07,.21,.11,.43,.18,.75Zm-48.2,33.35c.06,.25,.1,.4,.14,.55,.46,1.69,.93,3.37,1.36,5.07,.13,.5,.34,.75,.86,.88,1.68,.4,3.35,.83,5.01,1.32,.55,.16,.89,.01,1.26-.34,1.46-1.41,2.93-2.8,4.41-4.18,.24-.23,.26-.41,.18-.71-.53-1.9-1.05-3.81-1.55-5.73-.09-.33-.26-.48-.59-.57-1.94-.5-3.87-1.02-5.8-1.55-.29-.08-.46-.02-.65,.18-1.46,1.57-2.93,3.12-4.39,4.69-.11,.12-.18,.29-.24,.38Z"/><path class="cls-1" d="M286.37,83.04c.06-.09,.13-.26,.24-.38,1.46-1.56,2.93-3.12,4.39-4.69,.19-.21,.36-.26,.65-.18,1.93,.53,3.86,1.05,5.8,1.55,.32,.08,.5,.24,.59,.57,.51,1.91,1.02,3.82,1.55,5.73,.08,.3,.06,.48-.18,.71-1.48,1.38-2.95,2.77-4.41,4.18-.37,.36-.71,.51-1.26,.34-1.66-.49-3.33-.92-5.01-1.32-.52-.13-.74-.38-.86-.88-.43-1.7-.9-3.38-1.36-5.07-.04-.15-.08-.31-.14-.55Z"/></g></g></g></svg>